<svg width="100" height="105" viewBox="0 0 100 105" fill="none" xmlns="http://www.w3.org/2000/svg">
<g filter="url(#filter0_d)">
<path d="M71.875 3.125H28.125C22.7393 3.12996 17.5756 5.27162 13.7674 9.07988C9.95912 12.8881 7.81746 18.0518 7.8125 23.4375V85.9375C7.81621 87.1796 8.31126 88.3697 9.18953 89.248C10.0678 90.1262 11.2579 90.6213 12.5 90.625H14.0625V95.3125C14.0625 95.7269 14.2271 96.1243 14.5201 96.4174C14.8132 96.7104 15.2106 96.875 15.625 96.875H25C25.2894 96.8783 25.5738 96.7993 25.82 96.6471C26.0663 96.495 26.2641 96.276 26.3906 96.0156L29.0938 90.625H70.9062L73.6094 96.0156C73.7359 96.276 73.9337 96.495 74.18 96.6471C74.4262 96.7993 74.7106 96.8783 75 96.875H84.375C84.7894 96.875 85.1868 96.7104 85.4799 96.4174C85.7729 96.1243 85.9375 95.7269 85.9375 95.3125V90.625H87.5C88.7421 90.6213 89.9322 90.1262 90.8105 89.248C91.6887 88.3697 92.1838 87.1796 92.1875 85.9375V23.4375C92.1825 18.0518 90.0409 12.8881 86.2326 9.07988C82.4244 5.27162 77.2607 3.12996 71.875 3.125ZM24.0312 93.75H17.1875V90.625H25.5937L24.0312 93.75ZM82.8125 93.75H75.9688L74.4062 90.625H82.8125V93.75ZM89.0625 85.9375C89.0625 86.3519 88.8979 86.7493 88.6049 87.0424C88.3118 87.3354 87.9144 87.5 87.5 87.5H12.5C12.0856 87.5 11.6882 87.3354 11.3951 87.0424C11.1021 86.7493 10.9375 86.3519 10.9375 85.9375V50H35.9375V54.6875C35.9412 55.9296 36.4363 57.1197 37.3145 57.998C38.1928 58.8762 39.3829 59.3713 40.625 59.375H42.1875V73.4375C42.1875 75.5095 43.0106 77.4966 44.4757 78.9618C45.9409 80.4269 47.928 81.25 50 81.25C52.072 81.25 54.0591 80.4269 55.5243 78.9618C56.9894 77.4966 57.8125 75.5095 57.8125 73.4375V59.375H59.375C60.6171 59.3713 61.8072 58.8762 62.6855 57.998C63.5637 57.1197 64.0588 55.9296 64.0625 54.6875V50H89.0625V85.9375ZM53.125 43.75H46.875C45.6329 43.7537 44.4428 44.2488 43.5645 45.127C42.6863 46.0053 42.1912 47.1954 42.1875 48.4375V56.25H40.625C40.2106 56.25 39.8132 56.0854 39.5201 55.7924C39.2271 55.4993 39.0625 55.1019 39.0625 54.6875V42.1875C39.0625 41.7731 39.2271 41.3757 39.5201 41.0826C39.8132 40.7896 40.2106 40.625 40.625 40.625H59.375C59.7894 40.625 60.1868 40.7896 60.4799 41.0826C60.7729 41.3757 60.9375 41.7731 60.9375 42.1875V54.6875C60.9375 55.1019 60.7729 55.4993 60.4799 55.7924C60.1868 56.0854 59.7894 56.25 59.375 56.25H57.8125V48.4375C57.8088 47.1954 57.3137 46.0053 56.4355 45.127C55.5572 44.2488 54.3671 43.7537 53.125 43.75ZM54.6875 48.4375V73.4375C54.6875 74.6807 54.1936 75.873 53.3146 76.7521C52.4355 77.6311 51.2432 78.125 50 78.125C48.7568 78.125 47.5645 77.6311 46.6854 76.7521C45.8064 75.873 45.3125 74.6807 45.3125 73.4375V48.4375C45.3125 48.0231 45.4771 47.6257 45.7701 47.3326C46.0632 47.0396 46.4606 46.875 46.875 46.875H53.125C53.5394 46.875 53.9368 47.0396 54.2299 47.3326C54.5229 47.6257 54.6875 48.0231 54.6875 48.4375ZM89.0625 46.875H64.0625V42.1875C64.0588 40.9454 63.5637 39.7553 62.6855 38.877C61.8072 37.9988 60.6171 37.5037 59.375 37.5H40.625C39.3829 37.5037 38.1928 37.9988 37.3145 38.877C36.4363 39.7553 35.9412 40.9454 35.9375 42.1875V46.875H10.9375V23.4375C10.9404 18.88 12.7521 14.51 15.9748 11.2873C19.1975 8.06465 23.5675 6.2529 28.125 6.25H71.875C76.4325 6.2529 80.8025 8.06465 84.0252 11.2873C87.2478 14.51 89.0596 18.88 89.0625 23.4375V46.875Z" fill="#39BEB9"/>
<path d="M28.125 28.125C29.6702 28.125 31.1806 27.6668 32.4654 26.8084C33.7502 25.9499 34.7515 24.7298 35.3428 23.3022C35.9341 21.8747 36.0888 20.3038 35.7874 18.7884C35.4859 17.2729 34.7419 15.8808 33.6493 14.7882C32.5567 13.6956 31.1646 12.9516 29.6491 12.6501C28.1337 12.3487 26.5628 12.5034 25.1353 13.0947C23.7077 13.686 22.4876 14.6874 21.6291 15.9721C20.7707 17.2569 20.3125 18.7673 20.3125 20.3125C20.315 22.3837 21.1389 24.3694 22.6035 25.834C24.0681 27.2986 26.0538 28.1225 28.125 28.125ZM28.125 15.625C29.0521 15.625 29.9584 15.8999 30.7292 16.415C31.5001 16.9301 32.1009 17.6621 32.4557 18.5187C32.8105 19.3752 32.9033 20.3177 32.7224 21.227C32.5416 22.1363 32.0951 22.9715 31.4396 23.6271C30.784 24.2826 29.9488 24.7291 29.0395 24.9099C28.1302 25.0908 27.1877 24.998 26.3312 24.6432C25.4746 24.2884 24.7426 23.6876 24.2275 22.9167C23.7124 22.1459 23.4375 21.2396 23.4375 20.3125C23.4375 19.0693 23.9314 17.877 24.8104 16.9979C25.6895 16.1189 26.8818 15.625 28.125 15.625Z" fill="#39BEB9"/>
<path d="M75 15.625H46.875C45.6318 15.625 44.4395 16.1189 43.5604 16.9979C42.6814 17.877 42.1875 19.0693 42.1875 20.3125C42.1875 21.5557 42.6814 22.748 43.5604 23.6271C44.4395 24.5061 45.6318 25 46.875 25H75C76.2432 25 77.4355 24.5061 78.3146 23.6271C79.1936 22.748 79.6875 21.5557 79.6875 20.3125C79.6875 19.0693 79.1936 17.877 78.3146 16.9979C77.4355 16.1189 76.2432 15.625 75 15.625ZM61.2188 21.875H46.875C46.4606 21.875 46.0632 21.7104 45.7701 21.4174C45.4771 21.1243 45.3125 20.7269 45.3125 20.3125C45.3125 19.8981 45.4771 19.5007 45.7701 19.2076C46.0632 18.9146 46.4606 18.75 46.875 18.75H61.2188C60.8438 19.7579 60.8438 20.8671 61.2188 21.875ZM65.625 21.875C65.316 21.875 65.0139 21.7834 64.7569 21.6117C64.5 21.44 64.2997 21.196 64.1814 20.9104C64.0632 20.6249 64.0322 20.3108 64.0925 20.0077C64.1528 19.7046 64.3016 19.4262 64.5201 19.2076C64.7387 18.9891 65.0171 18.8403 65.3202 18.78C65.6233 18.7197 65.9374 18.7507 66.2229 18.8689C66.5085 18.9872 66.7525 19.1875 66.9242 19.4444C67.0959 19.7014 67.1875 20.0035 67.1875 20.3125C67.1875 20.7269 67.0229 21.1243 66.7299 21.4174C66.4368 21.7104 66.0394 21.875 65.625 21.875ZM75 21.875H70.0312C70.4062 20.8671 70.4062 19.7579 70.0312 18.75H75C75.4144 18.75 75.8118 18.9146 76.1049 19.2076C76.3979 19.5007 76.5625 19.8981 76.5625 20.3125C76.5625 20.7269 76.3979 21.1243 76.1049 21.4174C75.8118 21.7104 75.4144 21.875 75 21.875Z" fill="#39BEB9"/>
</g>
<defs>
<filter id="filter0_d" x="-4" y="0" width="108" height="108" filterUnits="userSpaceOnUse" color-interpolation-filters="sRGB">
<feFlood flood-opacity="0" result="BackgroundImageFix"/>
<feColorMatrix in="SourceAlpha" type="matrix" values="0 0 0 0 0 0 0 0 0 0 0 0 0 0 0 0 0 0 127 0"/>
<feOffset dy="4"/>
<feGaussianBlur stdDeviation="2"/>
<feColorMatrix type="matrix" values="0 0 0 0 0 0 0 0 0 0 0 0 0 0 0 0 0 0 0.25 0"/>
<feBlend mode="normal" in2="BackgroundImageFix" result="effect1_dropShadow"/>
<feBlend mode="normal" in="SourceGraphic" in2="effect1_dropShadow" result="shape"/>
</filter>
</defs>
</svg>
