<svg width="100" height="100" viewBox="0 0 100 100" fill="none" xmlns="http://www.w3.org/2000/svg">
<g filter="url(#filter0_d)">
<path d="M81 28H54H46H19C16.243 28 14 30.243 14 33V52C14 54.757 16.243 57 19 57H46H54H81C83.757 57 86 54.757 86 52V33C86 30.243 83.757 28 81 28ZM19 30H46H54H81C82.654 30 84 31.346 84 33V47H54H46H16V33C16 31.346 17.346 30 19 30ZM46 55H25V53H46H54H75V55H54H46ZM81 55H77V51H54H46H23V55H19C17.346 55 16 53.654 16 52V49H46H54H84V52C84 53.654 82.654 55 81 55Z" fill="#39BEB9"/>
<path d="M27 41H19V43H27V41Z" fill="#39BEB9"/>
<path d="M31 41H29V43H31V41Z" fill="#39BEB9"/>
<path d="M28 61H26C26 61.796 25.698 62.148 25.241 62.682C24.688 63.326 24 64.129 24 65.665C24 67.202 24.688 68.004 25.241 68.649C25.698 69.183 26 69.535 26 70.332C26 71.129 25.698 71.482 25.24 72.015C24.688 72.66 24 73.463 24 75H26C26 74.203 26.302 73.85 26.76 73.317C27.312 72.672 28 71.868 28 70.332C28 68.796 27.313 67.993 26.76 67.348C26.302 66.815 26 66.462 26 65.665C26 64.868 26.302 64.516 26.759 63.983C27.312 63.338 28 62.536 28 61Z" fill="#39BEB9"/>
<path d="M40 61H38C38 61.796 37.698 62.148 37.241 62.682C36.688 63.326 36 64.129 36 65.665C36 67.202 36.688 68.004 37.241 68.649C37.698 69.183 38 69.535 38 70.332C38 71.129 37.698 71.482 37.24 72.015C36.688 72.66 36 73.463 36 75H38C38 74.203 38.302 73.85 38.76 73.317C39.312 72.672 40 71.868 40 70.332C40 68.796 39.313 67.993 38.76 67.348C38.302 66.815 38 66.462 38 65.665C38 64.868 38.302 64.516 38.759 63.983C39.312 63.338 40 62.536 40 61Z" fill="#39BEB9"/>
<path d="M52 61H50C50 61.796 49.698 62.148 49.241 62.682C48.688 63.326 48 64.129 48 65.665C48 67.202 48.688 68.004 49.241 68.649C49.698 69.183 50 69.535 50 70.332C50 71.129 49.698 71.482 49.24 72.015C48.688 72.66 48 73.463 48 75H50C50 74.203 50.302 73.85 50.76 73.317C51.312 72.672 52 71.868 52 70.332C52 68.796 51.313 67.993 50.76 67.348C50.302 66.815 50 66.462 50 65.665C50 64.868 50.302 64.516 50.759 63.983C51.312 63.338 52 62.536 52 61Z" fill="#39BEB9"/>
<path d="M64 61H62C62 61.796 61.698 62.148 61.241 62.682C60.688 63.326 60 64.129 60 65.665C60 67.202 60.688 68.004 61.241 68.649C61.698 69.183 62 69.535 62 70.332C62 71.129 61.698 71.482 61.24 72.015C60.688 72.66 60 73.463 60 75H62C62 74.203 62.302 73.85 62.76 73.317C63.312 72.672 64 71.868 64 70.332C64 68.796 63.313 67.993 62.76 67.348C62.302 66.815 62 66.462 62 65.665C62 64.868 62.302 64.516 62.759 63.983C63.312 63.338 64 62.536 64 61Z" fill="#39BEB9"/>
<path d="M76 61H74C74 61.796 73.698 62.148 73.241 62.682C72.688 63.326 72 64.129 72 65.665C72 67.202 72.688 68.004 73.241 68.649C73.698 69.183 74 69.535 74 70.332C74 71.129 73.698 71.482 73.24 72.015C72.688 72.66 72 73.463 72 75H74C74 74.203 74.302 73.85 74.76 73.317C75.312 72.672 76 71.868 76 70.332C76 68.796 75.313 67.993 74.76 67.348C74.302 66.815 74 66.462 74 65.665C74 64.868 74.302 64.516 74.759 63.983C75.312 63.338 76 62.536 76 61Z" fill="#39BEB9"/>
</g>
<defs>
<filter id="filter0_d" x="-4" y="0" width="108" height="108" filterUnits="userSpaceOnUse" color-interpolation-filters="sRGB">
<feFlood flood-opacity="0" result="BackgroundImageFix"/>
<feColorMatrix in="SourceAlpha" type="matrix" values="0 0 0 0 0 0 0 0 0 0 0 0 0 0 0 0 0 0 127 0"/>
<feOffset dy="4"/>
<feGaussianBlur stdDeviation="2"/>
<feColorMatrix type="matrix" values="0 0 0 0 0 0 0 0 0 0 0 0 0 0 0 0 0 0 0.25 0"/>
<feBlend mode="normal" in2="BackgroundImageFix" result="effect1_dropShadow"/>
<feBlend mode="normal" in="SourceGraphic" in2="effect1_dropShadow" result="shape"/>
</filter>
</defs>
</svg>
