<svg width="100" height="100" viewBox="0 0 100 100" fill="none" xmlns="http://www.w3.org/2000/svg">
<g filter="url(#filter0_d)">
<path d="M64.1562 18.9228C64.6041 18.9712 65.0225 19.1694 65.3437 19.4853L78.3437 31.4853C78.567 31.6527 78.7528 31.865 78.8891 32.1086C79.0254 32.3521 79.1092 32.6215 79.1352 32.8993C79.1611 33.1772 79.1287 33.4575 79.0398 33.722C78.951 33.9866 78.8078 34.2297 78.6194 34.4356C78.431 34.6415 78.2016 34.8057 77.946 34.9177C77.6903 35.0296 77.4141 35.0868 77.135 35.0856C76.8559 35.0844 76.5802 35.0248 76.3255 34.9106C76.0708 34.7965 75.8428 34.6303 75.6562 34.4228L62.6562 22.4228C62.337 22.1448 62.1142 21.7727 62.0198 21.36C61.9255 20.9474 61.9645 20.5154 62.1312 20.1263C62.298 19.7373 62.5839 19.4111 62.9478 19.1948C63.3117 18.9785 63.7348 18.8833 64.1562 18.9228ZM36.0937 18.9228C36.4938 18.9372 36.8802 19.0712 37.2032 19.3077C37.5262 19.5441 37.7709 19.872 37.9055 20.249C38.0401 20.6259 38.0585 21.0346 37.9584 21.4221C37.8583 21.8097 37.6441 22.1582 37.3437 22.4228L24.3437 34.4228C24.1571 34.6303 23.9292 34.7965 23.6745 34.9106C23.4198 35.0248 23.1441 35.0844 22.865 35.0856C22.5859 35.0868 22.3097 35.0296 22.054 34.9177C21.7984 34.8057 21.569 34.6415 21.3806 34.4356C21.1922 34.2297 21.049 33.9866 20.9602 33.722C20.8713 33.4575 20.8389 33.1772 20.8648 32.8993C20.8908 32.6215 20.9746 32.3521 21.1109 32.1086C21.2472 31.865 21.433 31.6527 21.6562 31.4853L34.6562 19.4853C34.8466 19.301 35.0718 19.1563 35.3185 19.0597C35.5653 18.9632 35.8288 18.9166 36.0937 18.9228ZM50 24.954C63.7834 24.954 75 36.1706 75 49.954C75 58.8067 70.3686 66.6045 63.4062 71.0478L67.6875 77.8915C67.8522 78.1127 67.9693 78.3656 68.0315 78.6343C68.0938 78.9029 68.0998 79.1816 68.0492 79.4528C67.9986 79.7239 67.8925 79.9816 67.7375 80.2097C67.5825 80.4378 67.3821 80.6315 67.1487 80.7784C66.9153 80.9254 66.654 81.0224 66.3813 81.0636C66.1086 81.1047 65.8304 81.089 65.564 81.0174C65.2977 80.9459 65.049 80.8201 64.8336 80.6478C64.6183 80.4756 64.4408 80.2606 64.3125 80.0165L59.875 72.9228C56.8444 74.231 53.5047 74.954 50 74.954C46.4953 74.954 43.1556 74.231 40.125 72.9228L35.6875 80.0165C35.5592 80.2606 35.3817 80.4756 35.1664 80.6478C34.951 80.8201 34.7023 80.9459 34.436 81.0174C34.1696 81.089 33.8913 81.1047 33.6186 81.0636C33.3459 81.0224 33.0847 80.9254 32.8513 80.7784C32.6179 80.6315 32.4175 80.4378 32.2625 80.2097C32.1075 79.9816 32.0014 79.7239 31.9508 79.4528C31.9002 79.1816 31.9062 78.9029 31.9685 78.6343C32.0307 78.3656 32.1478 78.1127 32.3125 77.8915L36.5937 71.0478C29.6313 66.6045 25 58.8067 25 49.954C25 36.1706 36.2166 24.954 50 24.954ZM50 28.954C38.3784 28.954 29 38.3324 29 49.954C29 61.5754 38.3784 70.954 50 70.954C61.6216 70.954 71 61.5754 71 49.954C71 38.3324 61.6216 28.954 50 28.954ZM50 34.954C51.1046 34.954 52 35.8494 52 36.954V49.954C52 51.0586 51.1046 51.954 50 51.954H39C37.8954 51.954 37 51.0586 37 49.954C37 48.8494 37.8954 47.954 39 47.954H48V36.954C48 35.8494 48.8954 34.954 50 34.954Z" fill="#39BEB9"/>
</g>
<defs>
<filter id="filter0_d" x="-4" y="0" width="108" height="108" filterUnits="userSpaceOnUse" color-interpolation-filters="sRGB">
<feFlood flood-opacity="0" result="BackgroundImageFix"/>
<feColorMatrix in="SourceAlpha" type="matrix" values="0 0 0 0 0 0 0 0 0 0 0 0 0 0 0 0 0 0 127 0"/>
<feOffset dy="4"/>
<feGaussianBlur stdDeviation="2"/>
<feColorMatrix type="matrix" values="0 0 0 0 0 0 0 0 0 0 0 0 0 0 0 0 0 0 0.25 0"/>
<feBlend mode="normal" in2="BackgroundImageFix" result="effect1_dropShadow"/>
<feBlend mode="normal" in="SourceGraphic" in2="effect1_dropShadow" result="shape"/>
</filter>
</defs>
</svg>
