<svg width="100" height="100" viewBox="0 0 100 100" fill="none" xmlns="http://www.w3.org/2000/svg">
<g filter="url(#filter0_d)">
<path d="M70.3 40.4001C61.9 40.4001 55.1 47.2001 55.1 55.6001C55.1 60.9001 57.8 65.6001 61.9 68.3001H38.1C42.2 65.6001 44.9 60.9001 44.9 55.6001C44.9 47.2001 38.1 40.4001 29.7 40.4001C21.3 40.4001 14.5 47.2001 14.5 55.6001C14.5 64.0001 21.3 70.8001 29.7 70.8001H70.3C78.7 70.8001 85.5 64.0001 85.5 55.6001C85.6 47.2001 78.7 40.4001 70.3 40.4001ZM17 55.6001C17 48.6001 22.7 42.9001 29.7 42.9001C36.7 42.9001 42.4 48.6001 42.4 55.6001C42.4 62.6001 36.7 68.3001 29.7 68.3001C22.7 68.3001 17 62.7001 17 55.6001ZM70.3 68.3001C63.3 68.3001 57.6 62.6001 57.6 55.6001C57.6 48.6001 63.3 42.9001 70.3 42.9001C77.3 42.9001 83 48.6001 83 55.6001C83 62.6001 77.3 68.3001 70.3 68.3001Z" fill="#39BEB9"/>
<path d="M90.7 16.1001H9.4C6.9 16.1001 4.9 18.1001 4.9 20.6001V79.3001C4.9 81.8001 6.9 83.8001 9.4 83.8001H90.7C93.2 83.8001 95.2 81.8001 95.2 79.3001V20.6001C95.2 18.2001 93.1 16.1001 90.7 16.1001ZM92.9 79.2001C92.9 80.5001 91.8 81.6001 90.5 81.6001H9.5C8.2 81.6001 7.1 80.5001 7.1 79.2001V20.8001C7.1 19.5001 8.2 18.4001 9.5 18.4001H90.6C91.9 18.4001 93 19.5001 93 20.8001V79.2001H92.9Z" fill="#39BEB9"/>
</g>
<defs>
<filter id="filter0_d" x="-4" y="0" width="108" height="108" filterUnits="userSpaceOnUse" color-interpolation-filters="sRGB">
<feFlood flood-opacity="0" result="BackgroundImageFix"/>
<feColorMatrix in="SourceAlpha" type="matrix" values="0 0 0 0 0 0 0 0 0 0 0 0 0 0 0 0 0 0 127 0"/>
<feOffset dy="4"/>
<feGaussianBlur stdDeviation="2"/>
<feColorMatrix type="matrix" values="0 0 0 0 0 0 0 0 0 0 0 0 0 0 0 0 0 0 0.25 0"/>
<feBlend mode="normal" in2="BackgroundImageFix" result="effect1_dropShadow"/>
<feBlend mode="normal" in="SourceGraphic" in2="effect1_dropShadow" result="shape"/>
</filter>
</defs>
</svg>
