<svg width="100" height="103" viewBox="0 0 100 103" fill="none" xmlns="http://www.w3.org/2000/svg">
<g filter="url(#filter0_d)">
<path d="M21.801 47.1071V47.7891C21.801 49.4881 21.96 51.1491 22.25 52.7661C22.255 52.7961 22.259 52.8261 22.266 52.8561C24.018 62.4711 30.658 70.3971 39.513 73.9581L33.429 93.0441C33.177 93.8331 33.613 94.6771 34.402 94.9291C34.553 94.9781 34.706 95.0001 34.856 95.0001C35.492 95.0001 36.082 94.5931 36.285 93.9551L39.159 84.9401H48.5V93.5001C48.5 94.3291 49.172 95.0001 50 95.0001C50.828 95.0001 51.5 94.3291 51.5 93.5001V84.9411H60.841L63.715 93.9561C63.918 94.5931 64.508 95.0001 65.144 95.0001C65.294 95.0001 65.448 94.9771 65.6 94.9291C66.389 94.6781 66.825 93.8331 66.573 93.0441L60.489 73.9581C69.348 70.3951 75.99 62.4631 77.738 52.8411C77.742 52.8241 77.744 52.8071 77.747 52.7901C78.039 51.1661 78.2 49.4961 78.2 47.7891V47.1071C78.2 44.5751 76.14 42.5151 73.608 42.5151H26.393C23.86 42.5161 21.801 44.5761 21.801 47.1071ZM40.115 81.9411L42.351 74.9261C44.323 75.4831 46.379 75.8361 48.5 75.9481V81.9411H40.115ZM59.885 81.9411H51.5V75.9481C53.62 75.8361 55.677 75.4831 57.649 74.9261L59.885 81.9411ZM75.199 47.1071V47.7891C75.199 48.8841 75.121 49.9611 74.985 51.0191H67.113C66.285 51.0191 65.613 51.6901 65.613 52.5191C65.613 53.3481 66.285 54.0191 67.113 54.0191H74.418C71.638 64.9111 61.745 72.9891 50 72.9891C38.255 72.9891 28.362 64.9111 25.582 54.0201H61.423C62.251 54.0201 62.923 53.3491 62.923 52.5201C62.923 51.6911 62.251 51.0201 61.423 51.0201H25.015C24.879 49.9611 24.801 48.8851 24.801 47.7901V47.1081C24.801 46.2301 25.515 45.5161 26.393 45.5161H73.608C74.485 45.5161 75.199 46.2291 75.199 47.1071Z" fill="#39BEB9"/>
<path d="M39.48 15.0271C39.409 15.4371 39.354 15.8611 39.321 16.2981C38.944 21.2481 41.302 26.0431 45.475 28.8131C45.73 28.9821 46.018 29.0631 46.303 29.0631C46.788 29.0631 47.265 28.8281 47.554 28.3931C48.012 27.7031 47.824 26.7721 47.133 26.3131C43.865 24.1441 42.018 20.3941 42.313 16.5251C42.338 16.1881 42.379 15.8601 42.435 15.5441C42.578 14.7281 42.032 13.9511 41.215 13.8081C40.408 13.6701 39.623 14.2111 39.48 15.0271Z" fill="#39BEB9"/>
<path d="M42.386 11.2251C42.659 11.4361 42.983 11.5381 43.303 11.5381C43.751 11.5381 44.195 11.3381 44.491 10.9551C46.096 8.88012 47.987 7.86812 48.067 7.82612C48.799 7.43912 49.08 6.53212 48.694 5.80012C48.306 5.06612 47.399 4.78812 46.667 5.17312C46.408 5.30912 44.083 6.58012 42.118 9.12012C41.61 9.77612 41.73 10.7181 42.386 11.2251Z" fill="#39BEB9"/>
<path d="M56.104 31.6091C55.272 32.9521 54.183 34.0761 52.866 34.9501C52.176 35.4081 51.987 36.3391 52.445 37.0291C52.734 37.4651 53.211 37.7001 53.696 37.7001C53.981 37.7001 54.269 37.6191 54.524 37.4501C56.204 36.3351 57.593 34.9021 58.655 33.1881C59.092 32.4841 58.874 31.5601 58.17 31.1231C57.465 30.6881 56.541 30.9041 56.104 31.6091Z" fill="#39BEB9"/>
<path d="M59.158 28.6781C59.918 28.6781 60.57 28.1021 60.648 27.3301C60.729 26.5381 60.739 25.7321 60.678 24.9351C60.108 17.4551 53.608 13.9551 53.331 13.8101C52.598 13.4231 51.69 13.7061 51.305 14.4391C50.92 15.1721 51.201 16.0801 51.935 16.4651C52.152 16.5791 57.241 19.3191 57.686 25.1631C57.734 25.7831 57.726 26.4101 57.664 27.0261C57.58 27.8501 58.181 28.5871 59.005 28.6701C59.056 28.6751 59.107 28.6781 59.158 28.6781Z" fill="#39BEB9"/>
</g>
<defs>
<filter id="filter0_d" x="-4" y="0" width="108" height="108" filterUnits="userSpaceOnUse" color-interpolation-filters="sRGB">
<feFlood flood-opacity="0" result="BackgroundImageFix"/>
<feColorMatrix in="SourceAlpha" type="matrix" values="0 0 0 0 0 0 0 0 0 0 0 0 0 0 0 0 0 0 127 0"/>
<feOffset dy="4"/>
<feGaussianBlur stdDeviation="2"/>
<feColorMatrix type="matrix" values="0 0 0 0 0 0 0 0 0 0 0 0 0 0 0 0 0 0 0.25 0"/>
<feBlend mode="normal" in2="BackgroundImageFix" result="effect1_dropShadow"/>
<feBlend mode="normal" in="SourceGraphic" in2="effect1_dropShadow" result="shape"/>
</filter>
</defs>
</svg>
