<svg width="249" height="160" viewBox="0 0 249 160" fill="none" xmlns="http://www.w3.org/2000/svg">
<g filter="url(#filter0_f)">
<path d="M29.4713 71.0971C22.3621 71.0971 16.5776 65.1411 16.5776 57.8199C16.5776 51.2156 25.8192 40.8943 27.6722 38.8931C28.6257 37.8612 30.3169 37.8612 31.2703 38.8931C33.1233 40.8943 42.3637 51.2156 42.3637 57.8199C42.3637 65.1411 36.5805 71.0971 29.4713 71.0971ZM29.4713 44.2596C25.8401 48.5477 21.4797 54.7095 21.4797 57.8187C21.4797 62.4364 25.0643 66.1938 29.4713 66.1938C33.877 66.1938 37.4616 62.4364 37.4616 57.8187C37.4616 54.7095 33.1025 48.5477 29.4713 44.2596Z" fill="#39BEB9"/>
<path d="M96.6 51.5253H60.826C59.4731 51.5253 58.375 50.4273 58.375 49.0743C58.375 47.7214 59.4731 46.6233 60.826 46.6233H96.6C97.9542 46.6233 99.051 47.7214 99.051 49.0743C99.051 50.4273 97.9542 51.5253 96.6 51.5253Z" fill="#39BEB9"/>
<path d="M85.6709 62.5783H60.826C59.4731 62.5783 58.375 61.4803 58.375 60.1273C58.375 58.7743 59.4731 57.6763 60.826 57.6763H85.6697C87.0226 57.6763 88.1207 58.7743 88.1207 60.1273C88.1207 61.4803 87.0238 62.5783 85.6709 62.5783Z" fill="#39BEB9"/>
<path d="M22.6585 115.131C20.6952 115.131 19.5322 112.841 20.6683 111.254L28.1537 100.791L21.2173 100.806C19.1621 100.914 18.0751 98.3282 19.3104 96.8085L29.5581 84.2151C30.4136 83.1649 31.9577 83.008 33.0067 83.861C34.0558 84.7152 34.2139 86.2593 33.3609 87.3083L26.3743 95.8931L32.9234 95.8796C34.8757 95.8796 36.0656 98.1591 34.921 99.7571L24.6524 114.105C24.1757 114.775 23.4232 115.131 22.6585 115.131Z" fill="#39BEB9"/>
<path d="M96.2299 99.3086H58.2267C56.8737 99.3086 55.7756 98.2105 55.7756 96.8575C55.7756 95.5046 56.8737 94.4065 58.2267 94.4065H96.2299C97.5828 94.4065 98.6809 95.5046 98.6809 96.8575C98.6809 98.2105 97.5828 99.3086 96.2299 99.3086Z" fill="#39BEB9"/>
<path d="M84.6181 111.125H58.2267C56.8737 111.125 55.7756 110.027 55.7756 108.674C55.7756 107.321 56.8737 106.223 58.2267 106.223H84.6181C85.9711 106.223 87.0691 107.321 87.0691 108.674C87.0691 110.027 85.9723 111.125 84.6181 111.125Z" fill="#39BEB9"/>
<path d="M121.083 127.755C118.421 124.713 114.334 125.297 110.71 125.286L110.523 55.6972C110.519 54.3454 109.424 53.2523 108.072 53.2523C108.069 53.2523 108.067 53.2523 108.065 53.2523C106.71 53.256 105.617 54.3565 105.621 55.7094L105.808 125.27L40.7507 125.063C39.3708 125.063 38.2274 126.248 38.2936 127.634C38.7973 137.872 37.5521 144.459 34.4871 147.775C31.7456 150.742 27.5924 150.793 23.8558 150.793C15.6093 150.793 8.90083 143.837 8.90083 135.287V29.454C8.90083 28.2236 9.93149 27.2236 11.1938 27.2236C33.3829 27.264 75.5798 27.3523 77.5701 27.4013C78.9353 27.4957 80.1804 26.3621 80.1804 24.9552C80.1804 22.5054 78.5211 22.4968 74.8837 22.4784C73.0639 22.4698 70.4633 22.46 67.3419 22.4502C61.1041 22.4294 52.7877 22.4085 44.4702 22.3902C27.8375 22.3522 11.2036 22.3215 11.1999 22.3215C7.23046 22.3215 4 25.5214 4 29.454V135.287C4 146.541 12.9083 155.695 23.857 155.695C25.7235 155.695 99.5153 155.963 99.9529 155.963C99.9578 155.963 99.9614 155.963 99.9614 155.963C112.72 155.656 121.064 147.496 122.849 133.571C123.116 131.463 122.474 129.343 121.083 127.755C122.474 129.343 119.73 126.208 121.083 127.755C122.474 129.343 118.421 124.713 121.083 127.755C122.474 129.343 118.421 124.713 121.083 127.755C122.474 129.343 118.421 124.713 121.083 127.755ZM117.985 132.949C116.946 141.038 112.956 150.748 99.9051 151.062C85.7492 151.036 55.2216 150.97 38.2727 150.896C41.8978 146.813 43.5069 140.117 43.2826 129.973L112.177 130.204C114.239 130.204 118.412 129.592 117.985 132.949C118.076 132.233 116.946 141.038 117.985 132.949Z" fill="#39BEB9"/>
<path d="M108.265 45.9089C96.8339 45.9089 87.5322 36.5092 87.5322 24.9538C87.5322 13.3985 96.8339 4 108.265 4C119.698 4 129 13.3997 129 24.9551C129 36.5104 119.698 45.9089 108.265 45.9089ZM108.265 8.90206C99.5361 8.90206 92.4343 16.1032 92.4343 24.9551C92.4343 33.807 99.5361 41.0081 108.265 41.0081C116.995 41.0081 124.098 33.8057 124.098 24.9551C124.098 16.1044 116.995 8.90206 108.265 8.90206Z" fill="#39BEB9"/>
<path d="M103.703 33.003L98.7638 29.438C97.6658 28.6463 97.4182 27.1144 98.2111 26.0163C99.004 24.9183 100.535 24.672 101.634 25.4636L104.812 27.7578L114.531 17.2331C115.45 16.2404 117.002 16.1755 117.995 17.0958C118.99 18.015 119.051 19.5652 118.133 20.5591L106.939 32.6807C106.25 33.5655 104.668 33.693 103.703 33.003Z" fill="#39BEB9"/>
</g>
<path d="M146.381 74.0768C144.042 74.0768 142.138 72.1171 142.138 69.7082C142.138 67.5352 145.179 64.1392 145.789 63.4807C146.103 63.1412 146.659 63.1412 146.973 63.4807C147.582 64.1392 150.623 67.5352 150.623 69.7082C150.623 72.1171 148.72 74.0768 146.381 74.0768ZM146.381 65.2465C145.186 66.6574 143.751 68.6848 143.751 69.7078C143.751 71.2271 144.931 72.4634 146.381 72.4634C147.83 72.4634 149.01 71.2271 149.01 69.7078C149.01 68.6848 147.576 66.6574 146.381 65.2465Z" fill="#39BEB9"/>
<path d="M168.468 67.6371H156.697C156.252 67.6371 155.891 67.2758 155.891 66.8306C155.891 66.3855 156.252 66.0242 156.697 66.0242H168.468C168.914 66.0242 169.274 66.3855 169.274 66.8306C169.274 67.2758 168.914 67.6371 168.468 67.6371Z" fill="#39BEB9"/>
<path d="M164.872 71.274H156.697C156.252 71.274 155.891 70.9128 155.891 70.4676C155.891 70.0224 156.252 69.6611 156.697 69.6611H164.872C165.317 69.6611 165.678 70.0224 165.678 70.4676C165.678 70.9128 165.317 71.274 164.872 71.274Z" fill="#39BEB9"/>
<path d="M144.139 88.5653C143.493 88.5653 143.111 87.8116 143.484 87.2895L145.947 83.8471L143.665 83.8519C142.989 83.8874 142.631 83.0366 143.038 82.5366L146.409 78.393C146.691 78.0475 147.199 77.9958 147.544 78.2765C147.889 78.5575 147.941 79.0656 147.661 79.4108L145.362 82.2354L147.517 82.231C148.159 82.231 148.551 82.981 148.174 83.5068L144.795 88.2278C144.638 88.4479 144.391 88.5653 144.139 88.5653Z" fill="#39BEB9"/>
<path d="M168.346 83.3593H155.842C155.397 83.3593 155.036 82.998 155.036 82.5528C155.036 82.1076 155.397 81.7463 155.842 81.7463H168.346C168.792 81.7463 169.153 82.1076 169.153 82.5528C169.153 82.998 168.792 83.3593 168.346 83.3593Z" fill="#39BEB9"/>
<path d="M164.526 87.2472H155.842C155.397 87.2472 155.036 86.8859 155.036 86.4407C155.036 85.9956 155.397 85.6343 155.842 85.6343H164.526C164.971 85.6343 165.332 85.9956 165.332 86.4407C165.332 86.8859 164.971 87.2472 164.526 87.2472Z" fill="#39BEB9"/>
<path d="M176.524 92.7189C175.648 91.7181 174.303 91.91 173.111 91.9064L173.049 69.0099C173.048 68.5651 172.687 68.2054 172.243 68.2054C172.242 68.2054 172.241 68.2054 172.24 68.2054C171.795 68.2066 171.435 68.5687 171.436 69.0139L171.498 91.9012L150.092 91.833C149.638 91.833 149.262 92.223 149.284 92.679C149.449 96.0476 149.04 98.2149 148.031 99.3061C147.129 100.282 145.763 100.299 144.533 100.299C141.82 100.299 139.613 98.0105 139.613 95.1972V60.3751C139.613 59.9703 139.952 59.6412 140.367 59.6412C147.668 59.6545 161.552 59.6836 162.207 59.6997C162.656 59.7308 163.066 59.3578 163.066 58.8949C163.066 58.0888 162.52 58.086 161.323 58.0799C160.724 58.0771 159.868 58.0739 158.841 58.0707C156.789 58.0638 154.053 58.0569 151.316 58.0509C145.843 58.0384 140.37 58.0283 140.369 58.0283C139.063 58.0283 138 59.0812 138 60.3751V95.1972C138 98.9 140.931 101.912 144.534 101.912C145.148 101.912 169.427 102 169.571 102C169.573 102 169.574 102 169.574 102C173.772 101.899 176.517 99.2141 177.105 94.6326C177.193 93.9391 176.981 93.2415 176.524 92.7189C176.981 93.2415 176.079 92.21 176.524 92.7189C176.981 93.2415 175.648 91.7181 176.524 92.7189C176.981 93.2415 175.648 91.7181 176.524 92.7189C176.981 93.2415 175.648 91.7181 176.524 92.7189ZM175.504 94.4278C175.162 97.0895 173.849 100.284 169.555 100.388C164.898 100.379 154.853 100.357 149.277 100.333C150.469 98.9895 150.999 96.7863 150.925 93.4488L173.593 93.5246C174.272 93.5246 175.645 93.3234 175.504 94.4278C175.534 94.1923 175.162 97.0895 175.504 94.4278Z" fill="#39BEB9"/>
<path d="M172.306 65.7892C168.545 65.7892 165.484 62.6965 165.484 58.8944C165.484 55.0924 168.545 52 172.306 52C176.068 52 179.128 55.0928 179.128 58.8948C179.128 62.6969 176.068 65.7892 172.306 65.7892ZM172.306 53.6129C169.434 53.6129 167.097 55.9823 167.097 58.8948C167.097 61.8073 169.434 64.1767 172.306 64.1767C175.178 64.1767 177.516 61.8069 177.516 58.8948C177.516 55.9827 175.178 53.6129 172.306 53.6129Z" fill="#39BEB9"/>
<path d="M170.805 61.5428L169.18 60.3698C168.819 60.1093 168.737 59.6052 168.998 59.2439C169.259 58.8827 169.763 58.8016 170.124 59.0621L171.17 59.8169L174.368 56.354C174.67 56.0274 175.181 56.006 175.508 56.3088C175.835 56.6113 175.855 57.1214 175.553 57.4484L171.87 61.4367C171.643 61.7278 171.123 61.7698 170.805 61.5428Z" fill="#39BEB9"/>
<path d="M226.663 54.2173C224.397 47.581 218.084 42.7251 210.639 42.7251H119.996C110.608 42.7251 103 50.3326 103 59.7207V98.5677C103 107.956 110.608 115.563 119.996 115.563H180.856V123.009C180.856 128.512 182.798 133.692 186.197 137.9L199.794 154.248C201.251 156.029 203.355 157 205.621 157H241.392C245.601 157 249 153.601 249 149.554V79.306C249 66.357 239.126 55.6741 226.663 54.2173ZM240.907 149.069H205.945L192.51 132.883C190.244 130.131 188.949 126.732 188.949 123.171V87.0754H191.539C197.366 87.0754 202.222 91.7694 202.222 97.7584V116.373H210.962C220.35 116.373 227.796 108.765 227.796 99.377V62.6342C235.404 64.4147 240.907 71.2129 240.907 79.306V149.069ZM111.093 98.5677V59.7207C111.093 54.8648 115.14 50.8182 119.996 50.8182H210.639C215.494 50.8182 219.541 54.8648 219.541 59.7207V98.5677C219.541 103.424 215.494 107.47 210.639 107.47H210.153V97.5965C210.153 87.2373 201.736 78.9823 191.539 78.9823H188.787C184.417 78.9823 180.856 82.5433 180.856 86.9136V107.632H119.996C115.14 107.47 111.093 103.585 111.093 98.5677Z" fill="#5B5B5B"/>
<path d="M121.614 73.479C119.348 73.479 117.568 75.2595 117.568 77.5256V82.3814C117.568 84.6475 119.348 86.428 121.614 86.428C123.88 86.428 125.661 84.6475 125.661 82.3814V77.5256C125.661 75.4214 123.88 73.479 121.614 73.479Z" fill="#5B5B5B"/>
<path d="M134.078 15.0466V22.4922C134.078 24.7583 135.858 26.5388 138.124 26.5388C140.39 26.5388 142.171 24.7583 142.171 22.4922V15.0466C142.171 12.7805 140.39 11 138.124 11C135.858 11 134.078 12.7805 134.078 15.0466Z" fill="#5B5B5B"/>
<path d="M156.091 38.6786H160.461C162.727 38.6786 164.508 36.8981 164.508 34.632C164.508 32.3659 162.727 30.5854 160.461 30.5854H156.253C153.987 30.5854 152.206 32.3659 152.206 34.632C152.206 36.8981 153.987 38.6786 156.091 38.6786Z" fill="#5B5B5B"/>
<path d="M116.758 38.6786H120.967C123.233 38.6786 125.013 36.8981 125.013 34.632C125.013 32.3659 123.233 30.5854 120.967 30.5854H116.758C114.492 30.5854 112.712 32.3659 112.712 34.632C112.712 36.8981 114.492 38.6786 116.758 38.6786Z" fill="#5B5B5B"/>
<path d="M124.528 28.3193C125.337 29.1286 126.308 29.4523 127.441 29.4523C128.574 29.4523 129.545 29.1286 130.355 28.3193C131.973 26.7007 131.973 24.1109 130.355 22.6541L126.47 18.9313C124.851 17.3126 122.262 17.3126 120.805 18.9313C119.186 20.5499 119.186 23.1397 120.805 24.5964L124.528 28.3193Z" fill="#5B5B5B"/>
<path d="M156.414 18.9313C154.796 17.3126 152.206 17.3126 150.749 18.9313L147.026 22.6541C145.408 24.2727 145.408 26.8625 147.026 28.3193C147.836 29.1286 148.807 29.4523 149.94 29.4523C151.073 29.4523 152.044 29.1286 152.854 28.3193L156.576 24.5964C158.033 22.9778 158.033 20.388 156.414 18.9313Z" fill="#5B5B5B"/>
<defs>
<filter id="filter0_f" x="0" y="0" width="133" height="159.963" filterUnits="userSpaceOnUse" color-interpolation-filters="sRGB">
<feFlood flood-opacity="0" result="BackgroundImageFix"/>
<feBlend mode="normal" in="SourceGraphic" in2="BackgroundImageFix" result="shape"/>
<feGaussianBlur stdDeviation="2" result="effect1_foregroundBlur"/>
</filter>
</defs>
</svg>
