<svg width="100" height="100" viewBox="0 0 100 100" fill="none" xmlns="http://www.w3.org/2000/svg">
<g filter="url(#filter0_d)">
<path fill-rule="evenodd" clip-rule="evenodd" d="M49.3043 70.2976C48.1957 70.2976 47.2978 71.1943 47.2978 72.3004C47.2978 73.4053 48.1957 74.301 49.3043 74.301C50.413 74.301 51.3109 73.4053 51.3109 72.3004C51.3109 71.1943 50.413 70.2976 49.3043 70.2976ZM63.4348 77.9096H36.2609V71.5695C36.2609 68.8782 38.4554 66.69 41.1522 66.69H43.7946H56.0207H58.5435C61.2402 66.69 63.4348 68.8782 63.4348 71.5695V77.9096ZM60.362 54.9987L59.8011 60.0604C59.5891 61.9851 57.963 63.437 56.0207 63.437H43.7946C41.8587 63.437 40.2337 61.9905 40.0141 60.0723L39.4337 54.9987H60.362ZM36.3859 28.3858V28.3847C36.362 28.1754 36.4609 28.0312 36.5207 27.9629C36.5815 27.8957 36.7141 27.7818 36.9261 27.7818H41.8315H57.8641H62.7696C62.9804 27.7818 63.1141 27.8957 63.175 27.9629C63.2348 28.0301 63.3326 28.1743 63.3098 28.3836L60.7217 51.7457H39.0609L36.3859 28.3858ZM45.0924 22.8795C45.0924 21.9817 45.8239 21.253 46.7228 21.253H52.9728C53.8717 21.253 54.6033 21.9817 54.6033 22.8795V24.5288H45.0924V22.8795ZM61.5576 64.0204C62.3587 63.013 62.8924 61.7801 63.0435 60.4171L66.5511 28.7414C66.6696 27.669 66.3239 26.5945 65.6033 25.792C64.8826 24.9896 63.85 24.5288 62.7696 24.5288H57.8641V22.8795C57.8641 20.1882 55.6696 18 52.9728 18H46.7228C44.0261 18 41.8315 20.1882 41.8315 22.8795V24.5288H36.9261C35.8424 24.5288 34.8087 24.9918 34.087 25.7975C33.3663 26.6042 33.0228 27.681 33.1467 28.7545V28.7534L35.7793 51.7457H35.7783L36.775 60.441C36.9272 61.779 37.4489 62.9924 38.2293 63.9867C35.1761 65.1622 33 68.1127 33 71.5695V78.4518C33 79.946 34.2185 81.1627 35.7174 81.1627H63.9783C65.4772 81.1627 66.6957 79.946 66.6957 78.4518V71.5695C66.6957 68.1484 64.5641 65.2186 61.5576 64.0204Z" fill="#39BEB9"/>
</g>
<defs>
<filter id="filter0_d" x="-4" y="0" width="108" height="108" filterUnits="userSpaceOnUse" color-interpolation-filters="sRGB">
<feFlood flood-opacity="0" result="BackgroundImageFix"/>
<feColorMatrix in="SourceAlpha" type="matrix" values="0 0 0 0 0 0 0 0 0 0 0 0 0 0 0 0 0 0 127 0"/>
<feOffset dy="4"/>
<feGaussianBlur stdDeviation="2"/>
<feColorMatrix type="matrix" values="0 0 0 0 0 0 0 0 0 0 0 0 0 0 0 0 0 0 0.25 0"/>
<feBlend mode="normal" in2="BackgroundImageFix" result="effect1_dropShadow"/>
<feBlend mode="normal" in="SourceGraphic" in2="effect1_dropShadow" result="shape"/>
</filter>
</defs>
</svg>
