<svg width="102" height="102" viewBox="0 0 102 102" fill="none" xmlns="http://www.w3.org/2000/svg">
<g filter="url(#filter0_d)">
<path d="M14.6005 15.8683C21.5903 15.8683 24.3234 25.1353 24.3234 30.8188C24.3234 36.5023 21.5903 45.7693 14.6005 45.7693C7.61188 45.7693 4.87878 36.5023 4.87878 30.8188C4.87878 25.1353 7.61188 15.8683 14.6005 15.8683ZM64.6218 80.5968C61.4836 87.6834 57.0603 94.8906 48.0071 93.2465C34.3357 90.7591 32.6869 69.2144 21.6458 68.8506C13.3296 68.5731 10.7265 82.8385 9.13905 89.1917L4.92721 88.1394C7.13589 79.3011 10.2068 64.1344 21.7829 64.5219C35.9834 64.9896 37.5708 86.9429 48.7713 88.9839C55.2119 90.1555 58.1965 84.3267 60.4099 79.4145C61.7221 80.2094 63.1088 80.5129 64.6218 80.5968ZM66.9592 11.8266C75.9923 24.1538 75.9959 36.898 66.9486 49.2182C70.1694 49.7131 73.4175 50.2174 76.7045 50.7347C96.1433 53.906 100.584 10.923 76.4494 10.923C76.4494 10.7636 67.6714 11.738 66.9592 11.8266ZM62.0458 48.4682C71.8561 36.4173 71.8053 24.52 61.9891 12.4892C48.7311 14.3648 35.5794 16.8923 22.3687 19.0479C21.2821 17.4923 19.8801 16.1494 18.158 15.325C37.1184 12.3899 57.4264 7.57928 76.3396 6.58596C106.087 4.25445 102 60.499 76.1187 55.0257C56.8134 51.9855 37.4668 49.2087 18.1379 46.3209C19.8742 45.5036 21.2998 44.1288 22.3864 42.5638C35.6054 44.5327 48.8315 46.4579 62.0458 48.4682ZM62.4131 67.3423H68.6092V55.6021L60.5068 53.9934L57.2257 71.4668C55.0926 82.8681 75.0156 83.6996 77.575 70.0613L80.0825 56.6025C78.6156 56.7986 77.2018 56.5659 75.7396 56.3356L73.3124 69.264C71.8242 77.2034 60.469 77.7349 61.4883 72.2652L62.4131 67.3423ZM14.6005 20.216C10.6225 20.216 9.22528 27.918 9.22528 30.8188C9.22528 33.7208 10.6225 41.4228 14.6005 41.4228C18.5797 41.4228 19.9769 33.7208 19.9769 30.8188C19.9769 27.918 18.5797 20.216 14.6005 20.216Z" fill="#39BEB9"/>
</g>
<defs>
<filter id="filter0_d" x="-3" y="0" width="108" height="108" filterUnits="userSpaceOnUse" color-interpolation-filters="sRGB">
<feFlood flood-opacity="0" result="BackgroundImageFix"/>
<feColorMatrix in="SourceAlpha" type="matrix" values="0 0 0 0 0 0 0 0 0 0 0 0 0 0 0 0 0 0 127 0"/>
<feOffset dy="4"/>
<feGaussianBlur stdDeviation="2"/>
<feColorMatrix type="matrix" values="0 0 0 0 0 0 0 0 0 0 0 0 0 0 0 0 0 0 0.25 0"/>
<feBlend mode="normal" in2="BackgroundImageFix" result="effect1_dropShadow"/>
<feBlend mode="normal" in="SourceGraphic" in2="effect1_dropShadow" result="shape"/>
</filter>
</defs>
</svg>
