<svg width="100" height="100" viewBox="0 0 100 100" fill="none" xmlns="http://www.w3.org/2000/svg">
<g filter="url(#filter0_d)">
<path d="M18.947 55.4395V32.4806C18.947 30.6021 20.4677 29.0797 22.3479 29.0797H57.9713C59.8517 29.0797 61.3721 30.6021 61.3721 32.4806V46.9594L65.9068 46.7881C66.4435 46.7669 66.9801 46.7572 67.5208 46.7572C69.2416 46.7572 70.9664 46.8543 72.6581 47.0508L73.3252 47.1284V19.9231H6.99219V68.0223H36.2491C36.4281 64.7593 37.5424 61.6443 39.5393 58.8424H22.3479C20.4677 58.8424 18.947 57.3197 18.947 55.4395Z" fill="#39BEB9"/>
<path d="M79.5416 52.5869L84.5664 63.6706L73.3252 51.5408L72.9111 51.0935C71.1688 50.8619 69.3661 50.7395 67.5208 50.7395C67.0307 50.7395 66.5446 50.7473 66.0584 50.7667L71.8803 63.6082L61.3721 51.6069L61.0632 51.2529C58.5527 51.6574 56.1804 52.2912 53.9949 53.1196L56.5888 58.8424L58.7783 63.6706L54.2223 58.8424L50.3701 54.7609C48.2042 55.9197 46.3334 57.3042 44.7857 58.8424C42.114 61.4926 40.4884 64.6348 40.2374 68.0223C40.2142 68.3217 40.1576 68.6192 40.1576 68.9245C40.1576 76.0571 49.0441 76.5879 61.0106 76.5879C63.099 76.5879 65.2769 76.5703 67.5208 76.5703C70.1672 76.5703 72.7262 76.5995 75.1471 76.5995C86.5478 76.5995 94.8818 75.9811 94.8818 68.9245C94.8818 61.7493 88.6263 55.5444 79.5416 52.5869Z" fill="#39BEB9"/>
</g>
<defs>
<filter id="filter0_d" x="-4" y="0" width="108" height="108" filterUnits="userSpaceOnUse" color-interpolation-filters="sRGB">
<feFlood flood-opacity="0" result="BackgroundImageFix"/>
<feColorMatrix in="SourceAlpha" type="matrix" values="0 0 0 0 0 0 0 0 0 0 0 0 0 0 0 0 0 0 127 0"/>
<feOffset dy="4"/>
<feGaussianBlur stdDeviation="2"/>
<feColorMatrix type="matrix" values="0 0 0 0 0 0 0 0 0 0 0 0 0 0 0 0 0 0 0.25 0"/>
<feBlend mode="normal" in2="BackgroundImageFix" result="effect1_dropShadow"/>
<feBlend mode="normal" in="SourceGraphic" in2="effect1_dropShadow" result="shape"/>
</filter>
</defs>
</svg>
