<svg width="102" height="105" viewBox="0 0 102 105" fill="none" xmlns="http://www.w3.org/2000/svg">
<g filter="url(#filter0_d)">
<path d="M80.4187 32.5437C79.6187 32.5437 78.8187 32.2375 78.2094 31.6281C76.9875 30.4062 76.9875 28.4281 78.2094 27.2062C78.8 26.6187 79.125 25.8343 79.125 25C79.125 24.1656 78.8 23.3812 78.2094 22.7906C76.9875 21.5687 75.0125 21.5718 73.7906 22.7906C72.5687 24.0125 70.5937 24.0125 69.3719 22.7906C68.15 21.5687 68.15 19.5937 69.3719 18.3718C73.0281 14.7156 78.9719 14.7156 82.6281 18.3718C84.3969 20.1406 85.375 22.4968 85.375 25C85.375 27.5031 84.3969 29.8593 82.6281 31.6312C82.0187 32.2374 81.2187 32.5437 80.4187 32.5437Z" fill="#39BEB9"/>
<path d="M89.2563 41.3844C88.4563 41.3844 87.6563 41.0781 87.0469 40.4688C85.825 39.2469 85.825 37.2687 87.0469 36.05C89.9969 33.0969 91.625 29.1719 91.625 25C91.625 20.8281 89.9969 16.9031 87.0469 13.95C84.0969 10.9969 80.1719 9.375 76 9.375C71.8281 9.375 67.9031 11 64.9531 13.95C63.7313 15.1719 61.7563 15.1719 60.5344 13.95C59.3125 12.7313 59.3125 10.7531 60.5344 9.53125C64.6656 5.4 70.1563 3.125 76 3.125C81.8438 3.125 87.3344 5.4 91.4656 9.53125C95.5969 13.6625 97.875 19.1562 97.875 25C97.875 30.8438 95.5969 36.3344 91.4656 40.4688C90.8563 41.0781 90.0563 41.3844 89.2563 41.3844Z" fill="#39BEB9"/>
<path d="M21.5812 32.5437C20.7812 32.5437 19.9813 32.2375 19.3719 31.6313C17.6 29.8594 16.625 27.5031 16.625 25C16.625 22.4969 17.6 20.1406 19.3719 18.3688C23.0281 14.7156 28.9719 14.7156 32.6281 18.3688C33.85 19.5906 33.85 21.5656 32.6281 22.7875C31.4063 24.0094 29.4312 24.0094 28.2094 22.7875C26.9875 21.5687 25.0125 21.5687 23.7906 22.7875C23.2 23.3812 22.875 24.1656 22.875 25C22.875 25.8344 23.2 26.6187 23.7906 27.2094C25.0125 28.4312 25.0125 30.4094 23.7906 31.6313C23.1813 32.2375 22.3812 32.5437 21.5812 32.5437Z" fill="#39BEB9"/>
<path d="M12.7438 41.3844C11.9438 41.3844 11.1438 41.0781 10.5344 40.4688C6.40313 36.3344 4.125 30.8438 4.125 25C4.125 19.1562 6.40313 13.6656 10.5344 9.53125C14.6656 5.39687 20.1563 3.125 26 3.125C31.8438 3.125 37.3344 5.4 41.4656 9.53125C42.6875 10.7531 42.6875 12.7313 41.4656 13.95C40.2438 15.1719 38.2688 15.1719 37.0469 13.95C34.0969 11 30.1719 9.375 26 9.375C21.8281 9.375 17.9031 11 14.9531 13.95C12.0031 16.9 10.375 20.8281 10.375 25C10.375 29.1719 12.0031 33.0969 14.9531 36.05C16.175 37.2687 16.175 39.2469 14.9531 40.4688C14.3438 41.0781 13.5438 41.3844 12.7438 41.3844Z" fill="#39BEB9"/>
<path d="M69.75 96.875H32.25C28.8031 96.875 26 94.0719 26 90.625V56.25H23.0156C20.425 56.25 18.1125 54.7031 17.1219 52.3094C16.1312 49.9156 16.6781 47.1844 18.5125 45.3562L46.4875 17.4875C48.9719 15.0094 53.025 15.0094 55.5094 17.4875L83.4844 45.3562C85.3187 47.1844 85.8656 49.9125 84.875 52.3094C83.8844 54.7062 81.575 56.25 78.9844 56.25H76V90.625C76 94.0719 73.1969 96.875 69.75 96.875ZM51.0969 21.9156L22.925 49.7844L26 50C29.4469 50 32.25 52.8031 32.25 56.25V90.625H69.75V56.25C69.75 52.8031 72.5531 50 76 50H78.9844L81.2781 47.5719L79.0719 49.7844L51.0969 21.9156Z" fill="#39BEB9"/>
<path d="M57.25 78.125H44.75C41.3031 78.125 38.5 75.3219 38.5 71.875V59.375C38.5 55.9281 41.3031 53.125 44.75 53.125H57.25C60.6969 53.125 63.5 55.9281 63.5 59.375V71.875C63.5 75.3219 60.6969 78.125 57.25 78.125ZM44.75 59.375V71.875H57.2531L57.25 59.375H44.75Z" fill="#39BEB9"/>
</g>
<defs>
<filter id="filter0_d" x="-3" y="0" width="108" height="108" filterUnits="userSpaceOnUse" color-interpolation-filters="sRGB">
<feFlood flood-opacity="0" result="BackgroundImageFix"/>
<feColorMatrix in="SourceAlpha" type="matrix" values="0 0 0 0 0 0 0 0 0 0 0 0 0 0 0 0 0 0 127 0"/>
<feOffset dy="4"/>
<feGaussianBlur stdDeviation="2"/>
<feColorMatrix type="matrix" values="0 0 0 0 0 0 0 0 0 0 0 0 0 0 0 0 0 0 0.25 0"/>
<feBlend mode="normal" in2="BackgroundImageFix" result="effect1_dropShadow"/>
<feBlend mode="normal" in="SourceGraphic" in2="effect1_dropShadow" result="shape"/>
</filter>
</defs>
</svg>
