<svg height='100px' width='100px'  fill="#000000" xmlns:dc="http://purl.org/dc/elements/1.1/" xmlns:cc="http://creativecommons.org/ns#" xmlns:rdf="http://www.w3.org/1999/02/22-rdf-syntax-ns#" xmlns:svg="http://www.w3.org/2000/svg" xmlns="http://www.w3.org/2000/svg" xmlns:sodipodi="http://sodipodi.sourceforge.net/DTD/sodipodi-0.dtd" xmlns:inkscape="http://www.inkscape.org/namespaces/inkscape" version="1.1" x="0px" y="0px" viewBox="0 0 100 100"><g transform="translate(0,-952.36218)"><path style="color:#000000;enable-background:accumulate;" d="m 38,964.36219 c -1.1214,-0.005 -2.1258,0.703 -2.5938,1.46875 l -6.1562,10.53125 -13.25,0 c -6.5961002,0 -12.0000001,5.40391 -12.0000001,12.00001 l 0,40 c 0,6.5961 5.4038999,12 12.0000001,12 l 68,0 c 6.5961,0 12,-5.4039 12,-12 l 0,-40 c 0,-6.5961 -5.4039,-12.00001 -12,-12.00001 l -13.25,0 -6.1562,-10.53125 C 64.063,964.93682 63.0398,964.3574 62,964.36219 l -24,0 z m 1.7188,6 20.5624,0 6.125,10.50001 c 0.5229,0.9056 1.548,1.4984 2.5938,1.5 l 15,0 c 3.3759,0 6,2.6241 6,6 l 0,40 c 0,3.3759 -2.6241,6 -6,6 l -68,0 c -3.3759,0 -6.0000001,-2.6241 -6.0000001,-6 l 0,-40 c 0,-3.3759 2.6241001,-6 6.0000001,-6 l 15,0 c 1.0458,0 2.0708,-0.5944 2.5938,-1.5 l 6.125,-10.50001 z M 50,984.3622 c -13.2192,0 -24,10.7807 -24,24 0,13.2193 10.7808,24 24,24 13.2194,0 24,-10.7807 24,-24 0,-13.2193 -10.7806,-24 -24,-24 z m 31,2 c -2.7613,0 -5,2.2386 -5,5 0,2.7614 2.2387,5 5,5 2.7613,0 5,-2.2386 5,-5 0,-2.7614 -2.2387,-5 -5,-5 z m -31,4 c 9.9768,0 18,8.0233 18,18 0,9.9767 -8.0232,18 -18,18 -9.9766,0 -18,-8.0234 -18,-18 0,-9.9766 8.0234,-18 18,-18 z m 0,4 c -7.6964,0 -14,6.3035 -14,14 0,7.6965 6.3036,14 14,14 7.6964,0 14,-6.3035 14,-14 0,-7.6965 -6.3036,-14 -14,-14 z m 0,6 c 4.4538,0 8,3.5462 8,8 0,4.4538 -3.5462,8 -8,8 -4.4538,0 -8,-3.5462 -8,-8 0,-4.4538 3.5462,-8 8,-8 z" fill="#000000" stroke="none" marker="none" visibility="visible" display="inline" overflow="visible"></path></g></svg>