<svg width="100" height="103" viewBox="0 0 100 103" fill="none" xmlns="http://www.w3.org/2000/svg">
<g filter="url(#filter0_d)">
<path d="M79.109 21.8881C79.231 21.7971 79.303 21.6551 79.307 21.5041C79.311 21.3521 79.244 21.2071 79.127 21.1111C78.83 20.8661 78.032 20.0711 77.913 19.3631C77.778 18.5481 78.447 17.6591 78.454 17.6501C78.553 17.5211 78.582 17.3511 78.531 17.1961C78.481 17.0411 78.358 16.9211 78.203 16.8741C77.923 16.7911 77.078 16.4341 76.872 15.8971C76.64 15.2951 77.124 14.6671 77.127 14.6631C77.219 14.5501 77.254 14.4011 77.226 14.2581C77.198 14.1151 77.108 13.9911 76.981 13.9211C76.345 13.5691 75.226 12.8511 74.93 12.4221C74.766 12.1821 74.947 11.5991 75.026 11.3491C75.096 11.1251 75.212 10.7491 74.865 10.5361C74.674 10.4181 74.427 10.4421 74.264 10.6001C74.063 10.6471 73.254 10.3931 72.599 9.85311L72.451 9.72611C71.932 9.24611 72.146 8.62811 72.17 8.56311C72.24 8.39011 72.205 8.19211 72.082 8.05211C71.958 7.91211 71.763 7.85411 71.586 7.90011C71.573 7.90411 70.377 8.20811 69.644 7.70011C68.957 7.22411 68.953 6.57011 68.953 6.54911C68.96 6.34811 68.844 6.16411 68.661 6.08211C68.479 6.00011 68.264 6.03411 68.118 6.17311C67.716 6.55411 66.902 6.53111 66.493 6.47311L65.498 5.53111C65.311 5.35411 65.022 5.35011 64.829 5.52111C64.517 5.79811 64.054 6.11111 63.658 6.02111C63.257 5.93311 62.976 5.47011 62.903 5.30111C62.833 5.13611 62.68 5.02211 62.502 5.00211C62.325 4.98311 62.148 5.06011 62.045 5.20611C62.041 5.21211 61.654 5.74011 61.079 6.12611C60.482 6.18311 59.879 6.27511 59.282 6.40111C58.905 6.23811 58.753 5.96211 58.749 5.95711C58.652 5.76111 58.436 5.65311 58.223 5.68911C58.008 5.72711 57.842 5.90111 57.816 6.11711C57.787 6.35111 57.507 6.66911 56.981 7.06511C56.375 7.28811 55.775 7.54811 55.191 7.84011C54.674 7.69111 54.174 7.35711 54.168 7.35311C54.01 7.24611 53.805 7.24011 53.64 7.33811C53.476 7.43611 53.383 7.61911 53.4 7.80911C53.442 8.24011 52.462 9.25311 51.877 9.86011C51.656 10.0891 51.441 10.3111 51.295 10.4791C51.168 10.5911 51.043 10.7041 50.919 10.8191C50.425 11.0751 49.677 10.7661 49.423 10.6221C49.249 10.5231 49.035 10.5411 48.877 10.6601C48.72 10.7811 48.649 10.9851 48.698 11.1771C48.701 11.1881 48.964 12.2561 48.38 13.7041C48.182 13.9781 47.994 14.2561 47.866 14.4711C47.003 15.3711 45.595 15.7721 45.581 15.7761C45.422 15.8201 45.296 15.9421 45.244 16.1001C45.193 16.2561 45.224 16.4301 45.326 16.5601C45.335 16.5721 46.176 17.6581 45.739 18.7501C45.252 19.9631 43.987 20.7991 43.974 20.8071C43.861 20.8801 43.783 20.9981 43.758 21.1321C43.734 21.2641 43.765 21.4021 43.844 21.5131C43.851 21.5231 44.52 22.4611 44.565 23.5931C44.602 24.5211 43.849 25.7891 43.557 26.2001C43.48 26.3071 43.45 26.4411 43.472 26.5701C43.494 26.7001 43.567 26.8161 43.674 26.8931C43.684 26.9001 44.627 27.5781 44.82 28.5531L45.315 28.5181L44.843 28.6881C44.993 29.7921 44.222 31.0911 44.213 31.1051C44.127 31.2491 44.119 31.4291 44.195 31.5791C44.269 31.7311 44.416 31.8331 44.584 31.8511C44.595 31.8521 45.737 31.9871 46.13 32.9781C46.519 33.9561 45.958 34.6811 45.937 34.7081C45.804 34.8681 45.787 35.0951 45.894 35.2751C45.999 35.4541 46.208 35.5461 46.413 35.5081C46.758 35.4311 47.63 35.8001 48.315 36.6061L48.453 36.7771C49.049 37.5661 49.067 38.5121 49.067 38.5191C49.067 38.5491 49.082 38.5761 49.088 38.6051C45.693 37.7531 42.625 37.2691 40.281 37.2691C37.897 37.2691 36.398 37.7581 35.799 38.7131C35.751 38.7611 35.71 38.8191 35.684 38.8871L35.628 39.0341C35.627 39.0361 35.626 39.0371 35.626 39.0381C35.625 39.0401 35.625 39.0421 35.624 39.0441L30.501 52.6021C30.248 52.6761 30.025 52.8471 29.928 53.1021C29.78 53.4941 29.762 53.9131 29.84 54.3521L29.408 55.4961C29.155 55.5701 28.931 55.7411 28.836 55.9941C28.688 56.3861 28.67 56.8051 28.748 57.2431L28.291 58.4531C28.038 58.5261 27.814 58.6981 27.717 58.9541C27.569 59.3461 27.551 59.7651 27.629 60.2041L27.121 61.5501C26.868 61.6241 26.644 61.7951 26.548 62.0481C26.4 62.4401 26.382 62.8591 26.46 63.2971L26.028 64.4411C25.775 64.5151 25.551 64.6861 25.455 64.9411C25.307 65.3331 25.289 65.7521 25.367 66.1911L24.91 67.4011C24.657 67.4751 24.433 67.6451 24.337 67.8991C24.189 68.2911 24.171 68.7111 24.249 69.1501L20.822 78.2191C20.818 78.2301 20.814 78.2391 20.811 78.2501H20.81C20.073 80.2021 22.886 82.6661 25.375 84.3891C28.721 86.7051 33.433 89.0651 38.644 91.0331C44.772 93.3451 51.425 95.0001 55.787 95.0001C58.272 95.0001 60.015 94.4621 60.49 93.2041L63.917 84.1351C64.267 83.8581 64.53 83.5311 64.677 83.1401C64.758 82.9271 64.75 82.6951 64.657 82.4861C64.638 82.4451 64.605 82.4161 64.581 82.3791L65.035 81.1761C65.385 80.8991 65.648 80.5721 65.796 80.1801C65.876 79.9671 65.869 79.7351 65.776 79.5271C65.757 79.4861 65.724 79.4561 65.699 79.4191L66.128 78.2841C66.478 78.0071 66.741 77.6801 66.889 77.2881C66.97 77.0751 66.962 76.8431 66.869 76.6341C66.85 76.5931 66.817 76.5641 66.793 76.5271L67.298 75.1901C67.648 74.9131 67.911 74.5851 68.058 74.1941C68.158 73.9301 68.105 73.6541 67.961 73.4341L68.415 72.2321C68.766 71.9551 69.028 71.6271 69.176 71.2361C69.257 71.0231 69.249 70.7911 69.156 70.5821C69.137 70.5411 69.104 70.5121 69.08 70.4741L69.509 69.3381C69.859 69.0611 70.121 68.7341 70.269 68.3431C70.369 68.0791 70.316 67.8031 70.172 67.5831L75.352 53.8741C75.374 53.8161 75.381 53.7571 75.381 53.6991C75.721 51.8051 73.083 49.5151 70.731 47.8861C68.134 46.0891 64.709 44.2671 60.872 42.6201C61.255 42.5221 61.765 42.4431 62.263 42.4181C62.378 42.4131 62.487 42.3681 62.572 42.2901C62.585 42.2781 62.598 42.2681 62.614 42.2571C62.762 42.2351 62.91 42.2111 63.056 42.1861C63.441 42.2651 63.853 42.5881 63.986 42.7121C64.117 42.8361 64.309 42.8711 64.479 42.8151C64.651 42.7591 64.78 42.6081 64.813 42.4311C64.818 42.4061 64.94 41.8141 65.875 41.4161L66.161 41.3081C67.405 40.8901 68.025 41.3021 68.043 41.3141C68.194 41.4271 68.395 41.4421 68.567 41.3561C68.735 41.2701 68.839 41.0911 68.836 40.9021C68.835 40.8681 68.827 40.0801 69.744 39.4111L69.84 39.3461C70.903 38.6731 71.585 38.8161 71.605 38.8191C71.869 38.8901 72.136 38.7331 72.209 38.4721C72.212 38.4581 72.581 37.1481 73.404 36.1271L73.588 35.9111C74.522 34.8801 75.611 34.5661 75.621 34.5621C75.851 34.4971 76.004 34.2761 75.981 34.0381C75.979 34.0231 75.846 32.5661 76.434 31.4901C76.987 30.4781 77.854 30.2051 77.887 30.1951C78.041 30.1521 78.162 30.0361 78.215 29.8861C78.269 29.7361 78.247 29.5691 78.157 29.4391C78.15 29.4291 77.498 28.4621 77.756 27.4851C78.009 26.5271 78.747 26.1881 78.774 26.1751C78.921 26.1131 79.029 25.9831 79.064 25.8261C79.099 25.6701 79.055 25.5061 78.947 25.3871C78.94 25.3791 78.203 24.5351 78.261 23.5111C78.317 22.5071 79.103 21.8921 79.109 21.8881ZM59.553 92.8861C58.772 94.9491 50.14 94.3161 38.996 90.1061C33.858 88.1661 29.222 85.8451 25.94 83.5741C22.385 81.1131 21.438 79.3901 21.746 78.5781C21.753 78.5621 21.759 78.5451 21.763 78.5281L24.802 70.4851C25.535 71.6791 26.931 73.0031 29.035 74.4591C32.405 76.7931 37.146 79.1671 42.382 81.1451C47.62 83.1241 52.746 84.4771 56.815 84.9551C57.867 85.0791 58.836 85.1411 59.695 85.1411C60.873 85.1411 61.839 85.0151 62.615 84.7791L59.553 92.8861ZM63.653 82.0361C63.4 82.1101 63.177 82.2811 63.08 82.5351C62.917 82.9681 61.937 83.4301 59.677 83.4301C58.883 83.4301 57.988 83.3721 57.016 83.2571C53.083 82.7961 48.101 81.4781 42.987 79.5461C37.873 77.6131 33.263 75.3081 30.007 73.0531C26.853 70.8701 25.687 69.1631 25.937 68.5011C26.018 68.2871 26.01 68.0541 25.916 67.8451C25.898 67.8051 25.864 67.7761 25.84 67.7391L25.921 67.5241C26.654 68.7181 28.05 70.0421 30.154 71.4971C33.525 73.8311 38.265 76.2051 43.501 78.1831C48.737 80.1611 53.862 81.5151 57.934 81.9931C58.986 82.1171 59.956 82.1791 60.814 82.1791C61.992 82.1791 62.958 82.0531 63.735 81.8171L63.653 82.0361ZM64.771 79.0761C64.518 79.1501 64.294 79.3211 64.198 79.5751C64.034 80.0081 63.053 80.4701 60.792 80.4701C59.999 80.4701 59.104 80.4121 58.133 80.2981C54.2 79.8361 49.217 78.5181 44.104 76.5861C38.991 74.6531 34.382 72.3481 31.125 70.0931C27.971 67.9101 26.804 66.2031 27.056 65.5391C27.154 65.2761 27.1 65.0011 26.957 64.7811L27.014 64.6311C27.747 65.8251 29.143 67.1501 31.247 68.6061C34.617 70.9401 39.358 73.3141 44.594 75.2921C49.832 77.2711 54.958 78.6241 59.027 79.1021C60.079 79.2261 61.048 79.2881 61.907 79.2881C63.085 79.2881 64.051 79.1621 64.827 78.9261L64.771 79.0761ZM65.864 76.1841C65.611 76.2581 65.388 76.4291 65.291 76.6841C65.128 77.1171 64.147 77.5791 61.888 77.5791C61.094 77.5791 60.199 77.5211 59.226 77.4061C55.293 76.9451 50.311 75.6271 45.198 73.6951C40.088 71.7641 35.478 69.4591 32.218 67.2021C29.064 65.0191 27.898 63.3111 28.148 62.6501C28.229 62.4371 28.221 62.2041 28.128 61.9951C28.109 61.9541 28.076 61.9251 28.052 61.8881L28.184 61.5381C28.917 62.7321 30.313 64.0571 32.417 65.5131C35.783 67.8441 40.523 70.2181 45.764 72.1991C51.003 74.1781 56.129 75.5311 60.197 76.0081C61.25 76.1331 62.22 76.1951 63.08 76.1951C64.256 76.1951 65.221 76.0691 65.997 75.8331L65.864 76.1841ZM67.032 73.0911C66.78 73.1651 66.556 73.3351 66.459 73.5901C66.296 74.0231 65.316 74.4851 63.056 74.4851C62.262 74.4851 61.367 74.4271 60.395 74.3121C56.457 73.8491 51.475 72.5311 46.366 70.6001C41.257 68.6701 36.648 66.3651 33.387 64.1081C30.233 61.9241 29.066 60.2171 29.316 59.5561C29.397 59.3431 29.389 59.1101 29.296 58.9011C29.277 58.8601 29.244 58.8311 29.22 58.7941L29.302 58.5781C30.035 59.7721 31.431 61.0971 33.535 62.5531C36.905 64.8871 41.646 67.2611 46.882 69.2391C52.121 71.2181 57.247 72.5711 61.314 73.0481C62.367 73.1731 63.337 73.2351 64.197 73.2351C65.373 73.2351 66.339 73.1091 67.115 72.8731L67.032 73.0911ZM68.151 70.1311C67.897 70.2051 67.672 70.3771 67.578 70.6311C67.415 71.0641 66.434 71.5261 64.175 71.5261C63.381 71.5261 62.486 71.4681 61.513 71.3531C57.577 70.8901 52.595 69.5731 47.485 67.6421C42.375 65.7111 37.765 63.4061 34.505 61.1491C31.351 58.9651 30.185 57.2581 30.435 56.5971C30.516 56.3841 30.508 56.1511 30.415 55.9421C30.396 55.9011 30.363 55.8721 30.339 55.8351L30.395 55.6871C31.128 56.8811 32.524 58.2061 34.628 59.6621C37.994 61.9931 42.734 64.3671 47.975 66.3481C53.214 68.3271 58.34 69.6801 62.408 70.1571C63.46 70.2811 64.429 70.3431 65.288 70.3431C66.466 70.3431 67.432 70.2171 68.209 69.9811L68.151 70.1311ZM69.244 67.2391C68.991 67.3131 68.767 67.4831 68.671 67.7381C68.508 68.1721 67.527 68.6341 65.266 68.6341C64.473 68.6341 63.578 68.5761 62.607 68.4611C58.669 67.9981 53.687 66.6801 48.578 64.7491C43.467 62.8181 38.858 60.5131 35.599 58.2571C32.445 56.0731 31.278 54.3661 31.528 53.7051C31.609 53.4921 31.601 53.2601 31.508 53.0511C31.49 53.0101 31.456 52.9811 31.432 52.9441L35.916 41.0771C37.748 44.4531 45.571 48.8381 53.464 51.8201C60.048 54.3071 66.471 55.7931 70.641 55.7931C71.93 55.7931 72.959 55.6491 73.73 55.3681L69.244 67.2391ZM70.166 48.6981C73.72 51.1591 74.668 52.8811 74.369 53.6731C74.098 54.3911 72.739 54.8031 70.64 54.8031C66.582 54.8031 60.292 53.3421 53.812 50.8941C42.674 46.6851 35.779 41.4541 36.552 39.3881L36.554 39.3821C36.828 38.6661 38.186 38.2551 40.281 38.2551C43.308 38.2551 47.579 39.0701 52.242 40.4991C52.251 40.5021 52.259 40.5041 52.268 40.5061C53.848 40.9911 55.472 41.5451 57.109 42.1641C57.953 42.4831 58.776 42.8151 59.589 43.1521C59.618 43.1681 59.644 43.1891 59.677 43.1981C59.688 43.2011 59.699 43.2001 59.709 43.2021C63.798 44.9081 67.45 46.8181 70.166 48.6981ZM77.87 25.5831C77.494 25.8791 77.016 26.3981 76.797 27.2291C76.559 28.1271 76.822 28.9711 77.059 29.4871C76.62 29.7341 76.009 30.1971 75.564 31.0121C75.033 31.9841 74.968 33.1481 74.976 33.7421C74.491 33.9441 73.621 34.3961 72.818 35.2841L72.639 35.4941C71.967 36.3291 71.565 37.2901 71.379 37.8151C70.93 37.8221 70.196 37.9471 69.289 38.5211C69.288 38.5221 69.18 38.5961 69.179 38.5971C69.175 38.5991 69.101 38.6501 69.097 38.6531C68.404 39.1611 68.093 39.7631 67.955 40.2231C67.487 40.1021 66.78 40.0581 65.846 40.3691C65.839 40.3721 65.729 40.4131 65.721 40.4161L65.514 40.4951C64.773 40.8091 64.357 41.2281 64.124 41.5831C63.85 41.4121 63.496 41.2431 63.116 41.1931C63.065 41.1851 63.014 41.1881 62.964 41.1971C62.767 41.2331 62.57 41.2651 62.372 41.2931C62.314 41.3021 62.258 41.3201 62.206 41.3481C62.153 41.3771 62.103 41.4081 62.055 41.4411C61.288 41.4891 60.211 41.6461 59.663 42.1131C58.939 41.8161 58.206 41.5241 57.459 41.2421C55.901 40.6531 54.354 40.1261 52.842 39.6561C52.709 39.4111 52.416 39.1211 51.892 38.6991L51.714 38.5681C51.051 38.1071 50.427 37.9931 50 37.9851C49.917 37.5161 49.712 36.8041 49.205 36.1331L49.081 35.9811C48.571 35.3791 47.817 34.8191 47.094 34.6041C47.269 34.1161 47.37 33.4191 47.051 32.6131C46.679 31.6781 45.914 31.2381 45.355 31.0351C45.62 30.4361 45.945 29.4581 45.813 28.4901C45.812 28.4811 45.797 28.3931 45.795 28.3851C45.612 27.4591 45.012 26.7641 44.613 26.3901C44.976 25.7951 45.597 24.6131 45.556 23.5541C45.518 22.6201 45.161 21.8131 44.905 21.3501C45.401 20.9531 46.24 20.1661 46.659 19.1181C47.074 18.0811 46.757 17.1041 46.456 16.5151C47.043 16.2751 47.941 15.8211 48.642 15.0821C48.824 14.8001 49.012 14.5231 49.157 14.3121C49.217 14.2521 49.24 14.2361 49.263 14.1541C49.667 13.2201 49.759 12.3931 49.754 11.8091C50.251 11.9401 50.901 11.9871 51.467 11.6511C51.498 11.6331 51.526 11.6111 51.552 11.5871C51.684 11.4631 51.818 11.3431 51.992 11.1831C52.171 10.9851 52.376 10.7721 52.59 10.5501C53.244 9.87212 53.914 9.17811 54.22 8.51811C54.488 8.64811 54.819 8.78311 55.153 8.85211C55.265 8.87611 55.379 8.85911 55.479 8.80711C56.099 8.48911 56.741 8.20811 57.39 7.97211C57.434 7.95611 57.477 7.93312 57.515 7.90511C57.834 7.66911 58.183 7.38411 58.439 7.05111C58.611 7.17911 58.827 7.30111 59.093 7.38811C59.177 7.41611 59.267 7.41911 59.353 7.40111C59.996 7.25911 60.647 7.15911 61.289 7.10411C61.366 7.09711 61.441 7.07311 61.507 7.03211C61.863 6.81111 62.165 6.54611 62.391 6.31711C62.628 6.59611 62.972 6.88511 63.439 6.98911C63.98 7.11311 64.551 6.96411 65.133 6.54911L65.924 7.29911C65.991 7.36211 66.074 7.40511 66.165 7.42411C66.299 7.45211 67.27 7.63611 68.121 7.31211C68.266 7.69311 68.545 8.14611 69.082 8.51711C69.734 8.96911 70.546 9.01311 71.122 8.97111C71.124 9.41211 71.258 9.97212 71.783 10.4561C71.788 10.4611 71.861 10.5261 71.867 10.5301L71.956 10.6061C72.474 11.0331 73.272 11.4741 73.944 11.5741C73.852 12.0091 73.82 12.5531 74.118 12.9871C74.499 13.5381 75.481 14.1821 76.065 14.5351C75.87 14.9491 75.693 15.5841 75.951 16.2551C76.209 16.9291 76.85 17.3551 77.335 17.5921C77.088 18.0631 76.816 18.7861 76.94 19.5291C77.075 20.3381 77.68 21.0771 78.099 21.5041C77.758 21.8961 77.325 22.5621 77.274 23.4571C77.22 24.3541 77.581 25.1211 77.87 25.5831Z" fill="#39BEB9"/>
<path d="M66.821 9.53907C65.394 9.00007 63.894 8.72607 62.363 8.72607C56.372 8.72607 50.792 12.8431 48.477 18.9691C47.038 22.7781 47.022 26.8731 48.435 30.4981C49.855 34.1411 52.541 36.8671 56 38.1741C57.427 38.7131 58.927 38.9861 60.459 38.9861C66.449 38.9861 72.029 34.8691 74.345 28.7431C77.328 20.8481 73.952 12.2331 66.821 9.53907ZM73.42 28.3941C71.25 34.1391 66.041 37.9981 60.46 37.9981C59.048 37.9981 57.666 37.7461 56.351 37.2491C53.158 36.0431 50.675 33.5181 49.358 30.1391C48.035 26.7421 48.05 22.9001 49.403 19.3191C51.573 13.5751 56.781 9.71507 62.363 9.71507C63.774 9.71507 65.156 9.96707 66.471 10.4641C73.092 12.9661 76.209 21.0091 73.42 28.3941Z" fill="#39BEB9"/>
<path d="M67.329 8.19316C63.559 6.76716 59.35 7.06116 55.57 9.01316C51.792 10.9652 48.844 14.3382 47.266 18.5112C45.689 22.6872 45.67 27.1672 47.214 31.1282C48.765 35.1072 51.705 38.0872 55.493 39.5192C57.065 40.1132 58.713 40.4132 60.391 40.4132C62.74 40.4132 65.048 39.8362 67.252 38.6992C71.03 36.7482 73.978 33.3742 75.556 29.2002C77.133 25.0262 77.153 20.5472 75.608 16.5842C74.057 12.6042 71.117 9.62516 67.329 8.19316ZM74.63 28.8512C73.14 32.7972 70.358 35.9822 66.798 37.8212C63.268 39.6432 59.354 39.9222 55.843 38.5952C52.321 37.2642 49.585 34.4852 48.136 30.7702C46.681 27.0372 46.702 22.8082 48.192 18.8622C49.682 14.9172 52.464 11.7322 56.024 9.89316C58.086 8.82916 60.242 8.28916 62.431 8.28916C63.99 8.28916 65.52 8.56816 66.979 9.12016C70.502 10.4512 73.238 13.2302 74.686 16.9452C76.14 20.6772 76.121 24.9062 74.63 28.8512Z" fill="#39BEB9"/>
</g>
<defs>
<filter id="filter0_d" x="-4" y="0" width="108" height="108" filterUnits="userSpaceOnUse" color-interpolation-filters="sRGB">
<feFlood flood-opacity="0" result="BackgroundImageFix"/>
<feColorMatrix in="SourceAlpha" type="matrix" values="0 0 0 0 0 0 0 0 0 0 0 0 0 0 0 0 0 0 127 0"/>
<feOffset dy="4"/>
<feGaussianBlur stdDeviation="2"/>
<feColorMatrix type="matrix" values="0 0 0 0 0 0 0 0 0 0 0 0 0 0 0 0 0 0 0.25 0"/>
<feBlend mode="normal" in2="BackgroundImageFix" result="effect1_dropShadow"/>
<feBlend mode="normal" in="SourceGraphic" in2="effect1_dropShadow" result="shape"/>
</filter>
</defs>
</svg>
