<svg width="108" height="100" viewBox="0 0 108 100" fill="none" xmlns="http://www.w3.org/2000/svg">
<g filter="url(#filter0_d)">
<path d="M95.3477 49.4531H93.5703C92.1836 28.8086 74.9766 12.4414 54 12.4414C33.0234 12.4414 15.8164 28.8086 14.4297 49.4531H12.6523C8.10156 49.4531 4.39062 53.1641 4.39062 57.7148V79.2969C4.39062 83.8477 8.10156 87.5586 12.6523 87.5586H95.3281C99.8789 87.5586 103.59 83.8477 103.59 79.2969V57.7148C103.609 53.1641 99.8984 49.4531 95.3477 49.4531ZM54 17.9492C71.9102 17.9492 86.6367 31.7969 88.043 49.3555H65.1914C63.9609 44.3359 59.4102 40.5859 54 40.5859C48.5898 40.5859 44.0391 44.3164 42.8086 49.3555H19.957C21.3633 31.8164 36.0898 17.9492 54 17.9492ZM59.3516 49.4531H48.6289C49.625 47.4805 51.6367 46.1133 53.9805 46.1133C56.3438 46.1133 58.375 47.4805 59.3516 49.4531ZM98.1016 79.2969C98.1016 80.8203 96.8711 82.0508 95.3477 82.0508H12.6523C11.1289 82.0508 9.89844 80.8203 9.89844 79.2969V57.7148C9.89844 56.1914 11.1289 54.9609 12.6523 54.9609H95.3281C96.8516 54.9609 98.082 56.1914 98.082 57.7148V79.2969H98.1016Z" fill="#39BEB9"/>
<path d="M87.4766 73.6133H81.5781C80.0547 73.6133 78.8242 74.8438 78.8242 76.3672C78.8242 77.8906 80.0547 79.1211 81.5781 79.1211H87.4766C89 79.1211 90.2305 77.8906 90.2305 76.3672C90.2305 74.8438 89 73.6133 87.4766 73.6133Z" fill="#39BEB9"/>
<path d="M21.9883 73.6133H20.5234C19 73.6133 17.7695 74.8438 17.7695 76.3672C17.7695 77.8906 19 79.1211 20.5234 79.1211H21.9883C23.5117 79.1211 24.7422 77.8906 24.7422 76.3672C24.7422 74.8438 23.5117 73.6133 21.9883 73.6133Z" fill="#39BEB9"/>
<path d="M88.7656 62.5781H19.2344C17.7109 62.5781 16.4805 63.8086 16.4805 65.332C16.4805 66.8555 17.7109 68.0859 19.2344 68.0859H88.7656C90.2891 68.0859 91.5195 66.8555 91.5195 65.332C91.5195 63.8086 90.2891 62.5781 88.7656 62.5781Z" fill="#39BEB9"/>
</g>
<defs>
<filter id="filter0_d" x="0" y="0" width="108" height="108" filterUnits="userSpaceOnUse" color-interpolation-filters="sRGB">
<feFlood flood-opacity="0" result="BackgroundImageFix"/>
<feColorMatrix in="SourceAlpha" type="matrix" values="0 0 0 0 0 0 0 0 0 0 0 0 0 0 0 0 0 0 127 0"/>
<feOffset dy="4"/>
<feGaussianBlur stdDeviation="2"/>
<feColorMatrix type="matrix" values="0 0 0 0 0 0 0 0 0 0 0 0 0 0 0 0 0 0 0.25 0"/>
<feBlend mode="normal" in2="BackgroundImageFix" result="effect1_dropShadow"/>
<feBlend mode="normal" in="SourceGraphic" in2="effect1_dropShadow" result="shape"/>
</filter>
</defs>
</svg>
