<svg width="100" height="100" viewBox="0 0 100 100" fill="none" xmlns="http://www.w3.org/2000/svg">
<g filter="url(#filter0_d)">
<path d="M88.4286 60.7C86.6857 60.7 77.0857 61.3857 67.8 62.5143C64.3429 62.9286 61.5286 63.3429 59.2143 63.7286V62.5714C59.2143 60.8572 57.8143 59.4571 56.0857 59.4571H55.5714V55.5857C55.5714 54.2 54.6571 53.0286 53.4 52.6429V36.7571C54.6571 36.3572 55.5714 35.1857 55.5714 33.8V30.6857H61.1286C64.8 30.6857 67.7714 27.7143 67.7714 24.0429C67.7714 23.4571 67.3 22.9714 66.7 22.9714H33.3C32.7 22.9714 32.2286 23.4571 32.2286 24.0429C32.2286 27.7143 35.2 30.6857 38.8714 30.6857H44.4286V33.8C44.4286 35.1857 45.3429 36.3572 46.6 36.7571V52.6429C45.3429 53.0286 44.4286 54.2 44.4286 55.5857V59.4571H43.9143C42.2 59.4571 40.8 60.8572 40.8 62.5714V63.7286C38.4856 63.3429 35.6571 62.9284 32.2 62.5143C22.9143 61.3857 13.3143 60.7 11.5714 60.7C7.55714 60.7 4.28571 63.9429 4.28571 67.9143C4.28571 71.8857 7.55714 75.1286 11.5714 75.1286C13.3143 75.1286 22.9143 74.4429 32.2 73.3143C36.1429 72.8429 39.2714 72.3714 41.7429 71.9286C43.1286 74.8286 46.2571 77.0286 50 77.0286C50.2 77.0286 50.4 77.0286 50.6 77.0143C53.9429 76.8 56.7714 74.7857 58.2 71.9143C60.6857 72.3714 63.8286 72.8286 67.8 73.3143C77.0857 74.4429 86.6857 75.1286 88.4286 75.1286C92.4429 75.1286 95.7143 71.8857 95.7143 67.9143C95.7143 63.9429 92.4429 60.7 88.4286 60.7ZM11.5714 72.9857C8.72857 72.9857 6.42857 70.7143 6.42857 67.9143C6.42857 65.1143 8.72857 62.8429 11.5714 62.8429C14.9 62.8429 30.8 64.2143 40.8 65.9V67.9143C40.8 68.5857 40.8714 69.2429 41.0143 69.8857C31.0286 71.5857 14.9141 72.9857 11.5714 72.9857ZM38.8714 28.5429C36.7571 28.5429 34.9857 27.0857 34.5 25.1143H65.5C65.0143 27.0857 63.2429 28.5429 61.1286 28.5429C48.8571 28.5429 51.5571 28.5429 38.8714 28.5429ZM46.5714 33.8V30.6857H53.4286V33.8C53.4286 34.3286 52.9857 34.7714 52.4429 34.7714C51.9143 34.7714 47.5571 34.7714 47.5571 34.7714C47.0143 34.7714 46.5714 34.3286 46.5714 33.8ZM51.257 36.9143V52.4857H48.7429V36.9143H51.257ZM46.5714 55.5857C46.5714 55.0572 47.0143 54.6286 47.5571 54.6286H52.4429C52.9857 54.6286 53.4286 55.0572 53.4286 55.5857V59.4571H46.5714V55.5857ZM57.0714 67.6429C57.0714 71.4 54.2286 74.6429 50.4571 74.8714C46.4571 75.1286 42.943 72.0143 42.943 67.9143C42.943 64.9 42.943 65.5429 42.943 62.5713C42.943 62.0427 43.3859 61.5999 43.9144 61.5999C48.1144 61.6142 55.5144 61.6142 56.0859 61.5999C56.6287 61.5999 57.0716 62.0427 57.0716 62.5713C57.0714 63.0286 57.0714 67.6429 57.0714 67.6429ZM88.4286 72.9857C85.0714 72.9857 68.9286 71.5857 58.9429 69.8857C59.1286 69.1714 59.2143 68.4143 59.2143 67.6429V65.9C69.2143 64.2143 85.1 62.8429 88.4286 62.8429C91.2714 62.8429 93.5714 65.1143 93.5714 67.9143C93.5714 70.7143 91.2714 72.9857 88.4286 72.9857Z" fill="#39BEB9"/>
</g>
<defs>
<filter id="filter0_d" x="-4" y="0" width="108" height="108" filterUnits="userSpaceOnUse" color-interpolation-filters="sRGB">
<feFlood flood-opacity="0" result="BackgroundImageFix"/>
<feColorMatrix in="SourceAlpha" type="matrix" values="0 0 0 0 0 0 0 0 0 0 0 0 0 0 0 0 0 0 127 0"/>
<feOffset dy="4"/>
<feGaussianBlur stdDeviation="2"/>
<feColorMatrix type="matrix" values="0 0 0 0 0 0 0 0 0 0 0 0 0 0 0 0 0 0 0.25 0"/>
<feBlend mode="normal" in2="BackgroundImageFix" result="effect1_dropShadow"/>
<feBlend mode="normal" in="SourceGraphic" in2="effect1_dropShadow" result="shape"/>
</filter>
</defs>
</svg>
