<svg width="100" height="100" viewBox="0 0 100 100" fill="none" xmlns="http://www.w3.org/2000/svg">
<g filter="url(#filter0_d)">
<path d="M67.9742 37.9414C67.0253 28.1851 56.576 23.6444 47.8727 24.4664C39.6332 25.2423 34.7376 30.161 31.9408 37.5795C31.8338 37.6865 31.2368 62.5627 31.6808 74.7859C31.6878 74.9698 32.2468 75.4378 32.5737 75.4428C44.0279 75.6338 55.5011 75.7828 66.9513 75.3318C67.5183 75.4148 68.3172 75.0978 68.3212 74.6039C68.4122 62.3827 68.8552 50.1456 67.9742 37.9414ZM37.8974 29.888C40.7252 26.5392 45.1159 25.5623 49.2916 25.2943C56.632 24.8214 64.5435 30.053 65.9074 37.4075C55.2611 36.4975 44.5479 37.3585 33.8786 37.2165C34.8656 34.5717 36.0595 32.0638 37.8974 29.888ZM33.5937 73.9629C33.1947 62.1597 33.5967 50.3476 33.6887 38.5424C44.4819 38.6554 55.3171 37.7864 66.0814 38.8054C66.9013 50.4736 66.5074 62.1737 66.4034 73.8609C55.4741 74.2669 44.5269 74.1409 33.5937 73.9629Z" fill="#39BEB9"/>
<path d="M35.4106 47.0072C37.6126 47.0072 39.8156 47.0072 42.0166 47.0072C43.6256 47.1182 43.5956 46.2312 43.5976 46.1692C43.6176 45.0672 43.6136 43.9672 43.6136 42.8662C43.6136 42.5982 43.1816 42.2692 42.9986 42.2692C41.0206 42.2692 35.2676 41.7582 35.2866 43.1052C35.2866 44.3092 34.9546 46.8682 35.4106 47.0072ZM41.6796 43.0322C41.6806 44.0812 41.6816 45.1292 41.6646 46.1772C40.1136 46.1772 38.5626 46.1772 37.0126 46.1772C37.2036 45.1642 37.2086 44.1112 37.2026 43.0772C38.6946 42.9822 40.1926 42.9872 41.6856 42.9872C41.6846 43.0032 41.6796 43.0172 41.6796 43.0322Z" fill="#39BEB9"/>
<path d="M45.5898 47.0072C47.7918 47.0072 49.9948 47.0072 52.1958 47.0072C53.8048 47.1182 53.7748 46.2312 53.7768 46.1692C53.7968 45.0672 53.7928 43.9672 53.7928 42.8662C53.7928 42.5982 53.3608 42.2692 53.1778 42.2692C51.1998 42.2692 45.4468 41.7582 45.4658 43.1052C45.4658 44.3092 45.1338 46.8682 45.5898 47.0072ZM51.8578 43.0322C51.8588 44.0812 51.8598 45.1292 51.8428 46.1772C50.2918 46.1772 48.7408 46.1772 47.1908 46.1772C47.3818 45.1642 47.3868 44.1112 47.3808 43.0772C48.8728 42.9822 50.3708 42.9872 51.8638 42.9872C51.8628 43.0032 51.8578 43.0172 51.8578 43.0322Z" fill="#39BEB9"/>
<path d="M55.7681 47.0072C57.9701 47.0072 60.1731 47.0072 62.3741 47.0072C63.9831 47.1182 63.9531 46.2312 63.9551 46.1692C63.9751 45.0672 63.9711 43.9672 63.9711 42.8662C63.9711 42.5982 63.5391 42.2692 63.3561 42.2692C61.3781 42.2692 55.6251 41.7582 55.6441 43.1052C55.6441 44.3092 55.3121 46.8682 55.7681 47.0072ZM62.0371 43.0322C62.0381 44.0812 62.0391 45.1292 62.0221 46.1772C60.4711 46.1772 58.9201 46.1772 57.3701 46.1772C57.5611 45.1642 57.5661 44.1112 57.5601 43.0772C59.0521 42.9822 60.5501 42.9872 62.0431 42.9872C62.0421 43.0032 62.0371 43.0172 62.0371 43.0322Z" fill="#39BEB9"/>
<path d="M35.4106 53.2567C37.6126 53.2567 39.8156 53.2567 42.0166 53.2567C43.6256 53.3677 43.5956 52.4807 43.5976 52.4187C43.6176 51.3167 43.6136 50.2167 43.6136 49.1157C43.6136 48.8477 43.1816 48.5187 42.9986 48.5187C41.0206 48.5187 35.2676 48.0077 35.2866 49.3547C35.2866 50.5587 34.9546 53.1177 35.4106 53.2567ZM41.6796 49.2817C41.6806 50.3307 41.6816 51.3787 41.6646 52.4267C40.1136 52.4267 38.5626 52.4267 37.0126 52.4267C37.2036 51.4137 37.2086 50.3607 37.2026 49.3267C38.6946 49.2317 40.1926 49.2367 41.6856 49.2367C41.6846 49.2527 41.6796 49.2667 41.6796 49.2817Z" fill="#39BEB9"/>
<path d="M45.5898 53.2567C47.7918 53.2567 49.9948 53.2567 52.1958 53.2567C53.8048 53.3677 53.7748 52.4807 53.7768 52.4187C53.7968 51.3167 53.7928 50.2167 53.7928 49.1157C53.7928 48.8477 53.3608 48.5187 53.1778 48.5187C51.1998 48.5187 45.4468 48.0077 45.4658 49.3547C45.4658 50.5587 45.1338 53.1177 45.5898 53.2567ZM51.8578 49.2817C51.8588 50.3307 51.8598 51.3787 51.8428 52.4267C50.2918 52.4267 48.7408 52.4267 47.1908 52.4267C47.3818 51.4137 47.3868 50.3607 47.3808 49.3267C48.8728 49.2317 50.3708 49.2367 51.8638 49.2367C51.8628 49.2527 51.8578 49.2667 51.8578 49.2817Z" fill="#39BEB9"/>
<path d="M55.7681 53.2567C57.9701 53.2567 60.1731 53.2567 62.3741 53.2567C63.9831 53.3677 63.9531 52.4807 63.9551 52.4187C63.9751 51.3167 63.9711 50.2167 63.9711 49.1157C63.9711 48.8477 63.5391 48.5187 63.3561 48.5187C61.3781 48.5187 55.6251 48.0077 55.6441 49.3547C55.6441 50.5587 55.3121 53.1177 55.7681 53.2567ZM62.0371 49.2817C62.0381 50.3307 62.0391 51.3787 62.0221 52.4267C60.4711 52.4267 58.9201 52.4267 57.3701 52.4267C57.5611 51.4137 57.5661 50.3607 57.5601 49.3267C59.0521 49.2317 60.5501 49.2367 62.0431 49.2367C62.0421 49.2527 62.0371 49.2667 62.0371 49.2817Z" fill="#39BEB9"/>
<path d="M35.4106 65.318C37.6126 65.318 39.8156 65.318 42.0166 65.318C43.6256 65.429 43.5956 64.542 43.5976 64.48C43.6176 63.378 43.6136 62.278 43.6136 61.177C43.6136 60.909 43.1816 60.58 42.9986 60.58C41.0206 60.58 35.2676 60.069 35.2866 61.416C35.2866 62.62 34.9546 65.18 35.4106 65.318ZM41.6796 61.344C41.6806 62.393 41.6816 63.441 41.6646 64.489C40.1136 64.489 38.5626 64.489 37.0126 64.489C37.2036 63.476 37.2086 62.423 37.2026 61.389C38.6946 61.294 40.1926 61.299 41.6856 61.299C41.6846 61.314 41.6796 61.328 41.6796 61.344Z" fill="#39BEB9"/>
<path d="M45.5898 65.318C47.7918 65.318 49.9948 65.318 52.1958 65.318C53.8048 65.429 53.7748 64.542 53.7768 64.48C53.7968 63.378 53.7928 62.278 53.7928 61.177C53.7928 60.909 53.3608 60.58 53.1778 60.58C51.1998 60.58 45.4468 60.069 45.4658 61.416C45.4658 62.62 45.1338 65.18 45.5898 65.318ZM51.8578 61.344C51.8588 62.393 51.8598 63.441 51.8428 64.489C50.2918 64.489 48.7408 64.489 47.1908 64.489C47.3818 63.476 47.3868 62.423 47.3808 61.389C48.8728 61.294 50.3708 61.299 51.8638 61.299C51.8628 61.314 51.8578 61.328 51.8578 61.344Z" fill="#39BEB9"/>
<path d="M55.7681 65.318C57.9701 65.318 60.1731 65.318 62.3741 65.318C63.9831 65.429 63.9531 64.542 63.9551 64.48C63.9751 63.378 63.9711 62.278 63.9711 61.177C63.9711 60.909 63.5391 60.58 63.3561 60.58C61.3781 60.58 55.6251 60.069 55.6441 61.416C55.6441 62.62 55.3121 65.18 55.7681 65.318ZM62.0371 61.344C62.0381 62.393 62.0391 63.441 62.0221 64.489C60.4711 64.489 58.9201 64.489 57.3701 64.489C57.5611 63.476 57.5661 62.423 57.5601 61.389C59.0521 61.294 60.5501 61.299 62.0431 61.299C62.0421 61.314 62.0371 61.328 62.0371 61.344Z" fill="#39BEB9"/>
<path d="M35.4106 71.5675C37.6126 71.5675 39.8156 71.5675 42.0166 71.5675C43.6256 71.6785 43.5956 70.7915 43.5976 70.7295C43.6176 69.6275 43.6136 68.5275 43.6136 67.4265C43.6136 67.1585 43.1816 66.8295 42.9986 66.8295C41.0206 66.8295 35.2676 66.3185 35.2866 67.6655C35.2866 68.8695 34.9546 71.4295 35.4106 71.5675ZM41.6796 67.5935C41.6806 68.6425 41.6816 69.6905 41.6646 70.7385C40.1136 70.7385 38.5626 70.7385 37.0126 70.7385C37.2036 69.7255 37.2086 68.6725 37.2026 67.6385C38.6946 67.5435 40.1926 67.5485 41.6856 67.5485C41.6846 67.5635 41.6796 67.5775 41.6796 67.5935Z" fill="#39BEB9"/>
<path d="M45.5898 71.5675C47.7918 71.5675 49.9948 71.5675 52.1958 71.5675C53.8048 71.6785 53.7748 70.7915 53.7768 70.7295C53.7968 69.6275 53.7928 68.5275 53.7928 67.4265C53.7928 67.1585 53.3608 66.8295 53.1778 66.8295C51.1998 66.8295 45.4468 66.3185 45.4658 67.6655C45.4658 68.8695 45.1338 71.4295 45.5898 71.5675ZM51.8578 67.5935C51.8588 68.6425 51.8598 69.6905 51.8428 70.7385C50.2918 70.7385 48.7408 70.7385 47.1908 70.7385C47.3818 69.7255 47.3868 68.6725 47.3808 67.6385C48.8728 67.5435 50.3708 67.5485 51.8638 67.5485C51.8628 67.5635 51.8578 67.5775 51.8578 67.5935Z" fill="#39BEB9"/>
<path d="M55.7681 71.5675C57.9701 71.5675 60.1731 71.5675 62.3741 71.5675C63.9831 71.6785 63.9531 70.7915 63.9551 70.7295C63.9751 69.6275 63.9711 68.5275 63.9711 67.4265C63.9711 67.1585 63.5391 66.8295 63.3561 66.8295C61.3781 66.8295 55.6251 66.3185 55.6441 67.6655C55.6441 68.8695 55.3121 71.4295 55.7681 71.5675ZM62.0371 67.5935C62.0381 68.6425 62.0391 69.6905 62.0221 70.7385C60.4711 70.7385 58.9201 70.7385 57.3701 70.7385C57.5611 69.7255 57.5661 68.6725 57.5601 67.6385C59.0521 67.5435 60.5501 67.5485 62.0431 67.5485C62.0421 67.5635 62.0371 67.5775 62.0371 67.5935Z" fill="#39BEB9"/>
</g>
<defs>
<filter id="filter0_d" x="-4" y="0" width="108" height="108" filterUnits="userSpaceOnUse" color-interpolation-filters="sRGB">
<feFlood flood-opacity="0" result="BackgroundImageFix"/>
<feColorMatrix in="SourceAlpha" type="matrix" values="0 0 0 0 0 0 0 0 0 0 0 0 0 0 0 0 0 0 127 0"/>
<feOffset dy="4"/>
<feGaussianBlur stdDeviation="2"/>
<feColorMatrix type="matrix" values="0 0 0 0 0 0 0 0 0 0 0 0 0 0 0 0 0 0 0.25 0"/>
<feBlend mode="normal" in2="BackgroundImageFix" result="effect1_dropShadow"/>
<feBlend mode="normal" in="SourceGraphic" in2="effect1_dropShadow" result="shape"/>
</filter>
</defs>
</svg>
