<svg width="100" height="100" viewBox="0 0 100 100" fill="none" xmlns="http://www.w3.org/2000/svg">
<g filter="url(#filter0_d)">
<path d="M87.962 23.4619C88.579 23.4619 89.077 22.9629 89.077 22.3469C89.077 21.7309 88.579 21.2319 87.962 21.2319C87.347 21.2319 86.848 21.7319 86.848 22.3469C86.848 22.9629 87.347 23.4619 87.962 23.4619ZM84.06 23.4619C84.675 23.4619 85.175 22.9629 85.175 22.3469C85.175 21.7309 84.675 21.2319 84.06 21.2319C83.445 21.2319 82.945 21.7319 82.945 22.3469C82.944 22.9629 83.444 23.4619 84.06 23.4619ZM80.156 23.4619C80.772 23.4619 81.271 22.9629 81.271 22.3469C81.271 21.7309 80.772 21.2319 80.156 21.2319C79.541 21.2319 79.042 21.7319 79.042 22.3469C79.042 22.9629 79.541 23.4619 80.156 23.4619ZM91.753 12.9109H8.34301C6.52701 12.9109 5.04901 14.3889 5.04901 16.2049V76.8669C5.04901 82.2469 7.92801 84.8159 10.344 86.0239C12.865 87.2839 15.374 87.2979 15.48 87.2979H84.617C89.997 87.2979 92.566 84.4179 93.774 82.0019C95.034 79.4809 95.048 76.9719 95.048 76.8659V16.2059C95.049 14.3889 93.57 12.9109 91.753 12.9109ZM91.03 80.7339C89.819 83.0859 87.662 84.2769 84.617 84.2769H15.48C15.466 84.2769 13.499 84.2519 11.612 83.2799C9.99801 82.4489 8.93101 81.1719 8.42001 79.4679H91.553C91.42 79.8789 91.249 80.3099 91.03 80.7339ZM92.027 76.8669C92.027 76.8769 92.015 77.7889 91.702 78.9649H8.28901C8.14401 78.3199 8.07001 77.6209 8.07001 76.8669V19.2529H40.6C40.581 19.3519 40.571 19.4549 40.571 19.5589C40.571 20.4829 41.321 21.2319 42.244 21.2319H57.855C58.779 21.2319 59.528 20.4829 59.528 19.5589C59.528 19.4549 59.517 19.3519 59.499 19.2529H92.028V76.8669H92.027ZM92.027 18.7499H59.318C59.032 18.2349 58.484 17.8859 57.854 17.8859H42.243C41.613 17.8859 41.065 18.2349 40.779 18.7499H8.07001V16.2059C8.07001 16.0549 8.19301 15.9329 8.34301 15.9329H91.753C91.904 15.9329 92.027 16.0549 92.027 16.2059V18.7499ZM55.928 47.9389C56.062 47.9749 56.2 47.8959 56.237 47.7609C56.242 47.7389 56.245 47.7169 56.245 47.6959C56.245 47.5849 56.172 47.4829 56.058 47.4529C56.058 47.4529 54.388 47.0049 53.599 46.7939L55.487 45.7039C55.607 45.6349 55.649 45.4799 55.579 45.3599C55.51 45.2389 55.355 45.1979 55.235 45.2679L53.347 46.3579C53.558 45.5689 54.006 43.8979 54.006 43.8979C54.011 43.8769 54.014 43.8539 54.014 43.8329C54.014 43.7219 53.941 43.6199 53.827 43.5899C53.693 43.5539 53.556 43.6329 53.518 43.7679L52.729 46.7139L50.3 48.1169V45.3109L52.457 43.1549C52.556 43.0559 52.556 42.8969 52.457 42.7989C52.358 42.7009 52.199 42.7009 52.101 42.7989C52.101 42.7989 50.878 44.0219 50.301 44.5989V42.4189C50.301 42.2799 50.189 42.1679 50.05 42.1679C49.911 42.1679 49.798 42.2809 49.798 42.4189V44.5989C49.221 44.0209 47.999 42.7989 47.999 42.7989C47.9 42.7009 47.741 42.7009 47.643 42.7989C47.545 42.8969 47.545 43.0569 47.643 43.1549L49.799 45.3109V48.1159L47.37 46.7139L46.58 43.7679C46.544 43.6339 46.406 43.5539 46.271 43.5899C46.159 43.6199 46.084 43.7219 46.084 43.8329C46.084 43.8539 46.087 43.8769 46.093 43.8979C46.093 43.8979 46.541 45.5689 46.752 46.3579L44.864 45.2679C44.743 45.1989 44.59 45.2399 44.52 45.3599C44.451 45.4799 44.492 45.6339 44.612 45.7039L46.5 46.7939C45.711 47.0049 44.042 47.4529 44.042 47.4529C43.93 47.4829 43.855 47.5849 43.855 47.6959C43.855 47.7169 43.858 47.7389 43.864 47.7609C43.9 47.8949 44.037 47.9749 44.172 47.9389L47.117 47.1499L49.546 48.5519L47.117 49.9539L44.171 49.1649C44.036 49.1279 43.899 49.2079 43.863 49.3429C43.857 49.3649 43.854 49.3869 43.854 49.4079C43.854 49.5199 43.929 49.6209 44.041 49.6519C44.041 49.6519 45.712 50.0989 46.5 50.3109L44.611 51.4019C44.49 51.4709 44.449 51.6249 44.519 51.7459C44.588 51.8659 44.742 51.9069 44.863 51.8379L46.751 50.7479C46.539 51.5369 46.092 53.2069 46.092 53.2069C46.086 53.2289 46.083 53.2509 46.083 53.2719C46.083 53.3829 46.158 53.4849 46.27 53.5149C46.404 53.5499 46.542 53.4709 46.579 53.3359L47.368 50.3909L49.797 48.9879V51.7929L47.641 53.9499C47.543 54.0479 47.543 54.2079 47.641 54.3049C47.74 54.4039 47.899 54.4039 47.997 54.3049C47.997 54.3049 49.219 53.0819 49.796 52.5039V54.6849C49.796 54.8239 49.909 54.9369 50.048 54.9369C50.187 54.9369 50.299 54.8239 50.299 54.6849V52.5039C50.877 53.0809 52.099 54.3049 52.099 54.3049C52.198 54.4039 52.357 54.4039 52.455 54.3049C52.553 54.2059 52.554 54.0469 52.455 53.9499L50.3 51.7929V48.9879L52.729 50.3899L53.518 53.3359C53.555 53.4709 53.693 53.5499 53.827 53.5149C53.94 53.4849 54.014 53.3829 54.014 53.2719C54.014 53.2509 54.011 53.2289 54.006 53.2069C54.006 53.2069 53.558 51.5359 53.347 50.7469L55.235 51.8369C55.355 51.9069 55.509 51.8649 55.579 51.7449C55.649 51.6239 55.607 51.4709 55.487 51.4009L53.599 50.3109C54.388 50.0999 56.058 49.6529 56.058 49.6529C56.171 49.6229 56.245 49.5209 56.245 49.4089C56.245 49.3879 56.242 49.3659 56.237 49.3439C56.201 49.2099 56.062 49.1299 55.928 49.1659L52.982 49.9549L50.554 48.5529L52.982 47.1509L55.928 47.9389Z" fill="#39BEB9"/>
</g>
<defs>
<filter id="filter0_d" x="-4" y="0" width="108" height="108" filterUnits="userSpaceOnUse" color-interpolation-filters="sRGB">
<feFlood flood-opacity="0" result="BackgroundImageFix"/>
<feColorMatrix in="SourceAlpha" type="matrix" values="0 0 0 0 0 0 0 0 0 0 0 0 0 0 0 0 0 0 127 0"/>
<feOffset dy="4"/>
<feGaussianBlur stdDeviation="2"/>
<feColorMatrix type="matrix" values="0 0 0 0 0 0 0 0 0 0 0 0 0 0 0 0 0 0 0.25 0"/>
<feBlend mode="normal" in2="BackgroundImageFix" result="effect1_dropShadow"/>
<feBlend mode="normal" in="SourceGraphic" in2="effect1_dropShadow" result="shape"/>
</filter>
</defs>
</svg>
