<svg width="108" height="108" viewBox="0 0 108 108" fill="none" xmlns="http://www.w3.org/2000/svg">
<g clip-path="url(#clip0)" filter="url(#filter0_d)">
<path d="M50.6821 99.9389C36.4503 98.9443 23.6876 92.2584 14.8082 81.1461C8.86184 73.7045 5.2741 64.8975 4.20651 55.1217C3.94507 52.7276 3.94507 47.2589 4.20651 44.8649C4.73807 39.9974 5.73367 35.9272 7.47897 31.4866C12.4494 18.8401 22.8505 8.43895 35.497 3.46855C39.9377 1.72325 44.0078 0.72765 48.8753 0.19605C51.2694 -0.06535 56.738 -0.06535 59.132 0.19605C68.9078 1.26365 77.7149 4.85145 85.1566 10.7977C93.8275 17.7263 99.8201 27.0201 102.558 37.7855C103.591 41.8489 103.99 45.2435 103.99 49.9932C103.99 53.6538 103.857 55.3714 103.326 58.5776C102 66.5906 98.3749 74.6688 93.1992 81.1461C84.743 91.7289 72.6567 98.3585 59.2435 99.7717C57.2835 99.9781 52.563 100.07 50.6821 99.9389ZM58.7976 94.4185C66.2531 93.527 73.0626 91.0027 79.1651 86.8682C81.4747 85.3035 83.4404 83.6683 85.5596 81.5491C89.1215 77.9872 91.6482 74.4774 93.9279 69.9246C96.3262 65.1351 97.7617 60.2911 98.447 54.6756C98.7218 52.4236 98.7218 47.5628 98.447 45.3108C97.5155 37.6778 95.0356 30.9674 90.8786 24.8319C89.3139 22.5222 87.6787 20.5565 85.5596 18.4373C81.9976 14.8754 78.4878 12.3487 73.935 10.069C69.1455 7.67075 64.3015 6.23525 58.6861 5.54995C56.4341 5.27515 51.5733 5.27515 49.3213 5.54995C41.6883 6.48145 34.9779 8.96135 28.8423 13.1183C28.0334 13.6663 26.704 14.6472 25.8879 15.2978C23.9859 16.8146 20.825 19.9755 19.3083 21.8776C14.509 27.896 11.4249 34.6513 10.0351 42.1893C9.50355 45.0723 9.36309 46.7034 9.36309 49.9932C9.36309 52.2426 9.41562 53.4896 9.56036 54.6756C10.4918 62.3086 12.9718 69.0191 17.1287 75.1546C18.6935 77.4642 20.3287 79.43 22.4478 81.5491C25.1693 84.2706 28.1684 86.6062 31.3036 88.4458C32.7203 89.2771 35.628 90.7164 37.1769 91.3531C41.3929 93.0862 46.586 94.2791 51.4395 94.6297C52.7357 94.7237 57.3576 94.5908 58.7976 94.4185ZM53.4377 89.6908L53.1118 89.3649V86.2262V83.0873L53.4377 82.7616C53.6601 82.539 53.8752 82.4356 54.1152 82.4356C54.3551 82.4356 54.5702 82.539 54.7927 82.7616L55.1185 83.0873V86.2262V89.3649L54.7927 89.6908C54.5702 89.9131 54.3551 90.0166 54.1152 90.0166C53.8752 90.0166 53.6601 89.9131 53.4377 89.6908ZM46.5974 55.5735C46.1491 55.278 45.9853 54.9394 45.9807 54.2986C45.9747 53.4488 46.2234 53.1679 47.9743 52.049C48.8321 51.5009 49.5354 50.9771 49.5372 50.8852C49.5392 50.7759 45.6146 48.6326 38.2101 44.6996C29.6941 40.1763 26.7637 38.5686 26.4123 38.2271C25.3966 37.24 25.3113 35.7411 26.2084 34.6462C26.796 33.9292 27.398 33.684 28.4491 33.7337L29.3096 33.7747L42.0421 40.5463C49.045 44.2706 54.8802 47.3179 55.0093 47.3179C55.1383 47.3179 62.1714 42.8188 70.6385 37.3199C85.4516 27.6996 86.0558 27.32 86.6312 27.2722C87.1346 27.2302 87.2968 27.2722 87.6565 27.5054C88.4579 28.0357 88.5382 29.2751 87.8142 29.9409C87.6442 30.0972 81.0585 34.4042 73.1792 39.5117C65.3 44.6193 58.7603 48.8856 58.6467 48.9925C58.4473 49.1799 58.4588 49.1995 58.9812 49.5588C60.0668 50.3055 60.465 50.9757 60.465 52.056C60.465 52.8891 60.2062 53.484 59.61 54.0215C59.0287 54.5454 58.5062 54.7099 57.5889 54.6576C56.9056 54.6186 56.7015 54.5378 55.0216 53.6423C54.0179 53.1071 53.1333 52.6693 53.0558 52.6693C52.9783 52.6693 51.9466 53.2998 50.763 54.0706C49.5793 54.8414 48.4722 55.5438 48.3027 55.6315C47.8558 55.8625 46.9911 55.8333 46.5974 55.5734V55.5735ZM54.6219 50.6115C55.1749 50.0585 54.7831 49.1013 54.0037 49.1013C53.7865 49.1013 53.5579 49.2025 53.3854 49.375C52.8324 49.9281 53.2243 50.8852 54.0037 50.8852C54.2209 50.8852 54.4494 50.784 54.6219 50.6115ZM14.3062 50.5595C14.0838 50.3371 13.9803 50.1221 13.9803 49.882C13.9803 49.6422 14.0838 49.4269 14.3062 49.2045L14.632 48.8787H17.7708H20.9096L21.2354 49.2045C21.4578 49.4269 21.5613 49.6422 21.5613 49.882C21.5613 50.1221 21.4578 50.3371 21.2354 50.5595L20.9096 50.8854H17.7708H14.632L14.3062 50.5595ZM86.7719 50.5595C86.5495 50.3371 86.446 50.1221 86.446 49.882C86.446 49.6422 86.5495 49.4269 86.7719 49.2045L87.0978 48.8787H90.2366H93.3753L93.7012 49.2045C93.9236 49.4269 94.0271 49.6422 94.0271 49.882C94.0271 50.1221 93.9236 50.3371 93.7012 50.5595L93.3753 50.8854H90.2366H87.0978L86.7719 50.5595H86.7719ZM53.4377 17.2253L53.1118 16.8994V13.7606V10.6219L53.4377 10.296C53.6601 10.0736 53.8752 9.97015 54.1152 9.97015C54.3551 9.97015 54.5702 10.0736 54.7927 10.296L55.1185 10.6219V13.7606V16.8994L54.7927 17.2253C54.5702 17.4478 54.3551 17.5512 54.1152 17.5512C53.8752 17.5512 53.6601 17.4478 53.4377 17.2253Z" fill="#39BEB9"/>
</g>
<defs>
<filter id="filter0_d" x="0" y="0" width="108" height="108" filterUnits="userSpaceOnUse" color-interpolation-filters="sRGB">
<feFlood flood-opacity="0" result="BackgroundImageFix"/>
<feColorMatrix in="SourceAlpha" type="matrix" values="0 0 0 0 0 0 0 0 0 0 0 0 0 0 0 0 0 0 127 0"/>
<feOffset dy="4"/>
<feGaussianBlur stdDeviation="2"/>
<feColorMatrix type="matrix" values="0 0 0 0 0 0 0 0 0 0 0 0 0 0 0 0 0 0 0.25 0"/>
<feBlend mode="normal" in2="BackgroundImageFix" result="effect1_dropShadow"/>
<feBlend mode="normal" in="SourceGraphic" in2="effect1_dropShadow" result="shape"/>
</filter>
<clipPath id="clip0">
<rect width="100" height="100" fill="white" transform="translate(4)"/>
</clipPath>
</defs>
</svg>
