<svg width="100" height="104" viewBox="0 0 100 104" fill="none" xmlns="http://www.w3.org/2000/svg">
<g filter="url(#filter0_d)">
<path d="M80.9714 4.28564H19.0286C15.3 4.28564 12.2429 7.3285 12.2429 11.0714V88.9285C12.2429 92.6714 15.3 95.7142 19.0286 95.7142H80.9714C84.7143 95.7142 87.7571 92.6714 87.7571 88.9285V11.0714C87.7571 7.3285 84.7143 4.28564 80.9714 4.28564ZM85.6143 88.9285C85.6143 91.4856 83.5429 93.5714 80.9714 93.5714H19.0286C16.4714 93.5714 14.3857 91.4856 14.3857 88.9285V21.8571H85.6143V88.9285ZM85.6143 19.7142H14.3857V11.0714C14.3857 8.51422 16.4714 6.4285 19.0286 6.4285H80.9714C83.5429 6.4285 85.6143 8.51422 85.6143 11.0714V19.7142Z" fill="#39BEB9"/>
<path d="M50 7.75708C47.0714 7.75708 44.6857 10.1428 44.6857 13.0714C44.6857 16.0142 47.0714 18.3999 50 18.3999C52.9429 18.3999 55.3286 16.0142 55.3286 13.0714C55.3286 10.1428 52.9429 7.75708 50 7.75708ZM50 16.2571C48.2571 16.2571 46.8286 14.8285 46.8286 13.0714C46.8286 11.3285 48.2571 9.89994 50 9.89994C51.7571 9.89994 53.1857 11.3285 53.1857 13.0714C53.1857 14.8285 51.7571 16.2571 50 16.2571Z" fill="#39BEB9"/>
<path d="M78.476 14.0991H63.9253C63.3337 14.0991 62.8539 14.579 62.8539 15.1705C62.8539 15.7621 63.3337 16.242 63.9253 16.242H78.476C79.0676 16.242 79.5474 15.7621 79.5474 15.1705C79.5474 14.579 79.0676 14.0991 78.476 14.0991Z" fill="#39BEB9"/>
<path d="M78.476 9.90552H63.9253C63.3337 9.90552 62.8539 10.3854 62.8539 10.9769C62.8539 11.5685 63.3337 12.0484 63.9253 12.0484H78.476C79.0676 12.0484 79.5474 11.5685 79.5474 10.9769C79.5474 10.3854 79.0676 9.90552 78.476 9.90552Z" fill="#39BEB9"/>
<path d="M36.0877 14.0991H21.5369C20.1197 14.0991 20.1189 16.242 21.5369 16.242H36.0876C36.6791 16.242 37.159 15.7621 37.159 15.1705C37.159 14.579 36.6791 14.0991 36.0877 14.0991Z" fill="#39BEB9"/>
<path d="M36.0877 9.90552H21.5369C20.9453 9.90552 20.4654 10.3854 20.4654 10.9769C20.4654 11.5685 20.9453 12.0484 21.5369 12.0484H36.0876C36.6791 12.0484 37.159 11.5685 37.159 10.9769C37.1591 10.3854 36.6791 9.90552 36.0877 9.90552Z" fill="#39BEB9"/>
<path d="M50 28.8C34.0571 28.8 21.1 41.7715 21.1 57.7143C21.1 73.6572 34.0571 86.6286 50 86.6286C65.9429 86.6286 78.9143 73.6572 78.9143 57.7143C78.9143 41.7715 65.9429 28.8 50 28.8ZM50 84.4858C35.2429 84.4858 23.2429 72.4715 23.2429 57.7143C23.2429 42.9572 35.2429 30.9429 50 30.9429C64.7714 30.9429 76.7714 42.9572 76.7714 57.7143C76.7714 72.4715 64.7714 84.4858 50 84.4858Z" fill="#39BEB9"/>
<path d="M50 34.5142C37.2143 34.5142 26.8143 44.9284 26.8143 57.7142C26.8143 70.5142 37.2143 80.9142 50 80.9142C62.8 80.9142 73.2 70.5142 73.2 57.7142C73.2 44.9284 62.8 34.5142 50 34.5142ZM50 78.7713C38.4 78.7713 28.9571 69.3284 28.9571 57.7142C28.9571 46.0999 38.4 36.657 50 36.657C61.6143 36.657 71.0571 46.0999 71.0571 57.7142C71.0571 69.3284 61.6143 78.7713 50 78.7713Z" fill="#39BEB9"/>
</g>
<defs>
<filter id="filter0_d" x="-4" y="0" width="108" height="108" filterUnits="userSpaceOnUse" color-interpolation-filters="sRGB">
<feFlood flood-opacity="0" result="BackgroundImageFix"/>
<feColorMatrix in="SourceAlpha" type="matrix" values="0 0 0 0 0 0 0 0 0 0 0 0 0 0 0 0 0 0 127 0"/>
<feOffset dy="4"/>
<feGaussianBlur stdDeviation="2"/>
<feColorMatrix type="matrix" values="0 0 0 0 0 0 0 0 0 0 0 0 0 0 0 0 0 0 0.25 0"/>
<feBlend mode="normal" in2="BackgroundImageFix" result="effect1_dropShadow"/>
<feBlend mode="normal" in="SourceGraphic" in2="effect1_dropShadow" result="shape"/>
</filter>
</defs>
</svg>
