<svg width="100" height="104" viewBox="0 0 100 104" fill="none" xmlns="http://www.w3.org/2000/svg">
<g filter="url(#filter0_d)">
<path d="M84.8427 4.16675H15.1573C11.2823 4.16675 8.12917 7.31987 8.12917 11.1949V88.8053C8.12917 92.6803 11.2812 95.8334 15.1573 95.8334H84.8427C88.7177 95.8334 91.8708 92.6803 91.8708 88.8053V11.1949C91.8708 7.31987 88.7177 4.16675 84.8427 4.16675ZM88.7458 88.8053C88.7458 90.9574 86.9948 92.7084 84.8427 92.7084H15.1573C13.0052 92.7084 11.2542 90.9574 11.2542 88.8053V23.9615H88.7458V88.8053ZM88.7458 20.8365H11.2542V11.1949C11.2542 9.04279 13.0052 7.29175 15.1573 7.29175H84.8427C86.9948 7.29175 88.7458 9.04279 88.7458 11.1949V20.8365Z" fill="#39BEB9"/>
<path d="M70.1781 10.4978C68.2115 10.4978 66.6115 12.0978 66.6115 14.0634C66.6115 16.0291 68.2115 17.6301 70.1781 17.6301C72.1448 17.6301 73.7437 16.0301 73.7437 14.0634C73.7437 12.0968 72.1437 10.4978 70.1781 10.4978ZM70.1781 14.5051C69.9344 14.5051 69.7365 14.3072 69.7365 14.0634C69.7365 13.8207 69.9344 13.6228 70.1781 13.6228C70.4208 13.6228 70.6187 13.8207 70.6187 14.0634C70.6187 14.3072 70.4208 14.5051 70.1781 14.5051Z" fill="#39BEB9"/>
<path d="M50 82.0656C63.0854 82.0656 73.7302 71.4197 73.7302 58.3354C73.7302 45.251 63.0844 34.6062 50 34.6062C36.9156 34.6062 26.2708 45.251 26.2708 58.3354C26.2708 71.4197 36.9156 82.0656 50 82.0656ZM50 37.7302C61.3615 37.7302 70.6052 46.9739 70.6052 58.3343C70.6052 69.6958 61.3615 78.9395 50 78.9395C38.6385 78.9395 29.3958 69.6958 29.3958 58.3343C29.3958 46.9739 38.6385 37.7302 50 37.7302Z" fill="#39BEB9"/>
<path d="M49.3948 61.4198C49.3948 64.3302 51.7625 66.699 54.6729 66.699C57.5833 66.699 59.9521 64.3313 59.9521 61.4198C59.9521 58.5083 57.5844 56.1406 54.6729 56.1406C51.7625 56.1417 49.3948 58.5094 49.3948 61.4198ZM54.6729 59.2667C55.8604 59.2667 56.8271 60.2333 56.8271 61.4208C56.8271 62.6083 55.8604 63.575 54.6729 63.575C53.4854 63.575 52.5198 62.6083 52.5198 61.4208C52.5198 60.2333 53.4854 59.2667 54.6729 59.2667Z" fill="#39BEB9"/>
<path d="M44.3656 64.1177C46.7469 64.1177 48.6844 62.1802 48.6844 59.799C48.6844 57.4177 46.7469 55.4802 44.3656 55.4802C41.9844 55.4802 40.0469 57.4177 40.0469 59.799C40.0479 62.1802 41.9854 64.1177 44.3656 64.1177ZM44.3656 58.6063C45.024 58.6063 45.5594 59.1417 45.5594 59.8C45.5594 60.4583 45.024 60.9938 44.3656 60.9938C43.7073 60.9938 43.1719 60.4583 43.1719 59.8C43.1719 59.1417 43.7073 58.6063 44.3656 58.6063Z" fill="#39BEB9"/>
<path d="M49.901 56.4959C51.7 56.4959 53.1635 55.0324 53.1635 53.2334C53.1635 51.4345 51.7 49.9709 49.901 49.9709C48.1021 49.9709 46.6385 51.4345 46.6385 53.2334C46.6385 55.0324 48.1021 56.4959 49.901 56.4959Z" fill="#39BEB9"/>
<path d="M78.376 10.4978C76.4094 10.4978 74.8104 12.0978 74.8104 14.0634C74.8104 16.0291 76.4104 17.6301 78.376 17.6301C80.3417 17.6301 81.9427 16.0301 81.9427 14.0634C81.9427 12.0968 80.3417 10.4978 78.376 10.4978ZM78.376 14.5051C78.1333 14.5051 77.9354 14.3072 77.9354 14.0634C77.9354 13.8207 78.1333 13.6228 78.376 13.6228C78.6198 13.6228 78.8177 13.8207 78.8177 14.0634C78.8177 14.3072 78.6198 14.5051 78.376 14.5051Z" fill="#39BEB9"/>
</g>
<defs>
<filter id="filter0_d" x="-4" y="0" width="108" height="108" filterUnits="userSpaceOnUse" color-interpolation-filters="sRGB">
<feFlood flood-opacity="0" result="BackgroundImageFix"/>
<feColorMatrix in="SourceAlpha" type="matrix" values="0 0 0 0 0 0 0 0 0 0 0 0 0 0 0 0 0 0 127 0"/>
<feOffset dy="4"/>
<feGaussianBlur stdDeviation="2"/>
<feColorMatrix type="matrix" values="0 0 0 0 0 0 0 0 0 0 0 0 0 0 0 0 0 0 0.25 0"/>
<feBlend mode="normal" in2="BackgroundImageFix" result="effect1_dropShadow"/>
<feBlend mode="normal" in="SourceGraphic" in2="effect1_dropShadow" result="shape"/>
</filter>
</defs>
</svg>
