<svg width="108" height="108" viewBox="0 0 108 108" fill="none" xmlns="http://www.w3.org/2000/svg">
<g filter="url(#filter0_d)">
<path d="M94 70C94 68.362 93.999 66.186 93.889 63.694C100.628 59.943 104 49.104 104 45C104 40 99 40 99 40H87.884C85.951 36.944 83.405 34.333 80.058 32.544C91.153 27.407 99 14.771 99 0H4C4 0 4 45 4 55C4 65 14 65 14 65C14 65 4 65 4 75C4 85 4 100 4 100H94C96.764 100 99 97.764 99 95V75H89C94 75 94 70 94 70ZM99 45C98.991 47.632 96.826 54.285 93.426 57.777C92.941 53.621 92.047 49.133 90.4 45C90.4 45 98.961 44.995 99 45ZM89.005 70H49C49 65.238 49.253 60.986 49.767 57.227C50.168 57.033 58.888 52.928 67.51 57.237C77.522 62.238 87.628 62.503 88.774 62.516C88.928 64.813 89.004 67.401 89.005 70ZM84.889 45C86.493 48.313 87.618 52.467 88.282 57.491C86.477 57.428 78.051 56.91 69.747 52.763C62.306 49.042 54.956 50.256 50.844 51.498C51.45 49.053 52.209 46.889 53.123 44.999H84.889V45ZM81.539 40H56.469C59.61 36.638 63.77 35 69 35C74.234 35 78.396 36.64 81.539 40ZM49 5H93.653C91.661 19.17 81.363 30 69 30C60.831 30 53.565 25.271 49 17.975V5ZM45.77 22.163C48.972 26.704 53.186 30.339 57.945 32.542C54.596 34.331 52.049 36.943 50.116 40H39L45.363 52.727C44.001 59.543 44 66.209 44 70C44 70 44 75 49 75H39C39 75 39 50.761 39 40C39 37.195 39 35.306 39 35C39 28.796 42.848 24.519 45.77 22.163ZM34 75V95H9V75C9 70.972 11.749 70.059 14 70H34V75ZM34 60H14.059C11.749 59.941 9 59.028 9 55V5H44V17.241C40.24 19.922 34 25.762 34 35V60ZM94 80V95H39V80H94Z" fill="#39BEB9"/>
</g>
<defs>
<filter id="filter0_d" x="0" y="0" width="108" height="108" filterUnits="userSpaceOnUse" color-interpolation-filters="sRGB">
<feFlood flood-opacity="0" result="BackgroundImageFix"/>
<feColorMatrix in="SourceAlpha" type="matrix" values="0 0 0 0 0 0 0 0 0 0 0 0 0 0 0 0 0 0 127 0"/>
<feOffset dy="4"/>
<feGaussianBlur stdDeviation="2"/>
<feColorMatrix type="matrix" values="0 0 0 0 0 0 0 0 0 0 0 0 0 0 0 0 0 0 0.25 0"/>
<feBlend mode="normal" in2="BackgroundImageFix" result="effect1_dropShadow"/>
<feBlend mode="normal" in="SourceGraphic" in2="effect1_dropShadow" result="shape"/>
</filter>
</defs>
</svg>
