<svg width="100" height="106" viewBox="0 0 100 106" fill="none" xmlns="http://www.w3.org/2000/svg">
<g filter="url(#filter0_d)">
<path d="M83.9143 15.0285H81.3286C81.1571 13.2856 81.1286 11.3999 81.3571 10.857C81.7571 9.8856 84.4 7.89988 84.4 6.09988C84.4 5.7856 84.3286 5.4856 84.1571 5.1856C83 3.14274 79.2857 2.9856 78.1714 2.9856H78.1571C77.0429 2.9856 73.3143 3.14274 72.1716 5.1856C70.9859 7.24274 74.543 9.7856 74.9573 10.857C75.1859 11.3999 75.1573 13.2856 74.9859 15.0285H56.9286C56.6429 15.0285 56.3714 15.1427 56.1714 15.3427L51.4143 20.0999H44.9143V16.3856H45.8286C47.5857 16.3856 49.0286 14.9427 49.0286 13.1713C49.0286 11.3999 47.5857 9.97131 45.8286 9.97131H37.6143C35.8427 9.97131 34.4 11.3999 34.4 13.1713C34.4 14.9427 35.8427 16.3856 37.6143 16.3856H38.5V20.0999H37.9429C37.3429 20.0999 36.8714 20.5713 36.8714 21.1713C36.8714 21.757 37.3429 22.2427 37.9429 22.2427H38.5V25.3142H18.2143C17.0286 25.3142 15.0143 26.5713 15.0143 28.8427C15.0143 30.7713 16.5714 32.3427 18.4857 32.3713L23.7 55.157C22.0286 55.5999 20.8 57.1427 20.8 58.9427V61.957C20.8 63.757 22.0286 65.2999 23.7 65.7427L19.5286 84.1427C18.1143 91.1999 23.6286 97.0142 30.0429 97.0142H53.3857C60.7143 97.0142 65.1429 90.3142 63.9 84.1285L59.7143 65.7427C61.4 65.2999 62.6286 63.7713 62.6286 61.957V58.9427C62.6286 57.1427 61.4 55.5999 59.7286 55.157L64.9286 32.3713C66.8571 32.3427 68.4143 30.7713 68.4143 28.8427C68.4143 25.357 65.0143 25.3713 64.8714 25.3142H44.9143V22.2427H51.8571C52.1429 22.2427 52.4143 22.1285 52.6143 21.9285L57.3714 17.1713H83.9143C84.5 17.1713 84.9857 16.6856 84.9857 16.0999C84.9857 15.5142 84.5 15.0285 83.9143 15.0285ZM53.3857 94.8713H30.0429C25.5429 94.8713 21.4143 91.2856 21.4573 86.1713H61.9573C61.9571 91.3713 57.8286 94.8713 53.3857 94.8713ZM61.6857 84.0285H21.7429L25.8714 65.8856H57.5571L61.6857 84.0285ZM60.4857 58.9427V61.957C60.4857 62.757 59.9714 63.4285 59.2429 63.6427C58.9857 63.757 61.3 63.7999 24.7286 63.7427C23.8 63.7427 22.9429 62.9999 22.9429 61.957V58.9427C22.9429 57.9285 23.8 57.157 24.7286 57.157C25.5571 57.157 58.8857 57.1142 59.2429 57.257C59.9714 57.4713 60.4857 58.1427 60.4857 58.9427ZM57.5571 55.0142H25.8571L20.7 32.3713H62.7286L57.5571 55.0142ZM64.8714 27.457C65.6857 27.457 66.2714 28.1285 66.2714 28.8427C66.2714 29.6427 65.5857 30.2285 64.8714 30.2285C37.5429 30.2285 45.9571 30.2285 18.5429 30.2285C17.7714 30.2285 17.1571 29.6142 17.1571 28.8427C17.1571 28.1142 17.7714 27.457 18.5429 27.457H64.8714ZM43.8429 14.2427C43.2571 14.2427 42.7714 14.7142 42.7714 15.3142V25.3142H40.6429C40.6429 24.5285 40.6429 15.3142 40.6429 15.3142C40.6429 14.7142 40.1571 14.2427 39.5714 14.2427H37.6143C37.0143 14.2427 36.5429 13.757 36.5429 13.1713C36.5429 12.5856 37.0143 12.1142 37.6143 12.1142H45.8286C46.4143 12.1142 46.8857 12.5856 46.8857 13.1713C46.8857 13.757 46.4143 14.2427 45.8286 14.2427H43.8429ZM79.1714 15.0285H77.1429C77.2857 13.4713 77.4 11.1427 76.9429 10.0427C76.4714 8.87131 74.2714 6.94274 74.0857 6.15702C74.4429 5.71417 75.8714 5.12845 78.1571 5.12845H78.1714C80.4571 5.12845 81.8714 5.71417 82.2429 6.15702C82.0143 6.97131 79.8857 8.84274 79.3714 10.0285C78.9286 11.1285 79.0286 13.4713 79.1714 15.0285Z" fill="#39BEB9"/>
</g>
<defs>
<filter id="filter0_d" x="-4" y="0" width="108" height="108" filterUnits="userSpaceOnUse" color-interpolation-filters="sRGB">
<feFlood flood-opacity="0" result="BackgroundImageFix"/>
<feColorMatrix in="SourceAlpha" type="matrix" values="0 0 0 0 0 0 0 0 0 0 0 0 0 0 0 0 0 0 127 0"/>
<feOffset dy="4"/>
<feGaussianBlur stdDeviation="2"/>
<feColorMatrix type="matrix" values="0 0 0 0 0 0 0 0 0 0 0 0 0 0 0 0 0 0 0.25 0"/>
<feBlend mode="normal" in2="BackgroundImageFix" result="effect1_dropShadow"/>
<feBlend mode="normal" in="SourceGraphic" in2="effect1_dropShadow" result="shape"/>
</filter>
</defs>
</svg>
