<svg width="108" height="108" viewBox="0 0 108 108" fill="none" xmlns="http://www.w3.org/2000/svg">
<g filter="url(#filter0_d)">
<path d="M97.75 43.75H93.0625V31.25C93.0625 27.7984 90.2641 25 86.8125 25H85.25V6.25C85.25 2.79844 82.4516 0 79 0H29C25.5484 0 22.75 2.79844 22.75 6.25V25H21.1875C17.7359 25 14.9375 27.7984 14.9375 31.25V43.75H10.25C6.79844 43.75 4 46.5484 4 50V93.75C4 97.2016 6.79844 100 10.25 100H18.0487L24.1897 85.9825C24.536 85.1921 25.5164 84.5513 26.3793 84.5513H29.8041L24.5398 97.1023C23.8684 98.703 24.7321 100 26.467 100H81.4635C83.1984 100 84.1087 98.6839 83.4968 97.0604L78.7741 84.5513H82.3989C83.2618 84.5513 84.2139 85.2035 84.5259 86.0077L89.9512 100H97.75C101.202 100 104 97.2016 104 93.75V50C104 46.5484 101.202 43.75 97.75 43.75ZM86.8125 28.125C88.536 28.125 89.9375 29.5265 89.9375 31.25V43.75H85.25V28.125H86.8125ZM25.875 6.25C25.875 4.52648 27.2765 3.125 29 3.125H79C80.7235 3.125 82.125 4.52648 82.125 6.25V43.75H25.875V6.25ZM18.0625 31.25C18.0625 29.5265 19.464 28.125 21.1875 28.125H22.75V43.75H18.0625V31.25ZM80.0773 96.8582H28.0341L33.1954 84.5513H75.4317L80.0773 96.8582ZM100.875 93.75C100.875 95.4735 99.4735 96.875 97.75 96.875H92.0912L87.4396 84.877C86.663 82.8773 84.5435 81.4263 82.3989 81.4263H26.3793C24.2904 81.4263 22.1656 82.8148 21.3271 84.7282L16.0064 96.875H10.25C8.52648 96.875 7.125 95.4735 7.125 93.75V50C7.125 48.2765 8.52648 46.875 10.25 46.875H97.75C99.4735 46.875 100.875 48.2765 100.875 50V93.75Z" fill="#39BEB9"/>
<path d="M89.9375 53.125C87.3526 53.125 85.25 55.2277 85.25 57.8125C85.25 60.3973 87.3526 62.5 89.9375 62.5C92.5223 62.5 94.625 60.3973 94.625 57.8125C94.625 55.2277 92.5223 53.125 89.9375 53.125ZM89.9375 59.375C89.0746 59.375 88.375 58.6754 88.375 57.8125C88.375 56.9496 89.0746 56.25 89.9375 56.25C90.8004 56.25 91.5 56.9496 91.5 57.8125C91.5 58.6754 90.8004 59.375 89.9375 59.375Z" fill="#39BEB9"/>
<path d="M77.4375 53.125C74.8526 53.125 72.75 55.2277 72.75 57.8125C72.75 60.3973 74.8526 62.5 77.4375 62.5C80.0223 62.5 82.125 60.3973 82.125 57.8125C82.125 55.2277 80.0223 53.125 77.4375 53.125ZM77.4375 59.375C76.5746 59.375 75.875 58.6754 75.875 57.8125C75.875 56.9496 76.5746 56.25 77.4375 56.25C78.3004 56.25 79 56.9496 79 57.8125C79 58.6754 78.3004 59.375 77.4375 59.375Z" fill="#39BEB9"/>
<path d="M20.4062 56.25H14.9375C14.0746 56.25 13.375 56.9496 13.375 57.8125C13.375 58.6754 14.0746 59.375 14.9375 59.375H20.4062C21.2691 59.375 21.9688 58.6754 21.9688 57.8125C21.9688 56.9496 21.2691 56.25 20.4062 56.25Z" fill="#39BEB9"/>
<path d="M69.625 12.5H38.375C37.5121 12.5 36.8125 13.1996 36.8125 14.0625C36.8125 14.9254 37.5121 15.625 38.375 15.625H69.625C70.4879 15.625 71.1875 14.9254 71.1875 14.0625C71.1875 13.1996 70.4879 12.5 69.625 12.5Z" fill="#39BEB9"/>
<path d="M69.625 18.75H38.375C37.5121 18.75 36.8125 19.4496 36.8125 20.3125C36.8125 21.1754 37.5121 21.875 38.375 21.875H69.625C70.4879 21.875 71.1875 21.1754 71.1875 20.3125C71.1875 19.4496 70.4879 18.75 69.625 18.75Z" fill="#39BEB9"/>
<path d="M69.625 25H38.375C37.5121 25 36.8125 25.6996 36.8125 26.5625C36.8125 27.4254 37.5121 28.125 38.375 28.125H69.625C70.4879 28.125 71.1875 27.4254 71.1875 26.5625C71.1875 25.6996 70.4879 25 69.625 25Z" fill="#39BEB9"/>
<path d="M69.625 31.25H38.375C37.5121 31.25 36.8125 31.9496 36.8125 32.8125C36.8125 33.6754 37.5121 34.375 38.375 34.375H69.625C70.4879 34.375 71.1875 33.6754 71.1875 32.8125C71.1875 31.9496 70.4879 31.25 69.625 31.25Z" fill="#39BEB9"/>
<path d="M38.375 92.1875H69.625C70.4879 92.1875 71.1875 91.4879 71.1875 90.625C71.1875 89.7621 70.4879 89.0625 69.625 89.0625H38.375C37.5121 89.0625 36.8125 89.7621 36.8125 90.625C36.8125 91.4879 37.5121 92.1875 38.375 92.1875Z" fill="#39BEB9"/>
</g>
<defs>
<filter id="filter0_d" x="0" y="0" width="108" height="108" filterUnits="userSpaceOnUse" color-interpolation-filters="sRGB">
<feFlood flood-opacity="0" result="BackgroundImageFix"/>
<feColorMatrix in="SourceAlpha" type="matrix" values="0 0 0 0 0 0 0 0 0 0 0 0 0 0 0 0 0 0 127 0"/>
<feOffset dy="4"/>
<feGaussianBlur stdDeviation="2"/>
<feColorMatrix type="matrix" values="0 0 0 0 0 0 0 0 0 0 0 0 0 0 0 0 0 0 0.25 0"/>
<feBlend mode="normal" in2="BackgroundImageFix" result="effect1_dropShadow"/>
<feBlend mode="normal" in="SourceGraphic" in2="effect1_dropShadow" result="shape"/>
</filter>
</defs>
</svg>
