<svg width="104" height="102" viewBox="0 0 104 102" fill="none" xmlns="http://www.w3.org/2000/svg">
<g filter="url(#filter0_d)">
<path d="M91.309 37.1021C91.2378 63.8238 86.7387 80.0673 86.7387 80.0673C85.5883 84.9569 80.6264 86.6681 78.0893 87.2306C77.1801 87.4327 76.5824 87.4864 76.5824 87.4864C75.3803 87.7101 74.1791 87.9118 72.9838 88.0945C56.6527 90.5886 41.2083 89.3823 33.0911 88.3734L33.0862 88.3724C29.3499 87.9075 27.1683 87.4856 27.1683 87.4856C27.0501 87.4564 26.9339 87.426 26.8196 87.3957C20.0979 85.5979 18.9651 81.8215 18.9651 81.8215C15.1995 72.842 13.7972 48.8882 13.3226 37.1021C13.1575 32.9928 13.1058 30.2734 13.1058 30.2734H91.2308C91.2905 32.6172 91.3149 34.8941 91.309 37.1021ZM91.3192 26.0742C91.3192 21.7773 87.9089 18.457 83.702 18.457H20.7138C16.5069 18.457 13.0966 21.7773 13.0966 26.0742H91.3192ZM69.6758 15.513C69.6758 11.3062 66.2117 7.91016 62.0049 7.91016H42.2782C38.0714 7.91016 34.7148 11.3061 34.7148 15.513V18.457H69.6758V15.513V15.513ZM65.6719 15.1224C65.6719 13.2886 64.1316 11.8164 62.2978 11.8164H41.9853C40.1515 11.8164 38.7188 13.2886 38.7188 15.1224V18.457H65.6719V15.1224V15.1224ZM32.8889 88.3805L30.5235 92.4805H26.6093V87.3958C26.7069 87.4261 26.8437 87.4564 26.9618 87.4856C26.9618 87.4856 29.1475 87.9111 32.8838 88.376L32.8889 88.3805ZM77.8789 87.2288V92.4805H74.0021L71.6252 88.3805L72.7794 88.0977C73.9747 87.915 75.1739 87.711 76.3761 87.4874C76.3761 87.4874 76.9023 87.431 77.8789 87.2288ZM13.3281 37.1094H7.28604C6.26162 37.1094 5.41797 36.264 5.41797 35.2396V32.1146C5.41797 31.0901 6.26162 30.2734 7.28604 30.2734H13.1328L13.3281 37.1094ZM91.1602 30.2734H97.1298C98.1542 30.2734 98.9727 31.09 98.9727 32.1146V35.2396C98.9727 36.264 98.1542 37.1094 97.1298 37.1094H91.2578L91.1602 30.2734ZM61.668 66.1133C61.668 61.421 57.8642 57.6172 53.1719 57.6172H51.2188C46.5265 57.6172 42.7227 61.421 42.7227 66.1133V78.7109C42.7227 83.4032 46.5265 87.207 51.2188 87.207H53.1719C57.8642 87.207 61.668 83.4032 61.668 78.7109V66.1133ZM57.6641 79.2969C57.6641 77.8946 56.5272 76.7578 55.125 76.7578H49.2656C47.8634 76.7578 46.7266 77.8946 46.7266 79.2969C46.7266 80.6991 47.8634 81.8359 49.2656 81.8359H55.125C56.5272 81.8359 57.6641 80.6991 57.6641 79.2969ZM50.8281 67.3828H46.7266V69.7266H50.8281V67.3828ZM57.6641 69.7266H53.5625V67.3828H57.6641V69.7266Z" stroke="#39BEB9" stroke-width="1.5625" stroke-miterlimit="10"/>
</g>
<defs>
<filter id="filter0_d" x="-2" y="0" width="108" height="108" filterUnits="userSpaceOnUse" color-interpolation-filters="sRGB">
<feFlood flood-opacity="0" result="BackgroundImageFix"/>
<feColorMatrix in="SourceAlpha" type="matrix" values="0 0 0 0 0 0 0 0 0 0 0 0 0 0 0 0 0 0 127 0"/>
<feOffset dy="4"/>
<feGaussianBlur stdDeviation="2"/>
<feColorMatrix type="matrix" values="0 0 0 0 0 0 0 0 0 0 0 0 0 0 0 0 0 0 0.25 0"/>
<feBlend mode="normal" in2="BackgroundImageFix" result="effect1_dropShadow"/>
<feBlend mode="normal" in="SourceGraphic" in2="effect1_dropShadow" result="shape"/>
</filter>
</defs>
</svg>
