<svg width="100" height="104" viewBox="0 0 100 104" fill="none" xmlns="http://www.w3.org/2000/svg">
<g filter="url(#filter0_d)">
<path d="M22.39 72.4196C20.9591 72.4619 19.6009 73.06 18.6037 74.087C17.6065 75.1141 17.0486 76.4891 17.0485 77.9207C17.0361 78.6512 17.1693 79.377 17.4403 80.0555C17.7114 80.734 18.1148 81.3516 18.627 81.8726C19.1393 82.3936 19.7501 82.8075 20.4239 83.0899C21.0978 83.3724 21.8211 83.5177 22.5517 83.5177C23.2824 83.5177 24.0057 83.3724 24.6795 83.0899C25.3533 82.8075 25.9642 82.3936 26.4764 81.8726C26.9887 81.3516 27.3921 80.734 27.6631 80.0555C27.9341 79.377 28.0673 78.6512 28.055 77.9207C28.0549 77.1844 27.9071 76.4556 27.6203 75.7775C27.3336 75.0993 26.9136 74.4856 26.3854 73.9726C25.8572 73.4597 25.2314 73.0579 24.5451 72.7911C23.8588 72.5243 23.126 72.3981 22.39 72.4196ZM22.4821 74.0094C22.9997 73.9997 23.5139 74.0942 23.9944 74.2869C24.4748 74.4797 24.9117 74.7671 25.2791 75.1318C25.6464 75.4966 25.9368 75.9314 26.133 76.4104C26.3292 76.8895 26.4272 77.403 26.4213 77.9207C26.4214 78.4286 26.3215 78.9316 26.1272 79.4009C25.9329 79.8702 25.6481 80.2967 25.289 80.656C24.9298 81.0152 24.5035 81.3002 24.0342 81.4946C23.5649 81.689 23.0619 81.789 22.554 81.789C22.046 81.789 21.5431 81.689 21.0738 81.4946C20.6045 81.3002 20.1781 81.0152 19.819 80.656C19.4599 80.2967 19.175 79.8702 18.9808 79.4009C18.7865 78.9316 18.6865 78.4286 18.6867 77.9207C18.6749 76.8998 19.0673 75.9157 19.7784 75.183C20.4894 74.4503 21.4613 74.0283 22.4821 74.0094Z" fill="#39BEB9"/>
<path d="M61.2501 4.20751C59.887 4.19681 58.5419 4.51862 57.3312 5.14515C56.1206 5.77167 55.0811 6.68406 54.3026 7.80306L11.0759 69.9385C9.78967 71.7882 8.96942 73.9213 8.68493 76.1562C8.40045 78.3911 8.66015 80.6617 9.44193 82.7747L5.71854 86.498C4.71457 87.529 4.15685 88.9138 4.16603 90.3529C4.17521 91.7919 4.75055 93.1694 5.76759 94.1875C6.78463 95.2056 8.1616 95.7825 9.60061 95.7932C11.0396 95.8038 12.425 95.2476 13.457 94.2447L16.9646 90.7369C19.1687 91.6993 21.5839 92.0771 23.9766 91.8336C26.3694 91.59 28.6589 90.7335 30.6239 89.3467L92.2839 45.8123C93.1836 45.1774 93.9494 44.3713 94.5375 43.4404C95.1257 42.5094 95.5246 41.4716 95.7116 40.3865C95.8986 39.3013 95.87 38.1899 95.6273 37.1158C95.3847 36.0417 94.9328 35.0259 94.2975 34.1265L93.3625 32.8123L90.9057 34.5502L89.795 32.9801C89.4874 32.5442 89.097 32.1731 88.646 31.8882C88.1949 31.6032 87.6922 31.4101 87.1665 31.3196C86.6407 31.2291 86.1023 31.243 85.582 31.3607C85.0616 31.4784 84.5696 31.6973 84.1339 32.0052L48.7336 57.0024C48.0892 57.4589 47.6523 58.1523 47.519 58.9306C47.3856 59.7089 47.5667 60.5084 48.0224 61.1533L49.7563 63.6063L35.8094 73.4502C35.1155 71.3929 33.952 69.5254 32.4113 67.9957C30.8705 66.466 28.9947 65.3162 26.9324 64.6371L36.8041 50.4546L39.2691 52.1643C39.9174 52.6143 40.7176 52.7888 41.4943 52.6495C42.271 52.5101 42.9607 52.0683 43.4121 51.4211L68.1616 15.8486C68.4665 15.4111 68.6822 14.9179 68.7964 14.397C68.9106 13.8761 68.921 13.3377 68.8272 12.8127C68.7334 12.2878 68.537 11.7866 68.2494 11.3376C67.9618 10.8885 67.5885 10.5005 67.1509 10.1957L65.5767 9.1009L67.2906 6.62801L65.9684 5.70912C64.5828 4.74474 62.9382 4.22123 61.2501 4.20703V4.20751ZM61.2112 5.84152C62.5699 5.84633 63.8956 6.26116 65.0146 7.03195L24.2086 65.6836C26.8759 66.0447 29.352 67.2676 31.2603 69.1657C33.1685 71.0639 34.4043 73.5335 34.7795 76.1987C35.1547 78.864 34.6487 81.5788 33.3387 83.93C32.0286 86.2812 29.9862 88.1401 27.5223 89.2235C25.0584 90.3068 22.308 90.5553 19.6898 89.9314C17.0716 89.3075 14.7289 87.8452 13.0184 85.7671C11.3079 83.6889 10.3233 81.1089 10.2144 78.4195C10.1055 75.7302 10.8783 73.0791 12.4152 70.8694L55.642 8.73781C56.266 7.83982 57.099 7.10711 58.0692 6.60254C59.0394 6.09797 60.1177 5.83682 61.2112 5.84152ZM64.6349 10.4437L66.2089 11.5423C66.7357 11.9097 67.0951 12.4713 67.2082 13.1035C67.3214 13.7357 67.179 14.3868 66.8123 14.9141L42.0667 50.4863C41.8633 50.7776 41.5528 50.9764 41.2031 51.0393C40.8535 51.1021 40.4932 51.024 40.201 50.8218L37.7401 49.1118L64.6349 10.4437ZM86.3723 32.9C86.7787 32.8821 87.1831 32.9669 87.5482 33.1463C87.9133 33.3258 88.2274 33.5941 88.4615 33.9268L89.5683 35.489L51.0916 62.6595L49.3578 60.2065C49.1545 59.9159 49.0744 59.5565 49.135 59.2069C49.1956 58.8574 49.392 58.5461 49.6814 58.3409L85.0818 33.3395C85.461 33.0726 85.9089 32.9203 86.3723 32.9003V32.9ZM92.972 35.0894C93.9969 36.5515 94.4004 38.3602 94.0941 40.1193C93.7878 41.8783 92.7968 43.4442 91.3381 44.4739L35.0354 84.221C36.4516 81.4145 36.8808 78.2125 36.2539 75.132L92.972 35.0894ZM10.146 84.3767C11.3519 86.6942 13.1829 88.6277 15.4315 89.9578L12.2953 93.086C11.5747 93.8027 10.5992 94.2043 9.58289 94.2029C8.56652 94.2015 7.59219 93.7972 6.87351 93.0785C6.15483 92.3599 5.75046 91.3856 5.74906 90.3692C5.74766 89.3528 6.14934 88.3774 6.86603 87.6567L10.146 84.3767Z" fill="#39BEB9"/>
</g>
<defs>
<filter id="filter0_d" x="-4" y="0" width="108" height="108" filterUnits="userSpaceOnUse" color-interpolation-filters="sRGB">
<feFlood flood-opacity="0" result="BackgroundImageFix"/>
<feColorMatrix in="SourceAlpha" type="matrix" values="0 0 0 0 0 0 0 0 0 0 0 0 0 0 0 0 0 0 127 0"/>
<feOffset dy="4"/>
<feGaussianBlur stdDeviation="2"/>
<feColorMatrix type="matrix" values="0 0 0 0 0 0 0 0 0 0 0 0 0 0 0 0 0 0 0.25 0"/>
<feBlend mode="normal" in2="BackgroundImageFix" result="effect1_dropShadow"/>
<feBlend mode="normal" in="SourceGraphic" in2="effect1_dropShadow" result="shape"/>
</filter>
</defs>
</svg>
