<svg width="104" height="104" viewBox="0 0 104 104" fill="none" xmlns="http://www.w3.org/2000/svg">
<g filter="url(#filter0_d)">
<path d="M96.8375 45.3462H89.9613V42.7256C89.9613 41.5175 88.9819 40.5381 87.7738 40.5381H25.6394C24.4312 40.5381 23.4519 41.5175 23.4519 42.7256V45.3462H16.5756C15.3675 45.3462 14.3881 46.3256 14.3881 47.5337V52.7775C14.3881 55.6381 15.9481 58.2656 18.4594 59.6343L23.4519 62.3562V79.4531C23.4519 83.7368 26.2919 87.3681 30.1869 88.5675V93.1087C30.1869 94.3168 31.1662 95.2962 32.3744 95.2962H41.0256C42.2337 95.2962 43.2131 94.3168 43.2131 93.1087V88.9887H70.2V93.1087C70.2 94.3168 71.1794 95.2962 72.3875 95.2962H81.0387C82.2469 95.2962 83.2262 94.3168 83.2262 93.1087V88.5675C87.1219 87.3681 89.9613 83.7368 89.9613 79.4531V62.3556L94.9531 59.6337C97.465 58.2656 99.025 55.6375 99.025 52.7768V47.5331C99.025 46.3256 98.045 45.3462 96.8375 45.3462ZM27.8269 44.9131H85.5863V47.5337V61.0568V76.4337H27.8269V61.0568V47.5337V44.9131ZM20.5531 55.7925C19.4487 55.1906 18.7631 54.035 18.7631 52.7775V49.7212H23.4519V57.3725L20.5531 55.7925ZM38.8381 90.9206H34.5619V88.9881H38.8381V90.9206ZM78.8506 90.9206H74.5744V88.9881H78.8506V90.9206ZM80.4256 84.6131H72.3875H41.0256H32.9869C30.1769 84.6131 27.8887 82.3543 27.8319 79.5581H85.5806C85.5238 82.355 83.235 84.6131 80.4256 84.6131ZM94.65 52.7775C94.65 54.0356 93.9637 55.1906 92.8594 55.7925L89.9613 57.3725V49.7212H94.65V52.7775Z" fill="#39BEB9"/>
<path d="M21.8231 11.4081L23.5744 8.7206L28.8156 13.4318V30.7256C28.8156 34.4931 31.8806 37.5587 35.6488 37.5587H77.765C81.5325 37.5587 84.5981 34.4937 84.5981 30.7256V12.965C84.5981 12.1018 83.8988 11.4025 83.0356 11.4025H31.2319L25.3231 6.09122C24.3281 5.19685 23.0438 4.70435 21.7056 4.70435H9.31126C6.92063 4.70435 4.97501 6.64935 4.97501 9.0406C4.97501 11.4318 6.92001 13.3768 9.31126 13.3768H18.1906C19.6613 13.3768 21.0194 12.6406 21.8231 11.4081ZM81.4725 26.7562H71.4331V22.2043H81.4725V26.7562ZM68.3081 26.7562H58.2688V22.2043H68.3081V26.7562ZM58.2688 29.8812H68.3081V34.4331H58.2688V29.8812ZM55.1438 34.4337H45.1044V29.8812H55.1438V34.4337ZM58.2688 19.0793V14.5275H68.3081V19.0793H58.2688ZM55.1438 19.0793H45.1044V14.5275H55.1438V19.0793ZM55.1438 22.2043V26.7562H45.1044V22.2043H55.1438ZM41.9794 26.7562H31.9406V22.2043H41.98V26.7562H41.9794ZM31.9406 30.7256V29.8812H41.98V34.4331H35.6488C33.6038 34.4337 31.9406 32.77 31.9406 30.7256ZM77.7644 34.4337H71.4331V29.8812H81.4725V30.7256C81.4725 32.77 79.8088 34.4337 77.7644 34.4337ZM81.4725 19.0793H71.4331V14.5275H81.4725V19.0793ZM41.9794 14.5275V19.0793H31.9406V14.5275H41.9794ZM8.10001 9.0406C8.10001 8.3731 8.64313 7.82935 9.31126 7.82935H20.425L19.205 9.70185C18.9813 10.0462 18.6013 10.2518 18.1906 10.2518H9.31126C8.64376 10.2518 8.10001 9.7081 8.10001 9.0406Z" fill="#39BEB9"/>
<path d="M56.5669 73.662C60.3788 73.662 63.48 70.5607 63.48 66.7482C63.48 63.4739 61.19 60.7307 58.1294 60.0195V59.0264C58.1294 58.1632 57.43 57.4639 56.5669 57.4639C55.7038 57.4639 55.0044 58.1632 55.0044 59.0264V60.0195C51.9431 60.7307 49.6531 63.4739 49.6531 66.7482C49.6531 70.5607 52.7544 73.662 56.5669 73.662ZM55.0044 63.3007V67.4732C55.0044 68.3364 55.7038 69.0357 56.5669 69.0357C57.43 69.0357 58.1294 68.3364 58.1294 67.4732V63.3007C59.44 63.8976 60.355 65.2164 60.355 66.7476C60.355 68.837 58.6556 70.5364 56.5669 70.5364C54.4775 70.5364 52.7781 68.837 52.7781 66.7476C52.7781 65.2164 53.6938 63.8976 55.0044 63.3007Z" fill="#39BEB9"/>
<path d="M56.7063 52.1614C57.755 52.1614 58.6075 51.3089 58.6075 50.2607C58.6075 49.2126 57.755 48.3601 56.7063 48.3601C55.6581 48.3601 54.8056 49.2126 54.8056 50.2607C54.8056 51.3089 55.6581 52.1614 56.7063 52.1614Z" fill="#39BEB9"/>
<path d="M49.6269 52.1614C50.6756 52.1614 51.5281 51.3089 51.5281 50.2607C51.5281 49.2126 50.6756 48.3601 49.6269 48.3601C48.5788 48.3601 47.7263 49.2126 47.7263 50.2607C47.7263 51.3089 48.5794 52.1614 49.6269 52.1614Z" fill="#39BEB9"/>
<path d="M63.7856 52.1614C64.8337 52.1614 65.6862 51.3089 65.6862 50.2607C65.6862 49.2126 64.8337 48.3601 63.7856 48.3601C62.7369 48.3601 61.8844 49.2126 61.8844 50.2607C61.8844 51.3089 62.7369 52.1614 63.7856 52.1614Z" fill="#39BEB9"/>
</g>
<defs>
<filter id="filter0_d" x="-2" y="0" width="108" height="108" filterUnits="userSpaceOnUse" color-interpolation-filters="sRGB">
<feFlood flood-opacity="0" result="BackgroundImageFix"/>
<feColorMatrix in="SourceAlpha" type="matrix" values="0 0 0 0 0 0 0 0 0 0 0 0 0 0 0 0 0 0 127 0"/>
<feOffset dy="4"/>
<feGaussianBlur stdDeviation="2"/>
<feColorMatrix type="matrix" values="0 0 0 0 0 0 0 0 0 0 0 0 0 0 0 0 0 0 0.25 0"/>
<feBlend mode="normal" in2="BackgroundImageFix" result="effect1_dropShadow"/>
<feBlend mode="normal" in="SourceGraphic" in2="effect1_dropShadow" result="shape"/>
</filter>
</defs>
</svg>
