<svg width="108" height="108" viewBox="0 0 108 108" fill="none" xmlns="http://www.w3.org/2000/svg">
<g filter="url(#filter0_d)">
<path d="M45.6667 31.6666V4.99996C45.6642 4.1167 45.3121 3.27035 44.6876 2.64579C44.063 2.02123 43.2167 1.66921 42.3334 1.66663H9.00008C8.11682 1.66921 7.27048 2.02123 6.64591 2.64579C6.02135 3.27035 5.66933 4.1167 5.66675 4.99996V95C5.66933 95.8832 6.02135 96.7296 6.64591 97.3541C7.27048 97.9787 8.11682 98.3307 9.00008 98.3333H42.3334C43.2167 98.3307 44.063 97.9787 44.6876 97.3541C45.3121 96.7296 45.6642 95.8832 45.6667 95V85" stroke="#39BEB9" stroke-width="3.33333" stroke-linecap="round" stroke-linejoin="round"/>
<path d="M35.6666 8.33337H15.6666C13.8256 8.33337 12.3333 9.82576 12.3333 11.6667V15C12.3333 16.841 13.8256 18.3334 15.6666 18.3334H35.6666C37.5075 18.3334 38.9999 16.841 38.9999 15V11.6667C38.9999 9.82576 37.5075 8.33337 35.6666 8.33337Z" stroke="#39BEB9" stroke-width="3.33333" stroke-linecap="round" stroke-linejoin="round"/>
<path d="M38.9999 31.6667V28.3333C38.9973 27.4501 38.6453 26.6037 38.0208 25.9792C37.3962 25.3546 36.5498 25.0026 35.6666 25H15.6666C14.7833 25.0026 13.937 25.3546 13.3124 25.9792C12.6879 26.6037 12.3358 27.4501 12.3333 28.3333V31.6667C12.3358 32.5499 12.6879 33.3963 13.3124 34.0208C13.937 34.6454 14.7833 34.9974 15.6666 35H28.9999" stroke="#39BEB9" stroke-width="3.33333" stroke-linecap="round" stroke-linejoin="round"/>
<path d="M29.0001 69.1C27.9868 69.6877 26.8366 69.9982 25.6652 70C24.4938 70.0018 23.3426 69.6949 22.3275 69.1102C21.3125 68.5255 20.4694 67.6837 19.8832 66.6696C19.2969 65.6554 18.9883 64.5047 18.9883 63.3333C18.9883 62.1619 19.2969 61.0112 19.8832 59.997C20.4694 58.9828 21.3125 58.141 22.3275 57.5564C23.3426 56.9717 24.4938 56.6648 25.6652 56.6666C26.8366 56.6684 27.9868 56.9789 29.0001 57.5666" stroke="#39BEB9" stroke-width="3.33333" stroke-linecap="round" stroke-linejoin="round"/>
<path d="M100.667 31.6666H30.6667C29.7462 31.6666 29 32.4128 29 33.3333V83.3333C29 84.2538 29.7462 85 30.6667 85H100.667C101.587 85 102.333 84.2538 102.333 83.3333V33.3333C102.333 32.4128 101.587 31.6666 100.667 31.6666Z" stroke="#39BEB9" stroke-width="3.33333" stroke-linecap="round" stroke-linejoin="round"/>
<path d="M29 75H102.333" stroke="#39BEB9" stroke-width="3.33333" stroke-linecap="round" stroke-linejoin="round"/>
<path d="M60.6667 91.6667V85H70.6667V91.6667" stroke="#39BEB9" stroke-width="3.33333" stroke-linecap="round" stroke-linejoin="round"/>
<path d="M60.7896 91.6666H70.5438L75.0534 95.3652C75.3177 95.5813 75.5096 95.8732 75.6032 96.2016C75.6969 96.53 75.6878 96.8792 75.5773 97.2023C75.4667 97.5253 75.26 97.8069 74.9848 98.009C74.7096 98.2112 74.3792 98.3244 74.0378 98.3333H57.2956C56.9543 98.3244 56.6238 98.2112 56.3486 98.009C56.0734 97.8069 55.8667 97.5253 55.7561 97.2022C55.6456 96.8792 55.6365 96.53 55.7302 96.2016C55.8238 95.8732 56.0157 95.5813 56.2801 95.3652L60.7896 91.6666Z" stroke="#39BEB9" stroke-width="3.33333" stroke-linecap="round" stroke-linejoin="round"/>
<path d="M24.0001 76.6666H29.0001V83.3333H24.0001C23.116 83.3333 22.2682 82.9821 21.6431 82.357C21.0179 81.7319 20.6667 80.884 20.6667 80C20.6667 79.1159 21.0179 78.2681 21.6431 77.6429C22.2682 77.0178 23.116 76.6666 24.0001 76.6666Z" stroke="#39BEB9" stroke-width="3.33333" stroke-linecap="round" stroke-linejoin="round"/>
<path d="M35.6667 40L37.3334 38.3334" stroke="#39BEB9" stroke-width="3.33333" stroke-linecap="round" stroke-linejoin="round"/>
<path d="M35.6667 48.3334L45.6667 38.3334" stroke="#39BEB9" stroke-width="3.33333" stroke-linecap="round" stroke-linejoin="round"/>
<path d="M29.0001 50H20.6667" stroke="#39BEB9" stroke-width="3.33333" stroke-linecap="round" stroke-linejoin="round"/>
<path d="M29.0001 43.3334H20.6667" stroke="#39BEB9" stroke-width="3.33333" stroke-linecap="round" stroke-linejoin="round"/>
</g>
<defs>
<filter id="filter0_d" x="0" y="0" width="108" height="108" filterUnits="userSpaceOnUse" color-interpolation-filters="sRGB">
<feFlood flood-opacity="0" result="BackgroundImageFix"/>
<feColorMatrix in="SourceAlpha" type="matrix" values="0 0 0 0 0 0 0 0 0 0 0 0 0 0 0 0 0 0 127 0"/>
<feOffset dy="4"/>
<feGaussianBlur stdDeviation="2"/>
<feColorMatrix type="matrix" values="0 0 0 0 0 0 0 0 0 0 0 0 0 0 0 0 0 0 0.25 0"/>
<feBlend mode="normal" in2="BackgroundImageFix" result="effect1_dropShadow"/>
<feBlend mode="normal" in="SourceGraphic" in2="effect1_dropShadow" result="shape"/>
</filter>
</defs>
</svg>
