<svg height='100px' width='100px'  fill="#000000" xmlns="http://www.w3.org/2000/svg" viewBox="0 0 60 60" x="0px" y="0px"><defs><style>.cls-1{fill:none;stroke:#000000;stroke-linecap:round;stroke-linejoin:round;stroke-width:2px;}</style></defs><title>Household Appliances - Outline - 044 - Desktop</title><path class="cls-1" d="M25,19V3a2.00588,2.00588,0,0,0-2-2H3A2.00588,2.00588,0,0,0,1,3V57a2.00588,2.00588,0,0,0,2,2H23a2.00588,2.00588,0,0,0,2-2V51"></path><rect class="cls-1" x="5" y="5" width="16" height="6" rx="2" ry="2"></rect><path class="cls-1" d="M21,19V17a2.00588,2.00588,0,0,0-2-2H7a2.00588,2.00588,0,0,0-2,2v2a2.00588,2.00588,0,0,0,2,2h8"></path><path class="cls-1" d="M15,41.46a4,4,0,1,1,0-6.92"></path><rect class="cls-1" x="15" y="19" width="44" height="32" rx="1" ry="1"></rect><line class="cls-1" x1="15" y1="45" x2="59" y2="45"></line><polyline class="cls-1" points="34 55 34 51 40 51 40 55"></polyline><path class="cls-1" d="M34.07374,55h5.85252L42.632,57.21913A1.004,1.004,0,0,1,42.02265,59H31.97735a1.004,1.004,0,0,1-.60934-1.78087Z"></path><path class="cls-1" d="M12,46h3a0,0,0,0,1,0,0v4a0,0,0,0,1,0,0H12a2,2,0,0,1-2-2v0A2,2,0,0,1,12,46Z"></path><line class="cls-1" x1="19" y1="24" x2="20" y2="23"></line><line class="cls-1" x1="19" y1="29" x2="25" y2="23"></line><line class="cls-1" x1="15" y1="30" x2="10" y2="30"></line><line class="cls-1" x1="15" y1="26" x2="10" y2="26"></line></svg>