<svg width="108" height="108" viewBox="0 0 108 108" fill="none" xmlns="http://www.w3.org/2000/svg">
<g clip-path="url(#clip0)" filter="url(#filter0_d)">
<path d="M102.333 40L84.0001 91.6667H24.0001L5.66675 40" stroke="#39BEB9" stroke-width="3.33333" stroke-linecap="round" stroke-linejoin="round"/>
<path d="M45.1334 33.3334H7.33341C6.89178 33.3347 6.46861 33.5107 6.15633 33.823C5.84405 34.1352 5.66804 34.5584 5.66675 35V40H45.6667" stroke="#39BEB9" stroke-width="3.33333" stroke-linecap="round" stroke-linejoin="round"/>
<path d="M55.6667 40H102.333V35C102.332 34.5584 102.156 34.1352 101.844 33.823C101.532 33.5107 101.108 33.3347 100.667 33.3334H61.8001" stroke="#39BEB9" stroke-width="3.33333" stroke-linecap="round" stroke-linejoin="round"/>
<path d="M84 91.6666V96.6666C84 97.1087 83.8244 97.5326 83.5118 97.8451C83.1993 98.1577 82.7754 98.3333 82.3333 98.3333H25.6667C25.2246 98.3333 24.8007 98.1577 24.4882 97.8451C24.1756 97.5326 24 97.1087 24 96.6666V91.6666H84Z" stroke="#39BEB9" stroke-width="3.33333" stroke-linecap="round" stroke-linejoin="round"/>
<path d="M95.6666 8.33329V33.3333H12.3333V8.33329C12.3384 6.56677 13.0425 4.87408 14.2916 3.62496C15.5407 2.37584 17.2334 1.6718 18.9999 1.66663H88.9999C90.7664 1.6718 92.4591 2.37584 93.7082 3.62496C94.9574 4.87408 95.6614 6.56677 95.6666 8.33329V8.33329Z" stroke="#39BEB9" stroke-width="3.33333" stroke-linecap="round" stroke-linejoin="round"/>
<path d="M19 33.3334V11.6667C19 10.7827 19.3512 9.93481 19.9763 9.30968C20.6014 8.68456 21.4493 8.33337 22.3333 8.33337H85.6667C86.5507 8.33337 87.3986 8.68456 88.0237 9.30968C88.6488 9.93481 89 10.7827 89 11.6667V33.3334" stroke="#39BEB9" stroke-width="3.33333" stroke-linecap="round" stroke-linejoin="round"/>
<path d="M45.6665 20.1833C44.0475 18.5237 41.9702 17.3846 39.7004 16.9117C37.4306 16.4388 35.0713 16.6535 32.9241 17.5285C30.777 18.4034 28.9396 19.8988 27.6468 21.8235C26.3539 23.7482 25.6645 26.0147 25.6665 28.3333C25.6619 30.0642 26.0494 31.7736 26.7999 33.3333" stroke="#39BEB9" stroke-width="3.33333" stroke-linecap="round" stroke-linejoin="round"/>
<path d="M37.3333 33.3334C40.0947 33.3334 42.3333 31.0948 42.3333 28.3334C42.3333 25.572 40.0947 23.3334 37.3333 23.3334C34.5718 23.3334 32.3333 25.572 32.3333 28.3334C32.3333 31.0948 34.5718 33.3334 37.3333 33.3334Z" stroke="#39BEB9" stroke-width="3.33333" stroke-linecap="round" stroke-linejoin="round"/>
<path d="M43.4667 33.3333C42.7127 31.7748 42.325 30.0646 42.3334 28.3333C42.3313 26.0147 43.0208 23.7482 44.3136 21.8235C45.6064 19.8988 47.4438 18.4034 49.591 17.5285C51.7381 16.6535 54.0974 16.4388 56.3673 16.9117C58.6371 17.3846 60.7143 18.5237 62.3334 20.1833" stroke="#39BEB9" stroke-width="3.33333" stroke-linecap="round" stroke-linejoin="round"/>
<path d="M54 33.3334C56.7614 33.3334 59 31.0948 59 28.3334C59 25.572 56.7614 23.3334 54 23.3334C51.2386 23.3334 49 25.572 49 28.3334C49 31.0948 51.2386 33.3334 54 33.3334Z" stroke="#39BEB9" stroke-width="3.33333" stroke-linecap="round" stroke-linejoin="round"/>
<path d="M81.2 33.3333C81.9505 31.7736 82.338 30.0642 82.3334 28.3333C82.3334 25.2391 81.1042 22.2716 78.9163 20.0837C76.7284 17.8958 73.7609 16.6666 70.6667 16.6666C67.5725 16.6666 64.6051 17.8958 62.4171 20.0837C60.2292 22.2716 59 25.2391 59 28.3333C58.9954 30.0642 59.3829 31.7736 60.1334 33.3333" stroke="#39BEB9" stroke-width="3.33333" stroke-linecap="round" stroke-linejoin="round"/>
<path d="M70.6667 33.3334C73.4282 33.3334 75.6667 31.0948 75.6667 28.3334C75.6667 25.572 73.4282 23.3334 70.6667 23.3334C67.9053 23.3334 65.6667 25.572 65.6667 28.3334C65.6667 31.0948 67.9053 33.3334 70.6667 33.3334Z" stroke="#39BEB9" stroke-width="3.33333" stroke-linecap="round" stroke-linejoin="round"/>
<path d="M45.6667 40H62.3334V43.3333C62.3334 44.2174 61.9822 45.0652 61.3571 45.6904C60.732 46.3155 59.8841 46.6667 59.0001 46.6667H49.0001C48.116 46.6667 47.2682 46.3155 46.6431 45.6904C46.0179 45.0652 45.6667 44.2174 45.6667 43.3333V40Z" stroke="#39BEB9" stroke-width="3.33333" stroke-linecap="round" stroke-linejoin="round"/>
<path d="M74.0001 53.3333C75.841 53.3333 77.3334 51.8409 77.3334 50C77.3334 48.159 75.841 46.6666 74.0001 46.6666C72.1591 46.6666 70.6667 48.159 70.6667 50C70.6667 51.8409 72.1591 53.3333 74.0001 53.3333Z" stroke="#39BEB9" stroke-width="3.33333" stroke-linecap="round" stroke-linejoin="round"/>
<path d="M89 40L83.0931 57.7208C82.8718 58.3845 82.4474 58.9617 81.8798 59.3708C81.3123 59.7799 80.6304 60 79.9308 60H28.0691C27.3695 60 26.6877 59.7799 26.1201 59.3708C25.5525 58.9617 25.1281 58.3845 24.9069 57.7208L19 40" stroke="#39BEB9" stroke-width="3.33333" stroke-linecap="round" stroke-linejoin="round"/>
</g>
<defs>
<filter id="filter0_d" x="0" y="0" width="108" height="108" filterUnits="userSpaceOnUse" color-interpolation-filters="sRGB">
<feFlood flood-opacity="0" result="BackgroundImageFix"/>
<feColorMatrix in="SourceAlpha" type="matrix" values="0 0 0 0 0 0 0 0 0 0 0 0 0 0 0 0 0 0 127 0"/>
<feOffset dy="4"/>
<feGaussianBlur stdDeviation="2"/>
<feColorMatrix type="matrix" values="0 0 0 0 0 0 0 0 0 0 0 0 0 0 0 0 0 0 0.25 0"/>
<feBlend mode="normal" in2="BackgroundImageFix" result="effect1_dropShadow"/>
<feBlend mode="normal" in="SourceGraphic" in2="effect1_dropShadow" result="shape"/>
</filter>
<clipPath id="clip0">
<rect width="100" height="100" fill="white" transform="translate(4)"/>
</clipPath>
</defs>
</svg>
