<svg width="100" height="104" viewBox="0 0 100 104" fill="none" xmlns="http://www.w3.org/2000/svg">
<g filter="url(#filter0_d)">
<path d="M33.8393 28.9035C30.6069 29.7196 28.2324 32.3786 27.7887 35.6766C27.6842 36.4579 28.2323 37.1778 29.0143 37.2823C29.0792 37.2908 29.1433 37.2949 29.2069 37.2949C29.9107 37.2949 30.5246 36.7745 30.6207 36.0561C30.9033 33.9551 32.4776 32.1945 34.5382 31.6741C35.3033 31.4802 35.7673 30.7045 35.574 29.9386C35.3802 29.1741 34.6039 28.7123 33.8393 28.9035Z" fill="#39BEB9"/>
<path d="M75.0496 8.49463H66.8186C66.029 8.49463 65.39 9.13363 65.39 9.9232V14.9776C65.39 15.7672 66.029 16.4062 66.8186 16.4062H75.0496C75.8392 16.4062 76.4782 15.7672 76.4782 14.9776V9.9232C76.4782 9.13363 75.8392 8.49463 75.0496 8.49463ZM73.621 13.5491H68.2472V11.3518H73.621V13.5491Z" fill="#39BEB9"/>
<path d="M60.0647 14.4698C61.18 14.4698 62.0841 13.5656 62.0841 12.4503C62.0841 11.335 61.18 10.4309 60.0647 10.4309C58.9494 10.4309 58.0453 11.335 58.0453 12.4503C58.0453 13.5656 58.9494 14.4698 60.0647 14.4698Z" fill="#39BEB9"/>
<path d="M52.4881 14.4698C53.6034 14.4698 54.5076 13.5656 54.5076 12.4503C54.5076 11.335 53.6034 10.4309 52.4881 10.4309C51.3728 10.4309 50.4687 11.335 50.4687 12.4503C50.4687 13.5656 51.3728 14.4698 52.4881 14.4698Z" fill="#39BEB9"/>
<path d="M93.441 47.1609L91.3441 40.5385C91.1559 39.9442 90.6047 39.5411 89.9826 39.5411H85.528C85.528 27.5855 85.528 17.7455 85.528 5.82736V5.71422C85.528 4.92464 84.889 4.28564 84.0994 4.28564H15.9033C15.1144 4.28564 14.4747 4.92464 14.4747 5.71422V5.82722C14.4747 17.7449 14.4747 27.5845 14.4747 39.5409H11.7027C11.1886 39.5409 10.7136 39.8172 10.4604 40.2649L6.70415 46.8874C6.62958 47.0188 6.58458 47.1598 6.55472 47.3035C6.54872 47.3322 6.54829 47.3596 6.54415 47.3886C6.51543 47.5864 6.51901 47.7874 6.57401 47.9809C6.57472 47.9838 6.57358 47.9869 6.57443 47.9896L17.6131 86.1551V90.2455C17.6131 93.2604 20.0664 95.7142 23.0826 95.7142H76.9442C79.959 95.7142 82.4129 93.2602 82.4129 90.2455V86.1575L93.4521 47.9896C93.4827 47.8828 93.482 47.2908 93.441 47.1609ZM17.3319 7.25579H82.6709V17.6436H17.3319V7.25579ZM17.3319 20.5008H82.6709V39.5409H77.1957C76.8386 34.5796 72.6977 30.6615 67.6594 30.6615C65.988 30.6615 64.4166 31.0901 63.0451 31.8474C60.9737 28.7044 57.4166 26.6188 53.3737 26.6188C50.7166 26.6188 48.2737 27.5188 46.3166 29.0189C43.9309 25.8046 40.1166 23.7188 35.8166 23.7188C28.6309 23.7188 22.7737 29.5616 22.7737 36.7474C22.7737 37.7145 22.9164 38.6386 23.1184 39.5411H17.332V20.5008H17.3319ZM26.0304 39.5409C25.7743 38.6534 25.6307 37.7162 25.6307 36.7472C25.6307 31.1331 30.2022 26.5758 35.8164 26.5758C43.0494 26.5758 47.339 33.5239 45.6024 39.5409H26.0304ZM48.7909 35.4281C49.6949 34.3059 51.7429 33.4336 53.1284 33.6705C53.9069 33.8002 54.6449 33.2826 54.7789 32.5056C54.9129 31.7286 54.3917 30.9892 53.614 30.8552C51.812 30.5446 49.6822 31.1618 48.0582 32.2848C47.966 32.0328 47.8807 31.7776 47.7736 31.5331C49.2879 30.2474 51.245 29.4761 53.3736 29.4761C62.781 29.4761 61.8382 39.3982 61.8922 39.5411H48.5146C48.7166 38.6386 48.8591 37.7145 48.8591 36.7474C48.8594 36.3012 48.8344 35.8618 48.7909 35.4281ZM64.9254 38.9209C65.5194 38.2736 66.677 37.7344 67.6583 37.7344C68.4479 37.7344 69.0869 37.0954 69.0869 36.3058C69.0869 35.5162 68.4479 34.8772 67.6583 34.8772C66.7003 34.8772 65.6321 35.1559 64.6603 35.6418C64.5649 35.2264 64.4553 34.8162 64.3164 34.4188C65.3022 33.8474 66.445 33.5188 67.6593 33.5188C71.1223 33.5188 73.951 36.1691 74.3034 39.5411H64.8757C64.8993 39.3354 64.9129 39.1295 64.9254 38.9209ZM12.5349 42.3981H88.9363L90.1292 46.1634H10.399L12.5349 42.3981ZM79.5557 90.2455C79.5557 91.6852 78.3839 92.8571 76.9442 92.8571H23.0824C21.642 92.8571 20.4701 91.6852 20.4701 90.2455V87.3814H79.5557V90.2455ZM79.91 84.5242H20.1157L9.84658 49.0206H90.1793L79.91 84.5242Z" fill="#39BEB9"/>
<path d="M39.7433 61.5276C39.9511 62.0871 40.4854 62.4582 41.0826 62.4582H58.9431C59.5403 62.4582 60.0739 62.0871 60.2824 61.5276L62.5954 55.3055C62.7587 54.8661 62.6959 54.3763 62.4294 53.9928C62.1616 53.6078 61.7236 53.3789 61.2561 53.3789H38.7703C38.3023 53.3789 37.8641 53.6078 37.597 53.9913C37.3306 54.3763 37.2684 54.8661 37.431 55.3055L39.7433 61.5276ZM59.2013 56.236L57.9499 59.601H42.0759L40.8251 56.236H59.2013Z" fill="#39BEB9"/>
</g>
<defs>
<filter id="filter0_d" x="-4" y="0" width="108" height="108" filterUnits="userSpaceOnUse" color-interpolation-filters="sRGB">
<feFlood flood-opacity="0" result="BackgroundImageFix"/>
<feColorMatrix in="SourceAlpha" type="matrix" values="0 0 0 0 0 0 0 0 0 0 0 0 0 0 0 0 0 0 127 0"/>
<feOffset dy="4"/>
<feGaussianBlur stdDeviation="2"/>
<feColorMatrix type="matrix" values="0 0 0 0 0 0 0 0 0 0 0 0 0 0 0 0 0 0 0.25 0"/>
<feBlend mode="normal" in2="BackgroundImageFix" result="effect1_dropShadow"/>
<feBlend mode="normal" in="SourceGraphic" in2="effect1_dropShadow" result="shape"/>
</filter>
</defs>
</svg>
