<svg width="812" height="823" viewBox="0 0 812 823" fill="none" xmlns="http://www.w3.org/2000/svg">
<circle cx="206" cy="617" r="206" fill="#4385F5"/>
<circle cx="263" cy="206" r="137" fill="#34A755"/>
<path d="M606 85.5C606 132.72 567.72 171 520.5 171C473.28 171 435 132.72 435 85.5C435 38.2797 473.28 0 520.5 0C567.72 0 606 38.2797 606 85.5Z" fill="#FBBE08"/>
<path d="M812 125.5C812 163.332 781.332 194 743.5 194C705.668 194 675 163.332 675 125.5C675 87.6685 705.668 57 743.5 57C781.332 57 812 87.6685 812 125.5Z" fill="#E94234"/>
</svg>
