<svg width="100" height="105" viewBox="0 0 100 105" fill="none" xmlns="http://www.w3.org/2000/svg">
<g filter="url(#filter0_d)">
<path d="M82.8125 3.125H17.1875C15.9443 3.125 14.752 3.61886 13.8729 4.49794C12.9939 5.37701 12.5 6.5693 12.5 7.8125V95.3125C12.5 95.7269 12.6646 96.1243 12.9576 96.4174C13.2507 96.7104 13.6481 96.875 14.0625 96.875H85.9375C86.3519 96.875 86.7493 96.7104 87.0424 96.4174C87.3354 96.1243 87.5 95.7269 87.5 95.3125V7.8125C87.5 6.5693 87.0061 5.37701 86.1271 4.49794C85.248 3.61886 84.0557 3.125 82.8125 3.125V3.125ZM40.625 6.25V12.5H21.875V6.25H40.625ZM21.875 93.75V90.625H34.375V93.75H21.875ZM84.375 93.75H37.5V87.5H18.75V93.75H15.625V84.375H84.375V93.75ZM84.375 81.25H15.625V21.875H84.375V81.25ZM73.4375 18.75H15.625V7.8125C15.625 7.3981 15.7896 7.00067 16.0826 6.70765C16.3757 6.41462 16.7731 6.25 17.1875 6.25H18.75V15.625H43.75V6.25H82.8125C83.2269 6.25 83.6243 6.41462 83.9174 6.70765C84.2104 7.00067 84.375 7.3981 84.375 7.8125V18.75H73.4375Z" fill="#39BEB9"/>
<path d="M50 78.125C55.2536 78.125 60.3892 76.5671 64.7573 73.6484C69.1255 70.7297 72.5301 66.5812 74.5405 61.7275C76.551 56.8739 77.077 51.533 76.0521 46.3804C75.0272 41.2278 72.4974 36.4948 68.7825 32.78C65.0677 29.0652 60.3347 26.5353 55.1821 25.5104C50.0295 24.4855 44.6886 25.0115 39.835 27.022C34.9813 29.0324 30.8328 32.437 27.9141 36.8052C24.9954 41.1734 23.4375 46.3089 23.4375 51.5625C23.4454 58.6049 26.2464 65.3566 31.2262 70.3364C36.2059 75.3161 42.9576 78.1172 50 78.125V78.125ZM50 28.125C54.6355 28.125 59.1669 29.4996 63.0212 32.0749C66.8755 34.6503 69.8795 38.3107 71.6534 42.5934C73.4274 46.876 73.8915 51.5885 72.9872 56.1349C72.0828 60.6814 69.8506 64.8575 66.5728 68.1353C63.295 71.4131 59.1189 73.6453 54.5724 74.5497C50.026 75.454 45.3135 74.9899 41.0309 73.2159C36.7482 71.442 33.0878 68.438 30.5124 64.5837C27.9371 60.7294 26.5625 56.198 26.5625 51.5625C26.5695 45.3487 29.0411 39.3913 33.4349 34.9975C37.8288 30.6036 43.7861 28.132 50 28.125V28.125Z" fill="#39BEB9"/>
<path d="M50 71.875C54.0174 71.875 57.9446 70.6837 61.285 68.4517C64.6254 66.2198 67.2289 63.0474 68.7663 59.3358C70.3037 55.6241 70.706 51.54 69.9222 47.5997C69.1384 43.6595 67.2039 40.0402 64.3631 37.1994C61.5223 34.3586 57.903 32.4241 53.9628 31.6403C50.0225 30.8565 45.9384 31.2588 42.2267 32.7962C38.5151 34.3336 35.3427 36.9371 33.1108 40.2775C30.8788 43.6179 29.6875 47.5451 29.6875 51.5625C29.6937 56.9478 31.8358 62.1108 35.6437 65.9188C39.4517 69.7268 44.6147 71.8688 50 71.875V71.875ZM50 34.375C53.3994 34.375 56.7224 35.383 59.5489 37.2716C62.3753 39.1602 64.5783 41.8445 65.8792 44.9851C67.1801 48.1257 67.5204 51.5816 66.8572 54.9156C66.1941 58.2497 64.5571 61.3122 62.1534 63.7159C59.7497 66.1196 56.6872 67.7566 53.3531 68.4198C50.0191 69.0829 46.5632 68.7426 43.4226 67.4417C40.282 66.1408 37.5977 63.9378 35.7091 61.1114C33.8205 58.2849 32.8125 54.9619 32.8125 51.5625C32.8179 47.0057 34.6304 42.6372 37.8525 39.415C41.0747 36.1929 45.4432 34.3804 50 34.375Z" fill="#39BEB9"/>
<path d="M50 65.625V62.5C47.1002 62.4967 44.3201 61.3433 42.2697 59.2928C40.2192 57.2424 39.0658 54.4623 39.0625 51.5625H35.9375C35.9416 55.2908 37.4245 58.8653 40.0609 61.5016C42.6972 64.138 46.2717 65.6209 50 65.625V65.625Z" fill="#39BEB9"/>
<path d="M60.9375 51.5625H64.0625C64.0584 47.8342 62.5755 44.2597 59.9391 41.6234C57.3028 38.987 53.7283 37.5041 50 37.5V40.625C52.8998 40.6283 55.6799 41.7817 57.7303 43.8322C59.7808 45.8826 60.9342 48.6627 60.9375 51.5625Z" fill="#39BEB9"/>
<path d="M79.6875 12.5C79.6875 11.2639 79.3209 10.0555 78.6342 9.02769C77.9474 7.99988 76.9713 7.1988 75.8293 6.72576C74.6872 6.25271 73.4306 6.12894 72.2182 6.37009C71.0058 6.61125 69.8922 7.20651 69.0181 8.08058C68.144 8.95466 67.5488 10.0683 67.3076 11.2807C67.0664 12.4931 67.1902 13.7497 67.6633 14.8918C68.1363 16.0338 68.9374 17.0099 69.9652 17.6967C70.993 18.3834 72.2014 18.75 73.4375 18.75C75.0951 18.75 76.6848 18.0915 77.8569 16.9194C79.029 15.7473 79.6875 14.1576 79.6875 12.5ZM73.4375 15.625C72.8883 15.6278 72.3481 15.4857 71.8712 15.2132C71.3944 14.9407 70.9978 14.5473 70.7214 14.0727C70.445 13.5981 70.2986 13.0591 70.2968 12.5099C70.2951 11.9606 70.4382 11.4207 70.7116 10.9444C70.985 10.468 71.3791 10.0722 71.8542 9.79667C72.3293 9.52117 72.8687 9.37574 73.4179 9.37504C73.9671 9.37435 74.5068 9.51841 74.9826 9.79271C75.4584 10.067 75.8535 10.4619 76.1281 10.9375H73.4375V14.0625H76.1281C75.856 14.536 75.4642 14.9296 74.9919 15.2039C74.5197 15.4781 73.9836 15.6234 73.4375 15.625Z" fill="#39BEB9"/>
<path d="M56.25 10.9375H53.125V14.0625H56.25V10.9375Z" fill="#39BEB9"/>
<path d="M50 10.9375H46.875V14.0625H50V10.9375Z" fill="#39BEB9"/>
<path d="M62.5 10.9375H59.375V14.0625H62.5V10.9375Z" fill="#39BEB9"/>
<path d="M45.3125 42.1875H42.1875V45.3125H45.3125V42.1875Z" fill="#39BEB9"/>
<path d="M54.6875 51.5625H51.5625V54.6875H54.6875V51.5625Z" fill="#39BEB9"/>
<path d="M28.125 25H18.75V34.375H28.125V25ZM25 31.25H21.875V28.125H25V31.25Z" fill="#39BEB9"/>
<path d="M78.125 35.9375H81.25V25H71.875V28.125H78.125V35.9375Z" fill="#39BEB9"/>
<path d="M70.3125 75H67.1875V78.125H70.3125V75Z" fill="#39BEB9"/>
<path d="M78.125 75H73.4375V78.125H81.25V64.0625H78.125V75Z" fill="#39BEB9"/>
<path d="M43.75 87.5H40.625V90.625H43.75V87.5Z" fill="#39BEB9"/>
<path d="M50 87.5H46.875V90.625H50V87.5Z" fill="#39BEB9"/>
</g>
<defs>
<filter id="filter0_d" x="-4" y="0" width="108" height="108" filterUnits="userSpaceOnUse" color-interpolation-filters="sRGB">
<feFlood flood-opacity="0" result="BackgroundImageFix"/>
<feColorMatrix in="SourceAlpha" type="matrix" values="0 0 0 0 0 0 0 0 0 0 0 0 0 0 0 0 0 0 127 0"/>
<feOffset dy="4"/>
<feGaussianBlur stdDeviation="2"/>
<feColorMatrix type="matrix" values="0 0 0 0 0 0 0 0 0 0 0 0 0 0 0 0 0 0 0.25 0"/>
<feBlend mode="normal" in2="BackgroundImageFix" result="effect1_dropShadow"/>
<feBlend mode="normal" in="SourceGraphic" in2="effect1_dropShadow" result="shape"/>
</filter>
</defs>
</svg>
