<svg width="100" height="101" viewBox="0 0 100 101" fill="none" xmlns="http://www.w3.org/2000/svg">
<g filter="url(#filter0_d)">
<path d="M67.0333 79.3707C66.3666 75.4808 65.1646 73.3515 64.2 71.6404C63.3676 70.1636 62.7656 69.0969 62.5959 67.2121C62.4323 65.4161 62.7878 64.605 63.3283 63.3778C63.9949 61.8656 64.8222 59.9838 64.6959 56.1434C64.6262 53.7909 63.3262 51.2525 60.6373 51.2525C60.4111 51.2525 60.1767 51.2717 59.9414 51.3101C59.6838 51.3565 57.7091 51.8 57.4808 54.8091C57.4404 55.3353 56.8121 57.302 55.3757 57.302C54.901 57.302 54.3171 57.103 53.6818 56.7363L53.2283 24.0212C53.2495 22.904 53.6777 21.7333 54.8343 21.707C56.5919 21.6656 57.1798 21.1343 57.3889 20.7949C58.506 18.8454 56.8666 15.4707 55.3131 12.7485L55.2404 12.6182C55.1535 12.4646 55.1141 12.3596 55.098 12.2959C57.0242 11.5404 58.7222 10.4646 58.3626 7.86866C58.0848 5.82422 55.4959 4.55957 53.2565 4.55957C50.6676 4.55957 49.6969 7.17573 49.6606 7.27472C49.6606 7.27472 45.5404 18.1646 44.9434 19.7808C44.504 20.9697 44.3192 21.798 44.6707 22.5141C44.899 22.9788 45.3182 23.3 45.9505 23.499C46.207 23.5788 46.2788 23.7727 46.2929 23.9313L45.9101 51.5828L45.6474 52.1192C45.6464 52.1192 45.202 52.9242 44.5818 52.9242C44.3272 52.9242 44.005 52.8111 43.6485 52.5909C41.6909 51.3889 42.007 49.3879 42.0101 49.3687L42.0293 49.2586L42.0343 49.1464C42.0505 48.7232 42.0303 47.2677 41.0979 46.3C40.603 45.7848 39.9303 45.501 39.206 45.501C38.6141 45.501 38.0101 45.6798 37.3606 46.0474C33.9343 47.9788 33.8848 55.7262 35.7929 59.303C36.6606 60.9262 38.4636 65.1495 36.4767 69.2656L36.3858 69.4555C34.2515 73.8808 29.2535 84.2383 36.704 89.5525C40.5788 92.3181 46.2262 92.9 50.2808 92.9C54.5212 92.9 58.2868 92.2656 59.607 91.8171C63.9798 90.3242 68.2232 86.2737 67.0333 79.3707ZM46.2171 21.7555C46.1929 21.6778 46.1838 21.3899 46.5586 20.3747C47.1545 18.7596 51.2707 7.88179 51.2747 7.8727C51.298 7.80806 51.8848 6.27573 53.2596 6.27573C55.007 6.27573 56.5505 7.27371 56.6646 8.103C56.799 9.07775 56.7141 9.83735 54.402 10.7262C54.2919 10.7636 53.7252 10.9838 53.4767 11.6323C53.2717 12.1707 53.3636 12.7889 53.7495 13.4666L53.8252 13.6C56.1434 17.6626 56.1949 19.2313 55.9687 19.8091C55.8384 19.8656 55.501 19.9737 54.7969 19.9909C52.9 20.0353 51.6171 21.5848 51.5283 23.8636H51.5121L51.5141 24.0444C51.5141 24.0656 51.5101 24.0858 51.5101 24.1081H51.5151V24.1586H48.0141C48.0202 24.0788 48.0222 23.9919 48.0161 23.8959V23.8636H48.0121C47.9687 23.1959 47.6202 22.2192 46.4676 21.8586C46.2777 21.799 46.2192 21.7565 46.2171 21.7555ZM47.6081 53.2949L47.6414 50.8707L47.9878 25.8767H51.5394L51.9454 55.2777L51.9788 57.6666L52.0656 63.9151H47.4616L47.6081 53.2949ZM59.0586 90.1879C57.9151 90.5778 54.3656 91.1767 50.2858 91.1767C45.9404 91.1767 40.9919 90.4949 37.706 88.1485C31.3353 83.605 36.0959 74.0151 38.0272 70.008C39.9606 66.001 38.9949 61.6414 37.3121 58.4889C35.6303 55.3394 35.9878 48.7889 38.2091 47.5373C38.6161 47.307 38.9454 47.2131 39.2101 47.2131C40.3929 47.2141 40.3222 49.0778 40.3222 49.0778C40.3222 49.0778 39.7848 52.2272 42.7545 54.0545C43.4464 54.4788 44.0565 54.6424 44.5858 54.6424C45.0929 54.6424 45.5171 54.4848 45.8757 54.2717L45.7182 65.6313H53.803L53.706 58.6515C54.3141 58.8959 54.8727 59.0171 55.3727 59.0171C57.906 59.0171 59.0868 56.2919 59.1899 54.9384C59.3242 53.1666 60.2121 53.007 60.2121 53.007C60.3596 52.9828 60.5 52.9717 60.6343 52.9717C62.8808 52.9717 62.9757 56.201 62.9757 56.201C63.1929 62.7525 60.4525 62.6424 60.8808 67.3676C61.3111 72.0939 64.1575 72.7909 65.3373 79.6636C66.5242 86.5363 61.4232 89.3818 59.0586 90.1879Z" fill="#39BEB9"/>
<path d="M45.7222 72.1192C45.9442 72.1192 46.1242 71.9392 46.1242 71.7172C46.1242 71.4952 45.9442 71.3152 45.7222 71.3152C45.5002 71.3152 45.3202 71.4952 45.3202 71.7172C45.3202 71.9392 45.5002 72.1192 45.7222 72.1192Z" fill="#39BEB9"/>
<path d="M45.7222 77.7072C45.9448 77.7072 46.1253 77.5267 46.1253 77.3041C46.1253 77.0816 45.9448 76.9011 45.7222 76.9011C45.4997 76.9011 45.3192 77.0816 45.3192 77.3041C45.3192 77.5267 45.4997 77.7072 45.7222 77.7072Z" fill="#39BEB9"/>
<path d="M54.9707 69.9656C51.498 69.9656 48.0262 69.9656 44.5535 69.9656C44.2788 69.9656 44.0485 70.1969 44.0485 70.4706C44.0485 71.3019 44.0485 72.1333 44.0485 72.9646C44.0485 73.2393 44.2788 73.4696 44.5535 73.4696C48.0262 73.4696 51.498 73.4696 54.9707 73.4696C55.1101 73.4696 55.2121 73.4181 55.2909 73.3454C55.303 73.3373 55.3141 73.3292 55.3242 73.3211C55.3353 73.31 55.3424 73.2989 55.3495 73.2888C55.4212 73.208 55.4737 73.105 55.4737 72.9676C55.4737 72.1363 55.4737 71.305 55.4737 70.4737C55.4757 70.1949 55.2454 69.9656 54.9707 69.9656ZM45.0596 72.4585C45.0596 71.9646 45.0596 71.4696 45.0596 70.9747C46.3161 70.9747 46.204 70.9747 47.4606 70.9747L48.5687 72.4585C47.3121 72.4585 46.3161 72.4585 45.0596 72.4585ZM49.7626 72.1191C49.5394 72.1191 49.3596 71.9393 49.3596 71.7171C49.3596 71.4949 49.5404 71.3151 49.7626 71.3151C49.9848 71.3151 50.1656 71.4949 50.1656 71.7171C50.1656 71.9393 49.9858 72.1191 49.7626 72.1191ZM53.804 72.1191C53.5798 72.1191 53.401 71.9393 53.401 71.7171C53.401 71.4949 53.5818 71.3151 53.804 71.3151C54.0252 71.3151 54.206 71.4949 54.206 71.7171C54.206 71.9393 54.0262 72.1191 53.804 72.1191Z" fill="#39BEB9"/>
<path d="M54.9707 75.5525C51.498 75.5525 48.0262 75.5525 44.5535 75.5525C44.2788 75.5525 44.0485 75.7838 44.0485 76.0575C44.0485 76.8889 44.0485 77.7202 44.0485 78.5515C44.0485 78.6919 44.101 78.7929 44.1727 78.8727C44.1818 78.8848 44.1889 78.8939 44.198 78.906C44.2091 78.9161 44.2202 78.9232 44.2313 78.9313C44.3111 79.002 44.4141 79.0555 44.5525 79.0555C48.0252 79.0555 51.4969 79.0555 54.9697 79.0555C55.2434 79.0555 55.4747 78.8242 55.4747 78.5505C55.4747 77.7181 55.4747 76.8878 55.4747 76.0555C55.4757 75.7808 55.2454 75.5525 54.9707 75.5525ZM45.0596 78.0464C45.0596 77.5535 45.0596 77.0575 45.0596 76.5626C45.7101 76.5626 46.8111 76.5626 47.4606 76.5626L48.5687 78.0464C47.9182 78.0464 45.7091 78.0464 45.0596 78.0464ZM49.7626 77.7091C49.5394 77.7091 49.3596 77.5272 49.3596 77.306C49.3596 77.0848 49.5404 76.903 49.7626 76.903C49.9848 76.903 50.1656 77.0848 50.1656 77.306C50.1656 77.5272 49.9858 77.7091 49.7626 77.7091ZM53.804 77.7091C53.5798 77.7091 53.401 77.5272 53.401 77.306C53.401 77.0848 53.5818 76.903 53.804 76.903C54.0252 76.903 54.206 77.0848 54.206 77.306C54.206 77.5272 54.0262 77.7091 53.804 77.7091Z" fill="#39BEB9"/>
</g>
<defs>
<filter id="filter0_d" x="-4" y="0" width="108" height="108" filterUnits="userSpaceOnUse" color-interpolation-filters="sRGB">
<feFlood flood-opacity="0" result="BackgroundImageFix"/>
<feColorMatrix in="SourceAlpha" type="matrix" values="0 0 0 0 0 0 0 0 0 0 0 0 0 0 0 0 0 0 127 0"/>
<feOffset dy="4"/>
<feGaussianBlur stdDeviation="2"/>
<feColorMatrix type="matrix" values="0 0 0 0 0 0 0 0 0 0 0 0 0 0 0 0 0 0 0.25 0"/>
<feBlend mode="normal" in2="BackgroundImageFix" result="effect1_dropShadow"/>
<feBlend mode="normal" in="SourceGraphic" in2="effect1_dropShadow" result="shape"/>
</filter>
</defs>
</svg>
