<svg width="100" height="108" viewBox="0 0 100 108" fill="none" xmlns="http://www.w3.org/2000/svg">
<g clip-path="url(#clip0)" filter="url(#filter0_d)">
<path d="M83.9129 0H74.1935V6.45161H80.6451V92.371C80.6451 93 80.1742 93.5484 79.5419 93.5484H65.7C65.0709 93.5484 64.5161 93 64.5161 92.371V64.5161H58.0645V92.371C58.0645 93 57.5935 93.5484 56.9613 93.5484H43.1193C42.4903 93.5484 41.9355 93 41.9355 92.371V64.5161H35.4838V92.371C35.4838 93 35.0129 93.5484 34.3806 93.5484H20.5387C19.9097 93.5484 19.3548 93 19.3548 92.371V6.45161H25.8064V0H16.1709C14.3871 0 12.9032 1.5129 12.9032 3.29355V92.3677C12.9032 96.5613 16.3516 100 20.5387 100H34.3806C36.0096 100 37.5129 99.4742 38.7484 98.5935C39.9871 99.4742 41.4903 100 43.1193 100H56.9613C58.5903 100 60.0935 99.4742 61.329 98.5935C62.5677 99.4742 64.0709 100 65.7 100H79.5419C83.729 100 87.0967 96.5613 87.0967 92.371V3.29355C87.0967 1.5129 85.6935 0 83.9129 0Z" fill="#39BEB9"/>
<path d="M41.9355 58.0645C43.7161 58.0645 45.1613 56.6226 45.1613 54.8387V0H29.0322V54.8387C29.0322 56.6226 30.4774 58.0645 32.258 58.0645H41.9355Z" fill="#39BEB9"/>
<path d="M67.7419 58.0645C69.5258 58.0645 70.9677 56.6226 70.9677 54.8387V0H54.8387V54.8387C54.8387 56.6226 56.2806 58.0645 58.0645 58.0645H67.7419Z" fill="#39BEB9"/>
</g>
<defs>
<filter id="filter0_d" x="-4" y="0" width="108" height="108" filterUnits="userSpaceOnUse" color-interpolation-filters="sRGB">
<feFlood flood-opacity="0" result="BackgroundImageFix"/>
<feColorMatrix in="SourceAlpha" type="matrix" values="0 0 0 0 0 0 0 0 0 0 0 0 0 0 0 0 0 0 127 0"/>
<feOffset dy="4"/>
<feGaussianBlur stdDeviation="2"/>
<feColorMatrix type="matrix" values="0 0 0 0 0 0 0 0 0 0 0 0 0 0 0 0 0 0 0.25 0"/>
<feBlend mode="normal" in2="BackgroundImageFix" result="effect1_dropShadow"/>
<feBlend mode="normal" in="SourceGraphic" in2="effect1_dropShadow" result="shape"/>
</filter>
<clipPath id="clip0">
<rect width="100" height="100" fill="white"/>
</clipPath>
</defs>
</svg>
