<svg width="108" height="108" viewBox="0 0 108 108" fill="none" xmlns="http://www.w3.org/2000/svg">
<g clip-path="url(#clip0)" filter="url(#filter0_d)">
<path d="M102.438 11.7188H96.1875C95.7731 11.7188 95.3757 11.8834 95.0826 12.1764C94.7896 12.4694 94.625 12.8668 94.625 13.2812V15.625H88.375V9.375H91.5C91.9144 9.375 92.3118 9.21038 92.6049 8.91735C92.8979 8.62433 93.0625 8.2269 93.0625 7.8125V1.5625C93.0625 1.1481 92.8979 0.750671 92.6049 0.457646C92.3118 0.16462 91.9144 0 91.5 0L53.2188 0C52.8043 0 52.4069 0.16462 52.1139 0.457646C51.8209 0.750671 51.6562 1.1481 51.6562 1.5625V7.8125C51.6562 8.2269 51.8209 8.62433 52.1139 8.91735C52.4069 9.21038 52.8043 9.375 53.2188 9.375H75.875V15.625H35.25C33.178 15.625 31.1909 16.4481 29.7257 17.9132C28.2606 19.3784 27.4375 21.3655 27.4375 23.4375V35.9375C27.4375 36.3519 27.6021 36.7493 27.8951 37.0424C28.1882 37.3354 28.5856 37.5 29 37.5H44.625C45.0394 37.5 45.4368 37.3354 45.7299 37.0424C46.0229 36.7493 46.1875 36.3519 46.1875 35.9375V31.25H94.625V33.5938C94.625 34.0082 94.7896 34.4056 95.0826 34.6986C95.3757 34.9916 95.7731 35.1562 96.1875 35.1562H102.438C102.852 35.1562 103.249 34.9916 103.542 34.6986C103.835 34.4056 104 34.0082 104 33.5938V13.2812C104 12.8668 103.835 12.4694 103.542 12.1764C103.249 11.8834 102.852 11.7188 102.438 11.7188ZM54.7812 3.125H89.9375V6.25H54.7812V3.125ZM79 9.375H85.25V15.625H79V9.375ZM100.875 32.0312H97.75V29.6875C97.75 29.2731 97.5854 28.8757 97.2924 28.5826C96.9993 28.2896 96.6019 28.125 96.1875 28.125H44.625C44.2106 28.125 43.8132 28.2896 43.5201 28.5826C43.2271 28.8757 43.0625 29.2731 43.0625 29.6875V34.375H30.5625V23.4375C30.5625 22.1943 31.0564 21.002 31.9354 20.1229C32.8145 19.2439 34.0068 18.75 35.25 18.75H96.1875C96.6019 18.75 96.9993 18.5854 97.2924 18.2924C97.5854 17.9993 97.75 17.6019 97.75 17.1875V14.8438H100.875V32.0312Z" fill="#39BEB9"/>
<path d="M29 82.8125C29.4144 82.8125 29.8118 82.6479 30.1049 82.3549C30.3979 82.0618 30.5625 81.6644 30.5625 81.25V43.75C30.5625 43.3356 30.3979 42.9382 30.1049 42.6451C29.8118 42.3521 29.4144 42.1875 29 42.1875C28.5856 42.1875 28.1882 42.3521 27.8951 42.6451C27.6021 42.9382 27.4375 43.3356 27.4375 43.75V81.25C27.4375 81.6644 27.6021 82.0618 27.8951 82.3549C28.1882 82.6479 28.5856 82.8125 29 82.8125Z" fill="#39BEB9"/>
<path d="M38.375 81.25V43.75C38.375 43.3356 38.2104 42.9382 37.9174 42.6451C37.6243 42.3521 37.2269 42.1875 36.8125 42.1875C36.3981 42.1875 36.0007 42.3521 35.7076 42.6451C35.4146 42.9382 35.25 43.3356 35.25 43.75V81.25C35.25 81.6644 35.4146 82.0618 35.7076 82.3549C36.0007 82.6479 36.3981 82.8125 36.8125 82.8125C37.2269 82.8125 37.6243 82.6479 37.9174 82.3549C38.2104 82.0618 38.375 81.6644 38.375 81.25Z" fill="#39BEB9"/>
<path d="M46.1875 81.25V43.75C46.1875 43.3356 46.0229 42.9382 45.7299 42.6451C45.4368 42.3521 45.0394 42.1875 44.625 42.1875C44.2106 42.1875 43.8132 42.3521 43.5201 42.6451C43.2271 42.9382 43.0625 43.3356 43.0625 43.75V81.25C43.0625 81.6644 43.2271 82.0618 43.5201 82.3549C43.8132 82.6479 44.2106 82.8125 44.625 82.8125C45.0394 82.8125 45.4368 82.6479 45.7299 82.3549C46.0229 82.0618 46.1875 81.6644 46.1875 81.25Z" fill="#39BEB9"/>
<path d="M60.9609 59.4531C60.6913 57.4862 59.7196 55.6832 58.2249 54.3766C56.7302 53.07 54.8134 52.348 52.8281 52.3438C52.4137 52.3438 52.0163 52.5084 51.7233 52.8014C51.4302 53.0944 51.2656 53.4918 51.2656 53.9062C51.2656 54.3207 51.4302 54.7181 51.7233 55.0111C52.0163 55.3041 52.4137 55.4688 52.8281 55.4688C54.1743 55.4708 55.4647 56.0065 56.4166 56.9584C57.3685 57.9103 57.9042 59.2007 57.9062 60.5469C57.9062 60.6172 57.9062 60.6797 57.9062 60.75V60.8516C57.8923 61.0691 57.924 61.2871 57.9994 61.4916C58.0747 61.6961 58.192 61.8826 58.3437 62.0391C58.491 62.1872 58.6663 62.3043 58.8596 62.3834C59.0528 62.4626 59.2599 62.5022 59.4687 62.5H59.6953C61.2013 62.501 62.6639 63.0038 63.8522 63.929C65.0404 64.8543 65.8864 66.1491 66.2565 67.6088C66.6266 69.0686 66.4997 70.6101 65.8958 71.9897C65.2919 73.3692 64.2454 74.5082 62.9219 75.2266C62.5599 75.4261 62.2917 75.7609 62.176 76.1577C62.0604 76.5545 62.1066 76.981 62.3047 77.3438C63.2195 79.1687 63.5467 81.2322 63.2414 83.2506C62.936 85.2691 62.0131 87.1435 60.5995 88.6162C59.1858 90.0889 57.3508 91.0878 55.3465 91.4754C53.3423 91.8631 51.2671 91.6206 49.4062 90.7812C49.0741 90.6292 48.6992 90.5983 48.3467 90.6939C47.9942 90.7895 47.6863 91.0056 47.4766 91.3047C46.2799 93.0243 44.6851 94.4289 42.8283 95.399C40.9714 96.369 38.9075 96.8756 36.8125 96.8756C34.7175 96.8756 32.6536 96.369 30.7967 95.399C28.9399 94.4289 27.3451 93.0243 26.1484 91.3047C25.9387 91.0056 25.6308 90.7895 25.2783 90.6939C24.9257 90.5983 24.5509 90.6292 24.2187 90.7812C22.3579 91.6206 20.2827 91.8631 18.2785 91.4754C16.2742 91.0878 14.4392 90.0889 13.0255 88.6162C11.6119 87.1435 10.689 85.2691 10.3836 83.2506C10.0783 81.2322 10.4055 79.1687 11.3203 77.3438C11.5037 76.9811 11.5386 76.5612 11.4176 76.1732C11.2965 75.7852 11.029 75.4596 10.6719 75.2656C9.32371 74.5557 8.25429 73.4119 7.63643 72.0191C7.01856 70.6263 6.88835 69.0659 7.26681 67.59C7.64528 66.114 8.51032 64.8088 9.72216 63.8852C10.934 62.9616 12.4219 62.4736 13.9453 62.5H14.1562C14.374 62.5067 14.5908 62.4677 14.7926 62.3856C14.9944 62.3036 15.1768 62.1802 15.3281 62.0234C15.4695 61.8649 15.577 61.6792 15.6442 61.4777C15.7113 61.2763 15.7367 61.0632 15.7187 60.8516V60.75C15.7187 60.6797 15.7187 60.6172 15.7187 60.5469C15.7208 59.2007 16.2565 57.9103 17.2084 56.9584C18.1603 56.0065 19.4507 55.4708 20.7969 55.4688C21.2113 55.4688 21.6087 55.3041 21.9017 55.0111C22.1948 54.7181 22.3594 54.3207 22.3594 53.9062C22.3594 53.4918 22.1948 53.0944 21.9017 52.8014C21.6087 52.5084 21.2113 52.3438 20.7969 52.3438C18.8116 52.348 16.8948 53.07 15.4001 54.3766C13.9054 55.6832 12.9337 57.4862 12.6641 59.4531C10.7083 59.7014 8.87124 60.528 7.38829 61.827C5.90534 63.126 4.84407 64.8383 4.34049 66.7443C3.83691 68.6504 3.91396 70.6634 4.56178 72.5254C5.20959 74.3873 6.39865 76.0135 7.97656 77.1953C7.41612 78.6567 7.12753 80.2083 7.125 81.7734C7.12809 83.8395 7.62266 85.8751 8.56787 87.7122C9.51307 89.5493 10.8818 91.1352 12.561 92.3389C14.2401 93.5425 16.1816 94.3294 18.2249 94.6346C20.2683 94.9397 22.3549 94.7543 24.3125 94.0938C25.8242 95.9395 27.7269 97.4266 29.8831 98.4477C32.0394 99.4688 34.3954 99.9985 36.7812 99.9985C39.1671 99.9985 41.5231 99.4688 43.6794 98.4477C45.8356 97.4266 47.7383 95.9395 49.25 94.0938C51.2076 94.7543 53.2942 94.9397 55.3376 94.6346C57.3809 94.3294 59.3224 93.5425 61.0015 92.3389C62.6807 91.1352 64.0494 89.5493 64.9946 87.7122C65.9398 85.8751 66.4344 83.8395 66.4375 81.7734C66.44 80.2092 66.1567 78.6577 65.6016 77.1953C67.1795 76.0135 68.3685 74.3873 69.0163 72.5254C69.6642 70.6634 69.7412 68.6504 69.2376 66.7443C68.7341 64.8383 67.6728 63.126 66.1898 61.827C64.7069 60.528 62.8698 59.7014 60.9141 59.4531H60.9609Z" fill="#39BEB9"/>
</g>
<defs>
<filter id="filter0_d" x="0" y="0" width="108" height="108" filterUnits="userSpaceOnUse" color-interpolation-filters="sRGB">
<feFlood flood-opacity="0" result="BackgroundImageFix"/>
<feColorMatrix in="SourceAlpha" type="matrix" values="0 0 0 0 0 0 0 0 0 0 0 0 0 0 0 0 0 0 127 0"/>
<feOffset dy="4"/>
<feGaussianBlur stdDeviation="2"/>
<feColorMatrix type="matrix" values="0 0 0 0 0 0 0 0 0 0 0 0 0 0 0 0 0 0 0.25 0"/>
<feBlend mode="normal" in2="BackgroundImageFix" result="effect1_dropShadow"/>
<feBlend mode="normal" in="SourceGraphic" in2="effect1_dropShadow" result="shape"/>
</filter>
<clipPath id="clip0">
<rect width="100" height="100" fill="white" transform="translate(4)"/>
</clipPath>
</defs>
</svg>
