<svg width="100" height="100" viewBox="0 0 100 100" fill="none" xmlns="http://www.w3.org/2000/svg">
<g filter="url(#filter0_d)">
<path d="M79.6875 28.125C79.6875 28.9875 78.9875 29.6875 78.125 29.6875H68.75C67.8875 29.6875 67.1875 28.9875 67.1875 28.125C67.1875 27.2625 67.8875 26.5625 68.75 26.5625H78.125C78.9875 26.5625 79.6875 27.2625 79.6875 28.125ZM62.5 26.5625C61.6375 26.5625 60.9375 27.2625 60.9375 28.125C60.9375 28.9875 61.6375 29.6875 62.5 29.6875C63.3625 29.6875 64.0625 28.9875 64.0625 28.125C64.0625 27.2625 63.3625 26.5625 62.5 26.5625ZM37.5 51.5625C38.3625 51.5625 39.0625 50.8625 39.0625 50C39.0625 49.1375 38.3625 48.4375 37.5 48.4375C36.6375 48.4375 35.9375 49.1375 35.9375 50C35.9375 50.8625 36.6375 51.5625 37.5 51.5625ZM64.0625 73.4375C64.925 73.4375 65.625 72.7375 65.625 71.875C65.625 71.0125 64.925 70.3125 64.0625 70.3125C63.2 70.3125 62.5 71.0125 62.5 71.875C62.5 72.7375 63.2 73.4375 64.0625 73.4375ZM20.3125 50C20.3125 50.8625 20.9609 51.5625 21.7594 51.5625H31.3641C32.1641 51.5625 32.8125 50.8625 32.8125 50C32.8125 49.1375 32.1641 48.4375 31.3656 48.4375H21.7609C20.9609 48.4375 20.3125 49.1375 20.3125 50ZM82.7641 39.0625C84.6781 40.4875 85.9375 42.7484 85.9375 45.3125V54.6875C85.9375 57.2516 84.6781 59.5125 82.7641 60.9375C84.6781 62.3625 85.9375 64.6234 85.9375 67.1875V76.5625C85.9375 80.8703 82.4328 84.375 78.125 84.375H21.875C17.5672 84.375 14.0625 80.8703 14.0625 76.5625V67.1875C14.0625 64.6234 15.3219 62.3625 17.2359 60.9375C15.3219 59.5125 14.0625 57.2516 14.0625 54.6875V45.3125C14.0625 42.7484 15.3219 40.4875 17.2359 39.0625C15.3219 37.6375 14.0625 35.3766 14.0625 32.8125V23.4375C14.0625 19.1297 17.5672 15.625 21.875 15.625H78.125C82.4328 15.625 85.9375 19.1297 85.9375 23.4375V32.8125C85.9375 35.3766 84.6781 37.6375 82.7641 39.0625ZM78.125 62.5H21.875C19.2906 62.5 17.1875 64.6031 17.1875 67.1875V70.3125H57.8125C58.675 70.3125 59.375 71.0125 59.375 71.875C59.375 72.7375 58.675 73.4375 57.8125 73.4375H17.1875V76.5625C17.1875 79.1469 19.2906 81.25 21.875 81.25H78.125C80.7094 81.25 82.8125 79.1469 82.8125 76.5625V67.1875C82.8125 64.6031 80.7094 62.5 78.125 62.5ZM78.125 40.625H21.875C19.2906 40.625 17.1875 42.7281 17.1875 45.3125V54.6875C17.1875 57.2719 19.2906 59.375 21.875 59.375H78.125C80.7094 59.375 82.8125 57.2719 82.8125 54.6875V51.5625H43.6922C42.8297 51.5625 42.1297 50.8625 42.1297 50C42.1297 49.1375 42.8297 48.4375 43.6922 48.4375H82.8125V45.3125C82.8125 42.7281 80.7094 40.625 78.125 40.625ZM82.8125 23.4375C82.8125 20.8531 80.7094 18.75 78.125 18.75H21.875C19.2906 18.75 17.1875 20.8531 17.1875 23.4375V26.5625H56.25C57.1125 26.5625 57.8125 27.2625 57.8125 28.125C57.8125 28.9875 57.1125 29.6875 56.25 29.6875H17.1875V32.8125C17.1875 35.3969 19.2906 37.5 21.875 37.5H78.125C80.7094 37.5 82.8125 35.3969 82.8125 32.8125V23.4375ZM70.3125 73.4375H78.125C78.9875 73.4375 79.6875 72.7375 79.6875 71.875C79.6875 71.0125 78.9875 70.3125 78.125 70.3125H70.3125C69.45 70.3125 68.75 71.0125 68.75 71.875C68.75 72.7375 69.45 73.4375 70.3125 73.4375Z" fill="#39BEB9"/>
</g>
<defs>
<filter id="filter0_d" x="-4" y="0" width="108" height="108" filterUnits="userSpaceOnUse" color-interpolation-filters="sRGB">
<feFlood flood-opacity="0" result="BackgroundImageFix"/>
<feColorMatrix in="SourceAlpha" type="matrix" values="0 0 0 0 0 0 0 0 0 0 0 0 0 0 0 0 0 0 127 0"/>
<feOffset dy="4"/>
<feGaussianBlur stdDeviation="2"/>
<feColorMatrix type="matrix" values="0 0 0 0 0 0 0 0 0 0 0 0 0 0 0 0 0 0 0.25 0"/>
<feBlend mode="normal" in2="BackgroundImageFix" result="effect1_dropShadow"/>
<feBlend mode="normal" in="SourceGraphic" in2="effect1_dropShadow" result="shape"/>
</filter>
</defs>
</svg>
