<svg width="100" height="100" viewBox="0 0 100 100" fill="none" xmlns="http://www.w3.org/2000/svg">
<g filter="url(#filter0_d)">
<path d="M92.96 63.2119C92.96 54.7929 92.718 40.1829 91.095 36.9379C90.426 35.6009 90.398 35.0079 90.419 34.8109C90.431 34.8079 90.444 34.8049 90.457 34.8009C90.568 34.7739 93.189 34.0999 94.558 32.0469C95.184 31.1059 95.144 30.0099 94.445 28.9599C93.628 27.7339 92.209 27.0029 90.649 27.0029H63.159H52.366C45.796 27.0029 42.455 28.3999 40.767 29.6969C40.588 29.4889 40.331 29.3509 40.035 29.3509H29.466C28.926 29.3509 28.488 29.7889 28.488 30.3289V31.1119H22.42C22.191 31.1119 21.97 31.1919 21.794 31.3379L18.271 34.2749C18.048 34.4609 17.919 34.7359 17.919 35.0269V36.9839H5.978C5.438 36.9849 5 37.4219 5 37.9629C5 38.5039 5.438 38.9409 5.978 38.9409H17.918V40.8979C17.918 41.1879 18.047 41.4639 18.27 41.6499L21.793 44.5859C21.969 44.7319 22.19 44.8119 22.419 44.8119H28.487V45.0089C28.487 45.5499 28.925 45.9869 29.465 45.9869H40.034C40.407 45.9869 40.721 45.7699 40.886 45.4629C45.846 49.1749 52.653 48.9389 52.927 48.9229L63.13 49.2209C63.14 49.2209 63.149 49.2209 63.159 49.2209C63.25 49.2209 63.336 49.1939 63.422 49.1699L74.962 49.4409C74.362 49.9639 73.975 50.7249 73.975 51.5809V52.5289C73.975 54.1019 75.255 55.3829 76.828 55.3829H77.113C77.414 56.1379 78.032 56.7389 78.816 57.0009C79.115 58.5719 79.847 62.6049 79.847 64.3869C79.847 65.8989 78.397 66.3309 78.167 66.3949C77.264 66.6959 75.737 67.7249 75.737 69.7379C75.761 71.5359 77.276 72.9989 79.113 72.9989H90.22C92.627 72.9989 94.646 71.0609 94.719 68.6769C94.765 67.1559 94.202 66.3149 93.748 65.6399C93.326 65.0079 92.96 64.4639 92.96 63.2119ZM52.366 28.9589H62.181V47.1849L52.911 46.9679C52.832 46.9649 45.386 47.2399 41.014 43.0279V32.2929C41.317 31.7329 43.289 28.9589 52.366 28.9589ZM22.773 42.8559L19.875 40.4399V38.5499V37.9629V35.4849L22.774 33.0689H28.488V42.8559H22.773ZM39.057 44.0309H30.444V43.8339V32.0909V31.3079H39.057V32.0909V43.4339V44.0309ZM75.932 52.5289V51.5809C75.932 51.0869 76.334 50.6849 76.829 50.6849H76.912V53.4259H76.829C76.334 53.4259 75.932 53.0239 75.932 52.5289ZM90.22 71.0409H79.113C78.34 71.0409 77.703 70.4439 77.693 69.6709C77.693 68.6689 78.682 68.2869 78.714 68.2699C79.783 68.0029 81.804 66.8479 81.804 64.3859C81.804 61.9679 80.66 56.2169 80.611 55.9729C80.521 55.5229 80.112 55.1959 79.653 55.1869C79.22 55.1779 78.868 54.8109 78.868 54.3669V49.7059V48.5309C78.868 47.9999 78.444 47.5649 77.913 47.5529L64.138 47.2299V28.9589H90.65C91.554 28.9589 92.365 29.3649 92.818 30.0449C93.18 30.5879 93.018 30.8309 92.931 30.9609C92.086 32.2289 90.402 32.7799 90.05 32.8839C89.633 32.9349 89.1 33.1699 88.767 33.7079C88.219 34.5949 88.408 35.9369 89.346 37.8119C90.369 39.8569 91.004 49.5899 91.004 63.2109C91.004 65.0589 91.625 65.9839 92.124 66.7279C92.526 67.3269 92.791 67.7219 92.764 68.6159C92.722 69.9529 91.582 71.0409 90.22 71.0409Z" fill="#39BEB9"/>
</g>
<defs>
<filter id="filter0_d" x="-4" y="0" width="108" height="108" filterUnits="userSpaceOnUse" color-interpolation-filters="sRGB">
<feFlood flood-opacity="0" result="BackgroundImageFix"/>
<feColorMatrix in="SourceAlpha" type="matrix" values="0 0 0 0 0 0 0 0 0 0 0 0 0 0 0 0 0 0 127 0"/>
<feOffset dy="4"/>
<feGaussianBlur stdDeviation="2"/>
<feColorMatrix type="matrix" values="0 0 0 0 0 0 0 0 0 0 0 0 0 0 0 0 0 0 0.25 0"/>
<feBlend mode="normal" in2="BackgroundImageFix" result="effect1_dropShadow"/>
<feBlend mode="normal" in="SourceGraphic" in2="effect1_dropShadow" result="shape"/>
</filter>
</defs>
</svg>
