<svg width="102" height="105" viewBox="0 0 102 105" fill="none" xmlns="http://www.w3.org/2000/svg">
<g filter="url(#filter0_d)">
<path d="M43.484 57.5231C45.6337 59.6715 49.1313 59.6715 51.2811 57.5231L60.0981 48.7061C62.251 46.5518 62.2547 43.0639 60.0981 40.9089C57.9483 38.7605 54.4509 38.7605 52.301 40.9089L43.484 49.7259C41.3349 51.8744 41.3349 55.3718 43.484 57.5231ZM44.9991 51.2409L53.8161 42.4239C55.1286 41.1115 57.269 41.1098 58.5831 42.4239C59.8856 43.7249 59.9141 45.8585 58.5831 47.1909L49.7661 56.0079C48.452 57.3235 46.3126 57.3221 44.9999 56.0079C43.6856 54.6938 43.6856 52.5551 44.9991 51.2409Z" fill="#39BEB9"/>
<path d="M27.1539 59.9143C26.7353 59.4957 26.0573 59.4957 25.6389 59.9143C25.2204 60.3328 25.2203 61.0108 25.6389 61.4293L39.5771 75.3676C39.9957 75.7861 40.6737 75.7861 41.0921 75.3676C41.5107 74.949 41.5107 74.271 41.0921 73.8526L27.1539 59.9143Z" fill="#39BEB9"/>
<path d="M22.1943 64.8737C21.7757 64.4552 21.0977 64.4552 20.6793 64.8737C20.2609 65.2923 20.2607 65.9703 20.6793 66.3887L34.6183 80.327C35.0369 80.7456 35.7149 80.7456 36.1333 80.327C36.5519 79.9085 36.5519 79.2305 36.1333 78.812L22.1943 64.8737Z" fill="#39BEB9"/>
<path d="M17.2347 69.8335C16.8161 69.4149 16.1381 69.4149 15.7197 69.8335C15.3013 70.252 15.3011 70.93 15.7197 71.3485L29.6587 85.2867C30.0773 85.7053 30.7553 85.7053 31.1737 85.2867C31.5923 84.8682 31.5923 84.1902 31.1737 83.7717L17.2347 69.8335Z" fill="#39BEB9"/>
<path d="M96.1681 26.5896L74.4243 4.84579C72.5807 3.00294 69.764 2.68479 67.5723 4.06594L52.1406 13.7409C50.7079 14.6394 49.7773 16.1195 49.5876 17.8007C49.4839 18.7181 49.6273 19.6189 49.9563 20.4502C45.4667 29.7222 39.4963 37.1246 31.7019 43.0602C17.7174 53.7285 9.16771 63.9405 4.79471 75.2017C3.59143 78.3001 4.30857 81.7977 6.62157 84.1107L16.8964 94.3855C19.1879 96.6779 22.6804 97.4259 25.8054 96.2117C37.0673 91.8381 47.2807 83.2889 57.9461 69.3059C57.9469 69.3059 57.9469 69.3045 57.9469 69.3045C63.877 61.5169 71.2716 55.5508 80.5354 51.0611C83.0171 52.0539 85.8367 51.1334 87.2633 48.8622L96.9361 33.4339C98.2734 31.3137 98.0279 28.4494 96.1681 26.5896ZM73.6549 7.10665L71.5294 9.23208C71.1109 9.65065 71.1109 10.3287 71.5294 10.7471C71.948 11.1657 72.626 11.1657 73.0444 10.7471L75.1699 8.62165L77.4001 10.8519L75.2753 12.9779C74.8567 13.3965 74.8567 14.0745 75.2753 14.4929C75.6939 14.9115 76.3719 14.9115 76.7903 14.4929L78.9151 12.3669L81.1457 14.5975L79.021 16.7222C78.6024 17.1408 78.6024 17.8188 79.021 18.2372C79.4396 18.6558 80.1176 18.6558 80.536 18.2372L82.6607 16.1125L84.8911 18.3429L82.7661 20.4679C82.3476 20.8865 82.3476 21.5645 82.7661 21.9829C83.1847 22.4015 83.8627 22.4015 84.2811 21.9829L86.4061 19.8579L88.6369 22.0887L86.5119 24.2136C86.0933 24.6322 86.0933 25.3102 86.5119 25.7287C86.9304 26.1472 87.6084 26.1472 88.0269 25.7287L90.1519 23.6036L92.3823 25.8341L90.2571 27.9596C89.8386 28.3782 89.8386 29.0562 90.2571 29.4746C90.6757 29.8932 91.3537 29.8932 91.7721 29.4746L93.8976 27.3492L94.653 28.1047C95.0557 28.5074 95.3339 28.9885 95.4924 29.5002L89.5463 32.8186C88.7923 33.2358 87.8799 33.1088 87.2751 32.5048L68.5063 13.7354C67.9071 13.1369 67.7767 12.2064 68.1896 11.4698L71.5054 5.52622C72.0183 5.68651 72.5039 5.95608 72.9091 6.36108L73.6549 7.10665ZM56.2429 68.0058C45.8264 81.6624 35.9087 89.9897 25.0299 94.2139C22.7203 95.1096 20.124 94.5808 18.4116 92.8705L8.13671 82.5956C6.42429 80.8825 5.89614 78.2848 6.79257 75.9774C11.0161 65.0998 19.3441 55.1822 33.0014 44.7651C40.754 38.8611 46.764 31.5675 51.3391 22.5022L78.5036 49.6687C69.439 54.2432 62.1454 60.2547 56.2429 68.0058ZM85.4483 47.7239C84.2779 49.5867 81.714 49.8455 80.1909 48.3238L52.6909 20.8238C51.955 20.0872 51.5999 19.0729 51.7164 18.0407C51.8329 17.0125 52.4029 16.1057 53.2796 15.5559L68.7134 5.87965C68.7736 5.84179 68.841 5.82851 68.9026 5.79479L66.3201 10.4235C65.4399 11.9902 65.7154 13.9754 66.9911 15.2505L85.76 34.0201C86.542 34.8014 87.5646 35.2087 88.6067 35.2087C89.2784 35.2087 89.9571 35.0398 90.5857 34.6938L95.2181 32.1084C95.1847 32.1694 95.1601 32.2331 95.1226 32.2928L85.4483 47.7239Z" fill="#39BEB9"/>
</g>
<defs>
<filter id="filter0_d" x="-3" y="0" width="108" height="108" filterUnits="userSpaceOnUse" color-interpolation-filters="sRGB">
<feFlood flood-opacity="0" result="BackgroundImageFix"/>
<feColorMatrix in="SourceAlpha" type="matrix" values="0 0 0 0 0 0 0 0 0 0 0 0 0 0 0 0 0 0 127 0"/>
<feOffset dy="4"/>
<feGaussianBlur stdDeviation="2"/>
<feColorMatrix type="matrix" values="0 0 0 0 0 0 0 0 0 0 0 0 0 0 0 0 0 0 0.25 0"/>
<feBlend mode="normal" in2="BackgroundImageFix" result="effect1_dropShadow"/>
<feBlend mode="normal" in="SourceGraphic" in2="effect1_dropShadow" result="shape"/>
</filter>
</defs>
</svg>
