<svg width="100" height="108" viewBox="0 0 100 108" fill="none" xmlns="http://www.w3.org/2000/svg">
<g filter="url(#filter0_d)">
<path d="M54.6828 37.2078V14.025C55.4547 13.4406 56.1141 12.7234 56.625 11.8984C56.6719 11.8391 56.725 11.7859 56.7641 11.7188C56.8 11.6562 56.8031 11.5859 56.8297 11.5219C57.4344 10.4141 57.8094 9.1625 57.8094 7.81406C57.8094 6.46719 57.4359 5.21719 56.8313 4.10781C56.8031 4.04063 56.8 3.96875 56.7625 3.90469C56.7328 3.85625 56.6859 3.82656 56.6547 3.78281C55.2828 1.525 52.825 0 49.9969 0C47.1656 0 44.7047 1.52969 43.3344 3.78906C43.3031 3.83125 43.2578 3.85938 43.2313 3.90625C43.1969 3.96719 43.1938 4.03594 43.1656 4.1C42.5594 5.20937 42.1844 6.4625 42.1844 7.8125C42.1844 9.16406 42.5609 10.4172 43.1672 11.5281C43.1938 11.5906 43.1969 11.6578 43.2313 11.7172C43.2672 11.7812 43.3188 11.8297 43.3625 11.8859C43.875 12.7188 44.5359 13.4375 45.3109 14.025V37.2109C42.5156 38.8344 40.6281 41.8547 40.6281 45.3141C40.6281 45.3172 40.6297 45.3203 40.6297 45.3234V45.325V95.3125C40.6297 97.8969 42.7328 100 45.3172 100H54.6828C57.2672 100 59.3703 97.8969 59.3703 95.3125V45.3234V45.3219C59.3703 45.3188 59.3719 45.3156 59.3719 45.3125C59.3719 41.8516 57.4813 38.8297 54.6828 37.2078ZM46.9266 11.325C47.4906 10.8453 47.675 10.0391 47.2906 9.37344C46.9031 8.70312 46.0984 8.45781 45.4 8.71875C45.3438 8.42656 45.3094 8.12187 45.3094 7.8125C45.3094 7.50781 45.3422 7.21094 45.4 6.92344C45.575 6.9875 45.7547 7.03125 45.9359 7.03125C46.4766 7.03125 47.0016 6.75 47.2906 6.25C47.6734 5.58594 47.4906 4.77812 46.9266 4.29844C47.3813 3.90156 47.9063 3.59531 48.4891 3.39688C48.6219 4.125 49.2297 4.6875 49.9969 4.6875C50.7641 4.6875 51.3719 4.125 51.5047 3.39688C52.0875 3.59531 52.6141 3.90156 53.0688 4.3C52.5031 4.77969 52.3187 5.58906 52.7047 6.25312C52.9953 6.75312 53.5188 7.03281 54.0578 7.03281C54.2391 7.03281 54.4188 6.98906 54.5953 6.92344C54.6516 7.21094 54.6844 7.50781 54.6844 7.8125C54.6844 8.12344 54.6516 8.42656 54.5922 8.72031C53.8906 8.45937 53.0875 8.70469 52.7016 9.37656C52.3188 10.0391 52.5016 10.8469 53.0656 11.3266C52.6125 11.7234 52.0859 12.0297 51.5031 12.2281C51.3719 11.5 50.7641 10.9375 49.9969 10.9375C49.2297 10.9375 48.6219 11.5 48.4891 12.2281C47.9063 12.0297 47.3797 11.7234 46.9266 11.325ZM48.4359 15.4672C48.9406 15.5703 49.4625 15.625 49.9969 15.625C50.5312 15.625 51.0531 15.5703 51.5578 15.4672V36.0797C51.05 35.9937 50.5328 35.9391 50 35.9391C49.4656 35.9391 48.9453 35.9937 48.4359 36.0812V15.4672ZM50 39.0656C53.4438 39.0656 56.2469 41.8688 56.2469 45.3125V45.3141C56.2469 45.3172 56.2453 45.3203 56.2453 45.3234V92.1875H43.7547V45.3234C43.7547 45.3203 43.7531 45.3172 43.7531 45.3141V45.3125C43.7531 41.8688 46.5563 39.0656 50 39.0656ZM54.6828 96.875H45.3172C44.4547 96.875 43.7547 96.175 43.7547 95.3125H56.2453C56.2453 96.175 55.5453 96.875 54.6828 96.875Z" fill="#39BEB9"/>
<path d="M49.9969 73.4454C52.5812 73.4454 54.6844 71.3423 54.6844 68.7579V62.5063C54.6844 59.922 52.5812 57.8188 49.9969 57.8188C47.4125 57.8188 45.3094 59.922 45.3094 62.5063V68.7579C45.3094 71.3423 47.4125 73.4454 49.9969 73.4454ZM49.9969 70.3204C49.1344 70.3204 48.4344 69.6204 48.4344 68.7579V66.9048C48.925 67.0798 49.4453 67.1938 49.9969 67.1938C50.5484 67.1938 51.0687 67.0813 51.5594 66.9048V68.7579C51.5594 69.6204 50.8594 70.3204 49.9969 70.3204ZM49.9969 60.9438C50.8594 60.9438 51.5594 61.6438 51.5594 62.5063C51.5594 63.3688 50.8594 64.0688 49.9969 64.0688C49.1344 64.0688 48.4344 63.3688 48.4344 62.5063C48.4344 61.6438 49.1344 60.9438 49.9969 60.9438Z" fill="#39BEB9"/>
<path d="M48.4344 46.8735H51.5594C52.4234 46.8735 53.1219 46.1751 53.1219 45.311C53.1219 44.447 52.4234 43.7485 51.5594 43.7485H48.4344C47.5703 43.7485 46.8719 44.447 46.8719 45.311C46.8719 46.1751 47.5703 46.8735 48.4344 46.8735Z" fill="#39BEB9"/>
</g>
<defs>
<filter id="filter0_d" x="-4" y="0" width="108" height="108" filterUnits="userSpaceOnUse" color-interpolation-filters="sRGB">
<feFlood flood-opacity="0" result="BackgroundImageFix"/>
<feColorMatrix in="SourceAlpha" type="matrix" values="0 0 0 0 0 0 0 0 0 0 0 0 0 0 0 0 0 0 127 0"/>
<feOffset dy="4"/>
<feGaussianBlur stdDeviation="2"/>
<feColorMatrix type="matrix" values="0 0 0 0 0 0 0 0 0 0 0 0 0 0 0 0 0 0 0.25 0"/>
<feBlend mode="normal" in2="BackgroundImageFix" result="effect1_dropShadow"/>
<feBlend mode="normal" in="SourceGraphic" in2="effect1_dropShadow" result="shape"/>
</filter>
</defs>
</svg>
