<svg width="100" height="100" viewBox="0 0 100 100" fill="none" xmlns="http://www.w3.org/2000/svg">
<g filter="url(#filter0_d)">
<path d="M68.2 46.9C68.8 46.9 69.2 46.5 69.2 45.9V41.5C69.2 40.9 68.8 40.5 68.2 40.5C67.6 40.5 67.2 40.9 67.2 41.5V45.9C67.2 46.4 67.6 46.9 68.2 46.9Z" fill="#39BEB9"/>
<path d="M68.2 57.5999C70 57.5999 71.4 56.1 71.4 54.4C71.4 52.7 69.9 51.2 68.2 51.2C66.5 51.2 65 52.7 65 54.4C65 56.1 66.4 57.5999 68.2 57.5999ZM68.2 53.0999C68.9 53.0999 69.4 53.6999 69.4 54.2999C69.4 54.8999 68.8 55.5 68.2 55.5C67.6 55.5 67 54.8999 67 54.2999C67 53.6999 67.5 53.0999 68.2 53.0999Z" fill="#39BEB9"/>
<path d="M62.7 14H38.9C31.2 14 24.8 20.3 24.8 28.1V35.3C24.8 35.9 25.2 36.3 25.8 36.3H28C28.3 39.1 30.7 41.4 33.7 41.4H50.2C53.1 41.4 55.5 39.2 55.9 36.3H59V78H50C55.6 72.9 54.4 64.6 54.3 64.3C54.2 63.8 53.8 63.5 53.3 63.5H33.1C32.6 63.5 32.2 63.9 32.1 64.4C32.1 64.5 32 65 32 65.8C31.2 65.7 30.3 65.8 29.5 66.3C29 66.7 28.4 67.4 28.4 68.9C28.4 72.4 31.3 73.9 34.1 75.4L34.4 75.6C35 76.5 35.7 77.4 36.6 78.2H25.9C25.3 78.2 24.9 78.6 24.9 79.2V82.1C24.9 84.7 27 86.9 29.7 86.9H72C74.6 86.9 76.8 84.8 76.8 82.1V28C76.8 20.3 70.5 14 62.7 14ZM34 65.4H52.5C52.7 67.7 52.6 74 47.5 77.4H38.9C34 74.1 33.8 67.8 34 65.4ZM30.3 68.8C30.3 68.3 30.4 68 30.6 67.9C30.9 67.7 31.5 67.7 32 67.8C32.1 69.2 32.3 70.8 32.8 72.5C31.2 71.3 30.3 70.3 30.3 68.8ZM50.1 39.3H33.6C31.8 39.3 30.3 38 30 36.2H53.8C53.4 38 51.9 39.3 50.1 39.3ZM74.8 81.9C74.8 83.4 73.6 84.7 72 84.7H29.7C28.2 84.7 26.9 83.5 26.9 81.9V80H59.8C60.4 80 60.8 79.6 60.8 79V36.2H74.8V81.9ZM74.8 34.2H26.9V28C26.9 21.4 32.3 15.9 39 15.9H62.8C69.4 15.9 74.9 21.3 74.9 28V34.2H74.8Z" fill="#39BEB9"/>
</g>
<defs>
<filter id="filter0_d" x="-4" y="0" width="108" height="108" filterUnits="userSpaceOnUse" color-interpolation-filters="sRGB">
<feFlood flood-opacity="0" result="BackgroundImageFix"/>
<feColorMatrix in="SourceAlpha" type="matrix" values="0 0 0 0 0 0 0 0 0 0 0 0 0 0 0 0 0 0 127 0"/>
<feOffset dy="4"/>
<feGaussianBlur stdDeviation="2"/>
<feColorMatrix type="matrix" values="0 0 0 0 0 0 0 0 0 0 0 0 0 0 0 0 0 0 0.25 0"/>
<feBlend mode="normal" in2="BackgroundImageFix" result="effect1_dropShadow"/>
<feBlend mode="normal" in="SourceGraphic" in2="effect1_dropShadow" result="shape"/>
</filter>
</defs>
</svg>
