<svg width="100" height="106" viewBox="0 0 100 106" fill="none" xmlns="http://www.w3.org/2000/svg">
<g filter="url(#filter0_d)">
<path d="M84.7 37.2C84.7 18.1 69.1 2.5 50 2.5C30.9 2.5 15.3 18.1 15.3 37.2C15.3 53.3 26.3 66.8 41.1 70.8V82.2H36C33.8 82.2 31.9 84 31.9 86.3V93.5C31.9 95.7 33.7 97.6 36 97.6H62.5C64.7 97.6 66.6 95.8 66.6 93.5V86.3C66.6 84.1 64.8 82.2 62.5 82.2H57.4V71.2C73 67.8 84.7 53.8 84.7 37.2ZM62.5 85.5C62.9 85.5 63.2 85.8 63.2 86.2V93.4C63.2 93.8 62.9 94.1 62.5 94.1H36C35.6 94.1 35.3 93.8 35.3 93.4V86.2C35.3 85.8 35.6 85.5 36 85.5H62.5ZM44.5 82.2V71.5C46.3 71.8 48.1 71.9 50 71.9C51.4 71.9 52.7 71.8 54 71.7V82.2H44.5ZM50 68.6C32.7 68.6 18.6 54.5 18.6 37.2C18.6 19.9 32.7 5.9 50 5.9C67.3 5.9 81.4 20 81.4 37.3C81.4 54.5 67.3 68.6 50 68.6Z" fill="#39BEB9"/>
<path d="M74.7 35.6C72.2 32.7 67.6 31.3 60.8 31.4C59.6 31.4 58.4 31.5 57.4 31.6C57.2 31.3 56.9 31 56.6 30.7C57.2 30.3 57.9 30 58.9 29.6C60.3 29 61.9 28.3 63.5 27.2C66.6 24.9 67.6 21.3 66.1 17.8C63.9 12.7 56.5 8.40002 44.8 10.4C40.1 11.2 37.2 13.3 36 16.5C34.7 20.1 35.8 24.8 39.3 30.6C40 31.7 40.6 32.8 41.3 33.7C41.2 34 41.1 34.4 41 34.7C40.4 34.4 39.6 33.8 38.7 33.1C37.5 32.2 36.1 31.1 34.3 30.3C30.8 28.7 27.2 29.7 24.9 32.7C21.5 37.2 21.5 45.8 29.2 54.8C31.8 57.9 34.6 59.5 37.4 59.5C37.9 59.5 38.4 59.5 38.9 59.4C42.6 58.7 46.2 55.4 49.5 49.5C50.1 48.4 50.6 47.3 51.1 46.4C51.5 46.4 51.8 46.3 52.2 46.2C52.2 46.9 52.1 47.7 52 48.8C51.8 50.3 51.6 52.1 51.8 54C52.2 57.8 54.8 60.5 58.6 61C59 61.1 59.4 61.1 59.7 61.1C65.1 61.1 71.8 56.7 75.6 46.3C77.2 41.8 76.9 38.2 74.7 35.6ZM50 43.2C46.7 43.2 44.1 40.5 44.1 37.3C44.1 34 46.8 31.4 50 31.4C53.2 31.4 55.9 34.1 55.9 37.3C55.9 40.5 53.3 43.2 50 43.2ZM39.3 17.7C40 15.7 42.1 14.4 45.5 13.8C55.3 12.1 61.5 15.4 63.1 19.2C64 21.2 63.4 23.2 61.6 24.5C60.4 25.4 59 26 57.7 26.5C56.4 27.1 54.9 27.7 53.8 28.7C52.7 28.2 51.4 27.9 50.1 27.9C47.5 27.9 45.1 29 43.5 30.7C40.6 26.5 38 21.2 39.3 17.7ZM38.3 56.2C36.2 56.6 34 55.4 31.8 52.8C25.4 45.2 25.2 38.1 27.6 34.8C28.5 33.6 29.7 33 31 33C31.6 33 32.3 33.2 33 33.5C34.4 34.1 35.5 35 36.7 35.9C37.9 36.8 39.2 37.9 40.8 38.3C41.2 42.1 43.9 45.3 47.5 46.3C45.3 50.6 41.9 55.5 38.3 56.2ZM72.4 45.1C69 54.5 63 58.2 58.9 57.7C56.7 57.4 55.3 56 55.1 53.7C54.9 52.2 55.1 50.8 55.3 49.3C55.5 47.9 55.7 46.3 55.4 44.8C57.8 43.1 59.4 40.3 59.4 37.2C59.4 36.4 59.3 35.6 59.1 34.8C64 34.5 69.9 35 72.2 37.8C73.5 39.4 73.6 41.9 72.4 45.1Z" fill="#39BEB9"/>
</g>
<defs>
<filter id="filter0_d" x="-4" y="0" width="108" height="108" filterUnits="userSpaceOnUse" color-interpolation-filters="sRGB">
<feFlood flood-opacity="0" result="BackgroundImageFix"/>
<feColorMatrix in="SourceAlpha" type="matrix" values="0 0 0 0 0 0 0 0 0 0 0 0 0 0 0 0 0 0 127 0"/>
<feOffset dy="4"/>
<feGaussianBlur stdDeviation="2"/>
<feColorMatrix type="matrix" values="0 0 0 0 0 0 0 0 0 0 0 0 0 0 0 0 0 0 0.25 0"/>
<feBlend mode="normal" in2="BackgroundImageFix" result="effect1_dropShadow"/>
<feBlend mode="normal" in="SourceGraphic" in2="effect1_dropShadow" result="shape"/>
</filter>
</defs>
</svg>
