<svg width="100" height="106" viewBox="0 0 100 106" fill="none" xmlns="http://www.w3.org/2000/svg">
<g filter="url(#filter0_d)">
<path d="M27.5195 93.0076C35.3125 93.0076 43.0859 93.0076 50.8789 93.0076C62.4219 93.0076 73.9648 93.0076 85.5273 93.0076C88.3593 93.0076 92.2851 93.6717 94.3164 91.2498C95.5469 89.785 95.5859 88.0857 95.5859 86.3279C95.5859 84.5115 95.5859 82.6951 95.5859 80.8787C95.5859 69.199 95.5859 57.5193 95.5859 45.8592C95.5859 44.2967 95.5859 42.7146 95.5859 41.1521C95.5859 38.574 94.6289 36.2889 92.0508 35.3123C91.1914 34.9803 90.0586 35.0975 89.1406 35.0975C87.539 35.0975 85.957 35.0975 84.3554 35.0975C72.5781 35.0975 60.8008 35.0975 49.0234 35.0975C41.875 35.0975 34.707 35.0975 27.5586 35.0975C25.664 35.0975 25.664 38.0271 27.5586 38.0271C35.3515 38.0271 43.125 38.0271 50.9179 38.0271C62.4609 38.0271 74.0039 38.0271 85.5664 38.0271C86.9726 38.0271 88.3594 38.0271 89.7656 38.0271C90.0586 38.0271 90.332 38.0271 90.625 38.0271C91.7773 38.0271 92.5781 39.0232 92.6953 40.117C92.7734 40.9764 92.6953 41.8748 92.6953 42.7537C92.6953 44.8436 92.6953 46.9139 92.6953 49.0037C92.6953 60.5662 92.6953 72.1482 92.6953 83.7107C92.6953 84.9607 92.6953 86.2107 92.6953 87.4607C92.6953 88.8865 91.914 90.0779 90.4101 90.0779C87.3242 90.0779 84.2383 90.0779 81.1523 90.0779C69.0039 90.0779 56.8359 90.0779 44.6875 90.0779C38.9844 90.0779 33.2812 90.0779 27.5586 90.0779C25.625 90.0779 25.625 93.0076 27.5195 93.0076Z" fill="#39BEB9"/>
<path d="M22.4023 94.9608C20.1172 94.9608 17.832 94.9608 15.5468 94.9608C14.2578 94.9608 12.9687 94.9608 11.6797 94.9608C10.4883 94.9608 9.43357 94.8241 8.5156 93.9843C7.34372 92.9296 7.34372 91.5233 7.34372 90.0976C7.34372 88.4765 7.34372 86.8554 7.34372 85.2148C7.34372 73.3398 7.34372 61.4648 7.34372 49.6093C7.34372 45.6444 7.34372 41.6601 7.34372 37.6952C7.34372 35.9374 7.73435 34.3944 9.4531 33.4569C10.2929 33.0077 11.3281 33.1249 12.2265 33.1249C13.6523 33.1249 15.0781 33.1249 16.4844 33.1249C17.9492 33.1249 19.414 33.1249 20.8789 33.1249C21.7773 33.1249 22.6758 33.0663 23.5547 33.3202C25.5273 33.9062 26.0351 35.8007 26.0351 37.578C26.0351 41.4648 26.0351 45.371 26.0351 49.2577C26.0351 61.1523 26.0351 73.0468 26.0351 84.9413C26.0351 86.7577 26.0351 88.5546 26.0351 90.371C26.0351 90.664 26.0351 90.9569 26.0351 91.2694C26.0742 93.3398 24.414 94.9218 22.4023 94.9608C20.5078 95.0194 20.5078 97.9491 22.4023 97.8905C26.1133 97.7929 28.9843 94.8632 28.9843 91.1523C28.9843 90.0976 28.9843 89.0429 28.9843 87.9882C28.9843 82.9882 28.9843 77.9882 28.9843 72.9882C28.9843 61.8163 28.9843 50.6444 28.9843 39.4726C28.9843 38.5937 28.9843 37.7148 28.9843 36.8358C28.9843 33.0858 25.8789 30.2148 22.1875 30.2148C19.5312 30.2148 16.8945 30.2148 14.2383 30.2148C11.3281 30.2148 8.49607 29.9804 6.24997 32.2265C3.74997 34.7265 4.41404 39.0233 4.41404 42.246C4.41404 47.7343 4.41404 53.2226 4.41404 58.7108C4.41404 69.1796 4.41404 79.6288 4.41404 90.0976C4.41404 90.7616 4.39451 91.4452 4.47263 92.1093C4.92185 95.5077 7.81248 97.8905 11.2109 97.8905C14.9414 97.8905 18.6718 97.8905 22.4023 97.8905C24.2968 97.8905 24.2968 94.9608 22.4023 94.9608Z" fill="#39BEB9"/>
<path d="M79.3164 28.8671C80.1367 28.8671 81.0546 28.7695 81.8554 28.9257C83.2812 29.1992 84.1796 30.371 84.4531 31.7382C84.6093 32.5 84.4726 33.3984 84.4726 34.1601C84.4726 34.9609 84.4726 35.7617 84.4726 36.5625C84.9609 36.0742 85.4492 35.5859 85.9374 35.0976C77.246 35.0976 68.5546 35.0976 59.8632 35.0976C51.3671 35.0976 42.871 35.0976 34.3749 35.0976C34.8632 35.5859 35.3515 36.0742 35.8398 36.5625C35.8398 35 35.6445 33.3007 35.8593 31.7382C36.0546 30.3125 37.0898 29.2773 38.457 28.9257C39.2382 28.7304 40.1953 28.8671 40.996 28.8671C42.8906 28.8671 42.8906 25.9375 40.996 25.9375C39.8046 25.9375 38.5937 25.8789 37.4218 26.1718C35.5468 26.6601 33.9843 28.1835 33.3007 29.9609C32.5585 31.9531 32.8906 34.4531 32.8906 36.5625C32.8906 37.3632 33.5546 38.0273 34.3554 38.0273C43.0468 38.0273 51.7382 38.0273 60.4296 38.0273C68.9257 38.0273 77.4218 38.0273 85.9179 38.0273C86.7187 38.0273 87.3828 37.3632 87.3828 36.5625C87.3828 34.4726 87.7343 31.9726 86.9726 29.9609C86.2695 28.0859 84.746 26.7578 82.8515 26.1718C81.7187 25.8203 80.4492 25.9375 79.2773 25.9375C77.4413 25.9375 77.4414 28.8671 79.3164 28.8671Z" fill="#39BEB9"/>
<path d="M79.3164 13.0469C77.8906 13.0469 76.4453 13.0469 75.0195 13.0469C73.2812 13.0469 71.582 13.125 70.2929 11.6992C69.4531 10.7617 69.7851 8.8281 69.7851 7.69529C69.7851 6.3281 69.7851 4.96091 69.7851 3.5742C68.9453 3.92576 68.125 4.25779 67.2851 4.60935C70.957 8.2617 74.6093 11.8945 78.2812 15.5469C78.1445 15.1953 77.9882 14.8633 77.8515 14.5117C77.8515 21.8554 77.8515 29.2187 77.8515 36.5625C78.3398 36.0742 78.8281 35.5859 79.3164 35.0976C69.6679 35.0976 60.0195 35.0976 50.3711 35.0976C47.2461 35.0976 44.1406 35.0976 41.0156 35.0976C41.5039 35.5859 41.9921 36.0742 42.4804 36.5625C42.4804 27.3633 42.4804 18.1445 42.4804 8.94529C42.4804 8.37888 42.4218 7.79295 42.5586 7.22654C42.9296 5.7031 44.7265 5.03904 46.1132 5.03904C47.9297 5.03904 49.7656 5.03904 51.582 5.03904C56.9726 5.03904 62.3828 5.03904 67.7734 5.03904C67.9492 5.03904 68.1445 5.03904 68.3203 5.03904C70.2148 5.03904 70.2148 2.10935 68.3203 2.10935C63.7109 2.10935 59.1015 2.10935 54.4921 2.10935C52.0117 2.10935 49.5312 2.10935 47.0507 2.10935C46.4257 2.10935 45.8007 2.08982 45.1757 2.16795C42.7343 2.46091 40.7031 3.90623 39.8046 6.21091C39.5117 6.99216 39.5507 7.85154 39.5507 8.65232C39.5507 9.70701 39.5507 10.7617 39.5507 11.8164C39.5507 14.9219 39.5507 18.0273 39.5507 21.1133C39.5507 25.2148 39.5507 29.2969 39.5507 33.3984C39.5507 34.4531 39.5507 35.4883 39.5507 36.5429C39.5507 37.3437 40.2148 38.0078 41.0156 38.0078C50.664 38.0078 60.3125 38.0078 69.9609 38.0078C73.0859 38.0078 76.1914 38.0078 79.3164 38.0078C80.1171 38.0078 80.7812 37.3437 80.7812 36.5429C80.7812 32.6172 80.7812 28.6914 80.7812 24.7656C80.7812 21.8359 80.7812 18.8867 80.7812 15.957C80.7812 15.1758 80.957 14.0625 80.3515 13.457C79.9023 13.0273 79.4726 12.5781 79.0234 12.1484C75.8007 8.94529 72.5781 5.74216 69.3554 2.51951C68.457 1.62107 66.8554 2.2656 66.8554 3.55466C66.8554 5.11716 66.8554 6.66013 66.8554 8.22263C66.8554 8.88669 66.8554 9.53123 66.8554 10.1953C66.8554 11.5625 67.3828 12.7148 68.2226 13.7695C69.7656 15.6836 72.2265 15.9765 74.5117 15.9765C76.1132 15.9765 77.7148 15.9765 79.3164 15.9765C81.2109 15.9765 81.2109 13.0469 79.3164 13.0469Z" fill="#39BEB9"/>
<path d="M78.6133 48.5547C68.9062 48.5547 59.2188 48.5547 49.5117 48.5547C46.9141 48.5547 44.3359 48.5547 41.7383 48.5547C42.2266 49.043 42.7148 49.5313 43.2031 50.0195C43.2031 47.7148 43.2031 45.4297 43.2031 43.125C42.7148 43.6133 42.2266 44.1016 41.7383 44.5898C51.4453 44.5898 61.1328 44.5898 70.8398 44.5898C73.4375 44.5898 76.0156 44.5898 78.6133 44.5898C78.125 44.1016 77.6367 43.6133 77.1484 43.125C77.1484 45.4297 77.1484 47.7148 77.1484 50.0195C77.1484 51.9141 80.0781 51.9141 80.0781 50.0195C80.0781 47.7148 80.0781 45.4297 80.0781 43.125C80.0781 42.3242 79.4141 41.6602 78.6133 41.6602C68.9062 41.6602 59.2188 41.6602 49.5117 41.6602C46.9141 41.6602 44.3359 41.6602 41.7383 41.6602C40.9375 41.6602 40.2734 42.3242 40.2734 43.125C40.2734 45.4297 40.2734 47.7148 40.2734 50.0195C40.2734 50.8203 40.9375 51.4844 41.7383 51.4844C51.4453 51.4844 61.1328 51.4844 70.8398 51.4844C73.4375 51.4844 76.0156 51.4844 78.6133 51.4844C80.4883 51.4844 80.4883 48.5547 78.6133 48.5547Z" fill="#39BEB9"/>
<path d="M64.5312 59.3945C61.6211 59.3945 58.7109 59.3945 55.8008 59.3945C56.2891 59.8828 56.7773 60.3711 57.2656 60.8594C57.2656 58.5547 57.2656 56.2695 57.2656 53.9648C56.7773 54.4531 56.2891 54.9414 55.8008 55.4297C58.7109 55.4297 61.6211 55.4297 64.5312 55.4297C64.043 54.9414 63.5547 54.4531 63.0664 53.9648C63.0664 56.2695 63.0664 58.5547 63.0664 60.8594C63.0664 62.7539 65.9961 62.7539 65.9961 60.8594C65.9961 58.5547 65.9961 56.2695 65.9961 53.9648C65.9961 53.1641 65.332 52.5 64.5312 52.5C61.6211 52.5 58.7109 52.5 55.8008 52.5C55 52.5 54.3359 53.1641 54.3359 53.9648C54.3359 56.2695 54.3359 58.5547 54.3359 60.8594C54.3359 61.6602 55 62.3242 55.8008 62.3242C58.7109 62.3242 61.6211 62.3242 64.5312 62.3242C66.4258 62.3242 66.4258 59.3945 64.5312 59.3945Z" fill="#39BEB9"/>
<path d="M50.4492 59.3945C47.5391 59.3945 44.6289 59.3945 41.7188 59.3945C42.207 59.8828 42.6953 60.3711 43.1836 60.8594C43.1836 58.5547 43.1836 56.2695 43.1836 53.9648C42.6953 54.4531 42.207 54.9414 41.7188 55.4297C44.6289 55.4297 47.5391 55.4297 50.4492 55.4297C49.9609 54.9414 49.4727 54.4531 48.9844 53.9648C48.9844 56.2695 48.9844 58.5547 48.9844 60.8594C48.9844 62.7539 51.9141 62.7539 51.9141 60.8594C51.9141 58.5547 51.9141 56.2695 51.9141 53.9648C51.9141 53.1641 51.25 52.5 50.4492 52.5C47.5391 52.5 44.6289 52.5 41.7188 52.5C40.918 52.5 40.2539 53.1641 40.2539 53.9648C40.2539 56.2695 40.2539 58.5547 40.2539 60.8594C40.2539 61.6602 40.918 62.3242 41.7188 62.3242C44.6289 62.3242 47.5391 62.3242 50.4492 62.3242C52.3437 62.3242 52.3437 59.3945 50.4492 59.3945Z" fill="#39BEB9"/>
<path d="M78.6133 59.3945C75.7031 59.3945 72.793 59.3945 69.8828 59.3945C70.3711 59.8828 70.8594 60.3711 71.3477 60.8594C71.3477 58.5547 71.3477 56.2695 71.3477 53.9648C70.8594 54.4531 70.3711 54.9414 69.8828 55.4297C72.793 55.4297 75.7031 55.4297 78.6133 55.4297C78.125 54.9414 77.6367 54.4531 77.1484 53.9648C77.1484 56.2695 77.1484 58.5547 77.1484 60.8594C77.1484 62.7539 80.0781 62.7539 80.0781 60.8594C80.0781 58.5547 80.0781 56.2695 80.0781 53.9648C80.0781 53.1641 79.4141 52.5 78.6133 52.5C75.7031 52.5 72.793 52.5 69.8828 52.5C69.082 52.5 68.418 53.1641 68.418 53.9648C68.418 56.2695 68.418 58.5547 68.418 60.8594C68.418 61.6602 69.082 62.3242 69.8828 62.3242C72.793 62.3242 75.7031 62.3242 78.6133 62.3242C80.4883 62.3242 80.4883 59.3945 78.6133 59.3945Z" fill="#39BEB9"/>
<path d="M64.5312 71.4648C61.6211 71.4648 58.7109 71.4648 55.8008 71.4648C56.2891 71.9531 56.7773 72.4414 57.2656 72.9297C57.2656 70.625 57.2656 68.3398 57.2656 66.0352C56.7773 66.5234 56.2891 67.0117 55.8008 67.5C58.7109 67.5 61.6211 67.5 64.5312 67.5C64.043 67.0117 63.5547 66.5234 63.0664 66.0352C63.0664 68.3398 63.0664 70.625 63.0664 72.9297C63.0664 74.8242 65.9961 74.8242 65.9961 72.9297C65.9961 70.625 65.9961 68.3398 65.9961 66.0352C65.9961 65.2344 65.332 64.5703 64.5312 64.5703C61.6211 64.5703 58.7109 64.5703 55.8008 64.5703C55 64.5703 54.3359 65.2344 54.3359 66.0352C54.3359 68.3398 54.3359 70.625 54.3359 72.9297C54.3359 73.7305 55 74.3945 55.8008 74.3945C58.7109 74.3945 61.6211 74.3945 64.5312 74.3945C66.4258 74.3945 66.4258 71.4648 64.5312 71.4648Z" fill="#39BEB9"/>
<path d="M50.4492 71.4648C47.5391 71.4648 44.6289 71.4648 41.7188 71.4648C42.207 71.9531 42.6953 72.4414 43.1836 72.9297C43.1836 70.625 43.1836 68.3398 43.1836 66.0352C42.6953 66.5234 42.207 67.0117 41.7188 67.5C44.6289 67.5 47.5391 67.5 50.4492 67.5C49.9609 67.0117 49.4727 66.5234 48.9844 66.0352C48.9844 68.3398 48.9844 70.625 48.9844 72.9297C48.9844 74.8242 51.9141 74.8242 51.9141 72.9297C51.9141 70.625 51.9141 68.3398 51.9141 66.0352C51.9141 65.2344 51.25 64.5703 50.4492 64.5703C47.5391 64.5703 44.6289 64.5703 41.7188 64.5703C40.918 64.5703 40.2539 65.2344 40.2539 66.0352C40.2539 68.3398 40.2539 70.625 40.2539 72.9297C40.2539 73.7305 40.918 74.3945 41.7188 74.3945C44.6289 74.3945 47.5391 74.3945 50.4492 74.3945C52.3437 74.3945 52.3437 71.4648 50.4492 71.4648Z" fill="#39BEB9"/>
<path d="M78.6133 71.4648C75.7031 71.4648 72.793 71.4648 69.8828 71.4648C70.3711 71.9531 70.8594 72.4414 71.3477 72.9297C71.3477 70.625 71.3477 68.3398 71.3477 66.0352C70.8594 66.5234 70.3711 67.0117 69.8828 67.5C72.793 67.5 75.7031 67.5 78.6133 67.5C78.125 67.0117 77.6367 66.5234 77.1484 66.0352C77.1484 68.3398 77.1484 70.625 77.1484 72.9297C77.1484 74.8242 80.0781 74.8242 80.0781 72.9297C80.0781 70.625 80.0781 68.3398 80.0781 66.0352C80.0781 65.2344 79.4141 64.5703 78.6133 64.5703C75.7031 64.5703 72.793 64.5703 69.8828 64.5703C69.082 64.5703 68.418 65.2344 68.418 66.0352C68.418 68.3398 68.418 70.625 68.418 72.9297C68.418 73.7305 69.082 74.3945 69.8828 74.3945C72.793 74.3945 75.7031 74.3945 78.6133 74.3945C80.4883 74.3945 80.4883 71.4648 78.6133 71.4648Z" fill="#39BEB9"/>
<path d="M64.5312 83.5156C61.6211 83.5156 58.7109 83.5156 55.8008 83.5156C56.2891 84.0039 56.7773 84.4922 57.2656 84.9805C57.2656 82.6758 57.2656 80.3906 57.2656 78.0859C56.7773 78.5742 56.2891 79.0625 55.8008 79.5508C58.7109 79.5508 61.6211 79.5508 64.5312 79.5508C64.043 79.0625 63.5547 78.5742 63.0664 78.0859C63.0664 80.3906 63.0664 82.6758 63.0664 84.9805C63.0664 86.875 65.9961 86.875 65.9961 84.9805C65.9961 82.6758 65.9961 80.3906 65.9961 78.0859C65.9961 77.2852 65.332 76.6211 64.5312 76.6211C61.6211 76.6211 58.7109 76.6211 55.8008 76.6211C55 76.6211 54.3359 77.2852 54.3359 78.0859C54.3359 80.3906 54.3359 82.6758 54.3359 84.9805C54.3359 85.7813 55 86.4453 55.8008 86.4453C58.7109 86.4453 61.6211 86.4453 64.5312 86.4453C66.4258 86.4453 66.4258 83.5156 64.5312 83.5156Z" fill="#39BEB9"/>
<path d="M50.4492 83.5156C47.5391 83.5156 44.6289 83.5156 41.7188 83.5156C42.207 84.0039 42.6953 84.4922 43.1836 84.9805C43.1836 82.6758 43.1836 80.3906 43.1836 78.0859C42.6953 78.5742 42.207 79.0625 41.7188 79.5508C44.6289 79.5508 47.5391 79.5508 50.4492 79.5508C49.9609 79.0625 49.4727 78.5742 48.9844 78.0859C48.9844 80.3906 48.9844 82.6758 48.9844 84.9805C48.9844 86.875 51.9141 86.875 51.9141 84.9805C51.9141 82.6758 51.9141 80.3906 51.9141 78.0859C51.9141 77.2852 51.25 76.6211 50.4492 76.6211C47.5391 76.6211 44.6289 76.6211 41.7188 76.6211C40.918 76.6211 40.2539 77.2852 40.2539 78.0859C40.2539 80.3906 40.2539 82.6758 40.2539 84.9805C40.2539 85.7813 40.918 86.4453 41.7188 86.4453C44.6289 86.4453 47.5391 86.4453 50.4492 86.4453C52.3437 86.4453 52.3437 83.5156 50.4492 83.5156Z" fill="#39BEB9"/>
<path d="M78.6133 83.5156C75.7031 83.5156 72.793 83.5156 69.8828 83.5156C70.3711 84.0039 70.8594 84.4922 71.3477 84.9805C71.3477 82.6758 71.3477 80.3906 71.3477 78.0859C70.8594 78.5742 70.3711 79.0625 69.8828 79.5508C72.793 79.5508 75.7031 79.5508 78.6133 79.5508C78.125 79.0625 77.6367 78.5742 77.1484 78.0859C77.1484 80.3906 77.1484 82.6758 77.1484 84.9805C77.1484 86.875 80.0781 86.875 80.0781 84.9805C80.0781 82.6758 80.0781 80.3906 80.0781 78.0859C80.0781 77.2852 79.4141 76.6211 78.6133 76.6211C75.7031 76.6211 72.793 76.6211 69.8828 76.6211C69.082 76.6211 68.418 77.2852 68.418 78.0859C68.418 80.3906 68.418 82.6758 68.418 84.9805C68.418 85.7813 69.082 86.4453 69.8828 86.4453C72.793 86.4453 75.7031 86.4453 78.6133 86.4453C80.4883 86.4453 80.4883 83.5156 78.6133 83.5156Z" fill="#39BEB9"/>
</g>
<defs>
<filter id="filter0_d" x="-4" y="0" width="108" height="108" filterUnits="userSpaceOnUse" color-interpolation-filters="sRGB">
<feFlood flood-opacity="0" result="BackgroundImageFix"/>
<feColorMatrix in="SourceAlpha" type="matrix" values="0 0 0 0 0 0 0 0 0 0 0 0 0 0 0 0 0 0 127 0"/>
<feOffset dy="4"/>
<feGaussianBlur stdDeviation="2"/>
<feColorMatrix type="matrix" values="0 0 0 0 0 0 0 0 0 0 0 0 0 0 0 0 0 0 0.25 0"/>
<feBlend mode="normal" in2="BackgroundImageFix" result="effect1_dropShadow"/>
<feBlend mode="normal" in="SourceGraphic" in2="effect1_dropShadow" result="shape"/>
</filter>
</defs>
</svg>
