<svg width="108" height="101" viewBox="0 0 108 101" fill="none" xmlns="http://www.w3.org/2000/svg">
<g clip-path="url(#clip0)" filter="url(#filter0_d)">
<path d="M6.50028 7.50049H101.5C102.881 7.50049 104 8.61996 104 10.0008V25.0006C104 26.3814 102.881 27.5009 101.5 27.5009H96.5001V87.5001H99.0004C100.38 87.5001 101.501 88.6196 101.501 89.9995C101.501 91.3803 100.38 92.4997 99.0004 92.4997H96.5001H81.5003H26.5007H11.5008H9.00056C7.61975 92.4997 6.50028 91.3803 6.50028 89.9995C6.50028 88.6196 7.61975 87.5001 9.00056 87.5001H11.5008V27.5009H6.50028C5.11947 27.5009 4 26.3814 4 25.0006V10.0008C4 8.61996 5.11947 7.50049 6.50028 7.50049V7.50049ZM45.1527 62.6679C45.9487 60.6773 46.9088 59.3113 47.8281 58.0018C49.0745 56.2281 50.2468 54.5591 50.7528 51.5222C50.8093 51.1821 51.1309 50.9532 51.4701 51.0098C51.5461 51.0218 51.6156 51.0478 51.6786 51.0839C52.2596 51.3647 58.9088 54.7148 60.6927 61.7986L60.6974 61.7865C60.9189 61.2231 61.0792 60.5197 61.1413 59.7515C61.1681 59.4077 61.4693 59.1519 61.8122 59.1778C62.0133 59.1936 62.1847 59.303 62.2867 59.4586C62.8205 60.2148 64.066 63.1451 63.4747 66.4961C63.1254 68.483 62.1412 70.6302 60.0088 72.5828C59.8893 72.6912 59.7392 72.7459 59.589 72.7459L54.9545 72.7487C54.6089 72.7487 54.329 72.4688 54.329 72.1241C54.329 72.0064 54.3614 71.8961 54.4179 71.8025C54.8396 70.9768 55.1704 69.1234 55.1102 67.2486C55.0917 66.6852 55.0379 66.1245 54.9388 65.5953C54.7126 66.6444 54.3874 67.6934 53.9741 68.6683C53.2976 70.2669 52.3783 71.6792 51.2579 72.605C51.1411 72.7014 51.0002 72.7477 50.8603 72.7477L47.9801 72.7487C47.8281 72.7487 47.6881 72.694 47.5797 72.6032C46.3083 71.6477 45.0665 70.2021 44.5809 68.2096C44.2074 66.6787 44.2852 64.8354 45.1527 62.6679ZM42.7506 80.8741C41.3698 80.8741 40.2503 79.7537 40.2503 78.3738C40.2503 76.993 41.3698 75.8736 42.7506 75.8736H65.2503C66.6311 75.8736 67.7506 76.993 67.7506 78.3738C67.7506 79.7537 66.6311 80.8741 65.2503 80.8741H42.7506ZM25.8075 42.9094C30.4772 41.1236 35.1404 39.7798 39.7925 38.8809C44.5058 37.9709 49.2432 37.5122 54 37.5094C58.7568 37.5122 63.4942 37.9709 68.2084 38.8809C72.9282 39.7928 77.66 41.1634 82.3983 42.9881C83.3861 43.3699 83.9913 44.3133 83.9922 45.3123H84.0006V87.5001H91.4995V27.5009H16.5005V87.5001H24.0004V45.3123C24.0004 44.1725 24.764 43.2096 25.8075 42.9094ZM40.7294 43.7832C36.8131 44.5394 32.9033 45.6256 29.0009 47.0379V87.5001H79V47.0379C75.0976 45.6256 71.1878 44.5394 67.2715 43.7832C62.826 42.9251 58.4019 42.4923 54 42.4896C49.599 42.4923 45.174 42.9251 40.7294 43.7832ZM98.9995 12.501H9.00056V22.5003H11.5008H14.0002H96.5001H98.9995V12.501Z" fill="#39BEB9"/>
</g>
<defs>
<filter id="filter0_d" x="0" y="0" width="108" height="108" filterUnits="userSpaceOnUse" color-interpolation-filters="sRGB">
<feFlood flood-opacity="0" result="BackgroundImageFix"/>
<feColorMatrix in="SourceAlpha" type="matrix" values="0 0 0 0 0 0 0 0 0 0 0 0 0 0 0 0 0 0 127 0"/>
<feOffset dy="4"/>
<feGaussianBlur stdDeviation="2"/>
<feColorMatrix type="matrix" values="0 0 0 0 0 0 0 0 0 0 0 0 0 0 0 0 0 0 0.25 0"/>
<feBlend mode="normal" in2="BackgroundImageFix" result="effect1_dropShadow"/>
<feBlend mode="normal" in="SourceGraphic" in2="effect1_dropShadow" result="shape"/>
</filter>
<clipPath id="clip0">
<rect width="100" height="100" fill="white" transform="translate(4)"/>
</clipPath>
</defs>
</svg>
