<svg width="100" height="108" viewBox="0 0 100 108" fill="none" xmlns="http://www.w3.org/2000/svg">
<g clip-path="url(#clip0)" filter="url(#filter0_d)">
<path d="M74.527 3.53935H58.2124V1.47852C58.2124 0.661952 57.5505 0.000211503 56.7339 0.000211503H51.6843C51.6835 0.000211503 51.6829 0 51.682 0H25.473C24.6565 0 23.9945 0.661952 23.9945 1.47852V3.59279C23.9945 4.35486 24.5739 4.9921 25.3326 5.06455L48.4597 7.2707C48.5212 7.40271 48.586 7.53282 48.6585 7.65892L25.2656 10.9733C24.5365 11.0766 23.9945 11.7008 23.9945 12.4373V15.5489C23.9945 16.3655 24.6565 17.0274 25.473 17.0274H45.1559V22.8202C38.1997 23.5604 32.7627 29.4584 32.7627 36.603V50.1269V72.6219V93.9292C32.7627 97.2768 35.4912 100 38.8449 100H65.0579C68.4118 100 71.1406 97.2766 71.1406 93.9292V72.6219V50.1269V36.603C71.1406 29.279 65.4229 23.2674 58.2122 22.7769V15.5491V13.0445H74.5268C75.3433 13.0445 76.0053 12.3826 76.0053 11.566V5.01787C76.0055 4.20131 75.3435 3.53935 74.527 3.53935ZM48.4236 2.95703C48.4061 2.99885 48.3913 3.04194 48.3746 3.08418C48.3577 3.12727 48.3406 3.17015 48.3247 3.21366C48.2958 3.29329 48.2694 3.37376 48.2438 3.45487C48.232 3.49246 48.2189 3.52964 48.2079 3.56745C48.1731 3.68657 48.1412 3.80654 48.1139 3.92778C48.1137 3.92863 48.1137 3.92947 48.1135 3.93032C48.089 4.03994 48.0677 4.15019 48.0497 4.26108L34.3781 2.95703H48.4236ZM26.9515 13.721L51.8894 10.1876C52.6186 10.0843 53.1605 9.46017 53.1605 8.72366V8.46239C53.1605 7.86887 52.8055 7.3328 52.2591 7.1011C51.6134 6.82736 51.1521 6.26869 50.9962 5.60927C50.9932 5.59407 50.9922 5.57886 50.9888 5.56386C50.9723 5.49078 50.9601 5.41728 50.9516 5.34378C50.9512 5.33976 50.9508 5.33596 50.9504 5.33195C50.9423 5.25866 50.9379 5.18557 50.9379 5.11313C50.9379 5.01491 50.9457 4.91585 50.958 4.81679C50.9595 4.80496 50.9603 4.79335 50.962 4.78152C50.9751 4.68731 50.9941 4.59353 51.0173 4.50039C51.0211 4.48497 51.0249 4.46976 51.0289 4.45455C51.0534 4.36289 51.0824 4.27227 51.1158 4.18335C51.121 4.16899 51.1267 4.15505 51.1324 4.14069C51.1679 4.0505 51.207 3.962 51.2505 3.87646C51.2549 3.8678 51.2598 3.85956 51.2642 3.8509C51.3109 3.76177 51.361 3.67517 51.4155 3.59321C51.4157 3.59279 51.4161 3.59237 51.4163 3.59195C51.4708 3.51021 51.5295 3.43353 51.5908 3.36088C51.5975 3.35285 51.6041 3.3444 51.6108 3.33659C51.6702 3.26794 51.7325 3.20458 51.7971 3.14586C51.8066 3.1372 51.8164 3.12833 51.8261 3.11988C51.8909 3.06306 51.9581 3.01152 52.0272 2.96632C52.032 2.96316 52.0369 2.96041 52.0415 2.95745H55.2554V5.01808V11.5662V14.0706H26.9515V13.721ZM55.2552 22.7406H48.1129V17.0276H55.2552V22.7406ZM68.1835 71.1434H35.7198V51.6054H68.1835V71.1434ZM65.0579 97.043H38.8449C37.1216 97.043 35.7198 95.6462 35.7198 93.9292V74.1004H68.1835V93.9292C68.1835 95.646 66.7815 97.043 65.0579 97.043ZM68.1835 36.603V48.6484H35.7198V36.603C35.7198 30.5898 40.616 25.6976 46.6344 25.6976H56.7337H57.2607C63.2835 25.6976 68.1835 30.5898 68.1835 36.603ZM73.0485 10.0875H58.2124V6.49638H73.0485V10.0875Z" fill="#39BEB9"/>
</g>
<defs>
<filter id="filter0_d" x="-4" y="0" width="108" height="108" filterUnits="userSpaceOnUse" color-interpolation-filters="sRGB">
<feFlood flood-opacity="0" result="BackgroundImageFix"/>
<feColorMatrix in="SourceAlpha" type="matrix" values="0 0 0 0 0 0 0 0 0 0 0 0 0 0 0 0 0 0 127 0"/>
<feOffset dy="4"/>
<feGaussianBlur stdDeviation="2"/>
<feColorMatrix type="matrix" values="0 0 0 0 0 0 0 0 0 0 0 0 0 0 0 0 0 0 0.25 0"/>
<feBlend mode="normal" in2="BackgroundImageFix" result="effect1_dropShadow"/>
<feBlend mode="normal" in="SourceGraphic" in2="effect1_dropShadow" result="shape"/>
</filter>
<clipPath id="clip0">
<rect width="100" height="100" fill="white"/>
</clipPath>
</defs>
</svg>
