<svg width="104" height="108" viewBox="0 0 104 108" fill="none" xmlns="http://www.w3.org/2000/svg">
<g clip-path="url(#clip0)" filter="url(#filter0_d)">
<path d="M43.6666 79.4125C21.8416 79.4125 4.08331 61.6542 4.08331 39.8292C4.08331 18.0042 21.8416 0.24585 43.6666 0.24585C65.4916 0.24585 83.25 18.0042 83.25 39.8292C83.25 61.6542 65.4916 79.4125 43.6666 79.4125ZM43.6666 4.41252C24.1375 4.41252 8.24998 20.3 8.24998 39.8292C8.24998 59.3583 24.1375 75.2458 43.6666 75.2458C63.1958 75.2458 79.0833 59.3583 79.0833 39.8292C79.0833 20.3 63.1958 4.41252 43.6666 4.41252Z" fill="#39BEB9"/>
<path d="M43.6666 46.0791C40.2208 46.0791 37.4166 43.2749 37.4166 39.8291C37.4166 36.3833 40.2208 33.5791 43.6666 33.5791C47.1125 33.5791 49.9166 36.3833 49.9166 39.8291C49.9166 43.2749 47.1125 46.0791 43.6666 46.0791ZM43.6666 37.7458C42.5208 37.7458 41.5833 38.6791 41.5833 39.8291C41.5833 40.9791 42.5208 41.9124 43.6666 41.9124C44.8125 41.9124 45.75 40.9791 45.75 39.8291C45.75 38.6791 44.8125 37.7458 43.6666 37.7458Z" fill="#39BEB9"/>
<path d="M14.5 41.9124C13.35 41.9124 12.4166 40.9791 12.4166 39.8291C12.4166 22.5958 26.4333 8.5791 43.6666 8.5791C44.8166 8.5791 45.75 9.51243 45.75 10.6624C45.75 11.8124 44.8166 12.7458 43.6666 12.7458C28.7333 12.7458 16.5833 24.8958 16.5833 39.8291C16.5833 40.9833 15.65 41.9124 14.5 41.9124Z" fill="#39BEB9"/>
<path d="M52 100.246H35.3333C29.5875 100.246 24.9166 95.5709 24.9166 89.8293V75.2459C24.9166 74.0959 25.85 73.1626 27 73.1626C28.15 73.1626 29.0833 74.0959 29.0833 75.2459V89.8293C29.0833 93.2751 31.8875 96.0793 35.3333 96.0793H52C55.4458 96.0793 58.25 93.2751 58.25 89.8293V75.2459C58.25 74.0959 59.1833 73.1626 60.3333 73.1626C61.4833 73.1626 62.4166 74.0959 62.4166 75.2459V89.8293C62.4166 95.5751 57.7458 100.246 52 100.246Z" fill="#39BEB9"/>
<path d="M56.1667 91.9125H47.8333C46.6833 91.9125 45.75 90.9792 45.75 89.8292C45.75 88.6792 46.6833 87.7458 47.8333 87.7458H56.1667C75.6958 87.7458 91.5833 71.8583 91.5833 52.3292V39.8292C91.5833 38.6792 92.5167 37.7458 93.6667 37.7458C94.8167 37.7458 95.75 38.6792 95.75 39.8292V52.3292C95.75 74.1583 77.9917 91.9125 56.1667 91.9125Z" fill="#39BEB9"/>
<path d="M93.6666 41.9125C90.1625 41.9125 87.4166 38.2542 87.4166 33.5792C87.4166 28.9042 90.1625 25.2458 93.6666 25.2458C97.1708 25.2458 99.9166 28.9042 99.9166 33.5792C99.9166 38.2542 97.1708 41.9125 93.6666 41.9125ZM93.6666 29.4125C92.8166 29.4125 91.5833 31.0375 91.5833 33.5792C91.5833 36.1208 92.8166 37.7458 93.6666 37.7458C94.5166 37.7458 95.75 36.1208 95.75 33.5792C95.75 31.0375 94.5166 29.4125 93.6666 29.4125Z" fill="#39BEB9"/>
</g>
<defs>
<filter id="filter0_d" x="-2" y="0" width="108" height="108" filterUnits="userSpaceOnUse" color-interpolation-filters="sRGB">
<feFlood flood-opacity="0" result="BackgroundImageFix"/>
<feColorMatrix in="SourceAlpha" type="matrix" values="0 0 0 0 0 0 0 0 0 0 0 0 0 0 0 0 0 0 127 0"/>
<feOffset dy="4"/>
<feGaussianBlur stdDeviation="2"/>
<feColorMatrix type="matrix" values="0 0 0 0 0 0 0 0 0 0 0 0 0 0 0 0 0 0 0.25 0"/>
<feBlend mode="normal" in2="BackgroundImageFix" result="effect1_dropShadow"/>
<feBlend mode="normal" in="SourceGraphic" in2="effect1_dropShadow" result="shape"/>
</filter>
<clipPath id="clip0">
<rect width="100" height="100" fill="white" transform="translate(2)"/>
</clipPath>
</defs>
</svg>
