<svg width="100" height="102" viewBox="0 0 100 102" fill="none" xmlns="http://www.w3.org/2000/svg">
<g filter="url(#filter0_d)">
<path d="M50.2354 59.275C51.3854 59.275 52.3187 58.3438 52.3187 57.1917V48.5396C52.3187 47.3875 51.3854 46.4563 50.2354 46.4563C49.0854 46.4563 48.1521 47.3875 48.1521 48.5396V57.1917C48.1521 58.3438 49.0854 59.275 50.2354 59.275Z" fill="#39BEB9"/>
<path d="M71.0833 13.229H29.4583C28.3083 13.229 27.375 14.1603 27.375 15.3123V22.6873C27.375 25.1748 27.7833 27.6498 28.5896 30.0478C29.5208 32.7748 30.9375 35.2769 32.7979 37.4832C34.2187 39.1769 35.8792 40.6415 37.7479 41.8561V81.2707C37.7479 88.1644 43.3646 93.7707 50.2687 93.7707C56.6917 93.7707 62.0604 88.8519 62.6833 82.379C62.6854 82.3665 62.6937 82.3561 62.6958 82.3436C62.7062 82.2811 62.7021 82.2123 62.7104 82.1478C62.7146 82.0894 62.725 82.0332 62.7292 81.9769V81.8644C62.7438 81.6623 62.7708 81.4644 62.7708 81.2686C62.7708 81.0769 62.7438 80.8748 62.7292 80.6728V41.9123C64.6063 40.6894 66.2938 39.2061 67.7604 37.4832C69.5813 35.3165 70.975 32.8603 71.9021 30.1915C72.7396 27.8103 73.1646 25.2873 73.1646 22.6853V15.3123C73.1667 14.1603 72.2354 13.229 71.0833 13.229ZM31.5417 17.3957H69V20.604H31.5417V17.3957ZM67.9708 28.8165C67.2062 31.0123 66.0625 33.0269 64.5792 34.7936C63.1646 36.4561 61.4917 37.8519 59.6021 38.9457C58.9583 39.3186 58.5625 40.0061 58.5625 40.7478L58.5667 80.5415C58.5667 80.5478 58.5625 80.554 58.5625 80.5623V81.8665C58.2646 86.2061 54.6292 89.604 50.2708 89.604C45.6646 89.604 41.9167 85.8665 41.9167 81.2707V40.6873C41.9167 39.9436 41.5187 39.254 40.8729 38.8832C38.9979 37.8019 37.3562 36.4311 35.9875 34.8019C34.4583 32.9873 33.2958 30.9353 32.5354 28.7082C32.1021 27.4186 31.8083 26.0998 31.6583 24.7686H68.8875C68.7354 26.1623 68.4292 27.5144 67.9708 28.8165Z" fill="#39BEB9"/>
<path d="M34.6458 10.4604H65.8958C67.0479 10.4604 67.9792 9.52912 67.9792 8.37703C67.9792 7.22495 67.0479 6.2937 65.8958 6.2937H34.6458C33.4958 6.2937 32.5625 7.22495 32.5625 8.37703C32.5625 9.52912 33.4958 10.4604 34.6458 10.4604Z" fill="#39BEB9"/>
</g>
<defs>
<filter id="filter0_d" x="-4" y="0" width="108" height="108" filterUnits="userSpaceOnUse" color-interpolation-filters="sRGB">
<feFlood flood-opacity="0" result="BackgroundImageFix"/>
<feColorMatrix in="SourceAlpha" type="matrix" values="0 0 0 0 0 0 0 0 0 0 0 0 0 0 0 0 0 0 127 0"/>
<feOffset dy="4"/>
<feGaussianBlur stdDeviation="2"/>
<feColorMatrix type="matrix" values="0 0 0 0 0 0 0 0 0 0 0 0 0 0 0 0 0 0 0.25 0"/>
<feBlend mode="normal" in2="BackgroundImageFix" result="effect1_dropShadow"/>
<feBlend mode="normal" in="SourceGraphic" in2="effect1_dropShadow" result="shape"/>
</filter>
</defs>
</svg>
