<svg width="100" height="100" viewBox="0 0 100 100" fill="none" xmlns="http://www.w3.org/2000/svg">
<g filter="url(#filter0_d)">
<path d="M87.7286 25.1214H83.9428C83.4386 21.5907 80.1761 18.25 75.8714 18.25H52.7857C48.3036 18.25 44.6 21.958 44.6 26.4214V51.3642C44.6 55.8642 48.2714 59.5357 52.7857 59.5357H52.8143V63.4928H40.0714V20.0214C40.0714 16.3785 37.1 13.4214 33.4571 13.4214H14.8428C11.2 13.4214 8.24285 16.3785 8.24285 20.0214V63.4928H8.12856C6.01428 63.4928 4.28571 65.2214 4.28571 67.3357V75.5785C4.28571 77.6928 6.01428 79.4214 8.12842 79.4214H13.5714V85.5071C13.5714 86.0928 14.0571 86.5785 14.6428 86.5785H24.9857C25.5714 86.5785 26.0571 86.0928 26.0571 85.5071V79.4214H71.1428V85.5071C71.1428 86.0928 71.6143 86.5785 72.2143 86.5785H82.5428C83.1428 86.5785 83.6143 86.0928 83.6143 85.5071V79.4214H89.0714C91.1857 79.4214 92.9 77.6928 92.9 75.5785V67.3357C92.9 65.2214 91.1857 63.4928 89.0714 63.4928H75.8428V59.5357C75.9857 59.4787 82.8628 59.4954 83.9428 52.6642H87.7286C92.1286 52.6642 95.7143 49.0785 95.7143 44.6785V33.1071C95.7143 28.7071 92.1286 25.1214 87.7286 25.1214ZM52.7857 20.3928H75.8714C78.8993 20.3928 81.1084 22.526 81.7286 25.0071H46.9429C47.7134 21.924 50.371 20.3928 52.7857 20.3928ZM10.3857 20.0214C10.3857 17.5642 12.3857 15.5642 14.8428 15.5642H33.4571C35.9143 15.5642 37.9286 17.5642 37.9286 20.0214V63.4928H10.3857V20.0214ZM23.9143 84.4357H15.7143V79.4214H23.9143V84.4357ZM81.4714 84.4357H73.2857V79.4214H81.4714V84.4357ZM90.7571 67.3357V75.5785C90.7571 76.5071 90 77.2785 89.0714 77.2785C8.57642 77.2785 91.7306 77.2785 8.12856 77.2785C7.18571 77.2785 6.42871 76.5071 6.42871 75.5785V67.3357C6.42871 66.3928 7.18585 65.6357 8.12856 65.6357C20.3968 65.6357 81.3823 65.6357 89.0714 65.6357C90 65.6357 90.7571 66.3928 90.7571 67.3357ZM73.7 63.4928H54.9571V59.5357C60.285 59.5357 63.978 59.5357 73.7 59.5357V63.4928ZM73.0143 48.6785C73.9286 48.6785 74.6571 49.4071 74.6571 50.3214C74.6571 51.2214 73.9287 51.9642 73.0143 51.9642C68.6431 51.9642 60.0124 51.9642 55.6428 51.9642C54.7286 51.9642 54 51.2214 54 50.3214C54 49.4071 54.7286 48.6785 55.6428 48.6785C55.8583 48.6785 73.2834 48.6785 73.0143 48.6785ZM65.9714 46.5357H62.6857V34.2642C62.6857 33.35 63.4286 32.6214 64.3286 32.6214C65.2428 32.6214 65.9714 33.35 65.9714 34.2642V46.5357ZM58.9 54.1071H69.7571V57.3928H58.9V54.1071ZM75.8714 57.3928C75.4966 57.3928 71.7241 57.3928 71.9 57.3928V54.1071H73.0143C74.2429 54.1071 75.3286 53.5214 76.0143 52.6071C76.5143 51.9787 76.8 51.1785 76.8 50.3214C76.8 49.0785 76.2 47.9642 75.2571 47.2928C74.6286 46.8214 73.8571 46.5357 73.0143 46.5357H68.1143V34.2642C68.1143 32.1785 66.4143 30.4785 64.3286 30.4785C62.2428 30.4785 60.5429 32.1785 60.5429 34.2642V46.5357H55.6428C53.5571 46.5357 51.8571 48.2357 51.8571 50.3214C51.8571 52.4071 53.5571 54.1071 55.6428 54.1071H56.7571V57.3928C56.2868 57.3928 52.5693 57.3928 52.7857 57.3928C49.4571 57.3928 46.7429 54.6928 46.7429 51.3642V27.15C68.2976 27.15 69.4847 27.15 81.9143 27.15V27.2642C81.9143 53.495 81.9766 51.8148 81.7714 52.6642C81.1713 55.3642 78.757 57.3928 75.8714 57.3928ZM84.0571 32.7928H87.7286C87.9 32.7928 88.0429 32.9357 88.0429 33.1071V44.6785C88.0429 44.85 87.9 44.9928 87.7286 44.9928H84.0571V32.7928ZM93.5714 44.6785C93.5714 47.9071 90.9428 50.5214 87.7286 50.5214H84.0571V47.1357H87.7286C89.0714 47.1357 90.1857 46.0357 90.1857 44.6785V33.1071C90.1857 31.75 89.0714 30.65 87.7286 30.65H84.0571V27.2642H87.7286C90.9428 27.2642 93.5714 29.8785 93.5714 33.1071V44.6785Z" fill="#39BEB9"/>
<path d="M24.1571 44.1785C19.9 44.1785 16.4571 47.6356 16.4571 51.8785C16.4571 56.1213 19.9 59.5785 24.1571 59.5785C28.4 59.5785 31.8571 56.1213 31.8571 51.8785C31.8571 47.6356 28.3998 44.1785 24.1571 44.1785ZM24.1571 57.4356C21.0857 57.4356 18.6 54.9356 18.6 51.8785C18.6 48.8213 21.0857 46.3213 24.1571 46.3213C27.2143 46.3213 29.7143 48.8213 29.7143 51.8785C29.7143 54.9356 27.2143 57.4356 24.1571 57.4356Z" fill="#39BEB9"/>
<path d="M24.1571 43.1071C27.2714 43.1071 29.8 40.5786 29.8 37.4786C29.8 34.3643 27.2714 31.8357 24.1571 31.8357C21.0429 31.8357 18.5143 34.3643 18.5143 37.4786C18.5143 40.5786 21.0429 43.1071 24.1571 43.1071ZM24.1571 33.9786C26.0857 33.9786 27.6571 35.55 27.6571 37.4786C27.6571 39.3928 26.0857 40.9643 24.1571 40.9643C22.2286 40.9643 20.6571 39.3928 20.6571 37.4786C20.6571 35.55 22.2286 33.9786 24.1571 33.9786Z" fill="#39BEB9"/>
<path d="M24.1571 30.7642C27.2714 30.7642 29.8 28.2357 29.8 25.1214C29.8 22.0071 27.2714 19.4785 24.1571 19.4785C21.0429 19.4785 18.5143 22.0071 18.5143 25.1214C18.5143 28.2357 21.0429 30.7642 24.1571 30.7642ZM24.1571 21.6214C26.0857 21.6214 27.6571 23.1928 27.6571 25.1214C27.6571 27.0499 26.0857 28.6214 24.1571 28.6214C22.2286 28.6214 20.6571 27.0499 20.6571 25.1214C20.6571 23.1928 22.2286 21.6214 24.1571 21.6214Z" fill="#39BEB9"/>
</g>
<defs>
<filter id="filter0_d" x="-4" y="0" width="108" height="108" filterUnits="userSpaceOnUse" color-interpolation-filters="sRGB">
<feFlood flood-opacity="0" result="BackgroundImageFix"/>
<feColorMatrix in="SourceAlpha" type="matrix" values="0 0 0 0 0 0 0 0 0 0 0 0 0 0 0 0 0 0 127 0"/>
<feOffset dy="4"/>
<feGaussianBlur stdDeviation="2"/>
<feColorMatrix type="matrix" values="0 0 0 0 0 0 0 0 0 0 0 0 0 0 0 0 0 0 0.25 0"/>
<feBlend mode="normal" in2="BackgroundImageFix" result="effect1_dropShadow"/>
<feBlend mode="normal" in="SourceGraphic" in2="effect1_dropShadow" result="shape"/>
</filter>
</defs>
</svg>
