<svg width="102" height="101" viewBox="0 0 102 101" fill="none" xmlns="http://www.w3.org/2000/svg">
<g filter="url(#filter0_d)">
<path d="M88.5 54.25L96.8125 51.4844C97.1211 51.3767 97.3888 51.1763 97.579 50.9106C97.7692 50.6449 97.8726 50.3268 97.875 50V43.75C97.875 43.3356 97.7104 42.9382 97.4174 42.6451C97.1243 42.3521 96.7269 42.1875 96.3125 42.1875H88.5V39.0625H90.0625C90.4769 39.0625 90.8743 38.8979 91.1674 38.6049C91.4604 38.3118 91.625 37.9144 91.625 37.5V34.375C91.6213 33.1329 91.1262 31.9428 90.248 31.0645C89.3697 30.1863 88.1796 29.6912 86.9375 29.6875H84.9375L84.3125 27.7969C83.5876 25.6182 82.1954 23.723 80.3333 22.3797C78.4712 21.0364 76.2336 20.3132 73.9375 20.3125H64.9687C64.5712 16.8866 62.9285 13.7263 60.353 11.4324C57.7775 9.13852 54.4489 7.87109 51 7.87109C47.5511 7.87109 44.2225 9.13852 41.647 11.4324C39.0715 13.7263 37.4288 16.8866 37.0312 20.3125H28.0625C25.7664 20.3132 23.5288 21.0364 21.6667 22.3797C19.8046 23.723 18.4124 25.6182 17.6875 27.7969L17.0625 29.6875H15.0625C13.8204 29.6912 12.6303 30.1863 11.752 31.0645C10.8738 31.9428 10.3787 33.1329 10.375 34.375V37.5C10.375 37.9144 10.5396 38.3118 10.8326 38.6049C11.1257 38.8979 11.5231 39.0625 11.9375 39.0625H13.5V42.1875H5.6875C5.2731 42.1875 4.87567 42.3521 4.58265 42.6451C4.28962 42.9382 4.125 43.3356 4.125 43.75V50C4.12739 50.3268 4.23078 50.6449 4.42099 50.9106C4.6112 51.1763 4.87894 51.3767 5.1875 51.4844L13.5 54.25V59.375H5.6875C5.2731 59.375 4.87567 59.5396 4.58265 59.8326C4.28962 60.1257 4.125 60.5231 4.125 60.9375V67.1875C4.12739 67.5143 4.23078 67.8324 4.42099 68.0981C4.6112 68.3638 4.87894 68.5642 5.1875 68.6719L13.5 71.4375V78.125C13.5046 79.9247 14.1283 81.668 15.2664 83.0622C16.4045 84.4563 17.9877 85.4164 19.75 85.7813V90.625C19.75 91.0394 19.9146 91.4368 20.2076 91.7299C20.5007 92.0229 20.8981 92.1875 21.3125 92.1875H27.5625C27.9767 92.1844 28.3739 92.0222 28.6719 91.7344L34.4531 85.9375H67.5469L73.3281 91.7344C73.6261 92.0222 74.0233 92.1844 74.4375 92.1875H80.6875C81.1019 92.1875 81.4993 92.0229 81.7924 91.7299C82.0854 91.4368 82.25 91.0394 82.25 90.625V85.7813C84.0123 85.4164 85.5955 84.4563 86.7336 83.0622C87.8717 81.668 88.4954 79.9247 88.5 78.125V71.4375L96.8125 68.6719C97.1211 68.5642 97.3888 68.3638 97.579 68.0981C97.7692 67.8324 97.8726 67.5143 97.875 67.1875V60.9375C97.875 60.5231 97.7104 60.1257 97.4174 59.8326C97.1243 59.5396 96.7269 59.375 96.3125 59.375H88.5V54.25ZM13.5 68.1406L7.25 66.0625V62.5H13.5V68.1406ZM13.5 50.9531L7.25 48.875V45.3125H13.5V50.9531ZM94.75 45.3125V48.875L88.5 50.9531V45.3125H94.75ZM51 10.9375C53.6279 10.9406 56.1668 11.8897 58.1523 13.6112C60.1378 15.3327 61.4371 17.7116 61.8125 20.3125H58.6563C58.2976 18.5464 57.3395 16.9586 55.9442 15.8182C54.5488 14.6777 52.8021 14.0547 51 14.0547C49.1979 14.0547 47.4512 14.6777 46.0558 15.8182C44.6605 16.9586 43.7024 18.5464 43.3438 20.3125H40.1875C40.5629 17.7116 41.8622 15.3327 43.8477 13.6112C45.8332 11.8897 48.3721 10.9406 51 10.9375ZM55.4062 20.3125H46.5938C46.9137 19.3991 47.5096 18.6077 48.299 18.0478C49.0883 17.4879 50.0322 17.1872 51 17.1872C51.9678 17.1872 52.9117 17.4879 53.701 18.0478C54.4904 18.6077 55.0863 19.3991 55.4062 20.3125ZM20.6562 28.7813C21.1715 27.2246 22.1647 25.8701 23.4944 24.9106C24.8242 23.9512 26.4227 23.4357 28.0625 23.4375H73.9375C75.5773 23.4357 77.1758 23.9512 78.5056 24.9106C79.8353 25.8701 80.8285 27.2246 81.3438 28.7813L81.6406 29.6875H20.3594L20.6562 28.7813ZM26.9219 89.0625H22.875V85.9375H30.0469L26.9219 89.0625ZM60.375 82.8125H41.625V73.4375C41.625 70.9511 42.6127 68.5665 44.3709 66.8084C46.129 65.0502 48.5136 64.0625 51 64.0625C53.4864 64.0625 55.871 65.0502 57.6291 66.8084C59.3873 68.5665 60.375 70.9511 60.375 73.4375V82.8125ZM79.125 89.0625H75.0781L71.9531 85.9375H79.125V89.0625ZM85.375 78.125C85.3713 79.3671 84.8762 80.5572 83.998 81.4355C83.1197 82.3137 81.9296 82.8088 80.6875 82.8125H63.5V73.4375C63.5 70.1223 62.183 66.9429 59.8388 64.5987C57.4946 62.2545 54.3152 60.9375 51 60.9375C47.6848 60.9375 44.5054 62.2545 42.1612 64.5987C39.817 66.9429 38.5 70.1223 38.5 73.4375V82.8125H21.3125C20.0704 82.8088 18.8803 82.3137 18.002 81.4355C17.1238 80.5572 16.6287 79.3671 16.625 78.125V57.8125H85.375V78.125ZM85.375 54.6875H16.625V39.0625H85.375V54.6875ZM94.75 62.5V66.0625L88.5 68.1406V62.5H94.75ZM13.5 35.9375V34.375C13.5 33.9606 13.6646 33.5632 13.9576 33.2701C14.2507 32.9771 14.6481 32.8125 15.0625 32.8125H86.9375C87.3519 32.8125 87.7493 32.9771 88.0424 33.2701C88.3354 33.5632 88.5 33.9606 88.5 34.375V35.9375H13.5Z" fill="#39BEB9"/>
<path d="M51 67.1875C49.7639 67.1875 48.5555 67.5541 47.5277 68.2408C46.4999 68.9276 45.6988 69.9037 45.2258 71.0457C44.7527 72.1878 44.6289 73.4444 44.8701 74.6568C45.1113 75.8692 45.7065 76.9828 46.5806 77.8569C47.4547 78.731 48.5683 79.3263 49.7807 79.5674C50.9931 79.8086 52.2497 79.6848 53.3918 79.2117C54.5338 78.7387 55.5099 77.9376 56.1967 76.9098C56.8834 75.882 57.25 74.6736 57.25 73.4375C57.25 71.7799 56.5915 70.1902 55.4194 69.0181C54.2473 67.846 52.6576 67.1875 51 67.1875ZM51 76.5625C50.3819 76.5625 49.7777 76.3792 49.2638 76.0358C48.7499 75.6925 48.3494 75.2044 48.1129 74.6334C47.8764 74.0624 47.8145 73.434 47.935 72.8278C48.0556 72.2216 48.3533 71.6648 48.7903 71.2278C49.2273 70.7907 49.7842 70.4931 50.3903 70.3725C50.9965 70.252 51.6249 70.3139 52.1959 70.5504C52.7669 70.7869 53.255 71.1874 53.5983 71.7013C53.9417 72.2152 54.125 72.8194 54.125 73.4375C54.125 74.2663 53.7958 75.0612 53.2097 75.6472C52.6237 76.2333 51.8288 76.5625 51 76.5625Z" fill="#39BEB9"/>
</g>
<defs>
<filter id="filter0_d" x="-3" y="0" width="108" height="108" filterUnits="userSpaceOnUse" color-interpolation-filters="sRGB">
<feFlood flood-opacity="0" result="BackgroundImageFix"/>
<feColorMatrix in="SourceAlpha" type="matrix" values="0 0 0 0 0 0 0 0 0 0 0 0 0 0 0 0 0 0 127 0"/>
<feOffset dy="4"/>
<feGaussianBlur stdDeviation="2"/>
<feColorMatrix type="matrix" values="0 0 0 0 0 0 0 0 0 0 0 0 0 0 0 0 0 0 0.25 0"/>
<feBlend mode="normal" in2="BackgroundImageFix" result="effect1_dropShadow"/>
<feBlend mode="normal" in="SourceGraphic" in2="effect1_dropShadow" result="shape"/>
</filter>
</defs>
</svg>
