<svg width="100" height="103" viewBox="0 0 100 103" fill="none" xmlns="http://www.w3.org/2000/svg">
<g filter="url(#filter0_d)">
<path d="M73.747 10.17C73.002 10.17 72.397 10.774 72.397 11.518C72.397 12.264 73.001 12.868 73.747 12.868C74.493 12.868 75.096 12.264 75.096 11.518C75.096 10.773 74.492 10.17 73.747 10.17ZM80.02 4.96802H19.58C17.382 4.96802 15.594 6.75602 15.594 8.95402V82.347C15.594 88.856 19.078 91.964 22.001 93.425C25.05 94.949 28.087 94.968 28.214 94.968H71.386C77.896 94.968 81.004 91.484 82.465 88.561C83.989 85.511 84.007 82.474 84.007 82.347V8.95502C84.007 6.75602 82.219 4.96802 80.02 4.96802ZM80.352 82.348C80.352 82.365 80.321 84.744 79.145 87.027C77.681 89.872 75.07 91.314 71.386 91.314H28.213C28.196 91.313 25.817 91.282 23.534 90.107C20.69 88.642 19.248 86.032 19.248 82.348V37.456H71.723V46.596C71.723 47.713 72.63 48.618 73.747 48.618C74.864 48.618 75.77 47.712 75.77 46.596V37.456H80.351V82.348H80.352ZM80.352 36.847H75.771V27.708C75.771 26.59 74.865 25.683 73.748 25.683C72.631 25.683 71.724 26.59 71.724 27.708V36.847H19.248V14.521H80.352V36.847ZM80.352 13.911H19.248V8.95502C19.248 8.77302 19.396 8.62402 19.579 8.62402H80.019C80.202 8.62402 80.351 8.77302 80.351 8.95502V13.911H80.352Z" fill="#39BEB9"/>
<path d="M37.997 25.006C38.16 25.049 38.326 24.953 38.37 24.79C38.377 24.764 38.38 24.737 38.38 24.711C38.38 24.576 38.29 24.453 38.154 24.417C38.154 24.417 36.133 23.876 35.178 23.62L37.462 22.302C37.608 22.218 37.658 22.031 37.573 21.886C37.489 21.74 37.302 21.69 37.157 21.775L34.873 23.093C35.129 22.139 35.67 20.117 35.67 20.117C35.677 20.091 35.68 20.064 35.68 20.038C35.68 19.903 35.59 19.78 35.454 19.744C35.291 19.7 35.124 19.797 35.081 19.959L34.126 23.523L31.187 25.219V21.825L33.796 19.216C33.915 19.097 33.915 18.904 33.796 18.785C33.677 18.667 33.484 18.667 33.365 18.785C33.365 18.785 31.886 20.265 31.186 20.964V18.326C31.186 18.158 31.05 18.021 30.882 18.021C30.714 18.021 30.577 18.157 30.577 18.326V20.964C29.879 20.265 28.4 18.785 28.4 18.785C28.281 18.667 28.088 18.667 27.969 18.785C27.85 18.904 27.85 19.097 27.969 19.216L30.577 21.825V25.219L27.638 23.523L26.683 19.959C26.64 19.796 26.473 19.7 26.31 19.744C26.174 19.78 26.084 19.903 26.084 20.038C26.084 20.064 26.087 20.09 26.094 20.117C26.094 20.117 26.636 22.138 26.891 23.093L24.606 21.775C24.461 21.691 24.274 21.74 24.19 21.886C24.106 22.032 24.156 22.218 24.301 22.302L26.586 23.62C25.631 23.876 23.611 24.417 23.611 24.417C23.475 24.454 23.385 24.577 23.385 24.711C23.385 24.737 23.388 24.764 23.396 24.79C23.439 24.953 23.606 25.049 23.769 25.006L27.332 24.051L30.271 25.748L27.333 27.444L23.77 26.489C23.607 26.446 23.44 26.542 23.397 26.704C23.39 26.731 23.386 26.757 23.386 26.784C23.386 26.918 23.476 27.041 23.612 27.078C23.612 27.078 25.633 27.62 26.588 27.875L24.303 29.194C24.158 29.278 24.108 29.464 24.192 29.61C24.275 29.756 24.462 29.806 24.608 29.721L26.892 28.402C26.637 29.357 26.095 31.378 26.095 31.378C26.088 31.404 26.085 31.431 26.085 31.457C26.085 31.592 26.174 31.715 26.311 31.751C26.474 31.794 26.641 31.698 26.684 31.536L27.639 27.973L30.578 26.276V29.67L27.97 32.279C27.851 32.398 27.851 32.591 27.97 32.71C28.089 32.829 28.282 32.829 28.401 32.71C28.401 32.71 29.88 31.231 30.578 30.531V33.169C30.578 33.337 30.715 33.474 30.883 33.474C31.051 33.474 31.187 33.337 31.187 33.169V30.531C31.886 31.23 33.366 32.71 33.366 32.71C33.485 32.829 33.678 32.829 33.797 32.71C33.916 32.591 33.916 32.398 33.797 32.279L31.188 29.67V26.276L34.127 27.972L35.082 31.536C35.125 31.698 35.292 31.795 35.455 31.751C35.591 31.715 35.681 31.591 35.681 31.457C35.681 31.431 35.678 31.405 35.671 31.378C35.671 31.378 35.129 29.357 34.874 28.402L37.158 29.721C37.304 29.805 37.49 29.755 37.574 29.609C37.658 29.463 37.608 29.277 37.463 29.193L35.179 27.875C36.134 27.619 38.155 27.077 38.155 27.077C38.291 27.04 38.381 26.917 38.381 26.783C38.381 26.758 38.378 26.731 38.371 26.704C38.327 26.541 38.161 26.445 37.998 26.489L34.434 27.444L31.495 25.748L34.434 24.051L37.997 25.006Z" fill="#39BEB9"/>
</g>
<defs>
<filter id="filter0_d" x="-4" y="0" width="108" height="108" filterUnits="userSpaceOnUse" color-interpolation-filters="sRGB">
<feFlood flood-opacity="0" result="BackgroundImageFix"/>
<feColorMatrix in="SourceAlpha" type="matrix" values="0 0 0 0 0 0 0 0 0 0 0 0 0 0 0 0 0 0 127 0"/>
<feOffset dy="4"/>
<feGaussianBlur stdDeviation="2"/>
<feColorMatrix type="matrix" values="0 0 0 0 0 0 0 0 0 0 0 0 0 0 0 0 0 0 0.25 0"/>
<feBlend mode="normal" in2="BackgroundImageFix" result="effect1_dropShadow"/>
<feBlend mode="normal" in="SourceGraphic" in2="effect1_dropShadow" result="shape"/>
</filter>
</defs>
</svg>
