<svg height='100px' width='100px'  fill="#000000" xmlns="http://www.w3.org/2000/svg" viewBox="0 0 60 60" x="0px" y="0px"><defs><style>.cls-1{fill:none;stroke:#000000;stroke-linecap:round;stroke-linejoin:round;stroke-width:2px;}</style></defs><title>Household Appliances - Outline - 004 - Fridge</title><path class="cls-1" d="M15,1H45a1,1,0,0,1,1,1V56a0,0,0,0,1,0,0H14a0,0,0,0,1,0,0V2A1,1,0,0,1,15,1Z"></path><path class="cls-1" d="M15,56h5a0,0,0,0,1,0,0v2a1,1,0,0,1-1,1H16a1,1,0,0,1-1-1V56A0,0,0,0,1,15,56Z"></path><path class="cls-1" d="M40,56h5a0,0,0,0,1,0,0v2a1,1,0,0,1-1,1H41a1,1,0,0,1-1-1V56A0,0,0,0,1,40,56Z"></path><line class="cls-1" x1="14" y1="25" x2="46" y2="25"></line><line class="cls-1" x1="14" y1="29" x2="45" y2="29"></line><path class="cls-1" d="M44,8h2a0,0,0,0,1,0,0V18a0,0,0,0,1,0,0H44a2,2,0,0,1-2-2V10A2,2,0,0,1,44,8Z"></path><path class="cls-1" d="M44,37h2a0,0,0,0,1,0,0V47a0,0,0,0,1,0,0H44a2,2,0,0,1-2-2V39A2,2,0,0,1,44,37Z"></path></svg>