<svg width="100" height="108" viewBox="0 0 100 108" fill="none" xmlns="http://www.w3.org/2000/svg">
<g filter="url(#filter0_d)">
<path d="M81.6667 1.66675H18.3333C16.4924 1.66675 15 3.15913 15 5.00008V88.3334C15 90.1744 16.4924 91.6667 18.3333 91.6667H81.6667C83.5076 91.6667 85 90.1744 85 88.3334V5.00008C85 3.15913 83.5076 1.66675 81.6667 1.66675Z" stroke="#39BEB9" stroke-width="3.33333" stroke-linecap="round" stroke-linejoin="round"/>
<path d="M20 91.6667H26.6667V96.6667C26.6667 97.1088 26.4911 97.5327 26.1785 97.8453C25.866 98.1578 25.442 98.3334 25 98.3334H21.6667C21.2246 98.3334 20.8007 98.1578 20.4882 97.8453C20.1756 97.5327 20 97.1088 20 96.6667V91.6667Z" stroke="#39BEB9" stroke-width="3.33333" stroke-linecap="round" stroke-linejoin="round"/>
<path d="M73.3333 91.6667H80V96.6667C80 97.1088 79.8244 97.5327 79.5118 97.8453C79.1993 98.1578 78.7754 98.3334 78.3333 98.3334H75C74.558 98.3334 74.1341 98.1578 73.8215 97.8453C73.5089 97.5327 73.3333 97.1088 73.3333 96.6667V91.6667Z" stroke="#39BEB9" stroke-width="3.33333" stroke-linecap="round" stroke-linejoin="round"/>
<path d="M23.3333 91.6667L26.281 69.5595C26.3877 68.7589 26.7816 68.0242 27.3893 67.4922C27.997 66.9601 28.7773 66.6668 29.585 66.6667H70.415C71.2227 66.6667 72.003 66.96 72.6107 67.4921C73.2185 68.0242 73.6123 68.7589 73.7191 69.5595L76.6667 91.6667" stroke="#39BEB9" stroke-width="3.33333" stroke-linecap="round" stroke-linejoin="round"/>
<path d="M38.3333 85C41.0948 85 43.3333 82.7614 43.3333 80C43.3333 77.2386 41.0948 75 38.3333 75C35.5719 75 33.3333 77.2386 33.3333 80C33.3333 82.7614 35.5719 85 38.3333 85Z" stroke="#39BEB9" stroke-width="3.33333" stroke-linecap="round" stroke-linejoin="round"/>
<path d="M38.3333 73.3333V76.6666" stroke="#39BEB9" stroke-width="3.33333" stroke-linecap="round" stroke-linejoin="round"/>
<path d="M61.6667 85C64.4281 85 66.6667 82.7614 66.6667 80C66.6667 77.2386 64.4281 75 61.6667 75C58.9052 75 56.6667 77.2386 56.6667 80C56.6667 82.7614 58.9052 85 61.6667 85Z" stroke="#39BEB9" stroke-width="3.33333" stroke-linecap="round" stroke-linejoin="round"/>
<path d="M61.6667 73.3333V76.6666" stroke="#39BEB9" stroke-width="3.33333" stroke-linecap="round" stroke-linejoin="round"/>
<path fill-rule="evenodd" clip-rule="evenodd" d="M50 13.3333C50 13.3333 38.3333 27.9516 38.3333 34.2166C38.2344 37.4133 39.4069 40.5189 41.5938 42.8526C43.7807 45.1864 46.8036 46.5579 50 46.6666C53.1964 46.5579 56.2194 45.1864 58.4063 42.8526C60.5932 40.5189 61.7656 37.4133 61.6667 34.2166C61.6667 27.9516 50 13.3333 50 13.3333Z" stroke="#39BEB9" stroke-width="3.33333" stroke-linejoin="round"/>
<path fill-rule="evenodd" clip-rule="evenodd" d="M49.9988 46.6667C47.2423 46.6667 45 43.8442 45 40.3754C45.1424 38.772 47.1935 34.6162 49.9955 30C52.8017 34.6304 54.856 38.8101 55 40.4648C54.9976 43.8442 52.7553 46.6667 49.9988 46.6667Z" stroke="#39BEB9" stroke-width="3.33333" stroke-linejoin="round"/>
<path d="M15 56.6667H85" stroke="#39BEB9" stroke-width="3.33333" stroke-linejoin="round"/>
</g>
<defs>
<filter id="filter0_d" x="-4" y="0" width="108" height="108" filterUnits="userSpaceOnUse" color-interpolation-filters="sRGB">
<feFlood flood-opacity="0" result="BackgroundImageFix"/>
<feColorMatrix in="SourceAlpha" type="matrix" values="0 0 0 0 0 0 0 0 0 0 0 0 0 0 0 0 0 0 127 0"/>
<feOffset dy="4"/>
<feGaussianBlur stdDeviation="2"/>
<feColorMatrix type="matrix" values="0 0 0 0 0 0 0 0 0 0 0 0 0 0 0 0 0 0 0.25 0"/>
<feBlend mode="normal" in2="BackgroundImageFix" result="effect1_dropShadow"/>
<feBlend mode="normal" in="SourceGraphic" in2="effect1_dropShadow" result="shape"/>
</filter>
</defs>
</svg>
