<svg width="100" height="100" viewBox="0 0 100 100" fill="none" xmlns="http://www.w3.org/2000/svg">
<g filter="url(#filter0_d)">
<path d="M50 46.875C50.8629 46.875 51.5625 46.1754 51.5625 45.3125C51.5625 44.4496 50.8629 43.75 50 43.75C49.1371 43.75 48.4375 44.4496 48.4375 45.3125C48.4375 46.1754 49.1371 46.875 50 46.875Z" fill="#39BEB9"/>
<path d="M49.9916 21.875C39.0394 21.8158 30.7793 24.0179 24.1237 28.1253C34.1426 28.125 42.1875 36.1699 42.1875 46.0938C42.1875 46.9295 42.4286 48.0066 42.923 49.3081C45.3416 48.7299 47.6918 48.4375 50 48.4375C52.3082 48.4375 54.6584 48.7299 57.077 49.3081C57.5714 48.0066 57.8125 46.9295 57.8125 46.0938C57.8125 36.1699 65.8574 28.125 75.7812 28.125C69.2198 24.0179 60.9568 21.8158 49.9916 21.875ZM75.7812 29.6875C66.7203 29.6875 59.375 37.0329 59.375 46.0938C59.375 47.432 58.9158 49.1209 57.9973 51.1606C55.2862 50.4033 52.6306 50 50 50C47.3694 50 44.7138 50.4033 42.0027 51.1606C41.0842 49.1209 40.625 47.432 40.625 46.0938C40.625 37.0329 33.2797 29.6875 24.2188 29.6875C21.8561 29.6875 19.6101 30.187 17.5806 31.086C23.7358 25.57 33.2624 20.2221 50 20.3125C66.7376 20.2221 76.2642 25.57 82.4194 31.086C80.3899 30.187 78.1439 29.6875 75.7812 29.6875ZM78.6191 62.4199C78.1623 62.5721 77.7027 62.9063 77.2065 63.4595C79.2274 73.3983 82.232 78.125 85.8196 78.125C88.8096 78.125 90.3173 74.4659 90.581 67.4269C90.6505 65.5716 90.6368 63.8717 90.5619 61.041C90.505 58.8924 90.4976 58.5657 90.4976 57.8212C90.4976 56.9809 90.4691 56.078 90.4117 55.1364C87.6686 58.4433 83.4865 60.7974 78.6191 62.4199ZM92.0601 57.8212C92.0601 64.0687 93.6203 79.6875 85.8196 79.6875C81.1105 79.6875 77.6807 74.1381 75.5301 63.0392C76.2923 62.0406 77.1186 61.273 78.125 60.9375C82.0292 59.6361 89.1853 56.4909 91.4678 50.2407C91.8977 53.1382 92.0601 55.805 92.0601 57.8212ZM9.50236 57.8212C9.50236 58.5657 9.49504 58.8924 9.43813 61.041C9.36316 63.8717 9.3495 65.5716 9.41899 67.4269C9.68266 74.4659 11.1904 78.125 14.1804 78.125C17.7611 78.125 20.7614 73.4169 22.7825 63.5134C22.2975 62.9221 21.8455 62.5747 21.3809 62.4199C16.5135 60.7974 12.3314 58.4433 9.58831 55.1364C9.53094 56.078 9.50236 56.9809 9.50236 57.8212ZM8.1672 53.2587C6.93465 51.1852 6.25 48.8075 6.25 46.0938C6.25 39.2822 10.0401 33.3559 15.6265 30.3086C15.6255 30.2757 15.625 30.2422 15.625 30.2084C15.625 26.0417 17.1875 23.4375 20.3125 22.3959C24.3287 21.3918 27.3771 21.8395 29.4577 23.7388C26.0765 25.0747 23.2538 26.7025 20.8561 28.4391C21.9454 28.2329 23.0695 28.125 24.2188 28.125C34.1426 28.125 42.1875 36.1699 42.1875 46.0938C42.1875 47.2231 42.6269 48.7887 43.5329 50.7504C46.7793 55.0346 48.4375 58.9411 48.4375 62.5C48.4375 70.7921 45.1157 75 35.9375 75C30.9615 75 28.1217 72.6538 25.3948 67.8687C25.1312 67.4061 24.2922 65.8756 24.159 65.6388C24.1011 65.5358 24.0442 65.4358 23.9881 65.3386C21.8214 74.9046 18.5522 79.6875 14.1804 79.6875C6.37972 79.6875 7.93986 64.0687 7.93986 57.8212C7.93986 56.5303 8.00646 54.9728 8.1672 53.2587ZM79.1439 28.4391C76.8094 26.7483 74.0719 25.1606 70.8083 23.8449C72.891 21.8564 75.9773 21.3734 80.0673 22.3959C83.1923 23.4375 84.7548 26.0417 84.7548 30.2084C84.7548 30.3148 84.7498 30.4167 84.74 30.5141C90.125 33.6174 93.75 39.4322 93.75 46.0938C93.75 54.3408 87.427 59.4839 78.6191 62.4199C77.7202 62.7195 76.8755 63.658 75.6398 65.6858C75.4246 66.039 74.5443 67.5275 74.3142 67.9064C71.3984 72.7057 68.6785 75 64.0625 75C55.4208 75 51.5625 70.4 51.5625 62.5C51.5625 58.9411 53.2207 55.0346 56.4671 50.7504C57.3731 48.7887 57.8125 47.2231 57.8125 46.0938C57.8125 36.1699 65.8574 28.125 75.7812 28.125C76.9305 28.125 78.0546 28.2329 79.1439 28.4391ZM64.0625 73.4375C72.6562 73.4375 73.4375 62.5 78.125 60.9375C82.8125 59.375 92.1875 55.1547 92.1875 46.0938C92.1875 37.0329 84.8422 29.6875 75.7812 29.6875C66.7203 29.6875 59.375 37.0329 59.375 46.0938C59.375 47.5189 58.8542 49.3418 57.8125 51.5625C54.6875 55.6518 53.125 59.2976 53.125 62.5C53.125 68.5406 55.4688 73.4375 64.0625 73.4375ZM35.9375 73.4375C45.3125 73.4375 46.875 68.5406 46.875 62.5C46.875 59.2976 45.3125 55.6518 42.1875 51.5625C41.1458 49.3418 40.625 47.5189 40.625 46.0938C40.625 37.0329 33.2797 29.6875 24.2188 29.6875C15.1578 29.6875 7.8125 37.0329 7.8125 46.0938C7.8125 55.1547 17.1875 59.375 21.875 60.9375C26.5625 62.5 26.5625 73.4375 35.9375 73.4375Z" fill="#39BEB9"/>
<path d="M75.7812 51.5625C78.8016 51.5625 81.25 49.1141 81.25 46.0938C81.25 43.0734 78.8016 40.625 75.7812 40.625C72.7609 40.625 70.3125 43.0734 70.3125 46.0938C70.3125 49.1141 72.7609 51.5625 75.7812 51.5625Z" fill="#39BEB9"/>
<path d="M24.2188 51.5625C27.2391 51.5625 29.6875 49.1141 29.6875 46.0938C29.6875 43.0734 27.2391 40.625 24.2188 40.625C21.1984 40.625 18.75 43.0734 18.75 46.0938C18.75 49.1141 21.1984 51.5625 24.2188 51.5625Z" fill="#39BEB9"/>
<path d="M24.2188 56.25C29.8279 56.25 34.375 51.7029 34.375 46.0938C34.375 40.4846 29.8279 35.9375 24.2188 35.9375C18.6096 35.9375 14.0625 40.4846 14.0625 46.0938C14.0625 51.7029 18.6096 56.25 24.2188 56.25ZM24.2188 57.0312C18.1781 57.0312 13.2812 52.1344 13.2812 46.0938C13.2812 40.0531 18.1781 35.1562 24.2188 35.1562C30.2594 35.1562 35.1562 40.0531 35.1562 46.0938C35.1562 52.1344 30.2594 57.0312 24.2188 57.0312Z" fill="#39BEB9"/>
<path fill-rule="evenodd" clip-rule="evenodd" d="M63.2812 68.75C60.2609 68.75 57.8125 66.3016 57.8125 63.2812C57.8125 60.2609 60.2609 57.8125 63.2812 57.8125C66.3016 57.8125 68.75 60.2609 68.75 63.2812C68.75 66.3016 66.3016 68.75 63.2812 68.75ZM63.2812 66.0156C64.7914 66.0156 66.0156 64.7914 66.0156 63.2812C66.0156 61.7711 64.7914 60.5469 63.2812 60.5469C61.7711 60.5469 60.5469 61.7711 60.5469 63.2812C60.5469 64.7914 61.7711 66.0156 63.2812 66.0156ZM63.2812 65.2344C62.2026 65.2344 61.3281 64.3599 61.3281 63.2812C61.3281 62.2026 62.2026 61.3281 63.2812 61.3281C64.3599 61.3281 65.2344 62.2026 65.2344 63.2812C65.2344 64.3599 64.3599 65.2344 63.2812 65.2344Z" fill="#39BEB9"/>
<path d="M67.1875 54.6875C68.9134 54.6875 70.3125 53.2884 70.3125 51.5625C70.3125 49.8366 68.9134 48.4375 67.1875 48.4375C65.4616 48.4375 64.0625 49.8366 64.0625 51.5625C64.0625 53.2884 65.4616 54.6875 67.1875 54.6875Z" fill="#39BEB9"/>
<path fill-rule="evenodd" clip-rule="evenodd" d="M37.5 61.7188H40.625C41.0565 61.7188 41.4062 62.0685 41.4062 62.5V64.0625C41.4062 64.494 41.0565 64.8438 40.625 64.8438H37.5V67.9688C37.5 68.4002 37.1502 68.75 36.7188 68.75H35.1562C34.7248 68.75 34.375 68.4002 34.375 67.9688V64.8438H31.25C30.8185 64.8438 30.4688 64.494 30.4688 64.0625V62.5C30.4688 62.0685 30.8185 61.7188 31.25 61.7188H34.375V58.5938C34.375 58.1623 34.7248 57.8125 35.1562 57.8125H36.7188C37.1502 57.8125 37.5 58.1623 37.5 58.5938V61.7188Z" fill="#39BEB9"/>
<path d="M57.0312 32.8125H42.9688C42.5373 32.8125 42.1875 33.1623 42.1875 33.5938C42.1875 34.0252 42.5373 34.375 42.9688 34.375H57.0312C57.4627 34.375 57.8125 34.0252 57.8125 33.5938C57.8125 33.1623 57.4627 32.8125 57.0312 32.8125Z" fill="#39BEB9"/>
<path fill-rule="evenodd" clip-rule="evenodd" d="M81.3988 40.0723C79.6849 38.1821 81.0359 36.1829 82.7182 35.7121C84.4005 35.2413 87.0784 37.0316 88.02 40.3961C88.9616 43.7607 87.6962 47.0174 85.4891 46.9094C83.282 46.8015 83.1127 41.9625 81.3988 40.0723Z" fill="#39BEB9"/>
<path fill-rule="evenodd" clip-rule="evenodd" d="M75.613 38.3517C78.1645 38.3517 78.738 36.0079 77.9567 34.4454C77.1755 32.8829 74.0505 32.1017 70.9255 33.6642C67.8005 35.2267 66.238 38.3517 67.8005 39.9142C69.363 41.4767 73.0614 38.3517 75.613 38.3517Z" fill="#39BEB9"/>
</g>
<defs>
<filter id="filter0_d" x="-4" y="0" width="108" height="108" filterUnits="userSpaceOnUse" color-interpolation-filters="sRGB">
<feFlood flood-opacity="0" result="BackgroundImageFix"/>
<feColorMatrix in="SourceAlpha" type="matrix" values="0 0 0 0 0 0 0 0 0 0 0 0 0 0 0 0 0 0 127 0"/>
<feOffset dy="4"/>
<feGaussianBlur stdDeviation="2"/>
<feColorMatrix type="matrix" values="0 0 0 0 0 0 0 0 0 0 0 0 0 0 0 0 0 0 0.25 0"/>
<feBlend mode="normal" in2="BackgroundImageFix" result="effect1_dropShadow"/>
<feBlend mode="normal" in="SourceGraphic" in2="effect1_dropShadow" result="shape"/>
</filter>
</defs>
</svg>
