<svg width="106" height="108" viewBox="0 0 106 108" fill="none" xmlns="http://www.w3.org/2000/svg">
<g filter="url(#filter0_d)">
<path d="M57 81.0999C56.7 81.0999 56.4 80.9999 56.2 80.6999L48.6 71.6999C48.3 71.3999 48.3 70.9999 48.4 70.5999C48.6 70.1999 48.9 69.9999 49.4 69.9999H53V66.3999C53 65.7999 53.5 65.3999 54 65.3999H59.9C60.5 65.3999 60.9 65.8999 60.9 66.3999V69.9999H64.5C64.9 69.9999 65.3 70.1999 65.5 70.5999C65.7 70.9999 65.6 71.3999 65.3 71.6999L57.7 80.6999C57.6 80.9999 57.3 81.0999 57 81.0999ZM51.7 72.1999L57 78.4999L62.3 72.1999H59.9C59.3 72.1999 58.9 71.6999 58.9 71.1999V67.5999H55.1V71.1999C55.1 71.7999 54.6 72.1999 54.1 72.1999H51.7Z" fill="#39BEB9"/>
<path d="M35.5 40.0999H15.3C14.7 40.0999 14.3 39.5999 14.3 39.0999V11.3999C14.3 10.7999 14.8 10.3999 15.3 10.3999H35.5C36.1 10.3999 36.5 10.8999 36.5 11.3999V38.9999C36.6 39.5999 36.1 40.0999 35.5 40.0999ZM16.4 37.9999H34.5V12.4999H16.4V37.9999Z" fill="#39BEB9"/>
<path d="M20 12.4999C19.4 12.4999 19 11.9999 19 11.4999V5.8999C19 5.2999 19.5 4.8999 20 4.8999C20.6 4.8999 21 5.3999 21 5.8999V11.3999C21 11.9999 20.6 12.4999 20 12.4999Z" fill="#39BEB9"/>
<path d="M20 6.9C18.1 6.9 16.5 5.3 16.5 3.4C16.5 1.6 18.1 0 20 0C21.9 0 23.5 1.6 23.5 3.5C23.5 5.4 21.9 6.9 20 6.9ZM20 2.1C19.2 2.1 18.6 2.7 18.6 3.5C18.6 4.3 19.2 4.9 20 4.9C20.8 4.9 21.4 4.3 21.4 3.5C21.4 2.7 20.7 2.1 20 2.1Z" fill="#39BEB9"/>
<path d="M29.8 18.6001H19.3C18.7 18.6001 18.3 18.1001 18.3 17.6001C18.3 17.0001 18.8 16.6001 19.3 16.6001H29.8C30.4 16.6001 30.8 17.1001 30.8 17.6001C30.8 18.1001 30.4 18.6001 29.8 18.6001Z" fill="#39BEB9"/>
<path d="M26.9 22.6001H19.3C18.7 22.6001 18.3 22.1001 18.3 21.6001C18.3 21.0001 18.8 20.6001 19.3 20.6001H26.9C27.5 20.6001 27.9 21.1001 27.9 21.6001C27.9 22.2001 27.5 22.6001 26.9 22.6001Z" fill="#39BEB9"/>
<path d="M24.3 26.7H19.3C18.7 26.7 18.3 26.2 18.3 25.7C18.3 25.1 18.8 24.7 19.3 24.7H24.3C24.9 24.7 25.3 25.2 25.3 25.7C25.4 26.3 24.9 26.7 24.3 26.7Z" fill="#39BEB9"/>
<path d="M39.7 30.3001C39.4 30.3001 39.2 30.2001 39 30.0001C38.6 29.6001 38.6 28.9001 39 28.5001C39.9 27.6001 40.4 26.5001 40.4 25.2001C40.4 24.0001 39.9 22.8001 39 21.9001C38.6 21.5001 38.6 20.8001 39 20.4001C39.4 20.0001 40.1 20.0001 40.5 20.4001C41.8 21.7001 42.5 23.4001 42.5 25.2001C42.5 27.0001 41.8 28.7001 40.5 30.0001C40.2 30.2001 40 30.3001 39.7 30.3001Z" fill="#39BEB9"/>
<path d="M42.7 33.3001C42.4 33.3001 42.2 33.2001 42 33.0001C41.6 32.6001 41.6 31.9001 42 31.5001C43.7 29.8001 44.6 27.6001 44.6 25.2001C44.6 22.8001 43.7 20.6001 42 18.9001C41.6 18.5001 41.6 17.8001 42 17.4001C42.4 17.0001 43.1 17.0001 43.5 17.4001C45.6 19.5001 46.7 22.2001 46.7 25.2001C46.7 28.1001 45.6 30.9001 43.5 33.0001C43.3 33.2001 43 33.3001 42.7 33.3001Z" fill="#39BEB9"/>
<path d="M11.4 30.3001C11.1 30.3001 10.9 30.2001 10.7 30.0001C9.40001 28.7001 8.70001 27.0001 8.70001 25.2001C8.70001 23.4001 9.40001 21.7001 10.7 20.4001C11.1 20.0001 11.8 20.0001 12.2 20.4001C12.6 20.8001 12.6 21.5001 12.2 21.9001C11.3 22.8001 10.8 23.9001 10.8 25.2001C10.8 26.4001 11.3 27.6001 12.2 28.5001C12.6 28.9001 12.6 29.6001 12.2 30.0001C11.9 30.2001 11.7 30.3001 11.4 30.3001Z" fill="#39BEB9"/>
<path d="M8.4 33.3001C8.1 33.3001 7.9 33.2001 7.7 33.0001C5.6 30.9001 4.5 28.2001 4.5 25.2001C4.5 22.3001 5.6 19.5001 7.7 17.4001C8 17.0001 8.7 17.0001 9.1 17.4001C9.5 17.8001 9.5 18.5001 9.1 18.9001C7.4 20.6001 6.5 22.8001 6.5 25.2001C6.5 27.6001 7.4 29.8001 9.1 31.5001C9.5 31.9001 9.5 32.6001 9.1 33.0001C8.9 33.2001 8.6 33.3001 8.4 33.3001Z" fill="#39BEB9"/>
<path d="M29.8 18.6001H19.3C18.7 18.6001 18.3 18.1001 18.3 17.6001C18.3 17.0001 18.8 16.6001 19.3 16.6001H29.8C30.4 16.6001 30.8 17.1001 30.8 17.6001C30.8 18.1001 30.4 18.6001 29.8 18.6001Z" fill="#39BEB9"/>
<path d="M26.9 22.6001H19.3C18.7 22.6001 18.3 22.1001 18.3 21.6001C18.3 21.0001 18.8 20.6001 19.3 20.6001H26.9C27.5 20.6001 27.9 21.1001 27.9 21.6001C27.9 22.2001 27.5 22.6001 26.9 22.6001Z" fill="#39BEB9"/>
<path d="M24.3 26.7H19.3C18.7 26.7 18.3 26.2 18.3 25.7C18.3 25.1 18.8 24.7 19.3 24.7H24.3C24.9 24.7 25.3 25.2 25.3 25.7C25.4 26.3 24.9 26.7 24.3 26.7Z" fill="#39BEB9"/>
<path d="M96.8 32.4H49.8C49.2 32.4 48.8 31.9 48.8 31.4C48.8 30.9 49.3 30.4 49.8 30.4H96.8C98.3 30.4 99.5 29.2 99.5 27.7V20.2C99.5 18.7 98.3 17.5 96.8 17.5H49.8C49.2 17.5 48.8 17 48.8 16.5C48.8 15.9 49.3 15.5 49.8 15.5H96.8C99.4 15.5 101.6 17.6 101.6 20.3V27.8C101.6 30.3 99.4 32.4 96.8 32.4Z" fill="#39BEB9"/>
<path d="M96.2 42.7999H39.2C38.6 42.7999 38.2 42.2999 38.2 41.7999C38.2 41.1999 38.7 40.7999 39.2 40.7999H95.1V35.8999C95.1 35.2999 95.6 34.8999 96.1 34.8999C96.7 34.8999 97.1 35.3999 97.1 35.8999V41.8999C97.2 42.2999 96.7 42.7999 96.2 42.7999Z" fill="#39BEB9"/>
<path d="M96.2 53.6001H17.6C17 53.6001 16.6 53.1001 16.6 52.6001V46.6001C16.6 46.0001 17.1 45.6001 17.6 45.6001C18.1 45.6001 18.6 46.1001 18.6 46.6001V51.5001H95.1V46.6001C95.1 46.0001 95.6 45.6001 96.1 45.6001C96.7 45.6001 97.1 46.1001 97.1 46.6001V52.6001C97.2 53.2001 96.7 53.6001 96.2 53.6001Z" fill="#39BEB9"/>
<path d="M96.2 64.5H17.6C17 64.5 16.6 64 16.6 63.5V57.5C16.6 56.9 17.1 56.5 17.6 56.5C18.1 56.5 18.6 57 18.6 57.5V62.4H95.1V57.5C95.1 56.9 95.6 56.5 96.1 56.5C96.7 56.5 97.1 57 97.1 57.5V63.5C97.2 64 96.7 64.5 96.2 64.5Z" fill="#39BEB9"/>
<path d="M45.1 86.4H36.2C35.6 86.4 35.2 85.9 35.2 85.4C35.2 84.8 35.7 84.4 36.2 84.4H43V83.8C43 82.7 42.2 81.7 41 81.5L36 80.6C35.4 80.5 35.1 80 35.2 79.4C35.3 78.8 35.8 78.5 36.4 78.6L41.4 79.5C43.5 79.8 45.1 81.7 45.1 83.8V86.4Z" fill="#39BEB9"/>
<path d="M79.7 100H77.5C74.8 100 72.5 97.8001 72.5 95.0001V93.9001H41.5V95.0001C41.5 97.7001 39.3 100 36.5 100H34.3C31.6 100 29.3 97.8001 29.3 95.0001V78.4001C29.3 77.8001 29 77.2001 28.4 76.9001L27.3 76.2001C26.6 75.9001 26.1 75.2001 26.1 74.4001V71.2001C26.1 70.1001 27 69.2001 28.1 69.2001H31.2C32.1 69.2001 33 68.7001 33.4 67.9001C33.7 67.4001 34.3 67.2001 34.8 67.5001C35.3 67.8001 35.5 68.4001 35.2 68.9001C34.4 70.4001 32.8 71.3001 31.2 71.3001H28.2V74.4001L29.5 75.1001C30.7 75.8001 31.4 77.0001 31.4 78.4001V95.0001C31.4 96.6001 32.7 97.9001 34.3 97.9001H36.5C38.1 97.9001 39.4 96.6001 39.4 95.0001V91.8001H74.6V95.0001C74.6 96.6001 75.9 97.9001 77.5 97.9001H79.7C81.3 97.9001 82.6 96.6001 82.6 95.0001V78.4001C82.6 77.0001 83.3 75.8001 84.5 75.1001L85.8 74.4001V71.3001H82.8C81.1 71.3001 79.6 70.4001 78.8 68.9001C78.5 68.4001 78.7 67.8001 79.2 67.5001C79.7 67.2001 80.3 67.4001 80.6 67.9001C81 68.7001 81.9 69.2001 82.8 69.2001H85.9C87 69.2001 87.9 70.1001 87.9 71.2001V74.4001C87.9 75.2001 87.4 75.9001 86.7 76.2001L85.6 76.9001C85.1 77.2001 84.7 77.8001 84.7 78.4001V95.0001C84.7 97.8001 82.4 100 79.7 100Z" fill="#39BEB9"/>
<path d="M77.7 86.4H68.8V83.7C68.8 81.5 70.4 79.7 72.6 79.4L77.5 78.5C78.1 78.4 78.6 78.8 78.7 79.3C78.8 79.9 78.4 80.4 77.9 80.5L72.9 81.4C71.7 81.6 70.9 82.5 70.9 83.7V84.3H77.7C78.3 84.3 78.7 84.8 78.7 85.3C78.8 85.9 78.3 86.4 77.7 86.4Z" fill="#39BEB9"/>
<path d="M40.4 93.8999H36.3C35.7 93.8999 35.3 93.3999 35.3 92.8999C35.3 92.3999 35.8 91.8999 36.3 91.8999H40.4C41 91.8999 41.4 92.3999 41.4 92.8999C41.4 93.3999 41 93.8999 40.4 93.8999Z" fill="#39BEB9"/>
<path d="M77.7 93.8999H73.6C73 93.8999 72.6 93.3999 72.6 92.8999C72.6 92.3999 73.1 91.8999 73.6 91.8999H77.7C78.3 91.8999 78.7 92.3999 78.7 92.8999C78.7 93.3999 78.2 93.8999 77.7 93.8999Z" fill="#39BEB9"/>
<path d="M64.4 86.3999H49.6C49 86.3999 48.6 85.8999 48.6 85.3999C48.6 84.7999 49.1 84.3999 49.6 84.3999H64.4C65 84.3999 65.4 84.8999 65.4 85.3999C65.4 85.8999 65 86.3999 64.4 86.3999Z" fill="#39BEB9"/>
</g>
<defs>
<filter id="filter0_d" x="-1" y="0" width="108" height="108" filterUnits="userSpaceOnUse" color-interpolation-filters="sRGB">
<feFlood flood-opacity="0" result="BackgroundImageFix"/>
<feColorMatrix in="SourceAlpha" type="matrix" values="0 0 0 0 0 0 0 0 0 0 0 0 0 0 0 0 0 0 127 0"/>
<feOffset dy="4"/>
<feGaussianBlur stdDeviation="2"/>
<feColorMatrix type="matrix" values="0 0 0 0 0 0 0 0 0 0 0 0 0 0 0 0 0 0 0.25 0"/>
<feBlend mode="normal" in2="BackgroundImageFix" result="effect1_dropShadow"/>
<feBlend mode="normal" in="SourceGraphic" in2="effect1_dropShadow" result="shape"/>
</filter>
</defs>
</svg>
