<svg width="102" height="105" viewBox="0 0 102 105" fill="none" xmlns="http://www.w3.org/2000/svg">
<g filter="url(#filter0_d)">
<path d="M95.1081 84.2344H93.6168V74.5437C93.6168 69.6894 89.6281 65.7406 84.7256 65.7406H68.8256V64.2987C68.8256 63.0906 67.8462 62.1112 66.6381 62.1112H60.45V58.7188C60.45 55.3775 58.6225 52.2837 55.6812 50.6444L44.9068 44.64V41.5925H46.87C48.0781 41.5925 49.0575 40.6131 49.0575 39.405V33.1588H51.2843C54.2356 33.1588 56.8218 31.0813 57.435 28.2194L60.1125 15.7056C62.6181 15.3556 64.5543 13.2044 64.5543 10.6037V8.28188C64.5543 5.43813 62.2406 3.125 59.3968 3.125H9.86185C7.0181 3.125 4.70435 5.43875 4.70435 8.28188V10.6037C4.70435 13.4319 6.99372 15.7338 9.81685 15.7588L12.4831 28.2188C13.0956 31.0806 15.6825 33.1581 18.6331 33.1581H20.585V39.4044C20.585 40.6125 21.5643 41.5919 22.7725 41.5919H24.9418V44.6394L14.1675 50.6437C11.2256 52.2831 9.39872 55.3769 9.39872 58.7181V90.6556C9.39872 94.0844 12.2125 96.8744 15.6718 96.8744H54.1768C57.6356 96.8744 60.45 94.0844 60.45 90.6556V84.7H66.6381C67.8462 84.7 68.8256 83.7206 68.8256 82.5125V81.07H78.14V84.2344H76.6487C75.4406 84.2344 74.4612 85.2137 74.4612 86.4219V94.6875C74.4612 95.8956 75.4406 96.875 76.6487 96.875H95.1075C96.3156 96.875 97.295 95.8956 97.295 94.6875V86.4219C97.2956 85.2144 96.3162 84.2344 95.1081 84.2344ZM24.9593 37.2175V33.1925H44.6818V37.2175H24.9593ZM9.07935 10.6044V8.2825C9.07935 7.85125 9.4306 7.50063 9.86185 7.50063H59.3968C59.8281 7.50063 60.1793 7.85187 60.1793 8.2825V10.6044C60.1793 11.0356 59.8281 11.3863 59.3968 11.3863H58.3312H34.9587H11.5862H9.86185C9.4306 11.3863 9.07935 11.0356 9.07935 10.6044ZM16.7606 27.3038L14.2912 15.7613H34.9587H55.6262L53.1562 27.3038C52.9731 28.1613 52.1856 28.7838 51.2843 28.7838H34.9587H18.6331C17.7318 28.7838 16.9443 28.1613 16.7606 27.3038ZM56.075 90.6562C56.075 91.6731 55.2237 92.5 54.1768 92.5H15.6712C14.625 92.5 13.7731 91.6731 13.7731 90.6562V58.7188C13.7731 56.9625 14.74 55.3331 16.2962 54.4656L28.1937 47.8356C28.8868 47.4494 29.3162 46.7181 29.3162 45.925V41.5925H40.5312V45.925C40.5312 46.7188 40.9612 47.4494 41.6537 47.8356L53.5506 54.4656C55.1075 55.3331 56.0743 56.9625 56.0743 58.7188V64.2987V82.5131V90.6562H56.075ZM64.4506 80.3256H60.45V66.4862H64.4506V67.9281V78.8831V80.3256ZM80.3281 76.6956H68.8262V70.1156H84.7262C87.2162 70.1156 89.2425 72.1025 89.2425 74.5437V84.235H82.5156V78.8831C82.5156 77.675 81.5356 76.6956 80.3281 76.6956ZM92.9206 92.5H78.8368V88.6094H80.3281H91.43H92.9212V92.5H92.9206Z" fill="#39BEB9"/>
<path d="M47.9638 70.308C47.5288 69.5643 46.5713 69.3143 45.8263 69.748C45.0819 70.1843 44.8313 71.1412 45.2669 71.8862L49.66 79.3949C50.0756 80.1055 49.8038 80.7349 49.6675 80.9724C49.3719 81.488 48.8338 81.7955 48.2275 81.7955H41.07L41.1369 81.7455C41.8269 81.2268 41.9656 80.2474 41.4469 79.5574C40.9281 78.8674 39.9481 78.728 39.2594 79.248L35.4588 82.1055C35.0669 82.4005 34.8356 82.8624 34.835 83.3524C34.8344 83.843 35.0644 84.3055 35.4563 84.6012L39.2506 87.4662C39.5325 87.6793 39.8631 87.7818 40.1906 87.7818C40.6638 87.7818 41.1313 87.5674 41.4388 87.1611C41.9588 86.4718 41.8219 85.4924 41.1331 84.9724L41.0644 84.9205H48.2275C49.9669 84.9205 51.5188 84.0255 52.3788 82.5268C53.2263 81.0487 53.2188 79.2874 52.3581 77.8162L47.9638 70.308Z" fill="#39BEB9"/>
<path d="M34.9906 55.9025C35.2781 55.9031 35.9938 55.9844 36.42 56.7175L39.9781 62.8412L39.8494 62.7875C39.0531 62.455 38.1381 62.8325 37.8063 63.6294C37.475 64.4262 37.8519 65.3406 38.6488 65.6725L43.0513 67.505C43.2438 67.585 43.4475 67.6244 43.6513 67.6244C43.9206 67.6244 44.1894 67.555 44.4294 67.4169C44.85 67.1756 45.135 66.7525 45.2 66.2712L45.8325 61.5981C45.9481 60.7431 45.3488 59.9562 44.4938 59.84C43.635 59.72 42.8513 60.3237 42.7356 61.1794L42.715 61.3312L39.1219 55.1469C38.2625 53.6681 36.7219 52.7819 35 52.7769C34.995 52.7769 34.9894 52.7769 34.9844 52.7769C33.2688 52.7769 31.7288 53.6531 30.8631 55.1219L26.4469 62.6169C26.0088 63.36 26.2563 64.3187 27 64.7569C27.7431 65.1937 28.7013 64.9469 29.1394 64.2037L33.5556 56.7081C33.9838 55.9819 34.695 55.9019 34.9863 55.9019C34.9869 55.9025 34.9888 55.9025 34.9906 55.9025Z" fill="#39BEB9"/>
<path d="M30.4137 81.76H21.6206C21.0137 81.76 20.475 81.4513 20.1794 80.9344C20.0431 80.6956 19.7719 80.0644 20.1912 79.355L23.8406 73.1681L23.8594 73.3175C23.9594 74.1075 24.6319 74.6844 25.4081 74.6844C25.4731 74.6844 25.5394 74.6806 25.6056 74.6719C26.4619 74.5631 27.0681 73.7819 26.96 72.9256L26.3687 68.2469C26.3075 67.765 26.0269 67.34 25.6081 67.0944C25.1894 66.8488 24.6806 66.8125 24.2306 66.995L19.8125 68.7894C19.0131 69.1144 18.6275 70.0256 18.9525 70.825C19.2775 71.6244 20.1894 72.0094 20.9881 71.685L21.1187 71.6319L17.4994 77.7669C16.6312 79.2381 16.6187 81.0013 17.4656 82.4844C18.3243 83.9875 19.8775 84.8856 21.62 84.8856H30.4131C31.2762 84.8856 31.9756 84.1863 31.9756 83.3231C31.9756 82.46 31.2768 81.76 30.4137 81.76Z" fill="#39BEB9"/>
</g>
<defs>
<filter id="filter0_d" x="-3" y="0" width="108" height="108" filterUnits="userSpaceOnUse" color-interpolation-filters="sRGB">
<feFlood flood-opacity="0" result="BackgroundImageFix"/>
<feColorMatrix in="SourceAlpha" type="matrix" values="0 0 0 0 0 0 0 0 0 0 0 0 0 0 0 0 0 0 127 0"/>
<feOffset dy="4"/>
<feGaussianBlur stdDeviation="2"/>
<feColorMatrix type="matrix" values="0 0 0 0 0 0 0 0 0 0 0 0 0 0 0 0 0 0 0.25 0"/>
<feBlend mode="normal" in2="BackgroundImageFix" result="effect1_dropShadow"/>
<feBlend mode="normal" in="SourceGraphic" in2="effect1_dropShadow" result="shape"/>
</filter>
</defs>
</svg>
