<svg width="101" height="100" viewBox="0 0 101 100" fill="none" xmlns="http://www.w3.org/2000/svg">
<g filter="url(#filter0_d)">
<path d="M68.75 34.375H15.625V37.5H68.75V34.375Z" fill="#39BEB9"/>
<path d="M68.75 46.875H15.625V50H68.75V46.875Z" fill="#39BEB9"/>
<path d="M68.75 53.125H15.625V56.25H68.75V53.125Z" fill="#39BEB9"/>
<path d="M12.5 57.8125H9.375V54.6875H12.5V51.5625H9.375V48.4375H12.5V45.3125H9.375V42.1875H12.5V39.0625H6.25V60.9375H12.5V57.8125Z" fill="#39BEB9"/>
<path d="M68.75 40.625H15.625V43.75H68.75V40.625Z" fill="#39BEB9"/>
<path d="M9.375 35.9375H12.5V32.8125C12.5 32.3981 12.6646 32.0007 12.9576 31.7076C13.2507 31.4146 13.6481 31.25 14.0625 31.25H70.3125C70.7269 31.25 71.1243 31.4146 71.4174 31.7076C71.7104 32.0007 71.875 32.3981 71.875 32.8125V70.3125C71.875 70.7269 71.7104 71.1243 71.4174 71.4174C71.1243 71.7104 70.7269 71.875 70.3125 71.875H14.0625C13.6481 71.875 13.2507 71.7104 12.9576 71.4174C12.6646 71.1243 12.5 70.7269 12.5 70.3125V64.0625H9.375V75H75V28.125H9.375V35.9375Z" fill="#39BEB9"/>
<path d="M85.9375 47.3093V50H82.8125V47.3093C82.2167 47.6533 81.7511 48.1842 81.4879 48.8198C81.2246 49.4553 81.1784 50.16 81.3565 50.8245C81.5345 51.4889 81.9269 52.0761 82.4726 52.4949C83.0184 52.9137 83.6871 53.1407 84.375 53.1407C85.0629 53.1407 85.7316 52.9137 86.2774 52.4949C86.8231 52.0761 87.2155 51.4889 87.3935 50.8245C87.5716 50.16 87.5254 49.4553 87.2621 48.8198C86.9989 48.1842 86.5333 47.6533 85.9375 47.3093Z" fill="#39BEB9"/>
<path d="M68.75 59.375H15.625V62.5H68.75V59.375Z" fill="#39BEB9"/>
<path d="M78.125 50C78.125 48.3424 78.7835 46.7527 79.9556 45.5806C81.1277 44.4085 82.7174 43.75 84.375 43.75C86.0326 43.75 87.6223 44.4085 88.7944 45.5806C89.9665 46.7527 90.625 48.3424 90.625 50V39.0625H78.125V50Z" fill="#39BEB9"/>
<path d="M84.375 56.25C82.7174 56.25 81.1277 55.5915 79.9556 54.4194C78.7835 53.2473 78.125 51.6576 78.125 50V60.9375H90.625V50C90.625 51.6576 89.9665 53.2473 88.7944 54.4194C87.6223 55.5915 86.0326 56.25 84.375 56.25Z" fill="#39BEB9"/>
<path d="M68.75 65.625H15.625V68.75H68.75V65.625Z" fill="#39BEB9"/>
<path d="M96.875 48.4375H93.75V51.5625H96.875V48.4375Z" fill="#39BEB9"/>
</g>
<defs>
<filter id="filter0_d" x="-4" y="0" width="108" height="108" filterUnits="userSpaceOnUse" color-interpolation-filters="sRGB">
<feFlood flood-opacity="0" result="BackgroundImageFix"/>
<feColorMatrix in="SourceAlpha" type="matrix" values="0 0 0 0 0 0 0 0 0 0 0 0 0 0 0 0 0 0 127 0"/>
<feOffset dy="4"/>
<feGaussianBlur stdDeviation="2"/>
<feColorMatrix type="matrix" values="0 0 0 0 0 0 0 0 0 0 0 0 0 0 0 0 0 0 0.25 0"/>
<feBlend mode="normal" in2="BackgroundImageFix" result="effect1_dropShadow"/>
<feBlend mode="normal" in="SourceGraphic" in2="effect1_dropShadow" result="shape"/>
</filter>
</defs>
</svg>
