<svg width="102" height="108" viewBox="0 0 102 108" fill="none" xmlns="http://www.w3.org/2000/svg">
<g clip-path="url(#clip0)" filter="url(#filter0_d)">
<path d="M25.9219 51.1406L14.9844 96.1406C14.7918 96.9466 14.9272 97.7961 15.3608 98.5023C15.7945 99.2085 16.4909 99.7135 17.2969 99.9062C17.5368 99.9682 17.7835 99.9997 18.0312 100C18.7313 99.9986 19.4105 99.7622 19.9602 99.3287C20.5098 98.8953 20.898 98.2898 21.0625 97.6094L27.4063 71.4219H75.8438L76.5625 74.3438C73.6244 75.8902 71.3547 78.4595 70.1827 81.566C69.0106 84.6725 69.0174 88.1007 70.2017 91.2025C71.3861 94.3043 73.6659 96.8647 76.6101 98.3995C79.5543 99.9343 82.9588 100.337 86.1798 99.5319C89.4009 98.7266 92.2153 96.769 94.0909 94.0293C95.9664 91.2896 96.7732 87.9576 96.3585 84.6634C95.9438 81.3691 94.3365 78.341 91.8405 76.1516C89.3444 73.9621 86.1327 72.7631 82.8125 72.7812H82.6562L76.9688 51.1094C83.2013 46.9057 88.3107 41.241 91.8513 34.6092C95.3919 27.9775 97.2561 20.5802 97.2812 13.0625C97.2812 12.2337 96.952 11.4388 96.366 10.8528C95.7799 10.2667 94.985 9.9375 94.1562 9.9375H8.70313C7.87432 9.9375 7.07947 10.2667 6.49342 10.8528C5.90737 11.4388 5.57813 12.2337 5.57812 13.0625C5.60168 20.5883 7.46821 27.9937 11.0146 34.6315C14.5609 41.2694 19.6791 46.9375 25.9219 51.1406ZM28.9531 65.2031L31.5625 54.4219L32.7344 54.9375L33.6094 55.3281C34.3906 55.6562 35.1719 55.9687 35.9688 56.2656L36.2656 56.3594C37.1562 56.6875 38.0625 56.9687 38.9688 57.2187L39.8281 57.4375C40.4688 57.6094 41.1094 57.7656 41.7656 57.9062L42.7969 58.1094L44.625 58.4219L45.6719 58.5625C46.3281 58.6562 46.9688 58.7188 47.625 58.7656H48.5469C49.5 58.7656 50.4687 58.8594 51.4375 58.8594C52.4062 58.8594 53.3594 58.8594 54.3125 58.7656H55.2344C55.8906 58.7656 56.5469 58.6562 57.2031 58.5625L58.25 58.4219L60.0781 58.1094L61.125 57.9062L63 57.4531L63.9063 57.2031C64.7969 56.9688 65.6563 56.6875 66.5313 56.3906L66.7656 56.2969C67.6094 56 68.4375 55.6719 69.2656 55.3281L70.1719 54.9219L71.3594 54.3906L74.2031 65.2031H28.9531ZM82.8125 79.0469C84.2694 79.0438 85.6944 79.4732 86.907 80.2806C88.1197 81.0881 89.0653 82.2373 89.6243 83.5827C90.1832 84.9281 90.3303 86.4091 90.0468 87.8382C89.7634 89.2672 89.0621 90.5799 88.032 91.6101C87.0018 92.6403 85.6891 93.3415 84.26 93.625C82.831 93.9084 81.35 93.7614 80.0046 93.2024C78.6592 92.6435 77.51 91.6978 76.7025 90.4851C75.8951 89.2725 75.4657 87.8475 75.4688 86.3906C75.4729 84.4442 76.2479 82.5787 77.6242 81.2024C79.0006 79.826 80.8661 79.051 82.8125 79.0469ZM90.8594 16.1875C90.0704 26.1067 85.5769 35.3656 78.2725 42.1229C70.9681 48.8801 61.3881 52.6405 51.4375 52.6562C50.5312 52.6562 49.625 52.6562 48.7344 52.5781C42.4982 52.1504 36.4525 50.2494 31.0938 47.0312C25.6523 43.8149 21.0697 39.3301 17.7367 33.9593C14.4038 28.5885 12.4195 22.4912 11.9531 16.1875H90.8594Z" fill="#39BEB9"/>
<path d="M9.51562 6.25H93.3438C94.1726 6.25 94.9674 5.92076 95.5535 5.33471C96.1395 4.74866 96.4688 3.9538 96.4688 3.125C96.4688 2.2962 96.1395 1.50134 95.5535 0.915291C94.9674 0.32924 94.1726 0 93.3438 0L9.51562 0C8.68682 0 7.89197 0.32924 7.30592 0.915291C6.71986 1.50134 6.39063 2.2962 6.39062 3.125C6.39063 3.9538 6.71986 4.74866 7.30592 5.33471C7.89197 5.92076 8.68682 6.25 9.51562 6.25Z" fill="#39BEB9"/>
</g>
<defs>
<filter id="filter0_d" x="-4" y="0" width="108" height="108" filterUnits="userSpaceOnUse" color-interpolation-filters="sRGB">
<feFlood flood-opacity="0" result="BackgroundImageFix"/>
<feColorMatrix in="SourceAlpha" type="matrix" values="0 0 0 0 0 0 0 0 0 0 0 0 0 0 0 0 0 0 127 0"/>
<feOffset dy="4"/>
<feGaussianBlur stdDeviation="2"/>
<feColorMatrix type="matrix" values="0 0 0 0 0 0 0 0 0 0 0 0 0 0 0 0 0 0 0.25 0"/>
<feBlend mode="normal" in2="BackgroundImageFix" result="effect1_dropShadow"/>
<feBlend mode="normal" in="SourceGraphic" in2="effect1_dropShadow" result="shape"/>
</filter>
<clipPath id="clip0">
<rect width="100" height="100" fill="white"/>
</clipPath>
</defs>
</svg>
