<svg width="100" height="106" viewBox="0 0 100 106" fill="none" xmlns="http://www.w3.org/2000/svg">
<g filter="url(#filter0_d)">
<path d="M69.6802 4.25C69.6802 3.14551 68.7847 2.25 67.6802 2.25C66.5757 2.25 65.6802 3.14551 65.6802 4.25V7.12988H64.7603V4.25C64.7603 3.42139 64.0884 2.75 63.2603 2.75C62.4321 2.75 61.7603 3.42139 61.7603 4.25V7.12988H60.3403V4.25C60.3403 3.42139 59.6685 2.75 58.8403 2.75C58.0122 2.75 57.3403 3.42139 57.3403 4.25V7.12988H55.9204V4.25C55.9204 3.42139 55.2485 2.75 54.4204 2.75C53.5923 2.75 52.9204 3.42139 52.9204 4.25V7.12988H51.5005V4.25C51.5005 3.42139 50.8286 2.75 50.0005 2.75C49.1724 2.75 48.5005 3.42139 48.5005 4.25V7.12988H47.0806V4.25C47.0806 3.42139 46.4087 2.75 45.5806 2.75C44.7524 2.75 44.0806 3.42139 44.0806 4.25V7.12988H42.6597V4.25C42.6597 3.42139 41.9878 2.75 41.1597 2.75C40.3315 2.75 39.6597 3.42139 39.6597 4.25V7.12988H38.2397V4.25C38.2397 3.42139 37.5679 2.75 36.7397 2.75C35.9116 2.75 35.2397 3.42139 35.2397 4.25V7.12988H34.3198V4.25C34.3198 3.14551 33.4243 2.25 32.3198 2.25C31.2153 2.25 30.3198 3.14551 30.3198 4.25V11.7446C30.3198 12.2729 30.5287 12.75 30.8633 13.1075C30.4648 25.436 31.2634 37.4771 33.2466 48.9028L34.2886 54.856C34.8931 58.3125 35.1401 61.8408 35.0229 65.3428C34.7817 72.5771 35.0054 79.9053 35.688 87.1201L35.7759 88.0518C36.269 93.2686 40.5327 97.3828 45.7446 97.7178C45.8452 97.7393 45.9478 97.75 46.0522 97.75H53.9478C54.0522 97.75 54.1538 97.7393 54.2515 97.7188C59.4644 97.3848 63.731 93.2705 64.2251 88.0518L64.313 87.1211C64.9956 79.9102 65.2183 72.583 64.9771 65.3428C64.8608 61.835 65.1079 58.3066 65.7124 54.856L66.7534 48.9004C68.7366 37.4814 69.5352 25.4403 69.1367 13.1075C69.4713 12.7499 69.6802 12.2729 69.6802 11.7446V4.25ZM33.8152 14.9819H66.1848C66.3312 21.4056 66.1392 27.7385 65.6241 33.9404H34.3759C33.8608 27.7381 33.6687 21.4048 33.8152 14.9819ZM65.8149 10.1299V11.9819H34.1851V10.1299H65.8149ZM63.7964 48.395L62.7573 54.3389C62.1177 57.9922 61.855 61.7285 61.979 65.4424C62.2163 72.5557 61.9966 79.7539 61.3267 86.8389L61.2388 87.7695C60.8774 91.582 57.7163 94.5762 53.8862 94.7334C53.8296 94.7363 53.7739 94.7412 53.7192 94.75H46.2827C46.2271 94.7412 46.1714 94.7363 46.1147 94.7334C42.2837 94.5762 39.1226 91.582 38.7622 87.7705L38.6743 86.8379C38.0034 79.749 37.7837 72.5508 38.021 65.4424C38.145 61.7354 37.8833 57.999 37.2437 54.3389L36.2017 48.3872C35.6073 44.9609 35.1336 41.4717 34.7558 37.9404H65.2441C64.866 41.4742 64.3917 44.9659 63.7964 48.395ZM50.0005 77.3037C53.6782 77.3037 56.6694 73.8145 56.6694 69.5264C56.6694 65.2373 53.6782 61.748 50.0005 61.748C46.3228 61.748 43.3315 65.2373 43.3315 69.5264C43.3315 73.8145 46.3228 77.3037 50.0005 77.3037ZM50.0005 65.748C51.4468 65.748 52.6694 67.4785 52.6694 69.5264C52.6694 71.5742 51.4468 73.3037 50.0005 73.3037C48.5542 73.3037 47.3315 71.5742 47.3315 69.5264C47.3315 67.4785 48.5542 65.748 50.0005 65.748Z" fill="#39BEB9"/>
</g>
<defs>
<filter id="filter0_d" x="-4" y="0" width="108" height="108" filterUnits="userSpaceOnUse" color-interpolation-filters="sRGB">
<feFlood flood-opacity="0" result="BackgroundImageFix"/>
<feColorMatrix in="SourceAlpha" type="matrix" values="0 0 0 0 0 0 0 0 0 0 0 0 0 0 0 0 0 0 127 0"/>
<feOffset dy="4"/>
<feGaussianBlur stdDeviation="2"/>
<feColorMatrix type="matrix" values="0 0 0 0 0 0 0 0 0 0 0 0 0 0 0 0 0 0 0.25 0"/>
<feBlend mode="normal" in2="BackgroundImageFix" result="effect1_dropShadow"/>
<feBlend mode="normal" in="SourceGraphic" in2="effect1_dropShadow" result="shape"/>
</filter>
</defs>
</svg>
