<svg width="100" height="100" viewBox="0 0 100 100" fill="none" xmlns="http://www.w3.org/2000/svg">
<g filter="url(#filter0_d)">
<path d="M10.9375 26.5625C8.34063 26.5625 6.25 28.6531 6.25 31.25V75C6.25 77.5969 8.34063 79.6875 10.9375 79.6875H15.625V83.5938C15.625 84.8922 16.6703 85.9375 17.9688 85.9375H20.3125C21.6109 85.9375 22.6562 84.8922 22.6562 83.5938V79.6875H71.0938V83.5938C71.0938 84.8922 72.1391 85.9375 73.4375 85.9375H75.7812C77.0797 85.9375 78.1092 84.8922 78.125 83.5938V79.6875H82.8125C85.4094 79.6875 87.5 77.5969 87.5 75V31.25C87.5 28.6531 85.4094 26.5625 82.8125 26.5625H10.9375Z" stroke="#39BEB9" stroke-width="3.125" stroke-linejoin="round"/>
<path d="M76.5624 58.5938C78.2883 58.5938 79.6874 57.1946 79.6874 55.4688C79.6874 53.7429 78.2883 52.3438 76.5624 52.3438C74.8365 52.3438 73.4374 53.7429 73.4374 55.4688C73.4374 57.1946 74.8365 58.5938 76.5624 58.5938Z" stroke="#39BEB9" stroke-width="3.125" stroke-linejoin="round"/>
<path d="M76.5624 71.0938C78.2883 71.0938 79.6874 69.6946 79.6874 67.9688C79.6874 66.2429 78.2883 64.8438 76.5624 64.8438C74.8365 64.8438 73.4374 66.2429 73.4374 67.9688C73.4374 69.6946 74.8365 71.0938 76.5624 71.0938Z" stroke="#39BEB9" stroke-width="3.125" stroke-linejoin="round"/>
<path d="M79.6651 32.8125H51.5848" stroke="#39BEB9" stroke-width="3.125" stroke-linecap="round" stroke-linejoin="round"/>
<path d="M42.1651 32.8125H14.0848" stroke="#39BEB9" stroke-width="3.125" stroke-linecap="round" stroke-linejoin="round"/>
<path d="M79.6652 39.0625H51.5849" stroke="#39BEB9" stroke-width="3.125" stroke-linecap="round" stroke-linejoin="round"/>
<path d="M42.1652 39.0625H14.0849" stroke="#39BEB9" stroke-width="3.125" stroke-linecap="round" stroke-linejoin="round"/>
<path d="M79.6652 45.3125H51.5849" stroke="#39BEB9" stroke-width="3.125" stroke-linecap="round" stroke-linejoin="round"/>
<path d="M42.1652 45.3125H14.0849" stroke="#39BEB9" stroke-width="3.125" stroke-linecap="round" stroke-linejoin="round"/>
<path d="M90.625 45.3125H91.0156C92.0977 45.3125 92.9688 44.4412 92.9688 43.3594V41.0156C92.9688 39.9334 92.0977 39.0625 91.0156 39.0625H90.625" stroke="#39BEB9" stroke-width="3.125" stroke-linejoin="round"/>
<path d="M90.625 58.5938H91.0156C92.0977 58.5938 92.9688 57.7225 92.9688 56.6406V54.2969C92.9688 53.2147 92.0977 52.3438 91.0156 52.3438H90.625" stroke="#39BEB9" stroke-width="3.125" stroke-linejoin="round"/>
<path d="M19.5312 21.0938V17.9688L21.875 14.8438V11.7188" stroke="#39BEB9" stroke-width="3.125"/>
<path d="M27.3438 21.0938V17.9688L29.6875 14.8438V11.7188" stroke="#39BEB9" stroke-width="3.125"/>
<path d="M35.1562 21.0938V17.9688L37.5 14.8438V11.7188" stroke="#39BEB9" stroke-width="3.125"/>
<path d="M42.9688 21.0938V17.9688L45.3125 14.8438V11.7188" stroke="#39BEB9" stroke-width="3.125"/>
<path d="M50.7812 21.0938V17.9688L53.125 14.8438V11.7188" stroke="#39BEB9" stroke-width="3.125"/>
<path d="M58.5938 21.0938V17.9688L60.9375 14.8438V11.7188" stroke="#39BEB9" stroke-width="3.125"/>
<path d="M66.4062 21.0938V17.9688L68.75 14.8438V11.7188" stroke="#39BEB9" stroke-width="3.125"/>
<path d="M74.2188 21.0938V17.9688L76.5625 14.8438V11.7188" stroke="#39BEB9" stroke-width="3.125"/>
</g>
<defs>
<filter id="filter0_d" x="-4" y="0" width="108" height="108" filterUnits="userSpaceOnUse" color-interpolation-filters="sRGB">
<feFlood flood-opacity="0" result="BackgroundImageFix"/>
<feColorMatrix in="SourceAlpha" type="matrix" values="0 0 0 0 0 0 0 0 0 0 0 0 0 0 0 0 0 0 127 0"/>
<feOffset dy="4"/>
<feGaussianBlur stdDeviation="2"/>
<feColorMatrix type="matrix" values="0 0 0 0 0 0 0 0 0 0 0 0 0 0 0 0 0 0 0.25 0"/>
<feBlend mode="normal" in2="BackgroundImageFix" result="effect1_dropShadow"/>
<feBlend mode="normal" in="SourceGraphic" in2="effect1_dropShadow" result="shape"/>
</filter>
</defs>
</svg>
