<svg height='100px' width='100px'  fill="#000000" xmlns="http://www.w3.org/2000/svg" xmlns:xlink="http://www.w3.org/1999/xlink" version="1.1" x="0px" y="0px" viewBox="0 0 500 500" style="enable-background:new 0 0 500 500;" xml:space="preserve"><g><g><path d="M329.6,467c-30.2,0-60.4,0-90.6,0c-36.6,0-73.3,0-109.9,0c-6,0-11.8-0.4-17.4-3.3    c-10.6-5.5-16.8-16-17-27.9c-0.1-9.2,0-18.4,0-27.7c0-42.8,0-85.6,0-128.4c0-31.4,0.7-63,0-94.4c0-0.5,0-1,0-1.6    c0-9.7-15-9.7-15,0c0,27.2,0,54.4,0,81.6c0,44.7,0,89.4,0,134.1c0,11.6,0,23.2,0,34.8c0.1,25.9,19.4,47.2,45.8,47.6    c31.3,0.5,62.7,0,94,0c36,0,72,0,108,0c0.7,0,1.3,0,2,0C339.2,482,339.3,467,329.6,467L329.6,467z"></path></g></g><g><g><path d="M21.9,244.9c29.7-24.3,59.5-48.5,89.2-72.8C158,133.7,205,95.3,252,57c10.7-8.7,21.4-17.5,32.1-26.2    c-3.5,0-7.1,0-10.6,0c36.3,28.8,72.6,57.5,108.9,86.3c5.2,4.1,10.4,8.3,15.7,12.4c3.2,2.5,7.5,3.1,10.6,0c2.6-2.6,3.2-8.1,0-10.6    C372.3,90.1,336,61.3,299.7,32.6c-5.2-4.1-10.4-8.3-15.7-12.4c-3.4-2.7-7.2-2.8-10.6,0C243.7,44.4,214,68.7,184.3,93    c-47,38.4-94,76.7-140.9,115.1c-10.7,8.7-21.4,17.5-32.1,26.2c-3.2,2.6-2.6,7.9,0,10.6C14.3,248,18.8,247.4,21.9,244.9L21.9,244.9    z"></path></g></g><g><g><g><path d="M454.3,376c-0.3,26.7-18.4,50.4-44.4,56.9c-26.1,6.6-53.7-6-66.3-29.6c-13.3-24.9-6.1-57.2,16.5-74.2     c4.2-3.2,9.3-4.8,9.6-10.8c0.1-1.5,0-3,0-4.5c0-6.9,0-13.9,0-20.8c0-19.3,0-38.5,0-57.8c0-11.7-2.4-27.3,4.3-37.6     c7.3-11.1,22.5-14.8,34.1-8.2c8.9,5,13.2,14,13.2,24c0.1,14.5,0,29.1,0,43.6c0,17.8,0,35.5,0,53.3c0,3.9-0.9,9.8,1.6,13.1     c2.1,2.8,6,4.2,8.8,6.4c2.8,2.2,5.3,4.7,7.7,7.3c4.7,5.2,8.5,11.3,10.9,17.8C453,361.7,454.2,368.7,454.3,376     c0.1,9.6,15.1,9.7,15,0c-0.3-26.2-14.1-50.2-36.6-63.7c1.2,2.2,2.5,4.3,3.7,6.5c0-35.6,0.6-71.2,0-106.8     c-0.4-21.2-16.4-38.8-37.6-40.7c-19.1-1.7-37.2,11.1-42.4,29.4c-2.1,7.2-1.6,14.9-1.6,22.3c0,11.2,0,22.3,0,33.5     c0,20.8,0,41.6,0,62.4c1.2-2.2,2.5-4.3,3.7-6.5c-36.9,22-48.2,72.5-22.2,107.4c24.7,33,72.6,39.6,105,14     c17.7-13.9,27.7-35.3,27.9-57.7C469.4,366.4,454.4,366.3,454.3,376z"></path></g></g></g><g><circle cx="395.6" cy="379" r="15.3"></circle><g><path d="M403.5,379c-0.5,10.1-15.7,10.2-15.7,0C387.8,368.8,403,368.9,403.5,379c0.4,9.6,15.4,9.7,15,0    c-0.6-12.4-10-22.8-22.8-22.8c-12.5,0-22.8,10.4-22.8,22.8c-0.1,12.4,10.5,22.8,22.8,22.8c12.8,0,22.3-10.5,22.8-22.8    C418.9,369.3,403.9,369.4,403.5,379z"></path></g></g><g><rect x="453.4" y="194.6" width="30" height="21.2"></rect><g><path d="M483.4,213.3c-10,0-20,0-30,0c0.8,0.8,1.7,1.7,2.5,2.5c0-7.1,0-14.1,0-21.2c-0.8,0.8-1.7,1.7-2.5,2.5    c10,0,20,0,30,0c-0.8-0.8-1.7-1.7-2.5-2.5c0,7.1,0,14.1,0,21.2c0,3.2,5,3.2,5,0c0-7.1,0-14.1,0-21.2c0-1.4-1.1-2.5-2.5-2.5    c-10,0-20,0-30,0c-1.4,0-2.5,1.1-2.5,2.5c0,7.1,0,14.1,0,21.2c0,1.4,1.1,2.5,2.5,2.5c10,0,20,0,30,0    C486.6,218.3,486.6,213.3,483.4,213.3z"></path></g></g><g><rect x="453.4" y="231.4" width="30" height="21.2"></rect><g><path d="M483.4,250.1c-10,0-20,0-30,0c0.8,0.8,1.7,1.7,2.5,2.5c0-7.1,0-14.1,0-21.2c-0.8,0.8-1.7,1.7-2.5,2.5    c10,0,20,0,30,0c-0.8-0.8-1.7-1.7-2.5-2.5c0,7.1,0,14.1,0,21.2c0,3.2,5,3.2,5,0c0-7.1,0-14.1,0-21.2c0-1.4-1.1-2.5-2.5-2.5    c-10,0-20,0-30,0c-1.4,0-2.5,1.1-2.5,2.5c0,7.1,0,14.1,0,21.2c0,1.4,1.1,2.5,2.5,2.5c10,0,20,0,30,0    C486.6,255.1,486.6,250.1,483.4,250.1z"></path></g></g><g><rect x="453.4" y="269" width="30" height="21.2"></rect><g><path d="M483.4,287.7c-10,0-20,0-30,0c0.8,0.8,1.7,1.7,2.5,2.5c0-7.1,0-14.1,0-21.2c-0.8,0.8-1.7,1.7-2.5,2.5    c10,0,20,0,30,0c-0.8-0.8-1.7-1.7-2.5-2.5c0,7.1,0,14.1,0,21.2c0,3.2,5,3.2,5,0c0-7.1,0-14.1,0-21.2c0-1.4-1.1-2.5-2.5-2.5    c-10,0-20,0-30,0c-1.4,0-2.5,1.1-2.5,2.5c0,7.1,0,14.1,0,21.2c0,1.4,1.1,2.5,2.5,2.5c10,0,20,0,30,0    C486.6,292.7,486.6,287.7,483.4,287.7z"></path></g></g></svg>