<svg width="100" height="100" viewBox="0 0 100 100" fill="none" xmlns="http://www.w3.org/2000/svg">
<g filter="url(#filter0_d)">
<path d="M30.2 62.2999C20.5 62.2999 12.6 54.4 12.6 44.7C12.6 44.1 13 43.7 13.6 43.7H46.7C47.3 43.7 47.7 44.1 47.7 44.7C47.7 54.5 39.9 62.2999 30.2 62.2999ZM14.7 45.7999C15.2 53.9 22 60.4 30.2 60.4C38.4 60.4 45.2 53.9999 45.7 45.7999H14.7Z" fill="#39BEB9"/>
<path d="M27.3 42.2001C25.3 42.2001 23.7 40.6 23.7 38.6C23.7 36.6 25.3 35 27.3 35C28.2 35 28.9 34.3001 28.9 33.4001C28.9 32.5001 28.2 31.8 27.3 31.8C26.7 31.8 26.3 31.4 26.3 30.8C26.3 30.2 26.7 29.8 27.3 29.8C29.3 29.8 30.9 31.4001 30.9 33.4001C30.9 35.4001 29.3 37 27.3 37C26.4 37 25.7 37.7 25.7 38.6C25.7 39.5 26.4 40.2001 27.3 40.2001C27.9 40.2001 28.3 40.6 28.3 41.2001C28.3 41.8001 27.9 42.2001 27.3 42.2001Z" fill="#39BEB9"/>
<path d="M34.1 42.2001C32.1 42.2001 30.5 40.6 30.5 38.6C30.5 36.6 32.1 35 34.1 35C35 35 35.7 34.3001 35.7 33.4001C35.7 32.5001 35 31.8 34.1 31.8C33.5 31.8 33.1 31.4 33.1 30.8C33.1 30.2 33.5 29.8 34.1 29.8C36.1 29.8 37.7 31.4001 37.7 33.4001C37.7 35.4001 36.1 37 34.1 37C33.2 37 32.5 37.7 32.5 38.6C32.5 39.5 33.2 40.2001 34.1 40.2001C34.7 40.2001 35.1 40.6 35.1 41.2001C35.1 41.8001 34.7 42.2001 34.1 42.2001Z" fill="#39BEB9"/>
<path d="M67.5 62.2999C57.8 62.2999 49.9 54.4 49.9 44.7C49.9 44.1 50.3 43.7 50.9 43.7H84C84.6 43.7 85 44.1 85 44.7C85.1 54.5 77.2 62.2999 67.5 62.2999ZM52 45.7999C52.5 53.9 59.3 60.4 67.5 60.4C75.7 60.4 82.5 53.9999 83 45.7999H52Z" fill="#39BEB9"/>
<path d="M64.7 42.2001C62.7 42.2001 61.1 40.6 61.1 38.6C61.1 36.6 62.7 35 64.7 35C65.6 35 66.3 34.3001 66.3 33.4001C66.3 32.5001 65.6 31.8 64.7 31.8C64.1 31.8 63.7 31.4 63.7 30.8C63.7 30.2 64.1 29.8 64.7 29.8C66.7 29.8 68.3 31.4001 68.3 33.4001C68.3 35.4001 66.7 37 64.7 37C63.8 37 63.1 37.7 63.1 38.6C63.1 39.5 63.8 40.2001 64.7 40.2001C65.3 40.2001 65.7 40.6 65.7 41.2001C65.7 41.8001 65.2 42.2001 64.7 42.2001Z" fill="#39BEB9"/>
<path d="M71.5 42.2001C69.5 42.2001 67.9 40.6 67.9 38.6C67.9 36.6 69.5 35 71.5 35C72.4 35 73.1 34.3001 73.1 33.4001C73.1 32.5001 72.4 31.8 71.5 31.8C70.9 31.8 70.5 31.4 70.5 30.8C70.5 30.2 70.9 29.8 71.5 29.8C73.5 29.8 75.1 31.4001 75.1 33.4001C75.1 35.4001 73.5 37 71.5 37C70.6 37 69.9 37.7 69.9 38.6C69.9 39.5 70.6 40.2001 71.5 40.2001C72.1 40.2001 72.5 40.6 72.5 41.2001C72.5 41.8001 72 42.2001 71.5 42.2001Z" fill="#39BEB9"/>
<path d="M80.7 67.7H16.2C14.5 67.7 13.1 66.3 13.1 64.6V63.4001C13.1 61.7001 14.5 60.3 16.2 60.3H80.7C82.4 60.3 83.8 61.7001 83.8 63.4001V64.6C83.8 66.3 82.4 67.7 80.7 67.7ZM16.2 62.3C15.6 62.3 15.1 62.8001 15.1 63.4001V64.6C15.1 65.2 15.6 65.7 16.2 65.7H80.7C81.3 65.7 81.8 65.2 81.8 64.6V63.4001C81.8 62.8001 81.3 62.3 80.7 62.3H16.2Z" fill="#39BEB9"/>
<path d="M26.1 73.3H21C18.9 73.3 17.2 71.6 17.2 69.5C17.2 67.4 18.9 65.7 21 65.7H26.1C28.2 65.7 29.9 67.4 29.9 69.5C29.9 71.6 28.2 73.3 26.1 73.3ZM21 67.7C20 67.7 19.2 68.5 19.2 69.5C19.2 70.5 20 71.3 21 71.3H26.1C27.1 71.3 27.9 70.5 27.9 69.5C27.9 68.5 27.1 67.7 26.1 67.7H21Z" fill="#39BEB9"/>
<path d="M76.6 73.3H71.5C69.4 73.3 67.7 71.6 67.7 69.5C67.7 67.4 69.4 65.7 71.5 65.7H76.6C78.7 65.7 80.4 67.4 80.4 69.5C80.4 71.6 78.7 73.3 76.6 73.3ZM71.5 67.7C70.5 67.7 69.7 68.5 69.7 69.5C69.7 70.5 70.5 71.3 71.5 71.3H76.6C77.6 71.3 78.4 70.5 78.4 69.5C78.4 68.5 77.6 67.7 76.6 67.7H71.5Z" fill="#39BEB9"/>
</g>
<defs>
<filter id="filter0_d" x="-4" y="0" width="108" height="108" filterUnits="userSpaceOnUse" color-interpolation-filters="sRGB">
<feFlood flood-opacity="0" result="BackgroundImageFix"/>
<feColorMatrix in="SourceAlpha" type="matrix" values="0 0 0 0 0 0 0 0 0 0 0 0 0 0 0 0 0 0 127 0"/>
<feOffset dy="4"/>
<feGaussianBlur stdDeviation="2"/>
<feColorMatrix type="matrix" values="0 0 0 0 0 0 0 0 0 0 0 0 0 0 0 0 0 0 0.25 0"/>
<feBlend mode="normal" in2="BackgroundImageFix" result="effect1_dropShadow"/>
<feBlend mode="normal" in="SourceGraphic" in2="effect1_dropShadow" result="shape"/>
</filter>
</defs>
</svg>
