<svg width="100" height="103" viewBox="0 0 100 103" fill="none" xmlns="http://www.w3.org/2000/svg">
<g filter="url(#filter0_d)">
<path d="M70.109 13.895H68.339V13.218C68.339 10.48 66.109 8.251 63.369 8.251H56.668L56.67 6.063C56.671 5.491 56.208 5.028 55.637 5.026L44.049 5C44.048 5 44.047 5 44.046 5C43.772 5 43.509 5.109 43.315 5.302C43.12 5.496 43.011 5.759 43.01 6.034L43.006 8.251H36.627C33.887 8.251 31.657 10.479 31.657 13.218V13.895H29.89C26.931 13.895 24.523 16.306 24.523 19.269V89.633C24.523 92.592 26.931 95 29.89 95H70.109C73.068 95 75.476 92.592 75.476 89.633V19.269C75.476 16.306 73.068 13.895 70.109 13.895ZM45.078 8.241L45.081 7.075L54.598 7.096L54.597 8.252H49.838L45.078 8.241ZM33.729 13.218C33.729 11.622 35.029 10.323 36.627 10.323H49.833L55.629 10.336C55.63 10.336 55.631 10.336 55.632 10.336C55.655 10.336 55.675 10.324 55.698 10.323H63.37C64.968 10.323 66.268 11.621 66.268 13.218V13.895H55.138H44.86H33.73V13.218H33.729ZM54.101 72.705H45.895V15.967H54.101V72.705ZM44.86 75.089H55.138H64.527C66.22 75.089 67.598 76.468 67.598 78.163V86.422C67.598 88.115 66.221 89.492 64.527 89.492H35.477C33.781 89.492 32.4 88.115 32.4 86.422V78.163C32.4 76.468 33.78 75.089 35.477 75.089H44.86ZM73.404 89.633C73.404 91.45 71.926 92.928 70.109 92.928H29.891C28.074 92.928 26.596 91.45 26.596 89.633V19.269C26.596 17.448 28.074 15.967 29.891 15.967H43.824V72.705H35.477C32.467 72.705 30.019 75.153 30.019 78.162V86.421C30.019 89.427 32.467 91.872 35.477 91.872H64.527C67.531 91.872 69.975 89.426 69.975 86.421V78.162C69.975 75.153 67.531 72.705 64.527 72.705H56.174V15.967H70.11C71.927 15.967 73.405 17.448 73.405 19.269V89.633H73.404Z" fill="#39BEB9"/>
<path d="M63.21 85.9419C65.305 85.9419 67.01 84.2349 67.01 82.1359C67.01 80.0409 65.305 78.3359 63.21 78.3359C61.111 78.3359 59.404 80.0409 59.404 82.1359C59.404 84.2349 61.111 85.9419 63.21 85.9419ZM63.21 80.4079C64.163 80.4079 64.938 81.1829 64.938 82.1359C64.938 83.0919 64.163 83.8699 63.21 83.8699C62.254 83.8699 61.476 83.0919 61.476 82.1359C61.476 81.1829 62.254 80.4079 63.21 80.4079Z" fill="#39BEB9"/>
<path d="M33.478 82.214C33.478 83.979 34.912 85.415 36.676 85.415H54.64C56.4 85.415 57.832 83.979 57.832 82.214C57.832 80.454 56.4 79.022 54.64 79.022H36.676C34.912 79.022 33.478 80.454 33.478 82.214ZM36.676 81.094H54.64C55.268 81.094 55.76 81.586 55.76 82.214C55.76 82.837 55.258 83.343 54.64 83.343H36.676C36.055 83.343 35.55 82.836 35.55 82.214C35.55 81.597 36.055 81.094 36.676 81.094Z" fill="#39BEB9"/>
</g>
<defs>
<filter id="filter0_d" x="-4" y="0" width="108" height="108" filterUnits="userSpaceOnUse" color-interpolation-filters="sRGB">
<feFlood flood-opacity="0" result="BackgroundImageFix"/>
<feColorMatrix in="SourceAlpha" type="matrix" values="0 0 0 0 0 0 0 0 0 0 0 0 0 0 0 0 0 0 127 0"/>
<feOffset dy="4"/>
<feGaussianBlur stdDeviation="2"/>
<feColorMatrix type="matrix" values="0 0 0 0 0 0 0 0 0 0 0 0 0 0 0 0 0 0 0.25 0"/>
<feBlend mode="normal" in2="BackgroundImageFix" result="effect1_dropShadow"/>
<feBlend mode="normal" in="SourceGraphic" in2="effect1_dropShadow" result="shape"/>
</filter>
</defs>
</svg>
