<svg width="100" height="105" viewBox="0 0 100 105" fill="none" xmlns="http://www.w3.org/2000/svg">
<g filter="url(#filter0_d)">
<path d="M50 3.1001C36.2 3.1001 25 14.3001 25 28.1001C25 34.5001 27.4 40.3001 31.4 44.7001L44.4 92.5001C45.1 95.1001 47.4 96.8001 50 96.8001C52.7 96.8001 54.9 95.1001 55.6 92.5001L68.6 44.7001C72.6 40.3001 75 34.4001 75 28.1001C75 14.3001 63.8 3.1001 50 3.1001ZM51.9 91.5001C51.5 92.9001 50.3 93.0001 50 93.0001C49.7 93.0001 48.5 92.9001 48.1 91.6001L37.7 53.1001H62.4L51.9 91.5001ZM63.4 49.2001H36.6L35.7 46.0001H64.2L63.4 49.2001ZM65.8 42.1001H34.2C30.9 38.4001 28.9 33.5001 28.9 28.1001C28.9 16.5001 38.4 7.0001 50 7.0001C61.6 7.0001 71.1 16.5001 71.1 28.1001C71.1 33.5001 69.1 38.4001 65.8 42.1001Z" fill="#39BEB9"/>
</g>
<defs>
<filter id="filter0_d" x="-4" y="0" width="108" height="108" filterUnits="userSpaceOnUse" color-interpolation-filters="sRGB">
<feFlood flood-opacity="0" result="BackgroundImageFix"/>
<feColorMatrix in="SourceAlpha" type="matrix" values="0 0 0 0 0 0 0 0 0 0 0 0 0 0 0 0 0 0 127 0"/>
<feOffset dy="4"/>
<feGaussianBlur stdDeviation="2"/>
<feColorMatrix type="matrix" values="0 0 0 0 0 0 0 0 0 0 0 0 0 0 0 0 0 0 0.25 0"/>
<feBlend mode="normal" in2="BackgroundImageFix" result="effect1_dropShadow"/>
<feBlend mode="normal" in="SourceGraphic" in2="effect1_dropShadow" result="shape"/>
</filter>
</defs>
</svg>
