<svg width="104" height="100" viewBox="0 0 104 100" fill="none" xmlns="http://www.w3.org/2000/svg">
<g filter="url(#filter0_d)">
<path d="M97.1206 48.2256H85.7581V47.0963C88.475 46.87 90.6181 44.5906 90.6181 41.8163V40.7275C90.6181 37.8875 88.3719 35.5681 85.5644 35.4369C84.5213 29.1369 79.05 24.3125 72.4588 24.3125H60.9625V19.9119C60.9625 18.7038 59.9831 17.7244 58.775 17.7244H56.3563V16.7075L59.7738 12.9225C60.1875 12.4644 60.2931 11.805 60.0419 11.2413C59.7906 10.6775 59.2319 10.3125 58.6144 10.3125H51.9944H45.3744C44.7569 10.3125 44.1975 10.6763 43.9463 11.2406C43.695 11.805 43.8006 12.4644 44.2144 12.9219L47.6319 16.7069V17.7238H45.4125C44.2044 17.7238 43.225 18.7031 43.225 19.9113V24.3119H31.5831C24.9919 24.3119 19.52 29.1363 18.4769 35.4363C15.6688 35.5675 13.4231 37.8869 13.4231 40.7269V41.8156C13.4231 44.59 15.5656 46.8694 18.2831 47.0956V48.225H6.87938C5.67125 48.225 4.69188 49.2044 4.69188 50.4125V53.5138C4.69188 56.6319 7.22875 59.1688 10.3469 59.1688H11.4644L18.2831 64.6031V83.3438C18.2831 86.8419 21.1288 89.6869 24.6256 89.6869H79.415C82.9125 89.6869 85.7575 86.8413 85.7575 83.3438V64.5706L92.535 59.1694H93.6525C96.7706 59.1694 99.3075 56.6325 99.3075 53.5144V50.4131C99.3081 49.2056 98.3281 48.2256 97.1206 48.2256ZM22.6581 47.1188H81.3831V78.09H22.6581V47.1188ZM50.355 15.0581L48.8906 13.4375H51.9944H55.0981L53.6344 15.0581C53.375 15.345 53.2313 15.7188 53.2313 16.1056V17.7238H50.7575V16.1056C50.7575 15.7188 50.6144 15.345 50.355 15.0581ZM47.6006 22.0988H56.5875V24.3119H47.6006V22.0988ZM31.5831 28.6869H45.4131H58.775H72.4588C76.625 28.6869 80.1338 31.5569 81.1125 35.4238H22.9294C23.9075 31.5563 27.4169 28.6869 31.5831 28.6869ZM17.7981 41.8163V40.7275C17.7981 40.2156 18.2144 39.7994 18.7263 39.7994H20.4706H83.5706H85.315C85.8269 39.7994 86.2431 40.2156 86.2431 40.7275V41.8163C86.2431 42.3275 85.8269 42.7438 85.315 42.7438H83.5706H20.4706H18.7263C18.2144 42.7438 17.7981 42.3275 17.7981 41.8163ZM13.5925 55.2713C13.205 54.9625 12.7244 54.7944 12.2294 54.7944H10.3469C9.64125 54.7944 9.06688 54.22 9.06688 53.5144V52.6006H18.2831V59.0094L13.5925 55.2713ZM79.4156 85.3125H24.6263C23.5413 85.3125 22.6588 84.4294 22.6588 83.3444V81.215H81.3838V83.3444C81.3831 84.4294 80.5006 85.3125 79.4156 85.3125ZM94.9331 53.5144C94.9331 54.22 94.3587 54.7944 93.6531 54.7944H91.7706C91.275 54.7944 90.7944 54.9625 90.4069 55.2713L85.7581 58.9769V52.6006H94.9331V53.5144Z" fill="#39BEB9"/>
</g>
<defs>
<filter id="filter0_d" x="-2" y="0" width="108" height="108" filterUnits="userSpaceOnUse" color-interpolation-filters="sRGB">
<feFlood flood-opacity="0" result="BackgroundImageFix"/>
<feColorMatrix in="SourceAlpha" type="matrix" values="0 0 0 0 0 0 0 0 0 0 0 0 0 0 0 0 0 0 127 0"/>
<feOffset dy="4"/>
<feGaussianBlur stdDeviation="2"/>
<feColorMatrix type="matrix" values="0 0 0 0 0 0 0 0 0 0 0 0 0 0 0 0 0 0 0.25 0"/>
<feBlend mode="normal" in2="BackgroundImageFix" result="effect1_dropShadow"/>
<feBlend mode="normal" in="SourceGraphic" in2="effect1_dropShadow" result="shape"/>
</filter>
</defs>
</svg>
