<svg width="102" height="100" viewBox="0 0 102 100" fill="none" xmlns="http://www.w3.org/2000/svg">
<g filter="url(#filter0_d)">
<path d="M94.125 78.75C93.5 78.125 92.5625 78.125 91.9375 78.75C91.3125 79.375 91.3125 80.3125 91.9375 80.9375L92.25 81.5625H34.4375L34.75 80.9375C35.375 80.3125 35.375 79.375 34.75 78.75C34.125 78.125 33.1875 78.125 32.5625 78.75L29.4375 81.875C29.4375 81.875 29.125 82.5 29.125 82.8125C29.125 83.75 29.75 84.375 30.6875 84.375H96.3125C96.625 84.375 97.25 84.0625 97.25 84.0625C97.875 83.4375 97.875 82.5 97.25 81.875L94.125 78.75Z" fill="#39BEB9"/>
<path d="M58.8125 59.375C59.125 59.375 59.4375 59.375 59.4375 59.0625C60.0625 58.75 60.6875 57.8125 60.0625 56.875C57.875 52.5 53.8125 49.375 48.8125 49.0625L34.4375 47.1875H34.125C30.6875 47.1875 27.875 49.6875 27.875 53.125C27.875 56.5625 30.375 59.375 33.8125 59.375H58.8125ZM32.875 56.25C31.3125 55.625 30.6875 54.0625 31 52.5C31.3125 51.25 32.5625 50.625 33.8125 50.625H34.125L48.5 52.5C51.3125 52.8125 54.125 54.375 56 56.5625H33.8125C33.5 56.25 33.1875 56.25 32.875 56.25Z" fill="#39BEB9"/>
<path d="M30.6875 78.125H96.3125C96.625 78.125 96.9375 78.125 97.25 77.8125C97.875 77.1875 98.1875 76.25 97.5625 75.625C92.25 68.4375 86.3125 61.875 79.4375 55.9375C74.4375 51.875 69.125 48.125 63.5 44.6875L63.8125 44.0625C65.0625 41.875 64.125 39.0625 61.9375 37.8125L59.125 36.25C56.9375 35 54.125 35.9375 52.875 38.125L52.25 39.375C47.875 38.4375 43.1875 37.5 38.5 37.5H21.3125C20.6875 37.5 20.0625 37.8125 19.75 38.125L18.8125 39.6875C17.5625 39.0625 16.625 38.4375 15.6875 37.1875C14.75 36.25 13.8125 34.6875 13.5 33.4375V33.125C13.1875 32.5 12.25 32.1875 11.3125 32.5C8.8125 28.125 7.25 22.5 7.25 17.1875C7.25 16.25 6.625 15.625 5.6875 15.625C4.75 15.625 4.125 16.25 4.125 17.1875C4.125 23.125 5.6875 28.75 8.5 33.75C7.875 34.0625 6.9375 34.375 6 34.375C5.0625 34.6875 4.75 35.3125 4.75 36.25C5.375 38.4375 6.3125 40.625 7.875 42.5C9.75 45 12.25 46.875 15.0625 48.125L7.875 62.5C7.5625 63.125 7.25 63.75 7.25 64.375C6.3125 68.4375 8.8125 72.8125 12.875 73.75L30.375 78.125H30.6875ZM55.6875 40C55.6875 39.6875 55.6875 39.6875 55.6875 40C56 39.375 57.25 39.0625 57.875 39.375L60.6875 40.9375C61.3125 41.25 61.625 42.1875 61.3125 43.125L61 43.75C59.75 43.125 58.5 42.5 57.25 41.875L55.0625 40.625L55.6875 40ZM9.4375 39.375C9.125 38.75 8.5 37.8125 8.1875 37.1875C9.125 36.875 10.375 36.5625 11.3125 36.25C11.625 36.875 11.9375 37.5 12.5625 38.4375C11.625 38.75 10.6875 39.375 9.4375 39.375C9.75 39.375 9.75 39.375 9.4375 39.375ZM11.625 42.1875C12.5625 41.875 13.5 41.25 14.75 40.625C15.6875 41.5625 16.625 42.1875 17.875 42.8125L16.3125 45.625C14.4375 44.6875 12.875 43.4375 11.625 42.1875ZM10.6875 68.125C10.0625 66.875 10.0625 65.3125 10.6875 64.0625L18.5 48.4375L21.3125 42.8125V42.5L22.25 40.625H38.5C43.1875 40.625 47.875 41.5625 52.5625 43.125C53.5 43.4375 54.75 44.0625 55.6875 44.375C57.25 45.3125 59.125 45.9375 60.6875 46.875C60.6875 46.875 60.6875 46.875 61 46.875C66.9375 50 72.5625 53.75 77.875 58.125C83.8125 63.125 88.8125 68.4375 93.5 74.6875H31L13.8125 70.3125C12.25 70.3125 11.3125 69.375 10.6875 68.125Z" fill="#39BEB9"/>
<path d="M79.125 73.4375C79.9879 73.4375 80.6875 72.7379 80.6875 71.875C80.6875 71.0121 79.9879 70.3125 79.125 70.3125C78.2621 70.3125 77.5625 71.0121 77.5625 71.875C77.5625 72.7379 78.2621 73.4375 79.125 73.4375Z" fill="#39BEB9"/>
<path d="M72.875 73.4375C73.7379 73.4375 74.4375 72.7379 74.4375 71.875C74.4375 71.0121 73.7379 70.3125 72.875 70.3125C72.0121 70.3125 71.3125 71.0121 71.3125 71.875C71.3125 72.7379 72.0121 73.4375 72.875 73.4375Z" fill="#39BEB9"/>
<path d="M66.625 73.4375C67.4879 73.4375 68.1875 72.7379 68.1875 71.875C68.1875 71.0121 67.4879 70.3125 66.625 70.3125C65.7621 70.3125 65.0625 71.0121 65.0625 71.875C65.0625 72.7379 65.7621 73.4375 66.625 73.4375Z" fill="#39BEB9"/>
<path d="M60.375 73.4375C61.2379 73.4375 61.9375 72.7379 61.9375 71.875C61.9375 71.0121 61.2379 70.3125 60.375 70.3125C59.5121 70.3125 58.8125 71.0121 58.8125 71.875C58.8125 72.7379 59.5121 73.4375 60.375 73.4375Z" fill="#39BEB9"/>
<path d="M54.125 73.4375C54.9879 73.4375 55.6875 72.7379 55.6875 71.875C55.6875 71.0121 54.9879 70.3125 54.125 70.3125C53.2621 70.3125 52.5625 71.0121 52.5625 71.875C52.5625 72.7379 53.2621 73.4375 54.125 73.4375Z" fill="#39BEB9"/>
<path d="M47.875 73.4375C48.7379 73.4375 49.4375 72.7379 49.4375 71.875C49.4375 71.0121 48.7379 70.3125 47.875 70.3125C47.0121 70.3125 46.3125 71.0121 46.3125 71.875C46.3125 72.7379 47.0121 73.4375 47.875 73.4375Z" fill="#39BEB9"/>
<path d="M41.625 73.4375C42.4879 73.4375 43.1875 72.7379 43.1875 71.875C43.1875 71.0121 42.4879 70.3125 41.625 70.3125C40.7621 70.3125 40.0625 71.0121 40.0625 71.875C40.0625 72.7379 40.7621 73.4375 41.625 73.4375Z" fill="#39BEB9"/>
</g>
<defs>
<filter id="filter0_d" x="-3" y="0" width="108" height="108" filterUnits="userSpaceOnUse" color-interpolation-filters="sRGB">
<feFlood flood-opacity="0" result="BackgroundImageFix"/>
<feColorMatrix in="SourceAlpha" type="matrix" values="0 0 0 0 0 0 0 0 0 0 0 0 0 0 0 0 0 0 127 0"/>
<feOffset dy="4"/>
<feGaussianBlur stdDeviation="2"/>
<feColorMatrix type="matrix" values="0 0 0 0 0 0 0 0 0 0 0 0 0 0 0 0 0 0 0.25 0"/>
<feBlend mode="normal" in2="BackgroundImageFix" result="effect1_dropShadow"/>
<feBlend mode="normal" in="SourceGraphic" in2="effect1_dropShadow" result="shape"/>
</filter>
</defs>
</svg>
