<svg width="100" height="102" viewBox="0 0 100 102" fill="none" xmlns="http://www.w3.org/2000/svg">
<g filter="url(#filter0_d)">
<path d="M90.1845 68.75H9.81554C9.53273 68.75 9.43242 68.7535 9.38657 68.7616C9.37845 68.8074 9.375 68.9077 9.375 69.1905V79.6875C9.375 85.7281 14.2719 90.625 20.3125 90.625H79.6875C85.7281 90.625 90.625 85.7281 90.625 79.6875V69.1905C90.625 68.9077 90.6215 68.8074 90.6134 68.7616C90.5676 68.7535 90.4673 68.75 90.1845 68.75ZM93.7396 68.75C93.7467 68.8869 93.75 69.0331 93.75 69.1905V79.6875C93.75 87.454 87.454 93.75 79.6875 93.75H20.3125C12.546 93.75 6.25 87.454 6.25 79.6875V69.1905C6.25 69.0331 6.2533 68.8869 6.26044 68.75H4.6875V59.375C4.6875 57.6491 6.08661 56.25 7.8125 56.25H92.1875C93.9134 56.25 95.3125 57.6491 95.3125 59.375V68.75H93.7396ZM7.8125 59.375V65.625H92.1875V59.375H7.8125ZM78.125 57.8125V59.375H21.875V57.8125C21.875 32.007 38.1348 4.6875 50 4.6875C61.8652 4.6875 78.125 32.007 78.125 57.8125ZM74.9852 56.25C74.4872 32.5466 58.8722 7.8125 50 7.8125C41.1278 7.8125 25.5128 32.5466 25.0164 56.25H74.9852ZM60.9375 57.8125V59.375H39.0625V57.8125C39.0625 31.4284 43.4706 4.6875 50 4.6875C56.5294 4.6875 60.9375 31.4284 60.9375 57.8125ZM55.0932 24.8195C53.4817 16.1861 51.263 7.8125 50 7.8125C48.737 7.8125 46.5183 16.1861 44.9068 24.8195C43.2712 33.5823 42.278 44.983 42.1934 56.25H50.7412H57.8066C57.722 44.983 56.7288 33.5823 55.0932 24.8195Z" fill="#39BEB9"/>
</g>
<defs>
<filter id="filter0_d" x="-4" y="0" width="108" height="108" filterUnits="userSpaceOnUse" color-interpolation-filters="sRGB">
<feFlood flood-opacity="0" result="BackgroundImageFix"/>
<feColorMatrix in="SourceAlpha" type="matrix" values="0 0 0 0 0 0 0 0 0 0 0 0 0 0 0 0 0 0 127 0"/>
<feOffset dy="4"/>
<feGaussianBlur stdDeviation="2"/>
<feColorMatrix type="matrix" values="0 0 0 0 0 0 0 0 0 0 0 0 0 0 0 0 0 0 0.25 0"/>
<feBlend mode="normal" in2="BackgroundImageFix" result="effect1_dropShadow"/>
<feBlend mode="normal" in="SourceGraphic" in2="effect1_dropShadow" result="shape"/>
</filter>
</defs>
</svg>
