<svg width="103" height="100" viewBox="0 0 103 100" fill="none" xmlns="http://www.w3.org/2000/svg">
<g filter="url(#filter0_d)">
<path d="M85.1 66.6999H18.4V27.3999H85.1V66.6999ZM19 66.0999H84.5V27.9999H19V66.0999Z" fill="#39BEB9"/>
<path d="M98.8 73.0999V70.6999H91.7V24.2C91.7 22 89.9 20.2 87.7 20.2H15.4C13.2 20.2 11.4 22 11.4 24.2V70.6999H4.40002V73.0999C5.40002 75.7999 8.00002 79 11.1 79H92.2C95.3 79 97.9 75.7999 98.8 73.0999ZM13.7 24.2C13.7 23.3 14.5 22.5 15.4 22.5H87.7C88.6 22.5 89.4 23.3 89.4 24.2V70.6999H13.7V24.2ZM92.2 76.6999H11.1C9.40002 76.6999 7.80002 74.5 7.00002 73.0999H96.3C95.5 74.5 94 76.6999 92.2 76.6999Z" fill="#39BEB9"/>
</g>
<defs>
<filter id="filter0_d" x="-2" y="0" width="108" height="108" filterUnits="userSpaceOnUse" color-interpolation-filters="sRGB">
<feFlood flood-opacity="0" result="BackgroundImageFix"/>
<feColorMatrix in="SourceAlpha" type="matrix" values="0 0 0 0 0 0 0 0 0 0 0 0 0 0 0 0 0 0 127 0"/>
<feOffset dy="4"/>
<feGaussianBlur stdDeviation="2"/>
<feColorMatrix type="matrix" values="0 0 0 0 0 0 0 0 0 0 0 0 0 0 0 0 0 0 0.25 0"/>
<feBlend mode="normal" in2="BackgroundImageFix" result="effect1_dropShadow"/>
<feBlend mode="normal" in="SourceGraphic" in2="effect1_dropShadow" result="shape"/>
</filter>
</defs>
</svg>
