<svg width="165" height="42" viewBox="0 0 165 42" fill="none" xmlns="http://www.w3.org/2000/svg">
<path d="M15.8641 2.31323C19.2059 2.31323 22.1069 2.86407 24.5673 3.96575C27.0645 5.06742 28.974 6.64649 30.296 8.70294C31.6181 10.7594 32.2791 13.2015 32.2791 16.0291C32.2791 18.82 31.6181 21.262 30.296 23.3552C28.974 25.4117 27.0645 26.9907 24.5673 28.0924C22.1069 29.1941 19.2059 29.7449 15.8641 29.7449H7.16088V40.8718H0V2.31323H15.8641ZM15.5336 23.6857C18.655 23.6857 21.0236 23.0247 22.6394 21.7027C24.2552 20.3807 25.0631 18.4895 25.0631 16.0291C25.0631 13.5687 24.2552 11.6775 22.6394 10.3555C21.0236 9.03345 18.655 8.37244 15.5336 8.37244H7.16088V23.6857H15.5336Z" fill="white"/>
<path d="M69.9146 0H76.8V40.8721H69.9146V0Z" fill="white"/>
<path d="M85.8372 0H92.7227V40.8721H85.8372V0Z" fill="white"/>
<path d="M129.412 26.33C129.412 26.8074 129.375 27.4868 129.302 28.3681H106.222C106.626 30.5347 107.672 32.2607 109.361 33.546C111.087 34.7946 113.217 35.4188 115.751 35.4188C118.983 35.4188 121.645 34.3539 123.738 32.224L127.429 36.4654C126.107 38.0445 124.436 39.238 122.416 40.0459C120.396 40.8538 118.12 41.2577 115.586 41.2577C112.354 41.2577 109.508 40.6151 107.048 39.3298C104.587 38.0445 102.678 36.2635 101.319 33.9867C99.9971 31.6731 99.3361 29.0658 99.3361 26.1648C99.3361 23.3004 99.9788 20.7298 101.264 18.4531C102.586 16.1395 104.404 14.3401 106.717 13.0548C109.031 11.7696 111.638 11.1269 114.539 11.1269C117.404 11.1269 119.956 11.7696 122.196 13.0548C124.473 14.3034 126.235 16.0845 127.484 18.398C128.769 20.6748 129.412 23.3188 129.412 26.33ZM114.539 16.6353C112.336 16.6353 110.463 17.2963 108.921 18.6183C107.415 19.9036 106.497 21.6295 106.167 23.7962H122.857C122.563 21.6663 121.663 19.9403 120.158 18.6183C118.652 17.2963 116.779 16.6353 114.539 16.6353Z" fill="white"/>
<path d="M152.716 11.1269C156.425 11.1269 159.4 12.2102 161.64 14.3769C163.88 16.5435 165 19.7567 165 24.0165V40.8721H158.114V24.8978C158.114 22.3273 157.508 20.3993 156.297 19.1141C155.085 17.792 153.359 17.131 151.119 17.131C148.585 17.131 146.583 17.9022 145.115 19.4446C143.646 20.9502 142.911 23.1352 142.911 25.9995V40.8721H136.026V11.4574H142.581V15.2582C143.719 13.8995 145.151 12.8712 146.877 12.1735C148.603 11.4758 150.55 11.1269 152.716 11.1269Z" fill="white"/>
<circle cx="49.9054" cy="25.3795" r="15.4923" fill="#4385F5"/>
</svg>
