<svg width="585" height="221" viewBox="0 0 585 221" fill="none" xmlns="http://www.w3.org/2000/svg">
<path d="M56.2262 82.9724C68.0701 82.9724 78.3522 84.9247 87.0724 88.8293C95.9229 92.7339 102.691 98.3305 107.376 105.619C112.062 112.908 114.405 121.563 114.405 131.585C114.405 141.476 112.062 150.131 107.376 157.55C102.691 164.839 95.9229 170.435 87.0724 174.34C78.3522 178.245 68.0701 180.197 56.2262 180.197H25.3799V219.633H0V82.9724H56.2262ZM55.0548 158.722C66.1178 158.722 74.5127 156.379 80.2394 151.693C85.9661 147.008 88.8295 140.305 88.8295 131.585C88.8295 122.864 85.9661 116.161 80.2394 111.476C74.5127 106.79 66.1178 104.448 55.0548 104.448H25.3799V158.722H55.0548Z" fill="white"/>
<path d="M247.795 74.7728H272.199V219.633H247.795V74.7728Z" fill="white"/>
<path d="M304.229 74.7728H328.632V219.633H304.229V74.7728Z" fill="white"/>
<path d="M458.668 168.093C458.668 169.785 458.537 172.192 458.277 175.316H376.476C377.908 182.995 381.617 189.112 387.604 193.668C393.721 198.093 401.27 200.306 410.251 200.306C421.704 200.306 431.14 196.531 438.559 188.982L451.639 204.015C446.954 209.611 441.032 213.841 433.873 216.705C426.715 219.568 418.646 221 409.665 221C398.212 221 388.125 218.722 379.404 214.167C370.684 209.611 363.916 203.299 359.1 195.23C354.415 187.03 352.072 177.789 352.072 167.507C352.072 157.355 354.35 148.244 358.905 140.175C363.591 131.975 370.033 125.598 378.233 121.042C386.433 116.487 395.674 114.209 405.956 114.209C416.108 114.209 425.153 116.487 433.093 121.042C441.162 125.467 447.409 131.78 451.835 139.98C456.39 148.049 458.668 157.42 458.668 168.093ZM405.956 133.732C398.146 133.732 391.509 136.075 386.042 140.76C380.706 145.316 377.452 151.433 376.281 159.112H435.435C434.394 151.563 431.205 145.446 425.869 140.76C420.533 136.075 413.895 133.732 405.956 133.732Z" fill="white"/>
<path d="M541.264 114.209C554.409 114.209 564.951 118.049 572.891 125.728C580.83 133.407 584.8 144.795 584.8 159.893V219.633H560.396V163.017C560.396 153.906 558.249 147.073 553.953 142.518C549.658 137.832 543.541 135.489 535.602 135.489C526.621 135.489 519.528 138.222 514.322 143.689C509.116 149.025 506.513 156.769 506.513 166.921V219.633H482.109V115.381H505.341V128.851C509.376 124.036 514.452 120.391 520.569 117.919C526.686 115.446 533.584 114.209 541.264 114.209Z" fill="white"/>
<circle cx="176.878" cy="164.725" r="54.9083" fill="#4385F5"/>
<circle cx="192.13" cy="54.9083" r="36.6056" fill="#34A755"/>
<circle cx="260.765" cy="22.8785" r="22.8785" fill="#FBBE08"/>
<circle cx="320.25" cy="33.5551" r="18.3028" fill="#E94234"/>
</svg>
