<svg width="405" height="102" viewBox="0 0 405 102" fill="none" xmlns="http://www.w3.org/2000/svg">
<path d="M38.9392 5.67822C47.1417 5.67822 54.2625 7.03028 60.3017 9.73439C66.431 12.4385 71.1181 16.3144 74.363 21.3621C77.608 26.4097 79.2304 32.4039 79.2304 39.3444C79.2304 46.1948 77.608 52.1889 74.363 57.3267C71.1181 62.3744 66.431 66.2503 60.3017 68.9544C54.2625 71.6585 47.1417 73.0106 38.9392 73.0106H17.5767V100.322H0V5.67822H38.9392ZM38.128 58.138C45.7896 58.138 51.6034 56.5155 55.5695 53.2706C59.5355 50.0256 61.5185 45.3836 61.5185 39.3444C61.5185 33.3052 59.5355 28.6632 55.5695 25.4182C51.6034 22.1733 45.7896 20.5508 38.128 20.5508H17.5767V58.138H38.128Z" fill="#E2E2E2"/>
<path d="M171.609 0H188.51V100.322H171.609V0Z" fill="#E2E2E2"/>
<path d="M210.692 0H227.592V100.322H210.692V0Z" fill="#E2E2E2"/>
<path d="M317.648 64.6282C317.648 65.8 317.558 67.4676 317.377 69.6308H260.726C261.718 74.9489 264.287 79.1854 268.433 82.3402C272.669 85.4048 277.897 86.9371 284.117 86.9371C292.049 86.9371 298.584 84.3232 303.722 79.0952L312.78 89.5061C309.535 93.3819 305.434 96.3114 300.477 98.2944C295.519 100.277 289.931 101.269 283.711 101.269C275.779 101.269 268.793 99.6915 262.754 96.5367C256.715 93.3819 252.028 89.0103 248.693 83.4218C245.448 77.7432 243.826 71.3434 243.826 64.2226C243.826 57.1919 245.403 50.8823 248.558 45.2938C251.803 39.6152 256.264 35.1985 261.943 32.0437C267.622 28.8889 274.021 27.3115 281.142 27.3115C288.173 27.3115 294.437 28.8889 299.936 32.0437C305.524 35.1084 309.851 39.48 312.916 45.1586C316.07 50.7471 317.648 57.237 317.648 64.6282ZM281.142 40.8321C275.734 40.8321 271.137 42.4545 267.351 45.6995C263.656 48.8543 261.402 53.0907 260.591 58.4088H301.558C300.837 53.1808 298.629 48.9444 294.933 45.6995C291.238 42.4545 286.641 40.8321 281.142 40.8321Z" fill="#E2E2E2"/>
<path d="M374.849 27.3115C383.953 27.3115 391.254 29.9706 396.752 35.2886C402.251 40.6067 405 48.4937 405 58.9496V100.322H388.099V61.1129C388.099 54.8033 386.612 50.0711 383.638 46.9163C380.663 43.6714 376.427 42.0489 370.928 42.0489C364.709 42.0489 359.796 43.9418 356.191 47.7275C352.585 51.4232 350.783 56.7863 350.783 63.817V100.322H333.882V28.1227H349.971V37.4519C352.766 34.1169 356.281 31.593 360.517 29.8804C364.754 28.1678 369.531 27.3115 374.849 27.3115Z" fill="#E2E2E2"/>
<g filter="url(#filter0_b)">
<circle cx="122.496" cy="62.2962" r="38.0266" fill="#E2E2E2"/>
</g>
<defs>
<filter id="filter0_b" x="80.4697" y="20.2697" width="84.0531" height="84.0531" filterUnits="userSpaceOnUse" color-interpolation-filters="sRGB">
<feFlood flood-opacity="0" result="BackgroundImageFix"/>
<feGaussianBlur in="BackgroundImage" stdDeviation="2"/>
<feComposite in2="SourceAlpha" operator="in" result="effect1_backgroundBlur"/>
<feBlend mode="normal" in="SourceGraphic" in2="effect1_backgroundBlur" result="shape"/>
</filter>
</defs>
</svg>
