<svg width="165" height="42" viewBox="0 0 165 42" fill="none" xmlns="http://www.w3.org/2000/svg">
<path d="M15.8641 2.4104C19.2059 2.4104 22.1069 2.96124 24.5673 4.06291C27.0645 5.16459 28.974 6.74365 30.296 8.80011C31.6181 10.8566 32.2791 13.2986 32.2791 16.1262C32.2791 18.9172 31.6181 21.3592 30.296 23.4524C28.974 25.5088 27.0645 27.0879 24.5673 28.1896C22.1069 29.2913 19.2059 29.8421 15.8641 29.8421H7.16088V40.969H0V2.4104H15.8641ZM15.5336 23.7829C18.655 23.7829 21.0236 23.1219 22.6394 21.7999C24.2552 20.4779 25.0631 18.5867 25.0631 16.1262C25.0631 13.6658 24.2552 11.7746 22.6394 10.4526C21.0236 9.13062 18.655 8.46961 15.5336 8.46961H7.16088V23.7829H15.5336Z" fill="black"/>
<path d="M69.9146 0.097168H76.8V40.9693H69.9146V0.097168Z" fill="black"/>
<path d="M85.8372 0.097168H92.7227V40.9693H85.8372V0.097168Z" fill="black"/>
<path d="M129.412 26.4272C129.412 26.9046 129.375 27.584 129.302 28.4653H106.222C106.626 30.6319 107.672 32.3579 109.361 33.6432C111.087 34.8917 113.217 35.516 115.751 35.516C118.983 35.516 121.645 34.4511 123.738 32.3212L127.429 36.5626C126.107 38.1417 124.436 39.3351 122.416 40.143C120.396 40.9509 118.12 41.3549 115.586 41.3549C112.354 41.3549 109.508 40.7122 107.048 39.427C104.587 38.1417 102.678 36.3606 101.319 34.0838C99.9971 31.7703 99.3361 29.163 99.3361 26.2619C99.3361 23.3976 99.9788 20.827 101.264 18.5502C102.586 16.2367 104.404 14.4373 106.717 13.152C109.031 11.8667 111.638 11.2241 114.539 11.2241C117.404 11.2241 119.956 11.8667 122.196 13.152C124.473 14.4006 126.235 16.1816 127.484 18.4951C128.769 20.7719 129.412 23.4159 129.412 26.4272ZM114.539 16.7325C112.336 16.7325 110.463 17.3935 108.921 18.7155C107.415 20.0008 106.497 21.7267 106.167 23.8933H122.857C122.563 21.7634 121.663 20.0375 120.158 18.7155C118.652 17.3935 116.779 16.7325 114.539 16.7325Z" fill="black"/>
<path d="M152.716 11.2241C156.425 11.2241 159.4 12.3074 161.64 14.474C163.88 16.6406 165 19.8539 165 24.1137V40.9693H158.114V24.995C158.114 22.4244 157.508 20.4965 156.297 19.2112C155.085 17.8892 153.359 17.2282 151.119 17.2282C148.585 17.2282 146.583 17.9994 145.115 19.5417C143.646 21.0473 142.911 23.2323 142.911 26.0967V40.9693H136.026V11.5546H142.581V15.3554C143.719 13.9966 145.151 12.9684 146.877 12.2707C148.603 11.5729 150.55 11.2241 152.716 11.2241Z" fill="black"/>
<circle cx="49.9054" cy="25.4767" r="15.4923" fill="#4385F5"/>
</svg>
