<svg width="104" height="100" viewBox="0 0 104 100" fill="none" xmlns="http://www.w3.org/2000/svg">
<g filter="url(#filter0_d)">
<path d="M92.443 18.729H11.558C7.713 18.729 4.58501 21.857 4.58501 25.702V69.689C4.58501 73.534 7.713 76.661 11.558 76.661H12.054V80.569C12.054 80.956 12.368 81.27 12.756 81.27H22.378C22.765 81.27 23.079 80.956 23.079 80.569V76.661H80.922V80.569C80.922 80.956 81.235 81.27 81.624 81.27H91.246C91.633 81.27 91.947 80.956 91.947 80.569V76.661H92.443C96.288 76.661 99.416 73.534 99.416 69.689V25.702C99.415 21.857 96.287 18.729 92.443 18.729ZM21.676 79.867H13.457V76.661H21.676V79.867ZM90.543 79.867H82.324V76.661H90.543V79.867ZM98.012 69.689C98.012 72.76 95.514 75.257 92.443 75.257H11.558C8.487 75.257 5.989 72.76 5.989 69.689V25.702C5.989 22.631 8.487 20.133 11.558 20.133H92.443C95.514 20.133 98.012 22.631 98.012 25.702V69.689Z" fill="#39BEB9"/>
<path d="M81.232 55.949C79.477 55.949 78.049 57.375 78.049 59.13C78.049 60.884 79.477 62.311 81.232 62.311C82.985 62.311 84.413 60.884 84.413 59.13C84.412 57.375 82.985 55.949 81.232 55.949ZM81.232 60.908C80.251 60.908 79.453 60.109 79.453 59.13C79.453 58.149 80.251 57.351 81.232 57.351C82.211 57.351 83.009 58.149 83.009 59.13C83.009 60.109 82.211 60.908 81.232 60.908Z" fill="#39BEB9"/>
<path d="M89.291 55.949C87.536 55.949 86.108 57.375 86.108 59.13C86.108 60.884 87.536 62.311 89.291 62.311C91.044 62.311 92.472 60.884 92.472 59.13C92.472 57.375 91.044 55.949 89.291 55.949ZM89.291 60.908C88.31 60.908 87.512 60.109 87.512 59.13C87.512 58.149 88.31 57.351 89.291 57.351C90.27 57.351 91.068 58.149 91.068 59.13C91.069 60.109 90.271 60.908 89.291 60.908Z" fill="#39BEB9"/>
<path d="M73.171 55.949C71.417 55.949 69.991 57.375 69.991 59.13C69.991 60.884 71.417 62.311 73.171 62.311C74.926 62.311 76.352 60.884 76.352 59.13C76.352 57.375 74.926 55.949 73.171 55.949ZM73.171 60.908C72.191 60.908 71.393 60.109 71.393 59.13C71.393 58.149 72.191 57.351 73.171 57.351C74.151 57.351 74.948 58.149 74.948 59.13C74.948 60.109 74.152 60.908 73.171 60.908Z" fill="#39BEB9"/>
<path d="M81.232 65.5691C79.477 65.5691 78.049 66.9971 78.049 68.7521C78.049 70.5051 79.477 71.9331 81.232 71.9331C82.985 71.9331 84.413 70.5051 84.413 68.7521C84.412 66.9971 82.985 65.5691 81.232 65.5691ZM81.232 70.5291C80.251 70.5291 79.453 69.7311 79.453 68.7521C79.453 67.7711 80.251 66.9731 81.232 66.9731C82.211 66.9731 83.009 67.7711 83.009 68.7521C83.009 69.7311 82.211 70.5291 81.232 70.5291Z" fill="#39BEB9"/>
<path d="M89.291 65.5691C87.536 65.5691 86.108 66.9971 86.108 68.7521C86.108 70.5051 87.536 71.9331 89.291 71.9331C91.044 71.9331 92.472 70.5051 92.472 68.7521C92.472 66.9971 91.044 65.5691 89.291 65.5691ZM89.291 70.5291C88.31 70.5291 87.512 69.7311 87.512 68.7521C87.512 67.7711 88.31 66.9731 89.291 66.9731C90.27 66.9731 91.068 67.7711 91.068 68.7521C91.069 69.7311 90.271 70.5291 89.291 70.5291Z" fill="#39BEB9"/>
<path d="M73.171 65.5691C71.417 65.5691 69.991 66.9971 69.991 68.7521C69.991 70.5051 71.417 71.9331 73.171 71.9331C74.926 71.9331 76.352 70.5051 76.352 68.7521C76.352 66.9971 74.926 65.5691 73.171 65.5691ZM73.171 70.5291C72.191 70.5291 71.393 69.7311 71.393 68.7521C71.393 67.7711 72.191 66.9731 73.171 66.9731C74.151 66.9731 74.948 67.7711 74.948 68.7521C74.948 69.7311 74.152 70.5291 73.171 70.5291Z" fill="#39BEB9"/>
<path d="M60.497 25.938H15.353C12.755 25.938 10.643 28.051 10.643 30.648V64.743C10.643 67.34 12.756 69.453 15.353 69.453H60.497C63.095 69.453 65.208 67.34 65.208 64.743V30.648C65.208 28.051 63.095 25.938 60.497 25.938ZM63.805 63.44C57.223 61.092 52.701 54.752 52.701 47.695C52.701 40.639 57.222 34.299 63.805 31.95V63.44ZM60.497 68.05H15.353C13.529 68.05 12.045 66.567 12.045 64.743V30.648C12.045 28.824 13.529 27.341 15.353 27.341H60.497C62.261 27.341 63.702 28.73 63.796 30.47C60.321 31.605 57.209 33.815 54.983 36.741C52.572 39.913 51.298 43.7 51.298 47.695C51.298 51.69 52.572 55.478 54.983 58.65C57.209 61.576 60.321 63.786 63.796 64.921C63.702 66.661 62.261 68.05 60.497 68.05Z" fill="#39BEB9"/>
<path d="M92.656 25.938H69.804C69.416 25.938 69.102 26.252 69.102 26.64V33.665C69.102 34.052 69.416 34.366 69.804 34.366H92.656C93.043 34.366 93.356 34.053 93.356 33.665V26.64C93.357 26.252 93.043 25.938 92.656 25.938ZM91.953 32.963H70.506V27.341H91.953V32.963Z" fill="#39BEB9"/>
<path d="M81.23 52.742C85.451 52.742 88.883 49.308 88.883 45.089C88.883 40.869 85.45 37.437 81.23 37.437C77.011 37.437 73.579 40.87 73.579 45.089C73.578 49.308 77.011 52.742 81.23 52.742ZM81.23 38.84C84.677 38.84 87.48 41.643 87.48 45.09C87.48 48.535 84.677 51.34 81.23 51.34C77.785 51.34 74.982 48.535 74.982 45.09C74.982 41.643 77.784 38.84 81.23 38.84Z" fill="#39BEB9"/>
</g>
<defs>
<filter id="filter0_d" x="-2" y="0" width="108" height="108" filterUnits="userSpaceOnUse" color-interpolation-filters="sRGB">
<feFlood flood-opacity="0" result="BackgroundImageFix"/>
<feColorMatrix in="SourceAlpha" type="matrix" values="0 0 0 0 0 0 0 0 0 0 0 0 0 0 0 0 0 0 127 0"/>
<feOffset dy="4"/>
<feGaussianBlur stdDeviation="2"/>
<feColorMatrix type="matrix" values="0 0 0 0 0 0 0 0 0 0 0 0 0 0 0 0 0 0 0.25 0"/>
<feBlend mode="normal" in2="BackgroundImageFix" result="effect1_dropShadow"/>
<feBlend mode="normal" in="SourceGraphic" in2="effect1_dropShadow" result="shape"/>
</filter>
</defs>
</svg>
