<svg width="100" height="100" viewBox="0 0 100 100" fill="none" xmlns="http://www.w3.org/2000/svg">
<g filter="url(#filter0_d)">
<path d="M20.5 59.2H56.1C57.3 59.2 58.3 58.2 58.3 57V36.4C58.3 35.2 57.3 34.2 56.1 34.2H20.5C19.3 34.2 18.3 35.2 18.3 36.4V57C18.3 58.2 19.3 59.2 20.5 59.2ZM20 36.4C20 36.1 20.2 35.9 20.5 35.9H56.1C56.4 35.9 56.6 36.1 56.6 36.4V57C56.6 57.3 56.4 57.5 56.1 57.5H20.5C20.2 57.5 20 57.3 20 57V36.4Z" fill="#39BEB9"/>
<path d="M16.9001 66.6999H59.9001C62.8001 66.6999 65.2001 64.2999 65.2001 61.3999V32.5999C65.2001 29.6999 62.8001 27.2999 59.9001 27.2999H16.9001C14.0001 27.2999 11.6001 29.6999 11.6001 32.5999V61.3999C11.6001 64.2999 14.0001 66.6999 16.9001 66.6999ZM13.3001 32.5999C13.3001 30.5999 14.9001 28.9999 16.9001 28.9999H59.9001C61.9001 28.9999 63.5001 30.5999 63.5001 32.5999V61.3999C63.5001 63.3999 61.9001 64.9999 59.9001 64.9999H16.9001C14.9001 64.9999 13.3001 63.3999 13.3001 61.3999V32.5999V32.5999Z" fill="#39BEB9"/>
<path d="M76.8001 33.5H89.9001C90.8001 33.5 91.6001 32.7 91.6001 31.8V27.3C91.6001 26.4 90.8001 25.6 89.9001 25.6H76.8001C75.9001 25.6 75.1001 26.4 75.1001 27.3V31.8C75.1001 32.7 75.9001 33.5 76.8001 33.5ZM76.8001 27.2H89.9001V31.7H76.8001V27.2Z" fill="#39BEB9"/>
<path d="M89.9 61.3999H76.8C75.4 61.3999 74.2 62.4999 74.2 63.9999V68.9999C74.2 70.3999 75.3 71.5999 76.8 71.5999H89.9C91.3 71.5999 92.5 70.4999 92.5 68.9999V63.8999C92.4 62.4999 91.3 61.3999 89.9 61.3999ZM90.7 68.9999C90.7 69.4999 90.3 69.8999 89.8 69.8999H76.8C76.3 69.8999 75.9 69.4999 75.9 68.9999V63.8999C75.9 63.3999 76.3 62.9999 76.8 62.9999H89.9C90.4 62.9999 90.8 63.3999 90.8 63.8999V68.9999H90.7Z" fill="#39BEB9"/>
<path d="M90.6 18.7H71.8H9.4C7 18.7 5 20.6 5 23V72.0999C5 74.3999 6.8 76.3 9.1 76.5L9.5 78.5C9.8 80.2 11.2 81.4 12.9 81.4H13.8C15.5 81.4 16.9 80.2 17.2 78.5L17.6 76.5H71.8H81.3L81.7 78.5C82 80.2 83.4 81.4 85.1 81.4H86C87.7 81.4 89.1 80.2 89.4 78.5L89.8 76.5H90.7C93.1 76.5 95.1 74.4999 95.1 72.0999V23C95 20.6 93 18.7 90.6 18.7ZM6.7 72.0999V23C6.7 21.5 7.9 20.2999 9.4 20.2999H70.9V74.6999H9.4C7.9 74.7999 6.7 73.5999 6.7 72.0999ZM15.5 78.1999C15.4 78.9999 14.6 79.6999 13.8 79.6999H12.9C12 79.6999 11.3 79.0999 11.2 78.1999L10.9 76.5H15.9L15.5 78.1999ZM87.7 78.1999C87.6 78.9999 86.8 79.6999 86 79.6999H85C84.1 79.6999 83.4 79.0999 83.3 78.1999L83 76.5H88L87.7 78.1999ZM93.3 72.0999C93.3 73.5999 92.1 74.8 90.6 74.8H89H72.6V20.4H90.6C92.1 20.4 93.3 21.6 93.3 23.1V72.0999Z" fill="#39BEB9"/>
<path d="M88.6 53.7C89.4837 53.7 90.2 52.9837 90.2 52.1C90.2 51.2163 89.4837 50.5 88.6 50.5C87.7163 50.5 87 51.2163 87 52.1C87 52.9837 87.7163 53.7 88.6 53.7Z" fill="#39BEB9"/>
<path d="M88.6 58.4999C89.4837 58.4999 90.2 57.7836 90.2 56.8999C90.2 56.0163 89.4837 55.2999 88.6 55.2999C87.7163 55.2999 87 56.0163 87 56.8999C87 57.7836 87.7163 58.4999 88.6 58.4999Z" fill="#39BEB9"/>
<path d="M88.6 48.9C89.4837 48.9 90.2 48.1836 90.2 47.2999C90.2 46.4163 89.4837 45.7 88.6 45.7C87.7163 45.7 87 46.4163 87 47.2999C87 48.1836 87.7163 48.9 88.6 48.9Z" fill="#39BEB9"/>
<path d="M83.2001 53.7C84.0838 53.7 84.8001 52.9837 84.8001 52.1C84.8001 51.2163 84.0838 50.5 83.2001 50.5C82.3164 50.5 81.6001 51.2163 81.6001 52.1C81.6001 52.9837 82.3164 53.7 83.2001 53.7Z" fill="#39BEB9"/>
<path d="M83.2001 58.4999C84.0838 58.4999 84.8001 57.7836 84.8001 56.8999C84.8001 56.0163 84.0838 55.2999 83.2001 55.2999C82.3164 55.2999 81.6001 56.0163 81.6001 56.8999C81.6001 57.7836 82.3164 58.4999 83.2001 58.4999Z" fill="#39BEB9"/>
<path d="M83.2001 48.9C84.0838 48.9 84.8001 48.1836 84.8001 47.2999C84.8001 46.4163 84.0838 45.7 83.2001 45.7C82.3164 45.7 81.6001 46.4163 81.6001 47.2999C81.6001 48.1836 82.3164 48.9 83.2001 48.9Z" fill="#39BEB9"/>
<path d="M77.3 53.7C78.1836 53.7 78.9 52.9837 78.9 52.1C78.9 51.2163 78.1836 50.5 77.3 50.5C76.4163 50.5 75.7 51.2163 75.7 52.1C75.7 52.9837 76.4163 53.7 77.3 53.7Z" fill="#39BEB9"/>
<path d="M77.3 58.4999C78.1836 58.4999 78.9 57.7836 78.9 56.8999C78.9 56.0163 78.1836 55.2999 77.3 55.2999C76.4163 55.2999 75.7 56.0163 75.7 56.8999C75.7 57.7836 76.4163 58.4999 77.3 58.4999Z" fill="#39BEB9"/>
<path d="M77.3 48.9C78.1836 48.9 78.9 48.1836 78.9 47.2999C78.9 46.4163 78.1836 45.7 77.3 45.7C76.4163 45.7 75.7 46.4163 75.7 47.2999C75.7 48.1836 76.4163 48.9 77.3 48.9Z" fill="#39BEB9"/>
<path d="M78.9 27.7C78.5 27.7 78.2 28 78.2 28.4V30.4C78.2 30.8 78.5 31.1 78.9 31.1C79.3 31.1 79.6 30.8 79.6 30.4V28.4C79.6 28 79.3 27.7 78.9 27.7Z" fill="#39BEB9"/>
<path d="M83.2 27.7C82.8 27.7 82.5 28 82.5 28.4V30.4C82.5 30.8 82.8 31.1 83.2 31.1C83.6 31.1 83.9 30.8 83.9 30.4V28.4C84 28 83.6 27.7 83.2 27.7Z" fill="#39BEB9"/>
<path d="M87.5 27.7C87.1 27.7 86.8 28 86.8 28.4V30.4C86.8 30.8 87.1 31.1 87.5 31.1C87.9 31.1 88.2 30.8 88.2 30.4V28.4C88.3 28 87.9 27.7 87.5 27.7Z" fill="#39BEB9"/>
</g>
<defs>
<filter id="filter0_d" x="-4" y="0" width="108" height="108" filterUnits="userSpaceOnUse" color-interpolation-filters="sRGB">
<feFlood flood-opacity="0" result="BackgroundImageFix"/>
<feColorMatrix in="SourceAlpha" type="matrix" values="0 0 0 0 0 0 0 0 0 0 0 0 0 0 0 0 0 0 127 0"/>
<feOffset dy="4"/>
<feGaussianBlur stdDeviation="2"/>
<feColorMatrix type="matrix" values="0 0 0 0 0 0 0 0 0 0 0 0 0 0 0 0 0 0 0.25 0"/>
<feBlend mode="normal" in2="BackgroundImageFix" result="effect1_dropShadow"/>
<feBlend mode="normal" in="SourceGraphic" in2="effect1_dropShadow" result="shape"/>
</filter>
</defs>
</svg>
