<svg width="100" height="100" viewBox="0 0 100 100" fill="none" xmlns="http://www.w3.org/2000/svg">
<g filter="url(#filter0_d)">
<path d="M88.3 21H14.3C13.7 21 13.3 21.4 13.3 22V74.4C13.3 75 13.7 75.4 14.3 75.4H17.4V76.4C17.4 78.1 18.8 79.4 20.4 79.4H31.5C33.2 79.4 34.5 78 34.5 76.4V75.4H67.2V76.4C67.2 78.1 68.6 79.4 70.2 79.4H81.3C83 79.4 84.3 78 84.3 76.4V75.4H88.2C88.8 75.4 89.2 75 89.2 74.4V22C89.3 21.4 88.8 21 88.3 21ZM32.5 76.3C32.5 76.9 32 77.3 31.5 77.3H20.4C19.8 77.3 19.4 76.8 19.4 76.3V75.3H32.6V76.3H32.5ZM82.3 76.3C82.3 76.9 81.8 77.3 81.3 77.3H70.2C69.6 77.3 69.2 76.8 69.2 76.3V75.3H82.4V76.3H82.3ZM87.3 73.3H15.3V23H87.3V73.3Z" fill="#39BEB9"/>
<path d="M82.6 42.4C83.2 42.4 83.6 42 83.6 41.4V37.7C83.6 37.1 83.2 36.7 82.6 36.7C82 36.7 81.6 37.1 81.6 37.7V41.4C81.6 41.9 82 42.4 82.6 42.4Z" fill="#39BEB9"/>
<path d="M82.6 33.3001C83.2 33.3001 83.6 32.9001 83.6 32.3001V28.6001C83.6 28.0001 83.2 27.6001 82.6 27.6001C82 27.6001 81.6 28.0001 81.6 28.6001V32.3001C81.6 32.9001 82 33.3001 82.6 33.3001Z" fill="#39BEB9"/>
<path d="M21.2 68.7001H77C77.6 68.7001 78 68.3001 78 67.7001V28.6001C78 28.0001 77.6 27.6001 77 27.6001H21.2C20.6 27.6001 20.2 28.0001 20.2 28.6001V67.8001C20.2 68.3001 20.6 68.7001 21.2 68.7001ZM75.9 57.3001C75.8 57.3001 75.8 57.3001 75.7 57.3001H74.3C73.7 57.3001 73.3 56.8001 73.3 56.3001V40.1001C73.3 39.5001 73.8 39.1001 74.3 39.1001H75.7C75.8 39.1001 75.8 39.1001 75.9 39.1001V57.3001ZM22.2 29.6001H76V37.1001C75.9 37.1001 75.9 37.1001 75.8 37.1001H74.4C72.7 37.1001 71.4 38.5001 71.4 40.1001V56.2001C71.4 57.9001 72.8 59.2001 74.4 59.2001H75.8C75.9 59.2001 75.9 59.2001 76 59.2001V66.7001H22.2V29.6001Z" fill="#39BEB9"/>
<path d="M82.6 47.5C83.2075 47.5 83.7 47.0076 83.7 46.4001C83.7 45.7925 83.2075 45.3 82.6 45.3C81.9925 45.3 81.5 45.7925 81.5 46.4001C81.5 47.0076 81.9925 47.5 82.6 47.5Z" fill="#39BEB9"/>
</g>
<defs>
<filter id="filter0_d" x="-4" y="0" width="108" height="108" filterUnits="userSpaceOnUse" color-interpolation-filters="sRGB">
<feFlood flood-opacity="0" result="BackgroundImageFix"/>
<feColorMatrix in="SourceAlpha" type="matrix" values="0 0 0 0 0 0 0 0 0 0 0 0 0 0 0 0 0 0 127 0"/>
<feOffset dy="4"/>
<feGaussianBlur stdDeviation="2"/>
<feColorMatrix type="matrix" values="0 0 0 0 0 0 0 0 0 0 0 0 0 0 0 0 0 0 0.25 0"/>
<feBlend mode="normal" in2="BackgroundImageFix" result="effect1_dropShadow"/>
<feBlend mode="normal" in="SourceGraphic" in2="effect1_dropShadow" result="shape"/>
</filter>
</defs>
</svg>
