<svg width="100" height="104" viewBox="0 0 100 104" fill="none" xmlns="http://www.w3.org/2000/svg">
<g filter="url(#filter0_d)">
<path d="M22.1848 4.40088H86.1526C90.6468 4.40088 94.2279 8.1639 94.2279 12.6167V45.2449C94.2279 49.6965 90.6444 53.4631 86.1526 53.4631H33.6948V62.2269C40.759 63.9336 44.0637 72.1672 44.0637 78.7743C44.0637 86.1196 39.794 95.5992 31.3526 95.5992C22.9112 95.5992 18.6403 86.1196 18.6403 78.7743C18.6403 72.166 21.9462 63.9336 29.0105 62.2269V53.4631H12.2269C11.8454 53.4631 11.4568 53.3981 11.0635 53.2741C7.03707 52.0198 5.77209 44.2421 5.77209 40.5819C5.77209 39.376 5.89847 38.2858 6.1595 37.4578L14.2194 11.9116C15.43 8.0954 17.6978 4.40088 22.1848 4.40088ZM35.4889 14.3754H74.3002C78.9632 14.3754 82.7711 18.1868 82.7711 22.8463C82.7711 27.4987 78.9526 31.3172 74.3002 31.3172H35.4889C30.8353 31.3172 27.0179 27.5022 27.0179 22.8463C27.0179 18.1927 30.8341 14.3754 35.4889 14.3754ZM74.3002 19.0597H35.4889C33.4077 19.0597 31.7034 20.7652 31.7034 22.8463C31.7034 24.9274 33.4066 26.6329 35.4889 26.6329H74.3002C76.3919 26.6329 78.0868 24.938 78.0868 22.8463C78.0868 20.7593 76.3872 19.0597 74.3002 19.0597ZM33.6948 67.1793V90.3681C37.7306 88.4488 39.3794 82.8857 39.3794 78.7743C39.3794 74.6593 37.7306 69.1034 33.6948 67.1793ZM29.0105 90.3681V67.1793C24.9746 69.0986 23.3246 74.6628 23.3246 78.7743C23.3246 82.8857 24.9746 88.4488 29.0105 90.3681ZM11.4154 36.3582H89.5436V12.6167C89.5436 10.7316 88.079 9.08517 86.1526 9.08517H22.1848C20.1533 9.08517 19.1872 11.7143 18.684 13.3124L11.4154 36.3582ZM89.5436 41.0425H10.4635C10.5048 42.4327 11.3139 47.978 12.4005 48.7788H86.1526C88.0779 48.7788 89.5436 47.1311 89.5436 45.2449V41.0425Z" fill="#39BEB9"/>
</g>
<defs>
<filter id="filter0_d" x="-4" y="0" width="108" height="108" filterUnits="userSpaceOnUse" color-interpolation-filters="sRGB">
<feFlood flood-opacity="0" result="BackgroundImageFix"/>
<feColorMatrix in="SourceAlpha" type="matrix" values="0 0 0 0 0 0 0 0 0 0 0 0 0 0 0 0 0 0 127 0"/>
<feOffset dy="4"/>
<feGaussianBlur stdDeviation="2"/>
<feColorMatrix type="matrix" values="0 0 0 0 0 0 0 0 0 0 0 0 0 0 0 0 0 0 0.25 0"/>
<feBlend mode="normal" in2="BackgroundImageFix" result="effect1_dropShadow"/>
<feBlend mode="normal" in="SourceGraphic" in2="effect1_dropShadow" result="shape"/>
</filter>
</defs>
</svg>
