<svg width="102" height="105" viewBox="0 0 102 105" fill="none" xmlns="http://www.w3.org/2000/svg">
<g filter="url(#filter0_d)">
<path d="M47.875 96.875H19.75C11.1344 96.875 4.125 89.8656 4.125 81.25V18.75C4.125 10.1344 11.1344 3.125 19.75 3.125H47.875V96.875ZM19.75 9.375C14.5813 9.375 10.375 13.5813 10.375 18.75V81.25C10.375 86.4187 14.5813 90.625 19.75 90.625H41.625V9.375H19.75Z" fill="#39BEB9"/>
<path d="M26 37.5C20.8312 37.5 16.625 33.2937 16.625 28.125C16.625 22.9562 20.8312 18.75 26 18.75C31.1687 18.75 35.375 22.9562 35.375 28.125C35.375 33.2937 31.1687 37.5 26 37.5ZM26 25C24.2781 25 22.875 26.4031 22.875 28.125C22.875 29.8469 24.2781 31.25 26 31.25C27.7219 31.25 29.125 29.8469 29.125 28.125C29.125 26.4031 27.7219 25 26 25Z" fill="#39BEB9"/>
<path d="M82.25 96.875H54.125V3.125H82.25C90.8656 3.125 97.875 10.1344 97.875 18.75V81.25C97.875 89.8656 90.8656 96.875 82.25 96.875ZM60.375 90.625H82.25C87.4188 90.625 91.625 86.4187 91.625 81.25V18.75C91.625 13.5813 87.4188 9.375 82.25 9.375H60.375V90.625Z" fill="#39BEB9"/>
<path d="M76 81.25C70.8312 81.25 66.625 77.0437 66.625 71.875C66.625 66.7062 70.8312 62.5 76 62.5C81.1687 62.5 85.375 66.7062 85.375 71.875C85.375 77.0437 81.1687 81.25 76 81.25ZM76 68.75C74.2781 68.75 72.875 70.1531 72.875 71.875C72.875 73.5969 74.2781 75 76 75C77.7219 75 79.125 73.5969 79.125 71.875C79.125 70.1531 77.7219 68.75 76 68.75Z" fill="#39BEB9"/>
</g>
<defs>
<filter id="filter0_d" x="-3" y="0" width="108" height="108" filterUnits="userSpaceOnUse" color-interpolation-filters="sRGB">
<feFlood flood-opacity="0" result="BackgroundImageFix"/>
<feColorMatrix in="SourceAlpha" type="matrix" values="0 0 0 0 0 0 0 0 0 0 0 0 0 0 0 0 0 0 127 0"/>
<feOffset dy="4"/>
<feGaussianBlur stdDeviation="2"/>
<feColorMatrix type="matrix" values="0 0 0 0 0 0 0 0 0 0 0 0 0 0 0 0 0 0 0.25 0"/>
<feBlend mode="normal" in2="BackgroundImageFix" result="effect1_dropShadow"/>
<feBlend mode="normal" in="SourceGraphic" in2="effect1_dropShadow" result="shape"/>
</filter>
</defs>
</svg>
