<svg width="108" height="108" viewBox="0 0 108 108" fill="none" xmlns="http://www.w3.org/2000/svg">
<g filter="url(#filter0_d)">
<path d="M91.5 100H16.5C9.60729 100 4 94.3927 4 87.5V12.5C4 5.60729 9.60729 0 16.5 0H91.5C98.3927 0 104 5.60729 104 12.5V87.5C104 94.3927 98.3927 100 91.5 100ZM16.5 4.16667C11.9052 4.16667 8.16667 7.90521 8.16667 12.5V87.5C8.16667 92.0948 11.9052 95.8333 16.5 95.8333H91.5C96.0948 95.8333 99.8333 92.0948 99.8333 87.5V12.5C99.8333 7.90521 96.0948 4.16667 91.5 4.16667H16.5Z" fill="#39BEB9"/>
<path d="M101.917 27.0833H6.08331V31.2499H101.917V27.0833Z" fill="#39BEB9"/>
<path d="M25.875 21.875C22.4281 21.875 19.625 19.0719 19.625 15.625C19.625 12.1781 22.4281 9.375 25.875 9.375C29.3219 9.375 32.125 12.1781 32.125 15.625C32.125 19.0719 29.3219 21.875 25.875 21.875ZM25.875 13.5417C24.726 13.5417 23.7917 14.476 23.7917 15.625C23.7917 16.774 24.726 17.7083 25.875 17.7083C27.024 17.7083 27.9583 16.774 27.9583 15.625C27.9583 14.476 27.024 13.5417 25.875 13.5417Z" fill="#39BEB9"/>
<path d="M44.625 21.875C41.1781 21.875 38.375 19.0719 38.375 15.625C38.375 12.1781 41.1781 9.375 44.625 9.375C48.0719 9.375 50.875 12.1781 50.875 15.625C50.875 19.0719 48.0719 21.875 44.625 21.875ZM44.625 13.5417C43.476 13.5417 42.5417 14.476 42.5417 15.625C42.5417 16.774 43.476 17.7083 44.625 17.7083C45.774 17.7083 46.7083 16.774 46.7083 15.625C46.7083 14.476 45.774 13.5417 44.625 13.5417Z" fill="#39BEB9"/>
<path d="M63.375 21.875C59.9281 21.875 57.125 19.0719 57.125 15.625C57.125 12.1781 59.9281 9.375 63.375 9.375C66.8219 9.375 69.625 12.1781 69.625 15.625C69.625 19.0719 66.8219 21.875 63.375 21.875ZM63.375 13.5417C62.226 13.5417 61.2917 14.476 61.2917 15.625C61.2917 16.774 62.226 17.7083 63.375 17.7083C64.524 17.7083 65.4583 16.774 65.4583 15.625C65.4583 14.476 64.524 13.5417 63.375 13.5417Z" fill="#39BEB9"/>
<path d="M82.125 21.875C78.6781 21.875 75.875 19.0719 75.875 15.625C75.875 12.1781 78.6781 9.375 82.125 9.375C85.5719 9.375 88.375 12.1781 88.375 15.625C88.375 19.0719 85.5719 21.875 82.125 21.875ZM82.125 13.5417C80.976 13.5417 80.0417 14.476 80.0417 15.625C80.0417 16.774 80.976 17.7083 82.125 17.7083C83.274 17.7083 84.2083 16.774 84.2083 15.625C84.2083 14.476 83.274 13.5417 82.125 13.5417Z" fill="#39BEB9"/>
<path d="M93.5834 86.4583H14.4167V45.8333H93.5834V86.4583ZM18.5834 82.2916H89.4167V49.9999H18.5834V82.2916Z" fill="#39BEB9"/>
<path d="M18.5834 34.375H14.4167V42.7083H18.5834V34.375Z" fill="#39BEB9"/>
<path d="M93.5834 34.375H89.4167V42.7083H93.5834V34.375Z" fill="#39BEB9"/>
<path d="M91.5 36.4583H16.5V40.6249H91.5V36.4583Z" fill="#39BEB9"/>
</g>
<defs>
<filter id="filter0_d" x="0" y="0" width="108" height="108" filterUnits="userSpaceOnUse" color-interpolation-filters="sRGB">
<feFlood flood-opacity="0" result="BackgroundImageFix"/>
<feColorMatrix in="SourceAlpha" type="matrix" values="0 0 0 0 0 0 0 0 0 0 0 0 0 0 0 0 0 0 127 0"/>
<feOffset dy="4"/>
<feGaussianBlur stdDeviation="2"/>
<feColorMatrix type="matrix" values="0 0 0 0 0 0 0 0 0 0 0 0 0 0 0 0 0 0 0.25 0"/>
<feBlend mode="normal" in2="BackgroundImageFix" result="effect1_dropShadow"/>
<feBlend mode="normal" in="SourceGraphic" in2="effect1_dropShadow" result="shape"/>
</filter>
</defs>
</svg>
