<svg width="102" height="108" viewBox="0 0 102 108" fill="none" xmlns="http://www.w3.org/2000/svg">
<g filter="url(#filter0_d)">
<path d="M92.6038 98.3333H9.39623C8.50386 98.3416 7.64474 97.9951 7.00784 97.37C6.37094 96.7448 6.00842 95.8924 6 95V4.99998C6.00842 4.10761 6.37094 3.25512 7.00784 2.63002C7.64474 2.00491 8.50386 1.65838 9.39623 1.66665H92.6038C93.4961 1.65838 94.3553 2.00491 94.9922 2.63002C95.6291 3.25512 95.9916 4.10761 96 4.99998V95C95.9916 95.8924 95.6291 96.7448 94.9922 97.37C94.3553 97.9951 93.4961 98.3416 92.6038 98.3333V98.3333Z" stroke="#39BEB9" stroke-width="3.33333" stroke-linecap="round" stroke-linejoin="round"/>
<path d="M6 15H96" stroke="#39BEB9" stroke-width="3.33333" stroke-linecap="round" stroke-linejoin="round"/>
<path d="M6 85H96" stroke="#39BEB9" stroke-width="3.33333" stroke-linecap="round" stroke-linejoin="round"/>
<path d="M17.6667 31.6666C20.4282 31.6666 22.6667 29.428 22.6667 26.6666C22.6667 23.9052 20.4282 21.6666 17.6667 21.6666C14.9053 21.6666 12.6667 23.9052 12.6667 26.6666C12.6667 29.428 14.9053 31.6666 17.6667 31.6666Z" stroke="#39BEB9" stroke-width="3.33333" stroke-linecap="round" stroke-linejoin="round"/>
<path d="M34.3333 31.6666C37.0947 31.6666 39.3333 29.428 39.3333 26.6666C39.3333 23.9052 37.0947 21.6666 34.3333 21.6666C31.5718 21.6666 29.3333 23.9052 29.3333 26.6666C29.3333 29.428 31.5718 31.6666 34.3333 31.6666Z" stroke="#39BEB9" stroke-width="3.33333" stroke-linecap="round" stroke-linejoin="round"/>
<path d="M51 31.6666C53.7614 31.6666 56 29.428 56 26.6666C56 23.9052 53.7614 21.6666 51 21.6666C48.2386 21.6666 46 23.9052 46 26.6666C46 29.428 48.2386 31.6666 51 31.6666Z" stroke="#39BEB9" stroke-width="3.33333" stroke-linecap="round" stroke-linejoin="round"/>
<path d="M67.6667 31.6666C70.4282 31.6666 72.6667 29.428 72.6667 26.6666C72.6667 23.9052 70.4282 21.6666 67.6667 21.6666C64.9053 21.6666 62.6667 23.9052 62.6667 26.6666C62.6667 29.428 64.9053 31.6666 67.6667 31.6666Z" stroke="#39BEB9" stroke-width="3.33333" stroke-linecap="round" stroke-linejoin="round"/>
<path d="M84.3333 31.6666C87.0947 31.6666 89.3333 29.428 89.3333 26.6666C89.3333 23.9052 87.0947 21.6666 84.3333 21.6666C81.5718 21.6666 79.3333 23.9052 79.3333 26.6666C79.3333 29.428 81.5718 31.6666 84.3333 31.6666Z" stroke="#39BEB9" stroke-width="3.33333" stroke-linecap="round" stroke-linejoin="round"/>
<path d="M6 38.3334H96" stroke="#39BEB9" stroke-width="3.33333" stroke-linecap="round" stroke-linejoin="round"/>
<path d="M76.0001 45H26.0001C24.1591 45 22.6667 46.4924 22.6667 48.3333V75C22.6667 76.8409 24.1591 78.3333 26.0001 78.3333H76.0001C77.841 78.3333 79.3334 76.8409 79.3334 75V48.3333C79.3334 46.4924 77.841 45 76.0001 45Z" stroke="#39BEB9" stroke-width="3.33333" stroke-linecap="round" stroke-linejoin="round"/>
<path d="M37.2731 8.33337H19.7267C19.1077 8.33337 18.5008 8.50575 17.9743 8.8312C17.4477 9.15665 17.0221 9.6223 16.7453 10.176L14.3333 15H42.6666L40.2546 10.176C39.9777 9.6223 39.5522 9.15665 39.0256 8.8312C38.499 8.50575 37.8922 8.33337 37.2731 8.33337Z" stroke="#39BEB9" stroke-width="3.33333" stroke-linecap="round" stroke-linejoin="round"/>
<path d="M82.2731 8.33337H64.7267C64.1077 8.33337 63.5009 8.50576 62.9743 8.8312C62.4477 9.15665 62.0221 9.62231 61.7453 10.176L59.3333 15H87.6666L85.2546 10.176C84.9777 9.6223 84.5522 9.15665 84.0256 8.8312C83.499 8.50575 82.8922 8.33337 82.2731 8.33337Z" stroke="#39BEB9" stroke-width="3.33333" stroke-linecap="round" stroke-linejoin="round"/>
<path d="M29.3333 56.6666H30.9999" stroke="#39BEB9" stroke-width="3.33333" stroke-linecap="round" stroke-linejoin="round"/>
<path d="M37.6667 56.6666H39.3334" stroke="#39BEB9" stroke-width="3.33333" stroke-linecap="round" stroke-linejoin="round"/>
<path d="M46 56.6666H47.6667" stroke="#39BEB9" stroke-width="3.33333" stroke-linecap="round" stroke-linejoin="round"/>
<path d="M54.3333 56.6666H55.9999" stroke="#39BEB9" stroke-width="3.33333" stroke-linecap="round" stroke-linejoin="round"/>
<path d="M62.6667 56.6666H64.3334" stroke="#39BEB9" stroke-width="3.33333" stroke-linecap="round" stroke-linejoin="round"/>
<path d="M71 56.6666H72.6667" stroke="#39BEB9" stroke-width="3.33333" stroke-linecap="round" stroke-linejoin="round"/>
<path d="M29.3333 68.3334H30.9999" stroke="#39BEB9" stroke-width="3.33333" stroke-linecap="round" stroke-linejoin="round"/>
<path d="M37.6667 68.3334H39.3334" stroke="#39BEB9" stroke-width="3.33333" stroke-linecap="round" stroke-linejoin="round"/>
<path d="M46 68.3334H47.6667" stroke="#39BEB9" stroke-width="3.33333" stroke-linecap="round" stroke-linejoin="round"/>
<path d="M54.3333 68.3334H55.9999" stroke="#39BEB9" stroke-width="3.33333" stroke-linecap="round" stroke-linejoin="round"/>
<path d="M62.6667 68.3334H64.3334" stroke="#39BEB9" stroke-width="3.33333" stroke-linecap="round" stroke-linejoin="round"/>
<path d="M71 68.3334H72.6667" stroke="#39BEB9" stroke-width="3.33333" stroke-linecap="round" stroke-linejoin="round"/>
</g>
<defs>
<filter id="filter0_d" x="-3" y="0" width="108" height="108" filterUnits="userSpaceOnUse" color-interpolation-filters="sRGB">
<feFlood flood-opacity="0" result="BackgroundImageFix"/>
<feColorMatrix in="SourceAlpha" type="matrix" values="0 0 0 0 0 0 0 0 0 0 0 0 0 0 0 0 0 0 127 0"/>
<feOffset dy="4"/>
<feGaussianBlur stdDeviation="2"/>
<feColorMatrix type="matrix" values="0 0 0 0 0 0 0 0 0 0 0 0 0 0 0 0 0 0 0.25 0"/>
<feBlend mode="normal" in2="BackgroundImageFix" result="effect1_dropShadow"/>
<feBlend mode="normal" in="SourceGraphic" in2="effect1_dropShadow" result="shape"/>
</filter>
</defs>
</svg>
