<svg width="100" height="100" viewBox="0 0 100 100" fill="none" xmlns="http://www.w3.org/2000/svg">
<g filter="url(#filter0_d)">
<path d="M93.2923 37.056L78.5416 22.3053C78.3965 22.1602 78.2243 22.0451 78.0348 21.9666C77.8452 21.8881 77.642 21.8476 77.4369 21.8476C77.2317 21.8476 77.0285 21.8881 76.839 21.9666C76.6495 22.0451 76.4772 22.1602 76.3322 22.3053L72.2047 26.4328L68.6833 29.9542C65.9254 27.7512 62.6874 26.2289 59.2316 25.5106V23.4101C59.2316 22.1658 58.7373 20.9726 57.8575 20.0928C56.9777 19.213 55.7845 18.7188 54.5403 18.7188C53.296 18.7188 52.1028 19.213 51.223 20.0928C50.3432 20.9726 49.8489 22.1658 49.8489 23.4101V25.5118C44.0704 26.7185 38.9968 30.1463 35.7208 35.0571L35.7174 35.0674C33.7085 38.0341 32.4436 41.4409 32.0297 44.9997L29.9442 62.666C29.7934 62.5918 29.6314 62.543 29.4647 62.5214C27.5287 62.3701 25.7079 61.5415 24.3222 60.1811C22.9364 58.8208 22.0743 57.0156 21.8872 55.0828L21.8719 39.4348C19.7313 23.8219 7.74375 25.1755 7.61413 25.1831C7.23722 25.2317 6.89089 25.4159 6.63984 25.7012C6.3888 25.9865 6.25022 26.3534 6.25 26.7334V32.9575C6.24968 33.1721 6.29366 33.3845 6.3792 33.5814C6.46473 33.7783 6.58998 33.9554 6.7471 34.1016C6.90422 34.2478 7.08983 34.3601 7.29232 34.4313C7.4948 34.5025 7.70981 34.5311 7.92388 34.5154C9.95635 34.3644 11.4624 36.496 12.059 40.0986L12.0605 55.1361L12.0788 55.6442C12.4263 59.8808 14.2867 63.8509 17.3201 66.8289C20.3535 69.8068 24.3572 71.5936 28.5995 71.8628C28.6468 71.8674 28.6941 71.8691 28.7414 71.8691C28.7832 71.8691 28.8196 71.8496 28.8607 71.8464L28.7765 72.5589C28.6476 73.6555 28.7527 74.7671 29.0849 75.8201C29.4171 76.8732 29.9687 77.8438 30.7036 78.668C31.4384 79.4922 32.3396 80.1513 33.3478 80.6016C34.356 81.052 35.4482 81.2835 36.5524 81.2808H72.5281C73.6323 81.2835 74.7246 81.052 75.7327 80.6016C76.7409 80.1513 77.6422 79.4922 78.377 78.668C79.1118 77.8438 79.6635 76.8732 79.9957 75.8201C80.3278 74.7671 80.4329 73.6555 80.304 72.5589L77.0509 44.9984C76.6367 41.4401 75.3718 38.0339 73.3632 35.0676L73.3598 35.0573C72.6473 34.0023 71.8464 33.0098 70.9656 32.0907L73.3094 29.7469L86.9553 43.3928C87.1004 43.538 87.2726 43.6531 87.4621 43.7316C87.6517 43.8101 87.8548 43.8506 88.06 43.8506C88.2652 43.8506 88.4683 43.8101 88.6579 43.7316C88.8474 43.6531 89.0196 43.538 89.1647 43.3928L93.2922 39.2653C93.4373 39.1203 93.5524 38.9481 93.6309 38.7586C93.7095 38.569 93.7499 38.3659 93.7499 38.1607C93.7499 37.9555 93.7095 37.7524 93.631 37.5628C93.5524 37.3733 93.4373 37.2011 93.2923 37.056ZM52.9739 23.4101C52.9739 22.9946 53.139 22.5963 53.4327 22.3025C53.7264 22.0088 54.1248 21.8438 54.5403 21.8438C54.9557 21.8438 55.3541 22.0088 55.6478 22.3025C55.9415 22.5963 56.1066 22.9946 56.1066 23.4101V25.0367C55.8433 25.0161 55.5931 25.0472 55.3369 25.0367C54.8197 25.0164 54.2593 25.0164 53.7428 25.0367C53.4876 25.0472 53.2353 25.0161 52.974 25.0367L52.9739 23.4101ZM51.6449 28.3341C52.6017 28.1825 53.5685 28.1036 54.5372 28.0983C54.7226 28.0983 54.931 28.1393 55.1174 28.1454C55.8933 28.1614 56.6674 28.2244 57.4356 28.3341L57.4444 28.3346C61.8223 28.9821 65.8469 31.1082 68.8492 34.3596H40.2328C43.2367 31.1062 47.2642 28.9797 51.6449 28.3341ZM28.8803 68.75C25.3871 68.5455 22.0837 67.0925 19.5722 64.6561C17.0606 62.2196 15.5082 58.9618 15.1978 55.4764L15.1642 39.8514C14.1906 33.7662 11.3602 32.0038 9.375 31.5384V28.2929C11.9781 28.534 17.4531 30.1819 18.7622 39.6469L18.7668 55.1941C18.963 57.8926 20.1217 60.431 22.0319 62.3471C23.9422 64.2632 26.4769 65.4297 29.1748 65.6342C29.3176 65.6408 29.4605 65.6261 29.599 65.5907L29.2146 68.8496C29.1075 68.8035 28.9953 68.77 28.8803 68.75ZM76.0528 76.5793C75.6096 77.0756 75.0664 77.4726 74.4589 77.7442C73.8515 78.0158 73.1935 78.156 72.5281 78.1555H36.5524C35.887 78.156 35.229 78.0158 34.6216 77.7442C34.0141 77.4726 33.4709 77.0756 33.0277 76.5793C32.5861 76.0877 32.2551 75.5071 32.0572 74.8767C31.8592 74.2462 31.7989 73.5806 31.8802 72.9248L32.0017 71.8964H77.079L77.2003 72.9248C77.2816 73.5806 77.2213 74.2462 77.0233 74.8767C76.8254 75.5071 76.4944 76.0877 76.0528 76.5793ZM76.7099 68.7714H32.3706L35.1333 45.3674C35.4687 42.5686 36.4149 39.8776 37.9049 37.4847H71.1756C72.6654 39.8772 73.6115 42.5677 73.9471 45.366L76.7099 68.7714ZM88.0599 40.0787L75.5188 27.5375L77.4368 25.6195L89.9781 38.1607L88.0599 40.0787Z" fill="#39BEB9"/>
</g>
<defs>
<filter id="filter0_d" x="-4" y="0" width="108" height="108" filterUnits="userSpaceOnUse" color-interpolation-filters="sRGB">
<feFlood flood-opacity="0" result="BackgroundImageFix"/>
<feColorMatrix in="SourceAlpha" type="matrix" values="0 0 0 0 0 0 0 0 0 0 0 0 0 0 0 0 0 0 127 0"/>
<feOffset dy="4"/>
<feGaussianBlur stdDeviation="2"/>
<feColorMatrix type="matrix" values="0 0 0 0 0 0 0 0 0 0 0 0 0 0 0 0 0 0 0.25 0"/>
<feBlend mode="normal" in2="BackgroundImageFix" result="effect1_dropShadow"/>
<feBlend mode="normal" in="SourceGraphic" in2="effect1_dropShadow" result="shape"/>
</filter>
</defs>
</svg>
