<svg width="100" height="100" viewBox="0 0 100 100" fill="none" xmlns="http://www.w3.org/2000/svg">
<g filter="url(#filter0_d)">
<path d="M93.5156 64.6406C93.5 64.5781 93.4688 64.5313 93.4531 64.4844C93.4219 64.3906 93.4062 64.3125 93.3594 64.2344C93.2969 64.125 93.2188 64.0312 93.1406 63.9375C93.1094 63.9062 93.0938 63.8438 93.0469 63.8125L89.8438 60.8125H92C92.4688 60.8125 92.9063 60.6094 93.2031 60.25C93.5 59.8906 93.625 59.4219 93.5312 58.9688L91.6562 48.9062C91.5781 48.5156 91.3438 48.1875 91.0156 47.9531L82.2969 39.2344C82 38.9375 81.6094 38.7812 81.1875 38.7812H18.8125C18.3906 38.7812 18 38.9531 17.7031 39.2344L9.04688 47.8906C8.70313 48.125 8.42188 48.4687 8.34375 48.9062L6.46875 58.9688C6.39063 59.4219 6.5 59.8906 6.79688 60.25C7.09375 60.6094 7.53125 60.8125 8 60.8125H10.1563L6.95313 63.8125C6.92188 63.8438 6.90625 63.8906 6.85938 63.9375C6.78125 64.0312 6.70313 64.125 6.64063 64.2344C6.59375 64.3125 6.57813 64.4063 6.54688 64.4844C6.53125 64.5469 6.5 64.5937 6.48438 64.6406L4.53125 74.7031C4.4375 75.1563 4.5625 75.6406 4.85938 76C5.15625 76.3594 5.59375 76.5625 6.0625 76.5625H93.9375C94.4062 76.5625 94.8438 76.3594 95.1406 76C95.4375 75.6406 95.5625 75.1719 95.4688 74.7031L93.5156 64.6406ZM33.2031 57.6719V50.8906L33.3125 50.7344H88.8281L90.125 57.6719H33.2031ZM86.2812 47.6094H35.5781L39.2969 42.4688C39.2969 42.4531 39.2969 42.4531 39.3125 42.4375L39.6719 41.9062H80.5625L86.2812 47.6094ZM19.4531 41.8906H35.8438L31.7188 47.6094H13.7344L19.4531 41.8906ZM11.1875 50.7344H30.0781V57.6719H9.89063L11.1875 50.7344ZM85.2813 60.7969L88.0312 63.375H11.9688L14.7188 60.7969H85.2813ZM9.29688 66.5H30.0781V72.2656V73.4375H7.95313L9.29688 66.5ZM33.2031 73.4375V72.2656V66.5H90.7031L92.0469 73.4375H33.2031Z" fill="#39BEB9"/>
<path d="M85.9375 53.25H79.6875C78.8281 53.25 78.125 53.9531 78.125 54.8125C78.125 55.6719 78.8281 56.375 79.6875 56.375H85.9375C86.7969 56.375 87.5 55.6719 87.5 54.8125C87.5 53.9531 86.7969 53.25 85.9375 53.25Z" fill="#39BEB9"/>
<path d="M75.5313 52.7969C74.4219 52.7969 73.5156 53.7031 73.5156 54.8125C73.5156 55.9219 74.4219 56.8281 75.5313 56.8281C76.6406 56.8281 77.5469 55.9219 77.5469 54.8125C77.5625 53.6875 76.6563 52.7969 75.5313 52.7969Z" fill="#39BEB9"/>
</g>
<defs>
<filter id="filter0_d" x="-4" y="0" width="108" height="108" filterUnits="userSpaceOnUse" color-interpolation-filters="sRGB">
<feFlood flood-opacity="0" result="BackgroundImageFix"/>
<feColorMatrix in="SourceAlpha" type="matrix" values="0 0 0 0 0 0 0 0 0 0 0 0 0 0 0 0 0 0 127 0"/>
<feOffset dy="4"/>
<feGaussianBlur stdDeviation="2"/>
<feColorMatrix type="matrix" values="0 0 0 0 0 0 0 0 0 0 0 0 0 0 0 0 0 0 0.25 0"/>
<feBlend mode="normal" in2="BackgroundImageFix" result="effect1_dropShadow"/>
<feBlend mode="normal" in="SourceGraphic" in2="effect1_dropShadow" result="shape"/>
</filter>
</defs>
</svg>
