<svg width="197" height="49" viewBox="0 0 197 49" fill="none" xmlns="http://www.w3.org/2000/svg">
<path d="M18.6668 3.2C22.5494 3.2 25.9201 3.84 28.7788 5.12C31.6801 6.4 33.8988 8.23466 35.4348 10.624C36.9708 13.0133 37.7388 15.8507 37.7388 19.136C37.7388 22.3787 36.9708 25.216 35.4348 27.648C33.8988 30.0373 31.6801 31.872 28.7788 33.152C25.9201 34.432 22.5494 35.072 18.6668 35.072H8.55475V48H0.23475V3.2H18.6668ZM18.2828 28.032C21.9094 28.032 24.6614 27.264 26.5387 25.728C28.4161 24.192 29.3548 21.9947 29.3548 19.136C29.3548 16.2773 28.4161 14.08 26.5387 12.544C24.6614 11.008 21.9094 10.24 18.2828 10.24H8.55475V28.032H18.2828ZM60.5143 48.448C57.0583 48.448 53.9436 47.7013 51.1703 46.208C48.3969 44.7147 46.2209 42.6453 44.6423 40C43.1063 37.312 42.3383 34.2827 42.3383 30.912C42.3383 27.5413 43.1063 24.5333 44.6423 21.888C46.2209 19.2427 48.3969 17.1733 51.1703 15.68C53.9436 14.1867 57.0583 13.44 60.5143 13.44C64.0129 13.44 67.1489 14.1867 69.9223 15.68C72.6956 17.1733 74.8503 19.2427 76.3863 21.888C77.9649 24.5333 78.7543 27.5413 78.7543 30.912C78.7543 34.2827 77.9649 37.312 76.3863 40C74.8503 42.6453 72.6956 44.7147 69.9223 46.208C67.1489 47.7013 64.0129 48.448 60.5143 48.448ZM60.5143 41.6C63.4583 41.6 65.8903 40.6187 67.8103 38.656C69.7303 36.6933 70.6903 34.112 70.6903 30.912C70.6903 27.712 69.7303 25.1307 67.8103 23.168C65.8903 21.2053 63.4583 20.224 60.5143 20.224C57.5703 20.224 55.1383 21.2053 53.2183 23.168C51.3409 25.1307 50.4023 27.712 50.4023 30.912C50.4023 34.112 51.3409 36.6933 53.2183 38.656C55.1383 40.6187 57.5703 41.6 60.5143 41.6ZM86.4043 0.511997H94.4043V48H86.4043V0.511997ZM104.904 0.511997H112.904V48H104.904V0.511997ZM155.532 31.104C155.532 31.6587 155.49 32.448 155.404 33.472H128.588C129.058 35.9893 130.274 37.9947 132.236 39.488C134.242 40.9387 136.716 41.664 139.66 41.664C143.415 41.664 146.508 40.4267 148.94 37.952L153.228 42.88C151.692 44.7147 149.751 46.1013 147.404 47.04C145.058 47.9787 142.412 48.448 139.468 48.448C135.714 48.448 132.407 47.7013 129.548 46.208C126.69 44.7147 124.471 42.6453 122.892 40C121.356 37.312 120.588 34.2827 120.588 30.912C120.588 27.584 121.335 24.5973 122.828 21.952C124.364 19.264 126.476 17.1733 129.164 15.68C131.852 14.1867 134.882 13.44 138.252 13.44C141.58 13.44 144.546 14.1867 147.148 15.68C149.794 17.1307 151.842 19.2 153.292 21.888C154.786 24.5333 155.532 27.6053 155.532 31.104ZM138.252 19.84C135.692 19.84 133.516 20.608 131.724 22.144C129.975 23.6373 128.908 25.6427 128.524 28.16H147.916C147.575 25.6853 146.53 23.68 144.78 22.144C143.031 20.608 140.855 19.84 138.252 19.84ZM182.609 13.44C186.918 13.44 190.374 14.6987 192.977 17.216C195.579 19.7333 196.881 23.4667 196.881 28.416V48H188.881V29.44C188.881 26.4533 188.177 24.2133 186.769 22.72C185.361 21.184 183.355 20.416 180.753 20.416C177.809 20.416 175.483 21.312 173.777 23.104C172.07 24.8533 171.217 27.392 171.217 30.72V48H163.217V13.824H170.833V18.24C172.155 16.6613 173.819 15.4667 175.825 14.656C177.83 13.8453 180.091 13.44 182.609 13.44Z" fill="white"/>
</svg>
