<svg width="2390" height="903" viewBox="0 0 2390 903" fill="none" xmlns="http://www.w3.org/2000/svg">
<path d="M229.738 339.023C278.132 339.023 320.145 347 355.775 362.954C391.938 378.908 419.592 401.776 438.737 431.557C457.881 461.338 467.454 496.702 467.454 537.651C467.454 578.068 457.881 613.433 438.737 643.746C419.592 673.526 391.938 696.394 355.775 712.348C320.145 728.302 278.132 736.279 229.738 736.279H103.701V897.415H0V339.023H229.738ZM224.952 648.532C270.155 648.532 304.457 638.959 327.856 619.814C351.255 600.67 362.955 573.282 362.955 537.651C362.955 502.02 351.255 474.633 327.856 455.488C304.457 436.343 270.155 426.77 224.952 426.77H103.701V648.532H224.952Z" fill="black"/>
<path d="M1012.48 305.521H1112.2V897.416H1012.48V305.521Z" fill="black"/>
<path d="M1243.07 305.521H1342.78V897.416H1243.07V305.521Z" fill="black"/>
<path d="M1874.1 686.823C1874.1 693.736 1873.57 703.574 1872.51 716.338H1538.27C1544.12 747.714 1559.28 772.709 1583.74 791.322C1608.73 809.403 1639.58 818.444 1676.27 818.444C1723.07 818.444 1761.63 803.021 1791.94 772.177L1845.38 833.6C1826.24 856.467 1802.04 873.751 1772.79 885.451C1743.54 897.15 1710.57 903 1673.88 903C1627.08 903 1585.87 893.694 1550.23 875.08C1514.6 856.467 1486.95 830.675 1467.27 797.703C1448.13 764.2 1438.56 726.442 1438.56 684.429C1438.56 642.949 1447.86 605.723 1466.48 572.751C1485.62 539.248 1511.94 513.189 1545.45 494.576C1578.95 475.963 1616.71 466.657 1658.72 466.657C1700.2 466.657 1737.16 475.963 1769.6 494.576C1802.57 512.657 1828.1 538.45 1846.18 571.953C1864.8 604.925 1874.1 643.215 1874.1 686.823ZM1658.72 546.427C1626.81 546.427 1599.69 555.999 1577.36 575.144C1555.55 593.757 1542.26 618.752 1537.47 650.128H1779.18C1774.92 619.284 1761.89 594.289 1740.09 575.144C1718.28 555.999 1691.16 546.427 1658.72 546.427Z" fill="black"/>
<path d="M2211.59 466.657C2265.3 466.657 2308.37 482.345 2340.81 513.721C2373.25 545.097 2389.47 591.63 2389.47 653.319V897.416H2289.76V666.082C2289.76 628.856 2280.99 600.937 2263.44 582.324C2245.89 563.179 2220.89 553.606 2188.45 553.606C2151.76 553.606 2122.78 564.774 2101.5 587.11C2080.23 608.914 2069.6 640.556 2069.6 682.036V897.416H1969.88V471.443H2064.81V526.484C2081.29 506.808 2102.03 491.917 2127.03 481.813C2152.02 471.709 2180.21 466.657 2211.59 466.657Z" fill="black"/>
<circle cx="722.716" cy="673.062" r="224.354" fill="#4385F5"/>
<circle cx="785.037" cy="224.354" r="149.569" fill="#34A755"/>
<path d="M1158.96 93.4808C1158.96 145.109 1117.11 186.962 1065.48 186.962C1013.85 186.962 971.999 145.109 971.999 93.4808C971.999 41.8528 1013.85 0 1065.48 0C1117.11 0 1158.96 41.8528 1158.96 93.4808Z" fill="#FBBE08"/>
<path d="M1383.32 137.106C1383.32 178.408 1349.83 211.891 1308.53 211.891C1267.23 211.891 1233.75 178.408 1233.75 137.106C1233.75 95.8035 1267.23 62.3213 1308.53 62.3213C1349.83 62.3213 1383.32 95.8035 1383.32 137.106Z" fill="#E94234"/>
</svg>
