<svg width="108" height="108" viewBox="0 0 108 108" fill="none" xmlns="http://www.w3.org/2000/svg">
<g clip-path="url(#clip0)" filter="url(#filter0_d)">
<path d="M31.8906 39.1328V51.4453C31.8906 51.6525 31.9729 51.8512 32.1194 51.9977C32.266 52.1443 32.4647 52.2266 32.6719 52.2266H35.5156V57.5078C35.5156 60.4766 49.6641 60.7031 54 60.7031C58.3359 60.7031 72.4844 60.4766 72.4844 57.5078V52.2266H75.0938C75.3009 52.2266 75.4997 52.1443 75.6462 51.9977C75.7927 51.8512 75.875 51.6525 75.875 51.4453V39.0625C75.3213 38.8501 74.7964 38.5693 74.3125 38.2266V50.6641H72.4844V46.7578C72.4844 45.6953 70.6562 44.9844 68.1094 44.5078C68.2429 44.2972 68.3259 44.0585 68.3519 43.8104C68.3779 43.5623 68.3462 43.3116 68.2592 43.0779C68.1722 42.8441 68.0323 42.6336 67.8504 42.4629C67.6686 42.2922 67.4497 42.1658 67.2109 42.0938C67.0072 42.0314 66.7931 42.0104 66.5812 42.0319C66.3692 42.0533 66.1637 42.1169 65.9766 42.2188C65.9223 42.252 65.8701 42.2885 65.8203 42.3281C65.7918 42.2365 65.7552 42.1476 65.7109 42.0625C65.57 41.7943 65.3563 41.5713 65.0943 41.4191C64.8322 41.267 64.5326 41.1919 64.2298 41.2025C63.927 41.2131 63.6334 41.309 63.3826 41.4791C63.1319 41.6492 62.9343 41.8866 62.8125 42.1641C62.6352 42.19 62.4636 42.2454 62.3047 42.3281C62.2504 42.3614 62.1982 42.3979 62.1484 42.4375C62.0456 42.0911 61.8291 41.7895 61.534 41.5811C61.2388 41.3727 60.8821 41.2697 60.5213 41.2886C60.1605 41.3076 59.8166 41.4474 59.5449 41.6855C59.2732 41.9237 59.0895 42.2463 59.0234 42.6016C58.911 42.4045 58.757 42.2342 58.5721 42.1027C58.3873 41.9711 58.176 41.8814 57.9529 41.8398C57.7299 41.7981 57.5004 41.8056 57.2806 41.8616C57.0607 41.9176 56.8556 42.0208 56.6797 42.1641L56.5234 42.1016C56.3201 42.037 56.1056 42.0148 55.8933 42.0363C55.681 42.0578 55.4754 42.1225 55.2891 42.2266C55.2348 42.2598 55.1826 42.2963 55.1328 42.3359C55.1043 42.2443 55.0677 42.1554 55.0234 42.0703C54.8825 41.8021 54.6688 41.5791 54.4068 41.4269C54.1447 41.2748 53.8451 41.1997 53.5423 41.2103C53.2395 41.2209 52.9459 41.3168 52.6951 41.4869C52.4444 41.657 52.2468 41.8944 52.125 42.1719C51.9478 42.1979 51.7761 42.2534 51.6172 42.3359C51.5629 42.3692 51.5107 42.4057 51.4609 42.4453C51.4324 42.3537 51.3958 42.2648 51.3516 42.1797C51.1844 41.8557 50.9123 41.5981 50.5797 41.449C50.247 41.2999 49.8736 41.2681 49.5206 41.3588C49.1676 41.4496 48.8558 41.6575 48.6363 41.9486C48.4168 42.2396 48.3027 42.5965 48.3125 42.9609C48.1091 42.8964 47.8947 42.8742 47.6824 42.8957C47.4701 42.9172 47.2644 42.9819 47.0781 43.0859C47.0239 43.1192 46.9717 43.1557 46.9219 43.1953C46.8248 42.8895 46.6385 42.6196 46.3869 42.4204C46.1354 42.2212 45.83 42.1018 45.5101 42.0775C45.1901 42.0531 44.8702 42.1249 44.5914 42.2838C44.3125 42.4426 44.0876 42.6811 43.9453 42.9688C43.7681 42.9948 43.5965 43.0502 43.4375 43.1328L43.2812 43.2422C43.2527 43.1506 43.2161 43.0617 43.1719 42.9766C43.0718 42.7884 42.9355 42.6218 42.7708 42.4865C42.6061 42.3512 42.4163 42.2497 42.2123 42.188C42.0083 42.1263 41.7941 42.1055 41.582 42.1269C41.3699 42.1483 41.1642 42.2113 40.9766 42.3125C40.6924 42.4686 40.4612 42.7058 40.3123 42.9938C40.1634 43.2818 40.1037 43.6076 40.1406 43.9297C39.9718 44.0947 39.8411 44.2947 39.7578 44.5156C37.2812 44.9922 35.5156 45.6953 35.5156 46.7422V50.6484H33.4531V38.3672C32.9657 38.6855 32.4409 38.9427 31.8906 39.1328ZM68.3516 46.1641C69.1354 46.287 69.9031 46.4966 70.6406 46.7891L70.4609 46.8672L70.3281 46.875L70.0078 46.9844L69.8672 47.0312L69.2969 47.1797H69.2031L68.6172 47.3047L68.3281 47.3594L67.8359 47.4531L67.5703 47.4922C67.8046 47.3499 67.9991 47.1506 68.1357 46.913C68.2723 46.6753 68.3466 46.4069 68.3516 46.1328V46.1641ZM62.3203 47.7266C62.4127 47.7748 62.5095 47.814 62.6094 47.8438C62.6952 47.8506 62.7814 47.8506 62.8672 47.8438C62.8905 47.9187 62.9192 47.9918 62.9531 48.0625L62.4375 48.1016H62.1719C62.2424 47.961 62.2924 47.811 62.3203 47.6562V47.7266ZM58.4141 48.2422C58.5904 48.1447 58.7468 48.0148 58.875 47.8594C58.9961 48.0013 59.1416 48.1203 59.3047 48.2109L59.375 48.3203H58.9297H58.0781C58.2024 48.2929 58.323 48.251 58.4375 48.1953L58.4141 48.2422ZM53.4922 48.1719C53.7322 48.3347 54.0128 48.4275 54.3025 48.4399C54.5923 48.4524 54.8798 48.3839 55.1328 48.2422C55.2592 48.1701 55.3749 48.0807 55.4766 47.9766H55.5625C55.8208 47.9774 56.0754 47.9157 56.3047 47.7969H56.3516C56.5548 48.0789 56.8462 48.285 57.1797 48.3828C57.2447 48.3869 57.31 48.3869 57.375 48.3828H56.2734H53.3359C53.404 48.3029 53.4642 48.2165 53.5156 48.125L53.4922 48.1719ZM50.2109 48.2422C50.3433 48.1689 50.4644 48.0768 50.5703 47.9688C50.5881 48.0246 50.6089 48.0793 50.6328 48.1328C50.6811 48.2293 50.7386 48.3209 50.8047 48.4062H50.5859H49.9531H49.8672C49.9983 48.3523 50.1218 48.2814 50.2344 48.1953L50.2109 48.2422ZM45.6562 47.7812C45.8958 47.7569 46.1235 47.6648 46.3125 47.5156C46.3986 47.7943 46.561 48.0432 46.7812 48.2344L46.1875 48.1406L45.5781 48.0938H45.4844C45.5644 47.9827 45.63 47.8619 45.6797 47.7344L45.6562 47.7812ZM42.4219 47.7812C42.5111 47.8345 42.6053 47.8789 42.7031 47.9141H42.4922H42.2266L42.4219 47.7812ZM39.9375 46.0938C39.9872 46.1604 40.0421 46.2231 40.1016 46.2813C40.0994 46.5453 40.1641 46.8057 40.2898 47.0379C40.4155 47.2702 40.598 47.4668 40.8203 47.6094L40.4922 47.5547L40.1172 47.4922L39.6328 47.4062L39.3438 47.3516L38.7578 47.2266H38.6641L38.0937 47.0781L37.9531 47.0312L37.6719 46.875L37.5391 46.8203L37.3594 46.7422C38.1915 46.4295 39.0564 46.2119 39.9375 46.0938ZM37.0469 48.2734H37.1172C37.3281 48.3594 37.5547 48.4375 37.8047 48.5156H37.8906L38.6328 48.7188H38.7891L39.6641 48.9062H39.8438L40.7422 49.0625H40.8359L41.8594 49.2031H42.0781L43.1406 49.3281H43.2266L44.2734 49.4297H44.4766L45.5703 49.5156H45.7656L46.7812 49.5781H46.9687L48.0469 49.6328H48.2734L49.3125 49.6719H49.3594H50.3359H50.5234H51.4453H56.5625H57.4844H57.6719H58.6484H58.6875L59.7266 49.6328H59.9531L61.0312 49.7656H61.1641L62.1797 49.7031H62.375L63.4688 49.6172H63.6719L64.7188 49.5156H64.8047L65.8672 49.3906H66.0859L67.1094 49.25H67.2031L68.1016 49.0938H68.2812L69.1562 48.9062H69.3125L70.0547 48.7031H70.1406C70.3906 48.625 70.6094 48.5469 70.8281 48.4609H70.8984V57.3516C69.9297 58.1328 63.7031 59.1484 53.9766 59.1484C44.25 59.1484 38.0234 58.125 37.0547 57.3516L37.0469 48.2734Z" fill="#39BEB9"/>
<path d="M36.9688 16.4062C36.9688 16.6135 37.0511 16.8122 37.1976 16.9587C37.3441 17.1052 37.5428 17.1875 37.75 17.1875H96.4531L100.203 21.6016H102.25L84.125 0.273438C84.0517 0.187683 83.9606 0.118836 83.8581 0.0716337C83.7556 0.0244309 83.6441 -7.42239e-06 83.5313 1.691e-09H24.4688C24.3559 -7.42239e-06 24.2444 0.0244309 24.1419 0.0716337C24.0394 0.118836 23.9483 0.187683 23.875 0.273438L5.75 21.6016H7.79688L8.89063 20.3125H67.9063C68.1135 20.3125 68.3122 20.2302 68.4587 20.0837C68.6052 19.9372 68.6875 19.7385 68.6875 19.5312C68.6875 19.324 68.6052 19.1253 68.4587 18.9788C68.3122 18.8323 68.1135 18.75 67.9063 18.75H10.25L14.25 14.0625H14.3438H73.375C73.5822 14.0625 73.7809 13.9802 73.9274 13.8337C74.0739 13.6872 74.1563 13.4885 74.1563 13.2812C74.1563 13.074 74.0739 12.8753 73.9274 12.7288C73.7809 12.5823 73.5822 12.5 73.375 12.5H15.5625L19.5859 7.76562C19.6587 7.79241 19.7351 7.80821 19.8125 7.8125H78.8438C79.051 7.8125 79.2497 7.73019 79.3962 7.58368C79.5427 7.43716 79.625 7.23845 79.625 7.03125C79.625 6.82405 79.5427 6.62534 79.3962 6.47882C79.2497 6.33231 79.051 6.25 78.8438 6.25H20.8438L24.8281 1.5625H83.1641L84.4688 3.125H26.8125C26.6053 3.125 26.4066 3.20731 26.2601 3.35382C26.1136 3.50034 26.0312 3.69905 26.0312 3.90625C26.0312 4.11345 26.1136 4.31216 26.2601 4.45868C26.4066 4.60519 26.6053 4.6875 26.8125 4.6875H85.8281L89.8125 9.375H32.2812C32.074 9.375 31.8753 9.45731 31.7288 9.60382C31.5823 9.75034 31.5 9.94905 31.5 10.1562C31.5 10.3635 31.5823 10.5622 31.7288 10.7087C31.8753 10.8552 32.074 10.9375 32.2812 10.9375H91.1406L95.125 15.625H37.75C37.5428 15.625 37.3441 15.7073 37.1976 15.8538C37.0511 16.0003 36.9688 16.199 36.9688 16.4062Z" fill="#39BEB9"/>
<path d="M103.219 23.1641H4.78125C4.57405 23.1641 4.37534 23.2464 4.22882 23.3929C4.08231 23.5394 4 23.7381 4 23.9453V32.4922C4 33.9426 4.57617 35.3336 5.60176 36.3592C6.62735 37.3848 8.01835 37.9609 9.46875 37.9609H9.9375C10.8824 37.9597 11.8109 37.7136 12.6324 37.2467C13.4539 36.7798 14.1404 36.1081 14.625 35.2969C15.1096 36.1081 15.7961 36.7798 16.6176 37.2467C17.4391 37.7136 18.3676 37.9597 19.3125 37.9609H19.7813C20.7262 37.9597 21.6546 37.7136 22.4761 37.2467C23.2976 36.7798 23.9841 36.1081 24.4688 35.2969C24.9534 36.1081 25.6399 36.7798 26.4614 37.2467C27.2829 37.7136 28.2113 37.9597 29.1562 37.9609H29.625C30.5699 37.9597 31.4984 37.7136 32.3199 37.2467C33.1414 36.7798 33.8279 36.1081 34.3125 35.2969C34.7971 36.1081 35.4836 36.7798 36.3051 37.2467C37.1266 37.7136 38.0551 37.9597 39 37.9609H39.4688C40.4137 37.9597 41.3421 37.7136 42.1636 37.2467C42.9851 36.7798 43.6716 36.1081 44.1562 35.2969C44.6409 36.1081 45.3274 36.7798 46.1489 37.2467C46.9704 37.7136 47.8988 37.9597 48.8438 37.9609H49.3125C50.2574 37.9597 51.1859 37.7136 52.0074 37.2467C52.8289 36.7798 53.5154 36.1081 54 35.2969C54.4846 36.1081 55.1711 36.7798 55.9926 37.2467C56.8141 37.7136 57.7426 37.9597 58.6875 37.9609H59.1562C60.1012 37.9597 61.0296 37.7136 61.8511 37.2467C62.6726 36.7798 63.3591 36.1081 63.8438 35.2969C64.3284 36.1081 65.0149 36.7798 65.8364 37.2467C66.6579 37.7136 67.5863 37.9597 68.5312 37.9609H69C69.9449 37.9597 70.8734 37.7136 71.6949 37.2467C72.5164 36.7798 73.2029 36.1081 73.6875 35.2969C74.1721 36.1081 74.8586 36.7798 75.6801 37.2467C76.5016 37.7136 77.4301 37.9597 78.375 37.9609H78.8438C79.7887 37.9597 80.7171 37.7136 81.5386 37.2467C82.3601 36.7798 83.0466 36.1081 83.5312 35.2969C84.0159 36.1081 84.7024 36.7798 85.5239 37.2467C86.3454 37.7136 87.2738 37.9597 88.2188 37.9609H88.6875C89.6324 37.9597 90.5609 37.7136 91.3824 37.2467C92.2039 36.7798 92.8904 36.1081 93.375 35.2969C93.8596 36.1081 94.5461 36.7798 95.3676 37.2467C96.1891 37.7136 97.1176 37.9597 98.0625 37.9609H98.5312C99.9817 37.9609 101.373 37.3848 102.398 36.3592C103.424 35.3336 104 33.9426 104 32.4922V23.9453C104 23.7381 103.918 23.5394 103.771 23.3929C103.625 23.2464 103.426 23.1641 103.219 23.1641ZM13.8438 32.4922C13.8438 33.5282 13.4322 34.5218 12.6996 35.2543C11.9671 35.9869 10.9735 36.3984 9.9375 36.3984H9.46875C8.43275 36.3984 7.43918 35.9869 6.70661 35.2543C5.97405 34.5218 5.5625 33.5282 5.5625 32.4922V24.7266H13.8438V32.4922ZM23.6875 32.4922C23.6875 33.5282 23.276 34.5218 22.5434 35.2543C21.8108 35.9869 20.8173 36.3984 19.7813 36.3984H19.3125C18.2765 36.3984 17.2829 35.9869 16.5504 35.2543C15.8178 34.5218 15.4062 33.5282 15.4062 32.4922V24.7266H23.6875V32.4922ZM33.5312 32.4922C33.5312 33.5282 33.1197 34.5218 32.3871 35.2543C31.6546 35.9869 30.661 36.3984 29.625 36.3984H29.1562C28.1202 36.3984 27.1267 35.9869 26.3941 35.2543C25.6616 34.5218 25.25 33.5282 25.25 32.4922V24.7266H33.5312V32.4922ZM43.375 32.4922C43.375 33.5282 42.9635 34.5218 42.2309 35.2543C41.4983 35.9869 40.5048 36.3984 39.4688 36.3984H39C37.964 36.3984 36.9704 35.9869 36.2379 35.2543C35.5053 34.5218 35.0938 33.5282 35.0938 32.4922V24.7266H43.375V32.4922ZM53.2188 32.4922C53.2188 33.5282 52.8072 34.5218 52.0746 35.2543C51.3421 35.9869 50.3485 36.3984 49.3125 36.3984H48.8438C47.8078 36.3984 46.8142 35.9869 46.0816 35.2543C45.3491 34.5218 44.9375 33.5282 44.9375 32.4922V24.7266H53.2188V32.4922ZM63.0625 32.4922C63.0625 33.5282 62.651 34.5218 61.9184 35.2543C61.1858 35.9869 60.1922 36.3984 59.1562 36.3984H58.6875C57.6515 36.3984 56.6579 35.9869 55.9254 35.2543C55.1928 34.5218 54.7812 33.5282 54.7812 32.4922V24.7266H63.0625V32.4922ZM72.9062 32.4922C72.9062 33.5282 72.4947 34.5218 71.7621 35.2543C71.0296 35.9869 70.036 36.3984 69 36.3984H68.5312C67.4952 36.3984 66.5017 35.9869 65.7691 35.2543C65.0366 34.5218 64.625 33.5282 64.625 32.4922V24.7266H72.9062V32.4922ZM82.75 32.4922C82.75 33.5282 82.3384 34.5218 81.6059 35.2543C80.8733 35.9869 79.8798 36.3984 78.8438 36.3984H78.375C77.339 36.3984 76.3454 35.9869 75.6129 35.2543C74.8803 34.5218 74.4688 33.5282 74.4688 32.4922V24.7266H82.75V32.4922ZM92.5938 32.4922C92.5938 33.5282 92.1822 34.5218 91.4496 35.2543C90.7171 35.9869 89.7235 36.3984 88.6875 36.3984H88.2188C87.1827 36.3984 86.1892 35.9869 85.4566 35.2543C84.7241 34.5218 84.3125 33.5282 84.3125 32.4922V24.7266H92.5938V32.4922ZM102.438 32.4922C102.438 33.5282 102.026 34.5218 101.293 35.2543C100.561 35.9869 99.5673 36.3984 98.5312 36.3984H98.0625C97.0265 36.3984 96.0329 35.9869 95.3004 35.2543C94.5678 34.5218 94.1562 33.5282 94.1562 32.4922V24.7266H102.438V32.4922Z" fill="#39BEB9"/>
<path d="M14.8672 72.2422V97.6562C14.8672 98.2779 15.1141 98.874 15.5537 99.3135C15.9932 99.7531 16.5893 100 17.2109 100H90.7891C91.4107 100 92.0068 99.7531 92.4463 99.3135C92.8859 98.874 93.1328 98.2779 93.1328 97.6562V72.2422C93.1328 71.6206 92.8859 71.0244 92.4463 70.5849C92.0068 70.1454 91.4107 69.8984 90.7891 69.8984H17.2109C16.5893 69.8984 15.9932 70.1454 15.5537 70.5849C15.1141 71.0244 14.8672 71.6206 14.8672 72.2422ZM91.5703 97.6562C91.5703 97.8634 91.488 98.0622 91.3415 98.2087C91.195 98.3552 90.9963 98.4375 90.7891 98.4375H17.2109C17.0037 98.4375 16.805 98.3552 16.6585 98.2087C16.512 98.0622 16.4297 97.8634 16.4297 97.6562V96.875H91.5703V97.6562ZM58.3594 81.6406H48.2031C48.2102 81.5025 48.1806 81.3651 48.1172 81.2422C48.0494 81.112 48.0145 80.9671 48.0156 80.8203C48.0156 80.5882 48.1078 80.3657 48.2719 80.2016C48.436 80.0375 48.6586 79.9453 48.8906 79.9453C49.1259 79.9478 49.3505 80.0433 49.5156 80.2109C49.662 80.3564 49.86 80.4381 50.0664 80.4381C50.2728 80.4381 50.4708 80.3564 50.6172 80.2109C50.7531 80.0635 50.9405 79.974 51.1406 79.9609C51.3478 79.9609 51.5465 79.8786 51.6931 79.7321C51.8396 79.5856 51.9219 79.3869 51.9219 79.1797C51.9353 78.9849 52.0134 78.8002 52.1439 78.655C52.2743 78.5097 52.4496 78.4123 52.6418 78.3781C52.8341 78.344 53.0322 78.3751 53.2047 78.4666C53.3772 78.558 53.5141 78.7045 53.5938 78.8828C53.6374 78.9842 53.702 79.0753 53.7834 79.1499C53.8648 79.2245 53.9611 79.281 54.0659 79.3157C54.1707 79.3504 54.2817 79.3625 54.3916 79.3512C54.5014 79.3398 54.6076 79.3054 54.7031 79.25C54.8331 79.1728 54.9816 79.1323 55.1328 79.1328C55.2525 79.1337 55.3707 79.1588 55.4805 79.2064C55.5903 79.2541 55.6893 79.3234 55.7717 79.4101C55.8541 79.4969 55.9182 79.5994 55.9601 79.7115C56.002 79.8236 56.0209 79.943 56.0156 80.0625C56.0159 80.1928 56.0488 80.321 56.1112 80.4353C56.1737 80.5497 56.2637 80.6466 56.3732 80.7173C56.4827 80.7879 56.6081 80.8301 56.7381 80.8399C56.868 80.8497 56.9983 80.8269 57.1172 80.7734C57.2497 80.7143 57.3947 80.6888 57.5394 80.699C57.6841 80.7093 57.8241 80.7551 57.9469 80.8323C58.0697 80.9096 58.1716 81.0159 58.2436 81.1419C58.3155 81.2679 58.3553 81.4097 58.3594 81.5547C58.3594 81.5547 58.3594 81.625 58.3594 81.6406ZM59.4453 83.2031L56.5859 94.7891H55.4922V83.2031H59.4453ZM53.9297 83.2031V94.7891H52.3672V83.2031H53.9297ZM50.8047 83.2031V94.7891H49.7109L46.8594 83.2031H50.8047ZM90 71.4844H90.7812C90.9884 71.4844 91.1872 71.5667 91.3337 71.7132C91.4802 71.8597 91.5625 72.0584 91.5625 72.2656V95.3125H90V71.4844ZM19.5469 71.4844H88.4375V95.3125H58.0703L61.1953 82.6094C61.2243 82.4924 61.2258 82.3703 61.1998 82.2526C61.1737 82.135 61.1208 82.0249 61.0451 81.9311C60.9695 81.8373 60.8731 81.7623 60.7637 81.7119C60.6542 81.6615 60.5345 81.6371 60.4141 81.6406H59.8906C59.8908 81.3145 59.8255 80.9917 59.6986 80.6913C59.5717 80.3909 59.3859 80.119 59.152 79.8917C58.9182 79.6644 58.6411 79.4864 58.3372 79.3681C58.0333 79.2498 57.7088 79.1937 57.3828 79.2031C57.1715 78.6624 56.7753 78.2142 56.2646 77.9381C55.7539 77.662 55.1619 77.576 54.5938 77.6953C54.3102 77.3702 53.9455 77.1261 53.5368 76.988C53.128 76.8499 52.69 76.8228 52.2674 76.9094C51.8447 76.996 51.4527 77.1932 51.1312 77.4809C50.8097 77.7686 50.5703 78.1364 50.4375 78.5469C50.2913 78.5928 50.15 78.653 50.0156 78.7266C49.6448 78.5232 49.2274 78.4199 48.8045 78.4267C48.3817 78.4335 47.9678 78.5502 47.6037 78.7654C47.2396 78.9805 46.9377 79.2867 46.7278 79.6539C46.5178 80.021 46.407 80.4364 46.4062 80.8594C46.4083 81.1252 46.4531 81.389 46.5391 81.6406H45.8281C45.7077 81.6371 45.588 81.6615 45.4785 81.7119C45.3691 81.7623 45.2727 81.8373 45.1971 81.9311C45.1214 82.0249 45.0685 82.135 45.0424 82.2526C45.0164 82.3703 45.0179 82.4924 45.0469 82.6094L48.1719 95.3125H19.5547L19.5469 71.4844ZM17.9844 95.3359H16.4219V72.2422C16.4219 72.035 16.5042 71.8363 16.6507 71.6898C16.7972 71.5432 16.9959 71.4609 17.2031 71.4609H17.9844V95.3359Z" fill="#39BEB9"/>
<path d="M25.9453 58.1563C26.8385 58.1563 27.5625 57.4287 27.5625 56.5313C27.5625 55.6338 26.8385 54.9062 25.9453 54.9062C25.0522 54.9062 24.3281 55.6338 24.3281 56.5313C24.3281 57.4287 25.0522 58.1563 25.9453 58.1563Z" fill="#39BEB9"/>
<path d="M24.3047 52.3672C25.1978 52.3672 25.9219 51.6396 25.9219 50.7422C25.9219 49.8447 25.1978 49.1172 24.3047 49.1172C23.4115 49.1172 22.6875 49.8447 22.6875 50.7422C22.6875 51.6396 23.4115 52.3672 24.3047 52.3672Z" fill="#39BEB9"/>
<path d="M29.2266 59.8125C30.1197 59.8125 30.8438 59.085 30.8438 58.1875C30.8438 57.29 30.1197 56.5625 29.2266 56.5625C28.3334 56.5625 27.6094 57.29 27.6094 58.1875C27.6094 59.085 28.3334 59.8125 29.2266 59.8125Z" fill="#39BEB9"/>
<path d="M88.6875 39.5234H88.2188C88.0391 39.5234 87.8516 39.5234 87.6719 39.5234V68.3359H89.2344V39.5C89.0547 39.5078 88.8672 39.5234 88.6875 39.5234Z" fill="#39BEB9"/>
<path d="M19.7813 39.5234H19.3125C19.1328 39.5234 18.9453 39.5234 18.7656 39.5234V68.3359H20.3281V39.5C20.1484 39.5078 19.9609 39.5234 19.7813 39.5234Z" fill="#39BEB9"/>
<path d="M21.5781 66.789C21.6774 66.978 21.8133 67.1453 21.9779 67.2812C22.1425 67.4171 22.3324 67.5189 22.5367 67.5807C22.741 67.6425 22.9556 67.6631 23.1679 67.6412C23.3802 67.6193 23.5861 67.5553 23.7734 67.4531C23.8277 67.4199 23.8799 67.3833 23.9297 67.3437C23.9968 67.5631 24.1113 67.7651 24.2653 67.9352C24.4192 68.1053 24.6087 68.2395 24.8203 68.3281H26.1016L26.2344 68.2734C26.5496 68.099 26.7972 67.8239 26.9375 67.4922C27.112 67.4653 27.281 67.4099 27.4375 67.3281C27.4918 67.2949 27.5439 67.2583 27.5938 67.2187C27.6691 67.4703 27.8067 67.6988 27.9938 67.8832C28.1809 68.0675 28.4114 68.2017 28.6641 68.2734C28.7343 68.2782 28.8048 68.2782 28.875 68.2734H29.4375C29.6815 68.2359 29.9109 68.1333 30.1016 67.9766L30.2578 68.039C30.4592 68.1103 30.6727 68.1409 30.886 68.1288C31.0992 68.1167 31.308 68.0623 31.5 67.9687C31.5543 67.9355 31.6064 67.899 31.6563 67.8594C31.7048 68.0302 31.7872 68.1896 31.8984 68.3281H34.4688C34.6233 68.1155 34.7251 67.8691 34.7656 67.6094C34.9368 67.9308 35.2123 68.1843 35.5469 68.3281H36.8125L36.9453 68.2734C37.2605 68.099 37.5081 67.8239 37.6484 67.4922C37.823 67.4653 37.9919 67.4099 38.1484 67.3281C38.2027 67.2949 38.2549 67.2583 38.3047 67.2187C38.3801 67.4703 38.5177 67.6988 38.7047 67.8832C38.8918 68.0675 39.1223 68.2017 39.375 68.2734C39.4452 68.2782 39.5157 68.2782 39.5859 68.2734H40.1484C40.3924 68.2359 40.6218 68.1333 40.8125 67.9766L40.9687 68.039C41.1746 68.1147 41.3937 68.1475 41.6127 68.1354C41.8317 68.1233 42.0459 68.0666 42.2422 67.9687C42.2964 67.9355 42.3486 67.899 42.3984 67.8594C42.447 68.0302 42.5294 68.1896 42.6406 68.3281H45.2344C45.3675 68.1408 45.4606 67.928 45.5078 67.7031C45.6788 67.9792 45.9294 68.1971 46.2266 68.3281H47.5078L47.6406 68.2734C47.9558 68.099 48.2034 67.8239 48.3437 67.4922C48.5183 67.4653 48.6872 67.4099 48.8438 67.3281C48.898 67.2949 48.9502 67.2583 49 67.2187C49.0729 67.4789 49.212 67.7156 49.4037 67.9059C49.5954 68.0963 49.8331 68.2337 50.0938 68.3047C50.164 68.3094 50.2345 68.3094 50.3047 68.3047H50.875C51.119 68.2671 51.3484 68.1646 51.5391 68.0078L51.6875 68.0703C51.8395 68.1164 51.9974 68.1401 52.1562 68.1406C52.429 68.1428 52.6978 68.0756 52.9375 67.9453C52.9918 67.9121 53.0439 67.8755 53.0938 67.8359C53.1223 67.9275 53.1589 68.0164 53.2031 68.1015C53.2426 68.1698 53.287 68.235 53.3359 68.2969H55.9297C56.0343 68.157 56.1161 68.0014 56.1719 67.8359C56.31 67.9349 56.4629 68.0114 56.625 68.0625C56.777 68.1086 56.9349 68.1323 57.0938 68.1328C57.3503 68.1353 57.6035 68.0746 57.8311 67.9561C58.0586 67.8376 58.2535 67.6648 58.3984 67.4531C58.5234 67.4865 58.6519 67.5049 58.7812 67.5078C58.88 67.5172 58.9794 67.5172 59.0781 67.5078C59.2801 67.7927 59.5716 68.0017 59.9062 68.1015C60.0582 68.1477 60.2162 68.1714 60.375 68.1719C60.6097 68.1738 60.8419 68.1229 61.0543 68.0228C61.2666 67.9227 61.4537 67.776 61.6016 67.5937C61.7673 67.8109 61.9905 67.9772 62.246 68.0739C62.5015 68.1706 62.7789 68.1937 63.0469 68.1406C63.0842 68.2059 63.126 68.2685 63.1719 68.3281H65.7188C65.8733 68.1155 65.9751 67.8691 66.0156 67.6094C66.1481 67.5844 66.2768 67.5424 66.3984 67.4844C66.5998 67.7765 66.8946 67.9914 67.2344 68.0937C67.3864 68.1399 67.5443 68.1635 67.7031 68.164C67.9502 68.1621 68.1934 68.1033 68.4141 67.9922C68.5643 68.1068 68.7335 68.1941 68.9141 68.25C69.0661 68.2961 69.224 68.3198 69.3828 68.3203C69.7557 68.3338 70.1204 68.2085 70.4062 67.9687L70.5625 68.0312C70.7144 68.0776 70.8724 68.1013 71.0312 68.1015C71.3043 68.1058 71.5736 68.0385 71.8125 67.9062C71.8668 67.873 71.9189 67.8365 71.9687 67.7969C71.9973 67.8885 72.0339 67.9774 72.0781 68.0625C72.1255 68.1479 72.1804 68.229 72.2422 68.3047H74.7656C74.9218 68.1078 75.0313 67.8781 75.0859 67.6328C75.2796 67.9457 75.5746 68.1829 75.9219 68.3047H76.9687C77.2419 68.2293 77.4848 68.071 77.6641 67.8515C77.8334 68.0535 78.0511 68.2094 78.2969 68.3047H79.5547L79.6875 68.25C79.8134 68.1803 79.9291 68.0935 80.0312 67.9922C80.1892 68.1183 80.3694 68.2137 80.5625 68.2734C80.6327 68.2782 80.7032 68.2782 80.7734 68.2734H81.3359C81.5799 68.2359 81.8093 68.1333 82 67.9766L82.1484 68.039C82.3004 68.0852 82.4583 68.1088 82.6172 68.1094C82.8899 68.1115 83.1588 68.0443 83.3984 67.914C83.4527 67.8808 83.5049 67.8443 83.5547 67.8047C83.5832 67.8963 83.6198 67.9852 83.6641 68.0703C83.7036 68.1385 83.748 68.2038 83.7969 68.2656H86.3906C86.6375 67.9357 86.7491 67.5239 86.7026 67.1145C86.6562 66.705 86.4551 66.3287 86.1406 66.0625C86.3396 65.8929 86.4952 65.6782 86.5944 65.4363C86.6936 65.1944 86.7336 64.9323 86.7109 64.6719C86.7138 64.4377 86.6641 64.206 86.5654 63.9937C86.4667 63.7814 86.3215 63.594 86.1406 63.4453C86.4234 63.2042 86.6154 62.8738 86.6851 62.5087C86.7547 62.1436 86.6976 61.7658 86.5234 61.4375C86.4233 61.2493 86.287 61.0828 86.1224 60.9474C85.9577 60.8121 85.7679 60.7107 85.5639 60.649C85.3598 60.5872 85.1456 60.5665 84.9336 60.5878C84.7215 60.6092 84.5157 60.6723 84.3281 60.7734C84.2739 60.8067 84.2217 60.8432 84.1719 60.8828C84.1434 60.7912 84.1068 60.7023 84.0625 60.6172C83.9557 60.3976 83.7989 60.2061 83.6047 60.0581C83.4105 59.9101 83.1843 59.8096 82.9442 59.7648C82.7042 59.72 82.457 59.732 82.2225 59.8C81.9879 59.868 81.7726 59.99 81.5937 60.1562L81.4375 60.0937C81.2044 60.0144 80.9553 59.9943 80.7126 60.0352C80.4698 60.0761 80.241 60.1768 80.0469 60.3281C79.947 60.011 79.7514 59.7326 79.4869 59.5312C79.2224 59.3298 78.9021 59.2152 78.5699 59.2032C78.2376 59.1913 77.9098 59.2824 77.6315 59.4643C77.3532 59.6461 77.1381 59.9097 77.0156 60.2187L76.875 60.1562C76.6713 60.0939 76.4572 60.0729 76.2452 60.0943C76.0333 60.1158 75.8277 60.1794 75.6406 60.2812C75.4078 60.4073 75.2093 60.5883 75.0624 60.8085C74.9154 61.0287 74.8245 61.2815 74.7976 61.5449C74.7706 61.8083 74.8084 62.0742 74.9077 62.3197C75.007 62.5651 75.1647 62.7825 75.3672 62.9531C75.1997 63.0983 75.0641 63.2765 74.9687 63.4765C74.8793 63.2102 74.7197 62.9729 74.5068 62.7896C74.2939 62.6063 74.0355 62.4839 73.7588 62.4351C73.4821 62.3863 73.1974 62.413 72.9346 62.5124C72.6718 62.6119 72.4407 62.7803 72.2656 63C72.1388 62.8337 71.9799 62.6947 71.7983 62.591C71.6167 62.4873 71.4161 62.4211 71.2085 62.3963C71.0009 62.3715 70.7904 62.3887 70.5895 62.4468C70.3886 62.5048 70.2015 62.6026 70.0391 62.7344L69.8828 62.6719C69.49 62.551 69.0657 62.5857 68.6978 62.769C68.3299 62.9522 68.0465 63.2699 67.9062 63.6562C67.7602 63.546 67.5964 63.4614 67.4219 63.4062H67.3594C67.3526 63.001 67.1933 62.6133 66.9131 62.3205C66.633 62.0277 66.2527 61.8513 65.8482 61.8267C65.4437 61.802 65.0448 61.9308 64.7311 62.1874C64.4175 62.4441 64.2122 62.8096 64.1562 63.2109C64.0084 62.9697 63.7995 62.7717 63.5507 62.637C63.3019 62.5022 63.022 62.4354 62.7391 62.4433C62.4563 62.4512 62.1805 62.5336 61.9397 62.6821C61.6988 62.8306 61.5013 63.0399 61.3672 63.2891C61.0512 63.2388 60.7274 63.2868 60.4396 63.4266C60.1518 63.5663 59.9138 63.791 59.7578 64.0703C59.6087 64.1181 59.4706 64.1951 59.3516 64.2969L59.2031 64.2344C58.9701 64.1551 58.721 64.1349 58.4782 64.1759C58.2355 64.2168 58.0067 64.3174 57.8125 64.4687C57.784 64.3771 57.7474 64.2882 57.7031 64.2031C57.6025 64.0159 57.4657 63.8504 57.3008 63.7164C57.1359 63.5823 56.946 63.4822 56.7422 63.4219H56.6797C56.6607 63.2089 56.5996 63.0017 56.5 62.8125C56.3451 62.5191 56.1033 62.2808 55.8077 62.1301C55.5121 61.9795 55.1771 61.9238 54.8487 61.9709C54.5203 62.0179 54.2144 62.1653 53.973 62.3929C53.7315 62.6205 53.5663 62.9171 53.5 63.2422C53.3876 63.0451 53.2336 62.8748 53.0487 62.7433C52.8638 62.6117 52.6525 62.522 52.4295 62.4804C52.2064 62.4387 51.977 62.4462 51.7571 62.5022C51.5372 62.5582 51.3322 62.6614 51.1562 62.8047L51 62.7422C50.7963 62.6799 50.5822 62.6588 50.3702 62.6803C50.1583 62.7018 49.9527 62.7653 49.7656 62.8672C49.4892 63.0184 49.2625 63.2464 49.1128 63.5237C48.9631 63.8009 48.8968 64.1156 48.9219 64.4297C48.8027 64.3532 48.674 64.2928 48.5391 64.25H48.4766C48.4494 63.9887 48.3591 63.7381 48.2134 63.5196C48.0676 63.3011 47.8709 63.1214 47.6401 62.996C47.4093 62.8706 47.1515 62.8033 46.8889 62.7999C46.6262 62.7965 46.3667 62.8571 46.1328 62.9766C46.0786 63.0098 46.0264 63.0463 45.9766 63.0859C45.948 62.9943 45.9114 62.9054 45.8672 62.8203C45.7123 62.5269 45.4704 62.2886 45.1748 62.1379C44.8792 61.9873 44.5443 61.9317 44.2159 61.9787C43.8874 62.0257 43.5816 62.1731 43.3402 62.4007C43.0987 62.6283 42.9335 62.9249 42.8672 63.25C42.7548 63.0529 42.6008 62.8827 42.4159 62.7511C42.231 62.6195 42.0197 62.5298 41.7967 62.4882C41.5736 62.4466 41.3442 62.454 41.1243 62.51C40.9044 62.566 40.6994 62.6692 40.5234 62.8125L40.3672 62.75C40.1634 62.6881 39.9494 62.6673 39.7375 62.6888C39.5256 62.7102 39.3201 62.7735 39.1328 62.875C38.8564 63.0263 38.6297 63.2543 38.48 63.5315C38.3302 63.8088 38.2639 64.1234 38.2891 64.4375C38.1699 64.3611 38.0412 64.3007 37.9062 64.2578H37.8438C37.8166 63.9966 37.7263 63.7459 37.5806 63.5274C37.4348 63.3089 37.2381 63.1292 37.0073 63.0038C36.7765 62.8784 36.5187 62.8111 36.256 62.8077C35.9934 62.8043 35.7339 62.865 35.5 62.9844L35.3437 63.0859C35.2538 62.7989 35.0829 62.5439 34.8516 62.3515C34.8585 62.0801 34.7967 61.8114 34.6719 61.5703C34.5489 61.3411 34.3719 61.1454 34.1562 61C34.2232 60.6248 34.1548 60.238 33.9633 59.9085C33.7718 59.579 33.4696 59.3282 33.1104 59.2007C32.7513 59.0732 32.3586 59.0772 32.0021 59.2121C31.6457 59.3471 31.3487 59.6041 31.1641 59.9375C30.933 59.8601 30.6866 59.8396 30.4459 59.8776C30.2052 59.9157 29.9772 60.0113 29.7813 60.1562L29.625 60.0937C29.4224 60.0329 29.2097 60.0127 28.9993 60.0341C28.7888 60.0556 28.5846 60.1183 28.3984 60.2187C28.3442 60.252 28.292 60.2885 28.2422 60.3281C28.1513 60.0055 27.9619 59.7193 27.7005 59.5094C27.4391 59.2996 27.1187 59.1766 26.784 59.1577C26.4493 59.1388 26.1171 59.2248 25.8337 59.4038C25.5503 59.5829 25.3298 59.8459 25.2031 60.1562C25.0259 60.1821 24.8542 60.2376 24.6953 60.3203C24.6411 60.3535 24.5889 60.3901 24.5391 60.4297C24.4677 60.2031 24.347 59.9951 24.1857 59.8207C24.0244 59.6463 23.8265 59.5097 23.6062 59.4208C23.3858 59.332 23.1486 59.293 22.9114 59.3067C22.6742 59.3203 22.443 59.3864 22.2344 59.5C22.0036 59.6271 21.8072 59.8084 21.662 60.0283C21.5169 60.2482 21.4274 60.5 21.4013 60.7622C21.3751 61.0244 21.4131 61.2889 21.512 61.5332C21.6108 61.7774 21.7676 61.9939 21.9688 62.164C21.7693 62.3332 21.6133 62.5478 21.5141 62.7898C21.4148 63.0318 21.3752 63.2941 21.3984 63.5547C21.3955 63.7888 21.4453 64.0206 21.544 64.2329C21.6427 64.4452 21.7879 64.6326 21.9688 64.7812C21.6847 65.0214 21.4911 65.3513 21.4201 65.7164C21.349 66.0815 21.4048 66.4599 21.5781 66.789ZM75.0391 65.1797C75.1254 65.3231 75.2334 65.4522 75.3594 65.5625C75.2098 65.6923 75.0853 65.8486 74.9922 66.0234C74.965 65.9401 74.931 65.8591 74.8906 65.7812L74.8359 65.6953C74.9325 65.5363 75.0012 65.3619 75.0391 65.1797Z" fill="#39BEB9"/>
</g>
<defs>
<filter id="filter0_d" x="0" y="0" width="108" height="108" filterUnits="userSpaceOnUse" color-interpolation-filters="sRGB">
<feFlood flood-opacity="0" result="BackgroundImageFix"/>
<feColorMatrix in="SourceAlpha" type="matrix" values="0 0 0 0 0 0 0 0 0 0 0 0 0 0 0 0 0 0 127 0"/>
<feOffset dy="4"/>
<feGaussianBlur stdDeviation="2"/>
<feColorMatrix type="matrix" values="0 0 0 0 0 0 0 0 0 0 0 0 0 0 0 0 0 0 0.25 0"/>
<feBlend mode="normal" in2="BackgroundImageFix" result="effect1_dropShadow"/>
<feBlend mode="normal" in="SourceGraphic" in2="effect1_dropShadow" result="shape"/>
</filter>
<clipPath id="clip0">
<rect width="100" height="100" fill="white" transform="translate(4)"/>
</clipPath>
</defs>
</svg>
