<svg width="106" height="102" viewBox="0 0 106 102" fill="none" xmlns="http://www.w3.org/2000/svg">
<g filter="url(#filter0_d)">
<path d="M99.9697 38.6363H89.2121V31.0605C89.2121 30.1515 88.6061 29.5454 87.697 29.5454H86.4848C84.3636 24.5454 71.9394 21.6666 58.303 21.0605V16.2121H62.5455C63.4545 16.2121 64.0606 15.606 64.0606 14.6969V7.5757C64.0606 6.66661 63.4545 6.06055 62.5455 6.06055H43.6061C42.697 6.06055 42.0909 6.66661 42.0909 7.5757V14.6969C42.0909 15.606 42.697 16.2121 43.6061 16.2121H47.8485V21.0605C34.2121 21.6666 21.7879 24.5454 19.6667 29.5454H18.4545C17.5455 29.5454 16.9394 30.1515 16.9394 31.0605V38.6363H6.0303C5.12121 38.6363 4.51515 39.2424 4.51515 40.1515V44.0909C4.51515 44.9999 5.12121 45.606 6.0303 45.606C9.51515 45.606 12.3939 48.4848 12.3939 51.9696C12.3939 52.8787 13 53.4848 13.9091 53.4848H16.7879V84.5454C16.7879 89.6969 21.0303 93.9393 26.1818 93.9393H79.8182C84.9697 93.9393 89.2121 89.6969 89.2121 84.5454V53.4848H92.0909C93 53.4848 93.6061 52.8787 93.6061 51.9696C93.6061 48.4848 96.4848 45.606 99.9697 45.606C100.879 45.606 101.485 44.9999 101.485 44.0909V40.1515C101.485 39.2424 100.879 38.6363 99.9697 38.6363ZM19.8182 32.4242H86.0303V38.4848H19.8182V32.4242ZM45.1212 9.09085H61.0303V13.1818C60.7273 13.1818 44.9697 13.1818 45.1212 13.1818V9.09085ZM50.7273 16.2121H55.1212V20.909C53.4545 20.909 52.3939 20.909 50.7273 20.909V16.2121ZM53 23.9393C68.6061 23.9393 79.5152 26.8181 82.697 29.5454H23.303C26.4848 26.8181 37.3939 23.9393 53 23.9393ZM15.2727 50.4545C14.6667 46.5151 11.4848 43.3333 7.54545 42.7272V41.6666H16.7879V50.4545H15.2727ZM58.303 90.909H47.8485V66.8181C47.8485 63.9393 50.1212 61.5151 53.1515 61.5151C56.0303 61.5151 58.4545 63.7878 58.4545 66.8181V90.909H58.303ZM86.1818 84.5454C86.1818 88.0302 83.303 90.909 79.8182 90.909H61.3333V66.8181C61.3333 62.2727 57.5455 58.4848 53 58.4848C48.4545 58.4848 44.6667 62.1212 44.6667 66.8181V90.909H26.1818C22.697 90.909 19.8182 88.0302 19.8182 84.5454C19.8182 75.303 19.8182 57.7272 19.8182 41.6666H86.0303C86.1818 57.8787 86.1818 75.303 86.1818 84.5454ZM98.4545 42.7272C94.5152 43.3333 91.3333 46.5151 90.7273 50.4545H89.2121V41.6666H98.4545V42.7272Z" fill="#39BEB9"/>
<path d="M54.3636 84.5454H51.4848C50.5758 84.5454 49.9697 85.1515 49.9697 86.0606C49.9697 86.9697 50.5758 87.5757 51.4848 87.5757H54.3636C55.2727 87.5757 55.8788 86.9697 55.8788 86.0606C55.8788 85.1515 55.2727 84.5454 54.3636 84.5454Z" fill="#39BEB9"/>
<path d="M54.3636 79.2424H51.4848C50.5758 79.2424 49.9697 79.8485 49.9697 80.7576C49.9697 81.6667 50.5758 82.2727 51.4848 82.2727H54.3636C55.2727 82.2727 55.8788 81.6667 55.8788 80.7576C55.8788 79.8485 55.2727 79.2424 54.3636 79.2424Z" fill="#39BEB9"/>
<path d="M53 72.7273C53.9091 72.7273 54.5152 72.1212 54.5152 71.2121V66.5152C54.5152 65.6061 53.9091 65 53 65C52.0909 65 51.4849 65.6061 51.4849 66.5152V71.2121C51.4849 72.1212 52.0909 72.7273 53 72.7273Z" fill="#39BEB9"/>
</g>
<defs>
<filter id="filter0_d" x="-1" y="0" width="108" height="108" filterUnits="userSpaceOnUse" color-interpolation-filters="sRGB">
<feFlood flood-opacity="0" result="BackgroundImageFix"/>
<feColorMatrix in="SourceAlpha" type="matrix" values="0 0 0 0 0 0 0 0 0 0 0 0 0 0 0 0 0 0 127 0"/>
<feOffset dy="4"/>
<feGaussianBlur stdDeviation="2"/>
<feColorMatrix type="matrix" values="0 0 0 0 0 0 0 0 0 0 0 0 0 0 0 0 0 0 0.25 0"/>
<feBlend mode="normal" in2="BackgroundImageFix" result="effect1_dropShadow"/>
<feBlend mode="normal" in="SourceGraphic" in2="effect1_dropShadow" result="shape"/>
</filter>
</defs>
</svg>
