<svg width="100" height="100" viewBox="0 0 100 100" fill="none" xmlns="http://www.w3.org/2000/svg">
<g filter="url(#filter0_d)">
<path d="M38.3 83.4001H61.8C62.8 83.4001 63.7 82.6001 63.7 81.5001C63.7 80.5001 62.9 79.6001 61.8 79.6001H38.3C37.3 79.6001 36.4 80.4001 36.4 81.5001C36.4 82.6001 37.2 83.4001 38.3 83.4001Z" fill="#39BEB9"/>
<path d="M38.3 74.1999H61.8C62.8 74.1999 63.7 73.3999 63.7 72.2999C63.7 71.2999 62.9 70.3999 61.8 70.3999H38.3C37.3 70.3999 36.4 71.1999 36.4 72.2999C36.4 73.2999 37.2 74.1999 38.3 74.1999Z" fill="#39BEB9"/>
<path d="M38.3 64.9001H61.8C62.8 64.9001 63.7 64.1001 63.7 63.0001C63.7 61.9001 62.9 61.1001 61.8 61.1001H38.3C37.3 61.1001 36.4 61.9001 36.4 63.0001C36.4 64.1001 37.2 64.9001 38.3 64.9001Z" fill="#39BEB9"/>
<path d="M82.4 22.5V15.8C82.4 14.8 81.6 13.9 80.5 13.9H72.3C72.1 10.9 69.6 8.5 66.5 8.5H33.4C30.3 8.5 27.8 10.9 27.6 13.9H19.4C18.4 13.9 17.5 14.7 17.5 15.8V22.5C13.2 23.1 9.8 26.8 9.8 31.3V53.9C9.8 58.8 13.8 62.7 18.6 62.7H23.6C23.7 62.7 23.9 62.7 24 62.7C24.9 62.5 25.5 61.8 25.5 60.9V54.3H27.5V85.9C27.5 89.1 30.1 91.7 33.3 91.7H66.5C69.7 91.7 72.3 89.1 72.3 85.9V54.2H74.3V60.8C74.3 61.8 75.1 62.7 76.2 62.7C76.3 62.7 76.5 62.7 76.6 62.7C76.7 62.7 76.9 62.7 77 62.7H81.2C86.1 62.7 90 58.7 90 53.9V31.2C90.1 26.7 86.7 23 82.4 22.5ZM78.7 22.4H72.4V17.6H78.7V22.4ZM31.4 14.2C31.4 13.1 32.3 12.2 33.4 12.2H66.6C67.7 12.2 68.6 13.1 68.6 14.2V22.4H31.4V14.2ZM21.3 17.6H27.6V22.4H21.3V17.6ZM68.6 85.8C68.6 86.9 67.7 87.8 66.6 87.8H33.4C32.3 87.8 31.4 86.9 31.4 85.8V54.2H68.6V85.8ZM86.4 53.8C86.4 56.6 84.1 58.9 81.3 58.9H78.1V52.3C78.1 51.3 77.3 50.4 76.2 50.4H72.3H27.6H23.7C22.7 50.4 21.8 51.2 21.8 52.3V58.9H18.6C15.8 58.9 13.5 56.6 13.5 53.8V31.2C13.5 28.4 15.8 26.1 18.6 26.1H19.3H80.4H81.1C83.9 26.1 86.2 28.4 86.2 31.2V53.8H86.4Z" fill="#39BEB9"/>
<path d="M69.2 33.7001C70.4702 33.7001 71.5 32.6704 71.5 31.4001C71.5 30.1298 70.4702 29.1001 69.2 29.1001C67.9297 29.1001 66.9 30.1298 66.9 31.4001C66.9 32.6704 67.9297 33.7001 69.2 33.7001Z" fill="#39BEB9"/>
<path d="M80.8 29.6001H75.1C74.1 29.6001 73.2 30.4001 73.2 31.5001C73.2 32.6001 74 33.4001 75.1 33.4001H80.8C81.8 33.4001 82.7 32.6001 82.7 31.5001C82.7 30.4001 81.8 29.6001 80.8 29.6001Z" fill="#39BEB9"/>
</g>
<defs>
<filter id="filter0_d" x="-4" y="0" width="108" height="108" filterUnits="userSpaceOnUse" color-interpolation-filters="sRGB">
<feFlood flood-opacity="0" result="BackgroundImageFix"/>
<feColorMatrix in="SourceAlpha" type="matrix" values="0 0 0 0 0 0 0 0 0 0 0 0 0 0 0 0 0 0 127 0"/>
<feOffset dy="4"/>
<feGaussianBlur stdDeviation="2"/>
<feColorMatrix type="matrix" values="0 0 0 0 0 0 0 0 0 0 0 0 0 0 0 0 0 0 0.25 0"/>
<feBlend mode="normal" in2="BackgroundImageFix" result="effect1_dropShadow"/>
<feBlend mode="normal" in="SourceGraphic" in2="effect1_dropShadow" result="shape"/>
</filter>
</defs>
</svg>
