<svg width="100" height="100" viewBox="0 0 100 100" fill="none" xmlns="http://www.w3.org/2000/svg">
<g clip-path="url(#clip0)">
<g filter="url(#filter0_d)">
<path d="M87.9687 31.25H42.1875C38.9063 27.8125 34.375 25.7812 29.6875 25.7812C25 25.7812 20.4687 27.8125 17.1875 31.25H12.0312C7.1875 31.25 3.125 35.3125 3.125 40.1563V58.2812C3.125 63.125 7.1875 67.1875 12.0312 67.1875H15.625V70.3125C15.625 72.5 17.3438 74.2188 19.5312 74.2188H22.6562C24.8437 74.2188 26.5625 72.5 26.5625 70.3125V67.1875H73.4375V70.3125C73.4375 72.5 75.1563 74.2188 77.3438 74.2188H80.4688C82.6562 74.2188 84.375 72.5 84.375 70.3125V67.1875H87.9687C92.8125 67.1875 96.875 63.125 96.875 58.2812V40.1563C96.875 35.3125 92.8125 31.25 87.9687 31.25ZM40.3125 33.75C42.5 36.25 43.75 39.5312 43.75 42.9688C43.75 50.7812 37.5 57.0312 29.6875 57.0312C21.875 57.0312 15.625 50.7812 15.625 42.9688C15.625 42.5 15.625 42.1875 15.625 41.7188C15.9375 38.75 17.0313 36.0938 18.9063 33.75C21.5625 30.625 25.4687 28.9062 29.5312 28.9062C33.75 28.9062 37.6562 30.625 40.3125 33.75ZM23.4375 70.3125C23.4375 70.7813 23.125 71.0938 22.6562 71.0938H19.5312C19.0625 71.0938 18.75 70.7813 18.75 70.3125V67.1875H23.4375V70.3125ZM81.25 70.3125C81.25 70.7813 80.9375 71.0938 80.4688 71.0938H77.3438C76.875 71.0938 76.5625 70.7813 76.5625 70.3125V67.1875H81.25V70.3125ZM93.75 58.2812C93.75 61.4062 91.0937 64.0625 87.9687 64.0625H84.375H73.4375H26.5625H15.625H12.0312C8.90625 64.0625 6.25 61.4062 6.25 58.2812V40.1563C6.25 37.0313 8.90625 34.375 12.0312 34.375H14.8438V34.5313C14.5312 35 14.2188 35.625 14.0625 36.0938C14.0625 36.25 13.9062 36.4062 13.9062 36.5625C13.5937 37.1875 13.4375 37.8125 13.2812 38.4375C13.2812 38.4375 13.2812 38.4375 13.2812 38.5938C13.125 39.2188 12.9688 39.8437 12.9688 40.4687C12.9688 40.625 12.9688 40.7813 12.9688 40.9375C12.5 41.5625 12.5 42.3437 12.5 42.9688C12.5 52.5 20.1563 60.1562 29.6875 60.1562C39.2187 60.1562 46.875 52.5 46.875 42.9688C46.875 42.3437 46.875 41.5625 46.7187 40.9375C46.7187 40.7813 46.7187 40.625 46.7187 40.4687C46.5625 39.8437 46.5625 39.2188 46.4063 38.5938V38.4375C46.25 37.8125 45.9375 37.1875 45.7812 36.5625C45.7812 36.4062 45.625 36.25 45.625 36.0938C45.3125 35.625 45.1563 35 44.8438 34.5313C44.8438 34.5313 44.8438 34.375 44.6875 34.375H88.125C91.25 34.375 93.9062 37.0313 93.9062 40.1563V58.2812H93.75Z" fill="#39BEB9"/>
<path d="M29.6875 52.3438C34.8437 52.3438 39.0625 48.125 39.0625 42.9688C39.0625 40.7813 38.2813 38.5938 36.875 36.875C35.1563 34.8438 32.5 33.5938 29.6875 33.5938C26.875 33.5938 24.375 34.8438 22.5 36.875C21.0937 38.5938 20.3125 40.7813 20.3125 42.9688C20.3125 48.125 24.5313 52.3438 29.6875 52.3438ZM25 38.9062C26.25 37.5 27.9687 36.7188 29.6875 36.7188C31.4063 36.7188 33.2813 37.5 34.375 38.9062C35.3125 40 35.9375 41.5625 35.9375 42.9688C35.9375 46.4063 33.125 49.2188 29.6875 49.2188C26.25 49.2188 23.4375 46.4063 23.4375 42.9688C23.4375 41.5625 23.9063 40 25 38.9062Z" fill="#39BEB9"/>
<path d="M87.5 39.8438H64.0625C63.125 39.8438 62.5 40.4687 62.5 41.4062C62.5 42.3438 63.125 42.9688 64.0625 42.9688H87.5C88.4375 42.9688 89.0625 42.3438 89.0625 41.4062C89.0625 40.4687 88.4375 39.8438 87.5 39.8438Z" fill="#39BEB9"/>
<path d="M87.5 47.6562H64.0625C63.125 47.6562 62.5 48.2812 62.5 49.2188C62.5 50.1563 63.125 50.7812 64.0625 50.7812H87.5C88.4375 50.7812 89.0625 50.1563 89.0625 49.2188C89.0625 48.2812 88.4375 47.6562 87.5 47.6562Z" fill="#39BEB9"/>
<path d="M87.5 55.4688H64.0625C63.125 55.4688 62.5 56.0937 62.5 57.0312C62.5 57.9688 63.125 58.5938 64.0625 58.5938H87.5C88.4375 58.5938 89.0625 57.9688 89.0625 57.0312C89.0625 56.0937 88.4375 55.4688 87.5 55.4688Z" fill="#39BEB9"/>
<path d="M55.4688 39.8438C53.2813 39.8438 51.5625 41.5625 51.5625 43.75V54.6875C51.5625 56.875 53.2813 58.5938 55.4688 58.5938C57.6562 58.5938 59.375 56.875 59.375 54.6875V43.75C59.375 41.5625 57.6562 39.8438 55.4688 39.8438ZM56.25 54.6875C56.25 55.1563 55.9375 55.4688 55.4688 55.4688C55 55.4688 54.6875 55.1563 54.6875 54.6875V43.75C54.6875 43.2812 55 42.9688 55.4688 42.9688C55.9375 42.9688 56.25 43.2812 56.25 43.75V54.6875Z" fill="#39BEB9"/>
</g>
</g>
<defs>
<filter id="filter0_d" x="-0.875" y="25.7812" width="101.75" height="56.4375" filterUnits="userSpaceOnUse" color-interpolation-filters="sRGB">
<feFlood flood-opacity="0" result="BackgroundImageFix"/>
<feColorMatrix in="SourceAlpha" type="matrix" values="0 0 0 0 0 0 0 0 0 0 0 0 0 0 0 0 0 0 127 0"/>
<feOffset dy="4"/>
<feGaussianBlur stdDeviation="2"/>
<feColorMatrix type="matrix" values="0 0 0 0 0 0 0 0 0 0 0 0 0 0 0 0 0 0 0.25 0"/>
<feBlend mode="normal" in2="BackgroundImageFix" result="effect1_dropShadow"/>
<feBlend mode="normal" in="SourceGraphic" in2="effect1_dropShadow" result="shape"/>
</filter>
<clipPath id="clip0">
<rect width="100" height="100" fill="white"/>
</clipPath>
</defs>
</svg>
