<svg height='100px' width='100px'  fill="#000000" xmlns:x="http://ns.adobe.com/Extensibility/1.0/" xmlns:i="http://ns.adobe.com/AdobeIllustrator/10.0/" xmlns:graph="http://ns.adobe.com/Graphs/1.0/" xmlns="http://www.w3.org/2000/svg" xmlns:xlink="http://www.w3.org/1999/xlink" version="1.1" x="0px" y="0px" viewBox="0 0 100 100" style="enable-background:new 0 0 100 100;" xml:space="preserve"><g><g i:extraneous="self"><g><g><path d="M41.6,17.7c-10.6,0-14.5,7.8-14.5,13v0.8c0,1,0.8,1.7,1.7,1.7h4.6c1,0,1.7-0.8,1.7-1.7v-0.8c0-0.2,0.1-4.9,6.4-4.9      c4.1,0,5.8,1.5,5.8,5c0,2.3-2.7,4.8-5.3,6.9c-3.6,2.9-5.4,6.1-5.4,9.6v1.8c0,1,0.8,1.7,1.7,1.7h4.6c1,0,1.7-0.8,1.7-1.7v-1.8      c0-0.4,0-1.4,2.4-3.4c3.1-2.5,8.3-6.8,8.3-13.1C55.5,24.5,51.8,17.7,41.6,17.7z"></path></g><g><circle cx="40.9" cy="59.7" r="5.1"></circle></g><g><path d="M96.7,89.1L72.2,64.6C77.1,58.1,80,50,80,41.3C80,19.9,62.6,2.5,41.3,2.5S2.5,19.9,2.5,41.3S19.9,80,41.3,80      c8.8,0,16.9-2.9,23.4-7.9l24.5,24.5c1.1,1.1,2.9,1.1,4,0l3.6-3.6C97.8,92,97.8,90.2,96.7,89.1z M9.4,41.3      c0-17.5,14.3-31.8,31.8-31.8s31.8,14.3,31.8,31.8S58.8,73.1,41.3,73.1S9.4,58.8,9.4,41.3z"></path></g></g></g></g></svg>