<svg width="100" height="101" viewBox="0 0 100 101" fill="none" xmlns="http://www.w3.org/2000/svg">
<g filter="url(#filter0_d)">
<path d="M55.957 7.19287L26.4709 36.6734H14.9231C9.75637 36.6734 5.5481 40.8819 5.5481 46.0484V83.4325C5.5481 88.599 9.75637 92.8075 14.9231 92.8075H85.0769C90.2436 92.8075 94.4519 88.599 94.4519 83.4325V46.0484C94.4519 40.8819 90.2436 36.6734 85.0769 36.6734H30.8899L58.1665 9.40234L55.957 7.19287ZM14.9231 39.7984H85.0769C88.5664 39.7984 91.3269 42.5587 91.3269 46.0484V83.4325C91.3269 86.9221 88.5664 89.6825 85.0769 89.6825H14.9231C11.4336 89.6825 8.6731 86.9221 8.6731 83.4325V46.0484C8.6731 42.5587 11.4336 39.7984 14.9231 39.7984ZM69.1956 46.7137C59.1052 46.7137 50.891 54.9271 50.8911 65.0178C50.8912 75.1078 59.1053 83.3222 69.1956 83.3222C79.2858 83.3222 87.4999 75.1078 87.5 65.0178C87.5001 54.9271 79.2859 46.7137 69.1956 46.7137ZM17.5781 47.8856C16.0086 47.8856 14.8787 49.0227 14.2212 50.2721C13.5636 51.5211 13.2263 53.063 13.2263 54.752C13.2263 56.4411 13.5636 57.9826 14.2212 59.232C14.8787 60.4814 16.0086 61.6181 17.5781 61.6181H43.8049C45.3745 61.6181 46.5043 60.4814 47.1619 59.232C47.8194 57.9826 48.1567 56.4411 48.1567 54.752C48.1567 53.063 47.8194 51.5214 47.1619 50.2721C46.5043 49.0227 45.3745 47.8856 43.8049 47.8856H17.5781ZM69.1956 49.8387C77.597 49.8387 84.3751 56.6159 84.375 65.0178C84.3749 73.419 77.5969 80.1972 69.1956 80.1972C60.7942 80.1972 54.0162 73.419 54.0161 65.0178C54.016 56.6162 60.7941 49.8387 69.1956 49.8387ZM17.5781 51.0106H43.8049C43.7812 51.0106 44.0459 51.0635 44.397 51.7304C44.7481 52.3979 45.0317 53.5042 45.0317 54.7517C45.0317 55.9995 44.7481 57.1057 44.397 57.7729C44.0459 58.4401 43.7812 58.4931 43.8049 58.4931H17.5781C17.6019 58.4931 17.3372 58.4398 16.9861 57.7729C16.635 57.1057 16.3513 55.9995 16.3513 54.7517C16.3513 53.5038 16.635 52.3976 16.9861 51.7304C17.3372 51.0632 17.6019 51.0106 17.5781 51.0106ZM17.5781 66.3056C16.0086 66.3056 14.8787 67.437 14.2212 68.6864C13.5636 69.9357 13.2263 71.4769 13.2263 73.166C13.2263 74.855 13.5637 76.3966 14.2212 77.6459C14.8787 78.8953 16.0086 80.0328 17.5781 80.0328H43.8049C45.3745 80.0328 46.5043 78.8953 47.1619 77.6459C47.8194 76.3966 48.1567 74.855 48.1567 73.166C48.1567 71.4769 47.8194 69.9357 47.1619 68.6864C46.5043 67.437 45.3745 66.3056 43.8049 66.3056H17.5781ZM17.5781 69.4306H43.8049C43.7812 69.4306 44.0459 69.4775 44.397 70.1447C44.7481 70.8116 45.0317 71.9182 45.0317 73.166C45.0317 74.4138 44.7481 75.5265 44.397 76.1937C44.0459 76.8609 43.7812 76.9078 43.8049 76.9078H17.5781C17.6019 76.9078 17.3372 76.8609 16.9861 76.1937C16.635 75.5265 16.3513 74.4138 16.3513 73.166C16.3513 71.9178 16.635 70.8113 16.9861 70.1447C17.3372 69.4775 17.6019 69.4306 17.5781 69.4306Z" fill="#39BEB9"/>
</g>
<defs>
<filter id="filter0_d" x="-4" y="0" width="108" height="108" filterUnits="userSpaceOnUse" color-interpolation-filters="sRGB">
<feFlood flood-opacity="0" result="BackgroundImageFix"/>
<feColorMatrix in="SourceAlpha" type="matrix" values="0 0 0 0 0 0 0 0 0 0 0 0 0 0 0 0 0 0 127 0"/>
<feOffset dy="4"/>
<feGaussianBlur stdDeviation="2"/>
<feColorMatrix type="matrix" values="0 0 0 0 0 0 0 0 0 0 0 0 0 0 0 0 0 0 0.25 0"/>
<feBlend mode="normal" in2="BackgroundImageFix" result="effect1_dropShadow"/>
<feBlend mode="normal" in="SourceGraphic" in2="effect1_dropShadow" result="shape"/>
</filter>
</defs>
</svg>
