<svg width="108" height="108" viewBox="0 0 108 108" fill="none" xmlns="http://www.w3.org/2000/svg">
<g filter="url(#filter0_d)">
<path d="M95.3477 0.390625H12.6523C8.10156 0.390625 4.39062 4.10156 4.39062 8.65234V91.3281C4.39062 95.8984 8.10156 99.6094 12.6523 99.6094H95.3281C99.8789 99.6094 103.59 95.8984 103.59 91.3477V8.65234C103.609 4.10156 99.8984 0.390625 95.3477 0.390625ZM98.1016 91.3477C98.1016 92.8711 96.8711 94.1016 95.3477 94.1016H12.6523C11.1289 94.1016 9.89844 92.8711 9.89844 91.3477V80.4883H98.1016V91.3477ZM98.1016 74.9805H9.89844V8.65234C9.89844 7.12891 11.1289 5.89844 12.6523 5.89844H95.3281C96.8516 5.89844 98.082 7.12891 98.082 8.65234V74.9805H98.1016Z" fill="#39BEB9"/>
<path d="M33.4727 11.6797C26.207 11.6797 20.3086 17.5781 20.3086 24.8437C20.3086 32.1094 26.207 38.0078 33.4727 38.0078C40.7383 38.0078 46.6367 32.1094 46.6367 24.8437C46.6367 17.5781 40.7383 11.6797 33.4727 11.6797ZM33.4727 32.5C29.2539 32.5 25.8164 29.0625 25.8164 24.8437C25.8164 20.625 29.2539 17.1875 33.4727 17.1875C37.6914 17.1875 41.1289 20.625 41.1289 24.8437C41.1289 29.0625 37.6914 32.5 33.4727 32.5Z" fill="#39BEB9"/>
<path d="M74.5273 11.6797C67.2617 11.6797 61.3633 17.5781 61.3633 24.8437C61.3633 32.1094 67.2617 38.0078 74.5273 38.0078C81.793 38.0078 87.6914 32.1094 87.6914 24.8437C87.6914 17.5781 81.793 11.6797 74.5273 11.6797ZM74.5273 32.5C70.3086 32.5 66.8711 29.0625 66.8711 24.8437C66.8711 20.625 70.3086 17.1875 74.5273 17.1875C78.7461 17.1875 82.1836 20.625 82.1836 24.8437C82.1836 29.0625 78.7461 32.5 74.5273 32.5Z" fill="#39BEB9"/>
<path d="M33.4727 43.3398C26.207 43.3398 20.3086 49.2383 20.3086 56.5039C20.3086 63.7695 26.207 69.668 33.4727 69.668C40.7383 69.668 46.6367 63.7695 46.6367 56.5039C46.6367 49.2383 40.7383 43.3398 33.4727 43.3398ZM33.4727 64.1602C29.2539 64.1602 25.8164 60.7227 25.8164 56.5039C25.8164 52.2852 29.2539 48.8477 33.4727 48.8477C37.6914 48.8477 41.1289 52.2852 41.1289 56.5039C41.1289 60.7227 37.6914 64.1602 33.4727 64.1602Z" fill="#39BEB9"/>
<path d="M74.5273 43.3398C67.2617 43.3398 61.3633 49.2383 61.3633 56.5039C61.3633 63.7695 67.2617 69.668 74.5273 69.668C81.793 69.668 87.6914 63.7695 87.6914 56.5039C87.6914 49.2383 81.793 43.3398 74.5273 43.3398ZM74.5273 64.1602C70.3086 64.1602 66.8711 60.7227 66.8711 56.5039C66.8711 52.2852 70.3086 48.8477 74.5273 48.8477C78.7461 48.8477 82.1836 52.2852 82.1836 56.5039C82.1836 60.7227 78.7461 64.1602 74.5273 64.1602Z" fill="#39BEB9"/>
<path d="M21.793 90.3125H25.3086C26.832 90.3125 28.0625 89.082 28.0625 87.5586C28.0625 86.0352 26.832 84.8047 25.3086 84.8047H21.793C20.2695 84.8047 19.0391 86.0352 19.0391 87.5586C19.0391 89.082 20.2695 90.3125 21.793 90.3125Z" fill="#39BEB9"/>
<path d="M42.0859 90.3125H45.6016C47.125 90.3125 48.3555 89.082 48.3555 87.5586C48.3555 86.0352 47.125 84.8047 45.6016 84.8047H42.0859C40.5625 84.8047 39.332 86.0352 39.332 87.5586C39.332 89.082 40.5625 90.3125 42.0859 90.3125Z" fill="#39BEB9"/>
<path d="M62.3984 90.3125H65.9141C67.4375 90.3125 68.668 89.082 68.668 87.5586C68.668 86.0352 67.4375 84.8047 65.9141 84.8047H62.3984C60.875 84.8047 59.6445 86.0352 59.6445 87.5586C59.6445 89.082 60.875 90.3125 62.3984 90.3125Z" fill="#39BEB9"/>
<path d="M82.6914 90.3125H86.207C87.7305 90.3125 88.9609 89.082 88.9609 87.5586C88.9609 86.0352 87.7305 84.8047 86.207 84.8047H82.6914C81.168 84.8047 79.9375 86.0352 79.9375 87.5586C79.9375 89.082 81.168 90.3125 82.6914 90.3125Z" fill="#39BEB9"/>
</g>
<defs>
<filter id="filter0_d" x="0" y="0" width="108" height="108" filterUnits="userSpaceOnUse" color-interpolation-filters="sRGB">
<feFlood flood-opacity="0" result="BackgroundImageFix"/>
<feColorMatrix in="SourceAlpha" type="matrix" values="0 0 0 0 0 0 0 0 0 0 0 0 0 0 0 0 0 0 127 0"/>
<feOffset dy="4"/>
<feGaussianBlur stdDeviation="2"/>
<feColorMatrix type="matrix" values="0 0 0 0 0 0 0 0 0 0 0 0 0 0 0 0 0 0 0.25 0"/>
<feBlend mode="normal" in2="BackgroundImageFix" result="effect1_dropShadow"/>
<feBlend mode="normal" in="SourceGraphic" in2="effect1_dropShadow" result="shape"/>
</filter>
</defs>
</svg>
