<svg width="100" height="100" viewBox="0 0 100 100" fill="none" xmlns="http://www.w3.org/2000/svg">
<g filter="url(#filter0_d)">
<path d="M51.529 50.0019C51.529 50.8439 50.844 51.5289 49.999 51.5289C49.155 51.5289 48.471 50.8439 48.471 50.0019C48.471 49.1539 49.156 48.4709 49.999 48.4709C50.844 48.4709 51.529 49.1549 51.529 50.0019Z" fill="#39BEB9"/>
<path d="M50.001 21.4019C34.205 21.4019 21.401 34.2059 21.401 49.9989C21.401 65.7929 34.205 78.5979 50.001 78.5979C65.794 78.5979 78.597 65.7929 78.597 49.9989C78.598 34.2059 65.795 21.4019 50.001 21.4019ZM50.001 61.2829C43.768 61.2829 38.716 56.2299 38.716 49.9999C38.716 43.7669 43.768 38.7159 50.001 38.7159C56.232 38.7159 61.283 43.7669 61.283 49.9999C61.283 56.2299 56.232 61.2829 50.001 61.2829Z" fill="#39BEB9"/>
<path d="M17.1699 27.976C17.1699 28.428 16.9189 28.795 16.6069 28.795H11.4329C11.1209 28.795 10.8699 28.428 10.8699 27.976C10.8699 27.524 11.1209 27.158 11.4329 27.158H16.6069C16.9189 27.158 17.1699 27.523 17.1699 27.976Z" fill="#39BEB9"/>
<path d="M16.607 36.8229C14.103 36.8229 16.131 36.8999 11.433 36.8229C10.051 36.7999 10.87 27.9749 10.87 27.9749H17.17C17.17 27.9759 17.99 36.8229 16.607 36.8229Z" fill="#39BEB9"/>
<path d="M17.17 36.005C17.17 36.457 16.919 36.823 16.607 36.823H11.433C11.121 36.823 10.869 36.457 10.869 36.005C10.869 35.552 11.121 35.187 11.433 35.187H16.607C16.919 35.187 17.17 35.553 17.17 36.005Z" fill="#39BEB9"/>
<path d="M14.684 34.718H13.357V42.877H14.684V34.718Z" fill="#39BEB9"/>
<path d="M14.07 45.1468C15.4258 45.1468 16.525 44.0477 16.525 42.6918C16.525 41.336 15.4258 40.2368 14.07 40.2368C12.7141 40.2368 11.615 41.336 11.615 42.6918C11.615 44.0477 12.7141 45.1468 14.07 45.1468Z" fill="#39BEB9"/>
<path d="M13.333 52.6399C13.333 53.2039 13.606 53.6609 13.941 53.6609C14.277 53.6609 14.806 52.4209 14.806 52.4209C14.806 52.4209 14.277 51.6169 13.941 51.6169C13.606 51.6169 13.333 52.0749 13.333 52.6399Z" fill="#39BEB9"/>
<path d="M14.786 44.481H13.354V52.639H14.786V44.481Z" fill="#39BEB9"/>
<path d="M19.367 69.7299L20.728 69.3139L14.694 52.4209L13.375 53.0019L19.367 69.7299Z" fill="#39BEB9"/>
<path d="M14.955 71.9269C14.951 71.9139 15.077 71.8469 15.238 71.7789L17.924 70.6259C18.086 70.5559 18.221 70.5109 18.227 70.5229C18.234 70.5369 18.106 70.6039 17.944 70.6729L15.259 71.8249C15.096 71.8949 14.961 71.9389 14.955 71.9269Z" fill="#39BEB9"/>
<path d="M15.137 71.545C16.437 70.985 15.384 71.436 17.823 70.392C18.54 70.083 18.226 70.523 18.226 70.523L14.955 71.927C14.955 71.927 14.42 71.852 15.137 71.545Z" fill="#39BEB9"/>
<path d="M14.855 71.693C14.849 71.679 14.975 71.613 15.137 71.545L17.823 70.392C17.985 70.323 18.119 70.277 18.126 70.289C18.132 70.301 18.005 70.368 17.844 70.437L15.158 71.591C14.996 71.661 14.861 71.707 14.855 71.693Z" fill="#39BEB9"/>
<path d="M23.041 67.665C23.195 68.091 23.084 68.522 22.791 68.628L17.93 70.398C17.637 70.505 17.275 70.248 17.12 69.824C16.966 69.399 17.077 68.968 17.369 68.862L22.23 67.091C22.524 66.982 22.886 67.242 23.041 67.665Z" fill="#39BEB9"/>
<path d="M25.54 76.173C23.187 77.027 25.119 76.407 20.678 77.943C19.371 78.396 17.121 69.824 17.121 69.824L23.041 67.666C23.041 67.665 26.837 75.698 25.54 76.173Z" fill="#39BEB9"/>
<path d="M25.789 75.2099C25.945 75.6359 25.832 76.0649 25.54 76.1729L20.678 77.9429C20.385 78.0489 20.023 77.7929 19.868 77.3679C19.713 76.9439 19.826 76.5129 20.118 76.4069L24.98 74.6339C25.272 74.5269 25.633 74.7829 25.789 75.2099Z" fill="#39BEB9"/>
<path d="M84.729 11.0449H15.272C9.21499 11.0449 4.30499 16.1649 4.30499 22.4819V77.5189C4.30499 83.8339 9.21499 88.9559 15.272 88.9559H84.729C90.786 88.9559 95.696 83.8349 95.696 77.5189V22.4809C95.695 16.1649 90.785 11.0449 84.729 11.0449ZM93.143 75.9809C93.143 81.9429 88.507 86.7779 82.789 86.7779H17.213C11.494 86.7779 6.85799 81.9429 6.85799 75.9809V24.0199C6.85799 18.0559 11.494 13.2219 17.213 13.2219H82.788C88.507 13.2219 93.142 18.0559 93.142 24.0199V75.9809H93.143Z" fill="#39BEB9"/>
<path d="M86.5 73.4648C88.2949 73.4648 89.75 72.0098 89.75 70.2148C89.75 68.4199 88.2949 66.9648 86.5 66.9648C84.7051 66.9648 83.25 68.4199 83.25 70.2148C83.25 72.0098 84.7051 73.4648 86.5 73.4648Z" fill="#39BEB9"/>
<path d="M86.5 81.6638C88.2949 81.6638 89.75 80.2087 89.75 78.4138C89.75 76.6189 88.2949 75.1638 86.5 75.1638C84.7051 75.1638 83.25 76.6189 83.25 78.4138C83.25 80.2087 84.7051 81.6638 86.5 81.6638Z" fill="#39BEB9"/>
</g>
<defs>
<filter id="filter0_d" x="-4" y="0" width="108" height="108" filterUnits="userSpaceOnUse" color-interpolation-filters="sRGB">
<feFlood flood-opacity="0" result="BackgroundImageFix"/>
<feColorMatrix in="SourceAlpha" type="matrix" values="0 0 0 0 0 0 0 0 0 0 0 0 0 0 0 0 0 0 127 0"/>
<feOffset dy="4"/>
<feGaussianBlur stdDeviation="2"/>
<feColorMatrix type="matrix" values="0 0 0 0 0 0 0 0 0 0 0 0 0 0 0 0 0 0 0.25 0"/>
<feBlend mode="normal" in2="BackgroundImageFix" result="effect1_dropShadow"/>
<feBlend mode="normal" in="SourceGraphic" in2="effect1_dropShadow" result="shape"/>
</filter>
</defs>
</svg>
