<svg width="100" height="100" viewBox="0 0 100 100" fill="none" xmlns="http://www.w3.org/2000/svg">
<g filter="url(#filter0_d)">
<path d="M74.165 54.1055V38.2549C74.165 31.0869 68.3335 25.2549 61.165 25.2549H37.1074C29.939 25.2549 24.1074 31.0869 24.1074 38.2549V54.1055C24.1074 65.7988 33.6211 75.3125 45.3145 75.3125H52.958C64.6514 75.3125 74.165 65.7988 74.165 54.1055ZM37.1074 27.2549H61.165C67.2305 27.2549 72.165 32.1895 72.165 38.2549V40.7324H26.1074V38.2549C26.1074 32.1895 31.042 27.2549 37.1074 27.2549ZM52.958 73.3125H45.3145C34.7236 73.3125 26.1074 64.6963 26.1074 54.1055V42.7324H72.165V54.1055C72.165 64.6963 63.5488 73.3125 52.958 73.3125Z" fill="#39BEB9"/>
<path d="M54.6899 49.0859H52.0645C50.9961 49.0859 50.127 49.9551 50.127 51.0234V53.6484C50.127 54.7168 50.9961 55.5859 52.0645 55.5859H54.6899C55.7578 55.5859 56.627 54.7168 56.627 53.6484V51.0234C56.627 49.9551 55.7578 49.0859 54.6899 49.0859ZM54.627 53.5879L52.127 53.6484L52.0645 51.0859L54.627 51.0234V53.5879Z" fill="#39BEB9"/>
<path d="M45.3354 48.3408C44.9565 48.001 44.3813 48.001 44.0024 48.3408C43.396 48.8828 41.4189 50.7725 41.4189 52.3359C41.4189 54.1279 42.877 55.5859 44.6689 55.5859C46.4609 55.5859 47.9189 54.1279 47.9189 52.3359C47.9189 50.7725 45.9419 48.8828 45.3354 48.3408ZM44.6689 53.5859C43.9795 53.5859 43.4189 53.0254 43.4189 52.3359C43.4189 52.0264 43.9683 51.2363 44.6689 50.4863C45.3696 51.2363 45.9189 52.0264 45.9189 52.3359C45.9189 53.0254 45.3584 53.5859 44.6689 53.5859Z" fill="#39BEB9"/>
<path d="M54.6899 57.4189H52.0645C50.9961 57.4189 50.127 58.2881 50.127 59.3564V61.9824C50.127 63.0498 50.9961 63.9189 52.0645 63.9189H54.6899C55.7578 63.9189 56.627 63.0498 56.627 61.9824V59.3564C56.627 58.2881 55.7578 57.4189 54.6899 57.4189ZM54.627 61.9209L52.127 61.9824L52.0645 59.4189L54.627 59.3564V61.9209Z" fill="#39BEB9"/>
<path d="M45.9814 57.4189H43.356C42.2881 57.4189 41.4189 58.2881 41.4189 59.3564V61.9824C41.4189 63.0498 42.2881 63.9189 43.356 63.9189H45.9814C47.0498 63.9189 47.9189 63.0498 47.9189 61.9824V59.3564C47.9189 58.2881 47.0498 57.4189 45.9814 57.4189ZM45.9189 61.9209L43.4189 61.9824L43.356 59.4189L45.9189 59.3564V61.9209Z" fill="#39BEB9"/>
</g>
<defs>
<filter id="filter0_d" x="-4" y="0" width="108" height="108" filterUnits="userSpaceOnUse" color-interpolation-filters="sRGB">
<feFlood flood-opacity="0" result="BackgroundImageFix"/>
<feColorMatrix in="SourceAlpha" type="matrix" values="0 0 0 0 0 0 0 0 0 0 0 0 0 0 0 0 0 0 127 0"/>
<feOffset dy="4"/>
<feGaussianBlur stdDeviation="2"/>
<feColorMatrix type="matrix" values="0 0 0 0 0 0 0 0 0 0 0 0 0 0 0 0 0 0 0.25 0"/>
<feBlend mode="normal" in2="BackgroundImageFix" result="effect1_dropShadow"/>
<feBlend mode="normal" in="SourceGraphic" in2="effect1_dropShadow" result="shape"/>
</filter>
</defs>
</svg>
