<svg width="106" height="107" viewBox="0 0 106 107" fill="none" xmlns="http://www.w3.org/2000/svg">
<g filter="url(#filter0_d)">
<path d="M67.0625 89.0625H63.9375V92.1875H67.0625V89.0625Z" fill="#39BEB9"/>
<path d="M73.3125 89.0625H70.1875V92.1875H73.3125V89.0625Z" fill="#39BEB9"/>
<path d="M68.9984 8.29844C70.5047 7.05625 71.75 5.69062 71.75 1.5625H68.625C68.625 4.55469 67.9469 5.11406 67.0094 5.88906C65.3281 7.27656 63.9375 8.85 63.9375 14.0625H67.0625C67.0625 9.89688 67.9594 9.15625 68.9984 8.29844Z" fill="#39BEB9"/>
<path d="M74.875 14.0625C74.875 9.89688 75.7719 9.15625 76.8109 8.29844C78.3172 7.05625 79.5625 5.69062 79.5625 1.5625H76.4375C76.4375 4.55469 75.7594 5.11406 74.8219 5.88906C73.1406 7.27656 71.75 8.85 71.75 14.0625H74.875Z" fill="#39BEB9"/>
<path d="M37.0016 8.29844C38.0406 9.15625 38.9375 9.89688 38.9375 14.0625H42.0625C42.0625 8.85 40.6719 7.27656 38.9906 5.88906C38.0531 5.11406 37.375 4.55469 37.375 1.5625H34.25C34.25 5.69062 35.4953 7.05625 37.0016 8.29844Z" fill="#39BEB9"/>
<path d="M29.1891 8.29844C30.2281 9.15625 31.125 9.89688 31.125 14.0625H34.25C34.25 8.85 32.8594 7.27656 31.1781 5.88906C30.2406 5.11406 29.5625 4.55469 29.5625 1.5625H26.4375C26.4375 5.69062 27.6828 7.05625 29.1891 8.29844Z" fill="#39BEB9"/>
<path d="M30.7219 58.4125C31.4391 60.1375 32.4234 62.5 34.7656 62.5C37.1094 62.5 38.0953 60.1375 38.8141 58.4141C39.1078 57.7125 39.6516 56.4063 39.9562 56.2453C40.3031 56.4063 40.8469 57.7125 41.1406 58.4141C41.8594 60.1375 42.8437 62.5 45.1875 62.5L45.2078 59.3797C44.8609 59.2187 44.3172 57.9125 44.0234 57.2109C43.3047 55.4859 42.3203 53.125 39.9766 53.125C37.6328 53.125 36.6484 55.4859 35.9297 57.2109C35.6359 57.9141 35.0922 59.2203 34.7891 59.3813C34.4422 59.2188 33.9 57.9141 33.6078 57.2125C32.8891 55.4875 31.9062 53.125 29.5625 53.125L29.5406 56.2437C29.8875 56.4062 30.4297 57.7125 30.7219 58.4125Z" fill="#39BEB9"/>
<path d="M30.7219 45.9125C31.4391 47.6375 32.4234 50 34.7656 50C37.1094 50 38.0953 47.6375 38.8141 45.9141C39.1078 45.2125 39.6516 43.9062 39.9562 43.7453C40.3031 43.9062 40.8469 45.2125 41.1406 45.9141C41.8594 47.6375 42.8437 50 45.1875 50L45.2078 46.8797C44.8609 46.7188 44.3172 45.4125 44.0234 44.7109C43.3047 42.9859 42.3203 40.625 39.9766 40.625C37.6328 40.625 36.6484 42.9859 35.9297 44.7109C35.6359 45.4141 35.0922 46.7203 34.7891 46.8812C34.4422 46.7187 33.9 45.4141 33.6078 44.7125C32.8891 42.9875 31.9062 40.625 29.5625 40.625L29.5406 43.7438C29.8875 43.9063 30.4297 45.2125 30.7219 45.9125Z" fill="#39BEB9"/>
<path d="M30.7219 33.4125C31.4391 35.1375 32.4234 37.5 34.7656 37.5C37.1094 37.5 38.0953 35.1375 38.8141 33.4141C39.1078 32.7125 39.6516 31.4062 39.9562 31.2453C40.3031 31.4062 40.8469 32.7125 41.1406 33.4141C41.8594 35.1375 42.8437 37.5 45.1875 37.5L45.2078 34.3797C44.8609 34.2188 44.3172 32.9125 44.0234 32.2109C43.3047 30.4859 42.3203 28.125 39.9766 28.125C37.6328 28.125 36.6484 30.4859 35.9297 32.2109C35.6359 32.9141 35.0922 34.2203 34.7891 34.3812C34.4422 34.2187 33.9 32.9141 33.6078 32.2125C32.8891 30.4875 31.9062 28.125 29.5625 28.125L29.5406 31.2438C29.8875 31.4063 30.4297 32.7125 30.7219 33.4125Z" fill="#39BEB9"/>
<path d="M96.75 51.5625H95.0297C94.3047 48.0016 91.1469 45.3125 87.375 45.3125H82.6875V31.25C82.6875 23.4969 76.3781 17.1875 68.625 17.1875C60.8719 17.1875 54.5625 23.4969 54.5625 31.25V45.3125H51.4375V31.25C51.4375 23.4969 45.1281 17.1875 37.375 17.1875C29.6219 17.1875 23.3125 23.4969 23.3125 31.25V42.1875H26.4375V31.25C26.4375 25.2188 31.3438 20.3125 37.375 20.3125C43.4062 20.3125 48.3125 25.2188 48.3125 31.25V59.375C48.3125 65.4062 43.4062 70.3125 37.375 70.3125C31.3438 70.3125 26.4375 65.4062 26.4375 59.375V45.3125H18.625C14.8531 45.3125 11.6969 48.0016 10.9703 51.5625H9.25C6.66562 51.5625 4.5625 53.6656 4.5625 56.25V68.75C4.5625 71.3344 6.66562 73.4375 9.25 73.4375H10.8125V84.7438L10.9766 85.0734C15.1 93.3172 23.3844 98.4375 32.6 98.4375H73.3984C82.6141 98.4375 90.9 93.3172 95.0219 85.0734L95.1875 84.7438V76.5625H92.0625V82.8125H85.8125V85.9375H90.9047C87.0312 91.7734 80.5406 95.3125 73.4 95.3125H59.2109C60.2016 94.0031 60.8125 92.3906 60.8125 90.625C60.8125 88.8594 60.2016 87.2469 59.2094 85.9375H82.6875V82.8125H13.9375V53.125C13.9375 50.5406 16.0406 48.4375 18.625 48.4375H23.3125V51.5625H20.1875C18.4641 51.5625 17.0625 52.9641 17.0625 54.6875V76.5625C17.0625 78.2859 18.4641 79.6875 20.1875 79.6875H85.8125C87.5359 79.6875 88.9375 78.2859 88.9375 76.5625V54.6875C88.9375 52.9641 87.5359 51.5625 85.8125 51.5625H82.6875V48.4375H87.375C89.9594 48.4375 92.0625 50.5406 92.0625 53.125V73.4375H96.75C99.3344 73.4375 101.438 71.3344 101.438 68.75V56.25C101.438 53.6656 99.3344 51.5625 96.75 51.5625ZM9.25 70.3125C8.38906 70.3125 7.6875 69.6109 7.6875 68.75V56.25C7.6875 55.3891 8.38906 54.6875 9.25 54.6875H10.8125V70.3125H9.25ZM15.0953 85.9375H46.7906C45.7984 87.2469 45.1875 88.8594 45.1875 90.625C45.1875 92.3906 45.7984 94.0031 46.7906 95.3125H32.6016C25.4594 95.3125 18.9688 91.7734 15.0953 85.9375ZM57.6875 90.625C57.6875 92.6594 56.3766 94.3781 54.5625 95.025V89.0625H51.4375V95.025C49.6234 94.3781 48.3125 92.6594 48.3125 90.625C48.3125 88.0406 50.4156 85.9375 53 85.9375C55.5844 85.9375 57.6875 88.0406 57.6875 90.625ZM79.5625 31.25V59.375C79.5625 65.4062 74.6562 70.3125 68.625 70.3125C68.2094 70.3125 67.8016 70.2844 67.3984 70.2391C67.8031 69.3562 68.5656 68.6609 69.6375 67.7484C71.275 66.3563 73.3125 64.6234 73.3125 61.2422C73.3125 57.8609 71.275 56.1281 69.6375 54.7359C67.9922 53.3391 67.0625 52.4578 67.0625 50.6109C67.0625 48.7672 67.9922 47.8859 69.6359 46.4891C71.275 45.0969 73.3125 43.3656 73.3125 39.9859C73.3125 36.6094 71.2734 34.8781 69.6359 33.4875C67.9922 32.0922 67.0625 31.2125 67.0625 29.3703C67.0625 27.5281 67.9922 26.6484 69.6359 25.2516C70.8234 24.2422 72.2125 23.0453 72.8906 21.1797C76.8078 22.8453 79.5625 26.7312 79.5625 31.25ZM57.6875 31.25C57.6875 25.2188 62.5938 20.3125 68.625 20.3125C69.0391 20.3125 69.4484 20.3406 69.85 20.3859C69.4453 21.2656 68.6828 21.9609 67.6125 22.8703C65.975 24.2609 63.9375 25.9938 63.9375 29.3703C63.9375 32.7469 65.9766 34.4781 67.6141 35.8687C69.2578 37.2656 70.1875 38.1453 70.1875 39.9859C70.1875 41.8297 69.2578 42.7109 67.6141 44.1078C65.975 45.5 63.9375 47.2328 63.9375 50.6109C63.9375 53.9922 65.975 55.725 67.6125 57.1172C69.2578 58.5156 70.1875 59.3969 70.1875 61.2437C70.1875 63.0891 69.2578 63.9703 67.6125 65.3687C66.425 66.3781 65.0359 67.5781 64.3578 69.4453C60.4406 67.7781 57.6875 63.8922 57.6875 59.375V31.25ZM54.5625 48.4375V51.5625H51.4375V48.4375H54.5625ZM85.8125 54.6875V76.5625H20.1875V54.6875H23.3125V59.375C23.3125 67.1281 29.6219 73.4375 37.375 73.4375C45.1281 73.4375 51.4375 67.1281 51.4375 59.375V54.6875H54.5625V59.375C54.5625 67.1281 60.8719 73.4375 68.625 73.4375C76.3781 73.4375 82.6875 67.1281 82.6875 59.375V54.6875H85.8125ZM98.3125 68.75C98.3125 69.6109 97.6109 70.3125 96.75 70.3125H95.1875V54.6875H96.75C97.6109 54.6875 98.3125 55.3891 98.3125 56.25V68.75Z" fill="#39BEB9"/>
</g>
<defs>
<filter id="filter0_d" x="-1" y="0" width="108" height="108" filterUnits="userSpaceOnUse" color-interpolation-filters="sRGB">
<feFlood flood-opacity="0" result="BackgroundImageFix"/>
<feColorMatrix in="SourceAlpha" type="matrix" values="0 0 0 0 0 0 0 0 0 0 0 0 0 0 0 0 0 0 127 0"/>
<feOffset dy="4"/>
<feGaussianBlur stdDeviation="2"/>
<feColorMatrix type="matrix" values="0 0 0 0 0 0 0 0 0 0 0 0 0 0 0 0 0 0 0.25 0"/>
<feBlend mode="normal" in2="BackgroundImageFix" result="effect1_dropShadow"/>
<feBlend mode="normal" in="SourceGraphic" in2="effect1_dropShadow" result="shape"/>
</filter>
</defs>
</svg>
