<svg width="100" height="108" viewBox="0 0 100 108" fill="none" xmlns="http://www.w3.org/2000/svg">
<g filter="url(#filter0_d)">
<path d="M90 18.3333H10C8.15906 18.3333 6.66667 19.8256 6.66667 21.6666V61.6666C6.66667 63.5075 8.15906 64.9999 10 64.9999H90C91.841 64.9999 93.3333 63.5075 93.3333 61.6666V21.6666C93.3333 19.8256 91.841 18.3333 90 18.3333Z" stroke="#39BEB9" stroke-width="3.33333" stroke-linecap="round" stroke-linejoin="round"/>
<path d="M20.0667 36.7333L13.3333 41.9167V34.0167C13.3349 33.6871 13.434 33.3654 13.6183 33.0922C13.8026 32.819 14.0638 32.6065 14.3688 32.4817C14.6738 32.3568 15.0089 32.3252 15.3319 32.3907C15.6549 32.4563 15.9512 32.6161 16.1833 32.85L20.0667 36.7333Z" stroke="#39BEB9" stroke-width="3.33333" stroke-linecap="round" stroke-linejoin="round"/>
<path d="M25.0667 41.7334L13.3333 50.7667V41.9167L20.0667 36.7334L25.0667 41.7334Z" stroke="#39BEB9" stroke-width="3.33333" stroke-linecap="round" stroke-linejoin="round"/>
<path d="M30.05 46.7167L14.8833 58.3167C14.463 58.2921 14.068 58.1073 13.7797 57.8004C13.4914 57.4935 13.3317 57.0878 13.3333 56.6667V50.7667L25.0667 41.7334L30.05 46.7167Z" stroke="#39BEB9" stroke-width="3.33333" stroke-linecap="round" stroke-linejoin="round"/>
<path d="M35.0667 51.7332L26.5 58.3332H15C14.9604 58.3359 14.9206 58.3302 14.8833 58.3166L30.05 46.7166L35.0667 51.7332Z" stroke="#39BEB9" stroke-width="3.33333" stroke-linecap="round" stroke-linejoin="round"/>
<path d="M37.65 58.3334H26.5L35.0667 51.7334L38.8167 55.4834C39.0506 55.7156 39.2104 56.0119 39.276 56.3348C39.3415 56.6578 39.3099 56.993 39.185 57.298C39.0602 57.603 38.8477 57.8641 38.5745 58.0484C38.3013 58.2327 37.9796 58.3319 37.65 58.3334Z" stroke="#39BEB9" stroke-width="3.33333" stroke-linecap="round" stroke-linejoin="round"/>
<path d="M46.6667 41.4167V49.3167C46.6651 49.6463 46.566 49.968 46.3817 50.2412C46.1974 50.5144 45.9362 50.7269 45.6312 50.8517C45.3262 50.9766 44.9911 51.0082 44.6681 50.9427C44.3451 50.8771 44.0488 50.7173 43.8167 50.4834L39.9333 46.6001L46.6667 41.4167Z" stroke="#39BEB9" stroke-width="3.33333" stroke-linecap="round" stroke-linejoin="round"/>
<path d="M46.6667 32.5667V41.4166L39.9333 46.6L34.9333 41.6L46.6667 32.5667Z" stroke="#39BEB9" stroke-width="3.33333" stroke-linecap="round" stroke-linejoin="round"/>
<path d="M46.6667 26.6666V32.5666L34.9333 41.5999L29.95 36.6166L45.1167 25.0166C45.537 25.0412 45.932 25.226 46.2203 25.5329C46.5086 25.8398 46.6683 26.2455 46.6667 26.6666V26.6666Z" stroke="#39BEB9" stroke-width="3.33333" stroke-linecap="round" stroke-linejoin="round"/>
<path d="M45.1167 25.0166L29.95 36.6166L24.9333 31.5999L33.5 24.9999H45C45.0396 24.9972 45.0794 25.0029 45.1167 25.0166V25.0166Z" stroke="#39BEB9" stroke-width="3.33333" stroke-linecap="round" stroke-linejoin="round"/>
<path d="M33.5 25L24.9333 31.6L21.1833 27.85C20.9494 27.6178 20.7895 27.3215 20.724 26.9986C20.6584 26.6756 20.69 26.3404 20.8149 26.0354C20.9397 25.7304 21.1522 25.4692 21.4254 25.2849C21.6987 25.1006 22.0204 25.0015 22.35 25H33.5Z" stroke="#39BEB9" stroke-width="3.33333" stroke-linecap="round" stroke-linejoin="round"/>
<path d="M79.9333 36.7333L86.6667 41.9167V34.0167C86.6652 33.6871 86.566 33.3654 86.3817 33.0922C86.1974 32.819 85.9362 32.6065 85.6313 32.4817C85.3263 32.3568 84.9911 32.3252 84.6681 32.3907C84.3452 32.4563 84.0489 32.6161 83.8167 32.85L79.9333 36.7333Z" stroke="#39BEB9" stroke-width="3.33333" stroke-linecap="round" stroke-linejoin="round"/>
<path d="M74.9333 41.7334L86.6667 50.7667V41.9167L79.9333 36.7334L74.9333 41.7334Z" stroke="#39BEB9" stroke-width="3.33333" stroke-linecap="round" stroke-linejoin="round"/>
<path d="M69.95 46.7167L85.1167 58.3167C85.537 58.2921 85.932 58.1073 86.2203 57.8004C86.5086 57.4935 86.6683 57.0878 86.6667 56.6667V50.7667L74.9333 41.7334L69.95 46.7167Z" stroke="#39BEB9" stroke-width="3.33333" stroke-linecap="round" stroke-linejoin="round"/>
<path d="M64.9333 51.7332L73.5 58.3332H85C85.0396 58.3359 85.0794 58.3302 85.1167 58.3166L69.95 46.7166L64.9333 51.7332Z" stroke="#39BEB9" stroke-width="3.33333" stroke-linecap="round" stroke-linejoin="round"/>
<path d="M62.35 58.3334H73.5L64.9333 51.7334L61.1833 55.4834C60.9494 55.7156 60.7896 56.0119 60.7241 56.3348C60.6585 56.6578 60.6901 56.993 60.815 57.298C60.9398 57.603 61.1523 57.8641 61.4255 58.0484C61.6987 58.2327 62.0205 58.3319 62.35 58.3334Z" stroke="#39BEB9" stroke-width="3.33333" stroke-linecap="round" stroke-linejoin="round"/>
<path d="M53.3333 41.4167V49.3167C53.3349 49.6463 53.434 49.968 53.6183 50.2412C53.8026 50.5144 54.0638 50.7269 54.3688 50.8517C54.6738 50.9766 55.0089 51.0082 55.3319 50.9427C55.6549 50.8771 55.9512 50.7173 56.1833 50.4834L60.0667 46.6001L53.3333 41.4167Z" stroke="#39BEB9" stroke-width="3.33333" stroke-linecap="round" stroke-linejoin="round"/>
<path d="M53.3333 32.5667V41.4166L60.0667 46.6L65.0667 41.6L53.3333 32.5667Z" stroke="#39BEB9" stroke-width="3.33333" stroke-linecap="round" stroke-linejoin="round"/>
<path d="M53.3333 26.6666V32.5666L65.0667 41.5999L70.05 36.6166L54.8833 25.0166C54.463 25.0412 54.068 25.226 53.7797 25.5329C53.4914 25.8398 53.3316 26.2455 53.3333 26.6666Z" stroke="#39BEB9" stroke-width="3.33333" stroke-linecap="round" stroke-linejoin="round"/>
<path d="M54.8833 25.0166L70.05 36.6166L75.0667 31.5999L66.5 24.9999H55C54.9604 24.9972 54.9206 25.0029 54.8833 25.0166V25.0166Z" stroke="#39BEB9" stroke-width="3.33333" stroke-linecap="round" stroke-linejoin="round"/>
<path d="M66.5 25L75.0667 31.6L78.8167 27.85C79.0506 27.6178 79.2104 27.3215 79.276 26.9986C79.3416 26.6756 79.31 26.3404 79.1851 26.0354C79.0603 25.7304 78.8478 25.4692 78.5745 25.2849C78.3013 25.1006 77.9796 25.0015 77.65 25H66.5Z" stroke="#39BEB9" stroke-width="3.33333" stroke-linecap="round" stroke-linejoin="round"/>
<path d="M28.3333 65H18.3333V73.3333H28.3333V65Z" stroke="#39BEB9" stroke-width="3.33333" stroke-linecap="round" stroke-linejoin="round"/>
<path d="M81.6667 65H71.6667V73.3333H81.6667V65Z" stroke="#39BEB9" stroke-width="3.33333" stroke-linecap="round" stroke-linejoin="round"/>
<path d="M21.6667 1.66675H78.3333C80.9855 1.66675 83.529 2.72032 85.4044 4.59568C87.2798 6.47104 88.3333 9.01458 88.3333 11.6667V18.3334H11.6667V11.6667C11.6667 9.01458 12.7202 6.47104 14.5956 4.59568C16.471 2.72032 19.0145 1.66675 21.6667 1.66675V1.66675Z" stroke="#39BEB9" stroke-width="3.33333" stroke-linecap="round" stroke-linejoin="round"/>
<path d="M21.6667 1.66675H78.3333C80.9855 1.66675 83.529 2.72032 85.4044 4.59568C87.2798 6.47104 88.3333 9.01458 88.3333 11.6667V18.3334H11.6667V11.6667C11.6667 9.01458 12.7202 6.47104 14.5956 4.59568C16.471 2.72032 19.0145 1.66675 21.6667 1.66675V1.66675Z" stroke="#39BEB9" stroke-width="3.33333" stroke-linecap="round" stroke-linejoin="round"/>
<path d="M25 8.33325H75C76.7681 8.33325 78.4638 9.03563 79.714 10.2859C80.9643 11.5361 81.6667 13.2318 81.6667 14.9999V18.3333H18.3333V14.9999C18.3333 13.2318 19.0357 11.5361 20.2859 10.2859C21.5362 9.03563 23.2319 8.33325 25 8.33325V8.33325Z" stroke="#39BEB9" stroke-width="3.33333" stroke-linecap="round" stroke-linejoin="round"/>
<path d="M25 8.33325H75C76.7681 8.33325 78.4638 9.03563 79.714 10.2859C80.9643 11.5361 81.6667 13.2318 81.6667 14.9999V18.3333H18.3333V14.9999C18.3333 13.2318 19.0357 11.5361 20.2859 10.2859C21.5362 9.03563 23.2319 8.33325 25 8.33325V8.33325Z" stroke="#39BEB9" stroke-width="3.33333" stroke-linecap="round" stroke-linejoin="round"/>
<path d="M90 73.3333H10C8.15906 73.3333 6.66667 74.8256 6.66667 76.6666V86.6666C6.66667 88.5075 8.15906 89.9999 10 89.9999H90C91.841 89.9999 93.3333 88.5075 93.3333 86.6666V76.6666C93.3333 74.8256 91.841 73.3333 90 73.3333Z" stroke="#39BEB9" stroke-width="3.33333" stroke-linecap="round" stroke-linejoin="round"/>
<path d="M41.6667 73.3333H58.3333V76.6666C58.3333 77.5506 57.9821 78.3985 57.357 79.0236C56.7319 79.6487 55.884 79.9999 55 79.9999H45C44.1159 79.9999 43.2681 79.6487 42.643 79.0236C42.0178 78.3985 41.6667 77.5506 41.6667 76.6666V73.3333Z" stroke="#39BEB9" stroke-width="3.33333" stroke-linecap="round" stroke-linejoin="round"/>
<path d="M11.6667 90H21.6667V95C21.6667 95.8841 21.3155 96.7319 20.6904 97.357C20.0652 97.9821 19.2174 98.3333 18.3333 98.3333H15C14.116 98.3333 13.2681 97.9821 12.643 97.357C12.0179 96.7319 11.6667 95.8841 11.6667 95V90Z" stroke="#39BEB9" stroke-width="3.33333" stroke-linecap="round" stroke-linejoin="round"/>
<path d="M78.3333 90H88.3333V95C88.3333 95.8841 87.9822 96.7319 87.357 97.357C86.7319 97.9821 85.8841 98.3333 85 98.3333H81.6667C80.7826 98.3333 79.9348 97.9821 79.3097 97.357C78.6845 96.7319 78.3333 95.8841 78.3333 95V90Z" stroke="#39BEB9" stroke-width="3.33333" stroke-linecap="round" stroke-linejoin="round"/>
</g>
<defs>
<filter id="filter0_d" x="-4" y="0" width="108" height="108" filterUnits="userSpaceOnUse" color-interpolation-filters="sRGB">
<feFlood flood-opacity="0" result="BackgroundImageFix"/>
<feColorMatrix in="SourceAlpha" type="matrix" values="0 0 0 0 0 0 0 0 0 0 0 0 0 0 0 0 0 0 127 0"/>
<feOffset dy="4"/>
<feGaussianBlur stdDeviation="2"/>
<feColorMatrix type="matrix" values="0 0 0 0 0 0 0 0 0 0 0 0 0 0 0 0 0 0 0.25 0"/>
<feBlend mode="normal" in2="BackgroundImageFix" result="effect1_dropShadow"/>
<feBlend mode="normal" in="SourceGraphic" in2="effect1_dropShadow" result="shape"/>
</filter>
</defs>
</svg>
