<svg width="100" height="105" viewBox="0 0 100 105" fill="none" xmlns="http://www.w3.org/2000/svg">
<g filter="url(#filter0_d)">
<path d="M85.9375 3.125H14.0625C11.9913 3.12748 10.0056 3.95138 8.54097 5.41597C7.07638 6.88056 6.25248 8.86626 6.25 10.9375V89.0625C6.25248 91.1337 7.07638 93.1194 8.54097 94.584C10.0056 96.0486 11.9913 96.8725 14.0625 96.875H85.9375C88.0087 96.8725 89.9944 96.0486 91.459 94.584C92.9236 93.1194 93.7475 91.1337 93.75 89.0625V10.9375C93.7475 8.86626 92.9236 6.88056 91.459 5.41597C89.9944 3.95138 88.0087 3.12748 85.9375 3.125ZM90.625 89.0625C90.625 90.3057 90.1311 91.498 89.2521 92.3771C88.373 93.2561 87.1807 93.75 85.9375 93.75H51.5625V37.5H48.4375V93.75H14.0625C12.8193 93.75 11.627 93.2561 10.7479 92.3771C9.86886 91.498 9.375 90.3057 9.375 89.0625V10.9375C9.375 9.6943 9.86886 8.50201 10.7479 7.62294C11.627 6.74386 12.8193 6.25 14.0625 6.25H85.9375C87.1807 6.25 88.373 6.74386 89.2521 7.62294C90.1311 8.50201 90.625 9.6943 90.625 10.9375V89.0625Z" fill="#39BEB9"/>
<path d="M50 9.375C37.0766 9.375 26.5625 18.4875 26.5625 29.6875C26.5625 30.1019 26.7271 30.4993 27.0201 30.7924C27.3132 31.0854 27.7106 31.25 28.125 31.25H71.875C72.2894 31.25 72.6868 31.0854 72.9799 30.7924C73.2729 30.4993 73.4375 30.1019 73.4375 29.6875C73.4375 18.4875 62.9234 9.375 50 9.375ZM29.7719 28.125C30.7063 19.375 39.4203 12.5 50 12.5C60.5797 12.5 69.2937 19.375 70.2281 28.125H29.7719Z" fill="#39BEB9"/>
<path d="M55.7922 17.0517C53.4906 18.5095 49.5328 21.0485 48.8953 21.686C48.3261 22.2754 48.0111 23.0648 48.0182 23.8842C48.0253 24.7035 48.354 25.4873 48.9334 26.0667C49.5128 26.6461 50.2966 26.9748 51.1159 26.9819C51.9353 26.989 52.7247 26.674 53.3141 26.1048C53.9516 25.4673 56.4906 21.5095 57.9484 19.2079C58.1385 18.908 58.2208 18.5524 58.1818 18.1995C58.1427 17.8466 57.9847 17.5175 57.7336 17.2665C57.4826 17.0154 57.1535 16.8574 56.8006 16.8183C56.4477 16.7793 56.0921 16.8616 55.7922 17.0517Z" fill="#39BEB9"/>
</g>
<defs>
<filter id="filter0_d" x="-4" y="0" width="108" height="108" filterUnits="userSpaceOnUse" color-interpolation-filters="sRGB">
<feFlood flood-opacity="0" result="BackgroundImageFix"/>
<feColorMatrix in="SourceAlpha" type="matrix" values="0 0 0 0 0 0 0 0 0 0 0 0 0 0 0 0 0 0 127 0"/>
<feOffset dy="4"/>
<feGaussianBlur stdDeviation="2"/>
<feColorMatrix type="matrix" values="0 0 0 0 0 0 0 0 0 0 0 0 0 0 0 0 0 0 0.25 0"/>
<feBlend mode="normal" in2="BackgroundImageFix" result="effect1_dropShadow"/>
<feBlend mode="normal" in="SourceGraphic" in2="effect1_dropShadow" result="shape"/>
</filter>
</defs>
</svg>
