<svg width="102" height="100" viewBox="0 0 102 100" fill="none" xmlns="http://www.w3.org/2000/svg">
<g filter="url(#filter0_d)">
<path d="M96.3125 60.9375H16.625V54.3906L96.925 20.189C97.1208 20.1051 97.2973 19.982 97.4438 19.8274C97.5902 19.6727 97.7035 19.4897 97.7767 19.2897C97.8498 19.0897 97.8813 18.8768 97.8692 18.6641C97.8571 18.4515 97.8017 18.2435 97.7062 18.0531L94.5812 11.8031C94.4033 11.4469 94.0961 11.172 93.7224 11.0346C93.3486 10.8973 92.9366 10.9078 92.5703 11.064L8.19531 47.0015C7.9146 47.1222 7.67544 47.3226 7.50742 47.5778C7.3394 47.833 7.2499 48.1319 7.25 48.4375V60.9375H5.6875C5.2731 60.9375 4.87567 61.1021 4.58265 61.3951C4.28962 61.6881 4.125 62.0856 4.125 62.5V81.25C4.125 81.6644 4.28962 82.0618 4.58265 82.3548C4.87567 82.6478 5.2731 82.8125 5.6875 82.8125H7.25V87.5C7.25 87.9144 7.41462 88.3118 7.70765 88.6048C8.00067 88.8978 8.3981 89.0625 8.8125 89.0625H93.1875C93.6019 89.0625 93.9993 88.8978 94.2924 88.6048C94.5854 88.3118 94.75 87.9144 94.75 87.5V82.8125H96.3125C96.7269 82.8125 97.1243 82.6478 97.4174 82.3548C97.7104 82.0618 97.875 81.6644 97.875 81.25V62.5C97.875 62.0856 97.7104 61.6881 97.4174 61.3951C97.1243 61.1021 96.7269 60.9375 96.3125 60.9375ZM10.375 49.4718L92.4469 14.514L94.1656 17.964L15.2188 51.5953C15.1674 51.5812 15.1152 51.5702 15.0625 51.5625H10.375V49.4718ZM10.375 54.6875H13.5V60.9375H10.375V54.6875ZM91.625 85.9375H10.375V82.8125H91.625V85.9375ZM94.75 79.6875H7.25V64.0625H94.75V79.6875Z" fill="#39BEB9"/>
<path d="M86.9375 76.5625C87.8646 76.5625 88.7709 76.2876 89.5417 75.7725C90.3126 75.2574 90.9134 74.5254 91.2682 73.6688C91.623 72.8123 91.7158 71.8698 91.5349 70.9605C91.3541 70.0512 90.9076 69.216 90.2521 68.5604C89.5965 67.9049 88.7613 67.4584 87.852 67.2776C86.9427 67.0967 86.0002 67.1895 85.1437 67.5443C84.2871 67.8991 83.5551 68.4999 83.04 69.2708C82.5249 70.0416 82.25 70.9479 82.25 71.875C82.25 73.1182 82.7439 74.3105 83.6229 75.1896C84.502 76.0686 85.6943 76.5625 86.9375 76.5625ZM86.9375 70.3125C87.2465 70.3125 87.5486 70.4041 87.8056 70.5758C88.0625 70.7475 88.2628 70.9916 88.3811 71.2771C88.4993 71.5626 88.5303 71.8767 88.47 72.1798C88.4097 72.4829 88.2609 72.7613 88.0424 72.9799C87.8238 73.1984 87.5454 73.3472 87.2423 73.4075C86.9392 73.4678 86.6251 73.4368 86.3396 73.3186C86.054 73.2003 85.81 73 85.6383 72.7431C85.4666 72.4861 85.375 72.184 85.375 71.875C85.375 71.4606 85.5396 71.0632 85.8326 70.7701C86.1257 70.4771 86.5231 70.3125 86.9375 70.3125Z" fill="#39BEB9"/>
<path d="M13.5 67.189H10.375V76.564H13.5V67.189Z" fill="#39BEB9"/>
<path d="M19.75 67.189H16.625V76.564H19.75V67.189Z" fill="#39BEB9"/>
<path d="M61.9375 43.7515H58.8125V54.689H61.9375V43.7515Z" fill="#39BEB9"/>
<path d="M68.1875 39.064H65.0625V51.564H68.1875V39.064Z" fill="#39BEB9"/>
</g>
<defs>
<filter id="filter0_d" x="-3" y="0" width="108" height="108" filterUnits="userSpaceOnUse" color-interpolation-filters="sRGB">
<feFlood flood-opacity="0" result="BackgroundImageFix"/>
<feColorMatrix in="SourceAlpha" type="matrix" values="0 0 0 0 0 0 0 0 0 0 0 0 0 0 0 0 0 0 127 0"/>
<feOffset dy="4"/>
<feGaussianBlur stdDeviation="2"/>
<feColorMatrix type="matrix" values="0 0 0 0 0 0 0 0 0 0 0 0 0 0 0 0 0 0 0.25 0"/>
<feBlend mode="normal" in2="BackgroundImageFix" result="effect1_dropShadow"/>
<feBlend mode="normal" in="SourceGraphic" in2="effect1_dropShadow" result="shape"/>
</filter>
</defs>
</svg>
