<svg width="100" height="100" viewBox="0 0 100 100" fill="none" xmlns="http://www.w3.org/2000/svg">
<g filter="url(#filter0_d)">
<path d="M49.507 28.249H44.211C42.253 28.249 40.659 29.843 40.659 31.801C40.659 33.759 42.253 35.353 44.211 35.353H49.507C51.465 35.353 53.059 33.759 53.059 31.801C53.059 29.843 51.466 28.249 49.507 28.249ZM49.507 33.353H44.211C43.355 33.353 42.659 32.657 42.659 31.801C42.659 30.945 43.355 30.249 44.211 30.249H49.507C50.362 30.249 51.059 30.945 51.059 31.801C51.059 32.657 50.363 33.353 49.507 33.353Z" fill="#39BEB9"/>
<path d="M72.041 64.561C75.676 64.561 78.633 61.604 78.633 57.969C78.633 54.333 75.675 51.376 72.041 51.376C68.407 51.376 65.449 54.333 65.449 57.969C65.449 61.604 68.406 64.561 72.041 64.561ZM72.041 53.376C74.573 53.376 76.633 55.437 76.633 57.969C76.633 60.501 74.573 62.561 72.041 62.561C69.509 62.561 67.449 60.501 67.449 57.969C67.449 55.437 69.509 53.376 72.041 53.376Z" fill="#39BEB9"/>
<path d="M72.041 42.3981C74.366 42.3981 76.257 40.5061 76.257 38.1821C76.257 35.8581 74.366 33.9661 72.041 33.9661C69.716 33.9661 67.825 35.8581 67.825 38.1821C67.825 40.5061 69.716 42.3981 72.041 42.3981ZM72.041 35.9671C73.263 35.9671 74.257 36.9611 74.257 38.1831C74.257 39.4051 73.263 40.3991 72.041 40.3991C70.819 40.3991 69.825 39.4051 69.825 38.1831C69.825 36.9611 70.819 35.9671 72.041 35.9671Z" fill="#39BEB9"/>
<path d="M85.46 27.509H83.995C83.778 24.441 81.218 22.009 78.095 22.009L44.058 22.01V19.593H47.558C48.11 19.593 48.558 19.146 48.558 18.593C48.558 18.04 48.11 17.593 47.558 17.593H47.35V12.009H47.558C48.11 12.009 48.558 11.562 48.558 11.009C48.558 10.456 48.11 10.009 47.558 10.009H38.35C37.798 10.009 37.35 10.456 37.35 11.009C37.35 11.562 37.798 12.009 38.35 12.009H38.767V17.593H38.35C37.798 17.593 37.35 18.04 37.35 18.593C37.35 19.146 37.798 19.593 38.35 19.593H42.058V22.01H23.516V16.426C23.516 15.873 23.068 15.426 22.516 15.426C21.964 15.426 21.516 15.873 21.516 16.426V22.048C16.766 22.431 13.016 26.412 13.016 31.259V43.511C13.016 46.037 15.071 48.093 17.598 48.093H17.63V49.717C17.63 51.464 19.051 52.885 20.798 52.885H21.516V60.843C21.516 61.396 21.964 61.843 22.516 61.843C23.068 61.843 23.516 61.396 23.516 60.843V52.885H24.235C25.982 52.885 27.403 51.464 27.403 49.717V48.093H30.116C31.322 48.093 32.503 47.604 33.355 46.75L37.392 42.714C38.572 41.534 40.142 40.884 41.81 40.884H55.758C57.463 40.884 58.849 42.271 58.849 43.976V69.549H19.542C15.398 69.549 12.027 72.92 12.027 77.065V81.034C10.918 81.538 10.142 82.65 10.142 83.945V86.808C10.142 88.573 11.578 90.009 13.343 90.009H86.941C88.706 90.009 90.142 88.572 90.142 86.808V83.945C90.142 82.651 89.366 81.539 88.257 81.035V70.549C88.257 70.487 88.251 70.424 88.239 70.362C88.197 70.14 84.042 48.232 84.018 42.398H85.46C88.042 42.398 90.142 40.297 90.142 37.715V32.191C90.142 29.609 88.042 27.509 85.46 27.509ZM40.767 12.009H45.35V17.593H40.767V12.009ZM25.404 49.717C25.404 50.361 24.88 50.885 24.236 50.885H20.799C20.155 50.885 19.631 50.361 19.631 49.717V48.093H25.404V49.717ZM55.759 38.884H41.812C39.609 38.884 37.538 39.742 35.979 41.3L31.942 45.336C31.462 45.817 30.796 46.093 30.117 46.093H17.599C16.176 46.093 15.017 44.935 15.017 43.511V31.259C15.017 27.262 18.269 24.01 22.266 24.01L78.096 24.009C80.258 24.009 82.017 25.768 82.017 27.93V42.343C82.017 47.565 85.169 64.818 86.052 69.549H60.851V43.976C60.851 41.168 58.566 38.884 55.759 38.884ZM19.542 71.549H86.257V80.743H14.027V77.064C14.027 74.023 16.501 71.549 19.542 71.549ZM88.142 86.808C88.142 87.47 87.603 88.009 86.941 88.009H13.343C12.681 88.009 12.142 87.47 12.142 86.808V83.945C12.142 83.283 12.681 82.744 13.343 82.744H86.941C87.603 82.744 88.142 83.283 88.142 83.945V86.808ZM88.142 37.716C88.142 39.195 86.939 40.399 85.46 40.399H84.017V29.509H85.46C86.939 29.509 88.142 30.712 88.142 32.192V37.716Z" fill="#39BEB9"/>
</g>
<defs>
<filter id="filter0_d" x="-4" y="0" width="108" height="108" filterUnits="userSpaceOnUse" color-interpolation-filters="sRGB">
<feFlood flood-opacity="0" result="BackgroundImageFix"/>
<feColorMatrix in="SourceAlpha" type="matrix" values="0 0 0 0 0 0 0 0 0 0 0 0 0 0 0 0 0 0 127 0"/>
<feOffset dy="4"/>
<feGaussianBlur stdDeviation="2"/>
<feColorMatrix type="matrix" values="0 0 0 0 0 0 0 0 0 0 0 0 0 0 0 0 0 0 0.25 0"/>
<feBlend mode="normal" in2="BackgroundImageFix" result="effect1_dropShadow"/>
<feBlend mode="normal" in="SourceGraphic" in2="effect1_dropShadow" result="shape"/>
</filter>
</defs>
</svg>
