<svg width="100" height="100" viewBox="0 0 100 100" fill="none" xmlns="http://www.w3.org/2000/svg">
<g filter="url(#filter0_d)">
<path d="M44.0723 31.035C41.5625 31.035 39.0625 31.035 36.5527 31.035C31.7969 31.035 27.041 31.035 22.2949 31.035C19.375 31.035 16.4453 31.0448 13.5254 31.035C13.3496 31.035 13.1836 31.0253 13.0078 31.0155C12.7246 30.996 12.9297 31.0155 12.998 31.0253C12.8906 31.0058 12.7832 30.9862 12.6758 30.9667C12.4805 30.9276 12.2949 30.869 12.1094 30.8104C12.1191 30.8104 11.7285 30.6542 11.9238 30.7421C12.1191 30.83 11.7383 30.6444 11.748 30.6542C11.5527 30.5565 11.377 30.4393 11.2012 30.3222C10.9766 30.1854 11.1426 30.2831 11.1914 30.3222C11.1035 30.2538 11.0254 30.1854 10.9473 30.1171C10.8008 29.9901 10.6738 29.8534 10.5469 29.7069C10.4883 29.6386 10.4395 29.58 10.3809 29.5116C10.5859 29.7655 10.332 29.4237 10.3125 29.3944C10.1953 29.2186 10.0977 29.0233 9.99023 28.8378C9.86328 28.6034 9.95117 28.7694 9.98047 28.828C9.94141 28.7304 9.90234 28.6229 9.87305 28.5253C9.81445 28.3397 9.75586 28.1444 9.7168 27.9491C9.69727 27.8612 9.67773 27.7733 9.66797 27.6854C9.7168 27.9784 9.67773 27.6854 9.66797 27.6073C9.6582 27.4901 9.6582 27.3729 9.6582 27.2558C9.64844 25.9765 9.6582 24.6972 9.6582 23.4081C9.6582 19.3944 9.6582 15.371 9.6582 11.3573C9.6582 11.2694 9.6582 11.1815 9.6582 11.0936C9.16992 11.5819 8.68164 12.0702 8.19336 12.5585C8.93555 12.5585 9.6875 12.5585 10.4297 12.5585C12.4609 12.5585 14.4922 12.5585 16.5234 12.5585C19.5215 12.5585 22.5293 12.5585 25.5273 12.5585C29.1895 12.5585 32.8516 12.5585 36.5137 12.5585C40.5078 12.5585 44.502 12.5585 48.4961 12.5585C52.5586 12.5585 56.6309 12.5585 60.6934 12.5585C64.4531 12.5585 68.2129 12.5585 71.9727 12.5585C75.166 12.5585 78.3594 12.5585 81.543 12.5585C83.8379 12.5585 86.1328 12.5585 88.4277 12.5585C89.5117 12.5585 90.6055 12.5975 91.6895 12.5585C91.7383 12.5585 91.7871 12.5585 91.8262 12.5585C91.3379 12.0702 90.8496 11.5819 90.3613 11.0936C90.3613 14.6679 90.3613 18.2421 90.3613 21.8163C90.3613 23.5253 90.3613 25.2343 90.3613 26.9433C90.3613 27.0507 90.3613 27.1581 90.3613 27.2655C90.3613 27.3534 90.3613 27.4511 90.3516 27.539C90.3516 27.5292 90.3125 27.9686 90.3418 27.744C90.3711 27.5292 90.3027 27.9491 90.3027 27.9491C90.2637 28.1249 90.2246 28.2909 90.166 28.4569C90.1367 28.5643 90.0977 28.662 90.0586 28.7597C90.0195 28.8573 90.0293 28.8378 90.0781 28.7108C90.0488 28.7694 90.0195 28.828 89.9902 28.8866C89.8926 29.0526 89.8047 29.2284 89.6973 29.3847C89.707 29.3749 89.4629 29.7167 89.5899 29.5507C89.7168 29.3847 89.4531 29.7069 89.4629 29.6972C89.3457 29.8241 89.2285 29.9511 89.1016 30.0585C89.0234 30.1268 88.9453 30.205 88.8574 30.2733C88.7793 30.3417 88.7891 30.3319 88.8965 30.244C88.8477 30.2831 88.7891 30.3222 88.7402 30.3515C88.5742 30.4491 88.418 30.5565 88.2422 30.6444C88.1641 30.6835 88.0859 30.7225 88.0078 30.7616C88.3008 30.6249 87.9199 30.7909 87.8711 30.8104C87.7051 30.869 87.5391 30.9179 87.3633 30.9569C87.2559 30.9862 87.1484 31.0058 87.041 31.0253C86.9336 31.0448 86.9531 31.0448 87.0996 31.0155C87.0313 31.0253 86.9629 31.0253 86.8945 31.035C86.123 31.0839 85.3418 31.0448 84.5703 31.0448C82.8125 31.0448 81.0547 31.0448 79.2871 31.0448C74.5215 31.0448 69.7559 31.0448 65 31.0448C62.0215 31.0448 59.0332 30.9862 56.0547 31.0448C56.0059 31.0448 55.957 31.0448 55.9082 31.0448C55.1465 31.0448 54.4043 31.7186 54.4434 32.5097C54.4824 33.3007 55.0879 33.9745 55.9082 33.9745C58.4668 33.9745 61.0352 33.9745 63.5938 33.9745C68.4277 33.9745 73.252 33.9745 78.0859 33.9745C80.8984 33.9745 83.7109 34.0038 86.5234 33.9745C90.1562 33.9452 93.1641 31.0546 93.2617 27.4022C93.3008 26.162 93.2617 24.912 93.2617 23.662C93.2617 19.5604 93.2617 15.4589 93.2617 11.3573C93.2617 11.2694 93.2617 11.1815 93.2617 11.0936C93.2617 10.3026 92.5879 9.6288 91.7969 9.6288C91.0547 9.6288 90.3027 9.6288 89.5605 9.6288C87.5293 9.6288 85.498 9.6288 83.4668 9.6288C80.4688 9.6288 77.4609 9.6288 74.4629 9.6288C70.8008 9.6288 67.1387 9.6288 63.4766 9.6288C59.4824 9.6288 55.4883 9.6288 51.4941 9.6288C47.4316 9.6288 43.3594 9.6288 39.2969 9.6288C35.5371 9.6288 31.7773 9.6288 28.0176 9.6288C24.8242 9.6288 21.6309 9.6288 18.4473 9.6288C16.1523 9.6288 13.8574 9.6288 11.5625 9.6288C10.4785 9.6288 9.38477 9.60927 8.30078 9.6288C8.25195 9.6288 8.20312 9.6288 8.16406 9.6288C7.37305 9.6288 6.69922 10.3026 6.69922 11.0936C6.69922 14.7265 6.69922 18.3593 6.69922 22.0018C6.69922 23.6718 6.69922 25.3515 6.69922 27.0214C6.69922 30.1464 8.68164 33.0468 11.8164 33.7792C12.8906 34.0331 14.0039 33.9745 15.0879 33.9745C16.8066 33.9745 18.5254 33.9745 20.2441 33.9745C25.0586 33.9745 29.873 33.9745 34.6777 33.9745C37.7539 33.9745 40.8301 34.0331 43.8965 33.9745C43.9453 33.9745 43.9941 33.9745 44.043 33.9745C44.8047 33.9745 45.5469 33.3007 45.5078 32.5097C45.498 31.7089 44.8926 31.035 44.0723 31.035Z" fill="#39BEB9"/>
<path d="M57.3926 32.5977C57.3926 32.5684 57.3926 32.5293 57.3926 32.5C56.9043 32.9883 56.416 33.4766 55.9277 33.9648C58.9453 33.9648 61.9726 33.9648 64.9902 33.9648C69.8047 33.9648 74.6289 33.9648 79.4434 33.9648C80.5566 33.9648 81.6699 33.9648 82.7832 33.9648C82.3144 33.3496 81.8457 32.7246 81.3672 32.1094C80.5957 34.7363 79.8242 37.373 79.0625 40C78.0078 43.5938 76.9629 47.1777 75.9082 50.7715C75.8203 51.0742 75.7324 51.377 75.6445 51.6699C75.625 51.7285 75.6152 51.7773 75.5957 51.8359C75.5664 51.9238 75.5371 52.0117 75.5078 52.0996C75.5273 52.041 75.625 51.875 75.498 52.1289C75.4101 52.3145 75.3125 52.4902 75.2051 52.666C75.1562 52.7441 75.1074 52.8125 75.0586 52.8906C74.9316 53.0859 75.1953 52.7344 75.0488 52.9102C74.9219 53.0664 74.7851 53.2129 74.6387 53.3496C74.5703 53.4082 74.2285 53.7109 74.4336 53.5547C74.2773 53.6719 74.1113 53.7891 73.9355 53.8867C73.7598 53.9844 73.584 54.082 73.3984 54.1602C73.6621 54.043 73.1836 54.2285 73.1152 54.2383C72.9394 54.2871 72.7637 54.3262 72.5879 54.3652C72.5293 54.375 72.3047 54.3945 72.5684 54.375C72.4512 54.3848 72.3437 54.3945 72.2266 54.4043C72.1387 54.4043 72.041 54.4043 71.9531 54.4043C71.748 54.4043 71.543 54.4043 71.3379 54.4043C68.8477 54.4043 66.3672 54.4043 63.8769 54.4043C59.7851 54.4043 55.7031 54.4043 51.6113 54.4043C47.3535 54.4043 43.0859 54.4043 38.8281 54.4043C35.8203 54.4043 32.8125 54.4043 29.8047 54.4043C29.2187 54.4043 28.6328 54.4043 28.0371 54.4043C27.9004 54.4043 27.7637 54.4043 27.6269 54.3945C27.5879 54.3945 27.2949 54.3652 27.4805 54.3848C27.6562 54.4043 27.3828 54.3652 27.334 54.3555C27.1582 54.3164 26.9824 54.2773 26.8066 54.2188C26.7187 54.1895 26.6406 54.1602 26.5527 54.1309C26.3184 54.0527 26.8457 54.2871 26.4746 54.1016C26.2988 54.0137 26.123 53.9258 25.9473 53.8184C25.4492 53.5156 25.0195 53.0566 24.7168 52.5488C24.6289 52.3926 24.541 52.2363 24.4629 52.0703C24.3652 51.8555 24.5312 52.2656 24.4531 52.041C24.4238 51.9531 24.3945 51.8652 24.3652 51.7773C24.3555 51.7383 24.3457 51.709 24.3359 51.6699C23.4766 48.8184 22.6562 45.9473 21.8262 43.0859C20.8203 39.6289 19.8047 36.1816 18.7988 32.7246C18.7402 32.5195 18.6816 32.3242 18.623 32.1191C18.1543 32.7344 17.6855 33.3594 17.207 33.9746C20.2246 33.9746 23.2519 33.9746 26.2695 33.9746C31.084 33.9746 35.9082 33.9746 40.7226 33.9746C41.8359 33.9746 42.9492 33.9746 44.0625 33.9746C43.5742 33.4863 43.0859 32.998 42.5976 32.5098C42.5976 32.5391 42.5976 32.5781 42.5976 32.6074C42.5976 33.3691 43.2715 34.1113 44.0625 34.0723C44.8535 34.0332 45.5273 33.4277 45.5273 32.6074C45.5273 32.5781 45.5273 32.5391 45.5273 32.5098C45.5273 31.7188 44.8535 31.0449 44.0625 31.0449C41.0449 31.0449 38.0176 31.0449 35 31.0449C30.1855 31.0449 25.3613 31.0449 20.5469 31.0449C19.4336 31.0449 18.3203 31.0449 17.207 31.0449C16.2695 31.0449 15.5273 31.9824 15.791 32.9004C16.5723 35.5762 17.3535 38.252 18.1445 40.9277C19.1992 44.5215 20.2539 48.125 21.2988 51.7187C21.3769 51.9727 21.4453 52.2266 21.5234 52.4805C22.0117 54.082 23.0371 55.459 24.4726 56.3477C25.7129 57.1191 27.1094 57.334 28.5449 57.334C31.0156 57.334 33.4961 57.334 35.9668 57.334C40.1074 57.334 44.248 57.334 48.3887 57.334C52.7051 57.334 57.0312 57.334 61.3476 57.334C64.3555 57.334 67.3535 57.334 70.3613 57.334C70.9082 57.334 71.4453 57.3437 71.9922 57.334C74.9902 57.3047 77.5977 55.3516 78.4668 52.4805C79.3164 49.6973 80.1074 46.8848 80.918 44.0918C81.9531 40.5664 82.9785 37.041 84.0137 33.5156C84.0723 33.3105 84.1309 33.1055 84.1992 32.8906C84.4629 31.9727 83.7305 31.0352 82.7832 31.0352C79.7656 31.0352 76.7383 31.0352 73.7207 31.0352C68.9062 31.0352 64.082 31.0352 59.2676 31.0352C58.1543 31.0352 57.041 31.0352 55.9277 31.0352C55.1367 31.0352 54.4629 31.709 54.4629 32.5C54.4629 32.5293 54.4629 32.5684 54.4629 32.5977C54.4629 33.3594 55.1367 34.1016 55.9277 34.0625C56.7285 34.0234 57.3926 33.418 57.3926 32.5977Z" fill="#39BEB9"/>
<path d="M57.3926 32.5977C57.3926 32.5684 57.3926 32.5293 57.3926 32.5C56.9043 32.9883 56.416 33.4766 55.9277 33.9648C58.5547 33.9648 61.1816 33.9648 63.8184 33.9648C63.3496 33.3496 62.8809 32.7246 62.4023 32.1094C61.9336 34.7461 61.4746 37.373 61.0059 40.0098C60.2637 44.209 59.5215 48.3984 58.7891 52.5977C58.6231 53.5547 58.4473 54.5117 58.2813 55.4688C58.75 55.1074 59.2188 54.7559 59.6973 54.3945C57.5195 54.3945 55.3418 54.3945 53.1738 54.3945C49.6875 54.3945 46.2012 54.3945 42.7051 54.3945C41.9043 54.3945 41.1035 54.3945 40.3027 54.3945C40.7715 54.7559 41.2402 55.1074 41.7188 55.4688C41.25 52.832 40.791 50.2051 40.3223 47.5684C39.5801 43.3691 38.8379 39.1797 38.1055 34.9805C37.9395 34.0234 37.7637 33.0664 37.5977 32.1094C37.1289 32.7246 36.6602 33.3496 36.1816 33.9648C38.8086 33.9648 41.4356 33.9648 44.0723 33.9648C43.584 33.4766 43.0957 32.9883 42.6074 32.5C42.6074 32.5293 42.6074 32.5684 42.6074 32.5977C42.6074 33.3594 43.2813 34.1016 44.0723 34.0625C44.8633 34.0234 45.5371 33.418 45.5371 32.5977C45.5371 32.5684 45.5371 32.5293 45.5371 32.5C45.5371 31.709 44.8633 31.0352 44.0723 31.0352C41.4453 31.0352 38.8184 31.0352 36.1816 31.0352C35.1563 31.0352 34.6094 31.9629 34.7656 32.8906C35.2344 35.5273 35.6934 38.1543 36.1621 40.791C36.9043 44.9902 37.6465 49.1797 38.3789 53.3789C38.5449 54.3359 38.7207 55.293 38.8867 56.25C38.9941 56.875 39.6973 57.3242 40.3027 57.3242C42.4805 57.3242 44.6582 57.3242 46.8262 57.3242C50.3125 57.3242 53.7988 57.3242 57.2949 57.3242C58.0957 57.3242 58.8965 57.3242 59.6973 57.3242C60.293 57.3242 60.9961 56.875 61.1133 56.25C61.582 53.6133 62.041 50.9863 62.5098 48.3496C63.252 44.1504 63.9941 39.9609 64.7266 35.7617C64.8926 34.8047 65.0684 33.8477 65.2344 32.8906C65.4004 31.9727 64.8438 31.0352 63.8184 31.0352C61.1914 31.0352 58.5645 31.0352 55.9277 31.0352C55.1367 31.0352 54.4629 31.709 54.4629 32.5C54.4629 32.5293 54.4629 32.5684 54.4629 32.5977C54.4629 33.3594 55.1367 34.1016 55.9277 34.0625C56.7285 34.0234 57.3926 33.418 57.3926 32.5977Z" fill="#39BEB9"/>
<path d="M54.4629 32.5975C54.4629 32.7342 54.4629 32.8709 54.4531 33.0076C54.4434 33.1053 54.4043 33.408 54.4434 33.1443C54.3945 33.4471 54.3262 33.74 54.2285 34.033C54.1895 34.16 54.1406 34.2772 54.1016 34.3943C54.1895 34.16 54.082 34.4236 54.043 34.5115C53.9063 34.7752 53.75 35.0291 53.584 35.2732C53.4375 35.4979 53.6816 35.1756 53.5059 35.3807C53.418 35.4783 53.3398 35.576 53.252 35.6639C53.1641 35.7518 53.0762 35.8396 52.9785 35.9275C52.9297 35.9666 52.8809 36.0154 52.832 36.0545C52.8125 36.074 52.6074 36.24 52.7344 36.1424C52.8418 36.0545 52.5684 36.2498 52.5195 36.2889C52.3926 36.367 52.2656 36.4451 52.1387 36.5232C52.0313 36.5818 51.9141 36.6404 51.7969 36.699C51.7773 36.7088 51.582 36.7967 51.7383 36.7283C51.8945 36.66 51.6406 36.7674 51.6113 36.7772C51.3672 36.865 51.1133 36.9334 50.8594 36.992C50.8008 37.0018 50.4492 37.0604 50.5957 37.0408C50.7812 37.0115 50.4981 37.0506 50.459 37.0506C50.3711 37.0604 50.2832 37.0604 50.1856 37.0701C49.9121 37.0799 49.6484 37.0701 49.375 37.0408C49.1992 37.0213 49.4141 37.0506 49.4336 37.0506C49.3652 37.0408 49.3066 37.0311 49.2383 37.0115C49.0918 36.9822 48.9355 36.9432 48.7891 36.9041C48.6426 36.865 48.4961 36.8162 48.3594 36.7674C48.3008 36.7479 48.2422 36.7186 48.1738 36.699C48.1934 36.7088 48.3789 36.7967 48.2324 36.7186C47.9883 36.6014 47.7441 36.4744 47.5098 36.3182C47.4023 36.2498 47.2949 36.1814 47.1973 36.1033C47.3926 36.2498 47.168 36.074 47.0996 36.0154C46.875 35.8201 46.6797 35.6053 46.4844 35.3807C46.2988 35.1854 46.5527 35.4979 46.4063 35.2732C46.3379 35.1658 46.2598 35.0682 46.2012 34.951C46.1328 34.8436 46.0742 34.7361 46.0156 34.6189C45.9668 34.5311 45.791 34.1307 45.8984 34.3846C45.8008 34.1404 45.7227 33.8963 45.6641 33.6424C45.6348 33.5154 45.6055 33.3885 45.5762 33.2615C45.5762 33.242 45.5371 33.0271 45.5664 33.1932C45.5859 33.3592 45.5566 33.0857 45.5566 33.0564C45.5371 32.783 45.5273 32.5096 45.5469 32.2361C45.5566 32.1385 45.5859 31.8357 45.5469 32.0897C45.5664 31.9334 45.5957 31.7869 45.6348 31.6307C45.6934 31.3768 45.7715 31.1229 45.8594 30.8787C45.918 30.7225 45.8398 30.908 45.8301 30.9275C45.8594 30.8494 45.8984 30.7713 45.9375 30.6932C46.0059 30.5564 46.0742 30.4295 46.1523 30.3025C46.2207 30.1951 46.2891 30.0877 46.3574 29.9803C46.3965 29.9314 46.4258 29.8729 46.4648 29.824C46.4551 29.8436 46.3281 29.9998 46.4355 29.8729C46.6309 29.6482 46.8262 29.4236 47.0508 29.2283C47.0898 29.1893 47.3535 28.9744 47.2461 29.0525C47.1387 29.1404 47.4121 28.9354 47.4609 28.9061C47.6953 28.7498 47.9395 28.6229 48.1836 28.4959C48.4277 28.3689 48.0469 28.5252 48.3105 28.4373C48.457 28.3885 48.5938 28.3397 48.7402 28.2908C48.8672 28.2518 48.9941 28.2225 49.1211 28.1932C49.209 28.1736 49.5996 28.115 49.3262 28.1443C49.5996 28.115 49.8731 28.1053 50.1367 28.1053C50.293 28.1053 50.4492 28.1248 50.6055 28.1346C50.7813 28.1541 50.5762 28.1248 50.5469 28.1248C50.6348 28.1443 50.7227 28.1541 50.8105 28.1736C51.1133 28.2322 51.3965 28.3299 51.6895 28.4275C51.709 28.4373 51.9043 28.5154 51.7578 28.4471C51.6113 28.3787 51.8555 28.4959 51.875 28.5057C52.0313 28.5838 52.1777 28.6619 52.3242 28.7498C52.4512 28.8279 52.5781 28.9158 52.6953 28.9939C52.7148 29.0037 52.8809 29.1307 52.7539 29.033C52.627 28.9354 52.832 29.1014 52.8516 29.1209C53.0762 29.3162 53.2812 29.5311 53.4766 29.7557C53.5156 29.8045 53.5547 29.8533 53.5938 29.9022C53.4668 29.7361 53.5645 29.8729 53.6328 29.9607C53.7109 30.0877 53.7988 30.2147 53.8672 30.3416C53.9453 30.4686 54.0137 30.6053 54.0723 30.742C54.1016 30.8006 54.1309 30.8592 54.1504 30.9178C54.0918 30.7811 54.1113 30.8006 54.1504 30.9275C54.248 31.24 54.3457 31.5525 54.4043 31.8748C54.4141 31.9432 54.4238 32.0018 54.4336 32.0701C54.4141 31.9236 54.4238 31.9432 54.4238 32.0799C54.4531 32.2752 54.4629 32.4314 54.4629 32.5975C54.4629 33.3592 55.1367 34.1014 55.9277 34.0623C56.7188 34.0232 57.3926 33.4178 57.3926 32.5975C57.3926 29.4627 55.3711 26.7186 52.4707 25.6248C49.6484 24.5701 46.2207 25.5174 44.3262 27.8611C42.373 30.2732 42.0313 33.6912 43.6426 36.3865C45.2734 39.1014 48.4375 40.4295 51.5137 39.8338C54.9219 39.1795 57.3535 36.0154 57.3926 32.5975C57.4023 31.8357 56.709 31.0936 55.9277 31.1326C55.127 31.1717 54.4727 31.7771 54.4629 32.5975Z" fill="#39BEB9"/>
<path d="M38.7109 65.4883C37.8809 68.418 37.9199 71.6016 38.9062 74.4824C39.375 75.8691 40.1367 77.0801 40.752 78.3984C40.8691 78.6523 40.957 78.8672 41.0742 79.209C41.1914 79.5508 41.2988 79.8926 41.3965 80.2441C41.4941 80.5957 41.5723 80.9473 41.6309 81.2988C41.6602 81.4648 41.6895 81.6308 41.709 81.7871C41.6992 81.748 41.6895 81.6406 41.709 81.8066C41.7188 81.9141 41.7285 82.0312 41.748 82.1387C41.9043 83.8281 41.7578 85.2344 41.3184 86.7969C41.1133 87.5293 41.5723 88.4277 42.3438 88.6035C43.125 88.7793 43.9258 88.3691 44.1504 87.5781C44.9805 84.6484 44.9414 81.4648 43.9551 78.584C43.4863 77.1973 42.7246 75.9863 42.1094 74.668C41.9922 74.4141 41.9043 74.1992 41.7871 73.8574C41.6699 73.5156 41.5625 73.1738 41.4648 72.8223C41.3672 72.4707 41.2891 72.1191 41.2305 71.7676C41.2012 71.6016 41.1719 71.4355 41.1523 71.2793C41.1621 71.3184 41.1719 71.4258 41.1523 71.2598C41.1426 71.1523 41.1328 71.0351 41.1133 70.9277C40.957 69.2383 41.1035 67.832 41.543 66.2695C41.748 65.5371 41.2891 64.6387 40.5176 64.4629C39.7363 64.2871 38.9355 64.6973 38.7109 65.4883Z" fill="#39BEB9"/>
<path d="M55.8496 67.1973C55.0195 70.1269 55.0586 73.3105 56.0449 76.1914C56.5137 77.5781 57.2754 78.7891 57.8906 80.1074C58.0078 80.3613 58.0957 80.5762 58.2129 80.918C58.3301 81.2598 58.4375 81.6016 58.5352 81.9531C58.6328 82.3047 58.7109 82.6562 58.7695 83.0078C58.7988 83.1738 58.8281 83.3398 58.8477 83.4961C58.8379 83.457 58.8281 83.3496 58.8477 83.5156C58.8574 83.623 58.8672 83.7402 58.8867 83.8476C59.043 85.5371 58.8965 86.9433 58.457 88.5058C58.2519 89.2383 58.7109 90.1367 59.4824 90.3125C60.2637 90.4883 61.0644 90.0781 61.2891 89.2871C62.1191 86.3574 62.0801 83.1738 61.0937 80.293C60.625 78.9062 59.8633 77.6953 59.248 76.3769C59.1309 76.123 59.043 75.9082 58.9258 75.5664C58.8086 75.2246 58.7012 74.8828 58.6035 74.5312C58.5059 74.1797 58.4277 73.8281 58.3691 73.4766C58.3398 73.3105 58.3105 73.1445 58.291 72.9883C58.3008 73.0273 58.3105 73.1348 58.291 72.9687C58.2812 72.8613 58.2715 72.7441 58.252 72.6367C58.0957 70.9473 58.2422 69.541 58.6816 67.9785C58.8867 67.2461 58.4277 66.3476 57.6562 66.1719C56.875 65.9961 56.0742 66.4062 55.8496 67.1973Z" fill="#39BEB9"/>
</g>
<defs>
<filter id="filter0_d" x="-4" y="0" width="108" height="108" filterUnits="userSpaceOnUse" color-interpolation-filters="sRGB">
<feFlood flood-opacity="0" result="BackgroundImageFix"/>
<feColorMatrix in="SourceAlpha" type="matrix" values="0 0 0 0 0 0 0 0 0 0 0 0 0 0 0 0 0 0 127 0"/>
<feOffset dy="4"/>
<feGaussianBlur stdDeviation="2"/>
<feColorMatrix type="matrix" values="0 0 0 0 0 0 0 0 0 0 0 0 0 0 0 0 0 0 0.25 0"/>
<feBlend mode="normal" in2="BackgroundImageFix" result="effect1_dropShadow"/>
<feBlend mode="normal" in="SourceGraphic" in2="effect1_dropShadow" result="shape"/>
</filter>
</defs>
</svg>
