<svg width="108" height="100" viewBox="0 0 108 100" fill="none" xmlns="http://www.w3.org/2000/svg">
<g clip-path="url(#clip0)" filter="url(#filter0_d)">
<path d="M28.1731 12.0088C23.1344 12.0088 19.0403 16.1659 19.0403 21.2745V27.6494H9.86556C6.63754 27.6494 4 30.2617 4 33.5093V82.1311C4 85.3773 6.63754 87.9911 9.86556 87.9911H98.1736C101.402 87.9911 104 85.3773 104 82.1311V33.5093C104 30.2631 101.402 27.6494 98.1736 27.6494H88.9611V21.2745C88.9611 16.1659 84.8642 12.0088 79.8255 12.0088H28.1731ZM28.1731 14.2266H79.8255C83.6454 14.2266 86.7559 17.3538 86.7559 21.2745V27.6494H82.6212V23.5314C82.6212 20.8393 80.3768 18.6607 77.7407 18.6607H30.2607C27.6232 18.6607 25.418 20.8393 25.418 23.5314V27.6494H21.2455V21.2745C21.2441 17.3538 24.3546 14.2266 28.1731 14.2266ZM30.2607 20.9177H77.7407C79.1973 20.9177 80.3782 22.065 80.3782 23.5314V27.6494H66.1257H41.8743H27.6609V23.5314C27.6609 22.0664 28.8027 20.9177 30.2607 20.9177ZM9.86556 29.8657H19.9834H26.6367H40.9676V36.5974C40.9676 37.1907 41.5189 37.7056 42.0702 37.7056H65.9284C66.5189 37.7056 67.0702 37.1907 67.0702 36.5974V29.8657H81.3227H87.9774H98.1736C100.18 29.8657 101.795 31.4888 101.795 33.5093V78.1713H6.20518V33.5093C6.20518 31.4888 7.85767 29.8657 9.86556 29.8657ZM43.212 29.8657H48.8816V35.4878H43.212V29.8657ZM51.126 29.8657H56.9132V35.4878H51.126V29.8657ZM59.1562 29.8657H64.8272V35.4878H59.1562V29.8657ZM22.898 44.3575C15.5758 44.3575 9.59131 50.4554 9.59131 57.8587C9.59131 65.262 15.5758 71.2815 22.898 71.2815C30.2201 71.2815 36.1654 65.262 36.1654 57.8587C36.1654 50.4554 30.2201 44.3575 22.898 44.3575ZM85.1412 44.3575C77.8204 44.3575 71.8737 50.4554 71.8737 57.8587C71.8737 65.262 77.8204 71.2815 85.1412 71.2815C92.4648 71.2815 98.4507 65.262 98.4507 57.8587C98.4493 50.4554 92.4648 44.3575 85.1412 44.3575ZM22.898 46.6145C29.0392 46.6145 33.9603 51.6433 33.9603 57.8601C33.9603 64.0768 29.0392 69.0245 22.898 69.0245C16.7554 69.0245 11.7951 64.0755 11.7951 57.8601C11.7951 51.6447 16.7554 46.6145 22.898 46.6145ZM85.1412 46.6145C91.2852 46.6145 96.2455 51.6433 96.2455 57.8601C96.2455 64.0768 91.2852 69.0245 85.1412 69.0245C79 69.0245 74.0789 64.0755 74.0789 57.8601C74.0789 51.6447 79 46.6145 85.1412 46.6145ZM41.8743 48.5944C41.3622 48.7133 40.969 49.1877 40.969 49.7026V59.8792C40.8515 60.1954 40.8515 60.5508 40.969 60.8684V65.9364C40.969 66.4905 41.5203 67.0446 42.0716 67.0446H65.9298C66.5203 67.0446 67.0716 66.4905 67.0716 65.9364V60.6306C67.0716 60.4724 67.0716 60.3129 67.0716 60.1548V49.7026C67.0716 49.1485 66.5189 48.5944 65.9298 48.5944H42.0702C42.0702 48.5944 42.031 48.5944 41.9918 48.5944C41.9527 48.5944 41.9135 48.5944 41.8743 48.5944ZM43.212 50.8513H64.8272V59.2845H43.212V50.8513ZM43.212 61.5023H64.8272V64.7891H43.212V61.5023ZM6.20518 80.4268H101.795V82.1297C101.795 84.1488 100.18 85.7733 98.1736 85.7733H9.86556C7.85767 85.7733 6.20378 84.1502 6.20378 82.1297V80.4268H6.20518Z" fill="#39BEB9"/>
</g>
<defs>
<filter id="filter0_d" x="0" y="0" width="108" height="108" filterUnits="userSpaceOnUse" color-interpolation-filters="sRGB">
<feFlood flood-opacity="0" result="BackgroundImageFix"/>
<feColorMatrix in="SourceAlpha" type="matrix" values="0 0 0 0 0 0 0 0 0 0 0 0 0 0 0 0 0 0 127 0"/>
<feOffset dy="4"/>
<feGaussianBlur stdDeviation="2"/>
<feColorMatrix type="matrix" values="0 0 0 0 0 0 0 0 0 0 0 0 0 0 0 0 0 0 0.25 0"/>
<feBlend mode="normal" in2="BackgroundImageFix" result="effect1_dropShadow"/>
<feBlend mode="normal" in="SourceGraphic" in2="effect1_dropShadow" result="shape"/>
</filter>
<clipPath id="clip0">
<rect width="100" height="100" fill="white" transform="translate(4)"/>
</clipPath>
</defs>
</svg>
