<svg width="100" height="100" viewBox="0 0 100 100" fill="none" xmlns="http://www.w3.org/2000/svg">
<g filter="url(#filter0_d)">
<path d="M86.09 8H13.9C12.336 8.00264 10.8369 8.6251 9.73099 9.73099C8.6251 10.8369 8.00264 12.336 8 13.9V86.1C8.00264 87.664 8.6251 89.1631 9.73099 90.269C10.8369 91.3749 12.336 91.9974 13.9 92H86.09C87.6557 92 89.1574 91.3787 90.2655 90.2725C91.3735 89.1664 91.9974 87.6657 92 86.1V13.9C91.9974 12.3343 91.3735 10.8336 90.2655 9.72746C89.1574 8.62128 87.6557 8 86.09 8ZM13.9 12H86.09C86.3403 11.9987 86.5885 12.0469 86.8202 12.1417C87.0518 12.2366 87.2625 12.3764 87.44 12.5529C87.6175 12.7295 87.7583 12.9394 87.8544 13.1706C87.9505 13.4018 88 13.6496 88 13.9V31.78H12V13.9C12 13.3961 12.2002 12.9128 12.5565 12.5565C12.9128 12.2002 13.3961 12 13.9 12ZM86.09 88H13.9C13.3961 88 12.9128 87.7998 12.5565 87.4435C12.2002 87.0872 12 86.6039 12 86.1V35.78H88V86.1C88 86.3504 87.9505 86.5982 87.8544 86.8294C87.7583 87.0606 87.6175 87.2705 87.44 87.4471C87.2625 87.6236 87.0518 87.7634 86.8202 87.8583C86.5885 87.9531 86.3403 88.0013 86.09 88Z" fill="#39BEB9"/>
<path d="M50.6 28.3301C51.9607 28.3301 53.2909 27.9266 54.4223 27.1706C55.5537 26.4146 56.4356 25.3401 56.9563 24.0829C57.477 22.8258 57.6133 21.4424 57.3478 20.1079C57.0823 18.7733 56.4271 17.5474 55.4649 16.5852C54.5027 15.623 53.2768 14.9677 51.9422 14.7023C50.6076 14.4368 49.2243 14.573 47.9671 15.0938C46.71 15.6145 45.6355 16.4963 44.8795 17.6277C44.1235 18.7592 43.72 20.0893 43.72 21.4501C43.7226 23.2739 44.4483 25.0224 45.738 26.312C47.0277 27.6017 48.7761 28.3274 50.6 28.3301ZM50.6 18.5701C51.1696 18.5701 51.7264 18.739 52.2 19.0554C52.6737 19.3719 53.0428 19.8217 53.2608 20.3479C53.4788 20.8742 53.5358 21.4533 53.4247 22.0119C53.3135 22.5706 53.0392 23.0838 52.6365 23.4865C52.2337 23.8893 51.7205 24.1636 51.1619 24.2747C50.6032 24.3859 50.0241 24.3288 49.4979 24.1108C48.9716 23.8929 48.5218 23.5237 48.2054 23.0501C47.8889 22.5765 47.72 22.0197 47.72 21.4501C47.72 20.6862 48.0234 19.9537 48.5635 19.4136C49.1036 18.8735 49.8362 18.5701 50.6 18.5701Z" fill="#39BEB9"/>
<path d="M76.24 28.3301C77.6007 28.3301 78.9309 27.9266 80.0623 27.1706C81.1937 26.4146 82.0755 25.3401 82.5963 24.0829C83.117 22.8258 83.2533 21.4424 82.9878 20.1079C82.7223 18.7733 82.0671 17.5474 81.1049 16.5852C80.1427 15.623 78.9168 14.9677 77.5822 14.7023C76.2476 14.4368 74.8643 14.573 73.6071 15.0938C72.35 15.6145 71.2755 16.4963 70.5195 17.6277C69.7635 18.7592 69.36 20.0893 69.36 21.4501C69.3626 23.2739 70.0883 25.0224 71.378 26.312C72.6677 27.6017 74.4161 28.3274 76.24 28.3301ZM76.24 18.5701C76.8096 18.5701 77.3664 18.739 77.84 19.0554C78.3136 19.3719 78.6828 19.8217 78.9008 20.3479C79.1187 20.8742 79.1758 21.4533 79.0646 22.0119C78.9535 22.5706 78.6792 23.0838 78.2765 23.4865C77.8737 23.8893 77.3605 24.1636 76.8018 24.2747C76.2432 24.3859 75.6641 24.3288 75.1379 24.1108C74.6116 23.8929 74.1618 23.5237 73.8454 23.0501C73.5289 22.5765 73.36 22.0197 73.36 21.4501C73.36 20.6862 73.6634 19.9537 74.2035 19.4136C74.7436 18.8735 75.4762 18.5701 76.24 18.5701Z" fill="#39BEB9"/>
<path d="M23.76 28.3301C25.1207 28.3301 26.4509 27.9266 27.5823 27.1706C28.7137 26.4146 29.5956 25.3401 30.1163 24.0829C30.637 22.8258 30.7733 21.4424 30.5078 20.1079C30.2423 18.7733 29.5871 17.5474 28.6249 16.5852C27.6627 15.623 26.4368 14.9677 25.1022 14.7023C23.7676 14.4368 22.3843 14.573 21.1271 15.0938C19.87 15.6145 18.7955 16.4963 18.0395 17.6277C17.2835 18.7592 16.88 20.0893 16.88 21.4501C16.8827 23.2739 17.6084 25.0224 18.898 26.312C20.1877 27.6017 21.9361 28.3274 23.76 28.3301ZM23.76 18.5701C24.3296 18.5701 24.8864 18.739 25.36 19.0554C25.8337 19.3719 26.2028 19.8217 26.4208 20.3479C26.6388 20.8742 26.6958 21.4533 26.5847 22.0119C26.4735 22.5706 26.1992 23.0838 25.7965 23.4865C25.3937 23.8893 24.8805 24.1636 24.3219 24.2747C23.7632 24.3859 23.1841 24.3288 22.6579 24.1108C22.1316 23.8929 21.6818 23.5237 21.3654 23.0501C21.0489 22.5765 20.88 22.0197 20.88 21.4501C20.88 20.6862 21.1834 19.9537 21.7235 19.4136C22.2636 18.8735 22.9962 18.5701 23.76 18.5701Z" fill="#39BEB9"/>
<path d="M77 42.5901H23C21.5254 42.5901 20.1112 43.1759 19.0685 44.2186C18.0258 45.2613 17.44 46.6755 17.44 48.1501V75.4701C17.4479 76.9395 18.0372 78.346 19.0791 79.3822C20.1209 80.4184 21.5306 81.0001 23 81.0001H77C78.4746 81.0001 79.8888 80.4143 80.9315 79.3716C81.9742 78.3289 82.56 76.9147 82.56 75.4401V48.1401C82.5574 46.6672 81.9704 45.2556 80.928 44.215C79.8856 43.1745 78.4729 42.5901 77 42.5901ZM40.7 46.5901H59.34V51.9101H40.65V46.5901H40.7ZM78.51 75.4701C78.5025 75.8701 78.3416 76.2519 78.0606 76.5367C77.7796 76.8214 77.3999 76.9873 77 77.0001H23C22.5863 77.0001 22.1895 76.8357 21.8969 76.5432C21.6044 76.2506 21.44 75.8538 21.44 75.4401V48.1401C21.4426 47.7281 21.6082 47.3339 21.9004 47.0435C22.1927 46.7531 22.588 46.5901 23 46.5901H36.65V53.9101C36.65 54.4405 36.8607 54.9492 37.2358 55.3243C37.6109 55.6994 38.1196 55.9101 38.65 55.9101H61.34C61.8704 55.9101 62.3791 55.6994 62.7542 55.3243C63.1293 54.9492 63.34 54.4405 63.34 53.9101V46.5901H77C77.2049 46.5901 77.4077 46.6304 77.597 46.7088C77.7863 46.7872 77.9582 46.9021 78.1031 47.047C78.2479 47.1919 78.3629 47.3638 78.4413 47.5531C78.5196 47.7424 78.56 47.9452 78.56 48.1501V75.4701H78.51Z" fill="#39BEB9"/>
</g>
<defs>
<filter id="filter0_d" x="-4" y="0" width="108" height="108" filterUnits="userSpaceOnUse" color-interpolation-filters="sRGB">
<feFlood flood-opacity="0" result="BackgroundImageFix"/>
<feColorMatrix in="SourceAlpha" type="matrix" values="0 0 0 0 0 0 0 0 0 0 0 0 0 0 0 0 0 0 127 0"/>
<feOffset dy="4"/>
<feGaussianBlur stdDeviation="2"/>
<feColorMatrix type="matrix" values="0 0 0 0 0 0 0 0 0 0 0 0 0 0 0 0 0 0 0.25 0"/>
<feBlend mode="normal" in2="BackgroundImageFix" result="effect1_dropShadow"/>
<feBlend mode="normal" in="SourceGraphic" in2="effect1_dropShadow" result="shape"/>
</filter>
</defs>
</svg>
