<svg width="100" height="103" viewBox="0 0 100 103" fill="none" xmlns="http://www.w3.org/2000/svg">
<g filter="url(#filter0_d)">
<path d="M85.8887 43.8575C85.8887 46.2403 85.8887 48.6133 85.8887 50.9961C85.8887 56.2403 85.8887 61.4746 85.8887 66.7188C85.8887 72.0215 85.8887 77.3243 85.8887 82.627C85.8887 84.4239 85.8887 86.2207 85.8887 88.0176C85.8887 88.7891 85.8594 89.5606 85.8887 90.3321C85.8887 90.4102 85.8594 90.625 85.9082 90.3614C85.8887 90.4883 85.8496 90.6153 85.8106 90.7325C85.918 90.459 85.8106 90.7227 85.7617 90.7813C85.6055 90.9571 86.0156 90.5664 85.7227 90.8301C85.6641 90.8887 85.6055 90.9473 85.5371 91.0059C85.6641 90.9082 85.6641 90.8985 85.5274 90.9961C85.3223 91.1329 85.459 91.045 85.5371 91.0157C85.4199 91.0645 85.293 91.0938 85.166 91.1133C85.4102 91.0743 85.2539 91.1036 85.1563 91.0938C85.1172 91.0938 85.0684 91.0938 85.0293 91.0938C84.4629 91.0938 83.8965 91.0938 83.3301 91.0938C80.9277 91.0938 78.5254 91.0938 76.1133 91.0938C72.0996 91.0938 68.0762 91.1719 64.0527 91.0938C64.0137 91.0938 63.9453 91.0938 63.9063 91.0938C63.5059 91.0938 64.0918 91.1817 63.7109 91.0645C63.5645 91.0254 63.4277 90.9961 63.291 90.9375C63.4961 91.0157 63.2715 90.9278 63.2422 90.9082C62.8809 90.6934 62.8613 90.6934 62.5586 90.3614C62.2168 90 61.8945 89.6289 61.5527 89.2579C60.7422 88.3692 59.9707 87.334 58.9941 86.6211C57.959 85.8594 56.7578 85.7227 55.5176 85.7227C54.4531 85.7227 53.3789 85.7227 52.3145 85.7227C49.7656 85.7227 47.2266 85.7227 44.6777 85.7227C43.5449 85.7227 42.4414 85.7813 41.4258 86.377C40.3418 87.0118 39.5215 88.1348 38.6914 89.0528C38.3203 89.4629 37.9395 89.8829 37.5684 90.293C37.4316 90.4493 37.2949 90.6055 37.1289 90.7325C37.1875 90.6836 37.3047 90.6348 37.0703 90.7618C36.9434 90.8301 36.8164 90.918 36.6797 90.9766C36.8945 90.8789 36.6016 90.9961 36.5527 91.0059C36.4941 91.0254 36.0254 91.1036 36.2891 91.0743C35.8691 91.1133 35.4395 91.084 35.0293 91.084C32.8613 91.084 30.6934 91.084 28.5156 91.084C24.0332 91.084 19.5508 91.0938 15.0684 91.084C15.0195 91.084 14.9609 91.084 14.9121 91.084C14.9024 91.084 14.8926 91.084 14.8828 91.084C14.8438 91.084 14.6289 91.0743 14.7461 91.084C15 91.0938 14.7363 91.0645 14.6191 91.045C14.2871 90.9668 14.7852 91.1817 14.502 90.9864C14.2774 90.8301 14.4434 90.9571 14.4922 90.9961C14.3945 90.918 14.3066 90.8301 14.2285 90.7325C14.4336 90.9766 14.1992 90.6543 14.1797 90.6055C14.3066 90.8204 14.1992 90.6739 14.1797 90.6055C14.1699 90.5371 14.1309 90.1563 14.1406 90.4786C14.1406 90.4981 14.1309 90.3809 14.1406 90.3418C14.1504 90.1368 14.1406 89.9317 14.1406 89.7266C14.1406 88.4278 14.1406 87.1289 14.1406 85.8204C14.1406 80.9864 14.1406 76.1524 14.1406 71.3282C14.1406 65.7813 14.1406 60.2344 14.1406 54.6875C14.1406 51.2793 14.1406 47.8711 14.1406 44.4629C14.1406 44.2676 14.1406 44.0625 14.1406 43.8672C14.1406 43.7696 14.1406 43.6817 14.1504 43.5938C14.1504 43.5059 14.1602 43.418 14.1699 43.3204C14.1895 42.9004 14.1016 43.5938 14.1895 43.1836C14.2383 42.9688 14.2773 42.7539 14.3457 42.5489C14.3848 42.4219 14.4238 42.3047 14.4727 42.1778C14.5313 42.0215 14.5313 42.0215 14.4727 42.168C14.502 42.1094 14.5215 42.0508 14.5508 41.9922C14.6582 41.7871 14.7656 41.5821 14.8926 41.377C14.9512 41.2891 15.0098 41.2012 15.0684 41.1133C15.2051 40.918 14.8438 41.3575 15.1172 41.0645C15.2734 40.8887 15.4297 40.7227 15.5957 40.5567C15.6738 40.4883 15.752 40.42 15.8301 40.3418C15.957 40.2344 15.957 40.2344 15.8301 40.3321C15.8984 40.2832 15.9668 40.2344 16.0352 40.1856C16.2109 40.0684 16.3965 39.961 16.582 39.8536C16.6992 39.795 16.8066 39.7364 16.9238 39.6875C16.8652 39.7168 16.6699 39.7754 16.9336 39.6875C17.1582 39.6094 17.3828 39.5313 17.6172 39.4825C17.7246 39.4532 17.832 39.4336 17.9395 39.4141C18.1152 39.3848 18.1152 39.3848 17.9395 39.4043C18.0273 39.3946 18.1152 39.3848 18.2031 39.3848C18.3594 39.375 18.5254 39.375 18.6816 39.375C18.916 39.375 19.1504 39.375 19.375 39.375C22.3438 39.375 25.3223 39.375 28.291 39.375C33.3789 39.375 38.4668 39.375 43.5645 39.375C49.2481 39.375 54.9316 39.375 60.6152 39.375C65.3125 39.375 70.0098 39.375 74.6973 39.375C76.9141 39.375 79.1309 39.3653 81.3477 39.375C81.4649 39.375 81.5723 39.375 81.6895 39.3848C81.8262 39.3946 81.9531 39.4043 82.0899 39.4141C82.0313 39.4043 81.8164 39.3653 82.0899 39.4239C82.3242 39.4727 82.5586 39.5215 82.793 39.5996C82.9004 39.6289 82.9981 39.668 83.0957 39.7071C83.4863 39.834 82.8613 39.5704 83.2227 39.7559C83.4082 39.8536 83.6035 39.9512 83.7793 40.0586C83.8574 40.1075 84.3359 40.459 84.1016 40.2735C84.2969 40.4297 84.4824 40.6055 84.6582 40.7911C84.7266 40.8594 85.0977 41.3184 84.9219 41.0743C85.0488 41.25 85.166 41.4258 85.2734 41.6016C85.3418 41.709 85.4004 41.8262 85.459 41.9336C85.4785 41.9727 85.6445 42.3536 85.5176 42.0508C85.5957 42.2559 85.6641 42.461 85.7227 42.6661C85.7813 42.8809 85.8301 43.0957 85.8594 43.3106C85.8008 42.9786 85.8594 43.4082 85.8691 43.4473C85.8789 43.584 85.8887 43.7207 85.8887 43.8575C85.8984 44.6192 86.5527 45.3614 87.3535 45.3223C88.1445 45.2832 88.8281 44.6778 88.8184 43.8575C88.7695 39.7754 85.459 36.4844 81.3867 36.4551C80.752 36.4454 80.127 36.4551 79.4922 36.4551C75.8691 36.4551 72.2363 36.4551 68.6133 36.4551C63.1738 36.4551 57.7344 36.4551 52.2949 36.4551C46.6406 36.4551 40.9961 36.4551 35.3418 36.4551C31.084 36.4551 26.8262 36.4551 22.5684 36.4551C19.7949 36.4551 16.6895 36.084 14.3164 37.8125C12.4414 39.1797 11.2891 41.2598 11.1816 43.584C11.1719 43.8282 11.1719 44.0723 11.1719 44.3164C11.1719 45.5469 11.1719 46.7872 11.1719 48.0176C11.1719 52.8711 11.1719 57.7247 11.1719 62.5879C11.1719 68.2032 11.1719 73.8184 11.1719 79.4239C11.1719 82.8711 11.1719 86.3184 11.1719 89.7754C11.1719 89.961 11.1621 90.1465 11.1719 90.3418C11.2305 92.4121 12.8418 93.9747 14.9024 94.0137C16.4453 94.043 17.9883 94.0137 19.5215 94.0137C24.5996 94.0137 29.668 94.0137 34.7461 94.0137C35.1465 94.0137 35.5469 94.0235 35.9375 94.0137C37.1777 93.9942 38.3496 93.5352 39.2578 92.6954C39.5801 92.4024 39.8633 92.0508 40.1563 91.7286C40.8887 90.9278 41.6016 90.1075 42.3438 89.3262C42.4609 89.1993 42.4316 89.2383 42.5586 89.1114C42.8223 88.8477 42.4024 89.1602 42.7344 88.9844C42.8613 88.9161 42.9883 88.8282 43.125 88.7696C43.0469 88.7989 42.9297 88.8184 43.1836 88.7598C43.3301 88.7207 43.4668 88.6817 43.6133 88.6524C43.3203 88.7012 43.7988 88.6524 43.8184 88.6524C43.8281 88.6524 43.8379 88.6524 43.8574 88.6524C44.0918 88.6524 44.3164 88.6524 44.5508 88.6524C47.0996 88.6524 49.6484 88.6524 52.1973 88.6524C53.2813 88.6524 54.3652 88.6524 55.4492 88.6524C55.6836 88.6524 55.918 88.6524 56.1524 88.6524C56.1621 88.6524 56.1719 88.6524 56.1816 88.6524C56.2012 88.6524 56.6699 88.7012 56.3867 88.6524C56.5039 88.6719 56.6309 88.7012 56.7481 88.7403C57.0801 88.8379 57.3242 88.9942 57.6465 89.336C58.4082 90.1465 59.1406 90.9766 59.8926 91.8067C60.166 92.1094 60.4297 92.4317 60.7324 92.7149C61.6504 93.5645 62.8125 94.0137 64.0625 94.0332C65.4297 94.0625 66.8066 94.0332 68.1738 94.0332C73.3203 94.0332 78.4668 94.0332 83.6133 94.0332C84.1113 94.0332 84.6191 94.043 85.1172 94.0332C87.168 93.9942 88.7793 92.4219 88.8379 90.3614C88.8574 89.6582 88.8379 88.9551 88.8379 88.252C88.8379 83.9649 88.8379 79.6778 88.8379 75.3907C88.8379 69.6973 88.8379 63.9942 88.8379 58.3008C88.8379 54.1114 88.8379 49.9219 88.8379 45.7325C88.8379 45.1172 88.8379 44.4922 88.8379 43.877C88.8379 43.1153 88.1641 42.3731 87.3731 42.4121C86.5625 42.4317 85.8887 43.0371 85.8887 43.8575Z" fill="#39BEB9"/>
<path d="M87.3535 50.7129C84.1406 50.7129 80.9277 50.7129 77.7149 50.7129C72.5977 50.7129 67.4805 50.7129 62.3633 50.7129C61.1914 50.7129 60.0293 50.7129 58.8574 50.7129C58.0957 50.7129 57.3535 51.3867 57.3926 52.1777C57.4317 52.9688 58.0371 53.6426 58.8574 53.6426C62.0703 53.6426 65.2832 53.6426 68.4961 53.6426C73.6133 53.6426 78.7305 53.6426 83.8477 53.6426C85.0195 53.6426 86.1817 53.6426 87.3535 53.6426C88.1152 53.6426 88.8574 52.9688 88.8184 52.1777C88.7793 51.377 88.1738 50.7129 87.3535 50.7129Z" fill="#39BEB9"/>
<path d="M41.1426 50.7129C37.9297 50.7129 34.7168 50.7129 31.5039 50.7129C26.3867 50.7129 21.2695 50.7129 16.1524 50.7129C14.9805 50.7129 13.8184 50.7129 12.6465 50.7129C11.8848 50.7129 11.1426 51.3867 11.1817 52.1777C11.2207 52.9688 11.8262 53.6426 12.6465 53.6426C15.8594 53.6426 19.0723 53.6426 22.2852 53.6426C27.4024 53.6426 32.5195 53.6426 37.6367 53.6426C38.8086 53.6426 39.9707 53.6426 41.1426 53.6426C41.9043 53.6426 42.6465 52.9688 42.6074 52.1777C42.5684 51.377 41.9629 50.7129 41.1426 50.7129Z" fill="#39BEB9"/>
<path d="M59.668 58.9062C59.668 59.1797 59.6582 59.4531 59.6387 59.7265C59.629 59.8633 59.6094 60 59.5997 60.1269C59.5606 60.5566 59.629 59.9511 59.5899 60.205C59.5118 60.7324 59.3946 61.2402 59.2383 61.748C59.17 61.9726 59.0918 62.207 59.004 62.4316C58.9942 62.4707 58.8282 62.8613 58.9551 62.5586C58.9063 62.6758 58.8477 62.7929 58.7989 62.9101C58.584 63.3789 58.3301 63.8281 58.0469 64.2578C57.9297 64.4336 57.8028 64.6093 57.6856 64.7851C57.4415 65.1269 57.8711 64.5703 57.5977 64.8925C57.5196 64.9902 57.4317 65.0879 57.3536 65.1855C57.0215 65.5664 56.6602 65.9277 56.2696 66.2695C56.1915 66.3379 56.1036 66.4062 56.0254 66.4746C55.9668 66.5234 55.7422 66.6894 55.9668 66.5234C55.7618 66.6797 55.5567 66.8261 55.3418 66.9629C54.9122 67.2461 54.4629 67.5 53.9942 67.7148C53.877 67.7734 53.7598 67.8222 53.6426 67.8711C53.7012 67.8515 53.8965 67.7734 53.6329 67.8711C53.3887 67.959 53.1446 68.0468 52.8907 68.125C52.3829 68.2812 51.875 68.3886 51.3477 68.4863C50.918 68.5644 51.6407 68.4668 51.2012 68.5058C51.0938 68.5156 50.9766 68.5254 50.8692 68.5351C50.6153 68.5547 50.3711 68.5644 50.1172 68.5644C49.8438 68.5644 49.5704 68.5644 49.2969 68.5449C49.209 68.5351 49.1211 68.5351 49.0235 68.5254C48.9649 68.5156 48.4082 68.4472 48.75 68.4961C48.2715 68.4277 47.793 68.3203 47.3243 68.1933C47.0704 68.125 46.8262 68.0371 46.5821 67.9492C46.5039 67.9199 46.4161 67.8906 46.3379 67.8613C46.1817 67.7929 46.1817 67.7929 46.3282 67.8613C46.25 67.832 46.1719 67.7929 46.0938 67.7539C45.6641 67.5586 45.2442 67.334 44.8438 67.0801C44.629 66.9433 44.4141 66.8066 44.209 66.6504C44.2188 66.6601 43.8868 66.4062 44.0528 66.5332C44.1797 66.6308 43.8379 66.3574 43.8086 66.3281C43.4571 66.0254 43.1153 65.7031 42.8028 65.3515C42.627 65.166 42.4707 64.9707 42.3047 64.7656C42.5098 65.0195 42.2461 64.6875 42.2266 64.6582C42.1485 64.5508 42.0801 64.4531 42.0118 64.3457C41.7481 63.9551 41.5137 63.5449 41.2989 63.125C41.2403 63.0078 41.1817 62.8906 41.1329 62.7734C41.1133 62.7343 40.9571 62.3437 41.0743 62.6465C40.9766 62.4023 40.8887 62.1582 40.8106 61.914C40.6543 61.4355 40.5372 60.9375 40.4493 60.4492C40.4297 60.3418 40.4102 60.2343 40.4004 60.1172C40.4493 60.4492 40.3907 60.0097 40.3907 59.9707C40.3614 59.6777 40.3418 59.3847 40.3418 59.0918C40.3223 57.8222 40.4688 56.8359 40.918 55.5859C41.0938 55.0976 41.25 54.7461 41.5528 54.1992C41.6797 53.9746 41.8165 53.75 41.9629 53.5254C42.0508 53.3984 42.1387 53.2617 42.2266 53.1347C42.2852 53.0468 42.3536 52.9687 42.4122 52.8808C42.334 52.9883 42.3438 52.9785 42.4512 52.8418C42.793 52.4414 43.1446 52.0508 43.5352 51.6992C43.711 51.5332 43.8965 51.3867 44.0821 51.2304C43.8672 51.4062 44.2383 51.1133 44.2481 51.1133C44.4043 50.9961 44.5606 50.8886 44.7266 50.791C45.1758 50.498 45.6446 50.2636 46.1231 50.0293C46.543 49.8242 45.8692 50.1172 46.3086 49.9511C46.3965 49.9121 46.4942 49.8828 46.5821 49.8437C46.9043 49.7265 47.2364 49.6191 47.5684 49.5312C47.8125 49.4726 48.0469 49.414 48.2911 49.3652C48.4375 49.3359 48.584 49.3066 48.7305 49.2871C48.4473 49.3261 48.9356 49.2675 48.9454 49.2675C49.5606 49.209 50.1758 49.1992 50.7813 49.2383C50.9375 49.248 51.084 49.2676 51.2403 49.2773C51.4161 49.2968 51.4454 49.2968 51.2989 49.2871C51.377 49.2968 51.4454 49.3066 51.5235 49.3261C51.8457 49.3847 52.1582 49.4531 52.4707 49.5312C52.7539 49.6093 53.0372 49.6972 53.3204 49.7851C53.4571 49.834 53.5938 49.8828 53.7305 49.9414C53.8965 50.0097 53.9063 50.0097 53.7793 49.9609C53.8672 50 53.9551 50.039 54.043 50.0781C54.6094 50.3418 55.1563 50.664 55.6641 51.0254C55.7813 51.1035 55.8985 51.1914 56.0157 51.2793C55.8301 51.1328 56.1426 51.3867 56.1719 51.4062C56.4258 51.6211 56.67 51.8457 56.9141 52.0898C57.4219 52.6074 57.6563 52.8808 57.9883 53.3886C58.3692 53.9551 58.711 54.5508 58.9747 55.1855C58.9063 55.0195 59.004 55.2636 59.004 55.2734C59.0723 55.4785 59.1504 55.6738 59.2188 55.8789C59.336 56.2402 59.4336 56.6015 59.502 56.9726C59.5215 57.0801 59.5411 57.1875 59.5606 57.2949C59.5801 57.4023 59.5997 57.5097 59.6094 57.6172C59.5899 57.5 59.5997 57.5293 59.6192 57.7148C59.6387 58.1347 59.668 58.5156 59.668 58.9062C59.6778 59.6679 60.3418 60.4101 61.1329 60.3711C61.9239 60.332 62.6075 59.7265 62.5977 58.9062C62.5586 53.2226 58.6426 48.0761 53.086 46.6894C47.7051 45.3613 41.9434 47.7539 39.1309 52.539C36.3965 57.1972 37.0313 63.1445 40.5274 67.207C43.7012 70.8886 48.9747 72.3828 53.6231 70.9765C58.1739 69.5996 61.7579 65.5957 62.4415 60.8496C62.5293 60.205 62.5977 59.5605 62.5977 58.9062C62.5977 58.1445 61.9239 57.4023 61.1329 57.4414C60.3321 57.4804 59.668 58.0859 59.668 58.9062Z" fill="#39BEB9"/>
<path d="M53.3692 58.9063C53.3692 59.043 53.3594 59.1797 53.3496 59.3164C53.3496 59.375 53.3008 59.5996 53.3496 59.3262C53.3106 59.541 53.2617 59.7559 53.1934 59.9707C53.1934 59.9609 53.0567 60.3613 53.1348 60.166C53.2129 59.9707 53.0469 60.3516 53.0469 60.3418C52.9395 60.5566 52.8125 60.752 52.6856 60.9473C52.5488 61.1426 52.9102 60.7129 52.6367 61.0059C52.5781 61.0645 52.5196 61.1328 52.461 61.1914C52.3145 61.3477 52.1582 61.4941 51.9922 61.6211C52.2168 61.4355 51.7383 61.7773 51.6504 61.8262C51.5528 61.875 51.4649 61.9238 51.3672 61.9727C51.3086 62.002 51.25 62.0313 51.1914 62.0508C51.3379 61.9824 51.3379 61.9824 51.1817 62.041C50.9668 62.0996 50.7617 62.1582 50.5469 62.2168C50.4883 62.2266 50.2637 62.2559 50.5371 62.2266C50.4199 62.2363 50.3125 62.2461 50.1953 62.2559C49.9903 62.2656 49.7852 62.2559 49.5801 62.2461C49.1602 62.2266 49.834 62.3242 49.4336 62.2266C49.3067 62.1973 49.1797 62.168 49.0528 62.1289C48.9453 62.0996 48.8477 62.0606 48.7403 62.0313C48.5059 61.9531 49.0332 62.1875 48.6719 62.002C48.4766 61.9043 48.291 61.8066 48.1055 61.6895C48.0371 61.6406 47.959 61.5918 47.8906 61.543C48.1153 61.709 47.8906 61.543 47.8418 61.4941C47.666 61.3281 47.5098 61.1719 47.3438 60.9961C47.0703 60.7031 47.4707 61.2207 47.2656 60.8887C47.2168 60.8203 47.168 60.7422 47.1289 60.6738C47.0215 60.4883 46.9141 60.3027 46.8262 60.0977C46.9336 60.3516 46.8457 60.1367 46.836 60.0879C46.7969 59.9609 46.7578 59.834 46.7188 59.707C46.6992 59.6191 46.6797 59.5313 46.6602 59.4531C46.6309 59.2773 46.6309 59.2773 46.6504 59.4434C46.6406 59.375 46.6406 59.3066 46.6309 59.2383C46.6211 59.0332 46.6113 58.8281 46.6309 58.623C46.6309 58.5742 46.6992 58.1445 46.6406 58.4766C46.6602 58.3887 46.6699 58.3008 46.6895 58.2129C46.7383 57.998 46.8067 57.793 46.875 57.5879C46.7871 57.8516 46.875 57.5879 46.9043 57.5195C46.9727 57.3828 47.041 57.2559 47.1192 57.1191C47.168 57.0508 47.2168 56.9727 47.2559 56.9043C47.461 56.5625 47.1387 57.0313 47.2949 56.8457C47.4317 56.6797 47.5781 56.5234 47.7344 56.377C47.8125 56.3086 47.8906 56.2305 47.9785 56.1719C47.7735 56.3379 47.9492 56.2012 47.9883 56.1719C48.2129 56.0352 48.4278 55.9082 48.6621 55.791C48.916 55.6641 48.7305 55.7715 48.6719 55.791C48.7988 55.752 48.916 55.7031 49.043 55.6641C49.1309 55.6445 49.209 55.6152 49.2969 55.5957C49.336 55.5859 49.7656 55.5176 49.4336 55.5566C49.6387 55.5371 49.8438 55.5273 50.0488 55.5273C50.166 55.5273 50.2735 55.5371 50.3906 55.5469C50.8008 55.5762 50.1367 55.4785 50.5371 55.5664C50.8008 55.625 51.0449 55.6934 51.2988 55.7813C51.0547 55.6934 51.25 55.7617 51.3086 55.7813C51.4453 55.8496 51.5821 55.918 51.709 55.9961C51.7969 56.0547 51.8848 56.1133 51.9824 56.1719C52.3047 56.3672 51.8164 55.9961 52.0899 56.25C52.2852 56.4258 52.461 56.6016 52.6367 56.7969C52.8223 57.002 52.6856 56.8555 52.6465 56.8066C52.7344 56.9336 52.8125 57.0508 52.8906 57.1875C52.9492 57.2754 52.9981 57.373 53.0469 57.4707C53.0664 57.5098 53.2129 57.8809 53.1055 57.5977C53.1934 57.8516 53.2617 58.0957 53.3203 58.3594C53.3887 58.6328 53.3399 58.4277 53.3301 58.3691C53.3594 58.5449 53.3692 58.7305 53.3692 58.9063C53.3789 59.668 54.0332 60.4102 54.834 60.3711C55.6153 60.332 56.3086 59.7266 56.2988 58.9063C56.2598 56.2305 54.5996 53.8965 52.0899 52.9688C49.6973 52.0898 46.8262 52.8711 45.2051 54.834C43.5059 56.8945 43.2031 59.8535 44.6094 62.1582C46.0156 64.4629 48.711 65.5762 51.3379 65.0586C54.2285 64.4824 56.2695 61.7969 56.3086 58.9063C56.3184 58.1445 55.625 57.4023 54.8438 57.4414C54.0332 57.4805 53.3789 58.0859 53.3692 58.9063Z" fill="#39BEB9"/>
<path d="M7.66603 78.6817C9.32618 78.6817 10.9863 78.6817 12.6465 78.6817C12.1582 78.1934 11.6699 77.7051 11.1817 77.2168C11.1817 79.7754 11.1817 82.334 11.1817 84.8926C11.1817 85.2637 11.1817 85.6348 11.1817 86.0059C11.6699 85.5176 12.1582 85.0293 12.6465 84.541C10.9863 84.541 9.32618 84.541 7.66603 84.541C8.15431 85.0293 8.64259 85.5176 9.13087 86.0059C9.13087 83.4473 9.13087 80.8887 9.13087 78.3301C9.13087 77.959 9.13087 77.5879 9.13087 77.2168C9.13087 76.4551 8.45704 75.7129 7.66603 75.752C6.87501 75.791 6.20118 76.3965 6.20118 77.2168C6.20118 79.7754 6.20118 82.334 6.20118 84.8926C6.20118 85.2637 6.20118 85.6348 6.20118 86.0059C6.20118 86.7969 6.87501 87.4707 7.66603 87.4707C9.32618 87.4707 10.9863 87.4707 12.6465 87.4707C13.4375 87.4707 14.1113 86.7969 14.1113 86.0059C14.1113 83.4473 14.1113 80.8887 14.1113 78.3301C14.1113 77.959 14.1113 77.5879 14.1113 77.2168C14.1113 76.4258 13.4375 75.752 12.6465 75.752C10.9863 75.752 9.32618 75.752 7.66603 75.752C6.90431 75.752 6.16212 76.4258 6.20118 77.2168C6.24025 78.0176 6.84572 78.6817 7.66603 78.6817Z" fill="#39BEB9"/>
<path d="M90.8691 77.2168C90.8691 79.7754 90.8691 82.334 90.8691 84.8926C90.8691 85.2637 90.8691 85.6348 90.8691 86.0059C91.3574 85.5176 91.8457 85.0293 92.334 84.541C90.6738 84.541 89.0137 84.541 87.3535 84.541C87.8418 85.0293 88.3301 85.5176 88.8184 86.0059C88.8184 83.4473 88.8184 80.8887 88.8184 78.3301C88.8184 77.959 88.8184 77.5879 88.8184 77.2168C88.3301 77.7051 87.8418 78.1934 87.3535 78.6817C89.0137 78.6817 90.6738 78.6817 92.334 78.6817C93.0957 78.6817 93.8379 78.0078 93.7988 77.2168C93.7598 76.4258 93.1543 75.752 92.334 75.752C90.6738 75.752 89.0137 75.752 87.3535 75.752C86.5625 75.752 85.8887 76.4258 85.8887 77.2168C85.8887 79.7754 85.8887 82.334 85.8887 84.8926C85.8887 85.2637 85.8887 85.6348 85.8887 86.0059C85.8887 86.7969 86.5625 87.4707 87.3535 87.4707C89.0137 87.4707 90.6738 87.4707 92.334 87.4707C93.125 87.4707 93.7988 86.7969 93.7988 86.0059C93.7988 83.4473 93.7988 80.8887 93.7988 78.3301C93.7988 77.959 93.7988 77.5879 93.7988 77.2168C93.7988 76.4551 93.125 75.7129 92.334 75.752C91.543 75.791 90.8691 76.3965 90.8691 77.2168Z" fill="#39BEB9"/>
<path d="M87.3535 18.584C85.2734 18.584 83.2031 18.584 81.1231 18.584C77.2363 18.584 73.3496 18.584 69.4531 18.584C67.2656 18.584 65.0781 18.5645 62.8809 18.584C59.9902 18.6035 57.2461 20.1758 55.8398 22.7149C54.9512 24.3262 54.8242 26.0254 54.8242 27.8125C54.8242 31.0938 54.8242 34.375 54.8242 37.6563C54.8242 37.7442 54.8242 37.8223 54.8242 37.9102C55.3125 37.4219 55.8008 36.9336 56.2891 36.4453C52.6172 36.4453 48.9453 36.4453 45.2734 36.4453C44.7461 36.4453 44.2188 36.4453 43.6914 36.4453C44.1797 36.9336 44.668 37.4219 45.1563 37.9102C45.1563 34.2481 45.1563 30.5957 45.1563 26.9336C45.1563 26.2207 45.1563 25.5176 45.2051 24.8145C45.2246 24.5899 45.2441 24.3653 45.2637 24.1407C45.2734 24.0528 45.2832 23.9649 45.293 23.877C45.3418 23.4473 45.2637 24.0625 45.3027 23.7989C45.3711 23.3789 45.4395 22.9688 45.5274 22.5586C45.7129 21.7285 45.9473 20.8985 46.2402 20.0977C46.3086 19.9121 46.377 19.7364 46.4551 19.5508C46.5625 19.2871 46.4844 19.4825 46.4551 19.541C46.4941 19.4434 46.543 19.3457 46.582 19.2481C46.7578 18.8575 46.9531 18.4668 47.1484 18.086C47.5391 17.3535 47.9883 16.6407 48.4766 15.9668C48.5742 15.8301 48.6816 15.6934 48.7793 15.5567C48.6035 15.7813 48.7793 15.5567 48.8281 15.4981C48.8965 15.42 48.9648 15.3321 49.0332 15.2539C49.3066 14.9219 49.5898 14.6094 49.8828 14.2969C50.4395 13.711 51.0352 13.1641 51.6699 12.6465C51.7383 12.5977 51.8066 12.5391 51.8652 12.4903C51.6406 12.666 51.8652 12.4903 51.9238 12.4512C52.0801 12.334 52.2363 12.2266 52.3926 12.1094C52.7441 11.8653 53.1055 11.6309 53.4668 11.4063C54.1699 10.9864 54.8926 10.6153 55.6445 10.2832C55.8984 10.166 55.7031 10.2539 55.6543 10.2832C55.752 10.2442 55.8594 10.2051 55.957 10.166C56.1426 10.0977 56.3184 10.0293 56.5039 9.96097C56.9141 9.81448 57.334 9.67776 57.7539 9.56058C58.1348 9.45315 58.5254 9.3555 58.9063 9.27737C59.1211 9.22855 59.3457 9.18948 59.5606 9.15042C59.6484 9.13089 59.7363 9.12112 59.8242 9.10159C59.9121 9.09183 60.2344 9.043 59.9609 9.0723C61.2891 8.89651 62.627 8.91605 63.9746 8.91605C68.252 8.91605 72.5293 8.91605 76.8066 8.91605C80.2539 8.91605 83.7012 8.96487 87.1387 8.91605C87.1973 8.91605 87.2559 8.91605 87.3145 8.91605C88.0762 8.91605 88.8184 8.24222 88.7793 7.4512C88.7402 6.66019 88.1348 5.98636 87.3145 5.98636C84.3164 5.98636 81.3281 5.98636 78.3301 5.98636C73.7988 5.98636 69.2773 5.98636 64.7461 5.98636C63.7402 5.98636 62.7246 5.96683 61.7188 5.99612C58.1348 6.12308 54.5703 7.20706 51.5527 9.15042C45.752 12.8711 42.2168 19.3555 42.207 26.2403C42.1973 30.0098 42.207 33.7793 42.207 37.5586C42.207 37.6758 42.207 37.8028 42.207 37.92C42.207 38.711 42.8809 39.3848 43.6719 39.3848C47.3438 39.3848 51.0156 39.3848 54.6875 39.3848C55.2148 39.3848 55.7422 39.3848 56.2695 39.3848C57.0606 39.3848 57.7344 38.711 57.7344 37.92C57.7344 34.9805 57.7344 32.041 57.7344 29.0918C57.7344 28.4375 57.7344 27.7832 57.7344 27.1289C57.7344 26.9825 57.7344 26.836 57.7344 26.6895C57.7344 26.6504 57.7344 26.6114 57.7344 26.5625C57.7344 26.4063 57.7441 26.2403 57.7539 26.084C57.7637 25.9961 57.7734 25.9082 57.7832 25.8106C57.7539 26.0254 57.7832 25.8594 57.8027 25.7422C57.8711 25.42 57.9492 25.0977 58.0664 24.795C58.0859 24.7364 58.1152 24.6778 58.1348 24.6094C58.2129 24.3946 58.0371 24.8047 58.1445 24.5996C58.2227 24.4434 58.291 24.2871 58.3789 24.1407C58.457 24.0137 58.5352 23.877 58.6133 23.7598C58.6524 23.7012 58.9453 23.3106 58.7598 23.5352C58.9746 23.2715 59.209 23.0176 59.4629 22.793C59.5117 22.7442 59.8145 22.5 59.707 22.5782C59.5996 22.6563 59.9121 22.4317 59.9707 22.3926C60.2539 22.2071 60.5566 22.041 60.8691 21.8946C60.6152 22.0117 60.9766 21.8555 61.0645 21.8262C61.2305 21.7676 61.3965 21.7188 61.5625 21.67C61.709 21.6309 61.8652 21.6016 62.0117 21.5723C62.0606 21.5625 62.2949 21.5235 62.0215 21.5625C62.1094 21.5528 62.1973 21.543 62.2949 21.5332C62.9785 21.4746 63.6719 21.5137 64.3555 21.5137C65.752 21.5137 67.1582 21.5137 68.5547 21.5137C72.3633 21.5137 76.1719 21.5137 79.9707 21.5137C82.3731 21.5137 84.7852 21.5723 87.1875 21.5137C87.2266 21.5137 87.2656 21.5137 87.3047 21.5137C88.0664 21.5137 88.8086 20.8399 88.7695 20.0489C88.7793 19.2481 88.1738 18.584 87.3535 18.584Z" fill="#39BEB9"/>
</g>
<defs>
<filter id="filter0_d" x="-4" y="0" width="108" height="108" filterUnits="userSpaceOnUse" color-interpolation-filters="sRGB">
<feFlood flood-opacity="0" result="BackgroundImageFix"/>
<feColorMatrix in="SourceAlpha" type="matrix" values="0 0 0 0 0 0 0 0 0 0 0 0 0 0 0 0 0 0 127 0"/>
<feOffset dy="4"/>
<feGaussianBlur stdDeviation="2"/>
<feColorMatrix type="matrix" values="0 0 0 0 0 0 0 0 0 0 0 0 0 0 0 0 0 0 0.25 0"/>
<feBlend mode="normal" in2="BackgroundImageFix" result="effect1_dropShadow"/>
<feBlend mode="normal" in="SourceGraphic" in2="effect1_dropShadow" result="shape"/>
</filter>
</defs>
</svg>
