<svg width="265" height="154" viewBox="0 0 265 154" fill="none" xmlns="http://www.w3.org/2000/svg">
<g filter="url(#filter0_f)">
<path d="M114.127 8H14.8731C8.8986 8 4 12.6982 4 18.4772V138.689C4 144.468 8.8986 149.167 14.8731 149.167H114.127C120.124 149.167 125 144.468 125 138.689V18.4772C125 12.6982 120.124 8 114.127 8ZM121.566 138.689C121.566 142.638 118.247 145.858 114.127 145.858H14.8731C10.7756 145.858 7.4336 142.638 7.4336 138.689V35.1305H121.566V86.91V138.689ZM121.566 31.8219H7.4336V18.4772C7.4336 14.529 10.7756 11.3086 14.8731 11.3086H114.127C118.247 11.3086 121.566 14.529 121.566 18.4772V31.8219Z" fill="#39BEB9"/>
<path d="M64.4999 13.36C59.8074 13.36 55.9846 17.0436 55.9846 21.5653C55.9846 26.1091 59.8074 29.7927 64.4999 29.7927C69.2154 29.7927 73.0382 26.1091 73.0382 21.5653C73.0382 17.0436 69.2154 13.36 64.4999 13.36ZM64.4999 26.4841C61.7073 26.4841 59.4182 24.2783 59.4182 21.5653C59.4182 18.8743 61.7073 16.6686 64.4999 16.6686C67.3155 16.6686 69.6046 18.8743 69.6046 21.5653C69.6046 24.2783 67.3155 26.4841 64.4999 26.4841Z" fill="#39BEB9"/>
<path d="M110.128 23.1522H86.813C85.8651 23.1522 85.0962 23.8931 85.0962 24.8065C85.0962 25.7199 85.8651 26.4608 86.813 26.4608H110.128C111.076 26.4608 111.845 25.7199 111.845 24.8065C111.845 23.8931 111.076 23.1522 110.128 23.1522Z" fill="#39BEB9"/>
<path d="M110.128 16.6772H86.813C85.8651 16.6772 85.0962 17.4182 85.0962 18.3315C85.0962 19.2449 85.8651 19.9858 86.813 19.9858H110.128C111.076 19.9858 111.845 19.2449 111.845 18.3315C111.845 17.4182 111.076 16.6772 110.128 16.6772Z" fill="#39BEB9"/>
<path d="M42.2078 23.1522H18.8923C16.6215 23.1522 16.6202 26.4608 18.8923 26.4608H42.2076C43.1555 26.4608 43.9244 25.7199 43.9244 24.8065C43.9244 23.8931 43.1555 23.1522 42.2078 23.1522Z" fill="#39BEB9"/>
<path d="M42.2076 16.6772H18.8921C17.9442 16.6772 17.1753 17.4182 17.1753 18.3315C17.1753 19.2449 17.9442 19.9858 18.8921 19.9858H42.2074C43.1553 19.9858 43.9242 19.2449 43.9242 18.3315C43.9244 17.4182 43.1553 16.6772 42.2076 16.6772Z" fill="#39BEB9"/>
<path d="M64.5001 45.8503C38.9541 45.8503 18.1923 65.8784 18.1923 90.4943C18.1923 115.11 38.9541 135.138 64.5001 135.138C90.046 135.138 110.831 115.11 110.831 90.4943C110.831 65.8784 90.046 45.8503 64.5001 45.8503ZM64.5001 131.83C40.854 131.83 21.6259 113.279 21.6259 90.4943C21.6259 67.7091 40.854 49.1589 64.5001 49.1589C88.169 49.1589 107.397 67.7091 107.397 90.4943C107.397 113.279 88.169 131.83 64.5001 131.83Z" fill="#39BEB9"/>
<path d="M64.5 54.6732C44.0129 54.6732 27.3485 70.753 27.3485 90.4943C27.3485 110.258 44.0129 126.315 64.5 126.315C85.0101 126.315 101.674 110.258 101.674 90.4943C101.674 70.753 85.0101 54.6732 64.5 54.6732ZM64.5 123.007C45.9128 123.007 30.7821 108.427 30.7821 90.4943C30.7821 72.5617 45.9128 57.9818 64.5 57.9818C83.1101 57.9818 98.2409 72.5617 98.2409 90.4943C98.2409 108.427 83.1101 123.007 64.5 123.007Z" fill="#39BEB9"/>
</g>
<path d="M186.585 46H155.415C153.538 46 152 47.5312 152 49.4147V88.5936C152 90.4771 153.538 92.0083 155.415 92.0083H186.585C188.469 92.0083 190 90.4771 190 88.5936V49.4147C190 47.5312 188.469 46 186.585 46ZM188.922 88.5936C188.922 89.8804 187.879 90.93 186.585 90.93H155.415C154.128 90.93 153.078 89.8804 153.078 88.5936V54.8422H188.922V88.5936ZM188.922 53.7639H153.078V49.4147C153.078 48.1279 154.128 47.0783 155.415 47.0783H186.585C187.879 47.0783 188.922 48.1279 188.922 49.4147V53.7639Z" fill="#39BEB9"/>
<path d="M171 47.7469C169.526 47.7469 168.326 48.9475 168.326 50.4212C168.326 51.9021 169.526 53.1026 171 53.1026C172.481 53.1026 173.681 51.9021 173.681 50.4212C173.681 48.9475 172.481 47.7469 171 47.7469ZM171 52.0243C170.123 52.0243 169.404 51.3054 169.404 50.4212C169.404 49.5441 170.123 48.8253 171 48.8253C171.884 48.8253 172.603 49.5441 172.603 50.4212C172.603 51.3054 171.884 52.0243 171 52.0243Z" fill="#39BEB9"/>
<path d="M185.33 50.9382H178.008C177.71 50.9382 177.468 51.1797 177.468 51.4774C177.468 51.7751 177.71 52.0166 178.008 52.0166H185.33C185.627 52.0166 185.869 51.7751 185.869 51.4774C185.869 51.1797 185.627 50.9382 185.33 50.9382Z" fill="#39BEB9"/>
<path d="M185.33 48.828H178.008C177.71 48.828 177.468 49.0695 177.468 49.3672C177.468 49.6649 177.71 49.9063 178.008 49.9063H185.33C185.627 49.9063 185.869 49.6649 185.869 49.3672C185.869 49.0695 185.627 48.828 185.33 48.828Z" fill="#39BEB9"/>
<path d="M163.999 50.9382H156.677C155.964 50.9382 155.963 52.0166 156.677 52.0166H163.999C164.297 52.0166 164.538 51.7751 164.538 51.4774C164.538 51.1797 164.297 50.9382 163.999 50.9382Z" fill="#39BEB9"/>
<path d="M163.999 48.828H156.677C156.379 48.828 156.138 49.0695 156.138 49.3672C156.138 49.6649 156.379 49.9063 156.677 49.9063H163.999C164.297 49.9063 164.538 49.6649 164.538 49.3672C164.538 49.0695 164.297 48.828 163.999 48.828Z" fill="#39BEB9"/>
<path d="M171 58.3359C162.977 58.3359 156.457 64.8634 156.457 72.8861C156.457 80.9088 162.977 87.4362 171 87.4362C179.023 87.4362 185.55 80.9088 185.55 72.8861C185.55 64.8634 179.023 58.3359 171 58.3359ZM171 86.3579C163.574 86.3579 157.535 80.3121 157.535 72.8861C157.535 65.46 163.574 59.4143 171 59.4143C178.433 59.4143 184.472 65.46 184.472 72.8861C184.472 80.3121 178.433 86.3579 171 86.3579Z" fill="#39BEB9"/>
<path d="M171 61.2114C164.566 61.2114 159.333 66.4521 159.333 72.886C159.333 79.3272 164.566 84.5606 171 84.5606C177.441 84.5606 182.675 79.3272 182.675 72.886C182.675 66.4521 177.441 61.2114 171 61.2114ZM171 83.4823C165.163 83.4823 160.411 78.7305 160.411 72.886C160.411 67.0415 165.163 62.2897 171 62.2897C176.845 62.2897 181.596 67.0415 181.596 72.886C181.596 78.7305 176.845 83.4823 171 83.4823Z" fill="#39BEB9"/>
<path d="M242.663 43.2172C240.397 36.5809 234.084 31.725 226.639 31.725H135.996C126.608 31.725 119 39.3325 119 48.7205V87.5676C119 96.9556 126.608 104.563 135.996 104.563H196.856V112.009C196.856 117.512 198.798 122.692 202.197 126.9L215.794 143.248C217.251 145.029 219.355 146 221.621 146H257.392C261.601 146 265 142.601 265 138.554V68.3059C265 55.3569 255.126 44.674 242.663 43.2172ZM256.907 138.069H221.945L208.51 121.882C206.244 119.131 204.949 115.732 204.949 112.171V76.0753H207.539C213.366 76.0753 218.222 80.7693 218.222 86.7582V105.372H226.962C236.35 105.372 243.796 97.7649 243.796 88.3769V51.6341C251.404 53.4146 256.907 60.2128 256.907 68.3059V138.069ZM127.093 87.5676V48.7205C127.093 43.8647 131.14 39.8181 135.996 39.8181H226.639C231.494 39.8181 235.541 43.8647 235.541 48.7205V87.5676C235.541 92.4234 231.494 96.47 226.639 96.47H226.153V86.5964C226.153 76.2372 217.736 67.9822 207.539 67.9822H204.787C200.417 67.9822 196.856 71.5432 196.856 75.9135V96.6319H135.996C131.14 96.47 127.093 92.5853 127.093 87.5676Z" fill="#5B5B5B"/>
<path d="M137.614 62.4791C135.348 62.4791 133.568 64.2596 133.568 66.5257V71.3816C133.568 73.6476 135.348 75.4281 137.614 75.4281C139.88 75.4281 141.661 73.6476 141.661 71.3816V66.5257C141.661 64.4215 139.88 62.4791 137.614 62.4791Z" fill="#5B5B5B"/>
<path d="M150.078 4.04656V11.4922C150.078 13.7583 151.858 15.5388 154.124 15.5388C156.39 15.5388 158.171 13.7583 158.171 11.4922V4.04656C158.171 1.78049 156.39 0 154.124 0C151.858 0 150.078 1.78049 150.078 4.04656Z" fill="#5B5B5B"/>
<path d="M172.091 27.6785H176.461C178.727 27.6785 180.508 25.898 180.508 23.6319C180.508 21.3658 178.727 19.5853 176.461 19.5853H172.253C169.987 19.5853 168.206 21.3658 168.206 23.6319C168.206 25.898 169.987 27.6785 172.091 27.6785Z" fill="#5B5B5B"/>
<path d="M132.758 27.6785H136.967C139.233 27.6785 141.013 25.898 141.013 23.6319C141.013 21.3658 139.233 19.5853 136.967 19.5853H132.758C130.492 19.5853 128.712 21.3658 128.712 23.6319C128.712 25.898 130.492 27.6785 132.758 27.6785Z" fill="#5B5B5B"/>
<path d="M140.528 17.3193C141.337 18.1286 142.308 18.4523 143.441 18.4523C144.574 18.4523 145.545 18.1286 146.355 17.3193C147.973 15.7007 147.973 13.1109 146.355 11.6541L142.47 7.93125C140.851 6.31263 138.262 6.31263 136.805 7.93125C135.186 9.54988 135.186 12.1397 136.805 13.5964L140.528 17.3193Z" fill="#5B5B5B"/>
<path d="M172.414 7.93125C170.796 6.31263 168.206 6.31263 166.749 7.93125L163.026 11.6541C161.408 13.2727 161.408 15.8625 163.026 17.3193C163.836 18.1286 164.807 18.4523 165.94 18.4523C167.073 18.4523 168.044 18.1286 168.854 17.3193L172.576 13.5964C174.033 11.9778 174.033 9.38802 172.414 7.93125Z" fill="#5B5B5B"/>
<defs>
<filter id="filter0_f" x="0" y="4" width="129" height="149.167" filterUnits="userSpaceOnUse" color-interpolation-filters="sRGB">
<feFlood flood-opacity="0" result="BackgroundImageFix"/>
<feBlend mode="normal" in="SourceGraphic" in2="BackgroundImageFix" result="shape"/>
<feGaussianBlur stdDeviation="2" result="effect1_foregroundBlur"/>
</filter>
</defs>
</svg>
