<svg width="100" height="104" viewBox="0 0 100 104" fill="none" xmlns="http://www.w3.org/2000/svg">
<g filter="url(#filter0_d)">
<path d="M68.9062 19.248C68.9062 20.5761 68.9062 21.9042 68.9062 23.2421C68.9062 26.582 68.9062 29.9121 68.9062 33.2519C68.9062 37.6074 68.9062 41.9628 68.9062 46.3183C68.9062 50.7128 68.9062 55.0976 68.9062 59.4921C68.9062 62.9199 68.9062 66.3574 68.9062 69.7851C68.9062 71.2988 68.916 72.8222 68.9062 74.3359C68.9062 74.3457 68.9062 74.3457 68.9062 74.3554C68.9062 74.4433 68.9062 74.541 68.8965 74.6289C68.8965 74.6191 68.8574 75.0585 68.8867 74.8339C68.9063 74.6386 68.8574 74.9902 68.8477 75.0292C68.8086 75.1953 68.7695 75.371 68.7109 75.5371C68.7109 75.5273 68.5742 75.9277 68.6523 75.7226C68.7207 75.5566 68.6133 75.8007 68.5938 75.8398C68.5059 76.0156 68.418 76.1816 68.3105 76.3378C68.2617 76.4062 68.2129 76.4746 68.1738 76.5527C68.0273 76.7773 68.2422 76.4843 68.1348 76.6113C68.0078 76.7578 67.8809 76.8945 67.7441 77.0312C67.6758 77.0898 67.3242 77.3828 67.5586 77.207C67.2559 77.4316 66.9141 77.6367 66.5723 77.7831C66.8359 77.666 66.4062 77.832 66.3184 77.8515C66.1328 77.9101 65.9375 77.9492 65.7422 77.9882C65.5176 78.0273 65.9668 77.9687 65.7324 77.9882C65.6445 77.998 65.5566 77.998 65.459 78.0078C65.3906 78.0078 65.3223 78.0078 65.2539 78.0078C64.5898 78.0175 63.9356 78.0078 63.2715 78.0078C59.5606 78.0078 55.8496 78.0078 52.1387 78.0078C47.9199 78.0078 43.7012 78.0078 39.4922 78.0078C38.1934 78.0078 36.8945 78.0078 35.5957 78.0078C35.332 78.0078 35.0684 78.0078 34.8047 78.0078C34.7852 78.0078 34.7656 78.0078 34.7461 78.0078C34.7461 78.0078 34.7461 78.0078 34.7363 78.0078C34.6484 78.0078 34.5508 78.0078 34.4629 77.998C34.4238 77.998 33.9941 77.9394 34.3164 77.998C33.9746 77.9394 33.6426 77.8515 33.3105 77.7343C33.5938 77.832 33.0859 77.6269 33.0176 77.5878C32.832 77.4902 32.6563 77.373 32.4805 77.246C32.2949 77.1191 32.6465 77.3925 32.4805 77.246C32.4219 77.1874 32.3535 77.1386 32.2949 77.08C32.1582 76.9531 32.0313 76.8066 31.8945 76.6699C31.8555 76.6308 31.7285 76.455 31.8848 76.6699C31.8359 76.6015 31.7871 76.5331 31.7383 76.4648C31.6211 76.289 31.5137 76.1035 31.416 75.9179C31.377 75.8398 31.3379 75.7617 31.3086 75.6835C31.3379 75.7421 31.3867 75.9277 31.3184 75.6738C31.2695 75.5078 31.2109 75.3417 31.1719 75.1757C31.1523 75.0878 31.1328 75 31.1133 74.9218C31.0254 74.5214 31.123 75.0976 31.1035 74.8535C31.0938 74.6972 31.084 74.541 31.084 74.3847C31.084 74.2871 31.084 74.1894 31.084 74.0917C31.084 73.3984 31.084 72.705 31.084 72.0117C31.084 69.082 31.084 66.1523 31.084 63.2226C31.084 59.0234 31.084 54.8242 31.084 50.6347C31.084 46.1621 31.084 41.6894 31.084 37.2167C31.084 33.457 31.084 29.6874 31.084 25.9277C31.084 23.8574 31.084 21.7871 31.084 19.7167C31.084 19.58 31.084 19.4433 31.084 19.3066C31.084 19.2968 31.084 19.2968 31.084 19.2871C31.084 19.1503 31.0938 19.0136 31.1035 18.8769C31.1133 18.457 31.0645 19.0527 31.1133 18.8085C31.1328 18.7011 31.1523 18.5937 31.1816 18.4863C31.2305 18.291 31.2891 18.1152 31.3477 17.9296C31.416 17.7148 31.25 18.1249 31.3477 17.9199C31.3867 17.8417 31.416 17.7636 31.4551 17.6855C31.543 17.5195 31.6406 17.3535 31.748 17.1874C31.7969 17.1191 31.8457 17.0507 31.8945 16.9824C31.7676 17.1484 31.8652 17.0214 31.9434 16.9335C32.0703 16.7968 32.207 16.6601 32.3438 16.5234C32.4023 16.4648 32.4707 16.416 32.5391 16.3574C32.4902 16.3964 32.3145 16.5039 32.5488 16.3574C32.6953 16.2597 32.832 16.1718 32.9785 16.0839C33.0566 16.0449 33.125 16.0058 33.2031 15.9667C33.2422 15.9472 33.6133 15.8007 33.3203 15.9081C33.4863 15.8496 33.6426 15.791 33.8184 15.7519C33.9062 15.7324 33.9844 15.7128 34.0723 15.6933C34.0625 15.6933 34.4922 15.6249 34.2676 15.6542C34.082 15.6738 34.3652 15.6445 34.4043 15.6445C34.4922 15.6347 34.5801 15.6347 34.6777 15.6347C34.707 15.6347 34.7266 15.6347 34.7559 15.6347C34.9512 15.6347 35.1465 15.6347 35.3418 15.6347C38.457 15.6347 41.5723 15.6347 44.6875 15.6347C49.0625 15.6347 53.4375 15.6347 57.8125 15.6347C60.2832 15.6347 62.7441 15.6152 65.2148 15.6347C65.2344 15.6347 65.2441 15.6347 65.2637 15.6347C65.3125 15.6347 65.3613 15.6347 65.4004 15.6347C65.4785 15.6347 65.9863 15.6933 65.6738 15.6445C65.8691 15.6738 66.0645 15.7128 66.25 15.7714C66.3184 15.791 66.8555 15.9863 66.5723 15.8593C66.8848 15.996 67.1777 16.1718 67.4609 16.3574C67.6855 16.5039 67.5098 16.3964 67.4707 16.3574C67.5391 16.416 67.5977 16.4648 67.666 16.5234C67.8027 16.6503 67.9395 16.7871 68.0664 16.9335C68.0957 16.9628 68.2617 17.1679 68.1543 17.0312C68.0469 16.8945 68.2031 17.0996 68.2324 17.1386C68.3398 17.2949 68.4375 17.4609 68.5254 17.6269C68.5742 17.7148 68.7402 18.1249 68.6426 17.8613C68.7012 18.0273 68.7598 18.1835 68.7988 18.3593C68.8477 18.5253 68.877 18.7011 68.9062 18.8769C68.8574 18.5839 68.8965 18.8769 68.9062 18.955C68.9062 19.0234 68.9062 19.1406 68.9062 19.248C68.916 20.0097 69.5703 20.7519 70.3711 20.7128C71.1523 20.6738 71.8457 20.0683 71.8359 19.248C71.7871 15.6347 68.8672 12.7148 65.2539 12.666C64.5801 12.6562 63.8965 12.666 63.2227 12.666C59.4141 12.666 55.6152 12.666 51.8066 12.666C47.5684 12.666 43.3398 12.666 39.1016 12.666C37.8613 12.666 36.6309 12.666 35.3906 12.666C35.1758 12.666 34.9707 12.666 34.7559 12.666C33.1641 12.6855 31.6895 13.2421 30.4688 14.2578C28.9063 15.5566 28.1641 17.4999 28.1641 19.4921C28.1641 20.1757 28.1641 20.8593 28.1641 21.5331C28.1641 24.5214 28.1641 27.4999 28.1641 30.4882C28.1641 34.7558 28.1641 39.0234 28.1641 43.291C28.1641 47.8222 28.1641 52.3437 28.1641 56.875C28.1641 60.6445 28.1641 64.4238 28.1641 68.1933C28.1641 70.1562 28.1641 72.1191 28.1641 74.082C28.1641 76.0351 28.8672 77.9589 30.3711 79.248C31.6016 80.3124 33.125 80.8984 34.7559 80.9179C34.9609 80.9179 35.1563 80.9179 35.3613 80.9179C38.5449 80.9179 41.7383 80.9179 44.9219 80.9179C49.3555 80.9179 53.7988 80.9179 58.2324 80.9179C60.5762 80.9179 62.9199 80.9374 65.2539 80.9179C68.7988 80.8789 71.7383 78.0371 71.8359 74.4726C71.8457 74.0722 71.8359 73.6816 71.8359 73.2812C71.8359 70.7714 71.8359 68.2519 71.8359 65.7421C71.8359 61.6992 71.8359 57.6464 71.8359 53.6035C71.8359 49.0234 71.8359 44.4531 71.8359 39.873C71.8359 35.8203 71.8359 31.7675 71.8359 27.7148C71.8359 25.2246 71.8359 22.7441 71.8359 20.2539C71.8359 19.9121 71.8359 19.5703 71.8359 19.2285C71.8359 18.4667 71.1621 17.7246 70.3711 17.7636C69.5801 17.8222 68.9062 18.4277 68.9062 19.248Z" fill="#39BEB9"/>
<path d="M63.584 9.67777C63.584 11.1621 63.584 12.6563 63.584 14.1407C64.0723 13.6524 64.5605 13.1641 65.0488 12.6758C62.8613 12.6758 60.6738 12.6758 58.4863 12.6758C58.9746 13.1641 59.4629 13.6524 59.9512 14.1407C59.9512 12.8321 59.9512 11.5235 59.9512 10.2149C59.9512 10.0391 59.9512 9.86332 59.9512 9.68754C59.9512 9.61918 59.9609 9.54105 59.9609 9.47269C59.9609 9.29691 59.9512 9.50199 59.9414 9.53129C59.9512 9.46293 59.9609 9.40434 59.9805 9.33598C60.0098 9.18949 60.0586 9.04301 60.1074 8.90629C60.0098 9.16019 60.1563 8.8184 60.2051 8.74027C60.2441 8.66215 60.4981 8.36918 60.3027 8.57426C60.3906 8.4766 60.4785 8.39848 60.5664 8.30082C60.7324 8.11527 60.4492 8.34965 60.6641 8.21293C60.8106 8.12504 60.9473 8.03715 61.1035 7.95902C60.8789 8.06644 61.1426 7.94926 61.2305 7.92973C61.2891 7.91019 61.6895 7.84184 61.5527 7.8516C61.3965 7.87113 61.7188 7.8516 61.7578 7.8516C62.3731 7.8516 61.6211 7.8516 61.9629 7.86137C62.1875 7.86137 61.748 7.81254 61.9727 7.86137C62.1191 7.89066 62.2656 7.93949 62.4121 7.97855C62.4707 7.99809 62.666 8.08598 62.4219 7.96879C62.5 8.00785 62.5781 8.04691 62.6465 8.08598C62.7051 8.11527 62.7539 8.15434 62.8125 8.18363C62.8418 8.20316 63.0469 8.35941 62.9199 8.25199C62.7832 8.1348 62.9785 8.31059 63.0078 8.33988C63.0664 8.39848 63.125 8.46684 63.1836 8.52543C63.3008 8.64262 63.1738 8.49613 63.1543 8.4766C63.2031 8.54496 63.252 8.61332 63.291 8.68168C63.3398 8.7598 63.5254 9.16996 63.4277 8.90629C63.4863 9.0723 63.5352 9.23832 63.5742 9.40434C63.584 9.42387 63.6035 9.63871 63.584 9.47269C63.5645 9.27738 63.584 9.67777 63.584 9.67777C63.6035 10.4395 64.248 11.1817 65.0488 11.1426C65.8301 11.1036 66.5332 10.4981 66.5137 9.67777C66.4746 7.97855 65.5859 6.34769 64.0723 5.52738C62.5977 4.7266 60.7422 4.7266 59.2969 5.62504C57.8809 6.50394 57.041 8.02738 57.0215 9.68754C57.0117 10.3809 57.0215 11.0743 57.0215 11.7676C57.0215 12.5586 57.0215 13.3496 57.0215 14.1407C57.0215 14.9317 57.6953 15.6055 58.4863 15.6055C60.6738 15.6055 62.8613 15.6055 65.0488 15.6055C65.8398 15.6055 66.5137 14.9317 66.5137 14.1407C66.5137 12.6563 66.5137 11.1621 66.5137 9.67777C66.5137 8.91605 65.8398 8.17387 65.0488 8.21293C64.2578 8.24223 63.584 8.85746 63.584 9.67777Z" fill="#39BEB9"/>
<path d="M63.3008 36.8164C60.293 36.8164 57.2852 36.8164 54.2773 36.8164C49.5215 36.8164 44.7559 36.8164 40 36.8164C38.8965 36.8164 37.8027 36.8164 36.6992 36.8164C37.1875 37.3047 37.6758 37.793 38.1641 38.2812C38.1641 33.4375 38.1641 28.6035 38.1641 23.7598C38.1641 23.0762 38.1641 22.3926 38.1641 21.709C37.6758 22.1973 37.1875 22.6855 36.6992 23.1738C39.707 23.1738 42.7148 23.1738 45.7227 23.1738C50.4785 23.1738 55.2441 23.1738 60 23.1738C61.1035 23.1738 62.1973 23.1738 63.3008 23.1738C62.8125 22.6855 62.3242 22.1973 61.8359 21.709C61.8359 26.5527 61.8359 31.3867 61.8359 36.2305C61.8359 36.9141 61.8359 37.5977 61.8359 38.2812C61.8359 39.043 62.5098 39.7852 63.3008 39.7461C64.0918 39.707 64.7656 39.1016 64.7656 38.2812C64.7656 33.4375 64.7656 28.6035 64.7656 23.7598C64.7656 23.0762 64.7656 22.3926 64.7656 21.709C64.7656 20.918 64.0918 20.2441 63.3008 20.2441C60.293 20.2441 57.2852 20.2441 54.2773 20.2441C49.5215 20.2441 44.7559 20.2441 40 20.2441C38.8965 20.2441 37.8027 20.2441 36.6992 20.2441C35.9082 20.2441 35.2344 20.918 35.2344 21.709C35.2344 26.5527 35.2344 31.3867 35.2344 36.2305C35.2344 36.9141 35.2344 37.5977 35.2344 38.2812C35.2344 39.0723 35.9082 39.7461 36.6992 39.7461C39.707 39.7461 42.7148 39.7461 45.7227 39.7461C50.4785 39.7461 55.2441 39.7461 60 39.7461C61.1035 39.7461 62.1973 39.7461 63.3008 39.7461C64.0625 39.7461 64.8047 39.0723 64.7656 38.2812C64.7266 37.4902 64.1211 36.8164 63.3008 36.8164Z" fill="#39BEB9"/>
<path d="M86.9238 92.1386C85.8105 92.1386 84.6875 92.1386 83.5742 92.1386C80.6641 92.1386 77.7637 92.1386 74.8535 92.1386C70.7422 92.1386 66.6309 92.1386 62.5195 92.1386C57.8613 92.1386 53.2031 92.1386 48.5449 92.1386C43.9551 92.1386 39.3555 92.1386 34.7656 92.1386C30.8594 92.1386 26.9531 92.1386 23.0469 92.1386C20.4492 92.1386 17.8516 92.1386 15.2539 92.1386C14.6387 92.1386 14.0234 92.1386 13.4082 92.1386C13.3105 92.1386 13.2031 92.1386 13.1055 92.1386C13.0078 92.1386 12.9199 92.1288 12.8223 92.1288C12.7637 92.1288 12.5391 92.08 12.8125 92.1386C12.7246 92.1191 12.6367 92.1093 12.5586 92.0898C12.4512 92.0605 12.3535 92.0312 12.2461 92.0019C12.1289 91.9628 11.9824 91.8945 12.1777 91.9823C11.9824 91.8945 11.8066 91.7773 11.6211 91.6698C11.5723 91.6405 11.4062 91.5038 11.6113 91.6698C11.543 91.621 11.4844 91.5624 11.4258 91.5038C11.3672 91.4452 11.3086 91.3866 11.25 91.328C11.2598 91.3378 10.9863 91.0253 11.123 91.1913C11.2305 91.328 11.0742 91.123 11.0547 91.0839C10.9863 90.9765 10.9277 90.8691 10.8594 90.7616C10.8203 90.703 10.7031 90.4394 10.8203 90.7128C10.791 90.6347 10.7617 90.5566 10.7324 90.4687C10.6738 90.3027 10.6445 90.1366 10.6055 89.9706C10.5176 89.5898 10.5859 90.1366 10.5957 89.9023C10.5957 89.8144 10.5859 89.7265 10.5859 89.6386C10.5859 89.3749 10.6152 89.1015 10.6348 88.8378C10.7129 87.9198 10.8203 87.0019 10.9375 86.0839C10.9375 86.0546 10.9766 85.8007 10.9473 86.0155C10.957 85.9179 10.9766 85.8105 10.9863 85.7128C11.0156 85.4882 11.0547 85.2636 11.084 85.039C11.1523 84.5605 11.2305 84.0917 11.3184 83.623C11.4746 82.7343 11.6406 81.8554 11.8359 80.9765C12.2266 79.2089 12.6855 77.4609 13.2422 75.7421C13.5059 74.9218 13.7891 74.1112 14.0918 73.3007C14.2383 72.9198 14.375 72.5487 14.5312 72.1777C14.6094 71.9823 14.6875 71.787 14.7754 71.5917C14.6875 71.8066 14.7754 71.5917 14.7949 71.5527C14.8535 71.4257 14.9023 71.289 14.9609 71.162C16.3086 68.0859 17.9687 65.1464 19.9805 62.4511C20.0879 62.3046 20.1953 62.1581 20.3027 62.0214C20.1562 62.2167 20.293 62.0312 20.3223 61.9921C20.3906 61.9042 20.459 61.8163 20.5273 61.7284C20.791 61.3964 21.0645 61.0644 21.3379 60.7323C21.8652 60.1171 22.4023 59.5116 22.9687 58.9355C24.1113 57.7538 25.3223 56.6503 26.6016 55.6249C26.6895 55.5566 26.7773 55.4882 26.8652 55.4198C26.8164 55.4589 26.6602 55.5761 26.8945 55.4003C27.041 55.2929 27.1777 55.1855 27.3242 55.078C27.6562 54.8339 27.9785 54.5995 28.3203 54.3652C28.9941 53.8964 29.6875 53.4569 30.3906 53.037C29.6582 52.6171 28.9258 52.1972 28.1836 51.7675C28.1836 54.0527 28.1836 56.3378 28.1836 58.623C28.1836 62.5292 28.1836 66.4355 28.1836 70.3417C28.1836 71.5136 28.1836 72.6855 28.1836 73.8573C28.1836 75.7616 28.7109 77.5488 30.0684 78.9452C31.4062 80.3222 33.2129 80.9179 35.0977 80.9179C36.0059 80.9179 36.9141 80.9179 37.8223 80.9179C41.3867 80.9179 44.9414 80.9179 48.5059 80.9179C52.3633 80.9179 56.2207 80.9179 60.0781 80.9179C61.3574 80.9179 62.627 80.9179 63.9062 80.9179C64.541 80.9179 65.1855 80.957 65.8203 80.8886C69.1504 80.5566 71.7676 77.8515 71.8555 74.4726C71.875 73.7792 71.8555 73.0956 71.8555 72.4023C71.8555 68.7792 71.8555 65.1659 71.8555 61.5429C71.8555 58.457 71.8555 55.3612 71.8555 52.2753C71.8555 52.1093 71.8555 51.9335 71.8555 51.7675C71.123 52.1874 70.3906 52.6073 69.6484 53.037C70.332 53.4472 71.0059 53.8769 71.6601 54.3261C71.9726 54.5409 72.2949 54.7655 72.5977 54.9902C72.7441 55.0976 72.8906 55.205 73.0273 55.3124C73.0957 55.371 73.1738 55.4198 73.2422 55.4784C73.0176 55.3027 73.3594 55.5761 73.3691 55.5859C74.5801 56.5527 75.7324 57.5878 76.8262 58.6913C77.373 59.248 77.9101 59.8339 78.4277 60.4198C78.6621 60.6933 78.8965 60.9667 79.1211 61.2402C79.248 61.3964 79.375 61.5527 79.5019 61.7089C79.541 61.7577 79.8926 62.207 79.7266 62.0019C80.6934 63.2616 81.582 64.5898 82.4023 65.9472C83.2324 67.3339 83.9844 68.7695 84.668 70.2441C84.8242 70.5859 84.9805 70.9277 85.127 71.2695C85.1465 71.3183 85.3613 71.8163 85.2539 71.5722C85.3418 71.787 85.4297 72.0116 85.5176 72.2265C85.8301 72.998 86.123 73.7792 86.3867 74.5702C87.5 77.8027 88.3105 81.1327 88.8476 84.5116C88.9258 84.9902 88.9941 85.4589 89.0625 85.9374C89.1016 86.1913 89.043 85.7519 89.0723 86.0058C89.0918 86.162 89.1113 86.3085 89.1309 86.4648C89.1602 86.6894 89.1895 86.9238 89.209 87.1484C89.2676 87.6562 89.3164 88.1737 89.3652 88.6816C89.3848 88.9355 89.4141 89.1796 89.4238 89.4335C89.4238 89.5214 89.4336 89.6093 89.4238 89.707C89.4238 89.746 89.4043 90.1073 89.4238 89.912C89.4434 89.6972 89.3848 90.1073 89.3848 90.1073C89.3652 90.2148 89.3359 90.3124 89.2969 90.4198C89.2676 90.498 89.248 90.5859 89.209 90.664C89.1699 90.7616 89.1797 90.7421 89.2285 90.6054C89.1992 90.664 89.1699 90.7226 89.1406 90.7714C89.043 90.9374 88.9551 91.0937 88.8379 91.2499C89.0039 91.0351 88.8672 91.2109 88.8281 91.2499C88.7402 91.3378 88.6523 91.4355 88.5645 91.5234C88.5059 91.582 88.4375 91.6308 88.3789 91.6894C88.623 91.4941 88.3008 91.7284 88.2617 91.7577C88.1934 91.8066 88.1152 91.8456 88.0469 91.8847C88.0078 91.9042 87.6367 92.0605 87.9297 91.953C87.7441 92.0214 87.5586 92.08 87.373 92.1191C87.2949 92.1386 87.0117 92.1679 87.3047 92.1386C87.1973 92.1386 87.0605 92.1386 86.9238 92.1386C86.1621 92.1484 85.4199 92.8027 85.459 93.6034C85.498 94.3847 86.1035 95.078 86.9238 95.0683C88.8672 95.039 90.7129 94.0136 91.6699 92.3046C92.6465 90.5663 92.334 88.662 92.1094 86.7773C91.6699 83.0663 90.9668 79.3847 89.873 75.8007C87.8613 69.1601 84.5996 62.8612 79.9121 57.705C77.3535 54.8925 74.375 52.4609 71.1133 50.5175C70.1562 49.9413 68.9062 50.6835 68.9062 51.787C68.9062 53.9941 68.9062 56.2109 68.9062 58.4179C68.9062 62.2655 68.9062 66.123 68.9062 69.9706C68.9062 71.2011 68.9062 72.4413 68.9062 73.6718C68.9062 73.8964 68.9062 74.121 68.9062 74.3359C68.9062 74.4726 68.8965 74.6093 68.8867 74.7558C68.8867 74.8144 68.8477 75.039 68.8965 74.7655C68.8867 74.8339 68.8769 74.8925 68.8574 74.9609C68.8184 75.1562 68.7695 75.3417 68.7109 75.5273C68.6816 75.6054 68.6523 75.6933 68.623 75.7714C68.6328 75.7519 68.7207 75.5663 68.6426 75.7226C68.5742 75.8788 68.4961 76.0253 68.4082 76.1816C68.3301 76.3085 68.2519 76.4355 68.1641 76.5527C68.0176 76.7773 68.125 76.6015 68.1641 76.5624C68.0957 76.6405 68.0273 76.7187 67.959 76.7968C67.8613 76.9042 67.7539 77.0116 67.6465 77.1093C67.5879 77.1679 67.5195 77.2167 67.4512 77.2753C67.6562 77.0995 67.4902 77.246 67.4414 77.2753C67.1582 77.4609 66.8652 77.6464 66.5527 77.7734C66.8359 77.6562 66.3672 77.8222 66.2988 77.8417C66.1523 77.8808 66.0059 77.9198 65.8496 77.9491C65.8105 77.9589 65.5371 77.998 65.7129 77.9784C65.8789 77.9589 65.6641 77.9784 65.6445 77.9784C65.5078 77.9882 65.3711 77.9882 65.2344 77.998C65.0879 77.998 64.9512 77.998 64.8047 77.998C63.8672 77.998 62.9297 77.998 61.9922 77.998C58.4766 77.998 54.9609 77.998 51.4453 77.998C47.6562 77.998 43.8672 77.998 40.0684 77.998C38.291 77.998 36.5039 78.0175 34.7168 77.998C34.5801 77.998 34.4434 77.9882 34.3066 77.9784C34.248 77.9784 34.0234 77.9394 34.2969 77.9882C34.209 77.9784 34.1211 77.9589 34.0332 77.9394C33.8867 77.9101 33.7402 77.871 33.5937 77.8222C33.5156 77.7929 33.4277 77.7636 33.3496 77.7441C33.1348 77.6659 33.6426 77.9003 33.2812 77.7148C33.0078 77.578 32.7637 77.4316 32.5098 77.2655C32.2852 77.1191 32.4609 77.2265 32.5 77.2655C32.4316 77.207 32.373 77.1581 32.3047 77.0995C32.168 76.9726 32.0312 76.8359 31.9043 76.6894C31.8652 76.6405 31.8262 76.5917 31.7773 76.5429C31.9531 76.748 31.8066 76.582 31.7773 76.5331C31.6797 76.3866 31.5918 76.2499 31.5039 76.1034C31.4258 75.9765 31.3672 75.8398 31.2988 75.703C31.2012 75.498 31.3672 75.9081 31.2988 75.6933C31.2695 75.5859 31.2305 75.4882 31.2012 75.3808C31.1621 75.2343 31.123 75.0878 31.0937 74.9316C31.084 74.8925 31.0449 74.6191 31.0645 74.7948C31.084 74.9804 31.0547 74.6972 31.0547 74.6581C31.0449 74.5409 31.0449 74.4238 31.0449 74.3066C31.0352 73.5546 31.0449 72.8124 31.0449 72.0605C31.0449 68.457 31.0449 64.8437 31.0449 61.2402C31.0449 58.2421 31.0449 55.2441 31.0449 52.246C31.0449 52.08 31.0449 51.914 31.0449 51.7577C31.0449 50.6542 29.7949 49.9218 28.8379 50.4882C22.9297 54.0136 18.1055 59.1112 14.668 65.0585C11.0742 71.2792 8.98437 78.2812 8.02734 85.371C7.89062 86.4159 7.76367 87.4609 7.66601 88.5058C7.57812 89.4237 7.53906 90.332 7.83203 91.2206C8.42773 93.0273 9.95117 94.5214 11.8457 94.9023C12.5 95.039 13.1152 95.039 13.7695 95.039C15.8203 95.039 17.8613 95.039 19.9121 95.039C23.5352 95.039 27.1484 95.039 30.7715 95.039C35.2637 95.039 39.7656 95.039 44.2578 95.039C49.043 95.039 53.8281 95.039 58.6133 95.039C62.9785 95.039 67.334 95.039 71.6992 95.039C75.0391 95.039 78.3691 95.039 81.709 95.039C83.3594 95.039 85.0098 95.039 86.6602 95.039C86.7285 95.039 86.8066 95.039 86.875 95.039C87.6367 95.039 88.3789 94.3652 88.3398 93.5741C88.3496 92.8124 87.7441 92.1386 86.9238 92.1386Z" fill="#39BEB9"/>
<path d="M36.8848 50.6738C38.1641 50.6738 39.4336 50.6738 40.7129 50.6738C41.4746 50.6738 42.2168 50 42.1777 49.209C42.1387 48.418 41.5332 47.7441 40.7129 47.7441C39.4336 47.7441 38.1641 47.7441 36.8848 47.7441C36.1231 47.7441 35.3809 48.418 35.4199 49.209C35.459 50 36.0645 50.6738 36.8848 50.6738Z" fill="#39BEB9"/>
<path d="M48.1738 50.6738C49.4531 50.6738 50.7227 50.6738 52.002 50.6738C52.7637 50.6738 53.5059 50 53.4668 49.209C53.4277 48.418 52.8223 47.7441 52.002 47.7441C50.7227 47.7441 49.4531 47.7441 48.1738 47.7441C47.4121 47.7441 46.6699 48.418 46.709 49.209C46.7481 50 47.3535 50.6738 48.1738 50.6738Z" fill="#39BEB9"/>
<path d="M59.4727 50.6738C60.752 50.6738 62.0215 50.6738 63.3008 50.6738C64.0625 50.6738 64.8047 50 64.7656 49.209C64.7266 48.418 64.1211 47.7441 63.3008 47.7441C62.0215 47.7441 60.752 47.7441 59.4727 47.7441C58.7109 47.7441 57.9688 48.418 58.0078 49.209C58.0371 50 58.6524 50.6738 59.4727 50.6738Z" fill="#39BEB9"/>
<path d="M36.8848 60.3223C38.1641 60.3223 39.4336 60.3223 40.7129 60.3223C41.4746 60.3223 42.2168 59.6484 42.1777 58.8574C42.1387 58.0664 41.5332 57.3926 40.7129 57.3926C39.4336 57.3926 38.1641 57.3926 36.8848 57.3926C36.1231 57.3926 35.3809 58.0664 35.4199 58.8574C35.459 59.6484 36.0645 60.3223 36.8848 60.3223Z" fill="#39BEB9"/>
<path d="M48.1738 60.3223C49.4531 60.3223 50.7227 60.3223 52.002 60.3223C52.7637 60.3223 53.5059 59.6484 53.4668 58.8574C53.4277 58.0664 52.8223 57.3926 52.002 57.3926C50.7227 57.3926 49.4531 57.3926 48.1738 57.3926C47.4121 57.3926 46.6699 58.0664 46.709 58.8574C46.7481 59.6484 47.3535 60.3223 48.1738 60.3223Z" fill="#39BEB9"/>
<path d="M59.4727 60.3223C60.752 60.3223 62.0215 60.3223 63.3008 60.3223C64.0625 60.3223 64.8047 59.6484 64.7656 58.8574C64.7266 58.0664 64.1211 57.3926 63.3008 57.3926C62.0215 57.3926 60.752 57.3926 59.4727 57.3926C58.7109 57.3926 57.9688 58.0664 58.0078 58.8574C58.0371 59.6484 58.6524 60.3223 59.4727 60.3223Z" fill="#39BEB9"/>
<path d="M36.8848 69.9707C38.1641 69.9707 39.4336 69.9707 40.7129 69.9707C41.4746 69.9707 42.2168 69.2969 42.1777 68.5059C42.1387 67.7148 41.5332 67.041 40.7129 67.041C39.4336 67.041 38.1641 67.041 36.8848 67.041C36.1231 67.041 35.3809 67.7148 35.4199 68.5059C35.459 69.2969 36.0645 69.9707 36.8848 69.9707Z" fill="#39BEB9"/>
<path d="M48.1738 69.9707C49.4531 69.9707 50.7227 69.9707 52.002 69.9707C52.7637 69.9707 53.5059 69.2969 53.4668 68.5059C53.4277 67.7148 52.8223 67.041 52.002 67.041C50.7227 67.041 49.4531 67.041 48.1738 67.041C47.4121 67.041 46.6699 67.7148 46.709 68.5059C46.7481 69.2969 47.3535 69.9707 48.1738 69.9707Z" fill="#39BEB9"/>
<path d="M59.4727 69.9707C60.752 69.9707 62.0215 69.9707 63.3008 69.9707C64.0625 69.9707 64.8047 69.2969 64.7656 68.5059C64.7266 67.7148 64.1211 67.041 63.3008 67.041C62.0215 67.041 60.752 67.041 59.4727 67.041C58.7109 67.041 57.9688 67.7148 58.0078 68.5059C58.0371 69.2969 58.6524 69.9707 59.4727 69.9707Z" fill="#39BEB9"/>
</g>
<defs>
<filter id="filter0_d" x="-4" y="0" width="108" height="108" filterUnits="userSpaceOnUse" color-interpolation-filters="sRGB">
<feFlood flood-opacity="0" result="BackgroundImageFix"/>
<feColorMatrix in="SourceAlpha" type="matrix" values="0 0 0 0 0 0 0 0 0 0 0 0 0 0 0 0 0 0 127 0"/>
<feOffset dy="4"/>
<feGaussianBlur stdDeviation="2"/>
<feColorMatrix type="matrix" values="0 0 0 0 0 0 0 0 0 0 0 0 0 0 0 0 0 0 0.25 0"/>
<feBlend mode="normal" in2="BackgroundImageFix" result="effect1_dropShadow"/>
<feBlend mode="normal" in="SourceGraphic" in2="effect1_dropShadow" result="shape"/>
</filter>
</defs>
</svg>
