<svg width="100" height="100" viewBox="0 0 100 100" fill="none" xmlns="http://www.w3.org/2000/svg">
<g filter="url(#filter0_d)">
<path fill-rule="evenodd" clip-rule="evenodd" d="M53.6 53.6C51.3 55.9 47.7 55.9 45.4 53.6C43.1 51.3 38.9 43.8 31.5 31.5C43.8 38.9 51.3 43.2 53.6 45.4C55.9 47.7 55.9 51.4 53.6 53.6ZM49.5 90C27.1 90 9 71.9 9 49.5C9 38.3 13.5 28.2 20.9 20.9L24.2 24.2C17.7 30.7 13.7 39.7 13.7 49.6C13.7 69.4 29.8 85.5 49.6 85.5C69.4 85.5 85.5 69.4 85.5 49.6C85.5 30.6 70.7 15 51.9 13.8V25.3H47.3V9H51.9V9.1C73.1 10.3 90 27.9 90 49.5C90 71.9 71.9 90 49.5 90Z" fill="#39BEB9"/>
</g>
<defs>
<filter id="filter0_d" x="-4" y="0" width="108" height="108" filterUnits="userSpaceOnUse" color-interpolation-filters="sRGB">
<feFlood flood-opacity="0" result="BackgroundImageFix"/>
<feColorMatrix in="SourceAlpha" type="matrix" values="0 0 0 0 0 0 0 0 0 0 0 0 0 0 0 0 0 0 127 0"/>
<feOffset dy="4"/>
<feGaussianBlur stdDeviation="2"/>
<feColorMatrix type="matrix" values="0 0 0 0 0 0 0 0 0 0 0 0 0 0 0 0 0 0 0.25 0"/>
<feBlend mode="normal" in2="BackgroundImageFix" result="effect1_dropShadow"/>
<feBlend mode="normal" in="SourceGraphic" in2="effect1_dropShadow" result="shape"/>
</filter>
</defs>
</svg>
