<svg width="100" height="100" viewBox="0 0 100 100" fill="none" xmlns="http://www.w3.org/2000/svg">
<g filter="url(#filter0_d)">
<path fill-rule="evenodd" clip-rule="evenodd" d="M65.1424 62.2936H28.1859C27.2859 62.2936 26.5554 63.0223 26.5554 63.9201C26.5554 64.818 27.2859 65.5466 28.1859 65.5466H65.1424C66.0424 65.5466 66.7728 64.818 66.7728 63.9201C66.7728 63.0223 66.0424 62.2936 65.1424 62.2936ZM80.1304 57.2699C80.1304 58.1666 79.3989 58.8964 78.5 58.8964H77.3293V49.1373H78.5C79.3989 49.1373 80.1304 49.8671 80.1304 50.7639V57.2699ZM74.0685 68.1414C74.0685 70.2331 72.362 71.9366 70.2641 71.9366H23.0652C20.9674 71.9366 19.2609 70.2331 19.2609 68.1414V45.3161C19.2609 40.2339 23.4065 36.0993 28.5 36.0993H64.8293C69.9228 36.0993 74.0685 40.2339 74.0685 45.3161V68.1414ZM31.9902 30.9639C31.9902 29.4696 33.2087 28.253 34.7076 28.253H58.6207C60.1196 28.253 61.338 29.4696 61.338 30.9639V32.8463H31.9902V30.9639ZM78.5 45.8843H77.3293V45.3161C77.3293 38.4404 71.7217 32.8463 64.8293 32.8463H64.5989V30.9639C64.5989 27.6761 61.9163 25 58.6207 25H34.7076C31.412 25 28.7293 27.6761 28.7293 30.9639V32.8463H28.5C21.6076 32.8463 16 38.4404 16 45.3161V68.1414C16 72.0277 19.1696 75.1896 23.0652 75.1896H70.2641C74.1598 75.1896 77.3293 72.0277 77.3293 68.1414V62.1494H78.5C81.1978 62.1494 83.3913 59.9612 83.3913 57.2699V50.7639C83.3913 48.0736 81.1978 45.8843 78.5 45.8843Z" fill="#39BEB9"/>
</g>
<defs>
<filter id="filter0_d" x="-4" y="0" width="108" height="108" filterUnits="userSpaceOnUse" color-interpolation-filters="sRGB">
<feFlood flood-opacity="0" result="BackgroundImageFix"/>
<feColorMatrix in="SourceAlpha" type="matrix" values="0 0 0 0 0 0 0 0 0 0 0 0 0 0 0 0 0 0 127 0"/>
<feOffset dy="4"/>
<feGaussianBlur stdDeviation="2"/>
<feColorMatrix type="matrix" values="0 0 0 0 0 0 0 0 0 0 0 0 0 0 0 0 0 0 0.25 0"/>
<feBlend mode="normal" in2="BackgroundImageFix" result="effect1_dropShadow"/>
<feBlend mode="normal" in="SourceGraphic" in2="effect1_dropShadow" result="shape"/>
</filter>
</defs>
</svg>
