<svg width="100" height="100" viewBox="0 0 100 100" fill="none" xmlns="http://www.w3.org/2000/svg">
<g filter="url(#filter0_d)">
<path d="M90 78.8999V60.5999H85V78.7999C82.8 79.7999 81.2 81.9999 81.2 84.5999C81.2 88.0999 84 90.8999 87.5 90.8999C91 90.8999 93.8 88.0999 93.8 84.5999C93.8 82.0999 92.3 79.7999 90 78.8999Z" fill="#39BEB9"/>
<path d="M47.8 16.7999V16.2999C47.8 13.5999 45.6 11.3999 42.9 11.3999H37.2C34.5 11.3999 32.3 13.5999 32.3 16.2999V16.7999H20.3V24.9999H23.3V20.8999H57.5V24.9999H60.5V16.8999H47.8V16.7999ZM35.4 16.3999C35.4 15.3999 36.2 14.4999 37.3 14.4999H43C44 14.4999 44.9 15.2999 44.9 16.3999V16.8999H35.5V16.3999H35.4Z" fill="#39BEB9"/>
<path d="M51.1 24.2V65.3C51.1 66.2 50.4 66.9 49.5 66.9C48.6 66.9 47.9 66.2 47.9 65.3V25.6H45.9V65.3C45.9 66.2 45.2 66.9 44.3 66.9H43.2C42.3 66.9 41.6 66.2 41.6 65.3V25.6H39.6V65.3C39.6 66.2 38.9 66.9 38 66.9H36.9C36 66.9 35.3 66.2 35.3 65.3V25.6H33.3V65.3C33.3 66.2 32.6 66.9 31.7 66.9C30.8 66.9 30.1 66.2 30.1 65.3V24.2H26.1V70.9H55.1V24.2H51.1Z" fill="#39BEB9"/>
<path d="M93 39.1999H82.1C81.6 39.1999 81.2 39.5999 81.2 40.0999V45.6999H75.7H73.2H65.2V41.3999V38.8999V35.8999H62.2C60.5 35.8999 59.2 37.1999 59.2 38.8999V57.5999C59.2 59.2999 60.5 60.5999 62.2 60.5999H65.2V57.5999V56.3999V50.6999H70.7V78.4999C70.7 80.9999 68.6 83.0999 66.1 83.0999H15.1C12.6 83.0999 10.5 80.9999 10.5 78.4999V50.5999H16V57.9999V61.7999V64.7999H19C20.7 64.7999 22 63.4999 22 61.7999V34.3999C22 32.6999 20.7 31.3999 19 31.3999H16V34.3999V38.1999V45.5999H5.5V78.3999C5.5 83.6999 9.8 87.9999 15.1 87.9999H66.1C71.4 87.9999 75.7 83.6999 75.7 78.3999V50.5999H81.2V56.1999C81.2 56.6999 81.6 57.0999 82.1 57.0999H93C93.5 57.0999 93.9 56.6999 93.9 56.1999V39.9999C93.8 39.5999 93.4 39.1999 93 39.1999Z" fill="#39BEB9"/>
<path d="M87.5 36.9999C90.9794 36.9999 93.8 34.1793 93.8 30.6999C93.8 27.2205 90.9794 24.3999 87.5 24.3999C84.0206 24.3999 81.2 27.2205 81.2 30.6999C81.2 34.1793 84.0206 36.9999 87.5 36.9999Z" fill="#39BEB9"/>
</g>
<defs>
<filter id="filter0_d" x="-4" y="0" width="108" height="108" filterUnits="userSpaceOnUse" color-interpolation-filters="sRGB">
<feFlood flood-opacity="0" result="BackgroundImageFix"/>
<feColorMatrix in="SourceAlpha" type="matrix" values="0 0 0 0 0 0 0 0 0 0 0 0 0 0 0 0 0 0 127 0"/>
<feOffset dy="4"/>
<feGaussianBlur stdDeviation="2"/>
<feColorMatrix type="matrix" values="0 0 0 0 0 0 0 0 0 0 0 0 0 0 0 0 0 0 0.25 0"/>
<feBlend mode="normal" in2="BackgroundImageFix" result="effect1_dropShadow"/>
<feBlend mode="normal" in="SourceGraphic" in2="effect1_dropShadow" result="shape"/>
</filter>
</defs>
</svg>
