<svg width="108" height="100" viewBox="0 0 108 100" fill="none" xmlns="http://www.w3.org/2000/svg">
<g clip-path="url(#clip0)" filter="url(#filter0_d)">
<path d="M17.9495 13.4878L17.8285 13.5562C17.3603 13.8455 17.0421 14.3005 16.9106 14.8028C16.7739 15.313 16.8265 15.8759 17.0947 16.365L22.1653 25.1466H27.0282L20.7635 14.2952C20.4769 13.7955 20.0061 13.4589 19.4854 13.3195C18.9857 13.1854 18.436 13.2327 17.9521 13.4905L17.9495 13.4878ZM32.0672 31.1166C32.0514 32.0845 31.6911 32.9261 31.1257 33.5862C30.6944 34.0859 30.1473 34.4751 29.5503 34.725C28.9533 34.9748 28.2932 35.0905 27.6383 35.0511C26.8704 35.0037 26.1129 34.746 25.4607 34.2384L20.5268 66.34L21.8997 64.9751C29.5503 57.3639 43.2052 43.7826 47.166 39.8219C47.7498 39.238 48.2022 38.6884 48.5362 38.1808C48.8728 37.6679 49.0938 37.1945 49.2121 36.7606C49.3147 36.3766 49.3383 36.0137 49.2963 35.6823C49.2489 35.3193 49.1201 34.9722 48.936 34.6487C48.715 34.2674 48.41 33.9018 48.0549 33.5651C47.6552 33.1864 47.1844 32.8419 46.6794 32.5421L46.6242 32.5079C45.8747 32.0739 45.0567 31.7294 44.2441 31.4901C43.4104 31.2481 42.5793 31.1166 41.8297 31.1166H32.0646H32.0672ZM23.7933 31.9451L23.3146 31.1166H20.824L15.33 66.8687L15.351 66.8634L15.3694 66.8608L15.3773 66.8582L15.3878 66.8555L15.4063 66.8503L15.4273 66.8476H15.4326L15.4457 66.845L15.4641 66.8424L15.4852 66.8371H15.4878L15.5036 66.8345L15.522 66.8318L15.543 66.8266L15.5614 66.824L15.5798 66.8213L15.6009 66.8187L15.6219 66.8161L15.6403 66.8108L15.6587 66.8082H15.6614L15.6824 66.8056L15.7008 66.8029L15.7166 66.8003H15.7219L15.7429 66.7977L15.7613 66.795L15.7745 66.7924H15.7823L15.8034 66.7898L15.8218 66.7871L15.8323 66.7845H15.8402L15.8612 66.7819L15.8823 66.7793H15.8902L15.9007 66.7766L15.9217 66.774L15.9428 66.7714H15.9507L15.9638 66.7687L15.9822 66.7661L16.0033 66.7635H16.0085L16.0243 66.7608L16.0453 66.7582L16.0638 66.7556H16.0664L16.0822 66.7529L16.1032 66.7503L16.1242 66.7477L16.1611 66.7451L16.1795 66.7424L16.2005 66.7398L16.2216 66.7372H16.2373H16.24L16.261 66.7345H16.282H16.2952H16.3005H16.3215L16.3399 66.7319H16.3531H16.3609L16.4004 66.7293H16.4109L16.4398 66.7267H16.4609H16.4688L16.6003 66.7161H16.6292H16.6424L16.7002 66.7135L16.8606 66.7082H16.8738H17.1605H17.1762H17.2052H17.2157H17.2315H17.2604L17.4892 66.7188H17.4997H17.5155L17.5734 66.7214L17.6023 66.724H17.6128H17.6312L17.7285 66.7345H17.7469L17.7759 66.7372L17.7864 66.7398H17.8048L17.8443 66.7451H17.8627L17.8916 66.7477H17.9021L17.9205 66.7503L17.9495 66.7529H17.96L17.9784 66.7556L18.0073 66.7582L18.0178 66.7608H18.0362L18.0652 66.7661H18.0757L18.0941 66.7687L18.123 66.774H18.1336L18.152 66.7766L18.1809 66.7819L18.1914 66.7845L18.2098 66.7871L18.2388 66.7924H18.2493L18.2677 66.795L18.2966 66.8003L18.3071 66.8029L18.3255 66.8056L18.3545 66.8108H18.365L18.3834 66.8134L18.4123 66.8187L18.4229 66.8213L18.4413 66.824L23.8012 31.9556L23.7933 31.9451ZM29.6161 32.287C29.8817 31.9793 30.0527 31.5821 30.0711 31.1166H25.942L25.8736 31.569L26.1313 32.0135C26.5285 32.6999 27.1413 33.026 27.7593 33.0628C28.1038 33.0839 28.4589 33.0207 28.7797 32.884C29.1032 32.7472 29.3978 32.5447 29.6161 32.287ZM8.10542 75.9185L8.88126 75.9421L9.12059 73.7776C9.26261 72.4758 9.6913 71.2897 10.3672 70.2614C11.0431 69.2383 11.9662 68.3809 13.1077 67.7339L13.1813 67.6919L18.8568 30.7589C18.5991 30.6222 18.365 30.446 18.1625 30.2408L18.0915 30.1619C17.5944 29.6281 17.2893 28.9153 17.2893 28.1316C17.2893 27.3084 17.6233 26.5615 18.1625 26.0197L18.2414 25.9487C18.6832 25.5358 19.2513 25.2544 19.8799 25.1702L15.3563 17.3329C14.8224 16.3703 14.7172 15.2762 14.9828 14.2873C15.2537 13.2748 15.9138 12.3622 16.8896 11.7967L16.958 11.7626C17.9205 11.2313 19.0093 11.1261 19.9982 11.3891C21.0108 11.66 21.9234 12.3201 22.4862 13.2958L29.3268 25.1466H41.8297C43.0816 25.1466 44.4624 25.3596 45.8431 25.7567C47.1739 26.1407 48.5046 26.7061 49.7039 27.4189L49.7513 27.4478C50.656 27.9922 51.5081 28.6313 52.2497 29.3519L52.2708 29.3756C52.9809 30.0673 53.5989 30.8326 54.0828 31.6663L54.1118 31.7215C54.6693 32.7025 55.0507 33.7729 55.2006 34.9091L55.2058 34.9643C55.3373 36.0321 55.2663 37.1577 54.9507 38.3202C54.693 39.2748 54.2591 40.2585 53.6331 41.2579C53.0493 42.1862 52.305 43.1199 51.3819 44.0404L39.8625 55.5203L25.4975 69.7932L37.8821 75.4766C38.3319 75.6818 38.7132 75.9895 38.9999 76.355C39.1235 76.5102 39.2287 76.6785 39.3181 76.8574L100.126 78.6852C101.202 78.7194 102.172 79.177 102.866 79.8924C103.566 80.613 103.995 81.594 103.995 82.667V84.7631C103.995 85.8624 103.548 86.8592 102.827 87.5798C102.106 88.3004 101.11 88.7475 100.01 88.7475H7.98444C6.88773 88.7475 5.88834 88.3004 5.16772 87.5798L5.10723 87.5141C4.42343 86.7987 3.99738 85.8256 3.99738 84.7631V79.8976C3.99738 79.3506 4.10257 78.8298 4.30771 78.3433C4.51285 77.8594 4.81267 77.4228 5.2098 77.0388C5.60693 76.6549 6.05403 76.3629 6.5432 76.1736C7.02975 75.9868 7.55049 75.8974 8.10279 75.9158L8.10542 75.9185ZM100.076 80.6735L38.5791 78.8246L9.74127 77.9567H9.71497H9.6913L8.05019 77.9094C7.76615 77.9015 7.50052 77.9435 7.26119 78.0356C7.02712 78.125 6.80357 78.2723 6.60106 78.4695C6.39592 78.6668 6.24338 78.8877 6.14344 79.1218C6.04877 79.348 5.9988 79.6083 5.9988 79.9003V84.7657C5.9988 85.2944 6.20393 85.7757 6.54057 86.1307L6.58265 86.1701C6.94296 86.5304 7.44266 86.754 7.98707 86.754H100.013C100.56 86.754 101.057 86.5304 101.417 86.1701C101.778 85.8098 102.001 85.3128 102.001 84.7657V82.6696C102.001 82.1305 101.788 81.6387 101.444 81.2836C101.094 80.9233 100.607 80.6919 100.076 80.6761V80.6735ZM11.1036 73.9959L10.8801 76L35.8991 76.7522L23.3962 71.0135L23.3778 71.0056L23.3593 70.9977L23.3409 70.9899L19.5169 69.2357L19.5117 69.233C19.3328 69.1515 19.154 69.0779 18.9725 69.0147L18.962 69.0121H18.9594H18.9515L18.941 69.0095L18.9304 69.0069L18.9199 69.0042L18.9147 69.0016L18.8857 68.9911L18.8726 68.9858L18.8515 68.9805L18.8279 68.9727L18.8147 68.97L18.7858 68.9595H18.7805L18.7463 68.949L18.7411 68.9464L18.7095 68.9385L18.699 68.9332L18.6753 68.9279L18.6543 68.9201L18.6411 68.9174L18.6122 68.9069H18.607L18.5728 68.8964H18.5701L18.5386 68.8885L18.5281 68.8859L18.5044 68.8806L18.486 68.8754L18.4702 68.8727L18.4439 68.8648H18.436L18.4018 68.8569L18.3676 68.849L18.3571 68.8464L18.3308 68.8412L18.3124 68.8359L18.2966 68.8333L18.2703 68.828H18.2598L18.2256 68.8201L18.1914 68.8122L18.1835 68.8096L18.1572 68.8043L18.0994 68.7912H18.0888L18.0547 68.7833H18.052L18.0126 68.7754L17.9836 68.7702L17.9705 68.7675L17.9495 68.7649L17.9258 68.7623L17.9126 68.7596L17.8811 68.7544H17.8784L17.8443 68.7491H17.8416L17.8101 68.7465L17.7969 68.7439L17.7732 68.7412L17.7522 68.7386H17.7391L17.7101 68.7333H17.7049L17.6707 68.7281H17.668L17.6365 68.7254L17.626 68.7228L17.6023 68.7202L17.5839 68.7175H17.5681L17.5418 68.7149H17.5339L17.4997 68.7123L17.4655 68.7097H17.4576H17.4313L17.4129 68.707H17.3945L17.3709 68.7044H17.3603L17.3261 68.7018L17.292 68.6991H17.2841H17.2551H17.2394H17.221H17.1973H17.1868L17.1184 68.6965H17.1131H17.0842H17.071H17.05H17.029H17.0158H16.9869H16.9816H16.9474H16.9448H16.9132H16.9027H16.8791H16.8606H16.8449H16.8186H16.8107H16.7765H16.7423H16.7344H16.7081H16.6923H16.6739H16.6502H16.6424L16.6082 68.6991L16.574 68.7018H16.5635L16.5398 68.7044H16.5214H16.5056L16.4793 68.707H16.4714L16.4372 68.7097L16.4057 68.7123H16.3951L16.3715 68.7149L16.3531 68.7175L16.3399 68.7202L16.311 68.7228H16.3057L16.2715 68.7281H16.2689L16.2373 68.7333H16.2268L16.2058 68.736L16.1847 68.7386L16.1716 68.7412L16.1427 68.7439H16.14L16.1058 68.7491H16.1006L16.0716 68.7544L16.0375 68.7596L16.0138 68.7623L16.0033 68.7649L15.9717 68.7702H15.9691L15.9349 68.778H15.927L15.9007 68.7833L15.8849 68.7859L15.8665 68.7886L15.8428 68.7938H15.8349L15.8008 68.8017L15.7666 68.8096L15.7587 68.8122L15.735 68.8175L15.7166 68.8201L15.7008 68.8254L15.6745 68.8306H15.6666L15.6324 68.8412L15.5982 68.849L15.5877 68.8517L15.5641 68.8569L15.5456 68.8622L15.5325 68.8675L15.5036 68.8754L15.4983 68.878L15.4641 68.8885H15.4615L15.4299 68.899L15.4194 68.9017L15.3984 68.9095L15.3773 68.9148L15.3642 68.9201L15.3352 68.9279L15.33 68.9306L15.2958 68.9411H15.2905L15.2616 68.9516L15.2485 68.9543L15.2274 68.9621L15.2037 68.97L15.1932 68.9753L15.1617 68.9858H15.159L15.1249 68.9963H15.1196L15.0933 69.0069L15.0775 69.0121L15.0591 69.02L15.0354 69.0279L15.0249 69.0305L14.9907 69.041L14.9565 69.0516L14.9486 69.0542L14.925 69.0647L14.9092 69.07L14.8934 69.0779L14.8697 69.0884L14.8619 69.091L14.8277 69.1042L14.7935 69.1173L14.783 69.1199L14.7593 69.1305L14.7409 69.1383L14.7277 69.1462L14.7014 69.1568L14.6962 69.1594L14.662 69.1725H14.6593L14.6173 69.1909L14.5962 69.2015L14.5752 69.2094L14.562 69.2173L14.4647 69.262L14.4542 69.2672H14.4516L14.4463 69.2698C14.3253 69.3277 14.2044 69.3908 14.086 69.4592C13.2234 69.9484 12.5264 70.5927 12.0241 71.3528C11.5244 72.1102 11.2062 73.0018 11.0983 73.988L11.1036 73.9959ZM19.5774 28.8285C19.73 28.9811 19.9351 29.0836 20.1613 29.1126H20.1744H20.1849H20.1981L20.2744 29.1152H23.0832C23.7591 29.0915 24.4324 29.0758 25.0609 29.1152H30.9363H30.96H41.8324C42.7502 29.1152 43.7733 29.2756 44.8016 29.5755C45.7695 29.8569 46.7425 30.2724 47.6394 30.7905L47.6972 30.8221C48.3284 31.1982 48.9176 31.6321 49.4225 32.1108C49.9143 32.5763 50.3404 33.0944 50.6612 33.6493C50.9742 34.1963 51.1899 34.7907 51.274 35.4219C51.3529 36.0163 51.3161 36.6396 51.1425 37.2813C50.9716 37.9125 50.6639 38.5779 50.2089 39.2722C49.796 39.9034 49.2568 40.5609 48.5809 41.2342L21.6551 68.0259L23.5697 68.9043L38.4634 54.1053L49.9722 42.6255C50.8033 41.7944 51.4581 40.9817 51.9526 40.1927C52.4628 39.38 52.8152 38.5753 53.0282 37.7942C53.2781 36.8737 53.3359 36.0031 53.2334 35.1878L53.2307 35.1615C53.1176 34.2884 52.8231 33.4652 52.3918 32.7025L52.3655 32.6604C51.9762 31.9845 51.4686 31.3586 50.8874 30.7931L50.869 30.7747C50.2352 30.1619 49.504 29.6149 48.7282 29.1468L48.6993 29.131C47.6367 28.4998 46.4664 28.0027 45.2987 27.6661C44.1178 27.3242 42.9264 27.1427 41.8403 27.1427H21.6025H21.5841H20.2823C20.0271 27.1427 19.7931 27.2374 19.6195 27.3952L19.5853 27.432C19.4065 27.6109 19.296 27.8581 19.296 28.1316C19.296 28.3841 19.3907 28.6181 19.5459 28.7917L19.5853 28.8285H19.5774Z" fill="#39BEB9"/>
</g>
<defs>
<filter id="filter0_d" x="0" y="0" width="108" height="108" filterUnits="userSpaceOnUse" color-interpolation-filters="sRGB">
<feFlood flood-opacity="0" result="BackgroundImageFix"/>
<feColorMatrix in="SourceAlpha" type="matrix" values="0 0 0 0 0 0 0 0 0 0 0 0 0 0 0 0 0 0 127 0"/>
<feOffset dy="4"/>
<feGaussianBlur stdDeviation="2"/>
<feColorMatrix type="matrix" values="0 0 0 0 0 0 0 0 0 0 0 0 0 0 0 0 0 0 0.25 0"/>
<feBlend mode="normal" in2="BackgroundImageFix" result="effect1_dropShadow"/>
<feBlend mode="normal" in="SourceGraphic" in2="effect1_dropShadow" result="shape"/>
</filter>
<clipPath id="clip0">
<rect width="100" height="100" fill="white" transform="translate(4)"/>
</clipPath>
</defs>
</svg>
