<svg width="100" height="103" viewBox="0 0 100 103" fill="none" xmlns="http://www.w3.org/2000/svg">
<g filter="url(#filter0_d)">
<path d="M18.6632 94.9996C21.3277 95.0009 23.9337 94.218 26.1564 92.7486H57.2225C59.1368 92.7536 61.0141 92.2208 62.6404 91.2109C64.2667 90.201 65.5766 88.7546 66.421 87.0366C67.2719 85.3474 67.6311 83.453 67.4576 81.5696C67.284 79.6861 66.5847 77.8894 65.4393 76.3841C61.7267 71.4984 56.8274 67.3588 50.021 63.3558C49.1497 62.8433 48.2766 62.367 47.4034 61.9096C51.6326 54.078 52.2754 47.4914 49.2997 42.3146C47.6548 39.4523 46.158 37.3019 44.8379 35.4034C42.9531 32.9053 41.3743 30.1902 40.1354 27.3164C38.264 22.751 38.5511 18.2734 40.9437 14.707C42.3228 12.7831 44.1479 11.2224 46.2625 10.1587C48.3772 9.09497 50.7182 8.55997 53.085 8.59956C64.108 8.59956 68.0985 17.9004 69.505 25.7022L81.3466 91.4003H73.7999C73.3233 91.4014 72.8666 91.5915 72.53 91.929C72.1934 92.2664 72.0043 92.7235 72.0043 93.2001C72.0043 93.6767 72.1934 94.1339 72.53 94.4713C72.8666 94.8087 73.3233 94.9988 73.7999 94.9999H93.2002C93.6768 94.9988 94.1335 94.8087 94.4702 94.4713C94.8068 94.1339 94.9958 93.6767 94.9958 93.2001C94.9958 92.7235 94.8068 92.2664 94.4702 91.929C94.1335 91.5915 93.6768 91.4014 93.2002 91.4003H85.0053L73.0486 25.0635C70.7157 12.125 63.626 4.99993 53.085 4.99993C50.128 4.96339 47.2062 5.64508 44.5707 6.98648C41.9351 8.32787 39.6645 10.2889 37.9538 12.7012C34.8707 17.2959 34.4625 22.9708 36.8037 28.6817C38.1408 31.7993 39.8455 34.746 41.8818 37.4591C43.1608 39.297 44.6103 41.381 46.178 44.1076C48.5084 48.1631 47.826 53.6199 44.1599 60.3418C34.286 55.9369 24.7159 55.1314 18.2217 58.3831C13.4711 60.7643 10.5514 65.1458 9.6982 71.0514C7.59765 72.8756 6.10489 75.2983 5.41997 77.9947C4.73505 80.6912 4.89071 83.5326 5.86608 86.1381C6.84145 88.7436 8.58992 90.9887 10.8772 92.5725C13.1644 94.1563 15.8811 95.0032 18.6632 94.9996H18.6632ZM19.8348 61.6019C26.5323 58.2464 37.398 60.1078 48.1954 66.4594C54.5848 70.2162 59.153 74.0619 62.5706 78.56C63.3177 79.5277 63.7734 80.6884 63.8843 81.9059C63.9952 83.1234 63.7567 84.3473 63.1967 85.4341C62.6569 86.557 61.8082 87.5028 60.7501 88.1607C59.692 88.8186 58.4684 89.1614 57.2225 89.1489H29.8562C31.5298 86.7684 32.3978 83.9148 32.3333 81.0055C32.2688 78.0962 31.2751 75.284 29.4976 72.9799C27.7201 70.6759 25.252 69.0011 22.4544 68.2004C19.6567 67.3997 16.6763 67.5151 13.9489 68.5298C14.409 67.0363 15.168 65.652 16.1799 64.461C17.1917 63.27 18.4352 62.2973 19.8348 61.6019ZM18.6632 71.2739C20.6535 71.2738 22.5991 71.864 24.254 72.9698C25.9089 74.0755 27.1987 75.6472 27.9604 77.486C28.7221 79.3248 28.9213 81.3482 28.533 83.3002C28.1447 85.2523 27.1863 87.0454 25.7789 88.4527C24.3715 89.8601 22.5784 90.8185 20.6263 91.2067C18.6742 91.5949 16.6508 91.3956 14.812 90.6339C12.9733 89.8721 11.4016 88.5822 10.296 86.9273C9.19027 85.2724 8.60017 83.3267 8.60028 81.3364C8.60333 78.6685 9.66451 76.1108 11.551 74.2243C13.4375 72.3379 15.9953 71.2768 18.6632 71.2738V71.2739Z" fill="#39BEB9"/>
</g>
<defs>
<filter id="filter0_d" x="-4" y="0" width="108" height="108" filterUnits="userSpaceOnUse" color-interpolation-filters="sRGB">
<feFlood flood-opacity="0" result="BackgroundImageFix"/>
<feColorMatrix in="SourceAlpha" type="matrix" values="0 0 0 0 0 0 0 0 0 0 0 0 0 0 0 0 0 0 127 0"/>
<feOffset dy="4"/>
<feGaussianBlur stdDeviation="2"/>
<feColorMatrix type="matrix" values="0 0 0 0 0 0 0 0 0 0 0 0 0 0 0 0 0 0 0.25 0"/>
<feBlend mode="normal" in2="BackgroundImageFix" result="effect1_dropShadow"/>
<feBlend mode="normal" in="SourceGraphic" in2="effect1_dropShadow" result="shape"/>
</filter>
</defs>
</svg>
