<svg width="106" height="100" viewBox="0 0 106 100" fill="none" xmlns="http://www.w3.org/2000/svg">
<g filter="url(#filter0_d)">
<path d="M31.622 40.1902H18.542C18.002 40.1902 17.488 40.4062 17.11 40.7942C9.424 48.6702 9.348 61.2562 17.132 69.2262C17.508 69.6122 18.024 69.8302 18.564 69.8302H31.622C32.728 69.8302 33.622 68.9362 33.622 67.8302C33.622 64.9482 33.622 45.2302 33.622 42.1922C33.622 41.0842 32.726 40.1902 31.622 40.1902ZM19.434 65.8282C13.914 59.5942 13.992 50.3282 19.412 44.1902H29.62V46.9822C21.262 49.0702 21.248 60.9482 29.62 63.0382V65.8302H19.434V65.8282ZM29.622 58.8142C26.562 57.1982 26.56 52.8202 29.622 51.2022V58.8142Z" fill="#39BEB9"/>
<path d="M87.46 40.1902H74.36C73.254 40.1902 72.36 41.0842 72.36 42.1902C72.36 54.0462 72.36 54.1642 72.36 61.3102V67.8302C72.36 68.9362 73.254 69.8302 74.36 69.8302H87.44C87.98 69.8302 88.494 69.6142 88.872 69.2262C92.618 65.3902 94.68 60.3422 94.68 55.0122C94.68 49.6682 92.624 44.6202 88.89 40.7962C88.516 40.4062 88 40.1902 87.46 40.1902ZM76.362 51.1982C79.45 52.8122 79.454 57.2042 76.362 58.8222V51.1982ZM86.57 65.8282H76.362V63.0382C79.982 62.1382 82.682 58.8942 82.682 55.0102C82.682 51.1262 79.982 47.8782 76.362 46.9802V44.1902H86.59C89.234 47.1802 90.682 50.9902 90.682 55.0102C90.682 59.0162 89.228 62.8262 86.57 65.8282Z" fill="#39BEB9"/>
<path d="M101.002 23.1101C101.002 22.0041 100.108 21.1101 99.002 21.1101H7.00199C6.16999 21.1101 5.45999 21.6161 5.15799 22.3361C5.05599 22.5761 4.99799 22.8401 4.99799 23.1201V76.8921C4.99799 77.9981 5.89199 78.8921 6.99799 78.8921H98.998C100.104 78.8921 100.998 77.9981 100.998 76.8921V36.2081C100.998 36.2021 101.002 36.1961 101.002 36.1881V23.1101ZM92.682 28.6481H13.322C12.216 28.6481 11.322 29.5421 11.322 30.6481V34.1901H9.00199V25.1201H96.998V34.1901H94.682V30.6481C94.682 29.5421 93.788 28.6481 92.682 28.6481ZM8.99799 74.8901V38.1901H13.322C14.428 38.1901 15.322 37.2961 15.322 36.1901V32.6481H90.682V36.1901C90.682 37.2961 91.576 38.1901 92.682 38.1901H96.998V74.8921H8.99799V74.8901Z" fill="#39BEB9"/>
<path d="M66.362 41.1401H39.62C37.032 41.1401 37.62 41.8401 37.62 66.8761C37.62 67.9821 38.514 68.8761 39.62 68.8761H66.36C67.466 68.8761 68.36 67.9821 68.36 66.8761C68.36 61.6121 68.36 75.4521 68.36 43.1401C68.362 42.0361 67.466 41.1401 66.362 41.1401ZM64.362 64.8761H41.62C41.62 53.2361 41.62 56.7921 41.62 45.1401H64.36C64.362 56.8001 64.362 53.2261 64.362 64.8761Z" fill="#39BEB9"/>
</g>
<defs>
<filter id="filter0_d" x="-1" y="0" width="108" height="108" filterUnits="userSpaceOnUse" color-interpolation-filters="sRGB">
<feFlood flood-opacity="0" result="BackgroundImageFix"/>
<feColorMatrix in="SourceAlpha" type="matrix" values="0 0 0 0 0 0 0 0 0 0 0 0 0 0 0 0 0 0 127 0"/>
<feOffset dy="4"/>
<feGaussianBlur stdDeviation="2"/>
<feColorMatrix type="matrix" values="0 0 0 0 0 0 0 0 0 0 0 0 0 0 0 0 0 0 0.25 0"/>
<feBlend mode="normal" in2="BackgroundImageFix" result="effect1_dropShadow"/>
<feBlend mode="normal" in="SourceGraphic" in2="effect1_dropShadow" result="shape"/>
</filter>
</defs>
</svg>
