<svg width="93" height="15" viewBox="0 0 93 15" fill="none" xmlns="http://www.w3.org/2000/svg">
<path d="M19.129 3.83483H21.6429V1.34683C20.4053 1.1991 19.129 1.55675 19.129 2.9407V3.83483ZM15.9576 4.59678C13.2967 4.65898 11.9508 5.52978 11.9508 8.22772V14.8443H14.4647V8.22772C14.4647 6.96039 14.9366 6.77379 15.9112 6.73491C16.53 6.69604 16.7466 6.82044 17.3035 6.50944C17.8218 6.23731 18.0229 5.59976 18.0074 4.68231C17.3267 4.64343 16.7853 4.58123 15.9576 4.59678ZM2.59901 8.89637H6.21132C7.61139 8.89637 8.00588 9.43284 8.00588 10.7624C8.00588 12.1074 7.57271 12.6906 6.21132 12.6906H2.59901V8.89637ZM10.6049 10.8634C10.6049 8.66311 9.65347 7.90116 8.40037 7.62904C9.45235 7.17031 10.2336 6.53276 10.2336 4.62011C10.2336 1.9455 8.97277 0.989174 6.37376 0.989174H0V14.8443H6.64449C9.14295 14.8443 10.6049 13.8491 10.6049 10.8634ZM2.59901 6.79711V3.15063H5.84004C7.28651 3.15063 7.6578 3.67155 7.6578 4.95443C7.6578 6.26064 7.24783 6.79711 5.84004 6.79711H2.59901ZM32.2788 3.83483H34.7927V1.34683C33.5551 1.1991 32.2788 1.55675 32.2788 2.9407V3.83483ZM32.2633 4.72896H34.8004V14.852H32.2633V4.72896ZM52.4366 4.59678C51.0984 4.59678 49.4044 5.28098 48.3524 5.73971V0.685949C47.1148 0.538224 45.8308 0.895875 45.8308 2.27983V14.8443H48.3524V7.79231C49.4895 7.35691 50.789 6.92151 51.6553 6.92151C52.3979 6.92151 52.8311 7.38024 52.8311 8.06444V14.8443H55.3527V7.97891C55.3527 5.78636 54.5637 4.59678 52.4366 4.59678ZM19.129 4.72896H21.6507V14.852H19.129V4.72896ZM27.336 6.73491H29.1306C30.4533 6.73491 30.9483 6.13624 30.8246 4.72118H27.336V1.34683C26.0984 1.1991 24.8221 1.55675 24.8221 2.9407V4.72118H22.9425V6.73491H24.8221V11.3222C24.8221 13.849 25.8509 14.9531 28.4731 14.9531C29.2775 14.9531 29.9582 14.8909 30.6002 14.8054L30.5384 12.7916C30.0665 12.8305 29.3626 12.8772 28.7825 12.8772C27.8156 12.8772 27.336 12.5428 27.336 11.4699V6.73491ZM38.6757 7.52796C38.6757 6.88264 39.1708 6.65716 39.7896 6.65716C40.8416 6.65716 41.8085 6.69604 42.435 6.71936C43.5721 6.75824 44.129 6.13624 44.0671 4.81448C43.3014 4.72896 41.5532 4.60456 40.1067 4.60456C37.8558 4.60456 36.2082 5.45203 36.2082 7.55129C36.2082 9.72829 37.4226 10.3114 39.6581 10.6846C41.677 11.0189 42.0947 11.1589 42.0947 11.8664C42.0947 12.7217 41.1433 12.8461 40.2382 12.8461C38.9001 12.8461 37.4768 12.7605 36.5873 12.6828L36.4635 14.7976C37.4149 14.8831 38.815 14.9609 40.3465 14.9609C42.9455 14.9609 44.5777 14.1523 44.5777 11.9753C44.5777 9.88379 43.487 9.26179 41.298 8.84194C39.2559 8.47651 38.6757 8.33657 38.6757 7.52796ZM72.254 6.84376H67.056C66.9322 8.35989 67.4273 9.00522 68.75 9.00522H69.655V12.4651C68.9356 12.5662 67.3035 12.6906 66.5842 12.6906C64.5189 12.6906 63.7144 11.882 63.7144 7.80009C63.7144 3.83483 64.31 2.90183 67.5743 3.15063L69.802 3.3139C71.2871 3.39943 71.8441 2.59083 71.8209 1.3235C70.8075 1.16023 68.1235 0.864773 67.0096 0.864773C62.2602 0.864773 61.0071 2.23318 61.0071 7.85452C61.0071 13.3281 62.5309 14.9453 66.4991 14.9453C67.9842 14.9453 70.7921 14.6343 72.254 14.3233V6.84376ZM86.6182 7.52796C86.6182 6.88264 87.1132 6.65716 87.7321 6.65716C88.784 6.65716 89.7509 6.69604 90.3698 6.71936C91.5068 6.75824 92.0637 6.13624 92.0019 4.81448C91.2361 4.72896 89.4879 4.60456 88.0415 4.60456C85.7905 4.60456 84.143 5.45203 84.143 7.55129C84.143 9.72829 85.3574 10.3114 87.5928 10.6846C89.6117 11.0189 90.0294 11.1589 90.0294 11.8664C90.0294 12.7217 89.078 12.8461 88.173 12.8461C86.8348 12.8461 85.4115 12.7605 84.522 12.6828L84.3982 14.7976C85.3496 14.8831 86.7497 14.9609 88.2813 14.9609C90.8803 14.9609 92.5124 14.1523 92.5124 11.9753C92.5124 9.88379 91.4217 9.26179 89.2327 8.84194C87.1983 8.47651 86.6182 8.33657 86.6182 7.52796ZM80.229 12.9705C79.5869 13.056 78.2952 13.0949 77.22 13.0949C76.2144 13.0949 76.0442 12.434 76.0442 11.8353C76.0442 10.9023 76.4774 10.6535 77.5062 10.4669C78.3725 10.3036 79.2389 10.1948 80.229 10.1326V12.9705ZM82.7429 7.87784C82.7429 5.78636 81.8998 4.66676 79.324 4.66676C77.715 4.66676 75.6188 4.85336 74.6674 4.95443C74.6442 6.21398 75 6.85931 76.0907 6.85931C76.8332 6.85931 78.272 6.77379 79.1151 6.77379C79.8577 6.77379 80.229 7.04591 80.229 7.90894V8.28214C79.0996 8.34434 78.0631 8.46874 77.1194 8.61647C74.8994 8.95079 73.5999 9.58834 73.5999 11.8042C73.5999 13.7946 74.59 14.992 76.7095 14.992C78.9372 14.992 81.4047 14.8287 82.7429 14.6654V7.87784Z" fill="#002E6E"/>
</svg>
