<svg width="100" height="100" viewBox="0 0 100 100" fill="none" xmlns="http://www.w3.org/2000/svg">
<g filter="url(#filter0_d)">
<path d="M48 15.9788C41.8464 15.9788 36.6474 19.9594 34.7812 25.4861C32.7119 21.0403 28.2148 17.949 23 17.949C15.8321 17.949 10 23.7857 10 30.959C10 36.3741 13.3186 41.0124 18.0312 42.9683H14C10.1393 42.9683 7 46.11 7 49.9738V73.9922C7 77.8559 10.1393 80.9976 14 80.9976H60C63.8607 80.9976 67 77.8559 67 73.9922V72.5536L91.5938 83.9062C92.1973 84.1746 92.995 83.6602 93 82.9992V40.9668C93.0146 40.3612 92.3718 39.8334 91.7812 39.966C91.7157 39.9906 67 51.4124 67 51.4124V49.9738C67 46.11 63.8607 42.9683 60 42.9683H53.0938C58.2893 40.9293 61.9688 35.8824 61.9688 29.9583C61.9688 22.2322 55.7201 15.9788 48 15.9788ZM48 17.9178C54.6393 17.9178 60.0312 23.3139 60.0312 29.9583C60.0312 36.6027 54.6393 41.9988 48 41.9988C41.3607 41.9988 35.9688 36.6027 35.9688 29.9583C35.9688 23.3139 41.3607 17.9178 48 17.9178ZM23 19.9506C29.087 19.9506 34 24.8674 34 30.959C34 37.0507 29.087 41.9675 23 41.9675C16.913 41.9675 12 37.0507 12 30.959C12 24.8674 16.913 19.9506 23 19.9506ZM35.1562 35.4938C36.6283 38.91 39.4353 41.6061 42.9062 42.9683H27.9688C31.2943 41.5881 33.894 38.8803 35.1562 35.4938ZM91 42.5305V81.4355L67 70.3644V53.6014L91 42.5305ZM14 44.9698H60C62.7873 44.9698 65 47.1843 65 49.9738V73.9922C65 76.7817 62.7873 78.996 60 78.996H14C11.2127 78.996 9 76.7817 9 73.9922V49.9738C9 47.1843 11.2127 44.9698 14 44.9698Z" fill="#39BEB9"/>
</g>
<defs>
<filter id="filter0_d" x="-4" y="0" width="108" height="108" filterUnits="userSpaceOnUse" color-interpolation-filters="sRGB">
<feFlood flood-opacity="0" result="BackgroundImageFix"/>
<feColorMatrix in="SourceAlpha" type="matrix" values="0 0 0 0 0 0 0 0 0 0 0 0 0 0 0 0 0 0 127 0"/>
<feOffset dy="4"/>
<feGaussianBlur stdDeviation="2"/>
<feColorMatrix type="matrix" values="0 0 0 0 0 0 0 0 0 0 0 0 0 0 0 0 0 0 0.25 0"/>
<feBlend mode="normal" in2="BackgroundImageFix" result="effect1_dropShadow"/>
<feBlend mode="normal" in="SourceGraphic" in2="effect1_dropShadow" result="shape"/>
</filter>
</defs>
</svg>
