<svg width="100" height="102" viewBox="0 0 100 102" fill="none" xmlns="http://www.w3.org/2000/svg">
<g filter="url(#filter0_d)">
<path d="M12.5 76.5598C12.0858 76.5605 11.6888 76.7251 11.3959 77.018C11.103 77.3108 10.9382 77.7081 10.9375 78.1223V78.6411C10.9374 84.3792 15.6242 89.0659 21.3623 89.0659H78.6377C84.3758 89.0659 89.0626 84.3792 89.0625 78.6411V78.1223C89.0618 77.7081 88.897 77.3108 88.6041 77.018C88.3112 76.7251 87.9142 76.5605 87.5 76.5598H12.5ZM14.502 79.6909H85.498C84.9278 83.1572 82.2729 85.9348 78.6377 85.9348H21.3623C17.7271 85.9348 15.0722 83.1572 14.502 79.6909Z" fill="#39BEB9"/>
<path fill-rule="evenodd" clip-rule="evenodd" d="M23.4375 90.6223V93.7473H35.9375V90.6223H23.4375Z" fill="#39BEB9"/>
<path fill-rule="evenodd" clip-rule="evenodd" d="M64.0625 90.6223V93.7473H76.5625V90.6223H64.0625Z" fill="#39BEB9"/>
<path fill-rule="evenodd" clip-rule="evenodd" d="M48.4619 81.2475C48.2549 81.2445 48.0493 81.2828 47.8572 81.36C47.665 81.4372 47.4901 81.5518 47.3427 81.6972C47.1952 81.8426 47.0782 82.0158 46.9982 82.2069C46.9183 82.3979 46.8772 82.6029 46.8772 82.81C46.8772 83.017 46.9183 83.222 46.9982 83.4131C47.0782 83.6041 47.1952 83.7773 47.3427 83.9227C47.4901 84.0681 47.665 84.1827 47.8572 84.2599C48.0493 84.3371 48.2549 84.3754 48.4619 84.3725H51.5442C51.7512 84.3754 51.9568 84.3371 52.1489 84.2599C52.3411 84.1827 52.516 84.0681 52.6634 83.9227C52.8109 83.7773 52.9279 83.6041 53.0079 83.4131C53.0878 83.222 53.1289 83.017 53.1289 82.81C53.1289 82.6029 53.0878 82.3979 53.0079 82.2069C52.9279 82.0158 52.8109 81.8426 52.6634 81.6972C52.516 81.5518 52.3411 81.4372 52.1489 81.36C51.9568 81.2828 51.7512 81.2445 51.5442 81.2475H48.4619Z" fill="#39BEB9"/>
<path d="M50 14.0598C31.8967 14.0598 17.1874 28.7692 17.1875 46.8723C17.1874 64.9757 31.8967 79.6848 50 79.6848C68.1033 79.6848 82.8126 64.9757 82.8125 46.8723C82.8126 28.7692 68.1033 14.0598 50 14.0598ZM50 17.1848C66.4145 17.1848 79.6876 30.4579 79.6875 46.8723C79.6876 63.287 66.4145 76.5598 50 76.5598C33.5856 76.5598 20.3124 63.2867 20.3125 46.8723C20.3124 30.4579 33.5856 17.1848 50 17.1848Z" fill="#39BEB9"/>
<path d="M50 20.322C43.1988 20.322 36.3996 22.9115 31.2195 28.0918C20.8593 38.4518 20.8593 55.2989 31.2195 65.6589C41.5797 76.0192 58.4203 76.0192 68.7805 65.6589C79.1407 55.2989 79.1407 38.4518 68.7805 28.0918C63.6004 22.9115 56.8012 20.322 50 20.322ZM50 23.4287C55.9949 23.4287 61.988 25.7181 66.5711 30.3013C75.737 39.4672 75.737 54.2835 66.5711 63.4495C57.405 72.6154 42.595 72.6154 33.429 63.4495C24.263 54.2835 24.263 39.4672 33.429 30.3013C38.012 25.7181 44.0051 23.4287 50 23.4287Z" fill="#39BEB9"/>
<path fill-rule="evenodd" clip-rule="evenodd" d="M33.429 28.0918L31.2195 30.3013L66.571 65.6589L68.7805 63.4495L33.429 28.0918Z" fill="#39BEB9"/>
<path fill-rule="evenodd" clip-rule="evenodd" d="M66.571 28.0918L31.2195 63.4495L33.429 65.6589L68.7805 30.3013L66.571 28.0918Z" fill="#39BEB9"/>
<path fill-rule="evenodd" clip-rule="evenodd" d="M40.0574 23.6729L37.8479 25.8823L70.99 59.0305L73.1995 56.821L40.0574 23.6729Z" fill="#39BEB9"/>
<path fill-rule="evenodd" clip-rule="evenodd" d="M48.8953 21.4634L46.6858 23.6729L73.1995 50.1926L75.4089 47.9771L48.8953 21.4634Z" fill="#39BEB9"/>
<path fill-rule="evenodd" clip-rule="evenodd" d="M29.01 34.7202L26.8005 36.9297L61.0474 71.1826L63.2568 68.9731L29.01 34.7202Z" fill="#39BEB9"/>
<path fill-rule="evenodd" clip-rule="evenodd" d="M26.8005 43.5581L24.5911 45.7676L51.1047 72.2874L53.3142 70.0779L26.8005 43.5581Z" fill="#39BEB9"/>
<path fill-rule="evenodd" clip-rule="evenodd" d="M59.9426 23.6729L26.8005 56.821L29.01 59.0305L62.1521 25.8823L59.9426 23.6729Z" fill="#39BEB9"/>
<path fill-rule="evenodd" clip-rule="evenodd" d="M51.1047 21.4634L24.585 47.9771L26.8005 50.1926L53.3142 23.6729L51.1047 21.4634Z" fill="#39BEB9"/>
<path fill-rule="evenodd" clip-rule="evenodd" d="M73.1995 43.5581L46.6858 70.0779L48.8953 72.2874L75.4089 45.7676L73.1995 43.5581Z" fill="#39BEB9"/>
<path fill-rule="evenodd" clip-rule="evenodd" d="M70.99 34.7202L37.8479 67.8684L40.0574 70.0779L73.1995 36.9297L70.99 34.7202Z" fill="#39BEB9"/>
<path fill-rule="evenodd" clip-rule="evenodd" d="M50 6.24731C45.2677 6.24731 40.5349 6.96902 35.9558 8.40777L33.905 9.05512C33.5883 9.15503 33.3117 9.35309 33.1152 9.62084C32.9188 9.88859 32.8128 10.2121 32.8125 10.5442V18.729C32.8096 18.9361 32.8478 19.1419 32.925 19.334C33.0022 19.5262 33.1169 19.7008 33.2623 19.8482C33.4076 19.9957 33.5809 20.1128 33.7719 20.1927C33.9629 20.2726 34.1679 20.314 34.375 20.314C34.5821 20.314 34.7871 20.2726 34.9781 20.1927C35.1691 20.1128 35.3424 19.9957 35.4878 19.8482C35.6331 19.7008 35.7478 19.5262 35.825 19.334C35.9022 19.1419 35.9404 18.9361 35.9375 18.729V11.6917L36.8958 11.3914C45.448 8.70393 54.552 8.70393 63.1042 11.3914L64.0625 11.6917V18.729C64.0596 18.9361 64.0978 19.1419 64.175 19.334C64.2522 19.5262 64.3669 19.7008 64.5123 19.8482C64.6576 19.9957 64.8309 20.1128 65.0219 20.1927C65.2129 20.2726 65.4179 20.314 65.625 20.314C65.8321 20.314 66.0371 20.2726 66.2281 20.1927C66.4191 20.1128 66.5924 19.9957 66.7378 19.8482C66.8831 19.7008 66.9978 19.5262 67.075 19.334C67.1522 19.1419 67.1904 18.9361 67.1875 18.729V10.5442C67.1872 10.2121 67.0812 9.88859 66.8848 9.62084C66.6883 9.35309 66.4117 9.15503 66.095 9.05512L64.0442 8.40777C59.4651 6.96902 54.7323 6.24731 50 6.24731Z" fill="#39BEB9"/>
</g>
<defs>
<filter id="filter0_d" x="-4" y="0" width="108" height="108" filterUnits="userSpaceOnUse" color-interpolation-filters="sRGB">
<feFlood flood-opacity="0" result="BackgroundImageFix"/>
<feColorMatrix in="SourceAlpha" type="matrix" values="0 0 0 0 0 0 0 0 0 0 0 0 0 0 0 0 0 0 127 0"/>
<feOffset dy="4"/>
<feGaussianBlur stdDeviation="2"/>
<feColorMatrix type="matrix" values="0 0 0 0 0 0 0 0 0 0 0 0 0 0 0 0 0 0 0.25 0"/>
<feBlend mode="normal" in2="BackgroundImageFix" result="effect1_dropShadow"/>
<feBlend mode="normal" in="SourceGraphic" in2="effect1_dropShadow" result="shape"/>
</filter>
</defs>
</svg>
