<svg width="100" height="106" viewBox="0 0 100 106" fill="none" xmlns="http://www.w3.org/2000/svg">
<g filter="url(#filter0_d)">
<path d="M30.4687 66.5357V89.8438C30.4687 93.9361 33.8771 97.2656 37.9687 97.2656H62.0312C66.1236 97.2656 69.5312 93.9361 69.5312 89.8438V66.5357L71.6029 60.31C71.6549 60.1504 71.6808 59.9836 71.6797 59.8158V37.2377C71.6797 33.7914 68.8039 31.0547 65.3576 31.0547H50.1953V27.7344C50.1953 26.8715 49.5933 26.1719 48.7304 26.1719H44.7265V4.29688C44.7265 3.88247 44.5619 3.48505 44.2689 3.19202C43.9759 2.89899 43.5784 2.73438 43.164 2.73438C42.7496 2.73438 42.3522 2.89899 42.0592 3.19202C41.7662 3.48505 41.6015 3.88247 41.6015 4.29688V26.1719H37.5976C36.7347 26.1719 35.9375 26.8715 35.9375 27.7344V31.0547H34.6424C31.1961 31.0547 28.3203 33.7914 28.3203 37.2377V59.8158C28.3191 59.9836 28.345 60.1504 28.397 60.31L30.4687 66.5357ZM39.0625 29.2969H47.0703V31.0547H39.0625V29.2969ZM31.4453 37.2377C31.4453 35.5145 32.9193 34.1797 34.6424 34.1797H65.3576C67.0806 34.1797 68.5547 35.5145 68.5547 37.2377V59.5619L66.483 65.7875C66.431 65.947 66.4051 66.1139 66.4062 66.2816V89.8438C66.4062 92.2131 64.3998 94.1406 62.0312 94.1406H37.9687C35.5994 94.1406 33.5937 92.2131 33.5937 89.8438V66.282C33.5949 66.1143 33.569 65.9474 33.517 65.7879L31.4453 59.5623V37.2377Z" fill="#39BEB9"/>
<path d="M36.3281 54.8828H63.4766C63.891 54.8828 64.2884 54.7182 64.5814 54.4252C64.8744 54.1321 65.0391 53.7347 65.0391 53.3203V39.6484C65.0391 39.234 64.8744 38.8366 64.5814 38.5436C64.2884 38.2506 63.891 38.0859 63.4766 38.0859H36.3281C35.9137 38.0859 35.5163 38.2506 35.2233 38.5436C34.9302 38.8366 34.7656 39.234 34.7656 39.6484V53.3203C34.7656 53.7347 34.9302 54.1321 35.2233 54.4252C35.5163 54.7182 35.9137 54.8828 36.3281 54.8828ZM37.8906 41.2109H62.1094V51.7578H37.8906V41.2109Z" fill="#39BEB9"/>
<path d="M51.5625 64.2578H48.2422C47.8278 64.2578 47.4304 64.4224 47.1373 64.7155C46.8443 65.0085 46.6797 65.4059 46.6797 65.8203C46.6797 66.2347 46.8443 66.6321 47.1373 66.9252C47.4304 67.2182 47.8278 67.3828 48.2422 67.3828H51.5625C51.9769 67.3828 52.3743 67.2182 52.6674 66.9252C52.9604 66.6321 53.125 66.2347 53.125 65.8203C53.125 65.4059 52.9604 65.0085 52.6674 64.7155C52.3743 64.4224 51.9769 64.2578 51.5625 64.2578Z" fill="#39BEB9"/>
<path d="M42.9688 64.2578H39.6484C39.234 64.2578 38.8366 64.4224 38.5436 64.7155C38.2506 65.0085 38.0859 65.4059 38.0859 65.8203C38.0859 66.2347 38.2506 66.6321 38.5436 66.9252C38.8366 67.2182 39.234 67.3828 39.6484 67.3828H42.9688C43.3832 67.3828 43.7806 67.2182 44.0736 66.9252C44.3666 66.6321 44.5312 66.2347 44.5312 65.8203C44.5312 65.4059 44.3666 65.0085 44.0736 64.7155C43.7806 64.4224 43.3832 64.2578 42.9688 64.2578Z" fill="#39BEB9"/>
<path d="M60.1562 64.2578H56.8359C56.4215 64.2578 56.0241 64.4224 55.7311 64.7155C55.4381 65.0085 55.2734 65.4059 55.2734 65.8203C55.2734 66.2347 55.4381 66.6321 55.7311 66.9252C56.0241 67.2182 56.4215 67.3828 56.8359 67.3828H60.1562C60.5707 67.3828 60.9681 67.2182 61.2611 66.9252C61.5541 66.6321 61.7188 66.2347 61.7188 65.8203C61.7188 65.4059 61.5541 65.0085 61.2611 64.7155C60.9681 64.4224 60.5707 64.2578 60.1562 64.2578Z" fill="#39BEB9"/>
<path d="M51.5625 70.7031H48.2422C47.8278 70.7031 47.4304 70.8677 47.1373 71.1608C46.8443 71.4538 46.6797 71.8512 46.6797 72.2656C46.6797 72.68 46.8443 73.0775 47.1373 73.3705C47.4304 73.6635 47.8278 73.8281 48.2422 73.8281H51.5625C51.9769 73.8281 52.3743 73.6635 52.6674 73.3705C52.9604 73.0775 53.125 72.68 53.125 72.2656C53.125 71.8512 52.9604 71.4538 52.6674 71.1608C52.3743 70.8677 51.9769 70.7031 51.5625 70.7031Z" fill="#39BEB9"/>
<path d="M42.9688 70.7031H39.6484C39.234 70.7031 38.8366 70.8677 38.5436 71.1608C38.2506 71.4538 38.0859 71.8512 38.0859 72.2656C38.0859 72.68 38.2506 73.0775 38.5436 73.3705C38.8366 73.6635 39.234 73.8281 39.6484 73.8281H42.9688C43.3832 73.8281 43.7806 73.6635 44.0736 73.3705C44.3666 73.0775 44.5312 72.68 44.5312 72.2656C44.5312 71.8512 44.3666 71.4538 44.0736 71.1608C43.7806 70.8677 43.3832 70.7031 42.9688 70.7031Z" fill="#39BEB9"/>
<path d="M60.1562 70.7031H56.8359C56.4215 70.7031 56.0241 70.8677 55.7311 71.1608C55.4381 71.4538 55.2734 71.8512 55.2734 72.2656C55.2734 72.68 55.4381 73.0775 55.7311 73.3705C56.0241 73.6635 56.4215 73.8281 56.8359 73.8281H60.1562C60.5707 73.8281 60.9681 73.6635 61.2611 73.3705C61.5541 73.0775 61.7188 72.68 61.7188 72.2656C61.7188 71.8512 61.5541 71.4538 61.2611 71.1608C60.9681 70.8677 60.5707 70.7031 60.1562 70.7031Z" fill="#39BEB9"/>
<path d="M51.5625 77.1484H48.2422C47.8278 77.1484 47.4304 77.3131 47.1373 77.6061C46.8443 77.8991 46.6797 78.2965 46.6797 78.7109C46.6797 79.1253 46.8443 79.5228 47.1373 79.8158C47.4304 80.1088 47.8278 80.2734 48.2422 80.2734H51.5625C51.9769 80.2734 52.3743 80.1088 52.6674 79.8158C52.9604 79.5228 53.125 79.1253 53.125 78.7109C53.125 78.2965 52.9604 77.8991 52.6674 77.6061C52.3743 77.3131 51.9769 77.1484 51.5625 77.1484Z" fill="#39BEB9"/>
<path d="M42.9688 77.1484H39.6484C39.234 77.1484 38.8366 77.3131 38.5436 77.6061C38.2506 77.8991 38.0859 78.2965 38.0859 78.7109C38.0859 79.1253 38.2506 79.5228 38.5436 79.8158C38.8366 80.1088 39.234 80.2734 39.6484 80.2734H42.9688C43.3832 80.2734 43.7806 80.1088 44.0736 79.8158C44.3666 79.5228 44.5312 79.1253 44.5312 78.7109C44.5312 78.2965 44.3666 77.8991 44.0736 77.6061C43.7806 77.3131 43.3832 77.1484 42.9688 77.1484Z" fill="#39BEB9"/>
<path d="M60.1562 77.1484H56.8359C56.4215 77.1484 56.0241 77.3131 55.7311 77.6061C55.4381 77.8991 55.2734 78.2965 55.2734 78.7109C55.2734 79.1253 55.4381 79.5228 55.7311 79.8158C56.0241 80.1088 56.4215 80.2734 56.8359 80.2734H60.1562C60.5707 80.2734 60.9681 80.1088 61.2611 79.8158C61.5541 79.5228 61.7188 79.1253 61.7188 78.7109C61.7188 78.2965 61.5541 77.8991 61.2611 77.6061C60.9681 77.3131 60.5707 77.1484 60.1562 77.1484Z" fill="#39BEB9"/>
<path d="M51.5625 83.5938H48.2422C47.8278 83.5938 47.4304 83.7584 47.1373 84.0514C46.8443 84.3444 46.6797 84.7418 46.6797 85.1562C46.6797 85.5707 46.8443 85.9681 47.1373 86.2611C47.4304 86.5541 47.8278 86.7188 48.2422 86.7188H51.5625C51.9769 86.7188 52.3743 86.5541 52.6674 86.2611C52.9604 85.9681 53.125 85.5707 53.125 85.1562C53.125 84.7418 52.9604 84.3444 52.6674 84.0514C52.3743 83.7584 51.9769 83.5938 51.5625 83.5938Z" fill="#39BEB9"/>
<path d="M42.9688 83.5938H39.6484C39.234 83.5938 38.8366 83.7584 38.5436 84.0514C38.2506 84.3444 38.0859 84.7418 38.0859 85.1562C38.0859 85.5707 38.2506 85.9681 38.5436 86.2611C38.8366 86.5541 39.234 86.7188 39.6484 86.7188H42.9688C43.3832 86.7188 43.7806 86.5541 44.0736 86.2611C44.3666 85.9681 44.5312 85.5707 44.5312 85.1562C44.5312 84.7418 44.3666 84.3444 44.0736 84.0514C43.7806 83.7584 43.3832 83.5938 42.9688 83.5938Z" fill="#39BEB9"/>
<path d="M60.1562 83.5938H56.8359C56.4215 83.5938 56.0241 83.7584 55.7311 84.0514C55.4381 84.3444 55.2734 84.7418 55.2734 85.1562C55.2734 85.5707 55.4381 85.9681 55.7311 86.2611C56.0241 86.5541 56.4215 86.7188 56.8359 86.7188H60.1562C60.5707 86.7188 60.9681 86.5541 61.2611 86.2611C61.5541 85.9681 61.7188 85.5707 61.7188 85.1562C61.7188 84.7418 61.5541 84.3444 61.2611 84.0514C60.9681 83.7584 60.5707 83.5938 60.1562 83.5938Z" fill="#39BEB9"/>
</g>
<defs>
<filter id="filter0_d" x="-4" y="0" width="108" height="108" filterUnits="userSpaceOnUse" color-interpolation-filters="sRGB">
<feFlood flood-opacity="0" result="BackgroundImageFix"/>
<feColorMatrix in="SourceAlpha" type="matrix" values="0 0 0 0 0 0 0 0 0 0 0 0 0 0 0 0 0 0 127 0"/>
<feOffset dy="4"/>
<feGaussianBlur stdDeviation="2"/>
<feColorMatrix type="matrix" values="0 0 0 0 0 0 0 0 0 0 0 0 0 0 0 0 0 0 0.25 0"/>
<feBlend mode="normal" in2="BackgroundImageFix" result="effect1_dropShadow"/>
<feBlend mode="normal" in="SourceGraphic" in2="effect1_dropShadow" result="shape"/>
</filter>
</defs>
</svg>
