<svg height='100px' width='100px'  fill="#000000" xmlns="http://www.w3.org/2000/svg" viewBox="0 0 60 60" x="0px" y="0px"><defs><style>.cls-1{fill:none;stroke:#000000;stroke-linecap:round;stroke-linejoin:round;stroke-width:2px;}</style></defs><title>Household Appliances - Outline - 001 - Washing Machine</title><path class="cls-1" d="M54.96226,59H5.03774A2.01913,2.01913,0,0,1,3,57V3A2.01913,2.01913,0,0,1,5.03774,1H54.96226A2.01913,2.01913,0,0,1,57,3V57A2.01913,2.01913,0,0,1,54.96226,59Z"></path><line class="cls-1" x1="57" y1="10" x2="3" y2="10"></line><line class="cls-1" x1="52" y1="5" x2="52" y2="6"></line><line class="cls-1" x1="48" y1="5" x2="48" y2="6"></line><line class="cls-1" x1="20" y1="1" x2="20" y2="10"></line><line class="cls-1" x1="8" y1="6" x2="15" y2="6"></line><line class="cls-1" x1="3" y1="52" x2="57" y2="52"></line><line class="cls-1" x1="44" y1="52" x2="44" y2="59"></line><path class="cls-1" d="M46.66,35a17.0207,17.0207,0,1,1-.01-8"></path><path class="cls-1" d="M42.5,35a13,13,0,1,1,0-8"></path><path class="cls-1" d="M15,39H11a2.00588,2.00588,0,0,1-2-2V25a2.00588,2.00588,0,0,1,2-2h4"></path><rect class="cls-1" x="39" y="27" width="12" height="8" rx="1" ry="1"></rect></svg>