<svg width="102" height="104" viewBox="0 0 102 104" fill="none" xmlns="http://www.w3.org/2000/svg">
<g filter="url(#filter0_d)">
<path d="M51 57.104C55.291 57.104 58.782 53.613 58.782 49.322C58.782 45.031 55.291 41.54 51 41.54C46.709 41.54 43.218 45.031 43.218 49.322C43.218 53.613 46.709 57.104 51 57.104ZM51 44.54C53.11 44.54 54.884 45.923 55.518 47.822H53.589C52.761 47.822 52.089 48.493 52.089 49.322C52.089 50.151 52.761 50.822 53.589 50.822H55.518C54.885 52.721 53.11 54.104 51 54.104C48.363 54.104 46.218 51.959 46.218 49.322C46.218 46.685 48.363 44.54 51 44.54Z" fill="#39BEB9"/>
<path d="M60.433 59.7839H41.567C40.739 59.7839 40.067 60.4549 40.067 61.2839V66.5399C40.067 67.3689 40.739 68.0399 41.567 68.0399H60.432C61.26 68.0399 61.932 67.3689 61.932 66.5399V61.2839C61.933 60.4559 61.261 59.7839 60.433 59.7839ZM58.933 65.0399H43.067V62.7839H58.932V65.0399H58.933Z" fill="#39BEB9"/>
<path d="M96 92.459H71.449C69.519 92.459 67.949 90.889 67.949 88.959V83.522H69.191C71.121 83.522 72.691 81.952 72.691 80.022V74.421H80.375C84.511 74.421 87.875 71.057 87.875 66.921V12.041C87.875 7.90502 84.511 4.54102 80.375 4.54102H21.625C17.489 4.54102 14.125 7.90502 14.125 12.041V66.922C14.125 71.058 17.489 74.422 21.625 74.422H29.309V80.023C29.309 81.953 30.879 83.523 32.809 83.523H34.051V88.96C34.051 90.89 32.481 92.46 30.551 92.46H6C5.172 92.46 4.5 93.131 4.5 93.96C4.5 94.789 5.172 95.46 6 95.46H30.551C34.135 95.46 37.051 92.544 37.051 88.96V83.523H38.292C40.222 83.523 41.792 81.953 41.792 80.023V74.422H60.208V80.023C60.208 81.953 61.778 83.523 63.708 83.523H64.949V88.96C64.949 92.544 67.865 95.46 71.449 95.46H96C96.828 95.46 97.5 94.789 97.5 93.96C97.5 93.131 96.828 92.459 96 92.459ZM40.292 71.422H32.487L35.316 49.54C36.333 41.681 43.075 35.754 51 35.754C58.925 35.754 65.667 41.681 66.684 49.54L69.513 71.422H61.708H40.292ZM17.125 66.922V12.041C17.125 9.56002 19.144 7.54102 21.625 7.54102H80.375C82.856 7.54102 84.875 9.56002 84.875 12.041V66.922C84.875 69.403 82.856 71.422 80.375 71.422H72.537L69.658 49.155C68.449 39.805 60.428 32.754 51 32.754C41.572 32.754 33.551 39.805 32.342 49.155L29.463 71.422H21.625C19.144 71.422 17.125 69.403 17.125 66.922ZM38.792 80.022C38.792 80.298 38.567 80.522 38.292 80.522H32.809C32.534 80.522 32.309 80.298 32.309 80.022V74.421H38.792V80.022ZM63.208 80.022V74.421H69.691V80.022C69.691 80.298 69.466 80.522 69.191 80.522H63.708C63.433 80.522 63.208 80.298 63.208 80.022Z" fill="#39BEB9"/>
</g>
<defs>
<filter id="filter0_d" x="-3" y="0" width="108" height="108" filterUnits="userSpaceOnUse" color-interpolation-filters="sRGB">
<feFlood flood-opacity="0" result="BackgroundImageFix"/>
<feColorMatrix in="SourceAlpha" type="matrix" values="0 0 0 0 0 0 0 0 0 0 0 0 0 0 0 0 0 0 127 0"/>
<feOffset dy="4"/>
<feGaussianBlur stdDeviation="2"/>
<feColorMatrix type="matrix" values="0 0 0 0 0 0 0 0 0 0 0 0 0 0 0 0 0 0 0.25 0"/>
<feBlend mode="normal" in2="BackgroundImageFix" result="effect1_dropShadow"/>
<feBlend mode="normal" in="SourceGraphic" in2="effect1_dropShadow" result="shape"/>
</filter>
</defs>
</svg>
