<svg height='100px' width='100px'  fill="#000000" xmlns="http://www.w3.org/2000/svg" xmlns:xlink="http://www.w3.org/1999/xlink" version="1.1" x="0px" y="0px" viewBox="0 0 24 24" style="enable-background:new 0 0 24 24;" xml:space="preserve"><g><path d="M18.733,0.253c-2.318,0-4.205,1.886-4.205,4.205c0,1.778,1.113,3.293,2.676,3.907v6.55c0,0.136,0.11,0.246,0.246,0.246   h0.136v0.382c0,0.497,0.322,0.91,0.764,1.069v2.944c0,2.002-1.629,3.631-3.631,3.631c-1.806,0-3.296-1.329-3.573-3.058h0.324   c0.632,0,1.147-0.514,1.147-1.147v-1.198c0.261-0.041,0.521-0.083,0.764-0.128c0.495-0.096,0.854-0.531,0.853-1.035V1.614   c0.001-0.504-0.357-0.939-0.852-1.035h-0.001c-0.619-0.117-1.281-0.217-2.069-0.311c-0.024-0.007-0.05-0.013-0.083-0.016   l-0.021,0.002c-2.361-0.276-4.758-0.276-7.119,0L4.075,0.252L4.06,0.254C4.035,0.256,4.01,0.261,3.998,0.266   C3.203,0.361,2.541,0.461,1.915,0.579C1.42,0.675,1.061,1.11,1.062,1.614v15.008c-0.001,0.504,0.357,0.939,0.853,1.035   c0.642,0.121,1.343,0.226,2.144,0.32l0.149,0.018v1.134c-0.15,0.172-0.261,0.375-0.323,0.601H3.463c-0.221,0-0.4,0.179-0.4,0.4   s0.18,0.4,0.4,0.4h0.422c0.142,0.52,0.549,0.927,1.069,1.069v0.423c0,0.221,0.18,0.4,0.4,0.4s0.4-0.179,0.4-0.4v-0.423   c0.52-0.142,0.927-0.549,1.069-1.069h0.422c0.221,0,0.4-0.179,0.4-0.4s-0.18-0.4-0.4-0.4H6.824   c-0.062-0.226-0.173-0.429-0.323-0.601V18.17c0.075,0.002,0.14,0.003,0.168,0.004l0.137,0.004c0.275,0.009,0.561,0.019,0.842,0.019   c0.282,0,0.567-0.009,0.844-0.019l0.303-0.011v0.816c0,0.632,0.514,1.147,1.147,1.147h0.44c0.284,2.151,2.11,3.822,4.338,3.822   c2.424,0,4.396-1.972,4.396-4.396v-2.944c0.443-0.159,0.764-0.573,0.764-1.069V15.16h0.136c0.136,0,0.246-0.11,0.246-0.246v-6.55   c1.563-0.614,2.676-2.129,2.676-3.907C22.938,2.139,21.051,0.253,18.733,0.253z M4.468,1.018c1.05-0.115,2.12-0.175,3.18-0.177   c1.061,0.002,2.131,0.062,3.181,0.177v4.731c0,1.753-1.427,3.18-3.181,3.18c-1.753,0-3.18-1.427-3.18-3.18V1.018z M5.354,20.894   c-0.421,0-0.765-0.343-0.765-0.764s0.343-0.764,0.765-0.764c0.421,0,0.764,0.343,0.764,0.764S5.776,20.894,5.354,20.894z    M4.972,18.655v-0.579c0.242,0.021,0.497,0.039,0.765,0.055v0.524C5.614,18.623,5.487,18.6,5.354,18.6S5.095,18.623,4.972,18.655z    M10.324,19.365H9.941c-0.211,0-0.382-0.171-0.382-0.382v-0.852c0.269-0.016,0.524-0.035,0.765-0.055V19.365z M8.97,17.364   l-0.006-0.004l-0.021,0.005c-0.861,0.037-1.731,0.036-2.575,0.002l-0.007-0.005l-0.016,0.003c-1.431-0.062-2.872-0.229-4.281-0.495   c-0.117-0.023-0.202-0.127-0.2-0.248V1.613C1.862,1.493,1.947,1.39,2.063,1.366c0.483-0.091,1.009-0.174,1.604-0.254v4.637   c0,2.195,1.786,3.981,3.98,3.981c2.195,0,3.981-1.786,3.981-3.981V1.112c0.595,0.08,1.119,0.163,1.603,0.254   c0.117,0.023,0.202,0.127,0.2,0.248v15.009c0.002,0.119-0.083,0.223-0.199,0.247C11.828,17.134,10.394,17.3,8.97,17.364z    M11.088,17.994l0.149-0.018c0.218-0.026,0.411-0.054,0.615-0.082v1.088c0,0.211-0.171,0.382-0.382,0.382h-0.382V17.994z    M19.115,15.542c0,0.211-0.171,0.382-0.382,0.382s-0.382-0.171-0.382-0.382V15.16h0.765V15.542z M19.497,14.396h-1.529v-0.698   h1.529V14.396z M19.497,12.934h-1.529v-0.651h1.529V12.934z M19.497,11.518h-1.529V8.585c0.249,0.046,0.503,0.077,0.764,0.077   s0.516-0.031,0.764-0.077V11.518z M18.733,7.898c-1.897,0-3.44-1.543-3.44-3.44s1.543-3.44,3.44-3.44s3.44,1.543,3.44,3.44   S20.63,7.898,18.733,7.898z"></path><path d="M7.647,8.429c1.478,0,2.68-1.202,2.68-2.68c0-1.477-1.202-2.679-2.68-2.679c-1.477,0-2.679,1.202-2.679,2.679   c0,0.184,0.019,0.365,0.055,0.539C5.275,7.507,6.357,8.427,7.647,8.429z M5.809,5.372c0.176-0.854,0.934-1.499,1.838-1.5   c1.035,0,1.878,0.842,1.878,1.878S8.682,7.627,7.647,7.627S5.77,6.785,5.77,5.749C5.771,5.62,5.784,5.494,5.809,5.372z"></path><path d="M7.647,6.15c0.135,0,0.26-0.067,0.334-0.179l0.651-0.976c0.08-0.119,0.091-0.272,0.027-0.401S8.468,4.379,8.325,4.371   c-0.135-0.009-0.281,0.06-0.359,0.18L7.314,5.527c-0.082,0.123-0.089,0.28-0.02,0.411S7.499,6.15,7.647,6.15z"></path><path d="M10.002,12.422V11.12c-0.001-0.4-0.327-0.725-0.727-0.726H6.02c-0.399,0.001-0.726,0.326-0.727,0.726v1.302   c0.001,0.4,0.327,0.726,0.727,0.726h3.255C9.675,13.149,10.001,12.823,10.002,12.422z M6.096,12.347v-1.152H9.2l0.001,1.152H6.096z   "></path><path d="M5.695,13.958H5.044c-0.222,0-0.401,0.18-0.401,0.4s0.18,0.401,0.401,0.401h0.651c0.221,0,0.4-0.18,0.4-0.401   S5.916,13.958,5.695,13.958z"></path><path d="M5.695,15.259H5.044c-0.222,0-0.401,0.18-0.401,0.401s0.18,0.401,0.401,0.401h0.651c0.221,0,0.4-0.18,0.4-0.401   S5.916,15.259,5.695,15.259z"></path><path d="M10.252,13.958H9.6c-0.221,0-0.4,0.18-0.4,0.4s0.18,0.401,0.4,0.401h0.651c0.221,0,0.4-0.18,0.4-0.401   S10.473,13.958,10.252,13.958z"></path><path d="M10.252,15.259H9.6c-0.221,0-0.4,0.18-0.4,0.401s0.18,0.401,0.4,0.401h0.651c0.221,0,0.4-0.18,0.4-0.401   S10.473,15.259,10.252,15.259z"></path><path d="M18.733,2.546c0.211,0,0.382-0.171,0.382-0.382c0-0.211-0.171-0.382-0.382-0.382s-0.382,0.171-0.382,0.382   C18.351,2.375,18.522,2.546,18.733,2.546z"></path><path d="M20.355,3.218c0.211,0,0.382-0.171,0.382-0.382c0-0.211-0.171-0.382-0.382-0.382c-0.211,0-0.382,0.171-0.382,0.382   C19.972,3.047,20.144,3.218,20.355,3.218z"></path><path d="M21.026,4.075c-0.211,0-0.382,0.171-0.382,0.382s0.171,0.382,0.382,0.382s0.382-0.171,0.382-0.382   S21.237,4.075,21.026,4.075z"></path><path d="M20.355,5.697c-0.211,0-0.382,0.171-0.382,0.382s0.171,0.382,0.382,0.382c0.211,0,0.382-0.171,0.382-0.382   S20.566,5.697,20.355,5.697z"></path><circle cx="18.733" cy="6.751" r="0.382"></circle><path d="M17.111,5.697c-0.211,0-0.382,0.171-0.382,0.382s0.171,0.382,0.382,0.382c0.211,0,0.382-0.171,0.382-0.382   S17.322,5.697,17.111,5.697z"></path><path d="M16.439,4.075c-0.211,0-0.382,0.171-0.382,0.382s0.171,0.382,0.382,0.382s0.382-0.171,0.382-0.382   S16.651,4.075,16.439,4.075z"></path><path d="M17.111,2.453c-0.211,0-0.382,0.171-0.382,0.382c0,0.211,0.171,0.382,0.382,0.382c0.211,0,0.382-0.171,0.382-0.382   C17.493,2.625,17.322,2.453,17.111,2.453z"></path><path d="M18.733,4.075c0.211,0,0.382-0.171,0.382-0.382c0-0.211-0.171-0.382-0.382-0.382s-0.382,0.171-0.382,0.382   C18.351,3.904,18.522,4.075,18.733,4.075z"></path><circle cx="18.733" cy="5.222" r="0.382"></circle><path d="M19.497,4.075c-0.211,0-0.382,0.171-0.382,0.382s0.171,0.382,0.382,0.382c0.211,0,0.382-0.171,0.382-0.382   S19.708,4.075,19.497,4.075z"></path><path d="M17.968,4.075c-0.211,0-0.382,0.171-0.382,0.382s0.171,0.382,0.382,0.382c0.211,0,0.382-0.171,0.382-0.382   S18.18,4.075,17.968,4.075z"></path></g></svg>