<svg width="100" height="108" viewBox="0 0 100 108" fill="none" xmlns="http://www.w3.org/2000/svg">
<g filter="url(#filter0_d)">
<path d="M78.0542 1.05413C68.3959 1.05413 60.5334 8.91247 60.5334 18.575C60.5334 25.9833 65.1709 32.2958 71.6834 34.8541V62.1458C71.6834 62.7125 72.1417 63.1708 72.7084 63.1708H73.2751V64.7625C73.2751 66.8333 74.6167 68.5541 76.4584 69.2166V81.4833C76.4584 89.825 69.6709 96.6125 61.3292 96.6125C53.8042 96.6125 47.5959 91.075 46.4417 83.8708H47.7917C50.4251 83.8708 52.5709 81.7291 52.5709 79.0916V74.1C53.6584 73.9291 54.7417 73.7541 55.7542 73.5666C57.8167 73.1666 59.3126 71.3541 59.3084 69.2541V6.72497C59.3126 4.62497 57.8209 2.81247 55.7584 2.41247H55.7542C53.1751 1.92497 50.4167 1.5083 47.1334 1.11663C47.0334 1.08747 46.9251 1.06247 46.7876 1.04997L46.7001 1.0583C36.8626 -0.0916992 26.8751 -0.0916992 17.0376 1.0583L16.9792 1.04997L16.9167 1.0583C16.8126 1.06663 16.7084 1.08747 16.6584 1.1083C13.3459 1.50413 10.5876 1.9208 7.97922 2.41247C5.91672 2.81247 4.42089 4.62497 4.42506 6.72497V69.2583C4.42089 71.3583 5.91256 73.1708 7.97922 73.5708C10.6542 74.075 13.5751 74.5125 16.9126 74.9041L17.5334 74.9791V79.7041C16.9084 80.4208 16.4459 81.2666 16.1876 82.2083H14.4292C13.5084 82.2083 12.7626 82.9541 12.7626 83.875C12.7626 84.7958 13.5126 85.5416 14.4292 85.5416H16.1876C16.7792 87.7083 18.4751 89.4041 20.6417 89.9958V91.7583C20.6417 92.6791 21.3917 93.425 22.3084 93.425C23.2251 93.425 23.9751 92.6791 23.9751 91.7583V89.9958C26.1417 89.4041 27.8376 87.7083 28.4292 85.5416H30.1876C31.1084 85.5416 31.8542 84.7958 31.8542 83.875C31.8542 82.9541 31.1042 82.2083 30.1876 82.2083H28.4334C28.1751 81.2666 27.7126 80.4208 27.0876 79.7041V75.7083C27.4001 75.7166 27.6709 75.7208 27.7876 75.725L28.3584 75.7416C29.5042 75.7791 30.6959 75.8208 31.8667 75.8208C33.0417 75.8208 34.2292 75.7833 35.3834 75.7416L36.6459 75.6958V79.0958C36.6459 81.7291 38.7876 83.875 41.4251 83.875H43.2584C44.4417 92.8375 52.0501 99.8 61.3334 99.8C71.4334 99.8 79.65 91.5833 79.65 81.4833V69.2166C81.4959 68.5541 82.8334 66.8291 82.8334 64.7625V63.1666H83.4001C83.9667 63.1666 84.425 62.7083 84.425 62.1416V34.85C90.9375 32.2916 95.5751 25.9791 95.5751 18.5708C95.5751 8.91247 87.7126 1.05413 78.0542 1.05413ZM18.6167 4.24163C22.9917 3.76247 27.4501 3.51247 31.8667 3.50413C36.2876 3.51247 40.7459 3.76247 45.1209 4.24163V23.9541C45.1209 31.2583 39.1751 37.2041 31.8667 37.2041C24.5626 37.2041 18.6167 31.2583 18.6167 23.9541V4.24163ZM22.3084 87.0583C20.5542 87.0583 19.1209 85.6291 19.1209 83.875C19.1209 82.1208 20.5501 80.6916 22.3084 80.6916C24.0626 80.6916 25.4917 82.1208 25.4917 83.875C25.4917 85.6291 24.0667 87.0583 22.3084 87.0583ZM20.7167 77.7291V75.3166C21.7251 75.4041 22.7876 75.4791 23.9042 75.5458V77.7291C23.3917 77.5958 22.8626 77.5 22.3084 77.5C21.7542 77.5 21.2292 77.5958 20.7167 77.7291ZM43.0167 80.6875H41.4209C40.5417 80.6875 39.8292 79.975 39.8292 79.0958V75.5458C40.9501 75.4791 42.0126 75.4 43.0167 75.3166V80.6875V80.6875ZM37.3751 72.35L37.3501 72.3333L37.2626 72.3541C33.6751 72.5083 30.0501 72.5041 26.5334 72.3625L26.5042 72.3416L26.4376 72.3541C20.4751 72.0958 14.4709 71.4 8.60006 70.2916C8.11256 70.1958 7.75839 69.7625 7.76672 69.2583V6.7208C7.75839 6.2208 8.11256 5.79163 8.59589 5.69163C10.6084 5.31247 12.8001 4.96663 15.2792 4.6333V23.9541C15.2792 33.1 22.7209 40.5416 31.8626 40.5416C41.0084 40.5416 48.4501 33.1 48.4501 23.9541V4.6333C50.9292 4.96663 53.1126 5.31247 55.1292 5.69163C55.6167 5.78747 55.9709 6.2208 55.9626 6.72497V69.2625C55.9709 69.7583 55.6167 70.1916 55.1334 70.2916C49.2834 71.3916 43.3084 72.0833 37.3751 72.35ZM46.2001 74.975L46.8209 74.9C47.7292 74.7916 48.5334 74.675 49.3834 74.5583V79.0916C49.3834 79.9708 48.6709 80.6833 47.7917 80.6833H46.2001V74.975ZM79.6459 64.7583C79.6459 65.6375 78.9334 66.35 78.0542 66.35C77.1751 66.35 76.4626 65.6375 76.4626 64.7583V63.1666H79.65V64.7583H79.6459ZM81.2376 59.9833H74.8667V57.075H81.2376V59.9833ZM81.2376 53.8916H74.8667V51.1791H81.2376V53.8916ZM81.2376 47.9916H74.8667V35.7708C75.9042 35.9625 76.9626 36.0916 78.0501 36.0916C79.1376 36.0916 80.2001 35.9625 81.2334 35.7708V47.9916H81.2376ZM78.0542 32.9083C70.1501 32.9083 63.7209 26.4791 63.7209 18.575C63.7209 10.6708 70.1501 4.24163 78.0542 4.24163C85.9584 4.24163 92.3876 10.6708 92.3876 18.575C92.3876 26.4791 85.9584 32.9083 78.0542 32.9083Z" fill="#39BEB9"/>
<path d="M31.8625 35.1208C38.0208 35.1208 43.0291 30.1125 43.0291 23.9541C43.0291 17.8 38.0208 12.7916 31.8625 12.7916C25.7083 12.7916 20.7 17.8 20.7 23.9541C20.7 24.7208 20.7791 25.475 20.9291 26.2C21.9791 31.2791 26.4875 35.1125 31.8625 35.1208ZM24.2041 22.3833C24.9375 18.825 28.0958 16.1375 31.8625 16.1333C36.175 16.1333 39.6874 19.6416 39.6874 23.9583C39.6874 28.275 36.175 31.7791 31.8625 31.7791C27.55 31.7791 24.0416 28.2708 24.0416 23.9541C24.0458 23.4166 24.1 22.8916 24.2041 22.3833Z" fill="#39BEB9"/>
<path d="M31.8625 25.625C32.425 25.625 32.9459 25.3458 33.2542 24.8792L35.9667 20.8125C36.3 20.3167 36.3459 19.6792 36.0792 19.1417C35.8125 18.6042 35.2834 18.2458 34.6875 18.2125C34.125 18.175 33.5167 18.4625 33.1917 18.9625L30.475 23.0292C30.1334 23.5417 30.1042 24.1958 30.3917 24.7417C30.6792 25.2875 31.2459 25.625 31.8625 25.625Z" fill="#39BEB9"/>
<path d="M41.675 51.7583V46.3333C41.6709 44.6667 40.3125 43.3125 38.6459 43.3083H25.0834C23.4209 43.3125 22.0584 44.6667 22.0542 46.3333V51.7583C22.0584 53.425 23.4167 54.7833 25.0834 54.7833H38.6459C40.3125 54.7875 41.6709 53.4292 41.675 51.7583ZM25.4 51.4458V46.6458H38.3334L38.3375 51.4458H25.4Z" fill="#39BEB9"/>
<path d="M23.7293 58.1583H21.0168C20.0918 58.1583 19.3459 58.9083 19.3459 59.825C19.3459 60.7417 20.0959 61.4958 21.0168 61.4958H23.7293C24.6501 61.4958 25.3959 60.7458 25.3959 59.825C25.3959 58.9042 24.6501 58.1583 23.7293 58.1583Z" fill="#39BEB9"/>
<path d="M23.7293 63.5791H21.0168C20.0918 63.5791 19.3459 64.3291 19.3459 65.2499C19.3459 66.1708 20.0959 66.9208 21.0168 66.9208H23.7293C24.6501 66.9208 25.3959 66.1708 25.3959 65.2499C25.3959 64.3291 24.6501 63.5791 23.7293 63.5791Z" fill="#39BEB9"/>
<path d="M42.7168 58.1583H40.0002C39.0793 58.1583 38.3335 58.9083 38.3335 59.825C38.3335 60.7417 39.0835 61.4958 40.0002 61.4958H42.7127C43.6335 61.4958 44.3793 60.7458 44.3793 59.825C44.3793 58.9042 43.6377 58.1583 42.7168 58.1583Z" fill="#39BEB9"/>
<path d="M42.7168 63.5791H40.0002C39.0793 63.5791 38.3335 64.3291 38.3335 65.2499C38.3335 66.1708 39.0835 66.9208 40.0002 66.9208H42.7127C43.6335 66.9208 44.3793 66.1708 44.3793 65.2499C44.3793 64.3291 43.6377 63.5791 42.7168 63.5791Z" fill="#39BEB9"/>
<path d="M78.0543 10.6083C78.9335 10.6083 79.646 9.89576 79.646 9.01659C79.646 8.13743 78.9335 7.42493 78.0543 7.42493C77.1751 7.42493 76.4626 8.13743 76.4626 9.01659C76.4626 9.89576 77.1751 10.6083 78.0543 10.6083Z" fill="#39BEB9"/>
<path d="M84.8126 13.4083C85.6918 13.4083 86.4043 12.6958 86.4043 11.8166C86.4043 10.9375 85.6918 10.225 84.8126 10.225C83.9335 10.225 83.221 10.9375 83.221 11.8166C83.2168 12.6958 83.9335 13.4083 84.8126 13.4083Z" fill="#39BEB9"/>
<path d="M87.6083 16.9791C86.7291 16.9791 86.0166 17.6916 86.0166 18.5708C86.0166 19.45 86.7291 20.1625 87.6083 20.1625C88.4874 20.1625 89.1999 19.45 89.1999 18.5708C89.1999 17.6916 88.4874 16.9791 87.6083 16.9791Z" fill="#39BEB9"/>
<path d="M84.8126 23.7374C83.9334 23.7374 83.2209 24.4499 83.2209 25.3291C83.2209 26.2083 83.9334 26.9208 84.8126 26.9208C85.6918 26.9208 86.4043 26.2083 86.4043 25.3291C86.4043 24.4499 85.6918 23.7374 84.8126 23.7374Z" fill="#39BEB9"/>
<path d="M78.0543 29.7208C78.9334 29.7208 79.646 29.0082 79.646 28.1291C79.646 27.2501 78.9334 26.5375 78.0543 26.5375C77.1753 26.5375 76.4626 27.2501 76.4626 28.1291C76.4626 29.0082 77.1753 29.7208 78.0543 29.7208Z" fill="#39BEB9"/>
<path d="M71.2958 23.7374C70.4166 23.7374 69.7041 24.4499 69.7041 25.3291C69.7041 26.2083 70.4166 26.9208 71.2958 26.9208C72.1749 26.9208 72.8874 26.2083 72.8874 25.3291C72.8874 24.4499 72.1749 23.7374 71.2958 23.7374Z" fill="#39BEB9"/>
<path d="M68.496 16.9791C67.6168 16.9791 66.9043 17.6916 66.9043 18.5708C66.9043 19.45 67.6168 20.1625 68.496 20.1625C69.3751 20.1625 70.0876 19.45 70.0876 18.5708C70.0876 17.6916 69.3793 16.9791 68.496 16.9791Z" fill="#39BEB9"/>
<path d="M71.2958 10.2208C70.4166 10.2208 69.7041 10.9333 69.7041 11.8125C69.7041 12.6917 70.4166 13.4042 71.2958 13.4042C72.1749 13.4042 72.8874 12.6917 72.8874 11.8125C72.8874 10.9375 72.1749 10.2208 71.2958 10.2208Z" fill="#39BEB9"/>
<path d="M78.0543 16.9791C78.9335 16.9791 79.646 16.2666 79.646 15.3874C79.646 14.5083 78.9335 13.7958 78.0543 13.7958C77.1751 13.7958 76.4626 14.5083 76.4626 15.3874C76.4626 16.2666 77.1751 16.9791 78.0543 16.9791Z" fill="#39BEB9"/>
<path d="M78.0543 23.35C78.9334 23.35 79.646 22.6373 79.646 21.7583C79.646 20.8792 78.9334 20.1666 78.0543 20.1666C77.1753 20.1666 76.4626 20.8792 76.4626 21.7583C76.4626 22.6373 77.1753 23.35 78.0543 23.35Z" fill="#39BEB9"/>
<path d="M81.2377 16.9791C80.3585 16.9791 79.646 17.6916 79.646 18.5708C79.646 19.45 80.3585 20.1625 81.2377 20.1625C82.1168 20.1625 82.8293 19.45 82.8293 18.5708C82.8293 17.6916 82.1168 16.9791 81.2377 16.9791Z" fill="#39BEB9"/>
<path d="M74.8668 16.9791C73.9876 16.9791 73.2751 17.6916 73.2751 18.5708C73.2751 19.45 73.9876 20.1625 74.8668 20.1625C75.746 20.1625 76.4585 19.45 76.4585 18.5708C76.4585 17.6916 75.7501 16.9791 74.8668 16.9791Z" fill="#39BEB9"/>
</g>
<defs>
<filter id="filter0_d" x="-4" y="0" width="108" height="108" filterUnits="userSpaceOnUse" color-interpolation-filters="sRGB">
<feFlood flood-opacity="0" result="BackgroundImageFix"/>
<feColorMatrix in="SourceAlpha" type="matrix" values="0 0 0 0 0 0 0 0 0 0 0 0 0 0 0 0 0 0 127 0"/>
<feOffset dy="4"/>
<feGaussianBlur stdDeviation="2"/>
<feColorMatrix type="matrix" values="0 0 0 0 0 0 0 0 0 0 0 0 0 0 0 0 0 0 0.25 0"/>
<feBlend mode="normal" in2="BackgroundImageFix" result="effect1_dropShadow"/>
<feBlend mode="normal" in="SourceGraphic" in2="effect1_dropShadow" result="shape"/>
</filter>
</defs>
</svg>
