<svg width="100" height="100" viewBox="0 0 100 100" fill="none" xmlns="http://www.w3.org/2000/svg">
<g filter="url(#filter0_d)">
<path d="M63.173 21.985H61.546C61.225 21.985 60.964 22.246 60.964 22.567V24.604C60.964 24.926 61.225 25.186 61.546 25.186H63.173V26.812C63.173 27.134 63.433 27.394 63.755 27.394H65.792C66.112 27.394 66.374 27.134 66.374 26.812V25.186H68C68.321 25.186 68.581 24.926 68.581 24.604V22.567C68.581 22.246 68.321 21.985 68 21.985H66.374V20.358C66.374 20.037 66.112 19.776 65.792 19.776H63.755C63.433 19.776 63.173 20.037 63.173 20.358V21.985ZM63.755 23.149C64.076 23.149 64.336 22.888 64.336 22.567V20.94H65.21V22.567C65.21 22.888 65.471 23.149 65.792 23.149H67.418V24.022H65.792C65.471 24.022 65.21 24.283 65.21 24.604V26.231H64.336V24.604C64.336 24.283 64.076 24.022 63.755 24.022H62.128V23.149H63.755Z" fill="#39BEB9"/>
<path d="M61.663 16.9451C62.578 16.9451 63.321 16.2011 63.321 15.2871C63.321 14.3731 62.578 13.6281 61.663 13.6281C60.749 13.6281 60.005 14.3721 60.005 15.2871C60.005 16.2021 60.749 16.9451 61.663 16.9451ZM61.663 14.7921C61.935 14.7921 62.157 15.0141 62.157 15.2871C62.157 15.5591 61.935 15.7821 61.663 15.7821C61.391 15.7821 61.169 15.5601 61.169 15.2871C61.169 15.0141 61.391 14.7921 61.663 14.7921Z" fill="#39BEB9"/>
<path d="M64.773 45.3781C63.858 45.3781 63.115 46.1221 63.115 47.0361C63.115 47.9511 63.858 48.6951 64.773 48.6951C65.687 48.6951 66.431 47.9511 66.431 47.0361C66.432 46.1231 65.688 45.3781 64.773 45.3781ZM64.773 47.5311C64.501 47.5311 64.279 47.3091 64.279 47.0361C64.279 46.7641 64.501 46.5411 64.773 46.5411C65.045 46.5411 65.267 46.7631 65.267 47.0361C65.268 47.3101 65.046 47.5311 64.773 47.5311Z" fill="#39BEB9"/>
<path d="M64.773 49.26C63.858 49.26 63.115 50.004 63.115 50.918C63.115 51.832 63.858 52.576 64.773 52.576C65.687 52.576 66.431 51.832 66.431 50.918C66.431 50.004 65.688 49.26 64.773 49.26ZM64.773 51.414C64.501 51.414 64.279 51.191 64.279 50.918C64.279 50.645 64.501 50.424 64.773 50.424C65.045 50.424 65.267 50.645 65.267 50.918C65.267 51.191 65.046 51.414 64.773 51.414Z" fill="#39BEB9"/>
<path d="M61.535 35.756C62.1292 35.756 62.611 35.2743 62.611 34.68C62.611 34.0857 62.1292 33.604 61.535 33.604C60.9407 33.604 60.459 34.0857 60.459 34.68C60.459 35.2743 60.9407 35.756 61.535 35.756Z" fill="#39BEB9"/>
<path d="M64.555 35.756C65.1493 35.756 65.631 35.2743 65.631 34.68C65.631 34.0857 65.1493 33.604 64.555 33.604C63.9607 33.604 63.479 34.0857 63.479 34.68C63.479 35.2743 63.9607 35.756 64.555 35.756Z" fill="#39BEB9"/>
<path d="M67.574 35.756C68.1682 35.756 68.65 35.2743 68.65 34.68C68.65 34.0857 68.1682 33.604 67.574 33.604C66.9797 33.604 66.498 34.0857 66.498 34.68C66.498 35.2743 66.9797 35.756 67.574 35.756Z" fill="#39BEB9"/>
<path d="M68.674 10.172H60.435C58.658 10.172 57.211 11.479 57.211 13.086V58.427C57.211 60.034 58.657 61.341 60.435 61.341H60.69V65.357C60.69 66.455 61.616 67.351 62.754 67.351H63.124C62.768 68.845 62.139 70.347 61.196 71.767C55.568 68.205 46.6 66.595 36.888 70.486C35.804 70.92 34.839 71.363 33.995 71.81C33.695 69.843 33.704 67.943 33.827 66.365C34.023 63.826 34.53 61.705 34.834 60.607C35.033 60.582 35.24 60.537 35.459 60.47C35.815 60.361 36.098 60.089 36.218 59.736L37.478 56.07C39.13 55.086 41.778 51.912 42.687 41.717C43.158 36.446 42.758 31.696 41.506 27.589C41.819 27.207 41.985 26.684 41.968 26.094C41.948 25.392 41.682 24.643 41.218 23.982C40.647 23.17 39.862 22.618 39.08 22.444L39.176 22.382C38.928 21.999 38.744 21.76 38.658 21.654C38.328 21.179 36.061 18.075 32.954 18.169C31.887 18.201 30.88 18.598 29.941 19.347C29.464 19.232 28.511 19.089 27.718 19.497C27.224 19.751 26.872 20.185 26.7 20.752C26.517 21.354 26.533 21.825 26.74 22.162C26.101 22.347 25.434 22.836 25.098 23.916C24.776 24.945 24.407 25.167 24.185 25.3C24.029 25.393 23.705 25.588 23.705 26.004C23.705 26.215 23.796 26.412 23.976 26.591C24.258 26.87 24.817 27.14 25.331 27.279C25.215 27.61 25.131 27.891 25.098 28.091C24.844 29.613 26.552 31.21 27.298 31.826C27.337 31.859 27.308 31.842 27.352 31.868C27.385 31.893 30.567 34.477 28.271 43.816C27.499 47.185 27.5 53.789 32.551 56.072L31.947 58.508C31.878 58.791 31.915 59.088 32.053 59.344C32.158 59.537 32.338 59.77 32.588 59.985C31.983 62.133 30.736 67.614 31.855 73.159C30.052 74.536 29.306 75.973 29.632 77.462C30.098 79.587 32.768 80.985 36.222 81.698C39.764 85.305 45.167 87.255 52.33 87.499C52.764 87.515 53.228 87.524 53.717 87.524C58.232 87.524 64.74 86.741 66.643 82.475C67.762 79.965 66.918 76.985 64.329 74.293C63.96 73.908 63.558 73.533 63.125 73.172C64.301 71.43 65.1 69.475 65.509 67.352H66.357C67.495 67.352 68.421 66.456 68.421 65.358V61.342H68.675C70.452 61.342 71.899 60.035 71.899 58.428V13.086C71.897 11.479 70.451 10.172 68.674 10.172ZM34.84 56.51H34.866L34.773 56.781L34.84 56.51ZM35.175 24.767C35.634 24.663 36.23 24.828 36.8 25.218C36.919 25.702 37.139 26.187 37.451 26.631C37.761 27.072 38.136 27.433 38.538 27.703C38.689 28.293 38.666 28.836 38.482 29.224L37.156 28.8L35.654 27.172L35.15 24.802L35.175 24.767ZM40.267 24.652C40.596 25.12 40.792 25.658 40.806 26.127C40.812 26.351 40.78 26.757 40.495 26.956C40.388 27.032 40.254 27.07 40.098 27.07C39.643 27.07 38.943 26.727 38.404 25.961C38.074 25.493 37.878 24.956 37.864 24.487C37.858 24.263 37.889 23.857 38.174 23.657C38.281 23.582 38.416 23.544 38.572 23.544C39.027 23.544 39.728 23.886 40.267 24.652ZM33.019 20.495C34.674 20.453 36.28 22.285 36.758 22.998C36.782 23.034 36.812 23.073 36.84 23.106C36.841 23.107 36.893 23.17 36.983 23.294C36.96 23.335 36.938 23.377 36.918 23.419L35.867 22.746C35.606 22.579 35.259 22.645 35.079 22.898L34.055 24.336C33.96 24.469 33.926 24.635 33.96 24.794L34.55 27.57C34.572 27.672 34.621 27.767 34.692 27.843L36.406 29.701C36.474 29.775 36.56 29.83 36.656 29.861L38.917 30.585C38.976 30.604 39.036 30.613 39.094 30.613C39.286 30.613 39.471 30.518 39.58 30.35L39.762 30.074C40.539 33.469 40.745 37.303 40.369 41.511C39.381 52.608 36.405 54.043 36.024 54.182H35.49C35.271 52.328 35.447 49.683 35.447 49.676C35.461 49.557 35.792 46.713 35.675 43.014C35.516 38.012 34.641 34.052 33.072 31.243C30.67 26.94 30.368 23.75 30.416 22.166C31.265 21.085 32.138 20.524 33.019 20.495ZM27.815 21.091C27.897 20.822 28.035 20.646 28.251 20.534C28.431 20.44 28.648 20.403 28.867 20.395C28.6 20.705 28.34 21.045 28.086 21.419L28.081 21.405C27.974 21.451 27.832 21.486 27.736 21.494C27.738 21.42 27.754 21.293 27.815 21.091ZM25.756 26.189C25.582 26.154 25.381 26.084 25.2 26.003C25.52 25.722 25.909 25.224 26.209 24.262C26.407 23.628 26.753 23.375 27.06 23.282C26.67 24.107 26.161 25.212 25.756 26.189ZM30.333 48.893C30.049 46.545 30.535 44.356 30.535 44.354C33.13 33.801 29.408 30.497 28.755 30.01C28.127 29.483 27.495 28.735 27.405 28.418C27.538 27.846 28.441 25.793 29.324 23.941C29.537 25.84 30.219 28.52 32.056 31.809C35.591 38.14 34.305 49.424 34.289 49.566C34.28 49.698 34.112 52.218 34.322 54.181H34.106C31.941 53.48 30.672 51.703 30.333 48.893ZM31.905 76.961C31.885 76.869 31.829 76.4 32.53 75.654C32.872 76.644 33.305 77.619 33.848 78.562C32.703 78.061 32.021 77.488 31.905 76.961ZM36.449 78.326C35.552 77.025 34.931 75.609 34.513 74.178C35.322 73.711 36.376 73.199 37.753 72.647C42.756 70.645 47.953 70.073 52.784 70.995C55.351 71.487 57.752 72.399 59.741 73.612C56.661 76.932 51.513 79.489 43.702 79.887C41.307 80.006 39.181 79.864 37.416 79.563C37.07 79.172 36.747 78.76 36.449 78.326ZM64.517 81.527C63.383 84.068 58.966 85.396 52.411 85.173C47.561 85.007 43.626 84.017 40.644 82.222C41.696 82.269 42.766 82.263 43.821 82.21C49.049 81.942 53.975 80.54 57.692 78.263C59.233 77.32 60.567 76.226 61.684 75.001C62.029 75.29 62.351 75.595 62.652 75.903C64.55 77.881 65.229 79.928 64.517 81.527ZM66.092 65.023H63.018V61.587H66.092V65.023ZM69.57 58.428C69.57 58.705 69.186 59.016 68.674 59.016H60.435C59.922 59.016 59.539 58.705 59.539 58.428V13.086C59.539 12.809 59.922 12.5 60.435 12.5H68.674C69.187 12.5 69.57 12.81 69.57 13.086V58.428Z" fill="#39BEB9"/>
<path d="M62.494 56.871H61.529V57.836H62.494V56.871Z" fill="#39BEB9"/>
<path d="M64.335 56.871H63.37V57.836H64.335V56.871Z" fill="#39BEB9"/>
<path d="M66.177 56.871H65.211V57.836H66.177V56.871Z" fill="#39BEB9"/>
<path d="M68.017 56.871H67.052V57.836H68.017V56.871Z" fill="#39BEB9"/>
</g>
<defs>
<filter id="filter0_d" x="-4" y="0" width="108" height="108" filterUnits="userSpaceOnUse" color-interpolation-filters="sRGB">
<feFlood flood-opacity="0" result="BackgroundImageFix"/>
<feColorMatrix in="SourceAlpha" type="matrix" values="0 0 0 0 0 0 0 0 0 0 0 0 0 0 0 0 0 0 127 0"/>
<feOffset dy="4"/>
<feGaussianBlur stdDeviation="2"/>
<feColorMatrix type="matrix" values="0 0 0 0 0 0 0 0 0 0 0 0 0 0 0 0 0 0 0.25 0"/>
<feBlend mode="normal" in2="BackgroundImageFix" result="effect1_dropShadow"/>
<feBlend mode="normal" in="SourceGraphic" in2="effect1_dropShadow" result="shape"/>
</filter>
</defs>
</svg>
