<svg width="100" height="105" viewBox="0 0 100 105" fill="none" xmlns="http://www.w3.org/2000/svg">
<g filter="url(#filter0_d)">
<path d="M80.9619 3.05127H22.7806C18.3525 3.05127 14.7494 6.65377 14.7494 11.0825V16.4306C12.5681 17.2369 11.0063 19.3306 11.0063 21.7881V30.355C11.0063 32.8125 12.5681 34.9069 14.7494 35.7125V57.9719C12.5681 58.7781 11.0063 60.8719 11.0063 63.3294V71.8963C11.0063 74.3538 12.5681 76.4481 14.7494 77.2538V82.6019C14.7494 87.0306 18.3525 90.6338 22.7806 90.6338H23.1488V92.44C23.1488 94.9263 25.1713 96.9488 27.6575 96.9488H37.5575C40.0438 96.9488 42.0663 94.9263 42.0663 92.44V90.6338H61.6756V92.44C61.6756 94.9263 63.6981 96.9488 66.1844 96.9488H76.0844C78.5713 96.9488 80.5938 94.9263 80.5938 92.44V90.6338H80.9619C85.3906 90.6338 88.9938 87.0306 88.9938 82.6019V11.0825C88.9938 6.65377 85.3906 3.05127 80.9619 3.05127ZM15.3813 21.7881C15.3813 21.0488 15.9825 20.4469 16.7225 20.4469C17.4625 20.4469 18.0638 21.0488 18.0638 21.7881V30.355C18.0638 31.0944 17.4619 31.6963 16.7225 31.6963C15.9831 31.6963 15.3813 31.0944 15.3813 30.355V21.7881ZM15.3813 63.33C15.3813 62.5906 15.9825 61.9888 16.7225 61.9888C17.4625 61.9888 18.0638 62.5906 18.0638 63.33V71.8969C18.0638 72.6363 17.4619 73.2381 16.7225 73.2381C15.9831 73.2381 15.3813 72.6363 15.3813 71.8969V63.33ZM37.6919 92.44C37.6919 92.5138 37.6319 92.5738 37.5581 92.5738H27.6581C27.5844 92.5738 27.5244 92.5138 27.5244 92.44V90.6338H37.6919V92.44ZM76.2188 92.44C76.2188 92.5138 76.1581 92.5738 76.0844 92.5738H66.1844C66.1106 92.5738 66.0506 92.5138 66.0506 92.44V90.6338H76.2188V92.44ZM84.6188 82.6025C84.6188 84.6188 82.9781 86.2594 80.9619 86.2594H78.4063H63.8631H39.8794H25.3369H22.7813C20.765 86.2594 19.125 84.6188 19.125 82.6025V77.0763C21.0788 76.1663 22.4394 74.19 22.4394 71.8969V63.33C22.4394 61.0369 21.0788 59.06 19.125 58.1506V35.5344C21.0788 34.6244 22.4394 32.6481 22.4394 30.355V21.7881C22.4394 19.495 21.0788 17.5181 19.125 16.6088V11.0825C19.125 9.06627 20.7656 7.42627 22.7813 7.42627H80.9625C82.9788 7.42627 84.6194 9.06627 84.6194 11.0825V82.6025H84.6188Z" fill="#39BEB9"/>
<path d="M77.9538 11.9031H25.7888C24.5806 11.9031 23.6013 12.8825 23.6013 14.0906V79.5943C23.6013 80.8025 24.5806 81.7818 25.7888 81.7818H77.9531C79.1613 81.7818 80.1406 80.8025 80.1406 79.5943V14.0906C80.1413 12.8825 79.1613 11.9031 77.9538 11.9031ZM75.7663 16.2787V44.655H73.305V34.29C73.305 32.7487 72.7463 31.2606 71.7331 30.1012L70.8481 29.0881V22.1562C70.8481 20.6156 69.5944 19.3618 68.0538 19.3618H65.6031C64.0625 19.3618 62.8088 20.6156 62.8088 22.1562V29.0887L61.9244 30.1012C60.9106 31.2612 60.3519 32.7487 60.3519 34.29V44.655H58.3469V34.29C58.3469 32.7487 57.7881 31.2612 56.7744 30.1012L55.8894 29.0881V22.1562C55.8894 20.6156 54.6363 19.3618 53.0956 19.3618H50.645C49.1044 19.3618 47.8506 20.6156 47.8506 22.1562V29.0881L46.9656 30.1012C45.9525 31.2606 45.3938 32.7487 45.3938 34.29V44.655H43.3881V34.29C43.3881 32.7487 42.8294 31.2612 41.8156 30.1012L40.9313 29.0881V22.1562C40.9313 20.6156 39.6775 19.3618 38.1369 19.3618H35.6863C34.1456 19.3618 32.8919 20.6156 32.8919 22.1562V29.0881L32.0069 30.1012C30.9931 31.2606 30.435 32.7487 30.435 34.29V44.655H27.9738V16.2787H75.7663ZM67.7231 23.815H65.9344V22.4868H67.7231V23.815ZM63.4775 34.29C63.4775 33.5056 63.7619 32.7481 64.2781 32.1568L65.5481 30.7025C65.7969 30.4175 65.9338 30.0525 65.9338 29.6743V26.94H67.7225V29.6743C67.7225 30.0518 67.86 30.4175 68.1081 30.7025L69.3788 32.1568C69.8944 32.7475 70.1788 33.505 70.1788 34.29V44.655H63.4763V34.29H63.4775ZM52.7656 23.815H50.9775V22.4868H52.7656V23.815ZM48.5206 34.29C48.5206 33.505 48.805 32.7475 49.3206 32.1568L50.5913 30.7025C50.8394 30.4181 50.9769 30.0525 50.9769 29.6743V26.94H52.765V29.6743C52.765 30.0518 52.9025 30.4175 53.1506 30.7025L54.4213 32.1568C54.9375 32.7481 55.2219 33.5056 55.2219 34.29V44.655H48.5206V34.29ZM37.8081 23.815H36.0194V22.4868H37.8081V23.815ZM33.5625 34.29C33.5625 33.505 33.8469 32.7475 34.3631 32.1568L35.6338 30.7025C35.8825 30.4181 36.0194 30.0525 36.0194 29.6743V26.94H37.8081V29.6743C37.8081 30.0518 37.945 30.4175 38.1938 30.7025L39.4644 32.1568C39.9806 32.7481 40.265 33.5056 40.265 34.29V44.655H33.5625V34.29ZM37.8081 56.5668H36.0194V55.2387H37.8081V56.5668ZM33.5625 67.0418C33.5625 66.2568 33.8469 65.4993 34.3631 64.9081L35.6338 63.4537C35.8825 63.1693 36.0194 62.8037 36.0194 62.4256V59.6912H37.8081V62.4256C37.8081 62.8031 37.945 63.1687 38.1938 63.4537L39.4638 64.9081C39.9806 65.4993 40.265 66.2575 40.265 67.0418V77.4068H33.5625V67.0418ZM52.7656 56.5668H50.9775V55.2387H52.7656V56.5668ZM48.5206 67.0418C48.5206 66.2568 48.805 65.4987 49.3206 64.9081L50.5913 63.4537C50.8394 63.1693 50.9769 62.8037 50.9769 62.4256V59.6912H52.765V62.4256C52.765 62.8031 52.9025 63.1687 53.1506 63.4537L54.4213 64.9081C54.9375 65.4993 55.2219 66.2575 55.2219 67.0418V77.4068H48.5206V67.0418ZM67.7231 56.5668H65.9344V55.2387H67.7231V56.5668ZM63.4775 67.0418C63.4775 66.2575 63.7619 65.4993 64.2781 64.9081L65.5481 63.4537C65.7969 63.1687 65.9338 62.8037 65.9338 62.4256V59.6912H67.7225V62.4256C67.7225 62.8031 67.86 63.1687 68.1081 63.4537L69.3788 64.9081C69.8944 65.4987 70.1788 66.2568 70.1788 67.0418V77.4068H63.4763V67.0418H63.4775ZM73.305 77.4068V67.0418C73.305 65.5006 72.7469 64.0131 71.7331 62.8525L70.8481 61.8393V54.9075C70.8481 53.3668 69.5944 52.1131 68.0538 52.1131H65.6031C64.0625 52.1131 62.8088 53.3668 62.8088 54.9075V61.84L61.9244 62.8525C60.9106 64.0131 60.3519 65.5012 60.3519 67.0418V77.4068H58.3469V67.0418C58.3469 65.5012 57.7881 64.0131 56.7744 62.8525L55.8894 61.8393V54.9075C55.8894 53.3668 54.6363 52.1131 53.0956 52.1131H50.645C49.1044 52.1131 47.8506 53.3668 47.8506 54.9075V61.8393L46.9656 62.8525C45.9519 64.0131 45.3938 65.5006 45.3938 67.0418V77.4068H43.3881V67.0418C43.3881 65.5012 42.8294 64.0131 41.8156 62.8525L40.9313 61.8393V54.9075C40.9313 53.3668 39.6775 52.1131 38.1369 52.1131H35.6863C34.1456 52.1131 32.8919 53.3668 32.8919 54.9075V61.8393L32.0069 62.8525C30.9931 64.0131 30.435 65.5012 30.435 67.0418V77.4068H27.9738V49.03H75.7631V77.4068H73.305Z" fill="#39BEB9"/>
</g>
<defs>
<filter id="filter0_d" x="-4" y="0" width="108" height="108" filterUnits="userSpaceOnUse" color-interpolation-filters="sRGB">
<feFlood flood-opacity="0" result="BackgroundImageFix"/>
<feColorMatrix in="SourceAlpha" type="matrix" values="0 0 0 0 0 0 0 0 0 0 0 0 0 0 0 0 0 0 127 0"/>
<feOffset dy="4"/>
<feGaussianBlur stdDeviation="2"/>
<feColorMatrix type="matrix" values="0 0 0 0 0 0 0 0 0 0 0 0 0 0 0 0 0 0 0.25 0"/>
<feBlend mode="normal" in2="BackgroundImageFix" result="effect1_dropShadow"/>
<feBlend mode="normal" in="SourceGraphic" in2="effect1_dropShadow" result="shape"/>
</filter>
</defs>
</svg>
