<svg width="102" height="105" viewBox="0 0 102 105" fill="none" xmlns="http://www.w3.org/2000/svg">
<g filter="url(#filter0_d)">
<path d="M95.5152 84.9965L92.2154 75.7568C94.2082 73.2605 95.5301 70.2964 96.0557 67.1458C96.5814 63.9952 96.2934 60.7625 95.2191 57.7545C94.1448 54.7464 92.3197 52.0627 89.9171 49.9579C87.5145 47.8531 84.6139 46.3971 81.4906 45.7279L73.5297 23.4375H76C79.7283 23.4333 83.3027 21.9504 85.9391 19.3141C88.5754 16.6777 90.0583 13.1033 90.0625 9.375V7.8125C90.0625 6.5693 89.5686 5.37701 88.6896 4.49794C87.8105 3.61886 86.6182 3.125 85.375 3.125C84.1318 3.125 82.9395 3.61886 82.0604 4.49794C81.1814 5.37701 80.6875 6.5693 80.6875 7.8125V9.375C80.6861 10.6178 80.1918 11.8092 79.313 12.688C78.4342 13.5668 77.2428 14.0611 76 14.0625H65.0625C63.9198 14.0624 62.8164 14.4797 61.9598 15.236C61.1031 15.9923 60.5523 17.0355 60.4107 18.1694C60.2692 19.3033 60.5467 20.4498 61.1911 21.3935C61.8355 22.3372 62.8025 23.0129 63.9102 23.2938L66.8748 31.5945L42.0783 54.0287L28.827 53.2002L27.659 53.1279C27.627 53.126 27.5947 53.125 27.5625 53.125C27.443 53.125 27.3246 53.1303 27.2059 53.134L20.4768 35.9375H24.4375C25.6803 35.9361 26.8717 35.4418 27.7505 34.563C28.6293 33.6842 29.1236 32.4928 29.125 31.25V30.8354C29.1202 29.7083 28.7115 28.6203 27.9731 27.7689C27.2347 26.9175 26.2154 26.359 25.1004 26.1949L9.47539 23.9627C8.81055 23.8677 8.13306 23.9167 7.48881 24.1064C6.84455 24.296 6.24857 24.6219 5.74122 25.0619C5.23387 25.5019 4.82699 26.0459 4.54815 26.6568C4.2693 27.2678 4.12499 27.9315 4.125 28.6031V31.25C4.1264 32.4928 4.6207 33.6842 5.49948 34.563C6.37825 35.4418 7.56973 35.9361 8.8125 35.9375H10.8711L19.1467 57.0852C18.1882 58.2383 17.4776 59.5764 17.059 61.0163C16.6404 62.4561 16.5229 63.9667 16.7138 65.454C16.9047 66.9412 17.3999 68.3732 18.1685 69.6606C18.9371 70.9481 19.9627 72.0634 21.1813 72.9371L8.52832 84.3844C7.3371 84.458 6.2187 84.9828 5.40068 85.8519C4.58267 86.7209 4.1265 87.869 4.125 89.0625V92.1875C4.1264 93.4303 4.6207 94.6217 5.49948 95.5005C6.37825 96.3793 7.56973 96.8736 8.8125 96.875H11.9375C13.1803 96.8736 14.3717 96.3793 15.2505 95.5005C16.1293 94.6217 16.6236 93.4303 16.625 92.1875H85.375C85.3764 93.4303 85.8707 94.6217 86.7495 95.5005C87.6283 96.3793 88.8197 96.8736 90.0625 96.875H93.1875C94.4303 96.8736 95.6217 96.3793 96.5005 95.5005C97.3793 94.6217 97.8736 93.4303 97.875 92.1875V89.0625C97.8744 88.237 97.6558 87.4264 97.2415 86.7124C96.8271 85.9985 96.2317 85.4065 95.5152 84.9965ZM89.418 53.8846C91.5622 56.3824 92.8627 59.4937 93.134 62.7744C93.4052 66.0552 92.6334 69.3378 90.9285 72.1539L82.7773 49.3314C85.3498 50.2447 87.6389 51.8142 89.418 53.8846ZM91.9748 84.375H90.0625C89.7325 84.3751 89.4035 84.4101 89.0809 84.4793L67.2797 23.4375H70.2113L91.9748 84.375ZM83.6172 78.4697C80.2619 79.8779 76.5204 80.0712 73.0378 79.0165C69.5552 77.9618 66.5497 75.7251 64.5395 72.692L77.6141 71.875C78.781 71.8679 79.9314 71.5989 80.9805 71.0879L83.6172 78.4697ZM72.0672 46.1328C67.3383 47.5922 63.3736 50.854 61.0305 55.2131L54.6418 54.8137L70.0953 40.6121L72.0672 46.1328ZM73.1191 49.0783L75.6361 56.1262L64.5373 55.4322C66.5675 52.3766 69.6039 50.1286 73.1191 49.0787V49.0783ZM65.0625 17.1875H76C78.0713 17.1852 80.0571 16.3613 81.5217 14.8967C82.9863 13.4321 83.8102 11.4463 83.8125 9.375V7.8125C83.8125 7.3981 83.9771 7.00067 84.2701 6.70765C84.5632 6.41462 84.9606 6.25 85.375 6.25C85.7894 6.25 86.1868 6.41462 86.4799 6.70765C86.7729 7.00067 86.9375 7.3981 86.9375 7.8125V9.375C86.9342 12.2748 85.7809 15.0549 83.7304 17.1054C81.6799 19.1559 78.8998 20.3092 76 20.3125H65.0625C64.6481 20.3125 64.2507 20.1479 63.9576 19.8549C63.6646 19.5618 63.5 19.1644 63.5 18.75C63.5 18.3356 63.6646 17.9382 63.9576 17.6451C64.2507 17.3521 64.6481 17.1875 65.0625 17.1875ZM68.0117 34.7797L68.9537 37.4164L50.3172 54.5432L46.435 54.3004L68.0117 34.7797ZM7.25 31.25V28.6031C7.25 28.19 7.4136 27.7937 7.70502 27.5009C7.99644 27.2081 8.39196 27.0426 8.80508 27.0406C8.88147 27.0407 8.95776 27.0461 9.0334 27.0568L24.6584 29.2891C25.0301 29.3438 25.3698 29.5299 25.616 29.8138C25.8622 30.0976 25.9984 30.4602 26 30.8359V31.25C25.9995 31.6643 25.8348 32.0614 25.5418 32.3543C25.2489 32.6473 24.8518 32.812 24.4375 32.8125H8.8125C8.39824 32.812 8.00108 32.6473 7.70816 32.3543C7.41523 32.0614 7.25047 31.6643 7.25 31.25ZM17.1211 35.9375L24.0717 53.6996C23.2147 53.9891 22.3971 54.3842 21.6379 54.876L14.2268 35.9375H17.1211ZM19.75 64.0625C19.7523 61.9992 20.5698 60.0203 22.0245 58.557C23.4791 57.0937 25.4531 56.2645 27.5164 56.25L76.7801 59.3291L79.9168 68.1121C79.2023 68.5294 78.3899 68.7495 77.5625 68.75C77.5301 68.75 77.4975 68.75 77.4648 68.7531L33.376 71.5092L31.0412 67.2006C31.779 66.3804 32.2032 65.3258 32.2389 64.2232C32.2745 63.1205 31.9193 62.0408 31.236 61.1747C30.5527 60.3085 29.5852 59.7118 28.5046 59.4898C27.4239 59.2678 26.2996 59.4349 25.3302 59.9616C24.3608 60.4882 23.6088 61.3406 23.2069 62.368C22.805 63.3954 22.7791 64.5318 23.1339 65.5764C23.4887 66.621 24.2012 67.5066 25.1457 68.0768C26.0901 68.647 27.2057 68.865 28.2953 68.6924L29.9381 71.7242L28.634 71.8057L27.5164 71.875C25.4531 71.8605 23.4791 71.0313 22.0245 69.568C20.5698 68.1047 19.7523 66.1258 19.75 64.0625ZM27.5625 65.625C27.2535 65.625 26.9514 65.5334 26.6944 65.3617C26.4375 65.19 26.2372 64.9459 26.1189 64.6604C26.0007 64.3749 25.9697 64.0608 26.03 63.7577C26.0903 63.4546 26.2391 63.1762 26.4576 62.9576C26.6762 62.7391 26.9546 62.5903 27.2577 62.53C27.5608 62.4697 27.8749 62.5007 28.1604 62.6189C28.446 62.7372 28.69 62.9375 28.8617 63.1944C29.0334 63.4514 29.125 63.7535 29.125 64.0625C29.1245 64.4768 28.9598 64.8739 28.6668 65.1668C28.3739 65.4598 27.9768 65.6245 27.5625 65.625ZM27.5625 75C27.5947 75 27.627 75 27.659 74.9971L28.0887 74.9703L15.7363 86.3211C15.0837 85.4174 14.131 84.7751 13.0484 84.5092L24.1617 74.4557C25.2593 74.8163 26.4072 75.0001 27.5625 75ZM13.5 92.1875C13.4995 92.6018 13.3348 92.9989 13.0418 93.2918C12.7489 93.5848 12.3518 93.7495 11.9375 93.75H8.8125C8.39824 93.7495 8.00108 93.5848 7.70816 93.2918C7.41523 92.9989 7.25047 92.6018 7.25 92.1875V89.0625C7.25047 88.6482 7.41523 88.2511 7.70816 87.9582C8.00108 87.6652 8.39824 87.5005 8.8125 87.5H11.9375C12.3518 87.5005 12.7489 87.6652 13.0418 87.9582C13.3348 88.2511 13.4995 88.6482 13.5 89.0625V92.1875ZM17.3717 89.0625L32.0326 75.5897L33.6342 78.5443L32.2611 79.2887C32.0788 79.3853 31.9173 79.5172 31.7862 79.6766C31.6551 79.836 31.5568 80.0198 31.4971 80.2174C31.4374 80.415 31.4175 80.6225 31.4384 80.8278C31.4594 81.0332 31.5208 81.2323 31.6192 81.4138C31.7175 81.5953 31.8509 81.7555 32.0115 81.8851C32.1721 82.0148 32.3568 82.1113 32.555 82.1691C32.7531 82.227 32.9608 82.245 33.1659 82.2221C33.3711 82.1993 33.5696 82.136 33.7502 82.0359L39.2449 79.0576C39.4273 78.961 39.5887 78.8291 39.7199 78.6697C39.851 78.5103 39.9493 78.3265 40.0089 78.1289C40.0686 77.9313 40.0886 77.7238 40.0676 77.5185C40.0467 77.3131 39.9853 77.114 39.8869 76.9325C39.7885 76.751 39.6552 76.5908 39.4946 76.4612C39.3339 76.3315 39.1492 76.235 38.9511 76.1771C38.7529 76.1193 38.5453 76.1013 38.3401 76.1242C38.135 76.147 37.9364 76.2103 37.7559 76.3104L36.3814 77.0553L35.017 74.5371L61.0338 72.9111C63.2237 77.001 66.8519 80.134 71.2171 81.7048C75.5824 83.2756 80.375 83.1726 84.6687 81.4158L86.3703 86.1803C85.7249 87.0023 85.3744 88.0174 85.375 89.0625H17.3717ZM94.75 92.1875C94.7495 92.6018 94.5848 92.9989 94.2918 93.2918C93.9989 93.5848 93.6018 93.7495 93.1875 93.75H90.0625C89.6482 93.7495 89.2511 93.5848 88.9582 93.2918C88.6652 92.9989 88.5005 92.6018 88.5 92.1875V89.0625C88.5005 88.6482 88.6652 88.2511 88.9582 87.9582C89.2511 87.6652 89.6482 87.5005 90.0625 87.5H93.1875C93.6018 87.5005 93.9989 87.6652 94.2918 87.9582C94.5848 88.2511 94.7495 88.6482 94.75 89.0625V92.1875Z" fill="#39BEB9"/>
</g>
<defs>
<filter id="filter0_d" x="-3" y="0" width="108" height="108" filterUnits="userSpaceOnUse" color-interpolation-filters="sRGB">
<feFlood flood-opacity="0" result="BackgroundImageFix"/>
<feColorMatrix in="SourceAlpha" type="matrix" values="0 0 0 0 0 0 0 0 0 0 0 0 0 0 0 0 0 0 127 0"/>
<feOffset dy="4"/>
<feGaussianBlur stdDeviation="2"/>
<feColorMatrix type="matrix" values="0 0 0 0 0 0 0 0 0 0 0 0 0 0 0 0 0 0 0.25 0"/>
<feBlend mode="normal" in2="BackgroundImageFix" result="effect1_dropShadow"/>
<feBlend mode="normal" in="SourceGraphic" in2="effect1_dropShadow" result="shape"/>
</filter>
</defs>
</svg>
