<svg width="100" height="100" viewBox="0 0 100 100" fill="none" xmlns="http://www.w3.org/2000/svg">
<g filter="url(#filter0_d)">
<path d="M94.3896 35.9692L60.0371 37.9941L5.60156 35.978L4 37.5786V61.4072L5.60107 63.0093L59.9746 60.9951L94.377 64.0308L96 62.4077V37.5786L94.3896 35.9692ZM60.669 44.1633C59.4787 44.4588 58.4216 45.1441 57.666 46.1101C56.9105 47.0761 56.5 48.2673 56.5 49.4936C56.5 50.72 56.9105 51.9112 57.666 52.8772C58.4216 53.8432 59.4787 54.5285 60.669 54.824L59.2703 59.0201L10.0981 60.8411V38.1459L59.2687 39.9625L60.669 44.1633ZM62 52.9936C61.3078 52.9936 60.6311 52.7884 60.0555 52.4038C59.4799 52.0192 59.0313 51.4726 58.7664 50.833C58.5015 50.1935 58.4322 49.4898 58.5673 48.8108C58.7023 48.1319 59.0356 47.5083 59.5251 47.0188C60.0146 46.5293 60.6383 46.1959 61.3172 46.0609C61.9961 45.9259 62.6999 45.9952 63.3394 46.2601C63.9789 46.525 64.5256 46.9736 64.9101 47.5492C65.2947 48.1247 65.5 48.8014 65.5 49.4936C65.4989 50.4216 65.1298 51.3111 64.4736 51.9673C63.8175 52.6234 62.9279 52.9925 62 52.9936ZM62.7394 54.938C64.0576 54.7606 65.2665 54.1109 66.142 53.1097C67.0175 52.1085 67.5 50.8237 67.5 49.4937C67.5 48.1637 67.0175 46.8788 66.142 45.8776C65.2665 44.8764 64.0576 44.2268 62.7394 44.0493L61.3613 39.915L90.0982 38.2246V61.6455L61.3492 59.1088L62.7394 54.938ZM6 60.5791V38.4077L6.39844 38.0093L8.09815 38.0721V60.9151L6.39893 60.978L6 60.5791ZM94 61.5796L93.623 61.9566L92.0981 61.8221V38.107L93.6103 38.0181L94 38.4077V61.5796Z" fill="#39BEB9"/>
<path d="M16.5 48.9937H47.5C48.4283 48.9937 49.3185 48.6249 49.9749 47.9685C50.6312 47.3122 51 46.4219 51 45.4937C51 44.5654 50.6312 43.6752 49.9749 43.0188C49.3185 42.3624 48.4283 41.9937 47.5 41.9937H16.5C15.5717 41.9937 14.6815 42.3624 14.0251 43.0188C13.3687 43.6752 13 44.5654 13 45.4937C13 46.4219 13.3687 47.3122 14.0251 47.9685C14.6815 48.6249 15.5717 48.9937 16.5 48.9937ZM16.5 43.9937H47.5C47.8978 43.9937 48.2794 44.1517 48.5607 44.433C48.842 44.7143 49 45.0958 49 45.4937C49 45.8915 48.842 46.273 48.5607 46.5543C48.2794 46.8356 47.8978 46.9937 47.5 46.9937H16.5C16.1022 46.9937 15.7206 46.8356 15.4393 46.5543C15.158 46.273 15 45.8915 15 45.4937C15 45.0958 15.158 44.7143 15.4393 44.433C15.7206 44.1517 16.1022 43.9937 16.5 43.9937Z" fill="#39BEB9"/>
<path d="M84.5 51.9937H79.5C78.5717 51.9937 77.6815 52.3624 77.0251 53.0188C76.3687 53.6752 76 54.5654 76 55.4937C76 56.4219 76.3687 57.3122 77.0251 57.9685C77.6815 58.6249 78.5717 58.9937 79.5 58.9937H84.5C85.4283 58.9937 86.3185 58.6249 86.9749 57.9685C87.6313 57.3122 88 56.4219 88 55.4937C88 54.5654 87.6313 53.6752 86.9749 53.0188C86.3185 52.3624 85.4283 51.9937 84.5 51.9937ZM84.5 56.9937H79.5C79.1022 56.9937 78.7206 56.8356 78.4393 56.5543C78.158 56.273 78 55.8915 78 55.4937C78 55.0958 78.158 54.7143 78.4393 54.433C78.7206 54.1517 79.1022 53.9937 79.5 53.9937H84.5C84.8978 53.9937 85.2794 54.1517 85.5607 54.433C85.842 54.7143 86 55.0958 86 55.4937C86 55.8915 85.842 56.273 85.5607 56.5543C85.2794 56.8356 84.8978 56.9937 84.5 56.9937Z" fill="#39BEB9"/>
</g>
<defs>
<filter id="filter0_d" x="-4" y="0" width="108" height="108" filterUnits="userSpaceOnUse" color-interpolation-filters="sRGB">
<feFlood flood-opacity="0" result="BackgroundImageFix"/>
<feColorMatrix in="SourceAlpha" type="matrix" values="0 0 0 0 0 0 0 0 0 0 0 0 0 0 0 0 0 0 127 0"/>
<feOffset dy="4"/>
<feGaussianBlur stdDeviation="2"/>
<feColorMatrix type="matrix" values="0 0 0 0 0 0 0 0 0 0 0 0 0 0 0 0 0 0 0.25 0"/>
<feBlend mode="normal" in2="BackgroundImageFix" result="effect1_dropShadow"/>
<feBlend mode="normal" in="SourceGraphic" in2="effect1_dropShadow" result="shape"/>
</filter>
</defs>
</svg>
