<svg width="101" height="100" viewBox="0 0 101 100" fill="none" xmlns="http://www.w3.org/2000/svg">
<g filter="url(#filter0_d)">
<path d="M96.5156 44.2187C96.4375 44.0312 96.3281 43.8594 96.1719 43.7031L83.6719 31.2031C83.5312 31.0625 83.3594 30.9375 83.1562 30.8594C82.9688 30.7812 82.7656 30.7344 82.5625 30.7344H20.9688C20.7656 30.7344 20.5625 30.7812 20.375 30.8594C20.1875 30.9375 20.0156 31.0469 19.8594 31.2031L7.35938 43.7031C7.21875 43.8437 7.09375 44.0156 7.01562 44.2187C6.9375 44.4062 6.89062 44.6094 6.89062 44.8125V54.1875C6.89062 54.2188 6.90625 54.25 6.90625 54.2813C6.90625 54.2969 6.89062 54.3125 6.89062 54.3281C6.89062 55.1875 7.59375 55.8906 8.45312 55.8906H10.2188V58.7188H8.46875C7.60938 58.7188 6.90625 59.4219 6.90625 60.2813C6.90625 60.2969 6.92187 60.3125 6.92187 60.3281C6.92187 60.3594 6.90625 60.3906 6.90625 60.4219V69.7969C6.90625 70.6562 7.60938 71.3594 8.46875 71.3594H11.7344V75C11.7344 75.8594 12.4375 76.5625 13.2969 76.5625H90.25C91.1094 76.5625 91.8125 75.8594 91.8125 75V71.3906H95.0625C95.9219 71.3906 96.625 70.6875 96.625 69.8281V44.8281C96.6406 44.625 96.5938 44.4219 96.5156 44.2187ZM50.2188 52.7812H10.0313V46.3906H50.2188V52.7812ZM12.2344 43.2656L21.6094 33.8906H81.9219L91.2969 43.2656H12.2344ZM10.0313 61.8594H50.2188V68.25H10.0313V61.8594ZM88.6875 73.4375H14.8594V71.3906H88.6875V73.4375ZM93.5156 68.2656H53.3438V46.3906H93.5156V68.2656Z" fill="#39BEB9"/>
<path d="M61.4062 58.8906H67.6562C68.5156 58.8906 69.2188 58.1875 69.2188 57.3281C69.2188 56.4688 68.5156 55.7656 67.6562 55.7656H61.4062C60.5469 55.7656 59.8438 56.4688 59.8438 57.3281C59.8438 58.1875 60.5469 58.8906 61.4062 58.8906Z" fill="#39BEB9"/>
<path d="M57.2656 59.3437C58.375 59.3437 59.2812 58.4375 59.2812 57.3281C59.2812 56.2187 58.375 55.3125 57.2656 55.3125C56.1563 55.3125 55.25 56.2187 55.25 57.3281C55.25 58.4375 56.1406 59.3437 57.2656 59.3437Z" fill="#39BEB9"/>
<path d="M86.9375 62.0156C89.5156 62.0156 91.625 59.9062 91.625 57.3281C91.625 54.75 89.5156 52.6406 86.9375 52.6406C84.3594 52.6406 82.25 54.75 82.25 57.3281C82.25 59.9062 84.3438 62.0156 86.9375 62.0156ZM86.9375 55.7656C87.7969 55.7656 88.5 56.4688 88.5 57.3281C88.5 58.1875 87.7969 58.8906 86.9375 58.8906C86.0781 58.8906 85.375 58.1875 85.375 57.3281C85.375 56.4688 86.0781 55.7656 86.9375 55.7656Z" fill="#39BEB9"/>
</g>
<defs>
<filter id="filter0_d" x="-4" y="0" width="108" height="108" filterUnits="userSpaceOnUse" color-interpolation-filters="sRGB">
<feFlood flood-opacity="0" result="BackgroundImageFix"/>
<feColorMatrix in="SourceAlpha" type="matrix" values="0 0 0 0 0 0 0 0 0 0 0 0 0 0 0 0 0 0 127 0"/>
<feOffset dy="4"/>
<feGaussianBlur stdDeviation="2"/>
<feColorMatrix type="matrix" values="0 0 0 0 0 0 0 0 0 0 0 0 0 0 0 0 0 0 0.25 0"/>
<feBlend mode="normal" in2="BackgroundImageFix" result="effect1_dropShadow"/>
<feBlend mode="normal" in="SourceGraphic" in2="effect1_dropShadow" result="shape"/>
</filter>
</defs>
</svg>
