<svg width="100" height="100" viewBox="0 0 100 100" fill="none" xmlns="http://www.w3.org/2000/svg">
<g filter="url(#filter0_d)">
<path d="M11.98 40.282C11.911 40.35 11.855 40.428 11.807 40.51C11.796 40.529 11.786 40.548 11.776 40.568C11.734 40.651 11.698 40.739 11.679 40.83C11.679 40.832 11.678 40.833 11.678 40.834C11.663 40.905 11.655 40.98 11.655 41.056V55.765C11.655 56.366 12.141 56.851 12.74 56.851H32.89L33.259 55.765L33.628 54.679H13.825V49.493H29.499C30.099 49.493 30.584 49.007 30.584 48.408C30.584 47.808 30.098 47.323 29.499 47.323H13.825V42.14H87.978V54.68H72.596L72.964 55.766L73.331 56.852H89.062C89.661 56.852 90.146 56.369 90.146 55.766V41.056C90.146 40.98 90.138 40.905 90.124 40.833C90.124 40.832 90.124 40.831 90.124 40.831C90.103 40.739 90.068 40.651 90.025 40.568C90.015 40.548 90.004 40.528 89.995 40.509C89.948 40.428 89.892 40.351 89.823 40.283C89.82 40.281 89.818 40.279 89.818 40.277L81.136 31.837C80.933 31.64 80.661 31.53 80.378 31.53H21.42C21.137 31.53 20.866 31.64 20.664 31.837L11.982 40.277C11.982 40.278 11.982 40.28 11.98 40.282ZM79.941 33.7L86.39 39.971H15.413L21.862 33.7H79.941Z" fill="#39BEB9"/>
<path d="M35.864 71.189C36.801 71.189 37.978 70.209 41.542 66.835C42.421 66.004 43.515 64.971 43.791 64.797C43.975 64.684 44.434 64.561 45.17 64.561C45.395 64.561 45.551 64.574 45.566 64.576C45.599 64.579 45.631 64.58 45.664 64.58H60.363C60.388 64.58 60.414 64.579 60.439 64.578C60.453 64.577 60.533 64.571 60.66 64.571C60.969 64.571 61.758 64.6 62.365 64.868C62.752 65.069 64.199 66.44 65.256 67.442C68.412 70.436 69.319 71.19 70.162 71.19C71.846 71.19 72.783 70.407 73.273 69.75C74.978 67.461 73.877 63.285 73.669 62.56C73.602 62.168 73.223 60.191 72.165 56.855C72.059 56.505 71.939 56.146 71.814 55.769C71.702 55.428 71.585 55.081 71.46 54.717C71.456 54.705 71.452 54.696 71.448 54.683C69.857 50.092 68.952 48.495 68.763 48.186C68.712 48.102 68.652 48.023 68.575 47.954L67.462 46.894L66.689 45.842C66.544 45.649 66.341 45.508 66.111 45.443C65.173 45.178 62.216 44.36 61.042 44.237C60.958 44.217 60.872 44.203 60.782 44.203C60.695 44.203 60.587 44.204 60.45 44.239C59.646 44.321 58.712 44.664 58.267 44.842H47.767C47.34 44.665 46.419 44.319 45.579 44.239C45.437 44.205 45.327 44.204 45.245 44.204C45.159 44.204 45.075 44.216 44.995 44.236C43.773 44.352 40.836 45.179 39.911 45.446C39.682 45.511 39.48 45.652 39.339 45.843L38.563 46.894L37.448 47.954C37.358 48.041 37.283 48.141 37.227 48.252C37.194 48.318 36.393 49.921 34.773 54.685C34.773 54.687 34.773 54.689 34.772 54.689C34.645 55.062 34.525 55.418 34.409 55.771C34.284 56.146 34.166 56.506 34.054 56.857C32.935 60.316 32.389 62.435 32.364 62.536C32.233 63.039 31.131 67.514 32.927 69.839C33.612 70.721 34.628 71.189 35.864 71.189ZM40.127 48.398C40.173 48.355 40.215 48.307 40.252 48.256L40.865 47.426C42.561 46.947 44.473 46.468 45.105 46.402C45.36 46.6 45.781 47.095 46.261 47.745C46.722 48.367 47.232 49.121 47.691 49.88C47.888 50.205 48.24 50.404 48.621 50.404H57.408C57.781 50.404 58.129 50.211 58.328 49.894C58.807 49.128 59.332 48.369 59.803 47.74C60.282 47.103 60.696 46.616 60.949 46.406C61.595 46.49 63.482 46.961 65.168 47.429L65.777 48.256C65.814 48.307 65.855 48.354 65.902 48.398L66.974 49.418C67.183 49.791 67.918 51.213 69.15 54.68C69.232 54.918 69.32 55.166 69.412 55.424C69.451 55.541 69.486 55.651 69.525 55.766C69.652 56.141 69.773 56.502 69.888 56.852C71.159 60.764 71.537 62.957 71.539 62.983C71.547 63.026 71.56 63.071 71.569 63.114C72.004 64.58 72.375 67.321 71.528 68.457C71.358 68.686 71.049 68.979 70.313 69.02C69.692 68.666 67.86 66.927 66.748 65.873C64.727 63.96 63.849 63.153 63.248 62.892C62.019 62.353 60.601 62.402 60.328 62.414H45.707C45.617 62.407 45.422 62.395 45.17 62.395C44.094 62.395 43.243 62.584 42.64 62.961C42.202 63.232 41.411 63.977 40.051 65.262C38.786 66.459 36.468 68.653 35.738 69.02C35.091 68.989 34.805 68.715 34.645 68.508C33.777 67.387 34.074 64.583 34.465 63.074C34.472 63.047 35.089 60.652 36.337 56.851C36.452 56.499 36.573 56.138 36.698 55.765C36.741 55.638 36.782 55.513 36.827 55.38C36.91 55.138 36.99 54.903 37.068 54.679C38.205 51.392 38.877 49.848 39.09 49.383L40.127 48.398ZM48.422 47.01H57.635C57.408 47.332 57.164 47.694 56.903 48.096C56.875 48.143 56.842 48.185 56.813 48.234H49.23C49.2 48.185 49.172 48.143 49.142 48.096C48.885 47.693 48.645 47.332 48.422 47.01Z" fill="#39BEB9"/>
<path d="M46.08 59.316H46.783V60.021C46.783 60.621 47.268 61.105 47.868 61.105C48.468 61.105 48.953 60.621 48.953 60.021V59.316H49.658C50.258 59.316 50.744 58.831 50.744 58.23C50.744 57.628 50.258 57.146 49.658 57.146H48.953V56.85V56.442C48.953 56.186 48.86 55.954 48.71 55.766C48.512 55.518 48.211 55.358 47.868 55.358C47.526 55.358 47.224 55.518 47.026 55.766C46.877 55.954 46.783 56.186 46.783 56.442V56.85V57.147H46.08C45.48 57.147 44.994 57.631 44.994 58.231C44.994 58.831 45.48 59.316 46.08 59.316Z" fill="#39BEB9"/>
<path d="M41.376 55.766C41.648 55.883 41.947 55.952 42.261 55.952C42.576 55.952 42.875 55.887 43.146 55.766C43.64 55.553 44.037 55.163 44.271 54.68C44.416 54.385 44.502 54.059 44.502 53.707C44.502 52.469 43.499 51.467 42.26 51.467C41.023 51.467 40.019 52.469 40.019 53.707C40.019 54.059 40.106 54.385 40.249 54.68C40.485 55.163 40.882 55.553 41.376 55.766Z" fill="#39BEB9"/>
<path d="M63.688 52.855C64.3314 52.855 64.853 52.3334 64.853 51.69C64.853 51.0466 64.3314 50.525 63.688 50.525C63.0446 50.525 62.523 51.0466 62.523 51.69C62.523 52.3334 63.0446 52.855 63.688 52.855Z" fill="#39BEB9"/>
<path d="M63.688 54.827C63.125 54.827 62.653 55.23 62.546 55.765C62.532 55.835 62.524 55.911 62.524 55.992C62.524 56.334 62.671 56.638 62.909 56.849C63.114 57.037 63.388 57.158 63.688 57.158C63.995 57.158 64.266 57.039 64.473 56.849C64.706 56.634 64.854 56.33 64.854 55.992C64.854 55.915 64.846 55.839 64.833 55.765C64.725 55.23 64.256 54.827 63.688 54.827Z" fill="#39BEB9"/>
<path d="M61.537 55.006C61.848 55.006 62.131 54.881 62.34 54.68C62.563 54.469 62.701 54.172 62.701 53.841C62.701 53.197 62.18 52.676 61.537 52.676C60.892 52.676 60.371 53.197 60.371 53.841C60.371 54.172 60.51 54.469 60.73 54.68C60.939 54.881 61.223 55.006 61.537 55.006Z" fill="#39BEB9"/>
<path d="M65.035 54.68C65.244 54.881 65.527 55.006 65.842 55.006C66.153 55.006 66.436 54.881 66.645 54.68C66.869 54.469 67.006 54.172 67.006 53.841C67.006 53.197 66.483 52.676 65.842 52.676C65.196 52.676 64.676 53.197 64.676 53.841C64.676 54.172 64.814 54.469 65.035 54.68Z" fill="#39BEB9"/>
<path d="M57.635 60.473C58.871 60.473 59.875 59.471 59.875 58.233C59.875 57.712 59.687 57.233 59.387 56.852C58.977 56.331 58.348 55.994 57.635 55.994C56.92 55.994 56.291 56.335 55.881 56.852C55.58 57.233 55.393 57.708 55.393 58.233C55.393 59.471 56.396 60.473 57.635 60.473Z" fill="#39BEB9"/>
<path d="M80.783 50.6529C82.0212 50.6529 83.025 49.6492 83.025 48.4109C83.025 47.1727 82.0212 46.1689 80.783 46.1689C79.5448 46.1689 78.541 47.1727 78.541 48.4109C78.541 49.6492 79.5448 50.6529 80.783 50.6529Z" fill="#39BEB9"/>
</g>
<defs>
<filter id="filter0_d" x="-4" y="0" width="108" height="108" filterUnits="userSpaceOnUse" color-interpolation-filters="sRGB">
<feFlood flood-opacity="0" result="BackgroundImageFix"/>
<feColorMatrix in="SourceAlpha" type="matrix" values="0 0 0 0 0 0 0 0 0 0 0 0 0 0 0 0 0 0 127 0"/>
<feOffset dy="4"/>
<feGaussianBlur stdDeviation="2"/>
<feColorMatrix type="matrix" values="0 0 0 0 0 0 0 0 0 0 0 0 0 0 0 0 0 0 0.25 0"/>
<feBlend mode="normal" in2="BackgroundImageFix" result="effect1_dropShadow"/>
<feBlend mode="normal" in="SourceGraphic" in2="effect1_dropShadow" result="shape"/>
</filter>
</defs>
</svg>
