<?xml version="1.0" standalone="no"?>
<!DOCTYPE svg PUBLIC "-//W3C//DTD SVG 20010904//EN"
 "http://www.w3.org/TR/2001/REC-SVG-20010904/DTD/svg10.dtd">
<svg version="1.0" xmlns="http://www.w3.org/2000/svg"
 width="512.000000pt" height="512.000000pt" viewBox="0 0 512.000000 512.000000"
 preserveAspectRatio="xMidYMid meet">
<metadata>
Created by potrace 1.11, written by Peter Selinger 2001-2013
</metadata>
<g transform="translate(0.000000,512.000000) scale(0.100000,-0.100000)"
fill="#000000" stroke="none">
<path d="M0 2655 l0 -2465 455 0 455 0 0 709 0 709 683 5 c542 4 707 8 802 20
127 17 319 52 334 61 5 4 23 36 40 72 83 177 261 384 425 494 99 66 238 132
336 160 85 24 245 50 306 50 l41 0 51 108 c127 267 181 543 169 867 -17 467
-168 831 -466 1125 -272 268 -654 443 -1137 522 -138 22 -151 22 -1316 25
l-1178 4 0 -2466z m2325 1662 c409 -75 676 -267 789 -568 80 -213 80 -545 0
-758 -96 -255 -322 -450 -617 -531 -193 -53 -187 -53 -909 -57 l-678 -4 0 971
0 971 663 -4 c562 -3 676 -6 752 -20z"/>
<path d="M3877 2418 c-206 -369 -601 -647 -1110 -783 -75 -20 -68 -9 -103
-165 -23 -105 -24 -346 -1 -463 116 -586 624 -1007 1217 -1007 342 0 631 120
876 364 242 241 364 535 364 877 0 323 -124 629 -348 858 -217 221 -475 342
-798 376 l-61 7 -36 -64z"/>
</g>
</svg>
