<svg width="70" height="70" viewBox="0 0 70 70" fill="none" xmlns="http://www.w3.org/2000/svg">
<path d="M69.9448 33.0356C70.3381 40.0324 68.622 46.9862 65.0187 52.9966C61.4153 59.0071 56.0907 63.7974 49.7341 66.7475C43.3775 69.6977 36.2816 70.6717 29.3652 69.5434C22.4488 68.4152 16.0303 65.2367 10.9407 60.4195C5.85115 55.6023 2.32483 49.3681 0.81832 42.5241C-0.688192 35.6802 -0.105524 28.5415 2.49089 22.0324C5.0873 15.5233 9.5779 9.94354 15.3813 6.01541C21.1847 2.08728 28.0337 -0.00828059 35.0415 2.45792e-05L35.0302 9.53795C29.9321 9.5319 24.9495 11.0564 20.7276 13.9141C16.5057 16.7717 13.2389 20.831 11.35 25.5663C9.46116 30.3015 9.03728 35.4948 10.1332 40.4737C11.2292 45.4526 13.7946 49.9879 17.4972 53.4924C21.1998 56.9969 25.8692 59.3092 30.9008 60.1299C35.9324 60.9507 41.0945 60.2421 45.7189 58.096C50.3432 55.9498 54.2168 52.4648 56.8382 48.0923C59.4596 43.7198 60.7081 38.661 60.4219 33.5709L69.9448 33.0356Z" fill="#1FAB3D"/>
</svg>
