<svg width="57" height="57" viewBox="0 0 57 57" fill="none" xmlns="http://www.w3.org/2000/svg">
<mask id="path-1-inside-1" fill="white">
<path d="M57 28.5C57 35.1515 54.6735 41.5935 50.4235 46.7102C46.1735 51.8268 40.2677 55.2958 33.7291 56.5162C27.1905 57.7366 20.431 56.6315 14.6214 53.3925C8.81183 50.1534 4.31817 44.9843 1.91882 38.7806C-0.480535 32.5769 -0.634454 25.7294 1.48372 19.4242C3.6019 13.1189 7.85875 7.75316 13.5169 4.2563C19.1751 0.759452 25.8781 -0.648212 32.4649 0.277148C39.0518 1.20251 45.1075 4.4026 49.5831 9.32311L45.2367 13.2765C41.6837 9.37042 36.8764 6.83005 31.6475 6.09546C26.4186 5.36087 21.0974 6.47833 16.6058 9.25429C12.1141 12.0302 8.73479 16.2898 7.05329 21.2952C5.37179 26.3006 5.49397 31.7364 7.39869 36.6612C9.3034 41.586 12.8707 45.6894 17.4825 48.2607C22.0944 50.8321 27.4604 51.7093 32.6511 50.7405C37.8417 49.7717 42.53 47.0179 45.9038 42.956C49.2777 38.8942 51.1246 33.7803 51.1246 28.5H57Z"/>
</mask>
<path d="M57 28.5C57 35.1515 54.6735 41.5935 50.4235 46.7102C46.1735 51.8268 40.2677 55.2958 33.7291 56.5162C27.1905 57.7366 20.431 56.6315 14.6214 53.3925C8.81183 50.1534 4.31817 44.9843 1.91882 38.7806C-0.480535 32.5769 -0.634454 25.7294 1.48372 19.4242C3.6019 13.1189 7.85875 7.75316 13.5169 4.2563C19.1751 0.759452 25.8781 -0.648212 32.4649 0.277148C39.0518 1.20251 45.1075 4.4026 49.5831 9.32311L45.2367 13.2765C41.6837 9.37042 36.8764 6.83005 31.6475 6.09546C26.4186 5.36087 21.0974 6.47833 16.6058 9.25429C12.1141 12.0302 8.73479 16.2898 7.05329 21.2952C5.37179 26.3006 5.49397 31.7364 7.39869 36.6612C9.3034 41.586 12.8707 45.6894 17.4825 48.2607C22.0944 50.8321 27.4604 51.7093 32.6511 50.7405C37.8417 49.7717 42.53 47.0179 45.9038 42.956C49.2777 38.8942 51.1246 33.7803 51.1246 28.5H57Z" stroke="#00BB89" stroke-width="12" mask="url(#path-1-inside-1)"/>
</svg>
