<svg width="35" height="70" viewBox="0 0 35 70" fill="none" xmlns="http://www.w3.org/2000/svg">
<path d="M0 0C4.59627 5.48099e-08 9.14753 0.905302 13.3939 2.66422C17.6403 4.42313 21.4987 7.00121 24.7487 10.2513C27.9988 13.5013 30.5769 17.3597 32.3358 21.6061C34.0947 25.8525 35 30.4037 35 35C35 39.5963 34.0947 44.1475 32.3358 48.3939C30.5769 52.6403 27.9988 56.4987 24.7487 59.7487C21.4987 62.9988 17.6403 65.5769 13.3939 67.3358C9.14751 69.0947 4.59625 70 -1.14441e-05 70L-7.62939e-06 60.4621C3.34372 60.4621 6.65471 59.8035 9.74391 58.5239C12.8331 57.2443 15.64 55.3688 18.0044 53.0044C20.3688 50.64 22.2443 47.8331 23.5239 44.7439C24.8035 41.6547 25.4621 38.3437 25.4621 35C25.4621 31.6563 24.8035 28.3453 23.5239 25.2561C22.2443 22.1669 20.3688 19.36 18.0044 16.9956C15.64 14.6312 12.8331 12.7557 9.74392 11.4761C6.65471 10.1965 3.34373 9.53793 0 9.53793V0Z" fill="#1FAB3D" fill-opacity="0.3"/>
</svg>
