<svg width="62" height="62" viewBox="0 0 62 62" fill="none" xmlns="http://www.w3.org/2000/svg">
<path d="M31 -1.35505e-06C39.1753 -1.71241e-06 47.0197 3.22941 52.8254 8.98523C58.6312 14.741 61.9282 22.5572 61.9988 30.7322C62.0695 38.9073 58.9079 46.7792 53.2025 52.6345C47.497 58.4897 39.7096 61.8542 31.5355 61.9954C23.3614 62.1366 15.4624 59.0432 9.55809 53.3885C3.65379 47.7338 0.222219 39.9758 0.0104051 31.8032C-0.201409 23.6306 2.82368 15.7052 8.42714 9.75227C14.0306 3.79934 21.7587 0.300891 29.9292 0.0185L30.261 9.61774C24.622 9.81264 19.2884 12.2271 15.4211 16.3356C11.5538 20.4441 9.46597 25.9139 9.61215 31.5543C9.75834 37.1947 12.1267 42.5491 16.2016 46.4517C20.2765 50.3543 25.7281 52.4893 31.3696 52.3918C37.011 52.2944 42.3856 49.9724 46.3233 45.9313C50.261 41.8902 52.443 36.4573 52.3942 30.8152C52.3455 25.1731 50.07 19.7787 46.0631 15.8062C42.0562 11.8338 36.6423 9.60497 31 9.60497L31 -1.35505e-06Z" fill="#87E9A5"/>
</svg>
