<svg width="57" height="57" viewBox="0 0 57 57" fill="none" xmlns="http://www.w3.org/2000/svg">
<mask id="path-1-inside-1" fill="white">
<path d="M57 28.5C57 34.7745 54.9294 40.8736 51.1094 45.8512C47.2894 50.8288 41.9335 54.4067 35.8726 56.0299C29.8117 57.653 23.3846 57.2307 17.5882 54.8284C11.7918 52.4261 6.95022 48.1781 3.81444 42.7434C0.678661 37.3086 -0.576003 30.991 0.245076 24.7705C1.06615 18.55 3.91708 12.7743 8.3556 8.33932C12.7941 3.90438 18.5721 1.05812 24.7933 0.242071C31.0145 -0.573981 37.3311 0.685788 42.7633 3.82596L39.8228 8.91266C35.5105 6.41985 30.4961 5.41979 25.5575 6.06761C20.6188 6.71543 16.032 8.97491 12.5085 12.4956C8.98499 16.0162 6.7218 20.6012 6.07 25.5394C5.41819 30.4775 6.4142 35.4927 8.90351 39.807C11.3928 44.1213 15.2363 47.4936 19.8377 49.4006C24.4392 51.3077 29.5413 51.643 34.3527 50.3544C39.1641 49.0659 43.4159 46.2256 46.4483 42.2742C49.4808 38.3227 51.1246 33.481 51.1246 28.5H57Z"/>
</mask>
<path d="M57 28.5C57 34.7745 54.9294 40.8736 51.1094 45.8512C47.2894 50.8288 41.9335 54.4067 35.8726 56.0299C29.8117 57.653 23.3846 57.2307 17.5882 54.8284C11.7918 52.4261 6.95022 48.1781 3.81444 42.7434C0.678661 37.3086 -0.576003 30.991 0.245076 24.7705C1.06615 18.55 3.91708 12.7743 8.3556 8.33932C12.7941 3.90438 18.5721 1.05812 24.7933 0.242071C31.0145 -0.573981 37.3311 0.685788 42.7633 3.82596L39.8228 8.91266C35.5105 6.41985 30.4961 5.41979 25.5575 6.06761C20.6188 6.71543 16.032 8.97491 12.5085 12.4956C8.98499 16.0162 6.7218 20.6012 6.07 25.5394C5.41819 30.4775 6.4142 35.4927 8.90351 39.807C11.3928 44.1213 15.2363 47.4936 19.8377 49.4006C24.4392 51.3077 29.5413 51.643 34.3527 50.3544C39.1641 49.0659 43.4159 46.2256 46.4483 42.2742C49.4808 38.3227 51.1246 33.481 51.1246 28.5H57Z" stroke="#00BB89" stroke-width="12" mask="url(#path-1-inside-1)"/>
</svg>
