<svg width="57" height="57" viewBox="0 0 57 57" fill="none" xmlns="http://www.w3.org/2000/svg">
<mask id="path-1-inside-1" fill="white">
<path d="M57 28.5C57 33.8798 55.4773 39.1497 52.608 43.7004C49.7387 48.2512 45.64 51.8969 40.7857 54.216C35.9315 56.5351 30.5199 57.4329 25.1768 56.8056C19.8338 56.1783 14.7773 54.0515 10.5922 50.6712C6.40708 47.2908 3.26418 42.7949 1.52691 37.7034C-0.210363 32.6118 -0.471057 27.1325 0.774971 21.899C2.021 16.6655 4.72286 11.8916 8.56814 8.12916C12.4134 4.36673 17.2451 1.7695 22.5045 0.637767L23.7405 6.38173C19.5654 7.28015 15.7298 9.34195 12.6772 12.3287C9.62465 15.3155 7.4798 19.1053 6.49065 23.2599C5.5015 27.4144 5.70845 31.7642 7.08757 35.8061C8.46669 39.848 10.9617 43.417 14.284 46.1005C17.6063 48.7839 21.6204 50.4723 25.8619 50.9702C30.1035 51.4682 34.3994 50.7555 38.2529 48.9145C42.1065 47.0735 45.3602 44.1794 47.638 40.5668C49.9158 36.9542 51.1246 32.7707 51.1246 28.5H57Z"/>
</mask>
<path d="M57 28.5C57 33.8798 55.4773 39.1497 52.608 43.7004C49.7387 48.2512 45.64 51.8969 40.7857 54.216C35.9315 56.5351 30.5199 57.4329 25.1768 56.8056C19.8338 56.1783 14.7773 54.0515 10.5922 50.6712C6.40708 47.2908 3.26418 42.7949 1.52691 37.7034C-0.210363 32.6118 -0.471057 27.1325 0.774971 21.899C2.021 16.6655 4.72286 11.8916 8.56814 8.12916C12.4134 4.36673 17.2451 1.7695 22.5045 0.637767L23.7405 6.38173C19.5654 7.28015 15.7298 9.34195 12.6772 12.3287C9.62465 15.3155 7.4798 19.1053 6.49065 23.2599C5.5015 27.4144 5.70845 31.7642 7.08757 35.8061C8.46669 39.848 10.9617 43.417 14.284 46.1005C17.6063 48.7839 21.6204 50.4723 25.8619 50.9702C30.1035 51.4682 34.3994 50.7555 38.2529 48.9145C42.1065 47.0735 45.3602 44.1794 47.638 40.5668C49.9158 36.9542 51.1246 32.7707 51.1246 28.5H57Z" stroke="#00BB89" stroke-width="12" mask="url(#path-1-inside-1)"/>
</svg>
