<svg width="70" height="70" viewBox="0 0 70 70" fill="none" xmlns="http://www.w3.org/2000/svg">
<path d="M56.7019 7.54047C63.1991 12.6753 67.665 19.9476 69.306 28.0646C70.9469 36.1817 69.6566 44.6176 65.6643 51.873C61.6721 59.1284 55.2365 64.7332 47.5015 67.6912C39.7665 70.6491 31.2333 70.7686 23.4186 68.0283C15.6038 65.2881 9.01385 59.8656 4.82003 52.7248C0.626206 45.584 -0.899779 37.1875 0.513315 29.0277C1.92641 20.8679 6.18703 13.4735 12.5379 8.15875C18.8887 2.84405 26.9183 -0.0466175 35.1994 0.000568157L35.1451 9.53834C29.1207 9.50401 23.2792 11.6069 18.6591 15.4733C14.0389 19.3397 10.9394 24.7191 9.91136 30.6552C8.88335 36.5914 9.99348 42.6997 13.0444 47.8946C16.0954 53.0894 20.8895 57.0342 26.5746 59.0277C32.2598 61.0212 38.4676 60.9343 44.0947 58.7824C49.7218 56.6306 54.4036 52.5531 57.3079 47.2749C60.2123 41.9967 61.151 35.8596 59.9572 29.9546C58.7634 24.0495 55.5145 18.7591 50.7879 15.0235L56.7019 7.54047Z" fill="#1FAB3D"/>
</svg>
