<svg width="35" height="29" viewBox="0 0 35 29" fill="none" xmlns="http://www.w3.org/2000/svg">
<mask id="path-1-inside-1" fill="white">
<path d="M35 28.5C35 24.2482 34.0487 20.0502 32.2157 16.2137C30.3827 12.3773 27.7146 8.99953 24.4068 6.32805C21.0991 3.65658 17.2355 1.75906 13.0992 0.774542C8.96287 -0.209971 4.65871 -0.256527 0.502089 0.638287L1.73862 6.38227C5.03831 5.67193 8.45513 5.70889 11.7387 6.49043C15.0222 7.27198 18.0893 8.77831 20.7152 10.899C23.341 13.0198 25.4591 15.7011 26.9141 18.7467C28.3692 21.7922 29.1244 25.1247 29.1244 28.5H35Z"/>
</mask>
<path d="M35 28.5C35 24.2482 34.0487 20.0502 32.2157 16.2137C30.3827 12.3773 27.7146 8.99953 24.4068 6.32805C21.0991 3.65658 17.2355 1.75906 13.0992 0.774542C8.96287 -0.209971 4.65871 -0.256527 0.502089 0.638287L1.73862 6.38227C5.03831 5.67193 8.45513 5.70889 11.7387 6.49043C15.0222 7.27198 18.0893 8.77831 20.7152 10.899C23.341 13.0198 25.4591 15.7011 26.9141 18.7467C28.3692 21.7922 29.1244 25.1247 29.1244 28.5H35Z" stroke="#00BB89" stroke-opacity="0.2" stroke-width="12" mask="url(#path-1-inside-1)"/>
</svg>
