<svg width="57" height="57" viewBox="0 0 57 57" fill="none" xmlns="http://www.w3.org/2000/svg">
<mask id="path-1-inside-1" fill="white">
<path d="M57 28.5C57 21.7019 54.57 15.1276 50.1485 9.96378C45.7271 4.79994 39.6054 1.38663 32.8883 0.339876C26.1713 -0.706876 19.3013 0.681878 13.5182 4.2555C7.73513 7.82913 3.41994 13.3522 1.3514 19.828C-0.717141 26.3038 -0.402766 33.3057 2.23779 39.5701C4.87834 45.8344 9.67113 50.9486 15.7512 53.9896C21.8312 57.0305 28.798 57.798 35.3943 56.1535C41.9905 54.5091 47.7817 50.5609 51.7226 45.0216L46.935 41.6155C43.8065 46.0128 39.2093 49.147 33.973 50.4525C28.7366 51.758 23.2061 51.1487 18.3795 48.7346C13.5529 46.3206 9.74819 42.2607 7.65201 37.2878C5.55584 32.315 5.30628 26.7566 6.94836 21.6158C8.59045 16.4751 12.016 12.0906 16.6069 9.25376C21.1977 6.41687 26.6514 5.31442 31.9836 6.14538C37.3159 6.97633 42.1755 9.68595 45.6855 13.7852C49.1954 17.8845 51.1244 23.1034 51.1244 28.5H57Z"/>
</mask>
<path d="M57 28.5C57 21.7019 54.57 15.1276 50.1485 9.96378C45.7271 4.79994 39.6054 1.38663 32.8883 0.339876C26.1713 -0.706876 19.3013 0.681878 13.5182 4.2555C7.73513 7.82913 3.41994 13.3522 1.3514 19.828C-0.717141 26.3038 -0.402766 33.3057 2.23779 39.5701C4.87834 45.8344 9.67113 50.9486 15.7512 53.9896C21.8312 57.0305 28.798 57.798 35.3943 56.1535C41.9905 54.5091 47.7817 50.5609 51.7226 45.0216L46.935 41.6155C43.8065 46.0128 39.2093 49.147 33.973 50.4525C28.7366 51.758 23.2061 51.1487 18.3795 48.7346C13.5529 46.3206 9.74819 42.2607 7.65201 37.2878C5.55584 32.315 5.30628 26.7566 6.94836 21.6158C8.59045 16.4751 12.016 12.0906 16.6069 9.25376C21.1977 6.41687 26.6514 5.31442 31.9836 6.14538C37.3159 6.97633 42.1755 9.68595 45.6855 13.7852C49.1954 17.8845 51.1244 23.1034 51.1244 28.5H57Z" stroke="#00BB89" stroke-opacity="0.2" stroke-width="12" mask="url(#path-1-inside-1)"/>
</svg>
