<svg width="57" height="57" viewBox="0 0 57 57" fill="none" xmlns="http://www.w3.org/2000/svg">
<mask id="path-1-inside-1" fill="white">
<path d="M57 28.5C57 33.9343 55.4463 39.2554 52.5221 43.8359C49.5978 48.4164 45.425 52.0654 40.4954 54.3527C35.5659 56.6399 30.0851 57.4701 24.6993 56.7454C19.3135 56.0207 14.2472 53.7713 10.0975 50.2623C5.94792 46.7534 2.88803 42.1312 1.27858 36.9406C-0.330871 31.7501 -0.422775 26.2076 1.0137 20.9665C2.45017 15.7255 5.35514 11.0044 9.38614 7.35974C13.4171 3.71513 18.4061 1.29897 23.7649 0.396099L24.7411 6.18989C20.487 6.90663 16.5266 8.82468 13.3266 11.7179C10.1266 14.6112 7.8205 18.359 6.68016 22.5196C5.53983 26.6802 5.61278 31.0801 6.89044 35.2005C8.16809 39.321 10.5972 42.9903 13.8913 45.7759C17.1855 48.5615 21.2074 50.3472 25.4828 50.9225C29.7583 51.4978 34.1092 50.8387 38.0225 49.023C41.9358 47.2072 45.2484 44.3105 47.5698 40.6743C49.8912 37.0381 51.1246 32.814 51.1246 28.5H57Z"/>
</mask>
<path d="M57 28.5C57 33.9343 55.4463 39.2554 52.5221 43.8359C49.5978 48.4164 45.425 52.0654 40.4954 54.3527C35.5659 56.6399 30.0851 57.4701 24.6993 56.7454C19.3135 56.0207 14.2472 53.7713 10.0975 50.2623C5.94792 46.7534 2.88803 42.1312 1.27858 36.9406C-0.330871 31.7501 -0.422775 26.2076 1.0137 20.9665C2.45017 15.7255 5.35514 11.0044 9.38614 7.35974C13.4171 3.71513 18.4061 1.29897 23.7649 0.396099L24.7411 6.18989C20.487 6.90663 16.5266 8.82468 13.3266 11.7179C10.1266 14.6112 7.8205 18.359 6.68016 22.5196C5.53983 26.6802 5.61278 31.0801 6.89044 35.2005C8.16809 39.321 10.5972 42.9903 13.8913 45.7759C17.1855 48.5615 21.2074 50.3472 25.4828 50.9225C29.7583 51.4978 34.1092 50.8387 38.0225 49.023C41.9358 47.2072 45.2484 44.3105 47.5698 40.6743C49.8912 37.0381 51.1246 32.814 51.1246 28.5H57Z" stroke="#00BB89" stroke-width="12" mask="url(#path-1-inside-1)"/>
</svg>
