<svg width="57" height="43" viewBox="0 0 57 43" fill="none" xmlns="http://www.w3.org/2000/svg">
<mask id="path-1-inside-1" fill="white">
<path d="M57 14.5C57 18.861 55.9992 23.1638 54.0747 27.0771C52.1502 30.9905 49.3533 34.41 45.8994 37.0724C42.4454 39.7347 38.4266 41.569 34.1523 42.4339C29.8779 43.2988 25.4621 43.1712 21.2448 42.0611C17.0275 40.9509 13.1212 38.8877 9.82674 36.0304C6.53223 33.1731 3.93738 29.5979 2.24196 25.58C0.546549 21.5621 -0.204201 17.2087 0.0475156 12.855C0.299232 8.50127 1.5467 4.26341 3.69388 0.467672L8.80781 3.36052C7.10328 6.37375 6.11299 9.73795 5.91316 13.1941C5.71334 16.6503 6.30932 20.1062 7.65521 23.2958C9.00111 26.4854 11.061 29.3235 13.6763 31.5918C16.2917 33.8601 19.3926 35.4979 22.7405 36.3792C26.0884 37.2605 29.5938 37.3617 32.987 36.6751C36.3802 35.9886 39.5705 34.5325 42.3124 32.4189C45.0543 30.3054 47.2746 27.5909 48.8023 24.4843C50.3301 21.3777 51.1246 17.9619 51.1246 14.5H57Z"/>
</mask>
<path d="M57 14.5C57 18.861 55.9992 23.1638 54.0747 27.0771C52.1502 30.9905 49.3533 34.41 45.8994 37.0724C42.4454 39.7347 38.4266 41.569 34.1523 42.4339C29.8779 43.2988 25.4621 43.1712 21.2448 42.0611C17.0275 40.9509 13.1212 38.8877 9.82674 36.0304C6.53223 33.1731 3.93738 29.5979 2.24196 25.58C0.546549 21.5621 -0.204201 17.2087 0.0475156 12.855C0.299232 8.50127 1.5467 4.26341 3.69388 0.467672L8.80781 3.36052C7.10328 6.37375 6.11299 9.73795 5.91316 13.1941C5.71334 16.6503 6.30932 20.1062 7.65521 23.2958C9.00111 26.4854 11.061 29.3235 13.6763 31.5918C16.2917 33.8601 19.3926 35.4979 22.7405 36.3792C26.0884 37.2605 29.5938 37.3617 32.987 36.6751C36.3802 35.9886 39.5705 34.5325 42.3124 32.4189C45.0543 30.3054 47.2746 27.5909 48.8023 24.4843C50.3301 21.3777 51.1246 17.9619 51.1246 14.5H57Z" stroke="#FF5648" stroke-width="12" mask="url(#path-1-inside-1)"/>
</svg>
