<svg width="54" height="29" viewBox="0 0 54 29" fill="none" xmlns="http://www.w3.org/2000/svg">
<mask id="path-1-inside-1" fill="white">
<path d="M54 28.5C54 22.2004 51.9128 16.0783 48.0646 11.0906C44.2164 6.1029 38.8242 2.53076 32.7307 0.932495C26.6372 -0.665771 20.1858 -0.200084 14.385 2.25677C8.58423 4.71362 3.7609 9.02317 0.668958 14.5118L5.78813 17.3956C8.24264 13.0385 12.0716 9.61743 16.6765 7.66708C21.2814 5.71674 26.4027 5.34705 31.24 6.61582C36.0773 7.88459 40.3579 10.7203 43.4127 14.6797C46.4675 18.6391 48.1244 23.4991 48.1244 28.5H54Z"/>
</mask>
<path d="M54 28.5C54 22.2004 51.9128 16.0783 48.0646 11.0906C44.2164 6.1029 38.8242 2.53076 32.7307 0.932495C26.6372 -0.665771 20.1858 -0.200084 14.385 2.25677C8.58423 4.71362 3.7609 9.02317 0.668958 14.5118L5.78813 17.3956C8.24264 13.0385 12.0716 9.61743 16.6765 7.66708C21.2814 5.71674 26.4027 5.34705 31.24 6.61582C36.0773 7.88459 40.3579 10.7203 43.4127 14.6797C46.4675 18.6391 48.1244 23.4991 48.1244 28.5H54Z" stroke="#FF5648" stroke-width="12" mask="url(#path-1-inside-1)"/>
</svg>
