<svg width="70" height="70" viewBox="0 0 70 70" fill="none" xmlns="http://www.w3.org/2000/svg">
<path d="M35 0C42.6993 9.18136e-08 50.1838 2.53877 56.2942 7.22309C62.4046 11.9074 66.7999 18.4758 68.7993 25.911C70.7987 33.3462 70.2906 41.2332 67.3538 48.3504C64.4169 55.4676 59.2152 61.4179 52.5543 65.2795C45.8934 69.1411 38.145 70.6986 30.5093 69.7107C22.8737 68.7229 15.7768 65.2448 10.3179 59.8152C4.85903 54.3856 1.34283 47.3075 0.313931 39.6772C-0.714973 32.047 0.800834 24.2903 4.62657 17.6088L12.9037 22.3481C10.1205 27.2089 9.01779 32.8517 9.76631 38.4026C10.5148 43.9536 13.0728 49.1028 17.0441 53.0527C21.0153 57.0027 26.1782 59.533 31.7331 60.2516C37.288 60.9703 42.9248 59.8372 47.7705 57.0279C52.6163 54.2187 56.4005 49.89 58.537 44.7123C60.6735 39.5346 61.0431 33.7969 59.5886 28.3879C58.134 22.9789 54.9365 18.2004 50.4913 14.7926C46.046 11.3849 40.6012 9.53793 35 9.53793V0Z" fill="#1FAB3D" fill-opacity="0.3"/>
</svg>
