<svg width="18" height="26" viewBox="0 0 18 26" fill="none" xmlns="http://www.w3.org/2000/svg">
<mask id="path-1-inside-1" fill="white">
<path d="M18 25.5C18 20.4972 16.6831 15.5825 14.1817 11.25C11.6803 6.91745 8.08255 3.31967 3.75 0.818274L0.81221 5.90667C4.25156 7.89238 7.10762 10.7484 9.09333 14.1878C11.079 17.6271 12.1244 21.5286 12.1244 25.5H18Z"/>
</mask>
<path d="M18 25.5C18 20.4972 16.6831 15.5825 14.1817 11.25C11.6803 6.91745 8.08255 3.31967 3.75 0.818274L0.81221 5.90667C4.25156 7.89238 7.10762 10.7484 9.09333 14.1878C11.079 17.6271 12.1244 21.5286 12.1244 25.5H18Z" stroke="#00BB89" stroke-opacity="0.2" stroke-width="12" mask="url(#path-1-inside-1)"/>
</svg>
