<svg width="62" height="62" viewBox="0 0 62 62" fill="none" xmlns="http://www.w3.org/2000/svg">
<path d="M31 62C22.8247 62 14.9803 58.7706 9.17456 53.0148C3.36881 47.259 0.071768 39.4428 0.00115449 31.2677C-0.0694552 23.0927 3.09209 15.2208 8.79754 9.36552C14.503 3.51028 22.2904 0.145841 30.4645 0.00462385C38.6386 -0.136594 46.5376 2.95684 52.4419 8.61151C58.3462 14.2662 61.7778 22.0242 61.9896 30.1968C62.2014 38.3694 59.1763 46.2948 53.5729 52.2477C47.9694 58.2007 40.2413 61.6991 32.0708 61.9815L31.739 52.3823C37.378 52.1874 42.7116 49.7729 46.5789 45.6644C50.4462 41.5559 52.534 36.0861 52.3878 30.4457C52.2417 24.8053 49.8733 19.4509 45.7984 15.5483C41.7235 11.6457 36.2719 9.5107 30.6304 9.60816C24.989 9.70563 19.6144 12.0276 15.6767 16.0687C11.739 20.1098 9.55704 25.5427 9.60577 31.1848C9.6545 36.8269 11.93 42.2213 15.9369 46.1938C19.9438 50.1662 25.3577 52.395 31 52.395L31 62Z" fill="#22B14C"/>
</svg>
