<svg width="64" height="70" viewBox="0 0 64 70" fill="none" xmlns="http://www.w3.org/2000/svg">
<path d="M29 0C34.9729 7.12262e-08 40.8464 1.52856 46.0616 4.4402C51.2768 7.35183 55.66 11.5497 58.7942 16.6342C61.9285 21.7187 63.7093 27.5207 63.9673 33.4881C64.2253 39.4554 62.9519 45.3895 60.2683 50.7255C57.5847 56.0616 53.5801 60.6221 48.6357 63.9731C43.6913 67.324 37.9717 69.3538 32.0211 69.8694C26.0704 70.3849 20.0869 69.3691 14.6399 66.9184C9.19285 64.4678 4.4636 60.664 0.902216 55.869L8.55921 50.1819C11.1501 53.6702 14.5905 56.4375 18.5532 58.2203C22.5158 60.0031 26.8688 60.7421 31.1978 60.367C35.5268 59.992 39.6878 58.5153 43.2848 56.0775C46.8817 53.6398 49.795 50.3221 51.7473 46.4401C53.6996 42.5582 54.626 38.2412 54.4383 33.9001C54.2506 29.5589 52.955 25.338 50.6749 21.6391C48.3949 17.9402 45.2061 14.8863 41.4121 12.7681C37.6181 10.6499 33.3452 9.53793 29 9.53793V0Z" fill="#1FAB3D" fill-opacity="0.3"/>
</svg>
