<svg width="11" height="11" viewBox="0 0 11 11" fill="none" xmlns="http://www.w3.org/2000/svg">
<path d="M5.04175 6.87496H5.95842V7.79163H5.04175V6.87496ZM5.04175 3.20829H5.95842V5.95829H5.04175V3.20829ZM5.4955 0.916626C2.9655 0.916626 0.916748 2.96996 0.916748 5.49996C0.916748 8.02996 2.9655 10.0833 5.4955 10.0833C8.03008 10.0833 10.0834 8.02996 10.0834 5.49996C10.0834 2.96996 8.03008 0.916626 5.4955 0.916626ZM5.50008 9.16663C3.47425 9.16663 1.83341 7.52579 1.83341 5.49996C1.83341 3.47413 3.47425 1.83329 5.50008 1.83329C7.52591 1.83329 9.16675 3.47413 9.16675 5.49996C9.16675 7.52579 7.52591 9.16663 5.50008 9.16663Z" fill="#498DE1"/>
</svg>
