<svg width="11" height="11" viewBox="0 0 11 11" fill="none" xmlns="http://www.w3.org/2000/svg">
<path d="M9.69865 6.03625C9.72126 5.86025 9.73822 5.6815 9.73822 5.5C9.73822 5.3185 9.72126 5.13975 9.69865 4.96375L10.8942 4.0535C11.0016 3.971 11.0327 3.8225 10.9621 3.7015L9.83149 1.79575C9.76083 1.6775 9.61386 1.628 9.48667 1.6775L8.07911 2.23025C7.78799 2.013 7.4686 1.82875 7.12378 1.6885L6.9118 0.231C6.88636 0.10175 6.77048 0 6.62915 0H4.36802C4.2267 0 4.11081 0.10175 4.0882 0.231L3.87622 1.6885C3.5314 1.82875 3.21201 2.01025 2.92089 2.23025L1.51333 1.6775C1.38615 1.63075 1.23917 1.6775 1.16851 1.79575L0.0379432 3.7015C-0.0327173 3.81975 -0.00162657 3.96825 0.105777 4.0535L1.29853 4.96375C1.27592 5.13975 1.25896 5.3185 1.25896 5.5C1.25896 5.6815 1.27592 5.86025 1.29853 6.03625L0.105777 6.9465C-0.00162657 7.029 -0.0327173 7.1775 0.0379432 7.2985L1.16851 9.20425C1.23917 9.3225 1.38615 9.372 1.51333 9.3225L2.92089 8.76975C3.21201 8.987 3.5314 9.17125 3.87622 9.3115L4.0882 10.769C4.11081 10.8983 4.2267 11 4.36802 11H6.62915C6.77048 11 6.88636 10.8983 6.90897 10.769L7.12095 9.3115C7.46578 9.17125 7.78516 8.98975 8.07628 8.76975L9.48384 9.3225C9.61103 9.36925 9.758 9.3225 9.82866 9.20425L10.9592 7.2985C11.0299 7.18025 10.9988 7.03175 10.8914 6.9465L9.69865 6.03625V6.03625ZM5.49859 7.425C4.40476 7.425 3.52009 6.56425 3.52009 5.5C3.52009 4.43575 4.40476 3.575 5.49859 3.575C6.59241 3.575 7.47708 4.43575 7.47708 5.5C7.47708 6.56425 6.59241 7.425 5.49859 7.425Z" fill="#1D5381"/>
</svg>
