<svg width="956" height="126" viewBox="0 0 956 126" fill="none" xmlns="http://www.w3.org/2000/svg">
<path d="M0 37.421C0 34.6596 2.23858 32.421 5 32.421H17.0985C19.8599 32.421 22.0985 34.6596 22.0985 37.421V126H0V37.421Z" fill="#E9E9E9"/>
<path d="M25.9434 54.3684C25.9434 51.607 28.1819 49.3684 30.9434 49.3684H43.0419C45.8033 49.3684 48.0419 51.607 48.0419 54.3684V126H25.9434V54.3684Z" fill="#E9E9E9"/>
<path d="M51.8828 72.0526C51.8828 69.2912 54.1214 67.0526 56.8828 67.0526H68.9813C71.7427 67.0526 73.9813 69.2912 73.9813 72.0526V126H51.8828V72.0526Z" fill="#E9E9E9"/>
<path d="M77.8262 60.2631C77.8262 57.5017 80.0647 55.2631 82.8262 55.2631H94.9247C97.6861 55.2631 99.9247 57.5017 99.9247 60.2631V126H77.8262V60.2631Z" fill="#E9E9E9"/>
<path d="M103.768 28.5789C103.768 25.8175 106.006 23.5789 108.768 23.5789H120.866C123.627 23.5789 125.866 25.8175 125.866 28.5789V126H103.768V28.5789Z" fill="#E9E9E9"/>
<path d="M129.709 72.0526C129.709 69.2912 131.948 67.0526 134.709 67.0526H146.807C149.569 67.0526 151.807 69.2912 151.807 72.0526V126H129.709V72.0526Z" fill="#E9E9E9"/>
<path d="M155.65 52.158C155.65 49.3965 157.889 47.158 160.65 47.158H172.749C175.51 47.158 177.749 49.3965 177.749 52.158V126H155.65V52.158Z" fill="#E9E9E9"/>
<path d="M181.594 14.579C181.594 11.8176 183.832 9.57898 186.594 9.57898H198.692C201.454 9.57898 203.692 11.8176 203.692 14.579V126H181.594V14.579Z" fill="#E9E9E9"/>
<path d="M207.533 44.7894C207.533 42.028 209.772 39.7894 212.533 39.7894H224.632C227.393 39.7894 229.632 42.028 229.632 44.7894V126H207.533V44.7894Z" fill="#E9E9E9"/>
<path d="M233.477 23.4211C233.477 20.6597 235.715 18.4211 238.477 18.4211H250.575C253.336 18.4211 255.575 20.6597 255.575 23.4211V126H233.477V23.4211Z" fill="#E9E9E9"/>
<path d="M259.416 49.2104C259.416 46.449 261.655 44.2104 264.416 44.2104H276.515C279.276 44.2104 281.515 46.449 281.515 49.2104V126H259.416V49.2104Z" fill="#E9E9E9"/>
<path d="M285.359 63.9473C285.359 61.1859 287.598 58.9473 290.359 58.9473H302.458C305.219 58.9473 307.458 61.1859 307.458 63.9473V126H285.359V63.9473Z" fill="#E9E9E9"/>
<path d="M311.3 5C311.3 2.23858 313.539 0 316.3 0H328.399C331.16 0 333.399 2.23858 333.399 5V126H311.3V5Z" fill="#E9E9E9"/>
<path d="M337.242 14.579C337.242 11.8176 339.481 9.57898 342.242 9.57898H354.341C357.102 9.57898 359.341 11.8176 359.341 14.579V126H337.242V14.579Z" fill="#E9E9E9"/>
<path d="M363.184 54.3684C363.184 51.607 365.422 49.3684 368.184 49.3684H380.282C383.044 49.3684 385.282 51.607 385.282 54.3684V126H363.184V54.3684Z" fill="#E9E9E9"/>
<path d="M389.127 72.0526C389.127 69.2912 391.366 67.0526 394.127 67.0526H406.225C408.987 67.0526 411.225 69.2912 411.225 72.0526V126H389.127V72.0526Z" fill="#E9E9E9"/>
<path d="M415.066 89C415.066 86.2385 417.305 84 420.066 84H432.165C434.926 84 437.165 86.2385 437.165 89V126H415.066V89Z" fill="#E9E9E9"/>
<path d="M441.01 60.2631C441.01 57.5017 443.248 55.2631 446.01 55.2631H458.108C460.87 55.2631 463.108 57.5017 463.108 60.2631V126H441.01V60.2631Z" fill="#E9E9E9"/>
<path d="M466.951 52.158C466.951 49.3965 469.19 47.158 471.951 47.158H484.05C486.811 47.158 489.05 49.3965 489.05 52.158V126H466.951V52.158Z" fill="#E9E9E9"/>
<path d="M492.893 23.4211C492.893 20.6597 495.131 18.4211 497.893 18.4211H509.991C512.752 18.4211 514.991 20.6597 514.991 23.4211V126H492.893V23.4211Z" fill="#E9E9E9"/>
<path d="M518.834 49.2104C518.834 46.449 521.073 44.2104 523.834 44.2104H535.932C538.694 44.2104 540.932 46.449 540.932 49.2104V126H518.834V49.2104Z" fill="#E9E9E9"/>
<path d="M544.777 14.579C544.777 11.8176 547.016 9.57898 549.777 9.57898H561.876C564.637 9.57898 566.876 11.8176 566.876 14.579V126H544.777V14.579Z" fill="#E9E9E9"/>
<path d="M570.717 54.3684C570.717 51.607 572.955 49.3684 575.717 49.3684H587.815C590.577 49.3684 592.815 51.607 592.815 54.3684V126H570.717V54.3684Z" fill="#E9E9E9"/>
<path d="M596.66 23.4211C596.66 20.6597 598.899 18.4211 601.66 18.4211H613.759C616.52 18.4211 618.759 20.6597 618.759 23.4211V126H596.66V23.4211Z" fill="#E9E9E9"/>
<path d="M622.602 63.9473C622.602 61.1859 624.84 58.9473 627.602 58.9473H639.7C642.461 58.9473 644.7 61.1859 644.7 63.9473V126H622.602V63.9473Z" fill="#E9E9E9"/>
<path d="M648.543 23.4211C648.543 20.6597 650.782 18.4211 653.543 18.4211H665.641C668.403 18.4211 670.641 20.6597 670.641 23.4211V126H648.543V23.4211Z" fill="#E9E9E9"/>
<path d="M674.484 10.1578C674.484 7.39638 676.723 5.15781 679.484 5.15781H691.583C694.344 5.15781 696.583 7.39638 696.583 10.1578V126H674.484V10.1578Z" fill="#E9E9E9"/>
<path d="M700.428 23.4211C700.428 20.6597 702.666 18.4211 705.428 18.4211H717.526C720.288 18.4211 722.526 20.6597 722.526 23.4211V126H700.428V23.4211Z" fill="#E9E9E9"/>
<path d="M726.367 13.8422C726.367 11.0807 728.606 8.84216 731.367 8.84216H743.466C746.227 8.84216 748.466 11.0807 748.466 13.8422V126H726.367V13.8422Z" fill="#E9E9E9"/>
<path d="M752.311 52.158C752.311 49.3965 754.549 47.158 757.311 47.158H769.409C772.17 47.158 774.409 49.3965 774.409 52.158V126H752.311V52.158Z" fill="#E9E9E9"/>
<path d="M778.25 27.1053C778.25 24.3439 780.489 22.1053 783.25 22.1053H795.348C798.11 22.1053 800.348 24.3439 800.348 27.1053V126H778.25V27.1053Z" fill="#E9E9E9"/>
<path d="M804.193 63.9473C804.193 61.1859 806.432 58.9473 809.193 58.9473H821.292C824.053 58.9473 826.292 61.1859 826.292 63.9473V126H804.193V63.9473Z" fill="#E9E9E9"/>
<path d="M830.135 23.4211C830.135 20.6597 832.373 18.4211 835.135 18.4211H847.233C849.995 18.4211 852.233 20.6597 852.233 23.4211V126H830.135V23.4211Z" fill="#E9E9E9"/>
<path d="M856.076 77.9473C856.076 75.1858 858.315 72.9473 861.076 72.9473H873.175C875.936 72.9473 878.175 75.1858 878.175 77.9473V126H856.076V77.9473Z" fill="#E9E9E9"/>
<path d="M882.018 63.9473C882.018 61.1859 884.256 58.9473 887.018 58.9473H899.116C901.877 58.9473 904.116 61.1859 904.116 63.9473V126H882.018V63.9473Z" fill="#E9E9E9"/>
<path d="M907.961 60.2631C907.961 57.5017 910.2 55.2631 912.961 55.2631H925.059C927.821 55.2631 930.059 57.5017 930.059 60.2631V126H907.961V60.2631Z" fill="#E9E9E9"/>
<path d="M933.9 72.0526C933.9 69.2912 936.139 67.0526 938.9 67.0526H950.999C953.76 67.0526 955.999 69.2912 955.999 72.0526V126H933.9V72.0526Z" fill="#E9E9E9"/>
</svg>
