<svg width="15" height="15" viewBox="0 0 15 15" fill="none" xmlns="http://www.w3.org/2000/svg">
<path d="M0.5 13V12H1V11.5H0.5V10.5H1.5V10H0.5V9H1V8.5H0.5V7.5H1.5V7H0.5V6H1V5.5H0.5V4.5H1.5V4H0.5V3H1V2.5H0.5V1.5H1.5V1H0.5V0H0V13.25C0 13.3881 0.111937 13.5 0.25 13.5H15V13H0.5Z" fill="#1D5381"/>
<path d="M3 14H2.5V15H3V14Z" fill="#1D5381"/>
<path d="M4 14H3.5V15H4V14Z" fill="#1D5381"/>
<path d="M6.5 14H6V15H6.5V14Z" fill="#1D5381"/>
<path d="M7.5 14H7V15H7.5V14Z" fill="#1D5381"/>
<path d="M10 14H9.5V15H10V14Z" fill="#1D5381"/>
<path d="M11 14H10.5V15H11V14Z" fill="#1D5381"/>
<path d="M13.5 14H13V15H13.5V14Z" fill="#1D5381"/>
<path d="M14.5 14H14V15H14.5V14Z" fill="#1D5381"/>
<path d="M2.70394 12.3405C2.86669 12.4454 3.0564 12.5008 3.25003 12.5C3.80231 12.5 4.25003 12.0523 4.25003 11.5C4.24894 11.3354 4.20665 11.1736 4.12703 11.0295L6.12853 9.52824C6.55703 9.87093 7.18225 9.80137 7.52494 9.37287C7.55519 9.33506 7.58262 9.29506 7.60703 9.25325L9.25178 9.725C9.25178 9.73325 9.25003 9.7415 9.25003 9.75C9.25003 10.3023 9.69775 10.75 10.25 10.75C10.8023 10.75 11.25 10.3023 11.25 9.75V9.74825C11.248 9.53334 11.1768 9.32478 11.047 9.15349L13.272 6.373C13.4181 6.45509 13.5825 6.49878 13.75 6.5C14.3064 6.50415 14.7609 6.05643 14.765 5.50003C14.7691 4.94362 14.3214 4.48918 13.765 4.48506C13.2086 4.4809 12.7542 4.92862 12.7501 5.48503C12.7486 5.6779 12.8026 5.86715 12.9055 6.03025L10.6555 8.84274C10.615 8.82393 10.5732 8.808 10.5305 8.795C10.0933 8.66881 9.626 8.85374 9.39353 9.245L7.74828 8.77499C7.74828 8.76674 7.75003 8.7585 7.75003 8.75C7.75075 8.30418 7.45756 7.91125 7.03003 7.785C6.504 7.62753 5.94987 7.92634 5.7924 8.45237C5.72587 8.67465 5.73915 8.91321 5.83 9.12675L3.7875 10.6595C3.32331 10.3603 2.7044 10.494 2.40519 10.9582C2.106 11.4224 2.23975 12.0413 2.70394 12.3405ZM13.75 5C14.0262 5 14.25 5.22384 14.25 5.5C14.25 5.77615 14.0262 6 13.75 6C13.4739 6 13.25 5.77615 13.25 5.5C13.25 5.22384 13.4739 5 13.75 5ZM9.77003 9.615C9.84706 9.3524 10.1224 9.20199 10.385 9.27903C10.6476 9.35606 10.798 9.6314 10.7209 9.89396C10.6439 10.1566 10.3686 10.307 10.106 10.2299C9.89275 10.1674 9.74722 9.97046 9.75003 9.74825C9.74981 9.70306 9.75656 9.65812 9.77003 9.615ZM6.26997 8.60525C6.27 8.60515 6.27003 8.60506 6.27006 8.60499C6.30675 8.47746 6.393 8.36996 6.50956 8.3065C6.75165 8.17365 7.05559 8.26225 7.18844 8.50434C7.22944 8.57906 7.25065 8.66303 7.25006 8.74825V8.75175C7.25028 8.79693 7.24353 8.84187 7.23006 8.885C7.15281 9.15012 6.87528 9.3024 6.61015 9.22515C6.345 9.14793 6.19272 8.87037 6.26997 8.60525ZM3.25003 11C3.52619 11 3.75003 11.2238 3.75003 11.5C3.75003 11.7762 3.52619 12 3.25003 12C2.97387 12 2.75003 11.7762 2.75003 11.5C2.75003 11.2238 2.97387 11 3.25003 11Z" fill="#1D5381"/>
<path d="M3.25 8.75001C3.79978 8.75255 4.24753 8.30889 4.25006 7.75908C4.25122 7.51014 4.15906 7.26983 3.99175 7.08551L6.4445 3.19726C6.75441 3.30467 7.09772 3.24589 7.35425 3.04151L9.3355 4.60001C9.11209 5.10342 9.33909 5.69264 9.84253 5.91605C9.97081 5.97298 10.1097 6.00217 10.25 6.00176H10.2522C10.8043 6.00051 11.251 5.55211 11.25 5.00001C11.2498 4.91017 11.2373 4.82076 11.213 4.73426L13.0145 3.67826C13.2035 3.88455 13.4702 4.00223 13.75 4.00276H13.7537C14.3069 4.00151 14.7543 3.55214 14.753 2.99901C14.7517 2.44589 14.3024 1.99851 13.7493 1.99976C13.1964 2.00101 12.7492 2.44995 12.75 3.00276C12.7509 3.08164 12.7609 3.16017 12.7797 3.23676L10.9625 4.30001C10.7744 4.10936 10.5178 4.00195 10.25 4.00176H10.2472C10.0299 4.00314 9.81903 4.07605 9.64725 4.20926L7.66525 2.65001C7.88828 2.14476 7.6595 1.55439 7.15428 1.33133C6.64906 1.10826 6.05866 1.33708 5.83559 1.84229C5.67347 2.20954 5.74669 2.63814 6.0215 2.93073L3.575 6.80876C3.47072 6.77108 3.36088 6.75123 3.25 6.75001C2.69772 6.75001 2.25 7.19773 2.25 7.75001C2.25 8.3023 2.69772 8.75001 3.25 8.75001ZM13.75 2.50001C14.0262 2.50001 14.25 2.72386 14.25 3.00001C14.251 3.27614 14.0279 3.5008 13.7517 3.50176H13.75C13.5711 3.50201 13.4057 3.4067 13.3162 3.25176C13.2738 3.17455 13.2511 3.08811 13.25 3.00001C13.25 2.72386 13.4738 2.50001 13.75 2.50001ZM10.25 4.50176C10.5262 4.50176 10.75 4.72561 10.75 5.00176C10.75 5.27792 10.5262 5.50176 10.25 5.50176C9.97384 5.50176 9.75 5.27792 9.75 5.00176C9.75 4.72561 9.97384 4.50176 10.25 4.50176ZM6.75 1.75001C7.02616 1.75001 7.25 1.97386 7.25 2.25001C7.25 2.52617 7.02616 2.75001 6.75 2.75001C6.47384 2.75001 6.25 2.52617 6.25 2.25001C6.25 1.97386 6.47384 1.75001 6.75 1.75001ZM3.25 7.25001C3.52616 7.25001 3.75 7.47386 3.75 7.75001C3.75 8.02617 3.52616 8.25001 3.25 8.25001C2.97384 8.25001 2.75 8.02617 2.75 7.75001C2.75 7.47386 2.97384 7.25001 3.25 7.25001Z" fill="#1D5381"/>
</svg>
