<svg width="13" height="13" viewBox="0 0 13 13" fill="none" xmlns="http://www.w3.org/2000/svg">
<path d="M11.9169 1.21875H10.1562V0.40625C10.1562 0.181594 9.97466 0 9.75 0C9.52534 0 9.34375 0.181594 9.34375 0.40625V1.21875H6.90625V0.40625C6.90625 0.181594 6.72425 0 6.5 0C6.27575 0 6.09375 0.181594 6.09375 0.40625V1.21875H3.65625V0.40625C3.65625 0.181594 3.47425 0 3.25 0C3.02575 0 2.84375 0.181594 2.84375 0.40625V1.21875H1.08347C0.485063 1.21875 0 1.70341 0 2.30181V11.9165C0 12.5149 0.485063 13 1.08347 13H11.9169C12.5153 13 13 12.5149 13 11.9165V2.30181C13 1.70341 12.5153 1.21875 11.9169 1.21875ZM12.1875 11.9165C12.1875 12.066 12.066 12.1875 11.9169 12.1875H1.08347C0.933969 12.1875 0.8125 12.066 0.8125 11.9165V2.30181C0.8125 2.15272 0.933969 2.03125 1.08347 2.03125H2.84375V2.84375C2.84375 3.06841 3.02575 3.25 3.25 3.25C3.47425 3.25 3.65625 3.06841 3.65625 2.84375V2.03125H6.09375V2.84375C6.09375 3.06841 6.27575 3.25 6.5 3.25C6.72425 3.25 6.90625 3.06841 6.90625 2.84375V2.03125H9.34375V2.84375C9.34375 3.06841 9.52534 3.25 9.75 3.25C9.97466 3.25 10.1562 3.06841 10.1562 2.84375V2.03125H11.9169C12.066 2.03125 12.1875 2.15272 12.1875 2.30181V11.9165Z" fill="#6E9AC0"/>
<path d="M4.46875 4.875H2.84375V6.09375H4.46875V4.875Z" fill="#6E9AC0"/>
<path d="M4.46875 6.90625H2.84375V8.125H4.46875V6.90625Z" fill="#6E9AC0"/>
<path d="M4.46875 8.9375H2.84375V10.1562H4.46875V8.9375Z" fill="#6E9AC0"/>
<path d="M7.3125 8.9375H5.6875V10.1562H7.3125V8.9375Z" fill="#6E9AC0"/>
<path d="M7.3125 6.90625H5.6875V8.125H7.3125V6.90625Z" fill="#6E9AC0"/>
<path d="M7.3125 4.875H5.6875V6.09375H7.3125V4.875Z" fill="#6E9AC0"/>
<path d="M10.1562 8.9375H8.53125V10.1562H10.1562V8.9375Z" fill="#6E9AC0"/>
<path d="M10.1562 6.90625H8.53125V8.125H10.1562V6.90625Z" fill="#6E9AC0"/>
<path d="M10.1562 4.875H8.53125V6.09375H10.1562V4.875Z" fill="#6E9AC0"/>
</svg>
