<svg width="15" height="16" viewBox="0 0 15 16" fill="none" xmlns="http://www.w3.org/2000/svg">
<path d="M2.00098 6H3.00098V5H2.00098V6ZM6.00098 5H7.00098V4H6.00098V5ZM8.00098 5H9.00098V4H8.00098V5ZM10.001 5H11.001V4H10.001V5ZM6.00098 3H7.00098V2H6.00098V3ZM8.00098 3H9.00098V2H8.00098V3ZM10.001 3H11.001V2H10.001V3ZM6.00098 9H7.00098V8H6.00098V9ZM8.00098 9H9.00098V8H8.00098V9ZM10.001 9H11.001V8H10.001V9ZM6.00098 11H7.00098V10H6.00098V11ZM10.001 11H11.001V10H10.001V11ZM6.00098 13H7.00098V12H6.00098V13ZM10.001 13H11.001V12H10.001V13ZM13.001 12H14.001V11H13.001V12ZM13.001 9V10H14.001V9H13.001ZM13.001 14H14.001V13H13.001V14ZM6.00098 7H7.00098V6H6.00098V7ZM8.00098 7H9.00098V6H8.00098V7ZM10.001 7H11.001V6H10.001V7ZM2.00098 8H3.00098V7H2.00098V8ZM2.00098 10H3.00098V9H2.00098V10ZM2.00098 12H3.00098V11H2.00098V12ZM2.00098 14H3.00098V13H2.00098V14ZM8.00098 11H9.00098V10H8.00098V11Z" fill="white"/>
<path fill-rule="evenodd" clip-rule="evenodd" d="M15 15C15 15.5527 14.5527 16 14 16H1C0.44725 16 0 15.5527 0 15V4C0 3.44725 0.44725 3 1 3H4V1C4 0.44725 4.44725 0 5 0H12C12.5527 0 13 0.44725 13 1V7H14C14.5527 7 15 7.44725 15 8V15ZM4 4H1V15H4V4ZM12 1H5V15H8V12H9V15H12V1ZM14 8H13V15H14V8Z" fill="white"/>
</svg>
