<svg width="226" height="86" viewBox="0 0 226 86" fill="none" xmlns="http://www.w3.org/2000/svg">
<rect x="3.26172" y="38" width="21.228" height="2.5" rx="1.25" transform="rotate(30.301 3.26172 38)" fill="#40CCED" fill-opacity="0.5"/>
<rect x="21.749" y="48" width="35.1253" height="2.5" rx="1.25" transform="rotate(52.8229 21.749 48)" fill="#40CCED" fill-opacity="0.5"/>
<rect x="41.7568" y="75.7545" width="21.65" height="2.5" rx="1.25" transform="rotate(-23.8514 41.7568 75.7545)" fill="#40CCED" fill-opacity="0.5"/>
<rect x="62.7568" y="66.8304" width="21.65" height="2.5" rx="1.25" transform="rotate(-2.19825 62.7568 66.8304)" fill="#40CCED" fill-opacity="0.5"/>
<rect x="84.7568" y="66.0526" width="32.9595" height="2.5" rx="1.25" transform="rotate(-41.9963 84.7568 66.0526)" fill="#40CCED" fill-opacity="0.5"/>
<rect x="108.757" y="46.5903" width="32.9595" height="2.5" rx="1.25" transform="rotate(-68.1436 108.757 46.5903)" fill="#40CCED" fill-opacity="0.5"/>
<rect x="120.757" y="16.3864" width="20.7683" height="2.5" rx="1.25" transform="rotate(-36.6129 120.757 16.3864)" fill="#40CCED" fill-opacity="0.5"/>
<rect x="138.757" y="3.75903" width="39.8496" height="2.5" rx="1.25" transform="rotate(-2.09461 138.757 3.75903)" fill="#40CCED" fill-opacity="0.5"/>
<rect x="180.999" y="2" width="28.5844" height="2.5" rx="1.25" transform="rotate(29.7883 180.999 2)" fill="#40CCED" fill-opacity="0.5"/>
<rect x="207.241" y="17" width="66.4091" height="2.5" rx="1.25" transform="rotate(83.6451 207.241 17)" fill="#40CCED" fill-opacity="0.5"/>
<rect x="224.396" y="53.9963" width="31.623" height="2.5" rx="1.25" transform="rotate(107.005 224.396 53.9963)" fill="#40CCED" fill-opacity="0.5"/>
<circle cx="20.7568" cy="50" r="3" fill="#40CCED"/>
<circle cx="3" cy="39" r="3" fill="#40CCED"/>
<circle cx="41.7568" cy="77" r="3" fill="#40CCED"/>
<circle cx="62.7568" cy="68" r="3" fill="#40CCED"/>
<circle cx="85.7568" cy="67" r="3" fill="#40CCED"/>
<circle cx="110.757" cy="45" r="3" fill="#40CCED"/>
<circle cx="122" cy="18" r="4" fill="#497AA5"/>
<circle cx="138.757" cy="5" r="3" fill="#40CCED"/>
<circle cx="179.757" cy="3" r="3" fill="#40CCED"/>
<circle cx="205.757" cy="18" r="3" fill="#40CCED"/>
<circle cx="222.757" cy="54" r="3" fill="#40CCED"/>
<circle cx="213.757" cy="83" r="3" fill="#40CCED"/>
</svg>
