<svg width="956" height="76" viewBox="0 0 956 76" fill="none" xmlns="http://www.w3.org/2000/svg">
<path d="M0 24.5555C0 21.7941 2.23858 19.5555 5 19.5555H17.0985C19.8599 19.5555 22.0985 21.7941 22.0985 24.5555V76H0V24.5555Z" fill="#6E9AC0"/>
<path d="M25.9429 34.7778C25.9429 32.0164 28.1814 29.7778 30.9429 29.7778H43.0414C45.8028 29.7778 48.0414 32.0164 48.0414 34.7778V76.0001H25.9429V34.7778Z" fill="#6E9AC0"/>
<path d="M51.8833 45.4445C51.8833 42.6831 54.1219 40.4445 56.8833 40.4445H68.9818C71.7432 40.4445 73.9818 42.683 73.9818 45.4445V76H51.8833V45.4445Z" fill="#6E9AC0"/>
<path d="M77.8262 38.3334C77.8262 35.5719 80.0647 33.3333 82.8262 33.3333H94.9247C97.6861 33.3333 99.9247 35.5719 99.9247 38.3333V76H77.8262V38.3334Z" fill="#6E9AC0"/>
<path d="M103.767 19.2223C103.767 16.4608 106.005 14.2223 108.767 14.2223H120.865C123.627 14.2223 125.865 16.4608 125.865 19.2223V76.0001H103.767V19.2223Z" fill="#6E9AC0"/>
<path d="M129.709 45.4445C129.709 42.6831 131.948 40.4445 134.709 40.4445H146.808C149.569 40.4445 151.808 42.683 151.808 45.4445V76H129.709V45.4445Z" fill="#6E9AC0"/>
<path d="M155.65 33.4445C155.65 30.6831 157.889 28.4445 160.65 28.4445H172.749C175.51 28.4445 177.749 30.6831 177.749 33.4445V76.0001H155.65V33.4445Z" fill="#6E9AC0"/>
<path d="M181.593 10.7778C181.593 8.01638 183.831 5.7778 186.593 5.7778H198.691C201.453 5.7778 203.691 8.01638 203.691 10.7778V76.0001H181.593V10.7778Z" fill="#6E9AC0"/>
<path d="M207.534 29C207.534 26.2386 209.772 24 212.534 24H224.632C227.394 24 229.632 26.2386 229.632 29V76H207.534V29Z" fill="#6E9AC0"/>
<path d="M233.477 16.1112C233.477 13.3498 235.715 11.1112 238.477 11.1112H250.575C253.336 11.1112 255.575 13.3498 255.575 16.1112V76.0001H233.477V16.1112Z" fill="#6E9AC0"/>
<path d="M259.417 31.6667C259.417 28.9052 261.656 26.6667 264.417 26.6667H276.515C279.277 26.6667 281.515 28.9052 281.515 31.6667V76H259.417V31.6667Z" fill="#6E9AC0"/>
<path d="M285.359 40.5556C285.359 37.7941 287.598 35.5556 290.359 35.5556H302.458C305.219 35.5556 307.458 37.7941 307.458 40.5556V76H285.359V40.5556Z" fill="#6E9AC0"/>
<path d="M311.3 5C311.3 2.23858 313.539 0 316.3 0H328.399C331.16 0 333.399 2.23858 333.399 5V76H311.3V5Z" fill="#6E9AC0"/>
<path d="M337.243 10.7778C337.243 8.01638 339.482 5.7778 342.243 5.7778H354.342C357.103 5.7778 359.342 8.01638 359.342 10.7778V76.0001H337.243V10.7778Z" fill="#6E9AC0"/>
<path d="M363.184 34.7778C363.184 32.0164 365.422 29.7778 368.184 29.7778H380.282C383.044 29.7778 385.282 32.0164 385.282 34.7778V76.0001H363.184V34.7778Z" fill="#6E9AC0"/>
<path d="M389.126 45.4445C389.126 42.6831 391.365 40.4445 394.126 40.4445H406.225C408.986 40.4445 411.225 42.683 411.225 45.4445V76H389.126V45.4445Z" fill="#6E9AC0"/>
<path d="M415.067 55.6667C415.067 52.9053 417.306 50.6667 420.067 50.6667H432.166C434.927 50.6667 437.166 52.9053 437.166 55.6667V76H415.067V55.6667Z" fill="#6E9AC0"/>
<path d="M441.01 38.3334C441.01 35.5719 443.248 33.3333 446.01 33.3333H458.108C460.87 33.3333 463.108 35.5719 463.108 38.3333V76H441.01V38.3334Z" fill="#6E9AC0"/>
<path d="M466.95 33.4445C466.95 30.6831 469.189 28.4445 471.95 28.4445H484.049C486.81 28.4445 489.049 30.6831 489.049 33.4445V76.0001H466.95V33.4445Z" fill="#6E9AC0"/>
<path d="M492.894 16.1112C492.894 13.3498 495.132 11.1112 497.894 11.1112H509.992C512.753 11.1112 514.992 13.3498 514.992 16.1112V76.0001H492.894V16.1112Z" fill="#6E9AC0"/>
<path d="M518.834 31.6667C518.834 28.9052 521.073 26.6667 523.834 26.6667H535.932C538.694 26.6667 540.932 28.9052 540.932 31.6667V76H518.834V31.6667Z" fill="#6E9AC0"/>
<path d="M544.776 10.7778C544.776 8.01638 547.015 5.7778 549.776 5.7778H561.875C564.636 5.7778 566.875 8.01638 566.875 10.7778V76.0001H544.776V10.7778Z" fill="#6E9AC0"/>
<path d="M570.717 34.7778C570.717 32.0164 572.956 29.7778 575.717 29.7778H587.816C590.577 29.7778 592.816 32.0164 592.816 34.7778V76.0001H570.717V34.7778Z" fill="#6E9AC0"/>
<path d="M596.66 16.1112C596.66 13.3498 598.899 11.1112 601.66 11.1112H613.759C616.52 11.1112 618.759 13.3498 618.759 16.1112V76.0001H596.66V16.1112Z" fill="#6E9AC0"/>
<path d="M622.601 40.5556C622.601 37.7941 624.839 35.5556 627.601 35.5556H639.699C642.461 35.5556 644.699 37.7941 644.699 40.5556V76H622.601V40.5556Z" fill="#6E9AC0"/>
<path d="M648.543 16.1112C648.543 13.3498 650.782 11.1112 653.543 11.1112H665.642C668.403 11.1112 670.642 13.3498 670.642 16.1112V76.0001H648.543V16.1112Z" fill="#6E9AC0"/>
<path d="M674.484 8.11109C674.484 5.34966 676.723 3.11108 679.484 3.11108H691.583C694.344 3.11108 696.583 5.34966 696.583 8.11108V76H674.484V8.11109Z" fill="#6E9AC0"/>
<path d="M700.427 16.1112C700.427 13.3498 702.665 11.1112 705.427 11.1112H717.525C720.287 11.1112 722.525 13.3498 722.525 16.1112V76.0001H700.427V16.1112Z" fill="#6E9AC0"/>
<path d="M726.367 10.3334C726.367 7.57193 728.606 5.33336 731.367 5.33336H743.466C746.227 5.33336 748.466 7.57194 748.466 10.3334V76.0001H726.367V10.3334Z" fill="#6E9AC0"/>
<path d="M752.311 33.4445C752.311 30.6831 754.549 28.4445 757.311 28.4445H769.409C772.17 28.4445 774.409 30.6831 774.409 33.4445V76.0001H752.311V33.4445Z" fill="#6E9AC0"/>
<path d="M778.251 18.3334C778.251 15.5719 780.49 13.3334 783.251 13.3334H795.349C798.111 13.3334 800.349 15.572 800.349 18.3334V76.0001H778.251V18.3334Z" fill="#6E9AC0"/>
<path d="M804.193 40.5556C804.193 37.7941 806.432 35.5556 809.193 35.5556H821.292C824.053 35.5556 826.292 37.7941 826.292 40.5556V76H804.193V40.5556Z" fill="#6E9AC0"/>
<path d="M830.134 16.1112C830.134 13.3498 832.373 11.1112 835.134 11.1112H847.233C849.994 11.1112 852.233 13.3498 852.233 16.1112V76.0001H830.134V16.1112Z" fill="#6E9AC0"/>
<path d="M856.077 49C856.077 46.2386 858.316 44 861.077 44H873.176C875.937 44 878.176 46.2386 878.176 49V76H856.077V49Z" fill="#6E9AC0"/>
<path d="M882.018 40.5556C882.018 37.7941 884.256 35.5556 887.018 35.5556H899.116C901.877 35.5556 904.116 37.7941 904.116 40.5556V76H882.018V40.5556Z" fill="#6E9AC0"/>
<path d="M907.96 38.3334C907.96 35.5719 910.199 33.3333 912.96 33.3333H925.059C927.82 33.3333 930.059 35.5719 930.059 38.3333V76H907.96V38.3334Z" fill="#6E9AC0"/>
<path d="M933.901 45.4445C933.901 42.6831 936.14 40.4445 938.901 40.4445H951C953.761 40.4445 956 42.683 956 45.4445V76H933.901V45.4445Z" fill="#6E9AC0"/>
</svg>
