<svg width="13" height="13" viewBox="0 0 13 13" fill="none" xmlns="http://www.w3.org/2000/svg">
<path d="M1.1798 10.68V9.91999H1.5598V9.53999H1.1798V8.77999H1.9398V8.39999H1.1798V7.63999H1.5598V7.25999H1.1798V6.49999H1.9398V6.11999H1.1798V5.35999H1.5598V4.97999H1.1798V4.21999H1.9398V3.83999H1.1798V3.07999H1.5598V2.69999H1.1798V1.93999H1.9398V1.55999H1.1798V0.799988H0.799805V10.87C0.799805 10.9749 0.884877 11.06 0.989805 11.06H12.1998V10.68H1.1798Z" fill="white"/>
<path d="M3.07922 11.4399H2.69922V12.1999H3.07922V11.4399Z" fill="white"/>
<path d="M3.83996 11.4399H3.45996V12.1999H3.83996V11.4399Z" fill="white"/>
<path d="M5.73937 11.4399H5.35938V12.1999H5.73937V11.4399Z" fill="white"/>
<path d="M6.50012 11.4399H6.12012V12.1999H6.50012V11.4399Z" fill="white"/>
<path d="M8.39953 11.4399H8.01953V12.1999H8.39953V11.4399Z" fill="white"/>
<path d="M9.1593 11.4399H8.7793V12.1999H9.1593V11.4399Z" fill="white"/>
<path d="M11.0597 11.4399H10.6797V12.1999H11.0597V11.4399Z" fill="white"/>
<path d="M11.8195 11.4399H11.4395V12.1999H11.8195V11.4399Z" fill="white"/>
<path d="M2.85419 10.1787C2.97788 10.2585 3.12207 10.3006 3.26922 10.2999C3.68896 10.2999 4.02922 9.95966 4.02922 9.53993C4.02839 9.41482 3.99626 9.29189 3.93574 9.18235L5.45688 8.0414C5.78254 8.30184 6.25771 8.24898 6.51815 7.92332C6.54114 7.89458 6.56199 7.86418 6.58054 7.8324L7.83055 8.19093C7.83055 8.1972 7.82922 8.20347 7.82922 8.20993C7.82922 8.62966 8.16949 8.96993 8.58922 8.96993C9.00896 8.96993 9.34922 8.62966 9.34922 8.20993V8.2086C9.3477 8.04527 9.2936 7.88676 9.19494 7.75659L10.8859 5.64341C10.9969 5.7058 11.1219 5.73901 11.2492 5.73993C11.6721 5.74309 12.0175 5.40282 12.0206 4.97996C12.0237 4.55709 11.6835 4.21171 11.2606 4.20858C10.8378 4.20542 10.4924 4.54569 10.4892 4.96856C10.4882 5.11514 10.5292 5.25897 10.6074 5.38292L8.8974 7.52042C8.86662 7.50612 8.83487 7.49401 8.8024 7.48413C8.47009 7.38823 8.11496 7.52878 7.93828 7.82613L6.68789 7.46893C6.68789 7.46266 6.68922 7.45639 6.68922 7.44993C6.68977 7.11111 6.46695 6.81248 6.14202 6.71653C5.74224 6.59685 5.3211 6.82395 5.20143 7.22374C5.15086 7.39267 5.16096 7.57398 5.23 7.73626L3.6777 8.90115C3.32491 8.67375 2.85455 8.77537 2.62714 9.12818C2.39976 9.48096 2.50141 9.95131 2.85419 10.1787ZM11.2492 4.59993C11.4591 4.59993 11.6292 4.77005 11.6292 4.97993C11.6292 5.18981 11.4591 5.35993 11.2492 5.35993C11.0393 5.35993 10.8692 5.18981 10.8692 4.97993C10.8692 4.77005 11.0393 4.59993 11.2492 4.59993ZM8.22442 8.10733C8.28297 7.90776 8.49223 7.79345 8.69177 7.85199C8.89134 7.91054 9.00565 8.1198 8.94711 8.31935C8.88857 8.51892 8.67931 8.63323 8.47976 8.57468C8.31769 8.52714 8.20708 8.37749 8.20922 8.2086C8.20906 8.17426 8.21419 8.14011 8.22442 8.10733ZM5.56437 7.33992C5.5644 7.33985 5.56442 7.33978 5.56445 7.33973C5.59233 7.24281 5.65788 7.16111 5.74647 7.11287C5.93046 7.01191 6.16145 7.07924 6.26241 7.26323C6.29357 7.32002 6.3097 7.38384 6.30925 7.4486V7.45126C6.30941 7.4856 6.30428 7.51976 6.29405 7.55253C6.23534 7.75403 6.02441 7.86976 5.82292 7.81105C5.6214 7.75236 5.50566 7.54142 5.56437 7.33992ZM3.26922 9.15993C3.4791 9.15993 3.64922 9.33005 3.64922 9.53993C3.64922 9.74981 3.4791 9.91993 3.26922 9.91993C3.05934 9.91993 2.88922 9.74981 2.88922 9.53993C2.88922 9.33005 3.05934 9.15993 3.26922 9.15993Z" fill="white"/>
<path d="M3.26977 7.4499C3.6876 7.45182 4.02789 7.11464 4.02981 6.69678C4.03069 6.50759 3.96065 6.32495 3.8335 6.18488L5.69759 3.22981C5.93311 3.31144 6.19403 3.26676 6.389 3.11144L7.89475 4.2959C7.72496 4.67849 7.89748 5.12629 8.28009 5.29608C8.37758 5.33935 8.4831 5.36154 8.58977 5.36123H8.59148C9.01107 5.36028 9.3505 5.01949 9.34977 4.5999C9.3496 4.53162 9.34012 4.46367 9.32165 4.39793L10.6908 3.59537C10.8344 3.75214 11.0371 3.84158 11.2498 3.84199H11.2526C11.673 3.84104 12.013 3.49951 12.012 3.07914C12.0111 2.65876 11.6696 2.31876 11.2492 2.31971C10.8291 2.32066 10.4891 2.66185 10.4898 3.08199C10.4905 3.14193 10.498 3.20162 10.5124 3.25983L9.13127 4.0679C8.98831 3.923 8.7933 3.84137 8.58977 3.84123H8.58768C8.42247 3.84227 8.26223 3.89768 8.13168 3.99893L6.62536 2.8139C6.79486 2.42991 6.62099 1.98122 6.23702 1.81169C5.85305 1.64217 5.40434 1.81606 5.23482 2.20003C5.1116 2.47914 5.16725 2.80487 5.37611 3.02724L3.51677 5.97455C3.43751 5.9459 3.35403 5.93082 3.26977 5.9299C2.85003 5.9299 2.50977 6.27016 2.50977 6.6899C2.50977 7.10963 2.85003 7.4499 3.26977 7.4499ZM11.2498 2.6999C11.4596 2.6999 11.6298 2.87002 11.6298 3.0799C11.6305 3.28975 11.461 3.46049 11.2511 3.46123H11.2498C11.1138 3.46142 10.9881 3.38898 10.9201 3.27123C10.8879 3.21254 10.8706 3.14685 10.8698 3.0799C10.8698 2.87002 11.0399 2.6999 11.2498 2.6999ZM8.58977 4.22123C8.79964 4.22123 8.96977 4.39135 8.96977 4.60123C8.96977 4.81111 8.79964 4.98123 8.58977 4.98123C8.37989 4.98123 8.20977 4.81111 8.20977 4.60123C8.20977 4.39135 8.37989 4.22123 8.58977 4.22123ZM5.92977 2.1299C6.13964 2.1299 6.30977 2.30002 6.30977 2.5099C6.30977 2.71978 6.13964 2.8899 5.92977 2.8899C5.71989 2.8899 5.54977 2.71978 5.54977 2.5099C5.54977 2.30002 5.71989 2.1299 5.92977 2.1299ZM3.26977 6.3099C3.47964 6.3099 3.64977 6.48002 3.64977 6.6899C3.64977 6.89978 3.47964 7.0699 3.26977 7.0699C3.05989 7.0699 2.88977 6.89978 2.88977 6.6899C2.88977 6.48002 3.05989 6.3099 3.26977 6.3099Z" fill="white"/>
</svg>
