<svg width="15" height="16" viewBox="0 0 15 16" fill="none" xmlns="http://www.w3.org/2000/svg">
<path d="M2.00049 6H3.00049V5H2.00049V6ZM6.00049 5H7.00049V4H6.00049V5ZM8.00049 5H9.00049V4H8.00049V5ZM10.0005 5H11.0005V4H10.0005V5ZM6.00049 3H7.00049V2H6.00049V3ZM8.00049 3H9.00049V2H8.00049V3ZM10.0005 3H11.0005V2H10.0005V3ZM6.00049 9H7.00049V8H6.00049V9ZM8.00049 9H9.00049V8H8.00049V9ZM10.0005 9H11.0005V8H10.0005V9ZM6.00049 11H7.00049V10H6.00049V11ZM10.0005 11H11.0005V10H10.0005V11ZM6.00049 13H7.00049V12H6.00049V13ZM10.0005 13H11.0005V12H10.0005V13ZM13.0005 12H14.0005V11H13.0005V12ZM13.0005 9V10H14.0005V9H13.0005ZM13.0005 14H14.0005V13H13.0005V14ZM6.00049 7H7.00049V6H6.00049V7ZM8.00049 7H9.00049V6H8.00049V7ZM10.0005 7H11.0005V6H10.0005V7ZM2.00049 8H3.00049V7H2.00049V8ZM2.00049 10H3.00049V9H2.00049V10ZM2.00049 12H3.00049V11H2.00049V12ZM2.00049 14H3.00049V13H2.00049V14ZM8.00049 11H9.00049V10H8.00049V11Z" fill="#1D5381"/>
<path fill-rule="evenodd" clip-rule="evenodd" d="M15 15C15 15.5527 14.5527 16 14 16H1C0.44725 16 0 15.5527 0 15V4C0 3.44725 0.44725 3 1 3H4V1C4 0.44725 4.44725 0 5 0H12C12.5527 0 13 0.44725 13 1V7H14C14.5527 7 15 7.44725 15 8V15ZM4 4H1V15H4V4ZM12 1H5V15H8V12H9V15H12V1ZM14 8H13V15H14V8Z" fill="#1D5381"/>
</svg>
