<svg width="337" height="337" viewBox="0 0 337 337" fill="none" xmlns="http://www.w3.org/2000/svg">
<path d="M60.3202 39.2083C42.5078 54.1077 27.9715 72.5321 17.6257 93.3225C7.27981 114.113 1.34833 136.819 0.204344 160.013L58.0849 162.868C58.835 147.66 62.7241 132.772 69.5076 119.14C76.2912 105.509 85.8223 93.4281 97.5015 83.6589L60.3202 39.2083Z" fill="#DBE2F3"/>
<path d="M0.472553 155.701C-0.881699 173.735 0.67947 191.869 5.096 209.407L61.2922 195.254C58.3964 183.755 57.3728 171.865 58.2607 160.041L0.472553 155.701Z" fill="#EE8F37"/>
<path d="M269.482 33.8071C237.959 10.0938 199.109 -1.79403 159.714 0.219384C120.319 2.2328 82.8829 18.0195 53.9421 44.8231L93.2093 87.2214C112.213 69.6211 136.795 59.2549 162.663 57.9328C188.532 56.6107 214.042 64.4167 234.742 79.9879L269.482 33.8071Z" fill="#3BCDEE"/>
<path d="M4.93243 208.751C13.8632 244.824 34.4819 276.927 63.5721 300.052C92.6624 323.177 128.588 336.024 165.746 336.589C202.904 337.154 239.204 325.405 268.983 303.175C298.763 280.945 320.348 249.484 330.371 213.699L274.692 198.103C268.113 221.594 253.943 242.247 234.395 256.84C214.846 271.432 191.017 279.145 166.625 278.774C142.233 278.403 118.65 269.97 99.5534 254.79C80.4573 239.609 66.9223 218.536 61.0597 194.856L4.93243 208.751Z" fill="#3649A8"/>
<path d="M324.983 229.77C339.747 192.137 340.472 150.447 327.026 112.323C313.58 74.1996 286.86 42.1892 251.754 22.1452L223.02 72.471C246.039 85.6135 263.558 106.602 272.374 131.599C281.191 156.596 280.715 183.931 271.035 208.606L324.983 229.77Z" fill="#EE5937"/>
</svg>
