<svg width="296" height="114" viewBox="0 0 296 114" fill="none" xmlns="http://www.w3.org/2000/svg">
<path d="M144 14C144 11.7909 145.791 10 148 10C150.209 10 152 11.7909 152 14V114H144V14Z" fill="#EBEEF9"/>
<path d="M126 22C126 19.7909 127.791 18 130 18C132.209 18 134 19.7909 134 22V114H126V22Z" fill="#3BCDEE"/>
<path d="M108 58C108 55.7909 109.791 54 112 54C114.209 54 116 55.7909 116 58V114H108V58Z" fill="#3649A8" fill-opacity="0.06"/>
<path d="M90 36C90 33.7909 91.7909 32 94 32C96.2091 32 98 33.7909 98 36V114H90V36Z" fill="#3649A8" fill-opacity="0.06"/>
<path d="M72 62C72 59.7909 73.7909 58 76 58C78.2091 58 80 59.7909 80 62V114H72V62Z" fill="#3649A8" fill-opacity="0.06"/>
<path d="M18 62C18 59.7909 19.7909 58 22 58C24.2091 58 26 59.7909 26 62V114H18V62Z" fill="#3649A8" fill-opacity="0.06"/>
<path d="M54 74C54 71.7909 55.7909 70 58 70C60.2091 70 62 71.7909 62 74V114H54V74Z" fill="#3649A8" fill-opacity="0.06"/>
<path d="M0 83C0 80.7909 1.79086 79 4 79C6.20914 79 8 80.7909 8 83V114H0V83Z" fill="#3649A8" fill-opacity="0.06"/>
<path d="M36 51C36 48.7909 37.7909 47 40 47C42.2091 47 44 48.7909 44 51V114H36V51Z" fill="#3649A8" fill-opacity="0.06"/>
<path d="M162 43C162 40.7909 163.791 39 166 39C168.209 39 170 40.7909 170 43V114H162V43Z" fill="#EE5938"/>
<path d="M180 27C180 24.7909 181.791 23 184 23C186.209 23 188 24.7909 188 27V114H180V27Z" fill="#EBEEF9"/>
<path d="M198 36C198 33.7909 199.791 32 202 32C204.209 32 206 33.7909 206 36V114H198V36Z" fill="#3649A8" fill-opacity="0.06"/>
<path d="M216 4C216 1.79086 217.791 0 220 0C222.209 0 224 1.79086 224 4V114H216V4Z" fill="#3649A8" fill-opacity="0.06"/>
<path d="M234 47C234 44.7909 235.791 43 238 43C240.209 43 242 44.7909 242 47V114H234V47Z" fill="#3649A8" fill-opacity="0.06"/>
<path d="M252 25C252 22.7909 253.791 21 256 21C258.209 21 260 22.7909 260 25V114H252V25Z" fill="#3649A8" fill-opacity="0.06"/>
<path d="M270 34C270 31.7909 271.791 30 274 30C276.209 30 278 31.7909 278 34V114H270V34Z" fill="#3649A8" fill-opacity="0.06"/>
<path d="M288 65C288 62.7909 289.791 61 292 61C294.209 61 296 62.7909 296 65V114H288V65Z" fill="#3649A8" fill-opacity="0.06"/>
</svg>
