<svg width="12" height="10" viewBox="0 0 12 10" fill="none" xmlns="http://www.w3.org/2000/svg">
<path d="M8.62472 4.10711C9.30497 4.10711 9.85686 3.55521 9.85686 2.87497C9.85686 2.19472 9.30497 1.64282 8.62472 1.64282C7.94448 1.64282 7.39258 2.19472 7.39258 2.87497C7.39258 3.55521 7.94448 4.10711 8.62472 4.10711Z" fill="#1D5381"/>
<path d="M10.7813 0H0.71875C0.318304 0 0 0.326005 0 0.726451V9.13069C0 9.53114 0.318304 9.85714 0.71875 9.85714H10.7813C11.1817 9.85714 11.5 9.53114 11.5 9.13069V0.726451C11.5 0.326005 11.1817 0 10.7813 0ZM8.13471 5.07489C8.0577 4.98505 7.93962 4.91574 7.80614 4.91574C7.67522 4.91574 7.58281 4.97734 7.47757 5.06205L6.99755 5.46763C6.89743 5.53951 6.81786 5.58828 6.70234 5.58828C6.59196 5.58828 6.49185 5.54721 6.41998 5.48304C6.39431 5.45993 6.3481 5.41629 6.3096 5.37779L4.92857 3.88382C4.82589 3.76574 4.67188 3.69129 4.49989 3.69129C4.3279 3.69129 4.16875 3.776 4.06864 3.89152L0.821429 7.80871V1.12176C0.847098 0.94721 0.983147 0.821429 1.1577 0.821429H10.3397C10.5169 0.821429 10.6606 0.952344 10.6709 1.12946L10.6786 7.81384L8.13471 5.07489Z" fill="#1D5381"/>
</svg>
