<svg width="17" height="18" viewBox="0 0 17 18" fill="none" xmlns="http://www.w3.org/2000/svg">
<path d="M6.32577 16.0171V13.5637C6.32576 12.9397 6.83449 12.4327 7.46481 12.4285H9.77367C10.407 12.4285 10.9204 12.9367 10.9204 13.5637V13.5637V16.0247C10.9203 16.5546 11.3474 16.9876 11.8824 17H13.4217C14.9561 17 16.2 15.7685 16.2 14.2495V14.2495V7.27027C16.1918 6.67266 15.9084 6.11148 15.4304 5.74643L10.1662 1.54824C9.24395 0.817253 7.93296 0.817253 7.01073 1.54824L1.76962 5.75405C1.28981 6.11762 1.00591 6.67973 1 7.27789V14.2495C1 15.7685 2.2439 17 3.77833 17H5.31757C5.86588 17 6.31038 16.56 6.31038 16.0171V16.0171" stroke="white" stroke-width="1.5" stroke-linecap="round" stroke-linejoin="round"/>
</svg>
