<svg width="24" height="24" viewBox="0 0 24 24" fill="none" xmlns="http://www.w3.org/2000/svg">
<path d="M3 12H9C9.55 12 10 11.55 10 11V3C10 2.45 9.55 2 9 2H3C2.45 2 2 2.45 2 3V11C2 11.55 2.45 12 3 12ZM3 22H9C9.55 22 10 21.55 10 21V17C10 16.45 9.55 16 9 16H3C2.45 16 2 16.45 2 17V21C2 21.55 2.45 22 3 22ZM15 22H21C21.55 22 22 21.55 22 21V13C22 12.45 21.55 12 21 12H15C14.45 12 14 12.45 14 13V21C14 21.55 14.45 22 15 22ZM14 3V7C14 7.55 14.45 8 15 8H21C21.55 8 22 7.55 22 7V3C22 2.45 21.55 2 21 2H15C14.45 2 14 2.45 14 3Z" stroke="#AFB8CC" stroke-width="2"/>
</svg>
