<svg width="129" height="58" viewBox="0 0 129 58" fill="none" xmlns="http://www.w3.org/2000/svg">
<path d="M40.3165 38.6663C40.3165 42.1636 37.8977 44.3598 34.9088 44.3598C33.6272 44.3598 32.5908 43.9732 31.8387 43.2015V48.1204H27.9758V33.1563H31.6552V34.2544C32.3877 33.3804 33.4648 32.9728 34.9088 32.9728C37.8977 32.9728 40.3165 35.169 40.3165 38.6663ZM36.4131 38.6663C36.4131 36.9996 35.3962 36.0429 34.095 36.0429C32.7939 36.0429 31.777 36.9981 31.777 38.6663C31.777 40.3345 32.7939 41.2897 34.095 41.2897C35.3962 41.2897 36.4131 40.333 36.4131 38.6663Z" fill="black"/>
<path d="M49.7092 43.7281C49.0383 44.1553 48.0425 44.3584 47.0257 44.3584C44.1992 44.3584 42.5521 42.976 42.5521 40.1495V36.4491H40.9456V33.5625H42.5521V30.6954H46.4149V33.5625H48.936V36.4491H46.4149V40.1089C46.4149 40.9227 46.8828 41.3695 47.5732 41.3695C48.0004 41.3695 48.4276 41.2476 48.7525 41.0235L49.7092 43.7281Z" fill="black"/>
<path d="M50.7666 29.8831C50.7666 28.7249 51.7022 27.8298 53.1252 27.8298C54.5482 27.8298 55.4839 28.6632 55.4839 29.8229C55.4839 31.0429 54.5482 31.9379 53.1252 31.9379C51.7022 31.9364 50.7666 31.0414 50.7666 29.8831ZM51.1938 33.1563H55.0567V44.1763H51.1938V33.1563Z" fill="black"/>
<path d="M57.2915 36.8973H63.2287V39.8652H57.2915V36.8973Z" fill="black"/>
<path d="M84.2517 37.8736V44.1763H80.3888V38.5038C80.3888 36.9184 79.7375 36.2475 78.7221 36.2475C77.6045 36.2475 76.7907 36.9996 76.7907 38.7069V44.1763H72.9279V38.5038C72.9279 36.9184 72.2976 36.2475 71.2612 36.2475C70.1225 36.2475 69.3087 36.9996 69.3087 38.7069V44.1763H65.4458V33.1563H69.1252V34.3145C69.9585 33.4195 71.1183 32.9728 72.4194 32.9728C73.9237 32.9728 75.2053 33.5218 75.9769 34.7011C76.8509 33.603 78.2137 32.9728 79.7992 32.9728C82.3609 32.9728 84.2517 34.4575 84.2517 37.8736Z" fill="black"/>
<path d="M86.2648 29.8831C86.2648 28.7249 87.2004 27.8298 88.6234 27.8298C90.0464 27.8298 90.982 28.6632 90.982 29.8229C90.982 31.0429 90.0464 31.9379 88.6234 31.9379C87.1989 31.9364 86.2648 31.0414 86.2648 29.8831ZM86.6905 33.1563H90.5533V44.1763H86.6905V33.1563Z" fill="black"/>
<path d="M102.65 41.2882V44.1748H92.4849V41.8974L97.5887 36.0218H92.6278V33.1548H102.447V35.4111L97.3435 41.2867H102.65V41.2882Z" fill="black"/>
<path d="M115.44 39.6426H107.43C107.755 40.7603 108.71 41.4116 110.135 41.4116C111.212 41.4116 111.923 41.1062 112.675 40.4564L114.709 42.5714C113.651 43.7507 112.107 44.3599 110.013 44.3599C106.088 44.3599 103.547 41.9411 103.547 38.6468C103.547 35.333 106.13 32.9744 109.607 32.9744C112.86 32.9744 115.503 35.0487 115.503 38.6874C115.502 38.9702 115.46 39.3373 115.44 39.6426ZM107.368 37.6089H111.882C111.679 36.4506 110.825 35.7181 109.626 35.7181C108.427 35.7181 107.592 36.4506 107.368 37.6089Z" fill="black"/>
<path d="M129 29.0903V44.1763H125.321V43.0782C124.588 43.9521 123.511 44.3598 122.088 44.3598C119.08 44.3598 116.659 42.1636 116.659 38.6467C116.659 35.1494 119.078 32.9743 122.088 32.9743C123.368 32.9743 124.406 33.3398 125.137 34.113V29.0903H129ZM125.199 38.6452C125.199 36.9785 124.203 36.0429 122.902 36.0429C121.58 36.0429 120.584 36.9785 120.584 38.6452C120.584 40.333 121.58 41.2881 122.902 41.2881C124.202 41.2881 125.199 40.333 125.199 38.6452Z" fill="black"/>
<path d="M2.31665 36.6039C2.31665 29.8725 7.36485 25.1191 14.2648 25.1191C21.2489 25.1191 26.255 29.8725 26.255 36.6039C26.255 43.3354 21.2489 48.1309 14.2648 48.1309C7.36635 48.1309 2.31665 43.3339 2.31665 36.6039ZM20.9541 36.6039C20.9541 32.3124 18.093 29.5777 14.2648 29.5777C10.4786 29.5777 7.61756 32.3124 7.61756 36.6039C7.61756 40.8955 10.4786 43.6302 14.2648 43.6302C18.093 43.6287 20.9541 40.894 20.9541 36.6039Z" fill="#4DAAE8"/>
<path d="M18.3551 21.7392C22.5696 21.7392 25.986 18.3227 25.986 14.1083C25.986 9.8938 22.5696 6.47729 18.3551 6.47729C14.1406 6.47729 10.7241 9.8938 10.7241 14.1083C10.7241 18.3227 14.1406 21.7392 18.3551 21.7392Z" fill="#98C355"/>
<path d="M3.80871 57.4301C5.91221 57.4301 7.61743 55.7248 7.61743 53.6213C7.61743 51.5178 5.91221 49.8126 3.80871 49.8126C1.70522 49.8126 0 51.5178 0 53.6213C0 55.7248 1.70522 57.4301 3.80871 57.4301Z" fill="#4DAAE8"/>
<path d="M46.0467 9.99566C47.9899 9.99566 49.5651 8.42042 49.5651 6.47726C49.5651 4.5341 47.9899 2.95886 46.0467 2.95886C44.1036 2.95886 42.5283 4.5341 42.5283 6.47726C42.5283 8.42042 44.1036 9.99566 46.0467 9.99566Z" fill="#DB4B46"/>
<path d="M33.9446 8.85992C36.3912 8.85992 38.3746 6.87656 38.3746 4.42996C38.3746 1.98336 36.3912 0 33.9446 0C31.498 0 29.5146 1.98336 29.5146 4.42996C29.5146 6.87656 31.498 8.85992 33.9446 8.85992Z" fill="#F7CA50"/>
</svg>
