<svg width="21" height="14" viewBox="0 0 21 14" fill="none" xmlns="http://www.w3.org/2000/svg">
<path d="M18.375 0H2.625C1.17534 0 0 1.19467 0 2.66667V11.3333C0 12.806 1.17534 14 2.625 14H18.375C19.8247 14 21 12.806 21 11.3333V2.66667C21 1.19467 19.8247 0 18.375 0ZM1.3125 3.5L5.90559 7L1.3125 10.5V3.5ZM19.6875 11.3333C19.6875 12.0693 19.0982 12.6667 18.375 12.6667H2.625C1.90116 12.6667 1.3125 12.0693 1.3125 11.3333L6.45225 7.41667L9.31875 9.60133C9.66853 9.86667 10.0839 10.0013 10.5 10.0013C10.9154 10.0013 11.3308 9.86733 11.6806 9.60133L14.5477 7.41667L19.6875 11.3333ZM19.6875 10.5L15.0938 7L19.6875 3.5V10.5ZM11.2868 9.068C11.0578 9.24267 10.7861 9.33467 10.5 9.33467C10.2139 9.33467 9.94153 9.242 9.7125 9.068L6.99891 7L6.45225 6.58333L1.3125 2.66733V2.66667C1.3125 1.93133 1.90116 1.33333 2.625 1.33333H18.375C19.0982 1.33333 19.6875 1.93133 19.6875 2.66667L11.2868 9.068Z" fill="#3044A5"/>
</svg>
