<svg width="68" height="60" viewBox="0 0 68 60" fill="none" xmlns="http://www.w3.org/2000/svg">
<path fill-rule="evenodd" clip-rule="evenodd" d="M44.6844 2.07167C48.2744 3.50057 49.3727 8.47682 50.8407 10.0763C52.3087 11.6758 54.4094 12.2197 55.5717 12.2197C61.7494 12.2197 66.7576 17.2279 66.7576 23.402V44.0002C66.7576 52.2821 60.0397 59 51.7578 59H15.9998C7.71439 59 1 52.2821 1 44.0002V23.402C1 17.2279 6.00824 12.2197 12.1859 12.2197C13.3447 12.2197 15.4454 11.6758 16.9169 10.0763C18.3849 8.47682 19.4797 3.50057 23.0697 2.07167C26.6632 0.642776 41.0944 0.642776 44.6844 2.07167Z" stroke="#0D1758" stroke-width="1.5" stroke-linecap="round" stroke-linejoin="round"/>
</svg>
