<svg width="13" height="9" viewBox="0 0 13 9" fill="none" xmlns="http://www.w3.org/2000/svg">
<mask id="path-1-inside-1" fill="white">
<path d="M12.0098 7.63003V0.220032H9.7298V7.63003H9.1598V1.74003H6.8798V7.63003H6.3098V3.26003H4.0298V7.63003H3.4598V4.97003H1.1798V7.63003H0.989805C0.884925 7.63003 0.799805 7.71496 0.799805 7.82003C0.799805 7.9251 0.884925 8.01003 0.989805 8.01003H1.1798H3.4598H4.0298H6.3098H6.8798H9.1598H9.7298H12.0098C12.1147 8.01003 12.1998 7.9251 12.1998 7.82003C12.1998 7.71496 12.1147 7.63003 12.0098 7.63003ZM1.5598 7.63003V5.35003H3.0798V7.63003H1.5598ZM4.4098 7.63003V3.64003H5.9298V7.63003H4.4098ZM7.2598 7.63003V2.12003H8.7798V7.63003H7.2598ZM10.1098 7.63003V0.600032H11.6298V7.63003H10.1098Z"/>
</mask>
<path d="M12.0098 7.63003V0.220032H9.7298V7.63003H9.1598V1.74003H6.8798V7.63003H6.3098V3.26003H4.0298V7.63003H3.4598V4.97003H1.1798V7.63003H0.989805C0.884925 7.63003 0.799805 7.71496 0.799805 7.82003C0.799805 7.9251 0.884925 8.01003 0.989805 8.01003H1.1798H3.4598H4.0298H6.3098H6.8798H9.1598H9.7298H12.0098C12.1147 8.01003 12.1998 7.9251 12.1998 7.82003C12.1998 7.71496 12.1147 7.63003 12.0098 7.63003ZM1.5598 7.63003V5.35003H3.0798V7.63003H1.5598ZM4.4098 7.63003V3.64003H5.9298V7.63003H4.4098ZM7.2598 7.63003V2.12003H8.7798V7.63003H7.2598ZM10.1098 7.63003V0.600032H11.6298V7.63003H10.1098Z" fill="#3044A5"/>
<path d="M12.0098 7.63003H11.0098V8.63003H12.0098V7.63003ZM12.0098 0.220032H13.0098V-0.779968H12.0098V0.220032ZM9.7298 0.220032V-0.779968H8.7298V0.220032H9.7298ZM9.7298 7.63003V8.63003H10.7298V7.63003H9.7298ZM9.1598 7.63003H8.1598V8.63003H9.1598V7.63003ZM9.1598 1.74003H10.1598V0.740032H9.1598V1.74003ZM6.8798 1.74003V0.740032H5.8798V1.74003H6.8798ZM6.8798 7.63003V8.63003H7.8798V7.63003H6.8798ZM6.3098 7.63003H5.3098V8.63003H6.3098V7.63003ZM6.3098 3.26003H7.3098V2.26003H6.3098V3.26003ZM4.0298 3.26003V2.26003H3.0298V3.26003H4.0298ZM4.0298 7.63003V8.63003H5.0298V7.63003H4.0298ZM3.4598 7.63003H2.4598V8.63003H3.4598V7.63003ZM3.4598 4.97003H4.4598V3.97003H3.4598V4.97003ZM1.1798 4.97003V3.97003H0.179805V4.97003H1.1798ZM1.1798 7.63003V8.63003H2.1798V7.63003H1.1798ZM1.5598 7.63003H0.559805V8.63003H1.5598V7.63003ZM1.5598 5.35003V4.35003H0.559805V5.35003H1.5598ZM3.0798 5.35003H4.0798V4.35003H3.0798V5.35003ZM3.0798 7.63003V8.63003H4.0798V7.63003H3.0798ZM4.4098 7.63003H3.4098V8.63003H4.4098V7.63003ZM4.4098 3.64003V2.64003H3.4098V3.64003H4.4098ZM5.9298 3.64003H6.9298V2.64003H5.9298V3.64003ZM5.9298 7.63003V8.63003H6.9298V7.63003H5.9298ZM7.2598 7.63003H6.2598V8.63003H7.2598V7.63003ZM7.2598 2.12003V1.12003H6.2598V2.12003H7.2598ZM8.7798 2.12003H9.7798V1.12003H8.7798V2.12003ZM8.7798 7.63003V8.63003H9.7798V7.63003H8.7798ZM10.1098 7.63003H9.1098V8.63003H10.1098V7.63003ZM10.1098 0.600032V-0.399968H9.1098V0.600032H10.1098ZM11.6298 0.600032H12.6298V-0.399968H11.6298V0.600032ZM11.6298 7.63003V8.63003H12.6298V7.63003H11.6298ZM13.0098 7.63003V0.220032H11.0098V7.63003H13.0098ZM12.0098 -0.779968H9.7298V1.22003H12.0098V-0.779968ZM8.7298 0.220032V7.63003H10.7298V0.220032H8.7298ZM9.7298 6.63003H9.1598V8.63003H9.7298V6.63003ZM10.1598 7.63003V1.74003H8.1598V7.63003H10.1598ZM9.1598 0.740032H6.8798V2.74003H9.1598V0.740032ZM5.8798 1.74003V7.63003H7.8798V1.74003H5.8798ZM6.8798 6.63003H6.3098V8.63003H6.8798V6.63003ZM7.3098 7.63003V3.26003H5.3098V7.63003H7.3098ZM6.3098 2.26003H4.0298V4.26003H6.3098V2.26003ZM3.0298 3.26003V7.63003H5.0298V3.26003H3.0298ZM4.0298 6.63003H3.4598V8.63003H4.0298V6.63003ZM4.4598 7.63003V4.97003H2.4598V7.63003H4.4598ZM3.4598 3.97003H1.1798V5.97003H3.4598V3.97003ZM0.179805 4.97003V7.63003H2.1798V4.97003H0.179805ZM1.1798 6.63003H0.989805V8.63003H1.1798V6.63003ZM0.989805 6.63003C0.333291 6.63003 -0.200195 7.16203 -0.200195 7.82003H1.7998C1.7998 8.2679 1.43656 8.63003 0.989805 8.63003V6.63003ZM-0.200195 7.82003C-0.200195 8.47804 0.333291 9.01003 0.989805 9.01003V7.01003C1.43656 7.01003 1.7998 7.37217 1.7998 7.82003H-0.200195ZM0.989805 9.01003H1.1798V7.01003H0.989805V9.01003ZM1.1798 9.01003H3.4598V7.01003H1.1798V9.01003ZM3.4598 9.01003H4.0298V7.01003H3.4598V9.01003ZM4.0298 9.01003H6.3098V7.01003H4.0298V9.01003ZM6.3098 9.01003H6.8798V7.01003H6.3098V9.01003ZM6.8798 9.01003H9.1598V7.01003H6.8798V9.01003ZM9.1598 9.01003H9.7298V7.01003H9.1598V9.01003ZM9.7298 9.01003H12.0098V7.01003H9.7298V9.01003ZM12.0098 9.01003C12.6663 9.01003 13.1998 8.47804 13.1998 7.82003H11.1998C11.1998 7.37217 11.5631 7.01003 12.0098 7.01003V9.01003ZM13.1998 7.82003C13.1998 7.16203 12.6663 6.63003 12.0098 6.63003V8.63003C11.5631 8.63003 11.1998 8.2679 11.1998 7.82003H13.1998ZM2.5598 7.63003V5.35003H0.559805V7.63003H2.5598ZM1.5598 6.35003H3.0798V4.35003H1.5598V6.35003ZM2.0798 5.35003V7.63003H4.0798V5.35003H2.0798ZM3.0798 6.63003H1.5598V8.63003H3.0798V6.63003ZM5.4098 7.63003V3.64003H3.4098V7.63003H5.4098ZM4.4098 4.64003H5.9298V2.64003H4.4098V4.64003ZM4.9298 3.64003V7.63003H6.9298V3.64003H4.9298ZM5.9298 6.63003H4.4098V8.63003H5.9298V6.63003ZM8.2598 7.63003V2.12003H6.2598V7.63003H8.2598ZM7.2598 3.12003H8.7798V1.12003H7.2598V3.12003ZM7.7798 2.12003V7.63003H9.7798V2.12003H7.7798ZM8.7798 6.63003H7.2598V8.63003H8.7798V6.63003ZM11.1098 7.63003V0.600032H9.1098V7.63003H11.1098ZM10.1098 1.60003H11.6298V-0.399968H10.1098V1.60003ZM10.6298 0.600032V7.63003H12.6298V0.600032H10.6298ZM11.6298 6.63003H10.1098V8.63003H11.6298V6.63003Z" fill="#3044A5" mask="url(#path-1-inside-1)"/>
</svg>
