<svg width="8" height="6" viewBox="0 0 8 6" fill="none" xmlns="http://www.w3.org/2000/svg">
<path d="M0.325001 5.37273C0.357111 5.37273 0.389981 5.36456 0.419811 5.34727L7.31092 1.36867L6.87962 2.31677C6.83611 2.41234 6.87829 2.52501 6.97386 2.56833C6.99932 2.58011 7.02611 2.58543 7.05252 2.58543C7.12472 2.58543 7.19369 2.54401 7.22561 2.47409L7.90239 0.986389C7.90448 0.981639 7.9041 0.976509 7.90581 0.971569C7.90942 0.961499 7.91227 0.951809 7.91417 0.941169C7.91512 0.935849 7.91816 0.931479 7.91854 0.925969C7.91873 0.923689 7.91778 0.921789 7.91797 0.919509C7.91835 0.912289 7.91759 0.905639 7.91721 0.898419C7.91664 0.887969 7.91493 0.878089 7.91265 0.867639C7.91113 0.860419 7.91075 0.853009 7.90828 0.845979C7.906 0.839139 7.90201 0.833439 7.89897 0.826789C7.8965 0.822419 7.8965 0.817289 7.89384 0.812729C7.89118 0.808169 7.88662 0.805509 7.88358 0.801139C7.87959 0.795249 7.87655 0.788979 7.8718 0.783659C7.86686 0.777959 7.86059 0.773969 7.85489 0.768839C7.8471 0.761809 7.83931 0.755349 7.83057 0.749649C7.82468 0.745849 7.81936 0.741669 7.8129 0.738439C7.81081 0.737489 7.80967 0.735589 7.80758 0.734639C7.80283 0.732549 7.7977 0.732929 7.79295 0.731219C7.7825 0.727419 7.77224 0.724759 7.76141 0.722859C7.75647 0.721909 7.75248 0.719059 7.74735 0.718679L6.12057 0.560979C6.01512 0.550339 5.92316 0.627479 5.91309 0.731599C5.90283 0.836099 5.9794 0.929009 6.08371 0.939079L7.12035 1.03959L0.229811 5.01819C0.138801 5.07063 0.107831 5.18691 0.160271 5.27773C0.195421 5.33872 0.259261 5.37273 0.325001 5.37273Z" fill="#3044A5"/>
</svg>
