<svg width="19" height="19" viewBox="0 0 19 19" fill="none" xmlns="http://www.w3.org/2000/svg">
<path d="M9.5 0C4.25379 0 0 4.25379 0 9.5C0 14.7462 4.25379 19 9.5 19C14.7462 19 19 14.7462 19 9.5C19 4.25379 14.7462 0 9.5 0ZM14.0931 12.702C14.1567 12.7656 14.1906 12.8504 14.1906 12.9395C14.1906 13.0286 14.1567 13.1176 14.0931 13.177L13.177 14.0973C13.1092 14.1652 13.0243 14.1949 12.9395 14.1949C12.8547 14.1949 12.7656 14.1609 12.702 14.0973L9.5 10.8911L6.30223 14.1016C6.23862 14.1694 6.14955 14.1991 6.06473 14.1991C5.97991 14.1991 5.89085 14.1652 5.82723 14.1016L4.91116 13.1812C4.84754 13.1176 4.81362 13.0328 4.81362 12.9438C4.81362 12.8547 4.84754 12.7656 4.91116 12.7062L8.12165 9.48304L4.90268 6.30223C4.77121 6.17076 4.77121 5.95446 4.90268 5.82299L5.81875 4.90268C5.88237 4.83906 5.96719 4.80513 6.05625 4.80513C6.14531 4.80513 6.23013 4.83906 6.29375 4.90268L9.50424 8.07076L12.7147 4.90268C12.7783 4.83906 12.8632 4.80513 12.9522 4.80513C13.0413 4.80513 13.1261 4.83906 13.1897 4.90268L14.1058 5.82299C14.2373 5.95446 14.2373 6.17076 14.1058 6.30223L10.8868 9.48304L14.0931 12.702Z" fill="#3044A5"/>
</svg>
