<svg width="16" height="20" viewBox="0 0 16 20" fill="none" xmlns="http://www.w3.org/2000/svg">
<path d="M5.0565 6.99544L5.05463 6.99696L5.05284 6.9987L5.0565 6.99544ZM13.3516 6.84C13.2936 6.78412 13.2293 6.73523 13.1599 6.69432C13.0617 6.63654 12.9528 6.59951 12.8397 6.58552C12.7266 6.57153 12.6119 6.58089 12.5026 6.613C12.3933 6.64511 12.2918 6.6993 12.2042 6.77222C12.1167 6.84514 12.0451 6.93523 11.9938 7.03694C11.7067 7.60251 11.3108 8.10584 10.8288 8.51806C10.9025 8.10273 10.9396 7.68173 10.9398 7.25991C10.9414 5.97666 10.6029 4.71592 9.95872 3.60605C9.31458 2.49618 8.38783 1.57682 7.27284 0.94158C7.15002 0.871952 7.01151 0.834671 6.87033 0.833234C6.72915 0.831797 6.58992 0.866252 6.4657 0.933364C6.34148 1.00048 6.23635 1.09805 6.16016 1.21692C6.08398 1.3358 6.03925 1.47207 6.03017 1.61297C5.98353 2.40312 5.77697 3.17557 5.42299 3.88353C5.06902 4.59148 4.57499 5.22021 3.97086 5.73161L3.7788 5.88786C3.14706 6.31293 2.58788 6.83694 2.12272 7.43977C1.39965 8.35069 0.898755 9.41756 0.659765 10.5558C0.420774 11.694 0.450259 12.8722 0.74588 13.997C1.0415 15.1218 1.59513 16.1623 2.36286 17.0359C3.13058 17.9095 4.0913 18.5922 5.16881 19.0299C5.29532 19.0816 5.43262 19.1014 5.56858 19.0875C5.70454 19.0736 5.83499 19.0265 5.94842 18.9502C6.06185 18.874 6.15478 18.771 6.219 18.6504C6.28323 18.5297 6.31678 18.3951 6.31669 18.2585C6.3161 18.1701 6.3021 18.0823 6.27519 17.998C6.08875 17.2972 6.03506 16.5677 6.1169 15.8472C6.90543 17.3344 8.17118 18.5133 9.71065 19.1943C9.89856 19.2784 10.111 19.2897 10.3068 19.2261C11.5231 18.8335 12.6188 18.1364 13.4898 17.2011C14.3608 16.2658 14.9782 15.1233 15.2833 13.8822C15.5884 12.641 15.5711 11.3425 15.233 10.1099C14.8949 8.87738 14.2473 7.75175 13.3516 6.84ZM10.0976 17.5325C9.3712 17.1644 8.73041 16.6475 8.2169 16.0154C7.70338 15.3834 7.32865 14.6503 7.11705 13.8639C7.05243 13.5991 7.00244 13.331 6.96731 13.0607C6.94351 12.8886 6.86651 12.7282 6.74708 12.602C6.62765 12.4758 6.47176 12.39 6.30122 12.3568C6.24868 12.3464 6.19525 12.3412 6.14169 12.3413C5.99523 12.3413 5.85134 12.3798 5.72453 12.4531C5.59773 12.5264 5.4925 12.6319 5.41944 12.7588C4.728 13.9514 4.38027 15.3122 4.4148 16.6903C3.80667 16.2175 3.29843 15.6286 2.91953 14.9579C2.54064 14.2872 2.29863 13.548 2.20753 12.7831C2.11643 12.0182 2.17805 11.2428 2.38882 10.5019C2.59959 9.76096 2.95532 9.06924 3.43539 8.46681C3.7999 7.99334 4.23963 7.58289 4.73706 7.25181C4.7586 7.23791 4.77925 7.22269 4.79891 7.20624C4.79891 7.20624 5.04615 7.00167 5.0546 6.99699C6.24185 5.99279 7.08627 4.64325 7.47022 3.13641C8.37819 3.97577 8.98363 5.09144 9.19251 6.31017C9.4014 7.5289 9.20204 8.78251 8.62541 9.87632C8.54922 10.0223 8.51797 10.1875 8.53559 10.3512C8.55322 10.5149 8.61892 10.6697 8.72443 10.7961C8.82993 10.9225 8.97051 11.0149 9.12842 11.0615C9.28633 11.1081 9.45451 11.1069 9.61173 11.058C10.8882 10.6579 12.0115 9.87625 12.8303 8.81841C13.3225 9.54532 13.6442 10.3739 13.7716 11.2425C13.899 12.111 13.8287 12.9971 13.566 13.8347C13.3033 14.6723 12.855 15.4398 12.2545 16.0801C11.654 16.7204 10.9167 17.2169 10.0976 17.5326L10.0976 17.5325Z" fill="white"/>
</svg>
