<svg width="14" height="18" viewBox="0 0 14 18" fill="none" xmlns="http://www.w3.org/2000/svg">
<path d="M13.5584 6.1665C13.4963 6.02377 13.3955 5.90128 13.2673 5.81291C13.1392 5.72454 12.9889 5.67382 12.8334 5.6665H9.01673L10.0751 1.7165C10.1088 1.5929 10.1135 1.46319 10.089 1.33745C10.0644 1.21171 10.0111 1.09333 9.93339 0.991504C9.85576 0.890659 9.75606 0.808933 9.64195 0.752597C9.52783 0.696261 9.40232 0.66681 9.27506 0.666504H3.44173C3.25359 0.66006 3.06882 0.717504 2.9175 0.829481C2.76618 0.941458 2.65723 1.10137 2.60839 1.28317L0.375061 9.6165C0.341354 9.74011 0.336601 9.86982 0.361171 9.99556C0.385741 10.1213 0.438971 10.2397 0.516727 10.3415C0.595215 10.4435 0.696249 10.5259 0.811911 10.5823C0.927574 10.6386 1.05472 10.6675 1.18339 10.6665H4.40839L2.90006 16.2832C2.85064 16.4643 2.86383 16.6568 2.93748 16.8295C3.01113 17.0022 3.14094 17.1449 3.30586 17.2346C3.47078 17.3243 3.66116 17.3557 3.84615 17.3237C4.03113 17.2916 4.19988 17.1981 4.32506 17.0582L13.4084 7.05817C13.5166 6.93974 13.5882 6.79261 13.6148 6.63445C13.6414 6.47629 13.6219 6.3138 13.5584 6.1665ZM5.40006 13.3998L6.29173 10.0665C6.32543 9.9429 6.33019 9.81319 6.30562 9.68745C6.28105 9.56171 6.22782 9.44333 6.15006 9.3415C6.07243 9.24066 5.97273 9.15893 5.85861 9.1026C5.7445 9.04626 5.61899 9.01681 5.49173 9.0165H2.29173L4.07506 2.33317H8.18339L7.12506 6.28317C7.09108 6.40905 7.08712 6.54115 7.11348 6.66884C7.13984 6.79653 7.1958 6.91625 7.27686 7.01838C7.35791 7.12051 7.4618 7.2022 7.58017 7.25687C7.69854 7.31154 7.82809 7.33768 7.95839 7.33317H10.9334L5.40006 13.3998Z" fill="white"/>
</svg>
