<svg width="15" height="11" viewBox="0 0 15 11" fill="none" xmlns="http://www.w3.org/2000/svg">
<mask id="path-1-inside-1" fill="white">
<path d="M14.75 10.2501V0.500065H11.75V10.2501H11V2.50006H8V10.2501H7.25V4.50006H4.25V10.2501H3.5V6.75006H0.5V10.2501H0.25C0.112 10.2501 0 10.3618 0 10.5001C0 10.6383 0.112 10.7501 0.25 10.7501H0.5H3.5H4.25H7.25H8H11H11.75H14.75C14.888 10.7501 15 10.6383 15 10.5001C15 10.3618 14.888 10.2501 14.75 10.2501ZM1 10.2501V7.25006H3V10.2501H1ZM4.75 10.2501V5.00006H6.75V10.2501H4.75ZM8.5 10.2501V3.00006H10.5V10.2501H8.5ZM12.25 10.2501V1.00006H14.25V10.2501H12.25Z"/>
</mask>
<path d="M14.75 10.2501V0.500065H11.75V10.2501H11V2.50006H8V10.2501H7.25V4.50006H4.25V10.2501H3.5V6.75006H0.5V10.2501H0.25C0.112 10.2501 0 10.3618 0 10.5001C0 10.6383 0.112 10.7501 0.25 10.7501H0.5H3.5H4.25H7.25H8H11H11.75H14.75C14.888 10.7501 15 10.6383 15 10.5001C15 10.3618 14.888 10.2501 14.75 10.2501ZM1 10.2501V7.25006H3V10.2501H1ZM4.75 10.2501V5.00006H6.75V10.2501H4.75ZM8.5 10.2501V3.00006H10.5V10.2501H8.5ZM12.25 10.2501V1.00006H14.25V10.2501H12.25Z" fill="white"/>
<path d="M14.75 10.2501H13.75V11.2501H14.75V10.2501ZM14.75 0.500065H15.75V-0.499935H14.75V0.500065ZM11.75 0.500065V-0.499935H10.75V0.500065H11.75ZM11.75 10.2501V11.2501H12.75V10.2501H11.75ZM11 10.2501H10V11.2501H11V10.2501ZM11 2.50006H12V1.50006H11V2.50006ZM8 2.50006V1.50006H7V2.50006H8ZM8 10.2501V11.2501H9V10.2501H8ZM7.25 10.2501H6.25V11.2501H7.25V10.2501ZM7.25 4.50006H8.25V3.50006H7.25V4.50006ZM4.25 4.50006V3.50006H3.25V4.50006H4.25ZM4.25 10.2501V11.2501H5.25V10.2501H4.25ZM3.5 10.2501H2.5V11.2501H3.5V10.2501ZM3.5 6.75006H4.5V5.75006H3.5V6.75006ZM0.5 6.75006V5.75006H-0.5V6.75006H0.5ZM0.5 10.2501V11.2501H1.5V10.2501H0.5ZM1 10.2501H0V11.2501H1V10.2501ZM1 7.25006V6.25006H0V7.25006H1ZM3 7.25006H4V6.25006H3V7.25006ZM3 10.2501V11.2501H4V10.2501H3ZM4.75 10.2501H3.75V11.2501H4.75V10.2501ZM4.75 5.00006V4.00006H3.75V5.00006H4.75ZM6.75 5.00006H7.75V4.00006H6.75V5.00006ZM6.75 10.2501V11.2501H7.75V10.2501H6.75ZM8.5 10.2501H7.5V11.2501H8.5V10.2501ZM8.5 3.00006V2.00006H7.5V3.00006H8.5ZM10.5 3.00006H11.5V2.00006H10.5V3.00006ZM10.5 10.2501V11.2501H11.5V10.2501H10.5ZM12.25 10.2501H11.25V11.2501H12.25V10.2501ZM12.25 1.00006V6.48499e-05H11.25V1.00006H12.25ZM14.25 1.00006H15.25V6.48499e-05H14.25V1.00006ZM14.25 10.2501V11.2501H15.25V10.2501H14.25ZM15.75 10.2501V0.500065H13.75V10.2501H15.75ZM14.75 -0.499935H11.75V1.50006H14.75V-0.499935ZM10.75 0.500065V10.2501H12.75V0.500065H10.75ZM11.75 9.25006H11V11.2501H11.75V9.25006ZM12 10.2501V2.50006H10V10.2501H12ZM11 1.50006H8V3.50006H11V1.50006ZM7 2.50006V10.2501H9V2.50006H7ZM8 9.25006H7.25V11.2501H8V9.25006ZM8.25 10.2501V4.50006H6.25V10.2501H8.25ZM7.25 3.50006H4.25V5.50006H7.25V3.50006ZM3.25 4.50006V10.2501H5.25V4.50006H3.25ZM4.25 9.25006H3.5V11.2501H4.25V9.25006ZM4.5 10.2501V6.75006H2.5V10.2501H4.5ZM3.5 5.75006H0.5V7.75006H3.5V5.75006ZM-0.5 6.75006V10.2501H1.5V6.75006H-0.5ZM0.5 9.25006H0.25V11.2501H0.5V9.25006ZM0.25 9.25006C-0.439633 9.25006 -1 9.80888 -1 10.5001H1C1 10.9148 0.663633 11.2501 0.25 11.2501V9.25006ZM-1 10.5001C-1 11.1913 -0.439633 11.7501 0.25 11.7501V9.75006C0.663633 9.75006 1 10.0854 1 10.5001H-1ZM0.25 11.7501H0.5V9.75006H0.25V11.7501ZM0.5 11.7501H3.5V9.75006H0.5V11.7501ZM3.5 11.7501H4.25V9.75006H3.5V11.7501ZM4.25 11.7501H7.25V9.75006H4.25V11.7501ZM7.25 11.7501H8V9.75006H7.25V11.7501ZM8 11.7501H11V9.75006H8V11.7501ZM11 11.7501H11.75V9.75006H11V11.7501ZM11.75 11.7501H14.75V9.75006H11.75V11.7501ZM14.75 11.7501C15.4396 11.7501 16 11.1913 16 10.5001H14C14 10.0854 14.3364 9.75006 14.75 9.75006V11.7501ZM16 10.5001C16 9.80888 15.4396 9.25006 14.75 9.25006V11.2501C14.3364 11.2501 14 10.9148 14 10.5001H16ZM2 10.2501V7.25006H0V10.2501H2ZM1 8.25006H3V6.25006H1V8.25006ZM2 7.25006V10.2501H4V7.25006H2ZM3 9.25006H1V11.2501H3V9.25006ZM5.75 10.2501V5.00006H3.75V10.2501H5.75ZM4.75 6.00006H6.75V4.00006H4.75V6.00006ZM5.75 5.00006V10.2501H7.75V5.00006H5.75ZM6.75 9.25006H4.75V11.2501H6.75V9.25006ZM9.5 10.2501V3.00006H7.5V10.2501H9.5ZM8.5 4.00006H10.5V2.00006H8.5V4.00006ZM9.5 3.00006V10.2501H11.5V3.00006H9.5ZM10.5 9.25006H8.5V11.2501H10.5V9.25006ZM13.25 10.2501V1.00006H11.25V10.2501H13.25ZM12.25 2.00006H14.25V6.48499e-05H12.25V2.00006ZM13.25 1.00006V10.2501H15.25V1.00006H13.25ZM14.25 9.25006H12.25V11.2501H14.25V9.25006Z" fill="white" mask="url(#path-1-inside-1)"/>
</svg>
