<svg width="12" height="12" viewBox="0 0 12 12" fill="none" xmlns="http://www.w3.org/2000/svg">
<path d="M0.000488281 4.00001H1.00049V3.00001H0.000488281V4.00001ZM4.00049 3.00001H5.00049V2.00001H4.00049V3.00001ZM6.00049 3.00001H7.00049V2.00001H6.00049V3.00001ZM8.00049 3.00001H9.00049V2.00001H8.00049V3.00001ZM4.00049 1.00001H5.00049V1.14441e-05H4.00049V1.00001ZM6.00049 1.00001H7.00049V1.14441e-05H6.00049V1.00001ZM8.00049 1.00001H9.00049V1.14441e-05H8.00049V1.00001ZM4.00049 7.00001H5.00049V6.00001H4.00049V7.00001ZM6.00049 7.00001H7.00049V6.00001H6.00049V7.00001ZM8.00049 7.00001H9.00049V6.00001H8.00049V7.00001ZM4.00049 9.00001H5.00049V8.00001H4.00049V9.00001ZM8.00049 9.00001H9.00049V8.00001H8.00049V9.00001ZM4.00049 11H5.00049V10H4.00049V11ZM8.00049 11H9.00049V10H8.00049V11ZM11.0005 10H12.0005V9.00001H11.0005V10ZM11.0005 7.00001V8.00001H12.0005V7.00001H11.0005ZM11.0005 12H12.0005V11H11.0005V12ZM4.00049 5.00001H5.00049V4.00001H4.00049V5.00001ZM6.00049 5.00001H7.00049V4.00001H6.00049V5.00001ZM8.00049 5.00001H9.00049V4.00001H8.00049V5.00001ZM0.000488281 6.00001H1.00049V5.00001H0.000488281V6.00001ZM0.000488281 8.00001H1.00049V7.00001H0.000488281V8.00001ZM0.000488281 10H1.00049V9.00001H0.000488281V10ZM0.000488281 12H1.00049V11H0.000488281V12ZM6.00049 9.00001H7.00049V8.00001H6.00049V9.00001Z" fill="#1D5381"/>
</svg>
