<svg width="11" height="7" viewBox="0 0 11 7" fill="none" xmlns="http://www.w3.org/2000/svg">
<path d="M1.00715 6.33255C1.0494 6.33255 1.09265 6.3218 1.1319 6.29905L10.1991 1.06405L9.63165 2.31155C9.5744 2.4373 9.6299 2.58555 9.75565 2.64254C9.78915 2.65805 9.8244 2.66505 9.85915 2.66505C9.95415 2.66505 10.0449 2.61055 10.0869 2.51855L10.9774 0.561045C10.9801 0.554795 10.9796 0.548045 10.9819 0.541545C10.9866 0.528295 10.9904 0.515545 10.9929 0.501545C10.9941 0.494545 10.9981 0.488795 10.9986 0.481545C10.9989 0.478545 10.9976 0.476045 10.9979 0.473045C10.9984 0.463545 10.9974 0.454795 10.9969 0.445295C10.9961 0.431545 10.9939 0.418545 10.9909 0.404795C10.9889 0.395295 10.9884 0.385545 10.9851 0.376295C10.9821 0.367295 10.9769 0.359795 10.9729 0.351045C10.9696 0.345295 10.9696 0.338545 10.9661 0.332545C10.9626 0.326545 10.9566 0.323045 10.9526 0.317295C10.9474 0.309545 10.9434 0.301295 10.9371 0.294295C10.9306 0.286795 10.9224 0.281545 10.9149 0.274795C10.9046 0.265545 10.8944 0.257045 10.8829 0.249545C10.8751 0.244545 10.8681 0.239045 10.8596 0.234795C10.8569 0.233545 10.8554 0.231045 10.8526 0.229795C10.8464 0.227045 10.8396 0.227545 10.8334 0.225295C10.8196 0.220295 10.8061 0.216795 10.7919 0.214295C10.7854 0.213045 10.7801 0.209295 10.7734 0.208795L8.6329 0.00129494C8.49415 -0.0127051 8.37315 0.088795 8.3599 0.225795C8.3464 0.363295 8.44715 0.485545 8.5844 0.498795L9.9484 0.631045L0.881896 5.86605C0.762146 5.93505 0.721396 6.08805 0.790396 6.20755C0.836646 6.2878 0.920646 6.33255 1.00715 6.33255Z" fill="white"/>
</svg>
