<svg width="14" height="18" viewBox="0 0 14 18" fill="none" xmlns="http://www.w3.org/2000/svg">
<path d="M13.5584 6.16663C13.4963 6.02389 13.3955 5.9014 13.2673 5.81303C13.1392 5.72466 12.9889 5.67394 12.8334 5.66663H9.01673L10.0751 1.71663C10.1088 1.59302 10.1135 1.46331 10.089 1.33757C10.0644 1.21183 10.0111 1.09345 9.93339 0.991627C9.85576 0.890781 9.75606 0.809055 9.64195 0.752719C9.52783 0.696383 9.40232 0.666932 9.27506 0.666626H3.44173C3.25359 0.660182 3.06882 0.717626 2.9175 0.829603C2.76618 0.94158 2.65723 1.10149 2.60839 1.28329L0.375061 9.61663C0.341354 9.74023 0.336601 9.86994 0.361171 9.99568C0.385741 10.1214 0.438971 10.2398 0.516727 10.3416C0.595215 10.4436 0.696249 10.526 0.811911 10.5824C0.927574 10.6388 1.05472 10.6676 1.18339 10.6666H4.40839L2.90006 16.2833C2.85064 16.4644 2.86383 16.6569 2.93748 16.8296C3.01113 17.0023 3.14094 17.145 3.30586 17.2347C3.47078 17.3244 3.66116 17.3558 3.84615 17.3238C4.03113 17.2918 4.19988 17.1982 4.32506 17.0583L13.4084 7.05829C13.5166 6.93986 13.5882 6.79274 13.6148 6.63457C13.6414 6.47641 13.6219 6.31393 13.5584 6.16663ZM5.40006 13.4L6.29173 10.0666C6.32543 9.94302 6.33019 9.81331 6.30562 9.68757C6.28105 9.56183 6.22782 9.44345 6.15006 9.34163C6.07243 9.24078 5.97273 9.15905 5.85861 9.10272C5.7445 9.04638 5.61899 9.01693 5.49173 9.01663H2.29173L4.07506 2.33329H8.18339L7.12506 6.28329C7.09108 6.40917 7.08712 6.54127 7.11348 6.66896C7.13984 6.79665 7.1958 6.91638 7.27686 7.01851C7.35791 7.12064 7.4618 7.20232 7.58017 7.25699C7.69854 7.31166 7.82809 7.3378 7.95839 7.33329H10.9334L5.40006 13.4Z" fill="white"/>
</svg>
