<svg width="14" height="18" viewBox="0 0 14 18" fill="none" xmlns="http://www.w3.org/2000/svg">
<path d="M13.5584 6.16666C13.4963 6.02392 13.3955 5.90143 13.2673 5.81306C13.1392 5.72469 12.9889 5.67397 12.8334 5.66666H9.01673L10.0751 1.71666C10.1088 1.59305 10.1135 1.46334 10.089 1.3376C10.0644 1.21186 10.0111 1.09348 9.93339 0.991657C9.85576 0.890811 9.75606 0.809086 9.64195 0.75275C9.52783 0.696413 9.40232 0.666963 9.27506 0.666657H3.44173C3.25359 0.660213 3.06882 0.717657 2.9175 0.829634C2.76618 0.94161 2.65723 1.10152 2.60839 1.28332L0.375061 9.61666C0.341354 9.74026 0.336601 9.86997 0.361171 9.99571C0.385741 10.1215 0.438971 10.2398 0.516727 10.3417C0.595215 10.4436 0.696249 10.526 0.811911 10.5824C0.927574 10.6388 1.05472 10.6676 1.18339 10.6667H4.40839L2.90006 16.2833C2.85064 16.4644 2.86383 16.6569 2.93748 16.8296C3.01113 17.0023 3.14094 17.1451 3.30586 17.2348C3.47078 17.3245 3.66116 17.3558 3.84615 17.3238C4.03113 17.2918 4.19988 17.1982 4.32506 17.0583L13.4084 7.05832C13.5166 6.93989 13.5882 6.79277 13.6148 6.6346C13.6414 6.47644 13.6219 6.31396 13.5584 6.16666ZM5.40006 13.4L6.29173 10.0667C6.32543 9.94305 6.33019 9.81334 6.30562 9.6876C6.28105 9.56186 6.22782 9.44348 6.15006 9.34166C6.07243 9.24081 5.97273 9.15909 5.85861 9.10275C5.7445 9.04641 5.61899 9.01696 5.49173 9.01666H2.29173L4.07506 2.33332H8.18339L7.12506 6.28332C7.09108 6.4092 7.08712 6.5413 7.11348 6.66899C7.13984 6.79668 7.1958 6.91641 7.27686 7.01854C7.35791 7.12067 7.4618 7.20235 7.58017 7.25702C7.69854 7.31169 7.82809 7.33783 7.95839 7.33332H10.9334L5.40006 13.4Z" fill="white"/>
</svg>
