<svg width="15" height="17" viewBox="0 0 15 17" fill="none" xmlns="http://www.w3.org/2000/svg">
<path d="M1.20625 16.8125H13.7938C14.2502 16.8125 14.625 16.4451 14.625 15.9924V8.12891C14.625 7.67617 14.2539 7.3125 13.7938 7.3125H12.9922V6.16582C12.9922 4.62578 12.391 2.91504 11.4113 1.8834C10.4354 0.851758 9.03633 0.1875 7.50371 0.1875C7.5 0.1875 7.5 0.1875 7.5 0.1875H7.49629C5.96367 0.1875 4.56465 0.851758 3.58867 1.87969C2.60898 2.91133 2.00781 4.62207 2.00781 6.16211V7.3125H1.30273H1.20625C0.746094 7.3125 0.375 7.67988 0.375 8.12891V15.9924C0.375 16.4451 0.746094 16.8125 1.20625 16.8125ZM3.97461 6.16582C3.97461 5.15273 4.34199 3.89844 5.01738 3.18594V3.1748C5.67051 2.48457 6.57227 2.08008 7.49629 2.08008H7.5H7.50371C8.42773 2.08008 9.32949 2.48457 9.98262 3.1748V3.18223L9.97891 3.18594C10.658 3.89844 11.0217 5.15273 11.0217 6.16582V7.3125H10.3723H4.62031H3.97461V6.16582Z" fill="#3044A5"/>
</svg>
