<svg width="15" height="18" viewBox="0 0 15 18" fill="none" xmlns="http://www.w3.org/2000/svg">
<path d="M14.7289 14.8494L13.1928 12.9518C13.0422 12.741 12.9518 12.5 12.9518 12.2289V8.31325C12.9518 5.87349 11.3253 3.70482 8.9759 3.04217V1.50602C8.9759 0.662651 8.28313 0 7.46988 0C6.65663 0 5.96386 0.692771 5.96386 1.50602V3.01205C3.58434 3.70482 1.95783 5.87349 1.98795 8.31325V12.2289C1.98795 12.5 1.89759 12.741 1.74699 12.9518L0.210843 14.8494C0.0903614 15 0 15.2108 0 15.4217V17.8012H15V15.4217C14.9398 15.2108 14.8494 15 14.7289 14.8494ZM6.83735 1.50602C6.83735 1.1747 7.10843 0.903615 7.43976 0.903615C7.77108 0.903615 8.04217 1.1747 8.04217 1.50602V2.86145C7.62048 2.8012 7.22892 2.8012 6.80723 2.86145V1.50602H6.83735ZM14.0361 16.8675H0.843374V15.4217L2.37952 13.5241C2.68072 13.1627 2.83133 12.7108 2.83133 12.2289V8.31325C2.83133 5.78313 4.87952 3.70482 7.43976 3.70482C10 3.70482 12.0482 5.75301 12.0482 8.31325V12.2289C12.0482 12.7108 12.1988 13.1627 12.5 13.5241L14.0361 15.4217V16.8675Z" fill="white"/>
</svg>
