<svg width="14" height="14" viewBox="0 0 14 14" fill="none" xmlns="http://www.w3.org/2000/svg">
<path d="M13.8136 12.9111L10.2258 9.32339C11.0103 8.34116 11.4807 7.09567 11.4807 5.74032C11.4807 2.57039 8.91033 0 5.74037 0C2.57041 0 0 2.57039 0 5.74032C0 8.91025 2.57041 11.4806 5.74037 11.4806C7.09573 11.4806 8.34123 11.0103 9.32347 10.2257L12.9112 13.8134C13.0354 13.9378 13.2001 14 13.3623 14C13.5251 14 13.6892 13.9378 13.8136 13.8134C14.0621 13.5647 14.0621 13.1595 13.8136 12.9111ZM5.74037 10.205C3.27456 10.205 1.27564 8.2061 1.27564 5.74032C1.27564 3.27453 3.27456 1.27563 5.74037 1.27563C8.20618 1.27563 10.2051 3.27453 10.2051 5.74032C10.2051 8.2061 8.20618 10.205 5.74037 10.205Z" fill="#3044A5"/>
</svg>
